<svg width="32" height="32" viewBox="0 0 32 32" fill="none" xmlns="http://www.w3.org/2000/svg">
<path d="M3.33411 25.1992L3.06785 28.6075C2.92836 30.4127 4.14166 32 5.68103 32H13.4809C14.9206 32 16.094 30.5956 16.094 28.8915V27.9606H17.6402C19.4136 27.9606 20.867 26.2406 20.867 24.1421V21.3807L22.7201 20.5602C23.1068 20.3867 23.4134 20.0079 23.5335 19.5345C23.6536 19.0612 23.5736 18.5404 23.3203 18.146L20.9467 14.3591C21.2003 12.6076 21.627 6.64308 17.1207 2.58786C13.5075 -0.662618 8.50774 -0.867753 4.66739 2.06712C0.607672 5.19351 -0.962698 10.3994 0.587797 15.716C2.10067 20.7673 3.60003 21.5758 3.33411 25.1992Z" fill="#FF8285"/>
<path d="M25.8479 22.7258C26.5849 22.7258 27.1812 22.0193 27.1812 21.1479V16.2C27.1812 15.3286 26.5849 14.6221 25.8479 14.6221C25.111 14.6221 24.5146 15.3286 24.5146 16.2V21.1479C24.5146 22.0193 25.111 22.7258 25.8479 22.7258Z" fill="#FF8285"/>
<path d="M30.6668 12.3633C29.9298 12.3633 29.3335 13.0698 29.3335 13.9412V23.4086C29.3335 24.28 29.9298 24.9865 30.6668 24.9865C31.4037 24.9865 32.0001 24.28 32.0001 23.4086V13.9412C32.0001 13.0698 31.4037 12.3633 30.6668 12.3633Z" fill="#FF8285"/>
</svg>
