<svg width="32" height="32" viewBox="0 0 32 32" fill="none" xmlns="http://www.w3.org/2000/svg">
<g clip-path="url(#clip0_2215_10110)">
<path d="M18.6152 0.525085C11.9202 0.0750855 6.3352 5.30009 6.1952 11.8651H6.1902L2.5752 18.0601H6.1902V24.2551C6.1902 25.1101 6.8852 25.8051 7.7402 25.8051H13.4202V26.8051H10.8402V32.0001H23.7502C23.7502 32.0001 23.5252 28.4351 24.6902 24.2401C25.2452 22.2351 26.2352 20.3851 27.4102 18.6701C28.8202 16.6101 29.5852 14.0701 29.4052 11.3401C29.0302 5.59509 24.3652 0.915085 18.6202 0.530085L18.6152 0.525085ZM18.0002 16.5001C13.5802 16.5001 10.0002 13.5901 10.0002 10.0001C10.0002 6.41009 13.5802 3.50009 18.0002 3.50009C22.4202 3.50009 26.0002 6.41009 26.0002 10.0001C26.0002 13.5901 22.4202 16.5001 18.0002 16.5001Z" fill="#FF8285"/>
<path d="M21.9651 7.31457C21.8851 7.11457 21.6801 6.99457 21.4651 6.99957C21.2501 7.01457 21.0651 7.16457 21.0151 7.37957L20.0551 11.2246L18.9901 5.90457C18.9451 5.67457 18.7501 5.50957 18.5151 5.50457C18.2851 5.48457 18.0751 5.64957 18.0151 5.87457L16.8251 10.2446L15.9301 8.74957C15.8351 8.59457 15.6701 8.49457 15.4801 8.50957C15.2951 8.51457 15.1351 8.62457 15.0501 8.78457L14.3601 10.1646L13.8501 9.65457C13.7551 9.55957 13.6301 9.50957 13.4951 9.50957H11.4951V10.5096H13.2901L14.1451 11.3646C14.2601 11.4796 14.4201 11.5296 14.5801 11.5046C14.7401 11.4796 14.8751 11.3796 14.9451 11.2346L15.5401 10.0496L16.5701 11.7696C16.6751 11.9396 16.8651 12.0396 17.0651 12.0096C17.2651 11.9846 17.4251 11.8396 17.4801 11.6446L18.4251 8.18957L19.5101 13.6146C19.5551 13.8446 19.7551 14.0096 19.9901 14.0146H20.0001C20.2301 14.0146 20.4301 13.8596 20.4851 13.6346L21.6101 9.13457L22.0351 10.1996C22.1101 10.3896 22.2951 10.5146 22.5001 10.5146H24.5001V9.51457H22.8401L21.9651 7.32957V7.31457Z" fill="#FF8285"/>
</g>
<defs>
<clipPath id="clip0_2215_10110">
<rect width="32" height="32" fill="white"/>
</clipPath>
</defs>
</svg>
