<svg width="32" height="32" viewBox="0 0 32 32" fill="none" xmlns="http://www.w3.org/2000/svg">
<g clip-path="url(#clip0_2215_10144)">
<path d="M3.75 19.75C5.81775 19.75 7.5 18.0677 7.5 16C7.5 13.9323 5.81775 12.25 3.75 12.25C1.68225 12.25 0 13.9323 0 16C0 18.0677 1.68225 19.75 3.75 19.75ZM3.75 14.75C4.43925 14.75 5 15.3108 5 16C5 16.6892 4.43925 17.25 3.75 17.25C3.06075 17.25 2.5 16.6892 2.5 16C2.5 15.3108 3.06075 14.75 3.75 14.75ZM28.25 12.25C26.1823 12.25 24.5 13.9323 24.5 16C24.5 18.0677 26.1823 19.75 28.25 19.75C30.3177 19.75 32 18.0677 32 16C32 13.9323 30.3177 12.25 28.25 12.25ZM28.25 17.25C27.5608 17.25 27 16.6892 27 16C27 15.3108 27.5608 14.75 28.25 14.75C28.9392 14.75 29.5 15.3108 29.5 16C29.5 16.6892 28.9392 17.25 28.25 17.25ZM28.25 24.5C26.6204 24.5 25.2311 25.5451 24.715 27H19.5349C19.0189 25.5451 17.6295 24.5 16 24.5C14.3704 24.5 12.9811 25.5451 12.465 27H7.285C7.24069 26.875 7.19038 26.7528 7.13356 26.6343L14.3842 19.3836C14.8738 19.6182 15.4218 19.75 16 19.75C18.0677 19.75 19.75 18.0677 19.75 16C19.75 15.4218 19.6182 14.8739 19.3836 14.3843L26.6343 7.13356C27.1238 7.36831 27.6718 7.5 28.25 7.5C30.3177 7.5 32 5.81775 32 3.75C32 1.68225 30.3177 0 28.25 0C26.6204 0 25.2311 1.04513 24.715 2.5H19.5349C19.0189 1.04513 17.6296 0 16 0C14.3704 0 12.9811 1.04513 12.465 2.5H7.285C6.769 1.04513 5.37956 0 3.75 0C1.68225 0 0 1.68225 0 3.75C0 5.81775 1.68225 7.5 3.75 7.5C5.37956 7.5 6.76894 6.45487 7.285 5H12.4651C12.9811 6.45487 14.3705 7.5 16.0001 7.5C17.6296 7.5 19.019 6.45487 19.535 5H24.7151C24.7594 5.125 24.8097 5.24719 24.8665 5.36575L17.6158 12.6165C17.1262 12.3817 16.5782 12.25 16 12.25C13.9323 12.25 12.25 13.9323 12.25 16C12.25 16.5782 12.3817 17.1262 12.6165 17.6157L5.36581 24.8665C4.87619 24.6318 4.32825 24.5 3.75 24.5C1.68225 24.5 0 26.1823 0 28.25C0 30.3177 1.68225 32 3.75 32C5.37956 32 6.76894 30.9549 7.285 29.5H12.4651C12.9811 30.9549 14.3705 32 16.0001 32C17.6296 32 19.019 30.9549 19.535 29.5H24.7151C25.2311 30.9549 26.6205 32 28.2501 32C30.3178 32 32.0001 30.3177 32.0001 28.25C32.0001 26.1823 30.3177 24.5 28.25 24.5ZM28.25 2.5C28.9392 2.5 29.5 3.06075 29.5 3.75C29.5 4.43925 28.9392 5 28.25 5C27.5608 5 27 4.43925 27 3.75C27 3.06075 27.5607 2.5 28.25 2.5ZM3.75 5C3.06075 5 2.5 4.43925 2.5 3.75C2.5 3.06075 3.06075 2.5 3.75 2.5C4.43925 2.5 5 3.06075 5 3.75C5 4.43925 4.43925 5 3.75 5ZM16 5C15.3108 5 14.75 4.43925 14.75 3.75C14.75 3.06075 15.3108 2.5 16 2.5C16.6892 2.5 17.25 3.06075 17.25 3.75C17.25 4.43925 16.6892 5 16 5ZM16 14.75C16.6892 14.75 17.25 15.3108 17.25 16C17.25 16.6892 16.6892 17.25 16 17.25C15.3108 17.25 14.75 16.6892 14.75 16C14.75 15.3108 15.3108 14.75 16 14.75ZM3.75 29.5C3.06075 29.5 2.5 28.9392 2.5 28.25C2.5 27.5608 3.06075 27 3.75 27C4.43925 27 5 27.5608 5 28.25C5 28.9392 4.43925 29.5 3.75 29.5ZM16 29.5C15.3108 29.5 14.75 28.9392 14.75 28.25C14.75 27.5608 15.3108 27 16 27C16.6892 27 17.25 27.5608 17.25 28.25C17.25 28.9392 16.6892 29.5 16 29.5ZM28.25 29.5C27.5608 29.5 27 28.9392 27 28.25C27 27.5608 27.5608 27 28.25 27C28.9392 27 29.5 27.5608 29.5 28.25C29.5 28.9392 28.9392 29.5 28.25 29.5Z" fill="#FF8285"/>
</g>
<defs>
<clipPath id="clip0_2215_10144">
<rect width="32" height="32" fill="white"/>
</clipPath>
</defs>
</svg>
