<svg width="32" height="32" viewBox="0 0 32 32" fill="none" xmlns="http://www.w3.org/2000/svg">
<path d="M13.4278 3.2456L13.6203 2.54734C13.9516 1.34852 14.9883 0.452555 16.2641 0.230849C17.088 0.0891396 17.9094 0.0114282 18.7297 0C19.5512 0.0114282 20.3726 0.0891398 21.1953 0.231992C22.4712 0.453698 23.5079 1.34967 23.8391 2.54848L24.0316 3.24674C24.4011 4.58498 23.3464 5.89465 21.8984 5.89465H15.561C14.113 5.89465 13.0584 4.58384 13.4278 3.2456Z" fill="#FF8285"/>
<path d="M27.5876 3.62305H26.2507C26.2926 4.58873 25.9865 5.53955 25.3528 6.32695C24.5217 7.35891 23.2614 7.95089 21.8983 7.95089H15.5597C14.1966 7.95089 12.9375 7.35891 12.1052 6.32695C11.4715 5.53955 11.1654 4.58873 11.2073 3.62305H9.8788C7.4395 3.62305 5.45459 5.52012 5.45459 7.85147V19.5139H5.45698C9.65161 19.5139 13.0642 22.7755 13.0642 26.7845C13.0642 27.7559 12.8598 28.6827 12.4963 29.5307H27.5876C30.0269 29.5307 31.9998 27.645 31.9998 25.3137V7.84004C31.9998 5.50869 30.0269 3.62305 27.5876 3.62305ZM12.8681 20.0007H12.2475C11.6533 20.0007 11.1714 19.5402 11.1714 18.9722C11.1714 18.4042 11.6533 17.9437 12.2475 17.9437H12.8681C13.4624 17.9437 13.9443 18.4042 13.9443 18.9722C13.9443 19.5402 13.4624 20.0007 12.8681 20.0007ZM12.8681 15.2123H12.2475C11.6533 15.2123 11.1714 14.7518 11.1714 14.1838C11.1714 13.6158 11.6533 13.1553 12.2475 13.1553H12.8681C13.4624 13.1553 13.9443 13.6158 13.9443 14.1838C13.9443 14.7518 13.4624 15.2123 12.8681 15.2123ZM25.2129 20.0007H16.8846C16.2903 20.0007 15.8084 19.5402 15.8084 18.9722C15.8084 18.4042 16.2903 17.9437 16.8846 17.9437H25.2129C25.8071 17.9437 26.289 18.4042 26.289 18.9722C26.289 19.5402 25.8071 20.0007 25.2129 20.0007ZM25.2129 15.2123H16.8846C16.2903 15.2123 15.8084 14.7518 15.8084 14.1838C15.8084 13.6158 16.2903 13.1553 16.8846 13.1553H25.2129C25.8071 13.1553 26.289 13.6158 26.289 14.1838C26.289 14.7518 25.8071 15.2123 25.2129 15.2123Z" fill="#FF8285"/>
<path d="M5.45612 21.5703C2.44288 21.5703 0 23.9051 0 26.785C0 29.6649 2.44288 31.9997 5.45612 31.9997C8.46936 31.9997 10.9122 29.6649 10.9122 26.785C10.9122 23.9051 8.46936 21.5703 5.45612 21.5703ZM7.98629 26.697L5.3234 28.7483C5.13208 28.8958 4.89293 28.9758 4.649 28.9758C4.60835 28.9758 4.56769 28.9735 4.52704 28.9689C4.24126 28.9381 3.97939 28.7986 3.80242 28.5826L2.75496 27.3073C2.38788 26.8604 2.47038 26.2136 2.93672 25.8627C3.40544 25.5096 4.08103 25.5907 4.44812 26.0364L4.82238 26.4924L6.63631 25.0959C7.10025 24.7393 7.77584 24.8102 8.1501 25.2513C8.52198 25.6936 8.45023 26.3404 7.98629 26.697Z" fill="#FF8285"/>
</svg>
