<svg width="32" height="32" viewBox="0 0 32 32" fill="none" xmlns="http://www.w3.org/2000/svg">
<path d="M21.7892 14.5342H10.2105C8.61306 14.5342 7.31348 15.9636 7.31348 17.7207V28.8135C7.31348 30.5706 8.61306 32 10.2105 32H21.7897C23.3872 32 24.6867 30.5706 24.6867 28.8135V17.7207C24.6862 15.9636 23.3866 14.5342 21.7892 14.5342ZM10.2105 17.3682H21.7897C21.9665 17.3682 22.1102 17.5257 22.1102 17.7201V23.3144L19.0494 20.82C18.5068 20.379 17.7472 20.4714 17.3056 21.0342L15.2099 23.7146L13.3863 22.8123C12.8086 22.5277 12.1269 22.7454 11.7796 23.3292L9.89048 26.5078V17.7207C9.88996 17.5263 10.0337 17.3682 10.2105 17.3682ZM21.7892 29.166H11.3895L13.3332 25.8945L15.0301 26.7339C15.5505 26.9918 16.1627 26.841 16.5347 26.3661L18.4774 23.8824L22.1102 26.8422V28.8135C22.1097 29.0079 21.966 29.166 21.7892 29.166Z" fill="#FF8285"/>
<path d="M14.4535 21.6744C15.1925 21.6744 15.7917 21.0154 15.7917 20.2024C15.7917 19.3895 15.1925 18.7305 14.4535 18.7305C13.7144 18.7305 13.1152 19.3895 13.1152 20.2024C13.1152 21.0154 13.7144 21.6744 14.4535 21.6744Z" fill="#FF8285"/>
<path d="M27.9807 9.20509C27.5014 5.912 24.8889 3.38975 21.7662 3.38975C21.1633 3.38975 20.5552 3.48611 19.9781 3.67315C18.0766 0.980862 14.7942 -0.424795 11.4654 0.113662C6.96681 0.839163 3.68952 4.85776 3.70498 9.35246C1.02491 10.6765 -0.571993 13.9549 0.190647 17.3789C0.787362 20.0587 2.83464 21.992 5.25242 22.4693V19.5565C3.90904 19.1008 2.84134 17.8794 2.62079 16.2997C2.32398 14.1708 3.54008 12.2154 5.37454 11.7047C6.01351 11.529 6.42575 10.8431 6.333 10.129C5.88469 6.71118 8.35296 3.48044 11.8415 2.91364C12.1919 2.85696 12.5423 2.83429 12.8824 2.83429C15.191 2.83429 17.314 4.06991 18.3703 6.10471C18.7104 6.76786 19.4628 7.01158 20.076 6.66584C20.6016 6.3711 21.1684 6.22374 21.7662 6.22374C23.8067 6.22374 25.4763 8.04882 25.4866 10.2877C25.4866 10.9888 25.9591 11.5885 26.5991 11.6848C27.3582 11.7993 28.0832 12.1468 28.5315 12.8303C30.4299 15.7261 29.0458 18.8469 26.7481 19.5877V22.4511C29.6734 21.8163 32.0098 18.9971 32 15.6371C31.9917 12.7283 30.3809 10.2168 27.9807 9.20509Z" fill="#FF8285"/>
</svg>
