<svg width="32" height="32" viewBox="0 0 32 32" fill="none" xmlns="http://www.w3.org/2000/svg">
<g clip-path="url(#clip0_2215_10152)">
<path d="M19 0H3.66667C1.64 0 0 1.64 0 3.66667V24.3333C0 26.36 1.64 28 3.66667 28H14.52C13.3467 26.4 12.6667 24.4533 12.6667 22.3333C12.6667 17 17 12.6667 22.3333 12.6667C22.44 12.6667 22.56 12.6667 22.6667 12.68V3.66667C22.6667 1.64 21.0267 0 19 0ZM5.33333 5.33333H10.6667C11.4 5.33333 12 5.93333 12 6.66667C12 7.4 11.4 8 10.6667 8H5.33333C4.6 8 4 7.4 4 6.66667C4 5.93333 4.6 5.33333 5.33333 5.33333ZM12 18.6667H5.33333C4.6 18.6667 4 18.0667 4 17.3333C4 16.6 4.6 16 5.33333 16H12C12.7333 16 13.3333 16.6 13.3333 17.3333C13.3333 18.0667 12.7333 18.6667 12 18.6667ZM17.3333 13.3333H5.33333C4.6 13.3333 4 12.7333 4 12C4 11.2667 4.6 10.6667 5.33333 10.6667H17.3333C18.0667 10.6667 18.6667 11.2667 18.6667 12C18.6667 12.7333 18.0667 13.3333 17.3333 13.3333Z" fill="#FF8285"/>
<path d="M22.3335 29.333C18.4735 29.333 15.3335 26.193 15.3335 22.333C15.3335 18.473 18.4735 15.333 22.3335 15.333C26.1935 15.333 29.3335 18.473 29.3335 22.333C29.3335 26.193 26.1935 29.333 22.3335 29.333ZM22.3335 17.9997C19.9442 17.9997 18.0002 19.9437 18.0002 22.333C18.0002 24.7223 19.9442 26.6663 22.3335 26.6663C24.7228 26.6663 26.6668 24.7223 26.6668 22.333C26.6668 19.9437 24.7228 17.9997 22.3335 17.9997Z" fill="#FF8285"/>
<path d="M30.6665 32.0003C30.3252 32.0003 29.9838 31.8697 29.7238 31.6097L25.3905 27.2763C24.8692 26.755 24.8692 25.9123 25.3905 25.391C25.9118 24.8697 26.7545 24.8697 27.2758 25.391L31.6092 29.7243C32.1305 30.2457 32.1305 31.0883 31.6092 31.6097C31.3492 31.8697 31.0078 32.0003 30.6665 32.0003Z" fill="#FF8285"/>
</g>
<defs>
<clipPath id="clip0_2215_10152">
<rect width="32" height="32" fill="white"/>
</clipPath>
</defs>
</svg>
