<svg width="32" height="32" viewBox="0 0 32 32" fill="none" xmlns="http://www.w3.org/2000/svg">
<path d="M30.9679 24.8279H27.8711V25.9314H32.0001V21.5176H30.9679V24.8279Z" fill="#FF8285"/>
<path d="M4.12903 24.8279H1.03226V21.5176H0V25.9314H4.12903V24.8279Z" fill="#FF8285"/>
<path d="M1.03226 2.75872H4.12903V1.65527H0V6.06906H1.03226V2.75872Z" fill="#FF8285"/>
<path d="M27.8711 1.65527V2.75872H30.9679V6.06906H32.0001V1.65527H27.8711Z" fill="#FF8285"/>
<path d="M19.6128 17.6553H21.6773V19.8622H19.6128V17.6553Z" fill="#FF8285"/>
<path d="M24.7745 10.1895C24.2258 10.7147 23.5022 11.0347 22.71 11.0347V13.2416H24.7745V10.1895Z" fill="#FF8285"/>
<path d="M22.71 14.3447H24.7745V16.5516H22.71V14.3447Z" fill="#FF8285"/>
<path d="M21.6773 11.0347H20.034C19.8931 11.0347 19.7527 11.027 19.6128 11.0215V13.2416H21.6773V11.0347Z" fill="#FF8285"/>
<path d="M19.6128 23.1457C20.34 23.0762 21.0378 22.8577 21.6773 22.5079V20.9658H19.6128V23.1457Z" fill="#FF8285"/>
<path d="M19.6128 14.3447H21.6773V16.5516H19.6128V14.3447Z" fill="#FF8285"/>
<path d="M22.71 21.7846C22.8483 21.6621 22.983 21.5324 23.1115 21.3951C23.2405 21.2571 23.3613 21.1137 23.4759 20.9658H22.71V21.7846Z" fill="#FF8285"/>
<path d="M25.8066 11.0342V15.448C26.9452 15.448 27.8712 14.4582 27.8712 13.2411C27.8712 12.024 26.9452 11.0342 25.8066 11.0342Z" fill="#FF8285"/>
<path d="M23.7224 26.7619L20.0047 26.166L19.5258 30.6399L16.0001 28.7553L12.4744 30.6399L11.9954 26.166L8.27775 26.7619C5.74717 27.1679 3.86588 29.3285 3.63672 32.0005H6.70975V29.7936H7.74201V32.0005H24.2581V29.7936H25.2904V32.0005H28.3634C28.1343 29.3285 26.253 27.1679 23.7224 26.7619Z" fill="#FF8285"/>
<path d="M24.7492 17.6553H22.71V19.8622H24.1525C24.4803 19.1786 24.6842 18.4327 24.7492 17.6553Z" fill="#FF8285"/>
<path d="M4.12891 9.39034C4.12891 9.81792 4.18207 10.2367 4.27652 10.6461C4.804 10.1997 5.46929 9.93103 6.19342 9.93103H6.20323C6.2982 7.68717 7.76039 5.80634 9.8311 5.3142L11.588 4.89655L11.7841 5.21103C13.6272 8.16661 16.7111 9.93103 20.0339 9.93103H22.7096C23.8476 9.93103 24.7736 8.94123 24.7741 7.72413C24.7741 6.50703 23.8481 5.51724 22.7096 5.51724C21.571 5.51724 20.645 6.50703 20.645 7.72413V8.82758H19.6128V7.72413C19.6128 5.89848 21.0017 4.41379 22.7096 4.41379C24.4174 4.41379 25.8063 5.89848 25.8063 7.72413V9.93103C26.419 9.93103 26.9898 10.1247 27.4708 10.4546C27.7335 9.63365 27.8708 8.77903 27.8708 7.90289C27.8708 3.54538 24.5542 0 20.4778 0H12.8845C10.9077 0 9.12762 1.25517 8.34826 3.19779L8.116 3.77931L7.86671 3.84551C5.66645 4.43365 4.12891 6.53848 4.12891 8.9633V9.39034Z" fill="#FF8285"/>
<path d="M16.5161 20.9658H18.5806V23.1727H16.5161V20.9658Z" fill="#FF8285"/>
<path d="M15.1291 27.9862L13.2391 25.9658L13.0166 26.0011L13.3325 28.9462L15.1291 27.9862Z" fill="#FF8285"/>
<path d="M16.5161 17.6553H18.5806V19.8622H16.5161V17.6553Z" fill="#FF8285"/>
<path d="M4.12891 13.2411C4.12891 14.4582 5.05484 15.448 6.19342 15.448L6.19394 11.0342H6.19342C5.05484 11.0342 4.12891 12.024 4.12891 13.2411Z" fill="#FF8285"/>
<path d="M18.9836 26.0011L18.7612 25.9658L16.8711 27.9862L18.6677 28.9462L18.9836 26.0011Z" fill="#FF8285"/>
<path d="M18.0208 25.1983L17.8484 24.2764H14.1519L13.9795 25.1983L16.0001 27.3583L18.0208 25.1983Z" fill="#FF8285"/>
<path d="M18.5806 10.9281C17.873 10.8271 17.183 10.6522 16.5161 10.4111V13.2415H18.5806V10.9281Z" fill="#FF8285"/>
<path d="M15.4837 9.97561C13.7655 9.13644 12.2568 7.8272 11.1275 6.13672L10.055 6.39162C8.38946 6.7872 7.22662 8.33754 7.22662 10.1615L7.22559 17.1033C7.22559 20.4501 9.77268 23.1723 12.903 23.1723H15.4837V9.97561Z" fill="#FF8285"/>
<path d="M16.5161 14.3447H18.5806V16.5516H16.5161V14.3447Z" fill="#FF8285"/>
</svg>
