<svg width="32" height="32" viewBox="0 0 32 32" fill="none" xmlns="http://www.w3.org/2000/svg">
<g clip-path="url(#clip0_2215_10162)">
<path d="M31.0625 5.42332C31.5803 5.42332 32 5.00357 32 4.48582V0.99707C32 0.47932 31.5803 0.0595703 31.0625 0.0595703H27.5738C27.0561 0.0595703 26.6363 0.47932 26.6363 0.99707V1.80395H18.6819V0.99707C18.6819 0.47932 18.2621 0.0595703 17.7444 0.0595703H14.2556C13.7379 0.0595703 13.3181 0.47932 13.3181 0.99707V1.80395H5.36375V0.99707C5.36375 0.47932 4.944 0.0595703 4.42625 0.0595703H0.9375C0.41975 0.0595703 0 0.47932 0 0.99707V4.48576C0 5.00351 0.41975 5.42326 0.9375 5.42326H1.74437V13.2183H0.9375C0.41975 13.2183 0 13.638 0 14.1558V17.6445C0 18.1623 0.41975 18.582 0.9375 18.582H1.74437V26.5768H0.9375C0.41975 26.5768 0 26.9966 0 27.5143V31.003C0 31.5208 0.41975 31.9405 0.9375 31.9405H4.42625C4.944 31.9405 5.36375 31.5208 5.36375 31.003V30.1961H13.2758V31.003C13.2758 31.5208 13.6956 31.9405 14.2133 31.9405H17.702C18.2197 31.9405 18.6395 31.5208 18.6395 31.003V30.1961H26.6362V31.003C26.6362 31.5208 27.056 31.9405 27.5737 31.9405H31.0625C31.5803 31.9405 32 31.5208 32 31.003V27.5143C32 26.9966 31.5803 26.5768 31.0625 26.5768H30.2556V18.7251H31.0625C31.5803 18.7251 32 18.3053 32 17.7876V14.2989C32 13.7811 31.5803 13.3614 31.0625 13.3614H30.2556V5.42332H31.0625ZM28.3806 13.3614H27.5737C27.056 13.3614 26.6362 13.7811 26.6362 14.2989V17.7876C26.6362 18.3053 27.056 18.7251 27.5737 18.7251H28.3806V26.5768H27.5737C27.056 26.5768 26.6362 26.9966 26.6362 27.5143V28.3212H18.6395V27.5143C18.6395 26.9966 18.2197 26.5768 17.702 26.5768H14.2133C13.6956 26.5768 13.2758 26.9966 13.2758 27.5143V28.3212H5.36375V27.5143C5.36375 26.9966 4.944 26.5768 4.42625 26.5768H3.61937V18.582H4.42625C4.944 18.582 5.36375 18.1623 5.36375 17.6445V14.1558C5.36375 13.638 4.944 13.2183 4.42625 13.2183H3.61937V5.42332H4.42625C4.944 5.42332 5.36375 5.00357 5.36375 4.48582V3.67895H13.3181V4.48582C13.3181 5.00357 13.7379 5.42332 14.2556 5.42332H17.7444C18.2621 5.42332 18.6819 5.00357 18.6819 4.48582V3.67895H26.6363V4.48582C26.6363 5.00357 27.0561 5.42332 27.5738 5.42332H28.3807V13.3614H28.3806Z" fill="#FF8285"/>
<path d="M22.5761 8.4873H9.33936C8.82161 8.4873 8.40186 8.90705 8.40186 9.4248V15.2747C8.40186 15.7925 8.82161 16.2122 9.33936 16.2122C9.85711 16.2122 10.2769 15.7925 10.2769 15.2747V14.1126H13.1451V21.7241H12.2075C11.6897 21.7241 11.27 22.1439 11.27 22.6616C11.27 23.1794 11.6897 23.5991 12.2075 23.5991H19.708C20.2257 23.5991 20.6455 23.1794 20.6455 22.6616C20.6455 22.1439 20.2257 21.7241 19.708 21.7241H18.7704V14.1126H21.6386V15.2748C21.6386 15.7926 22.0584 16.2123 22.5761 16.2123C23.0939 16.2123 23.5136 15.7926 23.5136 15.2748V9.42487C23.5136 8.90705 23.0939 8.4873 22.5761 8.4873Z" fill="#FF8285"/>
</g>
<defs>
<clipPath id="clip0_2215_10162">
<rect width="32" height="32" fill="white"/>
</clipPath>
</defs>
</svg>
