<svg width="57" height="61" viewBox="0 0 57 61" fill="none" xmlns="http://www.w3.org/2000/svg">
<path d="M44.7356 1.01672H12.2023C11.0793 1.01672 10.1689 1.92708 10.1689 3.05006V57.9501C10.1689 59.073 11.0793 59.9834 12.2023 59.9834H44.7356C45.8586 59.9834 46.7689 59.073 46.7689 57.9501V3.05006C46.7689 1.92708 45.8586 1.01672 44.7356 1.01672Z" fill="#596063"/>
<path d="M26.4355 19.3167L21.3521 25.4167V29.4833C21.3521 30.0226 21.1379 30.5398 20.7566 30.9211C20.3753 31.3025 19.8581 31.5167 19.3188 31.5167H2.03548C0.912442 31.5167 1.01881 30.6064 1.01881 29.4833V15.25C1.01881 14.127 0.912442 13.2167 2.03548 13.2167H19.3188C19.8581 13.2167 20.3753 13.4309 20.7566 13.8122C21.1379 14.1935 21.3521 14.7107 21.3521 15.25V19.3167H26.4355Z" fill="#FDA2C6"/>
<path d="M46.7689 3.05006V7.11672H36.6023L34.5689 9.15006H22.3689L20.3356 7.11672H10.1689V3.05006C10.1689 2.51078 10.3832 1.9936 10.7645 1.61227C11.1458 1.23095 11.663 1.01672 12.2023 1.01672H44.7356C45.2749 1.01672 45.7921 1.23095 46.1734 1.61227C46.5547 1.9936 46.7689 2.51078 46.7689 3.05006Z" fill="#DADCDE"/>
<path d="M10.1689 53.8833H46.7689V57.95C46.7689 58.4892 46.5547 59.0064 46.1734 59.3878C45.7921 59.7691 45.2749 59.9833 44.7356 59.9833H12.2023C11.663 59.9833 11.1458 59.7691 10.7645 59.3878C10.3832 59.0064 10.1689 58.4892 10.1689 57.95V53.8833Z" fill="#DADCDE"/>
<path d="M40.6689 17.2833H32.5355C31.4126 17.2833 30.5022 18.1937 30.5022 19.3167C30.5022 20.4396 31.4126 21.35 32.5355 21.35H40.6689C41.7918 21.35 42.7022 20.4396 42.7022 19.3167C42.7022 18.1937 41.7918 17.2833 40.6689 17.2833Z" fill="#DADCDE"/>
<path d="M30.5022 37.6166L35.5855 43.7166V47.7833C35.5855 48.3225 35.7998 48.8397 36.1811 49.2211C36.5624 49.6024 37.0796 49.8166 37.6189 49.8166H53.8855C54.4248 49.8166 54.942 49.6024 55.3233 49.2211C55.7046 48.8397 55.9189 48.3225 55.9189 47.7833V33.5499C55.9189 33.0107 55.7046 32.4935 55.3233 32.1121C54.942 31.7308 54.4248 31.5166 53.8855 31.5166H37.6189C37.0796 31.5166 36.5624 31.7308 36.1811 32.1121C35.7998 32.4935 35.5855 33.0107 35.5855 33.5499V37.6166H30.5022Z" fill="#FDA2C6"/>
<path d="M16.2689 39.65H24.4022C25.5252 39.65 26.4355 38.7397 26.4355 37.6167C26.4355 36.4937 25.5252 35.5834 24.4022 35.5834H16.2689C15.1459 35.5834 14.2355 36.4937 14.2355 37.6167C14.2355 38.7397 15.1459 39.65 16.2689 39.65Z" fill="#DADCDE"/>
<path d="M16.3926 18.1552C15.8138 17.5959 15.0404 17.2833 14.2356 17.2833C13.4307 17.2833 12.6574 17.5959 12.0786 18.1552L11.1855 19.0271L10.2923 18.1552C9.71354 17.5959 8.94017 17.2833 8.13532 17.2833C7.33048 17.2833 6.5571 17.5959 5.97834 18.1552C5.69589 18.4284 5.47129 18.7556 5.31789 19.1173C5.1645 19.4791 5.08545 19.868 5.08545 20.2609C5.08545 20.6539 5.1645 21.0428 5.31789 21.4045C5.47129 21.7663 5.69589 22.0935 5.97834 22.3666L11.1855 27.45L16.3926 22.3666C16.675 22.0935 16.8996 21.7663 17.053 21.4045C17.2064 21.0428 17.2855 20.6539 17.2855 20.2609C17.2855 19.868 17.2064 19.4791 17.053 19.1173C16.8996 18.7556 16.675 18.4284 16.3926 18.1552Z" fill="#EB423F"/>
<path d="M50.9592 36.4553C50.3804 35.896 49.6071 35.5834 48.8022 35.5834C47.9974 35.5834 47.224 35.896 46.6452 36.4553L45.7521 37.3272L44.859 36.4553C44.2802 35.896 43.5068 35.5834 42.702 35.5834C41.8971 35.5834 41.1238 35.896 40.545 36.4553C40.2625 36.7284 40.0379 37.0556 39.8845 37.4174C39.7311 37.7791 39.6521 38.1681 39.6521 38.561C39.6521 38.9539 39.7311 39.3428 39.8845 39.7046C40.0379 40.0663 40.2625 40.3935 40.545 40.6667L45.7521 45.75L50.9592 40.6667C51.2417 40.3935 51.4663 40.0663 51.6197 39.7046C51.773 39.3428 51.8521 38.9539 51.8521 38.561C51.8521 38.1681 51.773 37.7791 51.6197 37.4174C51.4663 37.0556 51.2417 36.7284 50.9592 36.4553Z" fill="#EB423F"/>
<path d="M24.4022 6.09998C24.9637 6.09998 25.4188 5.64481 25.4188 5.08332C25.4188 4.52183 24.9637 4.06665 24.4022 4.06665C23.8407 4.06665 23.3855 4.52183 23.3855 5.08332C23.3855 5.64481 23.8407 6.09998 24.4022 6.09998Z" fill="black"/>
<path d="M28.4688 6.09998H32.5355C32.8051 6.09998 33.0637 5.99287 33.2544 5.80221C33.445 5.61155 33.5521 5.35295 33.5521 5.08332C33.5521 4.81368 33.445 4.55509 33.2544 4.36443C33.0637 4.17376 32.8051 4.06665 32.5355 4.06665H28.4688C28.1992 4.06665 27.9406 4.17376 27.7499 4.36443C27.5593 4.55509 27.4521 4.81368 27.4521 5.08332C27.4521 5.35295 27.5593 5.61155 27.7499 5.80221C27.9406 5.99287 28.1992 6.09998 28.4688 6.09998Z" fill="black"/>
<path d="M32.5356 22.3667H40.6689C41.4778 22.3667 42.2536 22.0454 42.8256 21.4734C43.3976 20.9014 43.7189 20.1256 43.7189 19.3167C43.7189 18.5078 43.3976 17.732 42.8256 17.16C42.2536 16.5881 41.4778 16.2667 40.6689 16.2667H32.5356C31.7267 16.2667 30.9509 16.5881 30.3789 17.16C29.8069 17.732 29.4856 18.5078 29.4856 19.3167C29.4856 20.1256 29.8069 20.9014 30.3789 21.4734C30.9509 22.0454 31.7267 22.3667 32.5356 22.3667ZM32.5356 18.3001H40.6689C40.9386 18.3001 41.1972 18.4072 41.3878 18.5978C41.5785 18.7885 41.6856 19.0471 41.6856 19.3167C41.6856 19.5864 41.5785 19.845 41.3878 20.0356C41.1972 20.2263 40.9386 20.3334 40.6689 20.3334H32.5356C32.266 20.3334 32.0074 20.2263 31.8167 20.0356C31.626 19.845 31.5189 19.5864 31.5189 19.3167C31.5189 19.0471 31.626 18.7885 31.8167 18.5978C32.0074 18.4072 32.266 18.3001 32.5356 18.3001Z" fill="black"/>
<path d="M53.8855 30.5H47.7855V3.05C47.7846 2.24137 47.463 1.46612 46.8912 0.894327C46.3194 0.322538 45.5442 0.000908179 44.7355 0H12.2022C11.3936 0.000908179 10.6183 0.322538 10.0465 0.894327C9.47473 1.46612 9.1531 2.24137 9.1522 3.05V12.2H2.03553C1.42947 12.2 0.94185 12.3817 0.586779 12.7401C-0.0115291 13.343 -0.00504767 14.1798 0.0013065 14.9895C0.002069 15.0749 0.002069 29.6592 0.0013065 29.7446C-0.00504767 30.5539 -0.011402 31.3907 0.586779 31.994C0.942613 32.3524 1.42998 32.5341 2.03553 32.5341H9.1522V57.95C9.1531 58.7586 9.47473 59.5339 10.0465 60.1057C10.6183 60.6775 11.3936 60.9991 12.2022 61H44.7355C45.5442 60.9991 46.3194 60.6775 46.8912 60.1057C47.463 59.5339 47.7846 58.7586 47.7855 57.95V50.8333H53.8855C54.6941 50.8324 55.4694 50.5107 56.0412 49.939C56.6129 49.3672 56.9346 48.592 56.9355 47.7833V33.55C56.9346 32.7414 56.6129 31.9661 56.0412 31.3944C55.4694 30.8226 54.6941 30.5009 53.8855 30.5ZM11.1855 3.05C11.1858 2.78046 11.293 2.52204 11.4836 2.33144C11.6742 2.14085 11.9327 2.03364 12.2022 2.03333H44.7355C45.0051 2.03364 45.2635 2.14085 45.4541 2.33144C45.6447 2.52204 45.7519 2.78046 45.7522 3.05V6.1H36.6022C36.4687 6.1 36.3365 6.12629 36.2131 6.17738C36.0898 6.22847 35.9777 6.30335 35.8833 6.39776L34.1478 8.13333H22.7899L21.0544 6.39776C20.96 6.30335 20.8479 6.22847 20.7246 6.17738C20.6012 6.12629 20.469 6.1 20.3355 6.1H11.1855V3.05ZM2.05294 30.5C2.02981 30.3082 2.02981 14.4251 2.05294 14.2333H19.3189C19.5884 14.2336 19.8468 14.3408 20.0374 14.5314C20.228 14.722 20.3352 14.9805 20.3355 15.25V19.3167C20.3355 19.5863 20.4426 19.8449 20.6333 20.0356C20.824 20.2262 21.0826 20.3333 21.3522 20.3333H24.2648L20.5711 24.7657C20.4189 24.9485 20.3355 25.1788 20.3355 25.4167V29.4833C20.3352 29.7529 20.228 30.0113 20.0374 30.2019C19.8468 30.3925 19.5884 30.4997 19.3189 30.5H2.05294ZM45.7522 57.95C45.7519 58.2195 45.6447 58.478 45.4541 58.6686C45.2635 58.8592 45.0051 58.9664 44.7355 58.9667H12.2022C11.9327 58.9664 11.6742 58.8592 11.4836 58.6686C11.293 58.478 11.1858 58.2195 11.1855 57.95V54.9H45.7522V57.95ZM45.7522 52.8667H11.1855V32.5333H19.3189C20.1275 32.5324 20.9027 32.2108 21.4745 31.639C22.0463 31.0672 22.3679 30.292 22.3689 29.4833V25.7852L27.2166 19.9681C27.3405 19.8197 27.4195 19.639 27.4443 19.4472C27.4691 19.2555 27.4388 19.0606 27.3568 18.8855C27.2748 18.7105 27.1446 18.5624 26.9814 18.4587C26.8182 18.3549 26.6289 18.2999 26.4355 18.3H22.3689V15.25C22.3679 14.4414 22.0463 13.6661 21.4745 13.0944C20.9027 12.5226 20.1275 12.2009 19.3189 12.2H11.1855V8.13333H19.9145L21.65 9.86891C21.7444 9.96332 21.8564 10.0382 21.9798 10.0893C22.1031 10.1404 22.2354 10.1667 22.3689 10.1667H34.5689C34.7024 10.1667 34.8346 10.1404 34.9579 10.0893C35.0813 10.0382 35.1934 9.96332 35.2878 9.86891L37.0232 8.13333H45.7522V30.5H37.6189C36.8102 30.5009 36.035 30.8226 35.4632 31.3944C34.8914 31.9661 34.5698 32.7414 34.5689 33.55V36.6H30.5022C30.3089 36.6 30.1197 36.655 29.9566 36.7587C29.7935 36.8624 29.6634 37.0104 29.5814 37.1854C29.4995 37.3604 29.4691 37.5552 29.4938 37.7468C29.5186 37.9385 29.5974 38.1191 29.7211 38.2676L34.5689 44.0852V47.7833C34.5698 48.592 34.8914 49.3672 35.4632 49.939C36.035 50.5107 36.8102 50.8324 37.6189 50.8333H45.7522V52.8667ZM54.9022 47.7833C54.9019 48.0529 54.7947 48.3113 54.6041 48.5019C54.4135 48.6925 54.1551 48.7997 53.8855 48.8H37.6189C37.3493 48.7997 37.0909 48.6925 36.9003 48.5019C36.7097 48.3113 36.6025 48.0529 36.6022 47.7833V43.7167C36.6022 43.4788 36.5188 43.2485 36.3666 43.0657L32.6728 38.6333H35.5855C35.8552 38.6333 36.1138 38.5262 36.3044 38.3356C36.4951 38.1449 36.6022 37.8863 36.6022 37.6167V33.55C36.6025 33.2805 36.7097 33.022 36.9003 32.8314C37.0909 32.6408 37.3493 32.5336 37.6189 32.5333H53.8855C54.1551 32.5336 54.4135 32.6408 54.6041 32.8314C54.7947 33.022 54.9019 33.2805 54.9022 33.55V47.7833Z" fill="black"/>
<path d="M24.4023 34.5667H16.269C15.4601 34.5667 14.6843 34.888 14.1123 35.46C13.5403 36.032 13.219 36.8077 13.219 37.6167C13.219 38.4256 13.5403 39.2013 14.1123 39.7733C14.6843 40.3453 15.4601 40.6667 16.269 40.6667H24.4023C25.2112 40.6667 25.987 40.3453 26.559 39.7733C27.131 39.2013 27.4523 38.4256 27.4523 37.6167C27.4523 36.8077 27.131 36.032 26.559 35.46C25.987 34.888 25.2112 34.5667 24.4023 34.5667ZM24.4023 38.6333H16.269C15.9994 38.6333 15.7408 38.5262 15.5501 38.3355C15.3594 38.1449 15.2523 37.8863 15.2523 37.6167C15.2523 37.347 15.3594 37.0884 15.5501 36.8978C15.7408 36.7071 15.9994 36.6 16.269 36.6H24.4023C24.672 36.6 24.9306 36.7071 25.1212 36.8978C25.3119 37.0884 25.419 37.347 25.419 37.6167C25.419 37.8863 25.3119 38.1449 25.1212 38.3355C24.9306 38.5262 24.672 38.6333 24.4023 38.6333Z" fill="black"/>
<path d="M17.1027 17.4277C16.334 16.683 15.3058 16.2667 14.2355 16.2667C13.1653 16.2667 12.137 16.683 11.3683 17.4277L11.1855 17.6064L11.0026 17.4277C10.2339 16.6829 9.20554 16.2665 8.13521 16.2665C7.06488 16.2665 6.03654 16.6829 5.26782 17.4277C4.88841 17.7956 4.58676 18.2359 4.38076 18.7226C4.17475 19.2092 4.0686 19.7323 4.0686 20.2608C4.0686 20.7892 4.17475 21.3123 4.38076 21.799C4.58676 22.2856 4.88841 22.726 5.26782 23.0938L10.4749 28.1772C10.6648 28.3625 10.9197 28.4663 11.1851 28.4663C11.4505 28.4663 11.7053 28.3625 11.8952 28.1772L17.1027 23.0938C17.4821 22.726 17.7837 22.2857 17.9896 21.799C18.1956 21.3124 18.3017 20.7894 18.3017 20.261C18.3017 19.7325 18.1956 19.2095 17.9896 18.7229C17.7837 18.2362 17.4821 17.7959 17.1027 17.4281V17.4277ZM15.6824 21.6391L11.1855 26.0292L6.68887 21.6395C6.50338 21.461 6.35583 21.2469 6.25503 21.0101C6.15424 20.7732 6.10229 20.5185 6.10229 20.2611C6.10229 20.0037 6.15424 19.7489 6.25503 19.5121C6.35583 19.2752 6.50338 19.0611 6.68887 18.8827C7.07776 18.5088 7.59627 18.3 8.13571 18.3C8.67516 18.3 9.19367 18.5088 9.58256 18.8827L10.4757 19.7546C10.6656 19.94 10.9205 20.0437 11.1858 20.0437C11.4512 20.0437 11.7061 19.94 11.896 19.7546L12.7891 18.8827C13.178 18.5088 13.6965 18.3 14.236 18.3C14.7754 18.3 15.2939 18.5088 15.6828 18.8827C15.8682 19.0611 16.0157 19.2752 16.1165 19.512C16.2173 19.7488 16.2692 20.0035 16.2692 20.2609C16.2692 20.5183 16.2173 20.773 16.1165 21.0098C16.0157 21.2466 15.8682 21.4606 15.6828 21.6391H15.6824Z" fill="black"/>
<path d="M51.6694 35.7277C50.9007 34.9831 49.8724 34.5667 48.8022 34.5667C47.7319 34.5667 46.7037 34.9831 45.935 35.7277L45.7521 35.9064L45.5692 35.7277C44.8005 34.983 43.7722 34.5665 42.7019 34.5665C41.6315 34.5665 40.6032 34.983 39.8345 35.7277C39.4551 36.0956 39.1534 36.5359 38.9474 37.0226C38.7414 37.5093 38.6353 38.0323 38.6353 38.5608C38.6353 39.0893 38.7414 39.6124 38.9474 40.099C39.1534 40.5857 39.4551 41.026 39.8345 41.3939L45.0416 46.4772C45.2315 46.6626 45.4864 46.7663 45.7517 46.7663C46.0171 46.7663 46.272 46.6626 46.4619 46.4772L51.6694 41.3939C52.0487 41.026 52.3503 40.5857 52.5563 40.0991C52.7623 39.6125 52.8684 39.0894 52.8684 38.561C52.8684 38.0326 52.7623 37.5095 52.5563 37.0229C52.3503 36.5363 52.0487 36.096 51.6694 35.7281V35.7277ZM50.2491 39.9392L45.7521 44.3293L41.2555 39.9395C41.07 39.7611 40.9225 39.547 40.8217 39.3101C40.7209 39.0733 40.6689 38.8185 40.6689 38.5611C40.6689 38.3037 40.7209 38.049 40.8217 37.8121C40.9225 37.5753 41.07 37.3612 41.2555 37.1827C41.6444 36.8089 42.1629 36.6001 42.7024 36.6001C43.2418 36.6001 43.7603 36.8089 44.1492 37.1827L45.0424 38.0546C45.2323 38.24 45.4871 38.3438 45.7525 38.3438C46.0179 38.3438 46.2727 38.24 46.4626 38.0546L47.3558 37.1827C47.7447 36.8089 48.2632 36.6001 48.8026 36.6001C49.3421 36.6001 49.8606 36.8089 50.2495 37.1827C50.4349 37.3612 50.5824 37.5752 50.6832 37.8121C50.7839 38.0489 50.8358 38.3036 50.8358 38.5609C50.8358 38.8183 50.7839 39.073 50.6832 39.3098C50.5824 39.5466 50.4349 39.7607 50.2495 39.9392H50.2491Z" fill="black"/>
</svg>
