<svg width="56" height="61" viewBox="0 0 56 61" fill="none" xmlns="http://www.w3.org/2000/svg">
<path d="M37.3169 4.48179V8.8176H0.600342V4.48179C0.600596 3.4677 1.00349 2.4952 1.72047 1.77804C2.43746 1.06087 3.40985 0.657736 4.42395 0.657227H33.4925C34.5067 0.657545 35.4793 1.0606 36.1965 1.77778C36.9136 2.49497 37.3166 3.46757 37.3169 4.48179Z" fill="#7A7380"/>
<path d="M0.600326 51.3297H37.3164V55.665C37.316 56.6792 36.913 57.6518 36.1959 58.3689C35.4788 59.086 34.5062 59.489 33.492 59.4894H4.42393C3.40971 59.4891 2.4371 59.0861 1.71992 58.369C1.00274 57.6518 0.599684 56.6793 0.599365 55.665L0.600326 51.3297Z" fill="#7A7380"/>
<path d="M37.3169 8.81775V21.8662L31.2134 28.3738V25.8116C29.583 27.5494 30.3161 26.794 27.9299 29.1801C26.7414 29.0556 25.5402 29.1986 24.4142 29.5987C23.2882 29.9987 22.2659 30.6455 21.4223 31.4919C21.2736 31.641 21.1331 31.7982 21.0016 31.9628H23.5963C23.2604 32.1876 22.9475 32.445 22.6621 32.7312C21.6353 33.758 21.2271 35.2958 20.7963 37.0464C20.196 39.4957 19.5491 42.3636 17.1223 44.8206C20.7514 46.2256 24.9816 45.3866 28.0898 43.934H28.0922C29.3709 43.3675 30.5459 42.5912 31.5686 41.6372C32.3283 40.878 32.881 39.9368 33.1738 38.9035C33.4667 37.8701 33.49 36.779 33.2416 35.734L35.907 33.0667L37.3171 31.7443V51.3301H0.600342V8.81775H37.3169Z" fill="#F2E1D6"/>
<path d="M17.8472 24.9117V31.962H23.5976C24.3145 31.4799 25.1229 31.1505 25.9726 30.9941C26.8223 30.8377 27.695 30.8577 28.5366 31.0529L31.2141 28.3754V24.9117H17.8472Z" fill="#FC5D3D"/>
<path d="M31.2135 25.8108V28.3754L28.5361 31.0529C27.6945 30.8577 26.8217 30.8377 25.9721 30.9941C25.1224 31.1505 24.314 31.4799 23.5971 31.962H21.0024C21.1339 31.7974 21.2744 31.6402 21.4232 31.4911C22.2667 30.6447 23.2889 29.9978 24.415 29.5978C25.541 29.1978 26.7422 29.0548 27.9307 29.1793C30.3166 26.7927 29.6231 27.5056 31.2135 25.8108Z" fill="#D95034"/>
<path d="M37.3168 19.3041V21.8663L31.2134 28.3731V25.8109L37.3168 19.3041Z" fill="#D6C0B4"/>
<path d="M35.9069 33.0663L37.3169 31.7439V34.1483C37.0633 34.3853 37.389 34.064 35.1204 36.3347C35.2518 37.5288 35.1121 38.7371 34.7119 39.8697C34.3117 41.0023 33.6613 42.0301 32.8089 42.8766C29.8277 45.8499 22.965 48.968 13.9973 45.4888C16.9826 42.4677 17.8123 41.9989 19.0941 36.6279C19.4797 35.0671 19.9079 33.3218 21.0024 31.9619H23.597C23.2612 32.1868 22.9483 32.4442 22.6629 32.7304C21.6361 33.7572 21.2279 35.295 20.7971 37.0455C20.1968 39.4948 19.5499 42.3627 17.1231 44.8197C20.7522 46.2248 24.9823 45.3857 28.0906 43.9332H28.093C29.3717 43.3666 30.5467 42.5903 31.5694 41.6363C32.3291 40.8771 32.8817 39.936 33.1746 38.9026C33.4675 37.8693 33.4908 36.7781 33.2424 35.7332L35.9069 33.0663Z" fill="#D6C0B4"/>
<path d="M31.5692 41.6369C30.5464 42.5909 29.3715 43.3672 28.0928 43.9338H28.0904L23.7575 42.6337V37.8001L20.7971 37.0461C21.2279 35.2955 21.6361 33.7577 22.6629 32.7309C22.9483 32.4447 23.2612 32.1874 23.597 31.9625C24.314 31.4805 25.1224 31.151 25.9721 30.9946C26.8217 30.8382 27.6945 30.8582 28.5361 31.0534L33.2426 35.7343C33.4909 36.7792 33.4675 37.8702 33.1745 38.9035C32.8816 39.9368 32.3289 40.8778 31.5692 41.6369Z" fill="#4C4945"/>
<path d="M53.3484 10.9307C52.9618 10.5441 52.5014 10.2392 51.9947 10.034C51.4879 9.82875 50.9451 9.72746 50.3985 9.73611C49.8518 9.74475 49.3125 9.86316 48.8125 10.0843C48.3124 10.3054 47.862 10.6248 47.4878 11.0234L37.3168 21.866L31.2134 28.3736V28.376L35.9051 33.0662H35.9075L37.3175 31.7438L53.254 16.7918C53.6531 16.4179 53.9729 15.9675 54.1944 15.4675C54.4159 14.9675 54.5346 14.4281 54.5434 13.8812C54.5522 13.3344 54.4509 12.7915 54.2456 12.2846C54.0403 11.7777 53.7352 11.3173 53.3484 10.9307Z" fill="#F0C020"/>
<path d="M28.0903 43.9336C24.9821 45.3861 20.7519 46.2251 17.1228 44.8201C19.5498 42.3631 20.1965 39.4955 20.7968 37.0459L23.7571 37.7999V42.6335L28.0903 43.9336Z" fill="#FC5D3D"/>
<path d="M35.9043 33.0663L31.2134 28.3754L28.5359 31.0528L33.242 35.7337L35.9067 33.0663H35.9043Z" fill="#EFEFEF"/>
<path d="M6.64233 14.2217H31.2752V21.4014H6.64233V14.2217Z" fill="#FC5D3D"/>
<path d="M6.64233 24.9117H14.4584V31.9627H6.64233V24.9117Z" fill="#FC5D3D"/>
<path d="M6.64233 34.4817H14.4584V41.5327H6.64233V34.4817Z" fill="#FC5D3D"/>
<path d="M34.3022 49.403H32.0061C31.8469 49.403 31.6942 49.3397 31.5816 49.2271C31.469 49.1145 31.4057 48.9618 31.4057 48.8026C31.4057 48.6434 31.469 48.4907 31.5816 48.3781C31.6942 48.2655 31.8469 48.2023 32.0061 48.2023H34.3022C34.4614 48.2023 34.6141 48.2655 34.7267 48.3781C34.8393 48.4907 34.9025 48.6434 34.9025 48.8026C34.9025 48.9618 34.8393 49.1145 34.7267 49.2271C34.6141 49.3397 34.4614 49.403 34.3022 49.403ZM29.6048 49.403H3.15746C2.99824 49.403 2.84554 49.3397 2.73296 49.2271C2.62038 49.1145 2.55713 48.9618 2.55713 48.8026V11.6152C2.55713 11.456 2.62038 11.3033 2.73296 11.1907C2.84554 11.0781 2.99824 11.0149 3.15746 11.0149C3.31667 11.0149 3.46937 11.0781 3.58195 11.1907C3.69454 11.3033 3.75778 11.456 3.75778 11.6152V48.2023H29.6048C29.764 48.2023 29.9167 48.2655 30.0293 48.3781C30.1418 48.4907 30.2051 48.6434 30.2051 48.8026C30.2051 48.9618 30.1418 49.1145 30.0293 49.2271C29.9167 49.3397 29.764 49.403 29.6048 49.403Z" fill="white"/>
<path d="M34.2886 28.7564C34.2312 28.7024 34.1848 28.6377 34.1524 28.5658C34.1199 28.494 34.1019 28.4164 34.0994 28.3376C34.0969 28.2588 34.11 28.1803 34.1378 28.1065C34.1657 28.0328 34.2078 27.9652 34.2617 27.9077L35.3263 26.7731C35.436 26.6607 35.5855 26.5959 35.7426 26.5924C35.8996 26.589 36.0518 26.6473 36.1664 26.7548C36.281 26.8623 36.3489 27.0104 36.3555 27.1673C36.3621 27.3243 36.3069 27.4776 36.2018 27.5944L35.1368 28.7292C35.0279 28.8452 34.8774 28.9132 34.7183 28.9183C34.5593 28.9234 34.4047 28.8652 34.2886 28.7564ZM36.9961 25.8702C36.88 25.7613 36.812 25.6107 36.8069 25.4516C36.8018 25.2926 36.8601 25.138 36.969 25.0218L48.8776 12.328C49.0769 12.1153 49.317 11.9449 49.5836 11.8268C49.8502 11.7088 50.1378 11.6456 50.4293 11.6409C50.7208 11.6362 51.0102 11.6903 51.2804 11.7997C51.5506 11.9092 51.7961 12.0719 52.0021 12.2781C52.1115 12.3913 52.172 12.543 52.1706 12.7004C52.1693 12.8578 52.1061 13.0083 51.9948 13.1196C51.8835 13.2309 51.733 13.2941 51.5756 13.2954C51.4181 13.2968 51.2665 13.2363 51.1533 13.127C51.0609 13.0346 50.9509 12.9617 50.8299 12.9127C50.7088 12.8637 50.5791 12.8395 50.4485 12.8417C50.3179 12.8438 50.1891 12.8721 50.0697 12.925C49.9502 12.9779 49.8427 13.0542 49.7533 13.1495L37.8447 25.8428C37.7908 25.9004 37.7261 25.9467 37.6543 25.9792C37.5824 26.0117 37.5049 26.0298 37.4261 26.0323C37.3473 26.0349 37.2688 26.0218 37.195 25.994C37.1212 25.9662 37.0536 25.9242 36.9961 25.8702Z" fill="#F9E5AF"/>
<path d="M21.535 43.3485C21.3912 43.2804 21.2803 43.158 21.2267 43.0081C21.1731 42.8583 21.1812 42.6933 21.2493 42.5494C22.0566 40.8425 22.4939 39.0291 22.8541 37.5743C22.8718 37.4966 22.9048 37.4231 22.9513 37.3583C22.9977 37.2934 23.0566 37.2385 23.1245 37.1966C23.1924 37.1548 23.268 37.1269 23.3468 37.1146C23.4256 37.1023 23.506 37.1058 23.5835 37.125C23.6609 37.1441 23.7337 37.1785 23.7977 37.2261C23.8617 37.2737 23.9156 37.3336 23.9562 37.4023C23.9968 37.4709 24.0233 37.547 24.0341 37.626C24.045 37.705 24.04 37.7854 24.0194 37.8625C23.6539 39.3352 23.2013 41.2299 22.3344 43.0623C22.3007 43.1336 22.2533 43.1975 22.1949 43.2505C22.1365 43.3035 22.0682 43.3444 21.994 43.371C21.9198 43.3976 21.841 43.4093 21.7623 43.4054C21.6835 43.4016 21.6063 43.3822 21.535 43.3485Z" fill="#FFCBC2"/>
<path d="M23.2917 38.3002C23.1372 38.2617 23.0042 38.1635 22.9222 38.0271C22.8401 37.8907 22.8155 37.7273 22.8539 37.5728C23.2602 35.9399 23.5436 34.844 24.2159 34.1838C24.2724 34.1283 24.3393 34.0845 24.4128 34.055C24.4863 34.0255 24.5649 34.0107 24.6441 34.0117C24.7233 34.0127 24.8015 34.0293 24.8742 34.0607C24.947 34.092 25.0128 34.1374 25.0679 34.1943C25.123 34.2512 25.1663 34.3184 25.1953 34.3921C25.2243 34.4658 25.2385 34.5445 25.2369 34.6237C25.2354 34.7028 25.2182 34.7809 25.1863 34.8534C25.1545 34.926 25.1086 34.9914 25.0513 35.0461C24.5771 35.5113 24.2774 36.8231 24.0188 37.8624C23.9804 38.0168 23.8822 38.1497 23.7458 38.2318C23.6095 38.3139 23.4461 38.3385 23.2917 38.3002ZM26.1766 33.6872C26.1691 33.6088 26.1771 33.5295 26.2002 33.4542C26.2233 33.3788 26.261 33.3087 26.3112 33.2478C26.3614 33.187 26.4231 33.1367 26.4927 33.0998C26.5624 33.0628 26.6386 33.0399 26.7171 33.0324C26.9549 33.0098 27.1941 33.0075 27.4322 33.0257C27.591 33.038 27.7383 33.1129 27.8418 33.2339C27.9453 33.3549 27.9965 33.5121 27.9842 33.6708C27.9718 33.8295 27.8969 33.9769 27.7759 34.0804C27.655 34.1839 27.4978 34.2351 27.3391 34.2227C27.17 34.2096 27.0002 34.2113 26.8314 34.2278C26.7529 34.2353 26.6737 34.2273 26.5983 34.2042C26.523 34.1811 26.4529 34.1434 26.392 34.0932C26.3312 34.043 26.2809 33.9813 26.2439 33.9116C26.207 33.842 26.1841 33.7657 26.1766 33.6872Z" fill="#AFAFAF"/>
<path d="M45.1892 7.29284C44.3048 7.0006 43.3913 6.7451 42.8784 4.53613C42.4061 6.57076 41.6494 6.93552 40.5679 7.29284C42.3319 7.87587 42.5982 8.8412 42.8784 10.0498C43.3618 7.96616 44.1614 7.63238 45.1892 7.29284Z" fill="#F0C020"/>
<path d="M50.9853 3.34972C50.1009 3.05748 49.1875 2.80198 48.6748 0.593018C48.2025 2.62765 47.4456 2.99241 46.364 3.34972C48.1283 3.93276 48.3943 4.89809 48.6748 6.10667C49.1577 4.02305 49.9573 3.68927 50.9853 3.34972Z" fill="#F0C020"/>
<path d="M46.3479 33.3956C45.4635 33.1034 44.55 32.8479 44.0371 30.6389C43.5648 32.6735 42.8081 33.0383 41.7263 33.3956C43.4906 33.9787 43.7566 34.944 44.0371 36.1526C44.5205 34.0689 45.3201 33.7352 46.3479 33.3956Z" fill="#F0C020"/>
<path d="M40.3814 7.85719C41.8743 8.35042 42.0436 9.07994 42.2998 10.1843C42.3303 10.3149 42.404 10.4314 42.5091 10.5148C42.6141 10.5982 42.7443 10.6436 42.8784 10.6436C43.0126 10.6436 43.1428 10.5982 43.2478 10.5148C43.3529 10.4314 43.4266 10.3149 43.457 10.1843C43.8823 8.35042 44.5086 8.14319 45.3754 7.85719C45.494 7.81785 45.5972 7.74216 45.6703 7.64086C45.7434 7.53956 45.7828 7.41781 45.7828 7.29288C45.7828 7.16796 45.7434 7.04621 45.6703 6.94491C45.5972 6.84361 45.494 6.76792 45.3754 6.72858C44.5427 6.45435 43.8924 6.27689 43.4568 4.40123C43.4261 4.27088 43.3522 4.15472 43.2472 4.0716C43.1422 3.98847 43.0122 3.94324 42.8783 3.94324C42.7444 3.94324 42.6144 3.98847 42.5094 4.0716C42.4044 4.15472 42.3306 4.27088 42.2998 4.40123C41.8741 6.23535 41.2802 6.43153 40.3814 6.72858C40.2629 6.76792 40.1597 6.84361 40.0866 6.94491C40.0135 7.04621 39.9741 7.16796 39.9741 7.29288C39.9741 7.41781 40.0135 7.53956 40.0866 7.64086C40.1597 7.74216 40.2629 7.81785 40.3814 7.85719ZM42.8807 6.27233C43.0953 6.67769 43.3991 7.02903 43.7692 7.29985C43.4048 7.55911 43.1043 7.89814 42.8908 8.29111C42.6574 7.89863 42.3397 7.56286 41.9608 7.30801C42.3455 7.04036 42.6609 6.68482 42.8807 6.27089V6.27233Z" fill="black"/>
<path d="M46.1772 3.91371C47.6703 4.40694 47.8396 5.13646 48.0956 6.24082C48.126 6.37146 48.1998 6.48795 48.3048 6.57135C48.4099 6.65475 48.5401 6.70014 48.6742 6.70014C48.8083 6.70014 48.9385 6.65475 49.0436 6.57135C49.1486 6.48795 49.2224 6.37146 49.2528 6.24082C49.6783 4.40694 50.3046 4.19971 51.1712 3.91371C51.2898 3.87437 51.393 3.79868 51.4661 3.69738C51.5392 3.59609 51.5785 3.47433 51.5785 3.34941C51.5785 3.22448 51.5392 3.10273 51.4661 3.00143C51.393 2.90014 51.2898 2.82444 51.1712 2.7851C50.3387 2.51087 49.6882 2.33365 49.2528 0.457989C49.2221 0.32764 49.1482 0.211486 49.0432 0.128358C48.9382 0.0452301 48.8083 0 48.6743 0C48.5404 0 48.4104 0.0452301 48.3054 0.128358C48.2004 0.211486 48.1266 0.32764 48.0959 0.457989C47.6699 2.29187 47.076 2.4883 46.1772 2.78534C46.0587 2.82474 45.9557 2.90044 45.8826 3.00171C45.8096 3.10297 45.7703 3.22467 45.7703 3.34953C45.7703 3.47439 45.8096 3.59608 45.8826 3.69735C45.9557 3.79861 46.0587 3.87431 46.1772 3.91371ZM48.6765 2.32885C48.8911 2.73416 49.1949 3.08549 49.565 3.35637C49.2005 3.61562 48.9 3.95465 48.6863 4.34763C48.453 3.95516 48.1354 3.61939 47.7566 3.36454C48.1413 3.09702 48.4567 2.74155 48.6765 2.32765V2.32885Z" fill="black"/>
<path d="M46.5341 32.8306C45.7016 32.5564 45.0511 32.3789 44.6157 30.5033C44.585 30.3729 44.5112 30.2568 44.4062 30.1736C44.3012 30.0905 44.1712 30.0453 44.0372 30.0453C43.9033 30.0453 43.7733 30.0905 43.6683 30.1736C43.5633 30.2568 43.4895 30.3729 43.4588 30.5033C43.033 32.3374 42.4392 32.5336 41.5401 32.8306C41.4216 32.87 41.3184 32.9457 41.2453 33.047C41.1722 33.1483 41.1328 33.27 41.1328 33.3949C41.1328 33.5199 41.1722 33.6416 41.2453 33.7429C41.3184 33.8442 41.4216 33.9199 41.5401 33.9592C43.0333 34.4525 43.2026 35.182 43.4585 36.2864C43.489 36.417 43.5627 36.5335 43.6678 36.6169C43.7728 36.7003 43.903 36.7457 44.0371 36.7457C44.1713 36.7457 44.3014 36.7003 44.4065 36.6169C44.5116 36.5335 44.5853 36.417 44.6157 36.2864C45.0412 34.4525 45.6675 34.2452 46.5341 33.9592C46.6528 33.92 46.7561 33.8444 46.8293 33.7431C46.9026 33.6418 46.942 33.5199 46.942 33.3949C46.942 33.2699 46.9026 33.1481 46.8293 33.0468C46.7561 32.9455 46.6528 32.8699 46.5341 32.8306ZM44.049 34.3915C43.8157 33.999 43.4981 33.6632 43.1192 33.4084C43.504 33.1412 43.8194 32.7862 44.0394 32.3727C44.254 32.7781 44.5578 33.1294 44.9279 33.4002C44.5633 33.6594 44.2627 33.9985 44.049 34.3915Z" fill="black"/>
<path d="M21.9882 54.8086H15.9306C15.7714 54.8086 15.6187 54.8718 15.5062 54.9844C15.3936 55.097 15.3303 55.2497 15.3303 55.4089C15.3303 55.5681 15.3936 55.7208 15.5062 55.8334C15.6187 55.946 15.7714 56.0092 15.9306 56.0092H21.9882C22.1474 56.0092 22.3001 55.946 22.4127 55.8334C22.5253 55.7208 22.5885 55.5681 22.5885 55.4089C22.5885 55.2497 22.5253 55.097 22.4127 54.9844C22.3001 54.8718 22.1474 54.8086 21.9882 54.8086Z" fill="black"/>
<path d="M23.8546 4.13757H23.5425C23.3832 4.13757 23.2306 4.20082 23.118 4.31341C23.0054 4.42599 22.9421 4.57868 22.9421 4.7379C22.9421 4.89712 23.0054 5.04981 23.118 5.1624C23.2306 5.27498 23.3832 5.33823 23.5425 5.33823H23.8546C24.0139 5.33823 24.1665 5.27498 24.2791 5.1624C24.3917 5.04981 24.455 4.89712 24.455 4.7379C24.455 4.57868 24.3917 4.42599 24.2791 4.31341C24.1665 4.20082 24.0139 4.13757 23.8546 4.13757Z" fill="black"/>
<path d="M20.1834 4.13757H14.064C13.9047 4.13757 13.752 4.20082 13.6395 4.31341C13.5269 4.42599 13.4636 4.57868 13.4636 4.7379C13.4636 4.89712 13.5269 5.04981 13.6395 5.1624C13.752 5.27498 13.9047 5.33823 14.064 5.33823H20.1834C20.3427 5.33823 20.4954 5.27498 20.6079 5.1624C20.7205 5.04981 20.7838 4.89712 20.7838 4.7379C20.7838 4.57868 20.7205 4.42599 20.6079 4.31341C20.4954 4.20082 20.3427 4.13757 20.1834 4.13757Z" fill="black"/>
<path d="M37.3164 42.909C37.6479 42.909 37.9167 42.6403 37.9167 42.3087C37.9167 41.9771 37.6479 41.7084 37.3164 41.7084C36.9848 41.7084 36.7161 41.9771 36.7161 42.3087C36.7161 42.6403 36.9848 42.909 37.3164 42.909Z" fill="black"/>
<path d="M37.9167 44.7099C37.9168 44.6311 37.9015 44.553 37.8714 44.4801C37.8414 44.4072 37.7973 44.3409 37.7417 44.2851C37.6293 44.1723 37.4768 44.1087 37.3176 44.1084C37.1583 44.1081 37.0055 44.171 36.8927 44.2834C36.7799 44.3958 36.7164 44.5483 36.716 44.7075V50.73H1.20066V16.6218C1.20066 16.4626 1.13741 16.3099 1.02482 16.1973C0.91224 16.0847 0.759544 16.0215 0.600328 16.0215C0.441111 16.0215 0.288415 16.0847 0.175832 16.1973C0.0632486 16.3099 0 16.4626 0 16.6218V55.665C0.0013343 56.8379 0.467832 57.9625 1.29717 58.7919C2.12651 59.6214 3.25098 60.0881 4.42393 60.0896H33.4925C34.6656 60.0883 35.7904 59.6218 36.6199 58.7923C37.4494 57.9628 37.9161 56.8381 37.9174 55.665C37.9174 54.7306 37.9167 50.6376 37.9167 44.7099ZM33.4925 58.889H4.42393C3.56915 58.888 2.74964 58.548 2.14519 57.9436C1.54074 57.3392 1.20071 56.5197 1.19969 55.665V51.9307H36.7151V55.665C36.7141 56.5195 36.3743 57.3387 35.7702 57.943C35.1661 58.5474 34.347 58.8876 33.4925 58.889Z" fill="black"/>
<path d="M0.600328 14.8209C0.931879 14.8209 1.20066 14.5521 1.20066 14.2206C1.20066 13.889 0.931879 13.6202 0.600328 13.6202C0.268776 13.6202 0 13.889 0 14.2206C0 14.5521 0.268776 14.8209 0.600328 14.8209Z" fill="black"/>
<path d="M53.773 10.5068C53.3295 10.0632 52.8014 9.71324 52.22 9.47775C51.6386 9.24225 51.0158 9.12602 50.3887 9.13594C49.7615 9.14586 49.1427 9.28174 48.569 9.53551C47.9954 9.78928 47.4786 10.1558 47.0494 10.6132L37.9167 20.3498C37.9167 7.99022 37.9167 9.00021 37.9167 4.48166C37.9154 3.30866 37.4488 2.18408 36.6194 1.3546C35.79 0.525121 34.6655 0.0584686 33.4925 0.0570068H4.42393C3.25098 0.0585321 2.12651 0.525212 1.29717 1.35469C0.467832 2.18416 0.0013343 3.3087 0 4.48166V11.8193C0 11.9786 0.0632486 12.1313 0.175832 12.2438C0.288415 12.3564 0.441111 12.4197 0.600328 12.4197C0.759544 12.4197 0.91224 12.3564 1.02482 12.2438C1.13741 12.1313 1.20066 11.9786 1.20066 11.8193V9.41803H36.716V21.6297L31.8138 26.8556V24.9118C31.8138 24.7526 31.7505 24.5999 31.6379 24.4873C31.5253 24.3747 31.3726 24.3114 31.2134 24.3114H17.8473C17.688 24.3114 17.5353 24.3747 17.4228 24.4873C17.3102 24.5999 17.2469 24.7526 17.2469 24.9118V31.9618C17.2469 32.121 17.3102 32.2737 17.4228 32.3863C17.5353 32.4989 17.688 32.5621 17.8473 32.5621H22.0015C20.993 33.733 20.597 35.3423 20.213 36.9027C19.618 39.336 18.9905 42.0737 16.6949 44.3979C16.6249 44.4688 16.5736 44.5559 16.5457 44.6515C16.5178 44.7471 16.5141 44.8482 16.535 44.9455C16.5559 45.0429 16.6006 45.1336 16.6653 45.2093C16.7299 45.2851 16.8124 45.3436 16.9052 45.3796C22.3644 47.4927 29.2741 44.7706 31.9919 42.0617C32.7851 41.2726 33.373 40.3012 33.7043 39.2325C34.0356 38.1638 34.1001 37.0303 33.8923 35.9309C36.6894 33.1312 36.206 33.6079 36.7141 33.1312V39.9075C36.7141 40.0667 36.7774 40.2194 36.8899 40.332C37.0025 40.4445 37.1552 40.5078 37.3144 40.5078C37.4737 40.5078 37.6264 40.4445 37.7389 40.332C37.8515 40.2194 37.9148 40.0667 37.9148 39.9075V32.0043L53.6618 17.23C54.1202 16.8015 54.4875 16.2851 54.7421 15.7116C54.9967 15.1382 55.1332 14.5193 55.1436 13.892C55.1539 13.2646 55.0379 12.6416 54.8025 12.06C54.567 11.4785 54.2169 10.9502 53.773 10.5068ZM1.20066 8.21738V4.48166C1.20167 3.62704 1.54157 2.8077 2.14581 2.20333C2.75005 1.59895 3.56931 1.25887 4.42393 1.25766H33.4925C34.3473 1.25862 35.1668 1.59858 35.7713 2.20299C36.3757 2.80739 36.7157 3.62687 36.7168 4.48166V8.21738H1.20066ZM18.4476 25.5121H30.6138V28.1269L28.3403 30.4004C26.6388 30.0955 24.8848 30.4381 23.4231 31.361H18.4476V25.5121ZM18.1882 44.5418C20.0425 42.3326 20.7216 39.8618 21.2357 37.7775L23.1568 38.2667V42.6337C23.1565 42.763 23.198 42.889 23.2751 42.9928C23.3522 43.0967 23.4608 43.1728 23.5847 43.21L26.2946 44.0231C23.4769 45.0211 20.5848 45.2103 18.1882 44.5418ZM31.1448 41.2114C30.2289 42.0664 29.1818 42.7689 28.0432 43.2919L24.3577 42.1873V37.8001C24.3577 37.6666 24.3133 37.537 24.2314 37.4316C24.1495 37.3263 24.0348 37.2512 23.9055 37.2182L21.5246 36.6119C21.9146 35.0928 22.3038 33.939 23.0874 33.1555C23.3455 32.8961 23.6285 32.6629 23.9324 32.4591C24.5581 32.0398 25.2605 31.7482 25.9992 31.6012C26.7379 31.4541 27.4984 31.4545 28.237 31.6023L32.6936 36.0351C32.8871 36.9586 32.8467 37.9159 32.5762 38.8199C32.3057 39.7238 31.8137 40.5459 31.1448 41.2114ZM33.2409 34.8849L29.386 31.051L31.2134 29.2238L35.057 33.0673L33.2409 34.8849ZM52.8425 16.3533L35.919 32.2314L32.0479 28.36L47.9254 11.4351C48.2443 11.0947 48.6285 10.8219 49.055 10.633C49.4816 10.444 49.9417 10.3427 50.4082 10.3352C50.8746 10.3277 51.3378 10.414 51.7702 10.5891C52.2026 10.7642 52.5954 11.0244 52.9252 11.3544C53.2551 11.6843 53.5151 12.0772 53.6901 12.5097C53.865 12.9421 53.9511 13.4054 53.9434 13.8718C53.9357 14.3383 53.8342 14.7984 53.6451 15.2248C53.456 15.6513 53.1831 16.0354 52.8425 16.3542V16.3533Z" fill="black"/>
<path d="M6.64208 22.0008H31.2752C31.4344 22.0008 31.5871 21.9376 31.6997 21.825C31.8123 21.7124 31.8755 21.5597 31.8755 21.4005V14.2206C31.8755 14.0614 31.8123 13.9087 31.6997 13.7961C31.5871 13.6835 31.4344 13.6202 31.2752 13.6202H6.64208C6.48286 13.6202 6.33016 13.6835 6.21758 13.7961C6.105 13.9087 6.04175 14.0614 6.04175 14.2206V21.4005C6.04175 21.5597 6.105 21.7124 6.21758 21.825C6.33016 21.9376 6.48286 22.0008 6.64208 22.0008ZM7.2424 14.8209H30.6749V20.8002H7.2424V14.8209Z" fill="black"/>
<path d="M6.04175 31.9625C6.04175 32.1217 6.105 32.2744 6.21758 32.387C6.33016 32.4995 6.48286 32.5628 6.64208 32.5628H14.4583C14.6176 32.5628 14.7703 32.4995 14.8828 32.387C14.9954 32.2744 15.0587 32.1217 15.0587 31.9625V24.9117C15.0587 24.7525 14.9954 24.5998 14.8828 24.4872C14.7703 24.3746 14.6176 24.3114 14.4583 24.3114H6.64208C6.48286 24.3114 6.33016 24.3746 6.21758 24.4872C6.105 24.5998 6.04175 24.7525 6.04175 24.9117V31.9625ZM7.2424 25.5121H13.858V31.3621H7.2424V25.5121Z" fill="black"/>
<path d="M6.04175 41.5325C6.04175 41.6917 6.105 41.8444 6.21758 41.957C6.33016 42.0696 6.48286 42.1328 6.64208 42.1328H14.4583C14.6176 42.1328 14.7703 42.0696 14.8828 41.957C14.9954 41.8444 15.0587 41.6917 15.0587 41.5325V34.4816C15.0587 34.3223 14.9954 34.1696 14.8828 34.0571C14.7703 33.9445 14.6176 33.8812 14.4583 33.8812H6.64208C6.48286 33.8812 6.33016 33.9445 6.21758 34.0571C6.105 34.1696 6.04175 34.3223 6.04175 34.4816V41.5325ZM7.2424 35.0819H13.858V40.9322H7.2424V35.0819Z" fill="black"/>
</svg>
