<svg width="61" height="61" viewBox="0 0 61 61" fill="none" xmlns="http://www.w3.org/2000/svg">
<g clip-path="url(#clip0_190_2056)">
<path d="M0.893555 49.7806V4.67198C0.893555 2.58523 2.58523 0.893555 4.67198 0.893555H24.776C26.8628 0.893555 28.5544 2.58523 28.5544 4.67198V49.7806C28.5544 51.8674 26.8628 53.5591 24.776 53.5591H4.67198C2.58523 53.5591 0.893555 51.8674 0.893555 49.7806Z" fill="#C9F0FF"/>
<path d="M0.893555 45.4534H28.5544V49.7859C28.5544 51.8698 26.8779 53.5591 24.8098 53.5591H4.63814C2.56998 53.5591 0.893555 51.8698 0.893555 49.7859V45.4534Z" fill="#3498AC"/>
<path d="M22.867 0.893555L21.3667 4.40975C21.023 5.21526 20.2407 5.73662 19.3758 5.73662H10.5133C9.64831 5.73662 8.86591 5.21526 8.52231 4.40975L7.02197 0.893555H22.867Z" fill="#3498AC"/>
<path d="M32.4456 56.328V11.2193C32.4456 9.1326 34.1372 7.44092 36.224 7.44092H56.328C58.4148 7.44092 60.1064 9.1326 60.1064 11.2193V56.328C60.1064 58.4148 58.4148 60.1064 56.328 60.1064H36.224C34.1372 60.1064 32.4456 58.4148 32.4456 56.328Z" fill="#C9F0FF"/>
<path d="M56.3281 7.44092H52.7539C54.8407 7.44092 56.5323 9.1326 56.5323 11.2193V56.328C56.5323 58.4148 54.8407 60.1064 52.7539 60.1064H56.3281C58.4149 60.1064 60.1065 58.4148 60.1065 56.328V11.2193C60.1065 9.1326 58.4149 7.44092 56.3281 7.44092Z" fill="#B5EAFF"/>
<path d="M32.4456 52.0007H60.1064V56.3333C60.1064 58.4172 58.4299 60.1065 56.3618 60.1065H36.1903C34.1221 60.1065 32.4457 58.4172 32.4457 56.3333V52.0007H32.4456Z" fill="#3498AC"/>
<path d="M56.5322 52.0007V56.3333C56.5322 58.4172 54.8556 60.1065 52.7876 60.1065H56.3618C58.43 60.1065 60.1064 58.4172 60.1064 56.3333V52.0007H56.5322Z" fill="#288A9A"/>
<path d="M54.419 7.44092L52.9186 10.9571C52.5749 11.7626 51.7926 12.2839 50.9277 12.2839H42.0651C41.2002 12.2839 40.4178 11.7625 40.0742 10.9571L38.574 7.44092H54.419Z" fill="#3498AC"/>
<path d="M37.6062 17.0491C34.5042 17.0491 31.8181 18.8518 30.5001 21.4823C29.182 18.8519 26.4959 17.0491 23.3939 17.0491C18.9906 17.0491 15.4209 20.6794 15.4209 25.1575C15.4209 36.0949 30.5001 41.9633 30.5001 41.9633C30.5001 41.9633 45.5792 36.0949 45.5792 25.1575C45.5792 20.6793 42.0096 17.0491 37.6062 17.0491Z" fill="#FF815C"/>
<path d="M37.6063 17.0491C36.992 17.0491 36.3941 17.12 35.8197 17.2539C39.3623 18.0793 42.0049 21.3045 42.0049 25.1577C42.0049 33.7467 32.7059 39.2096 28.7129 41.1596C29.8046 41.6926 30.5 41.9634 30.5 41.9634C30.5 41.9634 45.5792 36.095 45.5792 25.1577C45.5793 20.6793 42.0097 17.0491 37.6063 17.0491Z" fill="#FC6D44"/>
<path d="M11.0357 50.3997H18.4123C19.5954 50.3587 19.5945 48.6532 18.4123 48.6125H11.0357C9.8526 48.6537 9.85344 50.3592 11.0357 50.3997Z" fill="black"/>
<path d="M56.328 6.54737H36.224C33.6478 6.54737 31.552 8.64318 31.552 11.2194V18.5759C31.1698 18.9395 30.8173 19.3394 30.5 19.7727C30.1826 19.3393 29.8301 18.9395 29.448 18.5759V4.67198C29.448 2.0958 27.3522 0 24.776 0H4.67198C2.0958 0 0 2.0958 0 4.67198V49.7806C0 52.3568 2.0958 54.4526 4.67198 54.4526H24.776C27.3522 54.4526 29.448 52.3568 29.448 49.7806V42.4891C30.3225 42.8755 30.6663 42.8804 31.552 42.4891V56.3333C31.552 58.9066 33.6327 61 36.1903 61H49.9644C51.0825 61 51.1335 59.2129 49.9644 59.2129H36.1903C34.6182 59.2129 33.3391 57.921 33.3391 56.3333V52.8943H59.2129V56.3333C59.2129 57.9212 57.9339 59.2129 56.3619 59.2129H54.419C53.3009 59.2129 53.2499 61 54.419 61H56.3619C58.9193 61 61 58.9065 61 56.3333V11.2194C61 8.64318 58.9042 6.54737 56.328 6.54737ZM53.0662 8.33448L52.0969 10.6064C51.8936 11.0826 51.4348 11.3903 50.9277 11.3903H42.0652C41.5582 11.3903 41.0992 11.0826 40.8961 10.6064L39.9268 8.33448H53.0662ZM21.5142 1.78711L20.5448 4.05912C20.3417 4.53533 19.8828 4.84307 19.3758 4.84307H10.5132C10.0061 4.84307 9.54721 4.53533 9.34408 4.05912L8.37475 1.78711H21.5142ZM27.6609 49.7806C27.6609 51.3714 26.3668 52.6655 24.776 52.6655H4.67198C3.08121 52.6655 1.78711 51.3714 1.78711 49.7806V46.3469H27.6609V49.7806ZM30.5004 40.9959C28.3549 40.0776 16.3144 34.5032 16.3144 25.1575C16.3144 24.2056 16.4945 23.279 16.8497 22.4036C17.27 21.3674 15.6332 20.6483 15.1938 21.7317C13.0085 27.7451 16.431 33.8574 22.4236 38.376C24.3298 39.8092 26.2224 40.8963 27.661 41.634V44.5597H1.78711V4.67198C1.78711 3.08121 3.08121 1.78711 4.67198 1.78711H6.43169L7.7003 4.76038C8.18484 5.89627 9.28892 6.63018 10.5132 6.63018H19.3757C20.5999 6.63018 21.704 5.89627 22.1885 4.7605L23.4571 1.78711H24.776C26.3668 1.78711 27.6609 3.08121 27.6609 4.67198V17.2605C24.8842 15.6704 21.1543 15.811 18.4969 17.6535C17.5697 18.2784 18.5261 19.7889 19.4957 19.1355C22.9199 16.7527 27.893 18.1002 29.7012 21.8826C30.0247 22.5282 30.9754 22.5282 31.2988 21.8824C32.5166 19.4522 34.9335 17.9425 37.6061 17.9425C41.5098 17.9425 44.6855 21.1792 44.6855 25.1575C44.9622 32.4027 36.3512 38.5873 30.5004 40.9959ZM59.2129 51.1072H33.3391V41.6342C34.7777 40.8965 36.6703 39.8093 38.5765 38.3761C43.7422 34.4923 46.4727 29.9215 46.4727 25.1576C46.4727 20.1939 42.4952 16.1555 37.6063 16.1555C36.0794 16.1555 34.62 16.5473 33.3392 17.2605V11.2194C33.3392 9.62859 34.6333 8.33448 36.2241 8.33448H37.9838L39.2524 11.3078C39.737 12.4436 40.841 13.1775 42.0653 13.1775H50.9278C52.1519 13.1775 53.2561 12.4436 53.7408 11.3079L55.0094 8.3346H56.3281C57.9189 8.3346 59.213 9.62871 59.213 11.2195V51.1072H59.2129Z" fill="black"/>
<path d="M42.5877 55.1599C41.4045 55.2009 41.4055 56.9064 42.5877 56.947H49.9643C51.1475 56.906 51.1465 55.2005 49.9643 55.1599H42.5877Z" fill="black"/>
<path d="M22.4355 12.2876C22.3637 11.7994 21.91 11.4617 21.4214 11.5336C14.866 12.3946 9.64852 18.538 9.76182 25.1576C9.7617 26.2758 11.5488 26.3267 11.5488 25.1575C11.4491 19.4026 15.9837 14.0503 21.6814 13.3017C22.1696 13.2299 22.5072 12.7758 22.4355 12.2876Z" fill="black"/>
<path d="M50.1554 27.8092C49.6732 27.7039 49.1971 28.0096 49.0919 28.4918C48.1177 32.9564 45.1005 37.1977 40.3665 40.7569C39.4798 41.4235 40.4918 42.899 41.4404 42.1853C46.5215 38.3652 49.7711 33.7617 50.8379 28.8728C50.9431 28.3905 50.6376 27.9144 50.1554 27.8092Z" fill="black"/>
</g>
<defs>
<clipPath id="clip0_190_2056">
<rect width="61" height="61" fill="white"/>
</clipPath>
</defs>
</svg>
