<svg width="61" height="61" viewBox="0 0 61 61" fill="none" xmlns="http://www.w3.org/2000/svg">
<g clip-path="url(#clip0_190_2082)">
<path d="M26.4172 52.1753L28.3723 50.2202C29.0231 49.5688 29.8887 49.1766 30.8075 49.1169L33.3166 48.9513C35.7445 48.7921 38.0887 48.0013 40.117 46.6574C42.1452 45.3135 43.7873 43.4631 44.8804 41.2894L46.6866 37.6961L39.9122 32.3467L21.9971 47.219L26.4172 52.1753Z" fill="#FFCEBF"/>
<path d="M45.8811 0.893555H29.0417C26.7052 0.893555 24.811 2.7877 24.811 5.12424V38.0047C24.811 40.3412 26.7052 42.2354 29.0417 42.2354H45.8811C48.2176 42.2354 50.1117 40.3412 50.1117 38.0047V5.12424C50.1117 2.7877 48.2176 0.893555 45.8811 0.893555Z" fill="#D8ECFE"/>
<path d="M50.1129 9.71235C49.599 9.57496 49.0582 9.5739 48.5438 9.70929C48.0294 9.84467 47.5592 10.1118 47.1796 10.4844L46.0859 11.5566C45.5308 12.1046 45.2062 12.8441 45.1787 13.6237C45.1511 14.4032 45.4227 15.1638 45.9378 15.7495C46.4529 16.3353 47.1725 16.7019 47.9492 16.7743C48.7258 16.8467 49.5008 16.6193 50.1152 16.1388L50.1129 9.71235Z" fill="#C4E2FF"/>
<path d="M49.7914 23.0811L50.1131 22.7653V17.0942C49.5435 16.8089 48.8991 16.7087 48.2698 16.8076C47.6404 16.9065 47.0578 17.1996 46.6032 17.6459L45.5083 18.7181C45.222 18.9994 44.9939 19.3342 44.837 19.7036C44.6801 20.073 44.5975 20.4697 44.5939 20.871C44.5903 21.2723 44.6658 21.6704 44.816 22.0426C44.9663 22.4147 45.1884 22.7536 45.4696 23.04C45.7508 23.3263 46.0857 23.5544 46.4551 23.7113C46.8245 23.8682 47.2212 23.9508 47.6225 23.9544C48.0238 23.958 48.4219 23.8825 48.794 23.7323C49.1662 23.582 49.5051 23.3599 49.7914 23.0787V23.0811Z" fill="#C4E2FF"/>
<path d="M49.5292 30.2129L50.113 29.6398V24.3714C49.5304 24.0064 48.8418 23.8482 48.1583 23.9226C47.4748 23.997 46.8363 24.2995 46.3458 24.7813L45.2521 25.8536C44.6737 26.4214 44.3445 27.1957 44.337 28.0062C44.3333 28.4075 44.4087 28.8056 44.5589 29.1778C44.709 29.55 44.931 29.889 45.2122 30.1754C45.4933 30.4618 45.8281 30.69 46.1975 30.847C46.5668 31.004 46.9635 31.0867 47.3648 31.0904C48.1753 31.0979 48.9556 30.7831 49.534 30.2153L49.5292 30.2129Z" fill="#C4E2FF"/>
<path d="M49.5294 37.2994L50.1131 36.7263V31.4591C49.5306 31.0922 48.8413 30.9326 48.1568 31.0061C47.4722 31.0796 46.8325 31.382 46.3412 31.8642L45.2474 32.9365C44.6814 33.5069 44.3629 34.2774 44.3609 35.0809C44.3588 35.8845 44.6733 36.6566 45.2363 37.23C45.7994 37.8034 46.5656 38.1319 47.3691 38.1444C48.1726 38.157 48.9487 37.8525 49.5294 37.297V37.2994Z" fill="#C4E2FF"/>
<path d="M28.2948 28.9571C27.8963 28.2718 27.7687 27.4621 27.9373 26.6875L29.1895 21.0271C29.3364 20.3585 29.3354 19.6659 29.1865 18.9977C29.0376 18.3296 28.7445 17.702 28.3276 17.1591C27.9108 16.6161 27.3802 16.1708 26.7732 15.8544C26.1662 15.538 25.4973 15.3582 24.8135 15.3274V38.0058C24.8135 39.1279 25.2592 40.204 26.0526 40.9974C26.846 41.7908 27.9221 42.2365 29.0442 42.2365H30.0235L30.7538 39.4772C31.4853 36.7136 31.0911 33.7728 29.6577 31.2994L28.2948 28.9571Z" fill="#C4E2FF"/>
<path d="M40.9535 4.46777H33.9707C33.6231 4.46777 33.2898 4.3297 33.044 4.08392C32.7982 3.83815 32.6602 3.50481 32.6602 3.15723V0.893555H42.2641V3.15723C42.2641 3.50481 42.126 3.83815 41.8802 4.08392C41.6345 4.3297 41.3011 4.46777 40.9535 4.46777Z" fill="#7A6D79"/>
<path d="M47.4825 14.4744C47.1864 14.1915 46.9501 13.8519 46.7878 13.4759C46.6255 13.0999 46.5404 12.6951 46.5377 12.2855C46.5349 11.876 46.6145 11.4701 46.7717 11.0919C46.9288 10.7137 47.1604 10.371 47.4527 10.084L48.5464 9.01178C49.1129 8.45575 49.8735 8.14188 50.6673 8.13654C51.4611 8.13121 52.2258 8.43483 52.7997 8.98318C53.0957 9.26608 53.3318 9.60557 53.494 9.98147C53.6562 10.3574 53.7412 10.762 53.7439 11.1714C53.7467 11.5808 53.6672 11.9866 53.5101 12.3647C53.353 12.7428 53.1216 13.0854 52.8295 13.3723L51.7346 14.4446C51.1686 15.001 50.4083 15.3152 49.6146 15.3208C48.8209 15.3263 48.0562 15.0228 47.4825 14.4744Z" fill="#FFCEBF"/>
<path d="M46.9072 21.6383C46.6111 21.3555 46.3749 21.0161 46.2126 20.6401C46.0503 20.2642 45.9653 19.8595 45.9625 19.4501C45.9597 19.0406 46.0393 18.6348 46.1964 18.2567C46.3536 17.8786 46.5852 17.536 46.8774 17.2492L47.9711 16.1769C48.5375 15.6206 49.2981 15.3066 50.092 15.3012C50.8859 15.2959 51.6506 15.5997 52.2244 16.1483C52.5205 16.4311 52.7567 16.7706 52.919 17.1465C53.0813 17.5224 53.1664 17.9271 53.1692 18.3366C53.172 18.746 53.0924 19.1519 52.9352 19.5299C52.778 19.908 52.5465 20.2507 52.2542 20.5375L51.1605 21.6097C50.594 22.1658 49.8334 22.4796 49.0397 22.485C48.2459 22.4903 47.4811 22.1867 46.9072 21.6383Z" fill="#FFCEBF"/>
<path d="M46.6451 28.7689C46.3491 28.4859 46.113 28.1463 45.9508 27.7703C45.7886 27.3943 45.7035 26.9896 45.7008 26.5801C45.698 26.1706 45.7775 25.7647 45.9346 25.3865C46.0917 25.0083 46.3232 24.6656 46.6153 24.3786L47.7102 23.3063C48.2763 22.7501 49.0368 22.4361 49.8304 22.4307C50.6241 22.4254 51.3887 22.7292 51.9623 23.2777C52.2585 23.5605 52.4948 23.8999 52.6572 24.2757C52.8196 24.6516 52.9047 25.0563 52.9076 25.4657C52.9105 25.8752 52.8311 26.281 52.674 26.6592C52.5169 27.0373 52.2854 27.38 51.9933 27.6669L50.8984 28.7391C50.332 29.2953 49.5715 29.6094 48.7777 29.615C47.984 29.6205 47.2192 29.3171 46.6451 28.7689Z" fill="#FFCEBF"/>
<path d="M46.645 35.8613C46.349 35.5784 46.1129 35.2389 45.9507 34.863C45.7885 34.4871 45.7035 34.0824 45.7008 33.673C45.698 33.2636 45.7775 32.8578 45.9346 32.4797C46.0917 32.1017 46.3231 31.759 46.6152 31.4721L47.7101 30.3999C48.2764 29.8439 49.0368 29.5301 49.8304 29.5247C50.6239 29.5194 51.3885 29.823 51.9622 30.3713C52.2584 30.6541 52.4947 30.9936 52.6571 31.3696C52.8196 31.7455 52.9047 32.1503 52.9076 32.5599C52.9105 32.9694 52.8311 33.3754 52.674 33.7536C52.5169 34.1318 52.2854 34.4746 51.9932 34.7616L50.8983 35.8339C50.3316 36.3897 49.5709 36.7034 48.7772 36.7085C47.9834 36.7136 47.2188 36.4098 46.645 35.8613Z" fill="#FFCEBF"/>
<path d="M27.8648 43.6198L28.9609 39.4761C29.6924 36.7125 29.2982 33.7717 27.8648 31.2983L26.5078 28.9571C26.1093 28.2718 25.9818 27.4621 26.1504 26.6875L27.4025 21.0271C27.5535 20.3409 27.5485 19.6296 27.3881 18.9456C27.2277 18.2615 26.9159 17.6221 26.4757 17.0745C26.0355 16.527 25.478 16.0851 24.8443 15.7815C24.2107 15.4779 23.517 15.3203 22.8144 15.3203C22.676 15.3205 22.5411 15.3642 22.4289 15.4452C22.3166 15.5262 22.2327 15.6405 22.1889 15.7719L17.8451 28.7951C17.6818 29.2857 17.5985 29.7995 17.5985 30.3165V35.0274C17.5986 36.0775 17.255 37.0989 16.6203 37.9356L14.7021 40.4602L26.4172 52.1753L27.8648 43.6198Z" fill="#FFCEBF"/>
<path d="M0.960084 52.6351C0.853384 52.5893 0.759455 52.5182 0.686421 52.4279C0.613387 52.3376 0.563447 52.2309 0.540922 52.117C0.518396 52.003 0.523962 51.8853 0.557139 51.7741C0.590316 51.6628 0.650105 51.5612 0.731334 51.4783L12.3904 39.5916C12.7256 39.2566 13.18 39.0684 13.6539 39.0684C14.1278 39.0684 14.5823 39.2566 14.9174 39.5916L27.1269 51.7964C27.462 52.1315 27.6502 52.586 27.6502 53.0599C27.6502 53.5337 27.462 53.9882 27.1269 54.3233L20.8125 60.6569C20.7108 60.7601 20.58 60.8299 20.4377 60.8572C20.2954 60.8844 20.1481 60.8677 20.0154 60.8094L0.960084 52.6351Z" fill="#FD4755"/>
<path d="M37.4627 9.79452C36.2821 8.25761 33.9957 8.16349 32.6006 9.52765C31.991 10.1186 31.6175 10.9113 31.5497 11.7577C31.482 12.604 31.7247 13.446 32.2325 14.1265C32.5496 14.5551 32.8993 14.9586 33.2785 15.3334C34.458 16.4981 35.8897 17.3758 37.4627 17.8985C39.0355 17.3752 40.4671 16.4976 41.647 15.3334C42.0258 14.9583 42.3755 14.5548 42.693 14.1265C43.2004 13.4458 43.4428 12.6037 43.3748 11.7575C43.3068 10.9112 42.9332 10.1186 42.3237 9.52765C40.9333 8.16825 38.647 8.25403 37.4627 9.79452Z" fill="#FD4755"/>
<path d="M42.3238 9.53125C42.0279 9.24158 41.6809 9.00929 41.3004 8.84619C41.5504 9.4117 41.6457 10.0335 41.5764 10.6479C41.5071 11.2624 41.2758 11.8474 40.906 12.343C40.5885 12.7713 40.2388 13.1747 39.86 13.5499C39.5755 13.8312 39.2756 14.0965 38.9616 14.3445C38.0367 15.0784 36.8926 15.4814 35.7119 15.4894C34.5312 15.4974 33.3819 15.1099 32.447 14.3886L32.4077 14.3588C32.6772 14.7029 32.968 15.0296 33.2786 15.337C34.4581 16.5017 35.8898 17.3794 37.4629 17.9021C39.0357 17.3788 40.4672 16.5012 41.6471 15.337C42.0259 14.9619 42.3756 14.5584 42.6931 14.1301C43.2005 13.4494 43.4429 12.6073 43.3749 11.7611C43.3069 10.9148 42.9333 10.1222 42.3238 9.53125Z" fill="#FB2B3A"/>
<path d="M41.4301 26.9698H33.4941C33.0335 26.9698 32.6602 27.3432 32.6602 27.8038V29.7101C32.6602 30.1707 33.0335 30.5441 33.4941 30.5441H41.4301C41.8907 30.5441 42.2641 30.1707 42.2641 29.7101V27.8038C42.2641 27.3432 41.8907 26.9698 41.4301 26.9698Z" fill="#A2E62E"/>
<path d="M41.4301 34.1183H33.4941C33.0335 34.1183 32.6602 34.4917 32.6602 34.9523V36.8585C32.6602 37.3191 33.0335 37.6925 33.4941 37.6925H41.4301C41.8907 37.6925 42.2641 37.3191 42.2641 36.8585V34.9523C42.2641 34.4917 41.8907 34.1183 41.4301 34.1183Z" fill="#FD4755"/>
<path d="M42.264 21.8623H32.6601C32.4231 21.8623 32.1958 21.9564 32.0282 22.124C31.8607 22.2916 31.7665 22.5189 31.7665 22.7559C31.7665 22.9928 31.8607 23.2201 32.0282 23.3877C32.1958 23.5553 32.4231 23.6494 32.6601 23.6494H42.264C42.501 23.6494 42.7283 23.5553 42.8958 23.3877C43.0634 23.2201 43.1575 22.9928 43.1575 22.7559C43.1575 22.5189 43.0634 22.2916 42.8958 22.124C42.7283 21.9564 42.501 21.8623 42.264 21.8623ZM42.9479 8.88908C42.5197 8.46961 42.0075 8.14561 41.445 7.9384C40.8826 7.7312 40.2826 7.6455 39.6846 7.68695C38.8759 7.74272 38.1023 8.03849 37.4626 8.53643C36.8234 8.03841 36.0502 7.74225 35.2418 7.68576C34.6434 7.6442 34.0429 7.72995 33.48 7.93737C32.9171 8.14478 32.4046 8.46915 31.9762 8.88908C31.2094 9.62841 30.7392 10.6225 30.6541 11.6842C30.569 12.746 30.8747 13.8022 31.5139 14.6543C31.857 15.1192 32.235 15.5573 32.6446 15.9648C33.9213 17.225 35.4702 18.1755 37.1719 18.7432C37.3553 18.804 37.5533 18.804 37.7366 18.7432C39.4383 18.1754 40.9871 17.2249 42.264 15.9648C42.6752 15.5575 43.0548 15.1194 43.3994 14.6543C44.0404 13.8037 44.3484 12.7481 44.2652 11.6862C44.182 10.6243 43.7135 9.62952 42.9479 8.88908ZM41.9745 13.5939C41.6853 13.9858 41.3666 14.355 41.0214 14.6984C40.0109 15.6948 38.7986 16.4631 37.4662 16.9513C36.1334 16.4631 34.9207 15.6949 33.9099 14.6984C33.5649 14.3547 33.2462 13.9855 32.9567 13.5939C32.5765 13.0873 32.3947 12.4591 32.4456 11.8277C32.4965 11.1964 32.7766 10.6054 33.2331 10.1663C33.6922 9.71601 34.3093 9.46328 34.9523 9.46215C35.301 9.45917 35.6456 9.53675 35.9593 9.68885C36.273 9.84095 36.5473 10.0635 36.7609 10.339C36.8456 10.4457 36.9532 10.5319 37.0759 10.5911C37.1985 10.6504 37.333 10.6811 37.4692 10.6811C37.6054 10.6811 37.7398 10.6504 37.8625 10.5911C37.9851 10.5319 38.0928 10.4457 38.1775 10.339C38.3724 10.085 38.6197 9.87593 38.9026 9.72587C39.1854 9.57581 39.4972 9.48831 39.8168 9.4693C40.162 9.4464 40.5081 9.49664 40.8325 9.61675C41.1569 9.73686 41.4523 9.92412 41.6993 10.1663C42.1558 10.6054 42.4359 11.1965 42.4866 11.8279C42.5373 12.4594 42.3551 13.0876 41.9745 13.5939ZM54.0625 18.3274C54.0608 17.7977 53.9517 17.2738 53.7418 16.7875C53.5319 16.3011 53.2256 15.8624 52.8413 15.4978C52.6873 15.3511 52.522 15.2169 52.3469 15.0963L52.3612 15.0832L53.4549 14.0109C53.9941 13.4796 54.3695 12.8047 54.5367 12.0664C54.7039 11.3281 54.6557 10.5573 54.398 9.84552C54.1402 9.13374 53.6837 8.51084 53.0826 8.05073C52.4814 7.59062 51.7609 7.31262 51.0065 7.24971V5.12305C51.005 3.76481 50.4647 2.46266 49.5043 1.50225C48.5439 0.541831 47.2417 0.00157659 45.8835 0L29.0418 0C27.6835 0.00157659 26.3814 0.541831 25.421 1.50225C24.4605 2.46266 23.9203 3.76481 23.9187 5.12305V12.1881C23.9187 12.4251 24.0129 12.6524 24.1804 12.8199C24.348 12.9875 24.5753 13.0816 24.8123 13.0816C25.0493 13.0816 25.2765 12.9875 25.4441 12.8199C25.6117 12.6524 25.7058 12.4251 25.7058 12.1881V5.12305C25.7058 4.2383 26.0573 3.38979 26.6829 2.76418C27.3085 2.13857 28.157 1.78711 29.0418 1.78711H31.7665V3.15723C31.7671 3.7416 31.9996 4.30185 32.4128 4.71507C32.826 5.12828 33.3862 5.3607 33.9706 5.36133H40.9534C41.5378 5.3607 42.0981 5.12828 42.5113 4.71507C42.9245 4.30185 43.1569 3.7416 43.1575 3.15723V1.78711H45.8823C46.767 1.78711 47.6156 2.13857 48.2412 2.76418C48.8668 3.38979 49.2182 4.2383 49.2182 5.12305V7.51777C48.3842 7.85137 47.4788 8.8033 46.8247 9.44547C46.4088 9.85407 46.0884 10.3497 45.8867 10.8967C45.6849 11.4438 45.6067 12.0287 45.6577 12.6095C45.7088 13.1903 45.8877 13.7527 46.1818 14.2562C46.4758 14.7596 46.8776 15.1918 47.3584 15.5216L47.3442 15.5347L46.2492 16.607C45.8701 16.9767 45.5699 17.4194 45.3668 17.9084C45.1636 18.3975 45.0618 18.9226 45.0674 19.4521C45.0736 20.1221 45.2497 20.7795 45.5791 21.3629C45.9085 21.9463 46.3805 22.4366 46.951 22.788L45.9883 23.7412C45.609 24.1107 45.3086 24.5534 45.1055 25.0424C44.9023 25.5315 44.8006 26.0567 44.8065 26.5862C44.8129 27.2831 45.0025 27.966 45.3564 28.5664C45.7102 29.1668 46.2158 29.6636 46.8223 30.0068L45.9883 30.8276C45.4017 31.4057 45.0101 32.1524 44.8682 32.9637C44.7263 33.775 44.8411 34.6103 45.1968 35.3532C45.5524 36.096 46.131 36.7093 46.8519 37.1076C47.5728 37.5058 48.4001 37.669 49.2182 37.5746V38.0059C49.2182 38.8906 48.8668 39.7391 48.2412 40.3647C47.6156 40.9903 46.767 41.3418 45.8823 41.3418H38.1477C37.9107 41.3418 37.6834 41.4359 37.5158 41.6035C37.3483 41.7711 37.2541 41.9984 37.2541 42.2354C37.2541 42.4723 37.3483 42.6996 37.5158 42.8672C37.6834 43.0348 37.9107 43.1289 38.1477 43.1289H42.6524C41.5179 44.5613 40.096 45.7401 38.4782 46.5894C36.8604 47.4388 35.0826 47.9398 33.2593 48.0601L30.7502 48.2257C29.6151 48.2992 28.5456 48.7837 27.7419 49.5887L26.9628 50.3667L16.3592 39.7632L17.3362 38.4777C18.0857 37.4835 18.4914 36.2724 18.4919 35.0273V30.3165C18.4918 29.8954 18.5598 29.4769 18.6932 29.0775L22.9823 16.2174C23.5365 16.242 24.0787 16.3875 24.5708 16.6437C25.0629 16.8999 25.493 17.2607 25.8311 17.7006C26.1691 18.1405 26.4068 18.6491 26.5276 19.1906C26.6484 19.7321 26.6493 20.2934 26.5303 20.8353L25.2853 26.4957C25.0648 27.4875 25.2251 28.5259 25.7344 29.4051L27.0914 31.7462C27.7462 32.869 28.1722 34.1103 28.3448 35.3986C28.5174 36.6868 28.4332 37.9965 28.097 39.2521L27.0009 43.3958C26.9414 43.6245 26.9749 43.8674 27.0941 44.0714C27.2133 44.2755 27.4085 44.424 27.6369 44.4845C27.8653 44.545 28.1084 44.5125 28.313 44.3942C28.5175 44.2759 28.6669 44.0814 28.7284 43.8533L28.9191 43.1313H34.5735C34.8105 43.1313 35.0377 43.0371 35.2053 42.8696C35.3729 42.702 35.467 42.4747 35.467 42.2377C35.467 42.0007 35.3729 41.7735 35.2053 41.6059C35.0377 41.4383 34.8105 41.3442 34.5735 41.3442H29.392L29.8245 39.7072C30.2201 38.2257 30.3184 36.6805 30.1139 35.1608C29.9095 33.6411 29.4062 32.1769 28.6331 30.8527L27.2833 28.5104C26.9979 28.0174 26.9078 27.4354 27.0307 26.8793L28.2757 21.2189C28.4549 20.4023 28.4487 19.5558 28.2575 18.7419C28.0664 17.9279 27.6952 17.1672 27.1712 16.5156C26.6472 15.8641 25.9838 15.3383 25.2298 14.977C24.4758 14.6157 23.6504 14.4281 22.8143 14.4279C22.4884 14.4287 22.1709 14.5314 21.9063 14.7215C21.6416 14.9116 21.443 15.1797 21.3381 15.4883L16.9966 28.5127C16.8036 29.0945 16.705 29.7035 16.7048 30.3165V35.0273C16.7038 35.882 16.4244 36.713 15.9089 37.3947L15.0273 38.5563C14.5137 38.2521 13.9136 38.1276 13.3214 38.2022C12.7293 38.2769 12.1788 38.5465 11.7568 38.9685L9.01065 41.7671L0.2562 50.6931C0.171938 50.7764 0.105075 50.8756 0.0594988 50.9849C0.013923 51.0943 -0.00945537 51.2116 -0.00927632 51.3301C-0.00909728 51.4485 0.0146356 51.5658 0.0605417 51.675C0.106448 51.7842 0.173611 51.8832 0.258124 51.9662C0.342637 52.0492 0.442813 52.1146 0.552825 52.1585C0.662836 52.2025 0.780488 52.2241 0.898935 52.2222C1.01738 52.2202 1.13426 52.1947 1.24277 52.1472C1.35128 52.0997 1.44926 52.0311 1.531 51.9453L9.65044 43.6686L23.0835 57.1041L20.7126 59.475C20.55 59.6436 20.46 59.8694 20.4621 60.1036C20.4643 60.3379 20.5584 60.562 20.7241 60.7276C20.8899 60.8932 21.114 60.9871 21.3483 60.989C21.5826 60.9909 21.8083 60.9007 21.9767 60.7379L24.9707 57.7439L24.9791 57.7355L24.9874 57.7272L27.7598 54.956C28.1801 54.534 28.4481 53.9843 28.5216 53.3933C28.5952 52.8023 28.4701 52.2036 28.1661 51.6915L29.0001 50.8516C29.4981 50.3541 30.1598 50.0543 30.8622 50.0081L33.3713 49.8425C35.6746 49.6916 37.9111 49.0063 39.9036 47.841C41.8961 46.6757 43.5898 45.0624 44.8505 43.1289H45.8823C47.2405 43.1273 48.5427 42.5871 49.5031 41.6267C50.4635 40.6662 51.0038 39.3641 51.0053 38.0059V36.8943C51.4986 36.5631 52.1968 35.8053 52.6173 35.3907C52.9948 35.0199 53.294 34.577 53.497 34.0883C53.7 33.5996 53.8028 33.0751 53.7993 32.5459C53.7957 32.0167 53.6859 31.4937 53.4763 31.0078C53.2667 30.5218 52.9616 30.083 52.5792 29.7172C52.3392 29.486 52.071 29.2858 51.7809 29.1215L52.6149 28.2995C52.9924 27.9286 53.2916 27.4857 53.4946 26.997C53.6977 26.5083 53.8004 25.9838 53.7969 25.4547C53.7933 24.9255 53.6835 24.4024 53.4739 23.9165C53.2643 23.4306 52.9593 22.9917 52.5768 22.626C52.3739 22.4336 52.152 22.2623 51.9144 22.1149L52.877 21.1689C53.2564 20.7999 53.557 20.3579 53.7607 19.8695C53.9645 19.3812 54.0671 18.8566 54.0625 18.3274ZM41.3704 3.15723C41.3704 3.21199 41.3597 3.26621 41.3387 3.3168C41.3177 3.36739 41.287 3.41336 41.2483 3.45208C41.2096 3.49081 41.1636 3.52152 41.113 3.54248C41.0624 3.56343 41.0082 3.57422 40.9534 3.57422H33.9706C33.9159 3.57422 33.8616 3.56343 33.811 3.54248C33.7604 3.52152 33.7145 3.49081 33.6758 3.45208C33.637 3.41336 33.6063 3.36739 33.5854 3.3168C33.5644 3.26621 33.5536 3.21199 33.5536 3.15723V1.78711H41.3704V3.15723ZM26.4957 53.6919L24.3512 55.8364L10.899 42.3926L13.0269 40.2231C13.1948 40.056 13.422 39.9621 13.6589 39.9621C13.8958 39.9621 14.1231 40.056 14.291 40.2231L26.3242 52.2563L26.4886 52.4207C26.5729 52.5035 26.64 52.6021 26.686 52.711C26.732 52.8198 26.756 52.9367 26.7567 53.0548C26.7573 53.173 26.7346 53.2901 26.6898 53.3994C26.6451 53.5088 26.5791 53.6082 26.4957 53.6919ZM48.0781 10.7227L49.173 9.65039C49.3747 9.44742 49.6147 9.28651 49.8792 9.177C50.1436 9.06749 50.4271 9.01156 50.7133 9.01243C50.9994 9.01331 51.2826 9.07099 51.5463 9.18213C51.81 9.29326 52.0491 9.45563 52.2496 9.65984C52.4501 9.86405 52.6081 10.106 52.7144 10.3717C52.8206 10.6375 52.8731 10.9216 52.8688 11.2078C52.8644 11.4939 52.8033 11.7764 52.6889 12.0387C52.5746 12.3011 52.4093 12.5381 52.2027 12.7361L51.109 13.8084C50.9144 14.009 50.6808 14.1677 50.4227 14.2749C50.1646 14.382 49.8873 14.4353 49.6078 14.4315C49.0456 14.4352 48.5043 14.2188 48.0995 13.8287C47.89 13.6285 47.7229 13.3883 47.6081 13.1223C47.4933 12.8563 47.4331 12.5699 47.4311 12.2802C47.4291 11.9905 47.4853 11.7033 47.5965 11.4357C47.7076 11.1682 47.8714 10.9257 48.0781 10.7227ZM52.0097 32.5576C52.0128 32.8476 51.9571 33.1352 51.8459 33.403C51.7347 33.6709 51.5704 33.9134 51.3628 34.1159L50.2691 35.1882C50.1057 35.3478 49.9184 35.4809 49.7139 35.5825C49.3165 35.7824 48.8668 35.8538 48.4271 35.7868C47.9873 35.7197 47.5793 35.5176 47.2596 35.2084C47.0501 35.0083 46.883 34.7681 46.7682 34.5021C46.6533 34.2361 46.5931 33.9497 46.5911 33.66C46.5891 33.3703 46.6454 33.0831 46.7565 32.8155C46.8677 32.548 47.0314 32.3055 47.2381 32.1024L48.3318 31.0302C48.6348 30.7325 49.0188 30.5306 49.4358 30.4498C49.8528 30.3689 50.2844 30.4127 50.6767 30.5756C51.069 30.7385 51.4046 31.0134 51.6417 31.3658C51.8787 31.7183 52.0067 32.1328 52.0097 32.5576ZM52.0097 25.4711C52.0127 25.7609 51.9569 26.0483 51.8457 26.3159C51.7345 26.5835 51.5702 26.8259 51.3628 27.0282L50.2691 28.1005C49.9265 28.4509 49.4703 28.6676 48.9823 28.7117C48.6691 28.7446 48.3524 28.7082 48.0547 28.6053C47.7571 28.5024 47.4856 28.3353 47.2596 28.116C47.0501 27.9158 46.883 27.6756 46.7682 27.4096C46.6533 27.1436 46.5931 26.8573 46.5911 26.5675C46.5891 26.2778 46.6454 25.9907 46.7565 25.7231C46.8677 25.4555 47.0314 25.213 47.2381 25.01L48.3318 23.9377C48.6349 23.64 49.019 23.4381 49.4361 23.3573C49.8532 23.2765 50.2849 23.3203 50.6772 23.4834C51.0696 23.6465 51.4052 23.9215 51.6422 24.2741C51.8791 24.6268 52.007 25.0414 52.0097 25.4663V25.4711ZM51.6284 19.8965L50.5335 20.9688C50.1752 21.336 49.6924 21.5557 49.1801 21.5847C48.8777 21.6076 48.5738 21.5664 48.2885 21.4637C48.0031 21.361 47.7426 21.1993 47.5241 20.989C47.3146 20.7888 47.1475 20.5486 47.0326 20.2826C46.9178 20.0166 46.8576 19.7303 46.8556 19.4405C46.8536 19.1508 46.9099 18.8637 47.021 18.5961C47.1321 18.3285 47.2959 18.086 47.5026 17.883L48.5975 16.8107C48.7928 16.607 49.0284 16.4464 49.2894 16.3391C49.5504 16.2318 49.8309 16.1802 50.113 16.1876C50.5426 16.188 50.9624 16.3162 51.3189 16.5559C51.6754 16.7955 51.9526 17.1359 52.1151 17.5336C52.2776 17.9313 52.3181 18.3683 52.2314 18.7891C52.1448 19.2099 51.9349 19.5954 51.6284 19.8965ZM43.1575 27.8038C43.1572 27.3458 42.9751 26.9065 42.6512 26.5826C42.3273 26.2587 41.8881 26.0766 41.43 26.0763H33.4941C33.0361 26.0769 32.597 26.2591 32.2732 26.583C31.9494 26.9068 31.7671 27.3459 31.7665 27.8038V29.7101C31.7671 30.1681 31.9494 30.6071 32.2732 30.931C32.597 31.2548 33.0361 31.437 33.4941 31.4376H41.43C41.888 31.437 42.327 31.2548 42.6509 30.931C42.9747 30.6071 43.1569 30.1681 43.1575 29.7101V27.8038ZM41.3704 29.6505H33.5536V27.8634H41.3704V29.6505ZM41.43 33.2247H33.4941C33.0361 33.2254 32.597 33.4076 32.2732 33.7314C31.9494 34.0553 31.7671 34.4943 31.7665 34.9523V36.8585C31.7671 37.3165 31.9494 37.7556 32.2732 38.0794C32.597 38.4032 33.0361 38.5854 33.4941 38.5861H41.43C41.888 38.5854 42.327 38.4032 42.6509 38.0794C42.9747 37.7556 43.1569 37.3165 43.1575 36.8585V34.9523C43.1572 34.4942 42.9751 34.055 42.6512 33.7311C42.3273 33.4072 41.8881 33.2251 41.43 33.2247ZM41.3704 36.799H33.5536V35.0119H41.3704V36.799Z" fill="black"/>
</g>
<defs>
<clipPath id="clip0_190_2082">
<rect width="61" height="61" fill="white"/>
</clipPath>
</defs>
</svg>
