<svg width="60" height="60" viewBox="0 0 60 60" fill="none" xmlns="http://www.w3.org/2000/svg">
<g clip-path="url(#clip0_190_2200)">
<path d="M8.85889 16.4923L8.86018 26.9784C8.86064 30.3929 11.6287 33.1606 15.0432 33.1606H27.6987C31.1136 33.1606 33.8819 30.3921 33.8817 26.9771L33.8809 16.4905C33.8805 9.58108 28.2792 3.98022 21.3699 3.98022C14.4599 3.98022 8.8583 9.58225 8.85889 16.4923Z" fill="#FCDD2E"/>
<path d="M28.9603 35.4935C27.4964 35.0916 26.4812 33.7614 26.4799 32.2434L26.4738 25.1263L16.2806 25.1351L16.2867 32.2522C16.288 33.7702 15.276 35.1019 13.8128 35.5063C12.3325 35.9154 10.3645 36.4593 8.41113 36.9992C8.41113 41.5329 15.8395 46.3696 21.3659 46.3696C26.9045 46.3696 34.338 41.0556 34.338 36.9698L28.9603 35.4935Z" fill="#FFECE3"/>
<path d="M21.5863 34.6436C21.5876 36.1616 22.6028 37.4918 24.0667 37.8937C25.7681 38.3608 30.3167 39.6094 32.0628 40.0887C32.3581 40.1698 32.6438 40.2707 32.9197 40.3881C33.8055 39.2443 34.3381 38.063 34.3381 36.9697L28.9604 35.4933C27.4965 35.0915 26.4813 33.7613 26.48 32.2433L26.4739 25.1262L21.5815 25.1304L21.5863 34.6436Z" fill="#FFDDCE"/>
<path d="M25.3027 15.2119H33.8824V22.1243H25.3027V15.2119Z" fill="#7C8B96"/>
<path d="M8.85889 15.2119H16.6721V22.1243H8.85889V15.2119Z" fill="#7C8B96"/>
<path d="M12.2988 15.2128L12.3334 21.416C12.3386 27.426 18.6504 30.7769 21.3819 30.833C24.1132 30.7721 30.4193 27.4104 30.4141 21.4004L30.4332 9.79102L17.1647 9.8025L17.1652 10.3383C17.1674 13.0281 14.9887 15.2105 12.2988 15.2128Z" fill="#FFECE3"/>
<path d="M25.7393 9.795L25.7202 21.4004C25.7242 26.0232 21.9944 29.0788 19.0293 30.2709C19.9237 30.6298 20.7489 30.82 21.3817 30.833C24.113 30.7721 30.4191 27.4104 30.4139 21.4004L30.433 9.79102L25.7393 9.795Z" fill="#FFDDCE"/>
<path d="M21.37 3.98022C19.7447 3.98022 18.192 4.2903 16.7675 4.85421C16.4708 5.32683 16.2987 5.88569 16.2993 6.48487C16.3033 11.0954 20.044 14.8298 24.6547 15.2196L33.8165 15.2124C33.176 8.90339 27.8479 3.98022 21.37 3.98022Z" fill="#FBD307"/>
<path d="M8.85957 22.1243L8.85887 16.4923C8.85852 13.0311 10.2541 9.78447 12.7796 7.39513C15.0145 5.2806 17.971 4.0622 21.0467 3.98427C28.092 3.80568 33.8805 9.48482 33.881 16.4904L33.8814 22.1243C35.5434 22.1243 36.8906 20.777 36.8904 19.1151L36.8901 16.4278C36.8895 7.87056 29.9272 0.908569 21.3697 0.908569C17.2239 0.908569 13.3264 2.52318 10.3948 5.45486C7.4634 8.38666 5.84926 12.2844 5.84961 16.4303L5.84996 19.1151C5.8502 20.7771 7.1975 22.1243 8.85957 22.1243Z" fill="#8C9BA6"/>
<path d="M41.9078 44.1768C41.9052 41.1462 39.8786 38.4907 36.9561 37.6884L34.3377 36.9696C31.7408 41.436 26.9041 44.4391 21.3655 44.4391C15.8391 44.4391 11.0118 41.4491 8.41078 36.999C7.52836 37.2429 6.64887 37.4859 5.81883 37.7154C2.89781 38.5227 0.876331 41.1816 0.878909 44.2121L0.889807 56.9898C0.890862 58.1515 1.8334 59.0925 2.99508 59.0914L39.817 59.0597C40.9787 59.0586 41.9197 58.1161 41.9187 56.9544L41.9078 44.1768Z" fill="#80B4FB"/>
<path d="M41.9076 44.1768C41.905 41.1462 39.8783 38.4907 36.9559 37.6884L34.3375 36.9696C33.679 38.1021 32.876 39.1399 31.9546 40.0591C31.9908 40.0691 32.0279 40.0793 32.062 40.0887C34.9845 40.8909 37.0111 43.5464 37.0137 46.577L37.0245 59.062L39.8168 59.0597C40.9785 59.0586 41.9195 58.1161 41.9185 56.9544L41.9076 44.1768Z" fill="#61A2F9"/>
<path d="M48.6273 58.0135H22.1895V42.6818C22.1895 41.7836 22.9175 41.0557 23.8155 41.0557H47.0011C47.8992 41.0557 48.6272 41.7838 48.6272 42.6818V58.0135H48.6273Z" fill="#F4F8F8"/>
<path d="M47.0012 41.0557H42.25C43.1481 41.0557 43.8761 41.7838 43.8761 42.6818V58.0135H48.6273V42.6818C48.6275 41.7836 47.8994 41.0557 47.0012 41.0557Z" fill="#E5ECF1"/>
<path d="M49.2546 59.0916H21.5621C20.6433 59.0916 19.8984 58.3467 19.8984 57.4279C19.8984 56.509 20.6433 55.7642 21.5621 55.7642H49.2546C50.1735 55.7642 50.9183 56.509 50.9183 57.4279C50.9183 58.3466 50.1735 59.0916 49.2546 59.0916Z" fill="#E5ECF1"/>
<path d="M55.0159 0.908569H43.5056C41.2384 0.908569 39.4004 2.74654 39.4004 5.01376V9.94548C39.4004 11.888 40.7496 13.5154 42.562 13.9416C43.1169 14.0721 43.5023 14.5776 43.5023 15.1477V18.7541C43.5023 19.1161 43.9654 19.2667 44.1784 18.974L47.3862 14.563C47.6204 14.2411 47.9945 14.0506 48.3925 14.0506H55.0157C57.283 14.0506 59.1209 12.2126 59.1209 9.94537V5.01376C59.1211 2.74654 57.2831 0.908569 55.0159 0.908569Z" fill="#A1E42C"/>
<path d="M42.9858 14.1354C43.3033 14.3632 43.5026 14.7384 43.5026 15.1476V18.7541C43.5026 19.1161 43.9658 19.2667 44.1787 18.9739L47.3866 14.563C47.6207 14.2411 47.9948 14.0505 48.3929 14.0505H43.0475L42.9858 14.1354Z" fill="#95D528"/>
<path d="M55.0161 0.908569H52.3237C53.4757 0.908569 54.4096 1.84244 54.4096 2.99439V11.9649C54.4096 13.1168 53.4757 14.0507 52.3237 14.0507H55.0161C57.2833 14.0507 59.1213 12.2127 59.1213 9.94548V5.01376C59.1213 2.74654 57.2833 0.908569 55.0161 0.908569Z" fill="#95D528"/>
<path d="M17.8024 28.0202H14.2875C13.378 28.0202 12.6406 27.2829 12.6406 26.3734C12.6406 25.4639 13.378 24.7266 14.2875 24.7266H17.8024C18.7119 24.7266 19.4492 25.4639 19.4492 26.3734C19.4491 27.2829 18.7119 28.0202 17.8024 28.0202Z" fill="#FC5692"/>
<path d="M54.2842 4.65613H44.2378C43.7523 4.65613 43.3589 5.04953 43.3589 5.53503C43.3589 6.02054 43.7523 6.41394 44.2378 6.41394H54.2842C54.7697 6.41394 55.1631 6.02054 55.1631 5.53503C55.1631 5.04953 54.7696 4.65613 54.2842 4.65613Z" fill="black"/>
<path d="M54.2842 8.52405H44.2378C43.7523 8.52405 43.3589 8.91745 43.3589 9.40295C43.3589 9.88846 43.7523 10.2819 44.2378 10.2819H54.2842C54.7697 10.2819 55.1631 9.88846 55.1631 9.40295C55.1631 8.91745 54.7696 8.52405 54.2842 8.52405Z" fill="black"/>
<path d="M55.0162 0.0296631H49.2612C48.7756 0.0296631 48.3822 0.423062 48.3822 0.908569C48.3822 1.39408 48.7756 1.78748 49.2612 1.78748H55.0162C56.7953 1.78748 58.2424 3.23486 58.2424 5.01376V9.94548C58.2424 11.7245 56.7951 13.1717 55.0162 13.1717H48.3929C47.7159 13.1717 47.074 13.4986 46.676 14.0461L44.3817 17.2006V15.1477C44.3817 14.158 43.7163 13.3102 42.7636 13.086C41.3012 12.7419 40.2798 11.4506 40.2798 9.94548V5.01376C40.2798 3.23474 41.7271 1.78748 43.506 1.78748H45.2027C45.6882 1.78748 46.0816 1.39408 46.0816 0.908569C46.0816 0.423062 45.6882 0.0296631 45.2027 0.0296631H43.506C40.7578 0.0296631 38.522 2.26548 38.522 5.01376V9.94548C38.522 12.2704 40.1007 14.2654 42.3612 14.797C42.5134 14.8329 42.6239 14.9802 42.6239 15.1476V18.7539C42.6239 19.2983 42.9717 19.7769 43.4894 19.9453C44.0081 20.1137 44.5704 19.9301 44.8896 19.4906L48.0977 15.0797C48.1662 14.9855 48.2765 14.9294 48.393 14.9294H55.0163C57.7645 14.9294 60.0003 12.6935 60.0003 9.94537V5.01376C60.0002 2.26548 57.7644 0.0296631 55.0162 0.0296631Z" fill="black"/>
<path d="M49.5061 54.8976V42.6817C49.5061 41.3004 48.3824 40.1767 47.0011 40.1767H41.6435C40.6358 38.5524 39.0398 37.3491 37.1888 36.841C35.4455 36.3624 30.8951 35.1133 29.1927 34.6459C28.7767 34.5318 28.4099 34.3139 28.1149 34.0262C31.8181 33.8121 34.7605 30.7467 34.7603 26.977L34.7599 22.903C35.4626 22.7414 36.1078 22.3869 36.6302 21.8645C37.3647 21.13 37.7691 20.1536 37.769 19.1151L37.7687 16.4279C37.7684 7.38576 30.4117 0.0296631 21.3696 0.0296631C12.3056 0.0296631 4.96969 7.36548 4.97063 16.4304C4.9711 26.6799 4.97098 24.5707 4.97098 24.8658C4.97098 26.1479 6.01418 27.1913 7.29645 27.1913H7.98668C8.0966 30.8598 11.0162 33.8344 14.6631 34.0289C14.3674 34.3213 13.9982 34.5431 13.5784 34.659C11.9484 35.1095 6.97078 36.4853 5.58481 36.8684C2.2936 37.7779 -0.00292689 40.7981 2.79983e-06 44.2129L0.0109012 56.9905C0.0123075 58.6341 1.35 59.9705 2.99356 59.9704H2.9959C34.9898 59.9701 -34.951 59.9617 49.2546 59.9704C50.6566 59.9704 51.7972 58.8298 51.7972 57.4277C51.7972 56.1106 50.7905 55.0244 49.5061 54.8976ZM39.4391 40.1767H33.0571C33.6805 39.4986 34.2454 38.7703 34.7432 37.9923L36.7235 38.5361C37.768 38.8227 38.7066 39.3978 39.4391 40.1767ZM9.73875 25.4335L9.7384 23.0032H11.5927C11.7121 23.6804 11.9089 24.3416 12.1812 24.9826C12.0878 25.1236 12.0089 25.2747 11.9449 25.4336H9.73875V25.4335ZM31.3014 16.0933L32.9943 16.092C33.0087 16.5185 32.9988 16.3286 33.0022 21.2454H31.2929L31.3014 16.0933ZM24.692 14.3406C20.479 13.9663 17.1814 10.522 17.1779 6.484C17.1777 6.16185 17.2491 5.84626 17.3842 5.55728C18.6445 5.09873 19.9887 4.85908 21.3697 4.85908C27.0468 4.85908 31.7863 8.9474 32.8004 14.3343C30.7828 14.3359 25.4213 14.34 24.692 14.3406ZM15.4202 6.49056C15.4221 7.8483 15.7208 9.17181 16.2846 10.3875C16.2602 12.556 14.4986 14.3149 12.3279 14.333C12.3278 14.333 12.3278 14.333 12.3277 14.333H9.93703C10.5708 10.9364 12.667 8.13505 15.4202 6.49056ZM9.73817 21.2454L9.73758 16.4922C9.73758 16.3579 9.74063 16.2242 9.74508 16.0907H11.4243L11.4531 21.2453H9.73817V21.2454ZM14.2873 25.6056H17.8022C18.2256 25.6056 18.5701 25.95 18.5701 26.3734C18.5701 26.7968 18.2257 27.1413 17.8022 27.1413H14.2873C13.8639 27.1413 13.5195 26.7969 13.5195 26.3734C13.5193 25.95 13.8639 25.6056 14.2873 25.6056ZM20.3278 26.3734C20.3278 24.9808 19.1948 23.8478 17.8021 23.8478H14.2872C14.0686 23.8478 13.8575 23.8786 13.6552 23.931C13.3615 23.1239 13.2127 22.2803 13.2118 21.411L13.1817 16.0231C15.2029 15.7085 16.8775 14.3369 17.6242 12.494C17.7818 12.6829 17.945 12.8681 18.1182 13.0467C19.8233 14.8044 22.1182 15.887 24.5802 16.0952C24.6048 16.0974 24.6295 16.0983 24.6543 16.0983H24.6548L29.5434 16.0945L29.5347 21.401C29.5371 24.2813 27.9098 26.4952 26.0259 27.9484C26.0127 27.9564 23.5443 29.8915 21.3807 29.9536C20.589 29.9318 19.3827 29.5576 18.1473 28.8724C19.377 28.7035 20.3278 27.6486 20.3278 26.3734ZM27.6984 32.2817H27.3602C27.36 32.2685 27.3586 32.2556 27.3586 32.2425L27.3559 29.1272C29.3088 27.5406 30.7124 25.4486 31.1508 23.0032H33.0022L33.0026 26.9772C33.0028 29.9087 30.6305 32.2817 27.6984 32.2817ZM21.3696 1.78748C29.4425 1.78748 36.0106 8.35513 36.011 16.4281L36.0113 19.1153C36.0113 19.6842 35.7896 20.2192 35.3875 20.6216C35.2032 20.8058 34.9903 20.9501 34.76 21.0546L34.7597 16.4905C34.7597 16.0314 34.7364 15.5775 34.691 15.1302C34.6904 15.1245 34.6898 15.1188 34.6893 15.1131C33.9972 8.37494 28.2877 3.10138 21.3698 3.10138C13.9692 3.10138 7.9793 9.09072 7.98 16.4925L7.98059 21.0533C7.24371 20.7177 6.72903 19.9761 6.72891 19.1149L6.72856 16.4302C6.7275 8.3379 13.2763 1.78748 21.3696 1.78748ZM6.72867 24.8658V22.365C7.10567 22.613 7.52801 22.7967 7.98059 22.9018L7.98094 25.4336H7.29633C6.98332 25.4335 6.72867 25.1788 6.72867 24.8658ZM15.0431 32.2817C12.1903 32.2817 9.85711 30.0171 9.74438 27.1914H11.9002C12.2411 28.1833 13.1811 28.8992 14.2873 28.8992H15.1166C15.2113 28.9804 15.3073 29.0606 15.4049 29.1393L15.4076 32.2529C15.4076 32.2626 15.4065 32.272 15.4064 32.2817H15.0431ZM14.0466 36.3535C15.8845 35.8456 17.167 34.1586 17.1654 32.2513L17.1638 30.3366C18.6145 31.166 20.1468 31.6866 21.3635 31.7115C21.3696 31.7117 21.3756 31.7118 21.3816 31.7118C21.3881 31.7118 21.3946 31.7117 21.4011 31.7115C22.4494 31.6882 24.0035 31.2458 25.5991 30.3325L25.6008 32.244C25.6024 34.1511 26.8881 35.836 28.7275 36.3409L32.9551 37.5015C32.2658 38.4917 31.4523 39.3869 30.5276 40.1767H23.8157C22.4344 40.1767 21.3107 41.3004 21.3107 42.6817V43.5593C16.7209 43.5411 12.4118 41.2597 9.79571 37.5283L14.0466 36.3535ZM2.99449 58.2126C2.99414 58.2126 2.99391 58.2126 2.99356 58.2126C2.31879 58.2126 1.76942 57.6638 1.76883 56.989L1.75782 44.2113C1.75547 41.5851 3.52172 39.2623 6.05297 38.5627L8.00778 38.0224C9.35766 40.1197 11.1919 41.8824 13.3465 43.1461C15.7533 44.5579 18.5061 45.3076 21.3106 45.3172V47.4824C21.3106 47.9679 21.7041 48.3613 22.1895 48.3613C22.6748 48.3613 23.0684 47.9679 23.0684 47.4824V42.6818C23.0684 42.2698 23.4035 41.9346 23.8155 41.9346H47.0011C47.4131 41.9346 47.7483 42.2698 47.7483 42.6818V54.8853H23.0685V51.5868C23.0685 51.1013 22.675 50.7079 22.1896 50.7079C21.7042 50.7079 21.3107 51.1013 21.3107 51.5868V54.8978C20.0263 55.0246 19.0195 56.1108 19.0195 57.4279C19.0195 57.6965 19.0617 57.9554 19.1393 58.1987L8.70938 58.2077V53.2945C8.70938 52.809 8.31586 52.4156 7.83047 52.4156C7.34508 52.4156 6.95157 52.809 6.95157 53.2945V58.2092L2.99449 58.2126ZM49.2546 58.2126H21.5622C21.5353 58.2126 21.5088 58.2112 21.4827 58.2086C21.4665 58.206 21.4506 58.2028 21.4341 58.2012C21.0621 58.1398 20.7772 57.8168 20.7772 57.4277C20.7772 56.995 21.1293 56.6429 21.562 56.6429H49.2545C49.6873 56.6429 50.0393 56.995 50.0393 57.4277C50.0393 57.8605 49.6874 58.2126 49.2546 58.2126Z" fill="black"/>
</g>
<defs>
<clipPath id="clip0_190_2200">
<rect width="60" height="60" fill="white"/>
</clipPath>
</defs>
</svg>
