<svg width="60" height="60" viewBox="0 0 60 60" fill="none" xmlns="http://www.w3.org/2000/svg">
<g clip-path="url(#clip0_190_2122)">
<path d="M45.484 47.4193V55.1612C45.484 57.2987 43.7505 59.0322 41.613 59.0322H18.3873C16.2498 59.0322 14.5164 57.2987 14.5164 55.1612V47.4193H45.484Z" fill="#969FAA"/>
<path d="M33.8711 52.258V54.1935C33.8711 54.7282 33.438 55.1612 32.9033 55.1612H27.0969C26.5622 55.1612 26.1292 54.7282 26.1292 54.1935V52.258C26.1292 51.7233 26.5622 51.2903 27.0969 51.2903H32.9033C33.438 51.2903 33.8711 51.7233 33.8711 52.258Z" fill="#E6E9ED"/>
<path d="M45.484 40.6452V47.4193H14.5164V35.8065H18.3873C19.4567 35.8065 20.3228 34.9403 20.3228 33.871V26.1291C20.3228 25.0597 19.4567 24.1936 18.3873 24.1936H17.0966L17.2768 23.9964L22.1192 18.715C22.7857 17.9868 23.3046 17.1473 23.6566 16.2424C24.0087 15.3376 24.1937 14.3686 24.1937 13.3816C24.1937 9.73318 21.2349 6.77432 17.5865 6.77432H17.2526C16.3768 6.77432 15.518 6.94852 14.7244 7.27755C14.6543 7.30658 14.5853 7.33682 14.5164 7.36827V4.83885C14.5164 2.70136 16.2498 0.967896 18.3873 0.967896H22.2583C23.9917 0.967896 25.5316 2.07717 26.0796 3.72232L26.1788 4.0199C26.7268 5.66505 28.2667 6.77432 30.0002 6.77432C30.8663 6.77432 31.6852 6.49731 32.3554 6.01465C33.0256 5.53078 33.5469 4.84248 33.8215 4.0199L33.9207 3.72232C34.4687 2.07717 36.0086 0.967896 37.7421 0.967896H41.613C43.7505 0.967896 45.484 2.70136 45.484 4.83885V12.207C44.6324 11.8187 43.6997 11.613 42.7465 11.613H42.4138C40.5896 11.613 38.9372 12.3521 37.7421 13.5485C36.5457 14.7436 35.8066 16.3961 35.8066 18.2202C35.8066 20.1944 36.5469 22.0972 37.8812 23.5537L42.7223 28.8351L42.9037 29.0323H41.613C40.5437 29.0323 39.6775 29.8984 39.6775 30.9678V38.7097C39.6775 39.779 40.5437 40.6452 41.613 40.6452H45.484Z" fill="#69D6F4"/>
<path d="M22.2583 0.967896H37.7421C36.0087 0.967896 34.4687 2.07717 33.9208 3.72232L33.8216 4.0199C33.547 4.84248 33.0256 5.53078 32.3554 6.01465C31.6853 6.49731 30.8663 6.77432 30.0002 6.77432C28.2667 6.77432 26.7268 5.66505 26.1788 4.0199L26.0797 3.72232C25.5317 2.07717 23.9918 0.967896 22.2583 0.967896Z" fill="#4FC1E9"/>
<path d="M35.8066 39.6774H39.6776V43.5483H35.8066V39.6774Z" fill="#5CD6B3"/>
<path d="M28.0647 39.6774H31.9357V43.5483H28.0647V39.6774Z" fill="#FCD770"/>
<path d="M20.3228 39.6774H24.1937V43.5483H20.3228V39.6774Z" fill="#FF826E"/>
<path d="M47.4194 32.9033C48.0363 32.9033 48.6242 32.6444 49.0404 32.1896L51.9351 29.0323H57.0968C58.1661 29.0323 59.0322 29.8985 59.0322 30.9678V38.7097C59.0322 39.7791 58.1661 40.6452 57.0968 40.6452H53.2258L51.5891 43.8738C51.3895 44.2682 50.9855 44.5162 50.544 44.5162C49.9004 44.5162 49.3779 43.996 49.373 43.3525L49.3549 40.6452H45.4839H41.613C40.5436 40.6452 39.6775 39.7791 39.6775 38.7097V30.9678C39.6775 29.8985 40.5436 29.0323 41.613 29.0323H42.9037L45.7972 32.1896C46.0065 32.417 46.2569 32.596 46.5339 32.717C46.8097 32.838 47.1109 32.9033 47.4194 32.9033Z" fill="#E6E9ED"/>
<path d="M12.5809 28.0646C13.1966 28.0646 13.7857 27.8057 14.2018 27.3508L17.0966 24.1936H18.3873C19.4567 24.1936 20.3228 25.0597 20.3228 26.1291V33.871C20.3228 34.9403 19.4567 35.8065 18.3873 35.8065H14.5163H10.6454L10.6273 38.5137C10.6248 38.8355 10.493 39.127 10.2813 39.3375C10.0696 39.548 9.77806 39.6774 9.45629 39.6774C9.01476 39.6774 8.61073 39.4294 8.41113 39.0351L6.77445 35.8065H2.90349C1.83414 35.8065 0.968018 34.9403 0.968018 33.871V26.1291C0.968018 25.0597 1.83414 24.1936 2.90349 24.1936H8.06396L10.9587 27.3508C11.168 27.5783 11.4184 27.7573 11.6954 27.8783C11.9712 27.9992 12.2724 28.0646 12.5809 28.0646Z" fill="#E6E9ED"/>
<path d="M59.0324 18.2203C59.0324 19.2074 58.8473 20.1763 58.4953 21.0811C58.1432 21.986 57.6243 22.8255 56.9578 23.5537L52.1167 28.8339C51.5929 26.7255 49.6901 25.1614 47.4195 25.1614C49.557 25.1614 51.2905 23.4279 51.2905 21.2904C51.2905 19.1529 49.557 17.4195 47.4195 17.4195C45.282 17.4195 43.5485 19.1529 43.5485 21.2904C43.5485 23.4279 45.282 25.1614 47.4195 25.1614C46.2848 25.1614 45.2397 25.5521 44.4147 26.2065C43.5897 26.8622 42.9824 27.7803 42.7223 28.8351L37.8812 23.5537C36.547 22.0973 35.8066 20.1945 35.8066 18.2203C35.8066 16.3961 36.5458 14.7437 37.7421 13.5485C38.9373 12.3521 40.5897 11.613 42.4139 11.613H42.7465C43.6998 11.613 44.6324 11.8187 45.484 12.207C46.1977 12.5312 46.8546 12.9836 47.4195 13.5485C48.0388 12.9292 48.7695 12.4453 49.563 12.1163C50.3578 11.7872 51.2155 11.613 52.0913 11.613H52.4251C56.0747 11.613 59.0324 14.5719 59.0324 18.2203Z" fill="#FF826E"/>
<path d="M24.1937 13.3815C24.1937 14.3686 24.0087 15.3376 23.6566 16.2424C23.3046 17.1472 22.7857 17.9867 22.1191 18.715L17.2768 23.9964C16.7555 21.8867 14.8514 20.3226 12.5809 20.3226C14.7184 20.3226 16.4518 18.5892 16.4518 16.4517C16.4518 14.3142 14.7184 12.5807 12.5809 12.5807C10.4422 12.5807 8.70992 14.3142 8.70992 16.4517C8.70992 18.5892 10.4422 20.3226 12.5809 20.3226C11.4462 20.3226 10.401 20.7133 9.57605 21.3678C8.75105 22.0234 8.1438 22.9416 7.88372 23.9964L3.04261 18.715C1.70834 17.2585 0.968018 15.3557 0.968018 13.3815C0.968018 11.5573 1.70713 9.90492 2.90349 8.70977C4.09865 7.5134 5.75106 6.77429 7.57525 6.77429H7.90791C9.66073 6.77429 11.341 7.47106 12.5809 8.70977C13.1458 8.14485 13.8026 7.69243 14.5164 7.36824C14.5853 7.33679 14.6543 7.30655 14.7244 7.27752C15.518 6.94848 16.3768 6.77429 17.2526 6.77429H17.5865C21.2349 6.77429 24.1937 9.73315 24.1937 13.3815Z" fill="#FF826E"/>
<path d="M52.1165 28.8339V28.8352L51.935 29.0323L49.0403 32.1896C48.6242 32.6444 48.0363 32.9033 47.4193 32.9033C47.1109 32.9033 46.8097 32.838 46.5338 32.717C46.2568 32.596 46.0064 32.417 45.7972 32.1896L42.9036 29.0323L42.7222 28.8352C42.9822 27.7803 43.5895 26.8622 44.4145 26.2065C45.2395 25.5521 46.2847 25.1614 47.4193 25.1614C49.6899 25.1614 51.5927 26.7255 52.1165 28.8339Z" fill="#5CD6B3"/>
<path d="M17.2769 23.9964L17.0967 24.1936L14.2019 27.3508C13.7858 27.8057 13.1967 28.0645 12.5809 28.0645C12.2725 28.0645 11.9713 27.9992 11.6955 27.8782C11.4185 27.7573 11.1681 27.5782 10.9588 27.3508L8.06403 24.1936L7.88379 23.9964C8.14387 22.9416 8.75112 22.0234 9.57612 21.3678C10.4011 20.7134 11.4463 20.3226 12.5809 20.3226C14.8515 20.3226 16.7555 21.8867 17.2769 23.9964Z" fill="#FCD770"/>
<path d="M47.4195 25.1613C49.5574 25.1613 51.2905 23.4283 51.2905 21.2904C51.2905 19.1525 49.5574 17.4194 47.4195 17.4194C45.2817 17.4194 43.5486 19.1525 43.5486 21.2904C43.5486 23.4283 45.2817 25.1613 47.4195 25.1613Z" fill="#F0D0B4"/>
<path d="M12.5809 20.3227C14.7188 20.3227 16.4519 18.5896 16.4519 16.4518C16.4519 14.3139 14.7188 12.5808 12.5809 12.5808C10.443 12.5808 8.70996 14.3139 8.70996 16.4518C8.70996 18.5896 10.443 20.3227 12.5809 20.3227Z" fill="#F0D0B4"/>
<path d="M32.9033 50.3225H27.0969C26.0297 50.3225 25.1614 51.1908 25.1614 52.258V54.1935C25.1614 55.2606 26.0297 56.1289 27.0969 56.1289H32.9033C33.9705 56.1289 34.8388 55.2606 34.8388 54.1935V52.258C34.8388 51.1908 33.9706 50.3225 32.9033 50.3225ZM32.9033 54.1935H27.0969V52.258H32.9033L32.9045 54.1935C32.9045 54.1935 32.9041 54.1935 32.9033 54.1935Z" fill="black"/>
<path d="M30.0002 4.83892C30.5347 4.83892 30.9679 4.40565 30.9679 3.87118C30.9679 3.33671 30.5347 2.90344 30.0002 2.90344C29.4657 2.90344 29.0325 3.33671 29.0325 3.87118C29.0325 4.40565 29.4657 4.83892 30.0002 4.83892Z" fill="black"/>
<path d="M3.87109 30.9678H17.4194V32.9032H3.87109V30.9678Z" fill="black"/>
<path d="M57.0968 28.0649H54.1354L57.6713 24.2076C59.1729 22.5693 60 20.4431 60 18.2208C60 14.0439 56.6018 10.6457 52.4249 10.6457H52.0914C50.3757 10.6457 48.7471 11.2122 47.4193 12.2568C47.1121 12.0152 46.7883 11.8004 46.4517 11.611V4.83918C46.4517 2.17112 44.281 0.000488281 41.613 0.000488281H18.3873C15.7192 0.000488281 13.5486 2.17112 13.5486 4.83918V6.77199C13.2117 6.96143 12.8877 7.17639 12.5805 7.41808C11.2525 6.37353 9.62391 5.80692 7.90811 5.80692H7.57497C3.39809 5.80692 0 9.20525 0 13.3821C0 15.6045 0.827053 17.7307 2.32874 19.3689L5.86461 23.2262H2.90346C1.3027 23.2262 0.000241935 24.5287 0.000241935 26.1294V33.8713C0.000241935 35.4721 1.3027 36.7745 2.90346 36.7745H6.17998L7.54787 39.4736C7.91428 40.1965 8.64529 40.6455 9.45577 40.6455C10.6271 40.6455 11.5866 39.6925 11.5947 38.5211L11.6066 36.7745H13.5486V55.1616C13.5486 57.8296 15.7192 60.0002 18.3873 60.0002H41.613C44.281 60.0002 46.4517 57.8296 46.4517 55.1616V41.6132H48.3937L48.4055 43.3597C48.4135 44.5312 49.373 45.4842 50.5445 45.4842C51.3549 45.4842 52.086 45.0351 52.4524 44.3122L53.8204 41.6132H57.0969C58.6977 41.6132 60.0001 40.3108 60.0001 38.71V30.9681C60 29.3672 58.6977 28.0649 57.0968 28.0649ZM47.4194 31.9358C47.075 31.9358 46.7439 31.7902 46.5112 31.5363L43.8126 28.5924C44.3839 27.1204 45.8034 26.1294 47.4194 26.1294C49.0354 26.1294 50.455 27.1204 51.0263 28.5923L48.3276 31.5363C48.0949 31.7902 47.7639 31.9358 47.4194 31.9358ZM44.5162 21.2907C44.5162 19.69 45.8186 18.3875 47.4194 18.3875C49.0202 18.3875 50.3226 19.69 50.3226 21.2907C50.3226 22.8915 49.0202 24.1939 47.4194 24.1939C45.8186 24.1939 44.5162 22.8915 44.5162 21.2907ZM47.3756 14.8728L48.057 14.2766L48.104 14.2326C49.1691 13.1677 50.5852 12.5812 52.0914 12.5812H52.4249C55.5346 12.5812 58.0645 15.1111 58.0645 18.2208C58.0645 19.9577 57.4182 21.6194 56.2446 22.8997L52.4295 27.0615C51.945 26.2331 51.2658 25.5451 50.4603 25.0507C51.556 24.1628 52.2581 22.8075 52.2581 21.2907C52.2581 18.6227 50.0875 16.452 47.4194 16.452C44.7514 16.452 42.5807 18.6227 42.5807 21.2907C42.5807 22.8075 43.2828 24.163 44.3785 25.0507C43.5729 25.5451 42.8937 26.2332 42.4093 27.0616L38.5944 22.8998C37.4206 21.6195 36.7743 19.9578 36.7743 18.2208C36.7743 15.1111 39.3042 12.5812 42.4138 12.5812H42.7468C44.2533 12.5812 45.6697 13.1679 46.7348 14.2331L47.3756 14.8728ZM33.7929 1.93596C33.4547 2.37278 33.1847 2.87032 33.0026 3.41636L32.9033 3.71442C32.4861 4.96595 31.3195 5.80692 30.0001 5.80692C28.6809 5.80692 27.5142 4.96607 27.0969 3.71442L26.9975 3.41636C26.8154 2.87032 26.5454 2.3729 26.2072 1.93596H33.7929ZM1.93548 13.382C1.93548 10.2724 4.46538 7.74239 7.57497 7.74239H7.90799C9.41452 7.74239 10.8309 8.32908 11.896 9.39432L12.5367 10.0341L13.2181 9.43787L13.265 9.39396C14.3301 8.32896 15.7463 7.74251 17.2525 7.74251H17.586C20.6957 7.74251 23.2256 10.2724 23.2256 13.3821C23.2256 15.119 22.5793 16.7807 21.4056 18.061L17.5906 22.2228C17.1061 21.3944 16.4269 20.7065 15.6213 20.2121C16.7172 19.3242 17.4193 17.9688 17.4193 16.452C17.4193 13.784 15.2486 11.6133 12.5806 11.6133C9.91254 11.6133 7.7419 13.784 7.7419 16.452C7.7419 17.9688 8.444 19.3243 9.53972 20.2121C8.73408 20.7065 8.05485 21.3945 7.57049 22.2229L3.75555 18.0611C2.5818 16.7807 1.93548 15.119 1.93548 13.382ZM12.5806 27.0972C12.2362 27.0972 11.9051 26.9515 11.6724 26.6976L8.97383 23.7537C9.54504 22.2817 10.9646 21.2907 12.5806 21.2907C14.1966 21.2907 15.6161 22.2817 16.1875 23.7536L13.4888 26.6976C13.256 26.9515 12.925 27.0972 12.5806 27.0972ZM9.67738 16.452C9.67738 14.8513 10.9798 13.5488 12.5806 13.5488C14.1814 13.5488 15.4838 14.8513 15.4838 16.452C15.4838 18.0528 14.1814 19.3552 12.5806 19.3552C10.9798 19.3552 9.67738 18.0528 9.67738 16.452ZM9.68427 34.8391L9.65923 38.5079C9.65851 38.6193 9.56718 38.71 9.45577 38.71C9.37871 38.71 9.30916 38.6673 9.27432 38.5985L7.36896 34.8391H2.90346C2.36987 34.8391 1.93572 34.4049 1.93572 33.8713V26.1294C1.93572 25.5958 2.36987 25.1617 2.90346 25.1617H7.63872L9.41295 27.0972H7.74215V29.0326H17.4195V27.0972H15.748L17.5222 25.1617H18.3873C18.9208 25.1617 19.355 25.5958 19.355 26.1294V33.8713C19.355 34.4049 18.9208 34.8391 18.3873 34.8391H9.68427ZM41.613 58.0648H18.3873C16.7865 58.0648 15.484 56.7623 15.484 55.1616V48.3874H44.5162V55.1616C44.5162 56.7623 43.2139 58.0648 41.613 58.0648ZM44.5162 46.4519H15.484V36.7745H18.3873C19.988 36.7745 21.2905 35.4721 21.2905 33.8713V26.1294C21.2905 24.8077 20.4023 23.6902 19.1917 23.3405L22.8323 19.3689C24.3341 17.7307 25.1612 15.6044 25.1612 13.3821C25.1612 9.20525 21.763 5.80704 17.5861 5.80704H17.2526C16.6491 5.80704 16.0568 5.87865 15.484 6.01498V4.83918C15.484 3.2383 16.7865 1.93596 18.3873 1.93596H22.2583C23.5776 1.93596 24.7442 2.77681 25.1614 4.02846L25.2609 4.32664C25.942 6.36966 27.8465 7.74239 30.0001 7.74239C32.1538 7.74239 34.0584 6.36953 34.7394 4.32652L34.8387 4.02846C35.2559 2.77693 36.4225 1.93596 37.7419 1.93596H41.613C43.2137 1.93596 44.5162 3.2383 44.5162 4.83918V10.8537C43.9433 10.7172 43.3507 10.6456 42.7469 10.6456H42.4139C38.237 10.6456 34.8389 14.0439 34.8389 18.2208C34.8389 20.4432 35.666 22.5693 37.1677 24.2076L40.8083 28.1792C39.5979 28.529 38.7099 29.6465 38.7099 30.9681V38.71H34.8389V44.5164H40.6454V41.4466C40.9483 41.5541 41.2739 41.6131 41.6131 41.6131H44.5163L44.5162 46.4519ZM38.7098 40.6455V42.581H36.7743V40.6455H38.7098ZM58.0645 38.71C58.0645 39.2436 57.6304 39.6777 57.0968 39.6777H52.6314L50.726 43.4372C50.6912 43.506 50.6216 43.5487 50.5446 43.5487C50.4332 43.5487 50.3419 43.458 50.3411 43.3466L50.3161 39.6777H41.613C41.0794 39.6777 40.6452 39.2436 40.6452 38.71V30.9681C40.6452 30.4345 41.0794 30.0004 41.613 30.0004H42.4775L44.2518 31.9358H42.5807V33.8713H56.129V31.9358H50.5869L52.3612 30.0004H57.0968C57.6304 30.0004 58.0645 30.4345 58.0645 30.9681V38.71Z" fill="black"/>
<path d="M42.5808 35.8065H56.1291V37.742H42.5808V35.8065Z" fill="black"/>
<path d="M3.87109 27.0968H5.80657V29.0323H3.87109V27.0968Z" fill="black"/>
<path d="M19.355 44.5161H25.1614V38.7097H19.355V44.5161ZM21.2905 40.6452H23.2259V42.5807H21.2905V40.6452Z" fill="black"/>
<path d="M27.0969 44.5161H32.9034V38.7097H27.0969V44.5161ZM29.0324 40.6452H30.9679V42.5807H29.0324V40.6452Z" fill="black"/>
</g>
<defs>
<clipPath id="clip0_190_2122">
<rect width="60" height="60" fill="white"/>
</clipPath>
</defs>
</svg>
