<svg width="61" height="61" viewBox="0 0 61 61" fill="none" xmlns="http://www.w3.org/2000/svg">
<g clip-path="url(#clip0_915_2154)">
<path d="M44.6839 60.1063H16.3168C14.7406 60.1063 13.4629 58.8285 13.4629 57.2524V3.74766C13.4629 2.17153 14.7406 0.893799 16.3168 0.893799H44.6839C46.2601 0.893799 47.5378 2.17153 47.5378 3.74766V57.2523C47.5378 58.8285 46.2601 60.1063 44.6839 60.1063Z" fill="#DFF6FD"/>
<path d="M47.5381 3.74766V57.2523C47.5381 58.8289 46.2606 60.1064 44.684 60.1064H42.1016C43.6782 60.1064 44.9557 58.8289 44.9557 57.2523V3.74766C44.9557 2.17105 43.6782 0.893555 42.1016 0.893555H44.684C46.2606 0.893674 47.5381 2.17117 47.5381 3.74766Z" fill="#C8EFFE"/>
<path d="M44.6839 60.1063H16.3168C14.7406 60.1063 13.4629 58.8286 13.4629 57.2524V52.3081H47.5379V57.2524C47.5378 58.8286 46.2601 60.1063 44.6839 60.1063Z" fill="#596C76"/>
<path d="M44.6839 0.893799H16.3168C14.7406 0.893799 13.4629 2.17153 13.4629 3.74766V8.692H47.5379V3.74766C47.5378 2.17153 46.2601 0.893799 44.6839 0.893799Z" fill="#596C76"/>
<path d="M47.5387 52.308V57.2523C47.5387 58.8289 46.2612 60.1064 44.6846 60.1064H42.1797C43.7563 60.1064 45.0338 58.8289 45.0338 57.2523V52.308H47.5387Z" fill="#465A61"/>
<path d="M47.5387 3.74766V8.69199H45.0338V3.74766C45.0338 2.17105 43.7563 0.893555 42.1797 0.893555H44.6846C46.2611 0.893674 47.5387 2.17117 47.5387 3.74766Z" fill="#465A61"/>
<path d="M44.6832 0H24.0843C23.5907 0 23.1905 0.40017 23.1905 0.893769C23.1905 1.38737 23.5907 1.78754 24.0843 1.78754H44.6832C45.7639 1.78754 46.6433 2.66677 46.6433 3.74763V7.7982H14.3559V3.74763C14.3559 2.66677 15.2352 1.78754 16.316 1.78754H19.9532C20.4468 1.78754 20.8469 1.38737 20.8469 0.893769C20.8469 0.40017 20.4468 0 19.9532 0H16.316C14.2495 0 12.5684 1.68112 12.5684 3.74763V57.2523C12.5684 59.3188 14.2495 60.9999 16.316 60.9999H44.6832C46.7497 60.9999 48.4308 59.3188 48.4308 57.2523V3.74763C48.4308 1.68112 46.7497 0 44.6832 0ZM46.6433 57.2524C46.6433 58.3332 45.7639 59.2125 44.6832 59.2125H16.316C15.2352 59.2125 14.3559 58.3332 14.3559 57.2524V53.2018H46.6434L46.6433 57.2524ZM46.6433 51.4141H14.3559V9.58574H46.6434L46.6433 51.4141Z" fill="black"/>
<path d="M29.0598 57.1009H31.9411C32.4347 57.1009 32.8348 56.7007 32.8348 56.2071C32.8348 55.7135 32.4347 55.3134 31.9411 55.3134H29.0598C28.5662 55.3134 28.166 55.7135 28.166 56.2071C28.166 56.7007 28.5662 57.1009 29.0598 57.1009Z" fill="black"/>
<path d="M26.732 5.97806C27.3865 5.97806 27.9172 5.44746 27.9172 4.79293C27.9172 4.13839 27.3865 3.60779 26.732 3.60779C26.0775 3.60779 25.5469 4.13839 25.5469 4.79293C25.5469 5.44746 26.0775 5.97806 26.732 5.97806Z" fill="black"/>
<path d="M35.4518 5.68659C35.9454 5.68659 36.3456 5.28642 36.3456 4.79282C36.3456 4.29922 35.9454 3.89905 35.4518 3.89905H30.4992C30.0056 3.89905 29.6055 4.29922 29.6055 4.79282C29.6055 5.28642 30.0056 5.68659 30.4992 5.68659H35.4518Z" fill="black"/>
<g clip-path="url(#clip1_915_2154)">
<path d="M36.6536 20.0156H24.2272C21.8999 20.0156 20.0156 21.8999 20.0156 24.2272V36.6562C20.0156 38.981 21.8999 40.8652 24.2272 40.8652H36.6562C38.981 40.8652 40.8678 38.981 40.8678 36.6536V24.2272C40.8652 21.8999 38.981 20.0156 36.6536 20.0156Z" fill="url(#paint0_linear_915_2154)"/>
<path d="M30.351 24.8058L30.7732 24.076C31.0338 23.6199 31.615 23.4662 32.071 23.7268C32.5271 23.9874 32.6809 24.5686 32.4203 25.0247L28.352 32.0666H31.2944C32.2483 32.0666 32.7825 33.1873 32.3682 33.964H23.7416C23.2152 33.964 22.793 33.5418 22.793 33.0153C22.793 32.4889 23.2152 32.0666 23.7416 32.0666H26.1602L29.2563 26.7005L28.2894 25.0221C28.0288 24.566 28.1826 23.99 28.6387 23.7242C29.0948 23.4636 29.6707 23.6173 29.9366 24.0734L30.351 24.8058ZM26.6918 34.9413L25.7797 36.5233C25.5191 36.9793 24.9379 37.1331 24.4818 36.8725C24.0257 36.6119 23.8719 36.0307 24.1326 35.5746L24.8102 34.4018C25.5764 34.1646 26.1993 34.3471 26.6918 34.9413ZM34.5469 32.0719H37.015C37.5415 32.0719 37.9637 32.4941 37.9637 33.0205C37.9637 33.547 37.5415 33.9692 37.015 33.9692H35.6441L36.5693 35.5746C36.83 36.0307 36.6762 36.6066 36.2201 36.8725C35.764 37.1331 35.1881 36.9793 34.9222 36.5233C33.3637 33.8206 32.1935 31.7982 31.4169 30.4508C30.622 29.0799 31.1901 27.7039 31.7505 27.2374C32.3734 28.3059 33.3038 29.9191 34.5469 32.0719Z" fill="white"/>
</g>
</g>
<defs>
<linearGradient id="paint0_linear_915_2154" x1="30.4417" y1="20.0156" x2="30.4417" y2="40.8652" gradientUnits="userSpaceOnUse">
<stop stop-color="#18BFFB"/>
<stop offset="1" stop-color="#2072F3"/>
</linearGradient>
<clipPath id="clip0_915_2154">
<rect width="61" height="61" fill="white"/>
</clipPath>
<clipPath id="clip1_915_2154">
<rect width="20.8496" height="20.8496" fill="white" transform="translate(20.0156 20.0156)"/>
</clipPath>
</defs>
</svg>
