<svg width="61" height="61" viewBox="0 0 61 61" fill="none" xmlns="http://www.w3.org/2000/svg">
<g clip-path="url(#clip0_915_2094)">
<path d="M44.6839 60.1063H16.3168C14.7406 60.1063 13.4629 58.8285 13.4629 57.2524V3.74766C13.4629 2.17153 14.7406 0.893799 16.3168 0.893799H44.6839C46.2601 0.893799 47.5378 2.17153 47.5378 3.74766V57.2523C47.5378 58.8285 46.2601 60.1063 44.6839 60.1063Z" fill="#DFF6FD"/>
<path d="M47.5381 3.74766V57.2523C47.5381 58.8289 46.2606 60.1064 44.684 60.1064H42.1016C43.6782 60.1064 44.9557 58.8289 44.9557 57.2523V3.74766C44.9557 2.17105 43.6782 0.893555 42.1016 0.893555H44.684C46.2606 0.893674 47.5381 2.17117 47.5381 3.74766Z" fill="#C8EFFE"/>
<path d="M44.6839 60.1063H16.3168C14.7406 60.1063 13.4629 58.8286 13.4629 57.2524V52.3081H47.5379V57.2524C47.5378 58.8286 46.2601 60.1063 44.6839 60.1063Z" fill="#596C76"/>
<path d="M44.6839 0.893799H16.3168C14.7406 0.893799 13.4629 2.17153 13.4629 3.74766V8.692H47.5379V3.74766C47.5378 2.17153 46.2601 0.893799 44.6839 0.893799Z" fill="#596C76"/>
<path d="M47.5387 52.308V57.2523C47.5387 58.8289 46.2612 60.1064 44.6846 60.1064H42.1797C43.7563 60.1064 45.0338 58.8289 45.0338 57.2523V52.308H47.5387Z" fill="#465A61"/>
<path d="M47.5387 3.74766V8.69199H45.0338V3.74766C45.0338 2.17105 43.7563 0.893555 42.1797 0.893555H44.6846C46.2611 0.893674 47.5387 2.17117 47.5387 3.74766Z" fill="#465A61"/>
<path d="M35.674 26.822H25.3251C24.4638 26.822 23.7656 26.1238 23.7656 25.2626V24.0899C23.7656 20.3708 26.7805 17.356 30.4995 17.356C34.2186 17.356 37.2334 20.3708 37.2334 24.0899V25.2626C37.2335 26.1238 36.5353 26.822 35.674 26.822Z" fill="#97D729"/>
<path d="M37.234 24.0903V25.263C37.234 26.1234 36.5356 26.8217 35.6741 26.8217H33.2644C34.126 26.8217 34.8244 26.1234 34.8244 25.263V24.0903C34.8244 22.2301 34.07 20.5474 32.8521 19.3283C31.9023 18.3786 30.6713 17.7124 29.2949 17.4633C29.6858 17.393 30.0886 17.3561 30.4997 17.3561C32.3588 17.3561 34.0426 18.1092 35.2617 19.3283C36.4796 20.5474 37.234 22.2301 37.234 24.0903Z" fill="#8BC727"/>
<path d="M35.8602 38.6326H25.1389C24.3805 38.6326 23.7656 38.0178 23.7656 37.2592V30.9794C23.7656 30.221 24.3804 29.6061 25.1389 29.6061H35.8602C36.6186 29.6061 37.2335 30.2209 37.2335 30.9794V37.2592C37.2335 38.0176 36.6186 38.6326 35.8602 38.6326Z" fill="#97D729"/>
<path d="M34.7891 29.606H35.8592C36.6183 29.606 37.2332 30.2209 37.2332 30.9788V37.2588C37.2332 38.0179 36.6183 38.6328 35.8592 38.6328H34.7891V29.606Z" fill="#8BC727"/>
<path d="M27.1783 44.6458C26.2773 44.6458 25.5469 43.9155 25.5469 43.0144V38.6326H28.8098V43.0144C28.8097 43.9155 28.0793 44.6458 27.1783 44.6458Z" fill="#97D729"/>
<path d="M33.8209 44.6458C32.9198 44.6458 32.1895 43.9155 32.1895 43.0144V38.6326H35.4524V43.0144C35.4523 43.9155 34.7219 44.6458 33.8209 44.6458Z" fill="#97D729"/>
<path d="M28.8088 38.6328V43.0147C28.8088 43.9156 28.0783 44.6461 27.1774 44.6461C26.8961 44.6461 26.6316 44.5746 26.4004 44.4495C26.9092 44.173 27.2548 43.6343 27.2548 43.0147V38.6328H28.8088Z" fill="#8BC727"/>
<path d="M35.4514 38.6328V43.0147C35.4514 43.9156 34.7209 44.6461 33.82 44.6461C33.5387 44.6461 33.2742 44.5746 33.043 44.4495C33.5518 44.173 33.8962 43.6343 33.8962 43.0147V38.6328H35.4514Z" fill="#8BC727"/>
<path d="M41.8541 36.2188C40.953 36.2188 40.2227 35.4884 40.2227 34.5874V31.2379C40.2227 30.3368 40.953 29.6064 41.8541 29.6064C42.7551 29.6064 43.4855 30.3368 43.4855 31.2379V34.5872C43.4856 35.4883 42.7551 36.2188 41.8541 36.2188Z" fill="#97D729"/>
<path d="M19.1431 36.2188C18.2421 36.2188 17.5117 35.4884 17.5117 34.5874V31.2379C17.5117 30.3368 18.2421 29.6064 19.1431 29.6064C20.0442 29.6064 20.7746 30.3368 20.7746 31.2379V34.5872C20.7746 35.4883 20.0442 36.2188 19.1431 36.2188Z" fill="#97D729"/>
<path d="M43.4869 31.2375V34.5874C43.4869 35.4883 42.7564 36.2188 41.8554 36.2188C41.5468 36.2188 41.2584 36.133 41.0117 35.984C41.4836 35.6968 41.7982 35.1796 41.7982 34.5874V31.2375C41.7982 30.787 41.6159 30.3795 41.3204 30.0839C41.2274 29.991 41.1237 29.91 41.0117 29.8408C41.2584 29.6919 41.5468 29.6061 41.8554 29.6061C42.3059 29.6061 42.7135 29.7884 43.009 30.0839C43.3044 30.3795 43.4869 30.787 43.4869 31.2375Z" fill="#8BC727"/>
<path d="M20.7752 31.2375V34.5874C20.7752 35.4883 20.0447 36.2188 19.1437 36.2188C18.8351 36.2188 18.5455 36.133 18.2988 35.984C18.7707 35.6968 19.0853 35.1796 19.0853 34.5874V31.2375C19.0853 30.787 18.903 30.3795 18.6075 30.0839C18.5145 29.991 18.4108 29.91 18.2988 29.8408C18.5455 29.6919 18.8351 29.6061 19.1437 29.6061C19.5942 29.6061 20.0018 29.7884 20.2973 30.0839C20.5928 30.3795 20.7752 30.787 20.7752 31.2375Z" fill="#8BC727"/>
<path d="M25.3243 27.7158H35.6732C37.026 27.7158 38.1264 26.6153 38.1264 25.2626V24.0899C38.1264 21.3852 36.7102 19.0067 34.5817 17.652L35.0528 16.7781C35.2871 16.3436 35.1248 15.8015 34.6903 15.5672C34.2558 15.333 33.7136 15.4951 33.4794 15.9298L32.9697 16.8752C32.1942 16.6089 31.3636 16.4622 30.4988 16.4622C29.6339 16.4622 28.8033 16.6089 28.0278 16.8752L27.5181 15.9298C27.2838 15.4953 26.7417 15.333 26.3072 15.5672C25.8727 15.8014 25.7104 16.3436 25.9447 16.7781L26.4158 17.652C24.2872 19.0067 22.8711 21.3853 22.8711 24.0899V25.2626C22.871 26.6153 23.9715 27.7158 25.3243 27.7158ZM24.6585 24.0899C24.6585 20.8697 27.2783 18.2497 30.4986 18.2497C33.719 18.2497 36.3388 20.8696 36.3388 24.0899V25.2626C36.3388 25.6298 36.0401 25.9283 35.6731 25.9283H25.3242C24.957 25.9283 24.6585 25.6297 24.6585 25.2626V24.0899Z" fill="black"/>
<path d="M27.9172 24.1652C28.4108 24.1652 28.811 23.765 28.811 23.2714V22.4128C28.811 21.9192 28.4108 21.519 27.9172 21.519C27.4236 21.519 27.0234 21.9192 27.0234 22.4128V23.2714C27.0234 23.765 27.4236 24.1652 27.9172 24.1652Z" fill="black"/>
<path d="M33.0813 24.1652C33.5749 24.1652 33.975 23.765 33.975 23.2714V22.4128C33.975 21.9192 33.5749 21.519 33.0813 21.519C32.5877 21.519 32.1875 21.9192 32.1875 22.4128V23.2714C32.1875 23.765 32.5877 24.1652 33.0813 24.1652Z" fill="black"/>
<path d="M24.6527 39.4725V43.0144C24.6527 44.4069 25.7855 45.5396 27.1779 45.5396C28.5702 45.5396 29.7031 44.4068 29.7031 43.0144V39.5262H31.2947V43.0144C31.2947 44.4069 32.4275 45.5396 33.8199 45.5396C35.2123 45.5396 36.3451 44.4068 36.3451 43.0144V39.4725C37.3623 39.2493 38.1264 38.3425 38.1264 37.2592V36.9948C38.1264 36.5012 37.7263 36.101 37.2327 36.101C36.7391 36.101 36.3389 36.5012 36.3389 36.9948V37.2592C36.3389 37.5237 36.1238 37.7388 35.8594 37.7388H35.4513H25.5462H25.1382C24.8737 37.7388 24.6586 37.5237 24.6586 37.2592V30.9794C24.6586 30.7149 24.8737 30.4998 25.1382 30.4998H35.8595C36.1239 30.4998 36.339 30.7149 36.339 30.9794V32.8239C36.339 33.3175 36.7392 33.7176 37.2328 33.7176C37.7264 33.7176 38.1265 33.3175 38.1265 32.8239V30.9794C38.1265 29.7293 37.1096 28.7123 35.8595 28.7123H25.1382C23.8881 28.7123 22.8711 29.7293 22.8711 30.9794V37.2592C22.8713 38.3425 23.6354 39.2493 24.6527 39.4725ZM33.0825 39.5263H34.5579V43.0145C34.5579 43.4213 34.227 43.7522 33.8202 43.7522C33.4135 43.7522 33.0826 43.4212 33.0826 43.0145V39.5263H33.0825ZM26.4402 39.5263H27.9156V43.0145C27.9156 43.4213 27.5847 43.7522 27.178 43.7522C26.7713 43.7522 26.4403 43.4212 26.4403 43.0145V39.5263H26.4402Z" fill="black"/>
<path d="M39.3301 34.5872C39.3301 35.9797 40.4629 37.1124 41.8553 37.1124C43.2476 37.1124 44.3805 35.9796 44.3805 34.5872V31.2378C44.3805 29.8454 43.2476 28.7126 41.8553 28.7126C40.4629 28.7126 39.3301 29.8455 39.3301 31.2378V34.5872ZM41.1176 31.2378C41.1176 30.831 41.4486 30.5002 41.8553 30.5002C42.262 30.5002 42.5929 30.8311 42.5929 31.2378V34.5872C42.5929 34.9941 42.262 35.3249 41.8553 35.3249C41.4486 35.3249 41.1176 34.9939 41.1176 34.5872V31.2378Z" fill="black"/>
<path d="M19.1443 37.1125C20.5368 37.1125 21.6695 35.9797 21.6695 34.5873V31.2378C21.6695 29.8454 20.5367 28.7126 19.1443 28.7126C17.752 28.7126 16.6191 29.8455 16.6191 31.2378V34.5872C16.619 35.9797 17.7518 37.1125 19.1443 37.1125ZM18.4066 31.2378C18.4066 30.831 18.7375 30.5002 19.1442 30.5002C19.5509 30.5002 19.8819 30.8311 19.8819 31.2378V34.5872C19.8819 34.9941 19.5509 35.3249 19.1442 35.3249C18.7375 35.3249 18.4066 34.9939 18.4066 34.5872V31.2378Z" fill="black"/>
<path d="M44.6832 0H24.0843C23.5907 0 23.1905 0.40017 23.1905 0.893769C23.1905 1.38737 23.5907 1.78754 24.0843 1.78754H44.6832C45.7639 1.78754 46.6433 2.66677 46.6433 3.74763V7.7982H14.3559V3.74763C14.3559 2.66677 15.2352 1.78754 16.316 1.78754H19.9532C20.4468 1.78754 20.8469 1.38737 20.8469 0.893769C20.8469 0.40017 20.4468 0 19.9532 0H16.316C14.2495 0 12.5684 1.68112 12.5684 3.74763V57.2523C12.5684 59.3188 14.2495 60.9999 16.316 60.9999H44.6832C46.7497 60.9999 48.4308 59.3188 48.4308 57.2523V3.74763C48.4308 1.68112 46.7497 0 44.6832 0ZM46.6433 57.2524C46.6433 58.3332 45.7639 59.2125 44.6832 59.2125H16.316C15.2352 59.2125 14.3559 58.3332 14.3559 57.2524V53.2018H46.6434L46.6433 57.2524ZM46.6433 51.4141H14.3559V9.58574H46.6434L46.6433 51.4141Z" fill="black"/>
<path d="M29.0598 57.1009H31.9411C32.4347 57.1009 32.8348 56.7007 32.8348 56.2071C32.8348 55.7135 32.4347 55.3134 31.9411 55.3134H29.0598C28.5662 55.3134 28.166 55.7135 28.166 56.2071C28.166 56.7007 28.5662 57.1009 29.0598 57.1009Z" fill="black"/>
<path d="M26.732 5.97806C27.3865 5.97806 27.9172 5.44746 27.9172 4.79293C27.9172 4.13839 27.3865 3.60779 26.732 3.60779C26.0775 3.60779 25.5469 4.13839 25.5469 4.79293C25.5469 5.44746 26.0775 5.97806 26.732 5.97806Z" fill="black"/>
<path d="M35.4518 5.68659C35.9454 5.68659 36.3456 5.28642 36.3456 4.79282C36.3456 4.29922 35.9454 3.89905 35.4518 3.89905H30.4992C30.0056 3.89905 29.6055 4.29922 29.6055 4.79282C29.6055 5.28642 30.0056 5.68659 30.4992 5.68659H35.4518Z" fill="black"/>
<path d="M38.9856 14.2653C39.4792 14.2653 39.8793 13.8652 39.8793 13.3716V12.8254C39.8793 12.3318 39.4792 11.9316 38.9856 11.9316C38.492 11.9316 38.0918 12.3318 38.0918 12.8254V13.3716C38.0918 13.8652 38.492 14.2653 38.9856 14.2653Z" fill="black"/>
<path d="M41.7278 14.2652C42.2214 14.2652 42.6215 13.865 42.6215 13.3714V12.279C42.6215 11.7854 42.2214 11.3853 41.7278 11.3853C41.2342 11.3853 40.834 11.7854 40.834 12.279V13.3714C40.834 13.865 41.2342 14.2652 41.7278 14.2652Z" fill="black"/>
<path d="M44.4719 14.2652C44.9655 14.2652 45.3657 13.8651 45.3657 13.3715V11.7329C45.3657 11.2393 44.9655 10.8391 44.4719 10.8391C43.9783 10.8391 43.5781 11.2393 43.5781 11.7329V13.3715C43.5781 13.8651 43.9783 14.2652 44.4719 14.2652Z" fill="black"/>
</g>
<defs>
<clipPath id="clip0_915_2094">
<rect width="61" height="61" fill="white"/>
</clipPath>
</defs>
</svg>
