<svg width="61" height="61" viewBox="0 0 61 61" fill="none" xmlns="http://www.w3.org/2000/svg">
<g clip-path="url(#clip0_629_1781)">
<path d="M58.0475 9.83873V13.7742L55.6346 14.5785C55.4968 14.9979 55.3283 15.4037 55.1316 15.7924L56.2692 18.0676L53.486 20.8507L51.2108 19.7131C50.8222 19.9099 50.4164 20.0784 49.997 20.2161L49.1927 22.629H44.2733V16.7258C44.2733 16.3409 44.218 15.9695 44.1147 15.6177C44.9632 16.3101 46.0443 16.7258 47.2249 16.7258C49.9416 16.7258 52.1443 14.5232 52.1443 11.8065C52.1443 9.08975 49.9416 6.88711 47.2249 6.88711C44.5082 6.88711 42.3056 9.08975 42.3056 11.8065C42.3056 12.4054 42.4138 12.981 42.6093 13.511C41.9674 13.0572 41.184 12.7903 40.3378 12.7903H36.4023V9.83873L38.8153 9.03441C38.953 8.61504 39.1215 8.20919 39.3183 7.82056L38.1807 5.54536L40.9638 2.76223L43.239 3.89983C43.6276 3.70306 44.0335 3.53457 44.4529 3.39683L45.2572 0.983887H49.1927L49.997 3.39683C50.4164 3.53457 50.8222 3.70306 51.2108 3.89983L53.486 2.76223L56.2692 5.54536L55.1316 7.82056C55.3283 8.20919 55.4968 8.61504 55.6346 9.03441L58.0475 9.83873Z" fill="#FCD770"/>
<path d="M0.983398 31.4839H12.7898V37.3871H0.983398V31.4839Z" fill="#E6E9ED"/>
<path d="M0.983398 41.3226H12.7898V47.2259H0.983398V41.3226Z" fill="#E6E9ED"/>
<path d="M0.983398 21.6451H12.7898V27.5484H0.983398V21.6451Z" fill="#E6E9ED"/>
<path d="M44.274 48.2097V56.0807C44.274 58.2538 42.5116 60.0162 40.3385 60.0162H20.6611C18.4879 60.0162 16.7256 58.2538 16.7256 56.0807V48.2097H44.274Z" fill="#969FAA"/>
<path d="M44.1153 15.6177C43.8632 14.7568 43.3245 14.0177 42.61 13.511C41.968 13.0572 41.1846 12.7903 40.3385 12.7903H36.403H34.4353V14.758C34.4353 15.8452 33.5547 16.7258 32.4675 16.7258H28.532C27.4449 16.7258 26.5643 15.8452 26.5643 14.758V12.7903H20.6611C18.4879 12.7903 16.7256 14.5526 16.7256 16.7258V48.2096H44.274V16.7258C44.274 16.3408 44.2186 15.9694 44.1153 15.6177Z" fill="#69D6F4"/>
<path d="M34.4354 53.129V55.0968C34.4354 55.6403 33.9951 56.0806 33.4515 56.0806H27.5483C27.0047 56.0806 26.5645 55.6403 26.5645 55.0968V53.129C26.5645 52.5854 27.0047 52.1451 27.5483 52.1451H33.4515C33.9951 52.1451 34.4354 52.5854 34.4354 53.129Z" fill="#E6E9ED"/>
<path d="M34.4354 12.7903V14.758C34.4354 15.8452 33.5549 16.7258 32.4677 16.7258H28.5322C27.445 16.7258 26.5645 15.8452 26.5645 14.758V12.7903H34.4354Z" fill="#4FC1E9"/>
<path d="M38.3708 38.4005V42.3065H22.6289V26.5646H38.3708V30.5001H34.4354L27.4855 33.1061C26.9309 33.3139 26.5644 33.844 26.5644 34.4355C26.5644 34.7307 26.6554 35.0111 26.8165 35.2448C26.9776 35.476 27.2088 35.6605 27.4855 35.765L34.4354 38.371H38.3708V38.4005Z" fill="#FFEAA7"/>
<path d="M56.0797 36.4032V37.3871C56.0797 37.9307 55.6394 38.371 55.0959 38.371H44.2733H38.3701H34.4346V30.5H38.3701H44.2733H55.0959C55.6394 30.5 56.0797 30.9403 56.0797 31.4839V32.4677V36.4032Z" fill="#FF826E"/>
<path d="M56.0801 32.4678H60.0156V36.4033H56.0801V32.4678Z" fill="#AAB2BD"/>
<path d="M34.4354 30.5V38.371L27.4856 35.7649C27.2089 35.6604 26.9777 35.4759 26.8166 35.2447C26.6555 35.011 26.5645 34.7306 26.5645 34.4355C26.5645 33.8439 26.9309 33.3139 27.4856 33.106L34.4354 30.5Z" fill="#CCD1D9"/>
<path d="M33.452 51.1613H27.5488C26.4638 51.1613 25.5811 52.044 25.5811 53.129V55.0967C25.5811 56.1817 26.4638 57.0645 27.5488 57.0645H33.452C34.537 57.0645 35.4198 56.1817 35.4198 55.0967V53.129C35.4198 52.044 34.537 51.1613 33.452 51.1613ZM33.452 55.0967H27.5488V53.129H33.452L33.4533 55.0967C33.4533 55.0967 33.4529 55.0967 33.452 55.0967Z" fill="black"/>
<path d="M20.6616 17.7097C21.205 17.7097 21.6455 17.2692 21.6455 16.7258C21.6455 16.1824 21.205 15.7419 20.6616 15.7419C20.1182 15.7419 19.6777 16.1824 19.6777 16.7258C19.6777 17.2692 20.1182 17.7097 20.6616 17.7097Z" fill="black"/>
<path d="M57.0645 31.4839C57.0645 30.3989 56.1817 29.5161 55.0968 29.5161H45.2581V23.6129H49.9027L50.7803 20.9806C50.9212 20.9258 51.0611 20.8678 51.1995 20.8067L53.6816 22.0476L57.4672 18.2619L56.2261 15.7799C56.2873 15.6416 56.3454 15.5016 56.4 15.3606L59.0323 14.4833V9.12958L56.4 8.25222C56.3453 8.11116 56.2874 7.97132 56.2261 7.83284L57.4672 5.35091L53.6816 1.56522L51.1995 2.80612C51.0611 2.745 50.9211 2.68695 50.7803 2.63222L49.9027 0H44.5491L43.6715 2.63235C43.5305 2.68707 43.3907 2.74512 43.2522 2.80625L40.7701 1.56534L36.9846 5.35103L38.2256 7.83297C38.1644 7.97132 38.1064 8.11128 38.0517 8.25234L35.4194 9.12958V11.8065H20.6613C17.9488 11.8065 15.7419 14.0133 15.7419 16.7258V21.6452H17.7097V16.7258C17.7097 15.0982 19.0338 13.7742 20.6613 13.7742H25.5806V14.7581C25.5806 16.3855 26.9048 17.7097 28.5323 17.7097H32.4677C34.0952 17.7097 35.4194 16.3855 35.4194 14.7581V13.7742H40.3387C41.9662 13.7742 43.2903 15.0982 43.2903 16.7258V29.5161H39.3548V25.5806H21.6452V29.5161H17.7097V23.6129H13.7742V20.6613H0V28.5323H13.7742V25.5806H15.7419V31.4839H21.6452V33.4516H13.7742V30.5H0V38.371H13.7742V35.4194H21.6452V37.3871H15.7419V43.2903H13.7742V40.3387H0V48.2097H13.7742V45.2581H17.7097V39.3548H21.6452V43.2903H39.3548V39.3548H43.2903V47.2258H17.7097H16.7258H15.7419V56.0806C15.7419 58.7932 17.9488 61 20.6613 61H40.3387C43.0512 61 45.2581 58.7932 45.2581 56.0806V39.3548H55.0968C56.1817 39.3548 57.0645 38.4721 57.0645 37.3871H61V31.4839H57.0645ZM43.2903 11.8065C43.2903 9.6364 45.0558 7.87097 47.2258 7.87097C49.3959 7.87097 51.1613 9.6364 51.1613 11.8065C51.1613 13.9765 49.3959 15.7419 47.2258 15.7419C46.398 15.7419 45.6177 15.4918 44.9517 15.0174C44.6446 14.1909 44.1214 13.4685 43.4509 12.9193C43.3449 12.5595 43.2903 12.1865 43.2903 11.8065ZM33.4516 14.7581C33.4516 15.3005 33.0102 15.7419 32.4677 15.7419H28.5323C27.9898 15.7419 27.5484 15.3005 27.5484 14.7581V13.7742H33.4516V14.7581ZM37.3871 11.8065V10.5478L39.596 9.81153L39.7506 9.3421C39.8719 8.97389 40.0223 8.61121 40.1975 8.26427L40.4206 7.82288L39.3788 5.73941L41.1588 3.95947L43.2421 5.00126L43.6834 4.77829C44.0304 4.60304 44.3932 4.45263 44.7616 4.33125L45.2309 4.17666L45.9672 1.96774H48.4845L49.2207 4.17653L49.69 4.33112C50.0582 4.45251 50.421 4.60292 50.7682 4.77817L51.2095 5.00114L53.2928 3.95934L55.0728 5.73929L54.031 7.82276L54.2541 8.26415C54.4293 8.61108 54.5796 8.97376 54.701 9.34198L54.8556 9.81141L57.0645 10.5478V13.0651L54.8556 13.8014L54.701 14.2708C54.5799 14.6389 54.4295 15.0016 54.254 15.3486L54.031 15.79L55.0728 17.8735L53.2928 19.6534L51.2095 18.6116L50.7682 18.8346C50.4212 19.0099 50.0584 19.1603 49.69 19.2817L49.2207 19.4362L48.4844 21.6452H45.2581V17.3707C45.8864 17.593 46.5521 17.7097 47.2258 17.7097C50.4809 17.7097 53.129 15.0615 53.129 11.8065C53.129 8.55144 50.4809 5.90323 47.2258 5.90323C43.9707 5.90323 41.3226 8.55144 41.3226 11.8065C41.3226 11.8397 41.3242 11.8727 41.3248 11.9058C41.0061 11.8408 40.6763 11.8065 40.3387 11.8065H37.3871ZM11.8065 26.5645H1.96774V22.629H11.8065V26.5645ZM11.8065 36.4032H1.96774V32.4677H11.8065V36.4032ZM11.8065 46.2419H1.96774V42.3065H11.8065V46.2419ZM40.3387 59.0323H20.6613C19.0338 59.0323 17.7097 57.7082 17.7097 56.0806V49.1935H43.2903V56.0806C43.2903 57.7082 41.9662 59.0323 40.3387 59.0323ZM37.3871 41.3226H23.6129V27.5484H37.3871V29.5161H34.2572L27.1402 32.185C26.2074 32.5349 25.5806 33.4393 25.5806 34.4355C25.5806 35.4317 26.2074 36.3361 27.1403 36.6861L34.2572 39.3548H37.3871V41.3226ZM27.8313 34.8437C27.6621 34.7802 27.5484 34.6161 27.5484 34.4355C27.5484 34.2548 27.6621 34.0908 27.8311 34.0274L33.4516 31.9197V36.9512L27.8313 34.8437ZM55.0968 37.3871H35.4194V31.4839H55.0968V37.3871ZM59.0323 35.4194H57.0645V33.4516H59.0323V35.4194Z" fill="black"/>
</g>
<defs>
<clipPath id="clip0_629_1781">
<rect width="61" height="61" fill="white"/>
</clipPath>
</defs>
</svg>
