<svg width="61" height="61" viewBox="0 0 61 61" fill="none" xmlns="http://www.w3.org/2000/svg">
<path d="M28.7109 56.2344H7.74219C5.37343 56.2344 3.45312 54.3141 3.45312 51.9453V9.05469C3.45312 6.68593 5.37343 4.76562 7.74219 4.76562H28.7109C31.0797 4.76562 33 6.68593 33 9.05469V51.9453C33 54.3141 31.0797 56.2344 28.7109 56.2344Z" fill="#EDF9D9"/>
<path d="M29.4297 4.82605V56.174C31.4581 55.8335 33.0039 54.0704 33.0039 51.9453V9.05471C33.0039 6.9296 31.4581 5.16655 29.4297 4.82605Z" fill="#D5EFC8"/>
<path d="M28.7109 56.2344H7.74219C5.37343 56.2344 3.45312 54.3141 3.45312 51.9453V51.1113H33V51.9453C33 54.3141 31.0797 56.2344 28.7109 56.2344Z" fill="#3692BC"/>
<path d="M29.4297 51.1113V51.9453C29.4297 54.3141 27.5094 56.2344 25.1406 56.2344H28.7148C31.0836 56.2344 33.0039 54.3141 33.0039 51.9453V51.1113H29.4297Z" fill="#0681AF"/>
<path d="M22.2207 11.9141H14.1191C13.1322 11.9141 12.332 11.1139 12.332 10.127C12.332 9.13999 13.1322 8.33984 14.1191 8.33984H22.2207C23.2077 8.33984 24.0078 9.13999 24.0078 10.127C24.0078 11.1139 23.2077 11.9141 22.2207 11.9141Z" fill="#3692BC"/>
<path d="M27.236 46.677H17.5453C17.0629 46.677 16.6719 46.286 16.6719 45.8036V32.5388C16.6719 32.0564 17.0629 31.6654 17.5453 31.6654H27.236C27.7184 31.6654 28.1094 32.0564 28.1094 32.5388V45.8036C28.1094 46.286 27.7184 46.677 27.236 46.677Z" fill="#FE7AB6"/>
<path d="M27.2344 31.6653H23.6602C24.1426 31.6653 24.5336 32.0563 24.5336 32.5387V45.8036C24.5336 46.286 24.1426 46.677 23.6602 46.677H27.2344C27.7168 46.677 28.1078 46.286 28.1078 45.8036V32.5388C28.1078 32.0564 27.7167 31.6653 27.2344 31.6653Z" fill="#FE5CA7"/>
<path d="M12.1798 35.8217H1.52336C1.17606 35.8217 0.894531 35.5401 0.894531 35.1928V16.1965C0.894531 15.8492 1.17606 15.5676 1.52336 15.5676H12.1798C12.5271 15.5676 12.8086 15.8492 12.8086 16.1965V35.1927C12.8086 35.5401 12.5271 35.8217 12.1798 35.8217Z" fill="#FDB441"/>
<path d="M12.1797 15.5677H8.60547C8.95276 15.5677 9.23429 15.8493 9.23429 16.1966V35.1928C9.23429 35.5401 8.95276 35.8217 8.60547 35.8217H12.1797C12.527 35.8217 12.8085 35.5401 12.8085 35.1928V16.1965C12.8085 15.8493 12.527 15.5677 12.1797 15.5677Z" fill="#FE9738"/>
<path d="M60.1055 15.1739V45.8261C60.1055 47.2316 58.9571 48.3711 57.5405 48.3711H38.9086C37.492 48.3711 36.3436 47.2316 36.3436 45.8261V33.9807C36.3436 33.8053 36.2556 33.6415 36.1089 33.5438L31.8668 30.7174C31.7111 30.6137 31.7111 30.3865 31.8668 30.2827L36.1089 27.4563C36.2556 27.3586 36.3436 27.1947 36.3436 27.0194V15.174C36.3436 13.7685 37.492 12.629 38.9086 12.629H57.5404C58.9571 12.6289 60.1055 13.7684 60.1055 15.1739Z" fill="#EAF6FF"/>
<path d="M57.543 12.6289H53.9688C55.3853 12.6289 56.5337 13.7684 56.5337 15.1739V45.8261C56.5337 47.2316 55.3853 48.3711 53.9688 48.3711H57.543C58.9596 48.3711 60.1079 47.2316 60.1079 45.8261V15.1739C60.1079 13.7684 58.9596 12.6289 57.543 12.6289Z" fill="#D8ECFE"/>
<path d="M54.0302 43.5526H42.712C42.2843 43.5526 41.9375 43.2058 41.9375 42.7781V33.6045C41.9375 33.1768 42.2843 32.83 42.712 32.83H54.0302C54.4579 32.83 54.8047 33.1768 54.8047 33.6045V42.7781C54.8047 43.2058 54.4579 43.5526 54.0302 43.5526Z" fill="#FDB441"/>
<path d="M54.0273 32.83H50.4531C50.8808 32.83 51.2277 33.1768 51.2277 33.6045V42.7781C51.2277 43.2058 50.8808 43.5526 50.4531 43.5526H54.0273C54.4551 43.5526 54.8019 43.2058 54.8019 42.7781V33.6045C54.8019 33.1767 54.4551 32.83 54.0273 32.83Z" fill="#FE9738"/>
<path d="M22.4688 24.8916C21.1527 24.8916 20.0859 23.8248 20.0859 22.5088V20.126C20.0859 18.8099 21.1527 17.7432 22.4688 17.7432C23.7848 17.7432 24.8516 18.8099 24.8516 20.126V22.5088C24.8516 23.8248 23.7848 24.8916 22.4688 24.8916Z" fill="#3692BC"/>
<path d="M22.2218 7.44629H14.1202C10.5679 7.58151 10.5707 12.6737 14.1202 12.8076H22.2218C25.774 12.6724 25.7713 7.5802 22.2218 7.44629ZM22.2218 11.0205H14.1202C12.9373 10.9785 12.9381 9.2751 14.1202 9.2334H22.2218C23.4047 9.27546 23.4038 10.9788 22.2218 11.0205Z" fill="black"/>
<path d="M17.5443 30.7717C16.57 30.7717 15.7773 31.5644 15.7773 32.5388V45.8036C15.7773 46.7779 16.57 47.5706 17.5443 47.5706H27.235C28.2093 47.5706 29.002 46.7779 29.002 45.8036V32.5388C29.002 31.5645 28.2093 30.7717 27.235 30.7717H17.5443ZM27.2148 45.7834H17.5645V32.5588H27.2148V45.7834Z" fill="black"/>
<path d="M4.26989 20.3929H7.20861C8.3918 20.352 8.39084 18.6465 7.20861 18.6058H4.26989C3.0867 18.6467 3.08754 20.3523 4.26989 20.3929Z" fill="black"/>
<path d="M4.26989 31.9893H7.20861C8.3918 31.9483 8.39084 30.2428 7.20861 30.2021H4.26989C3.0867 30.2431 3.08754 31.9486 4.26989 31.9893Z" fill="black"/>
<path d="M4.26989 23.292H9.23257C10.4158 23.251 10.4148 21.5455 9.23257 21.5049H4.26989C3.0867 21.5459 3.08754 23.2514 4.26989 23.292Z" fill="black"/>
<path d="M4.26989 26.191H9.23257C10.4158 26.1501 10.4148 24.4446 9.23257 24.4039H4.26989C3.0867 24.4449 3.08754 26.1505 4.26989 26.191Z" fill="black"/>
<path d="M19.9105 36.874H22.8494C24.0325 36.833 24.0316 35.1275 22.8494 35.0869H19.9105C18.7273 35.1279 18.7282 36.8334 19.9105 36.874Z" fill="black"/>
<path d="M19.9105 39.7731H24.8732C26.0564 39.7321 26.0554 38.0266 24.8732 37.986H19.9105C18.7273 38.0269 18.7282 39.7326 19.9105 39.7731Z" fill="black"/>
<path d="M19.9105 42.6722H24.8732C26.0564 42.6313 26.0554 40.9258 24.8732 40.8851H19.9105C18.7273 40.926 18.7282 42.6316 19.9105 42.6722Z" fill="black"/>
<path d="M60.1064 17.5468C60.6 17.5468 61 17.1467 61 16.6532V15.1739C61 13.2779 59.4486 11.7354 57.5415 11.7354H38.9097C37.0026 11.7354 35.4511 13.2779 35.4511 15.1739V26.8214L33.8955 27.8578V9.05469C33.8955 6.19698 31.5706 3.87207 28.7129 3.87207H7.74414C4.88643 3.87207 2.56152 6.19698 2.56152 9.05469V14.6742H1.52226C0.682795 14.6742 0 15.357 0 16.1965V35.1927C0 36.0322 0.682795 36.7151 1.52226 36.7151H2.56152V41.7786C2.60251 42.9618 4.30801 42.9608 4.34863 41.7786V36.7151H12.1789C13.0184 36.7151 13.7012 36.0322 13.7012 35.1927V16.1965C13.7012 15.357 13.0184 14.6741 12.1789 14.6741H4.34863V9.05469C4.34863 7.18239 5.87185 5.65918 7.74414 5.65918H28.7129C30.5852 5.65918 32.1084 7.18239 32.1084 9.05469V29.0486L31.3723 29.539C30.6937 29.9629 30.6937 31.0372 31.3723 31.4611L32.1084 31.9515V50.2178H4.34863V45.9883C4.30765 44.8051 2.60215 44.806 2.56152 45.9883V51.9453C2.56152 54.803 4.88643 57.1279 7.74414 57.1279H28.7129C31.5706 57.1279 33.8955 54.803 33.8955 51.9453V33.1421L35.4511 34.1785V45.826C35.4511 47.722 37.0026 49.2645 38.9097 49.2645H57.5415C59.4486 49.2645 61 47.722 61 45.826V20.8893C60.959 19.7061 59.2535 19.7071 59.2129 20.8893V45.826C59.2129 46.7366 58.463 47.4774 57.5415 47.4774H38.9097C37.9881 47.4774 37.2382 46.7366 37.2382 45.826V33.9806C37.2382 33.5053 37.0016 33.064 36.6054 32.8L33.1531 30.5L36.6054 28.1999C37.0016 27.9359 37.2382 27.4946 37.2382 27.0193V15.1739C37.2382 14.2633 37.9881 13.5225 38.9097 13.5225H57.5415C58.463 13.5225 59.2129 14.2633 59.2129 15.1739V16.6532C59.2129 17.1467 59.6128 17.5468 60.1064 17.5468ZM11.9141 34.9281H1.78711V16.4613H11.9141V34.9281ZM28.7129 55.3408H7.74414C5.89186 55.3408 4.38211 53.8497 4.35018 52.0049H32.107C32.0749 53.8497 30.5652 55.3408 28.7129 55.3408Z" fill="black"/>
<path d="M42.9774 23.6217L46.7899 26.9542C46.9741 27.1157 47.2188 27.194 47.4612 27.1711C47.7053 27.1482 47.9292 27.0262 48.0807 26.8334L53.7199 19.6541C54.0248 19.2661 53.9573 18.7043 53.5691 18.3994C53.181 18.0946 52.6192 18.162 52.3144 18.5502L47.2569 24.9889L44.1534 22.276C43.7821 21.9513 43.2173 21.989 42.8927 22.3608C42.5679 22.7325 42.6058 23.297 42.9774 23.6217Z" fill="black"/>
<path d="M41.043 33.6045V42.7781C41.043 43.6978 41.7912 44.4462 42.7109 44.4462H54.0292C54.9489 44.4462 55.6973 43.6978 55.6973 42.7781V33.6045C55.6973 32.6847 54.9489 31.9364 54.0292 31.9364H42.7109C41.7913 31.9364 41.043 32.6846 41.043 33.6045ZM42.8301 33.7235H53.9102V42.6591H42.8301V33.7235Z" fill="black"/>
<path d="M46.1488 37.4962H49.3655C50.5487 37.4552 50.5478 35.7497 49.3655 35.7091H46.1488C44.9656 35.7501 44.9665 37.4557 46.1488 37.4962Z" fill="black"/>
<path d="M51.2302 38.8862H46.1488C44.9656 38.9272 44.9665 40.6327 46.1488 40.6733H51.2302C52.4134 40.6324 52.4126 38.9267 51.2302 38.8862Z" fill="black"/>
<path d="M27.5866 16.6201C27.093 16.6201 26.693 17.0202 26.693 17.5137V18.9323H25.5187C24.4373 16.1719 20.4986 16.1736 19.4183 18.9323H18.2441V17.5137C18.2032 16.3305 16.4977 16.3314 16.457 17.5137V19.8258C16.457 20.3193 16.857 20.7194 17.3506 20.7194H19.1921V22.2594H17.3506C16.857 22.2594 16.457 22.6595 16.457 23.153V25.4651C16.498 26.6483 18.2035 26.6474 18.2441 25.4651V24.0465H19.5766C20.7809 26.3502 24.1572 26.349 25.3605 24.0465H26.6931V25.4651C26.7341 26.6483 28.4396 26.6474 28.4802 25.4651V23.153C28.4802 22.6595 28.0803 22.2594 27.5867 22.2594H25.745V20.7194H27.5867C28.0803 20.7194 28.4802 20.3193 28.4802 19.8258V17.5137C28.4801 17.0202 28.08 16.6201 27.5866 16.6201ZM23.9578 22.5088C23.8827 24.4822 21.0536 24.4808 20.9793 22.5088V20.1259C21.0543 18.1525 23.8834 18.1539 23.9578 20.1259V22.5088Z" fill="black"/>
</svg>
