<svg width="61" height="61" viewBox="0 0 61 61" fill="none" xmlns="http://www.w3.org/2000/svg">
<path d="M55.0959 56.0807V60.0162H47.2249C47.2249 50.7777 39.7377 43.2904 30.4991 43.2904C21.2606 43.2904 13.7733 50.7777 13.7733 60.0162H5.90234V56.0807L8.36202 55.3133C8.94251 52.5486 10.0346 49.9807 11.5202 47.6981L10.3199 45.4057L15.8886 39.837L18.1811 41.0373C20.4636 39.5517 23.0315 38.4596 25.7962 37.8791L26.5636 35.4194H30.4991H34.4346L35.202 37.8791C37.9667 38.4596 40.5346 39.5517 42.8172 41.0373L45.1096 39.837L50.6783 45.4057L49.478 47.6981C50.9636 49.9807 52.0557 52.5486 52.6362 55.3133L55.0959 56.0807Z" fill="#FFC729"/>
<path d="M47.2251 60.0162H41.3218C41.3218 54.0343 36.4812 49.1936 30.4992 49.1936C24.5173 49.1936 19.6767 54.0343 19.6767 60.0162H13.7734C13.7734 50.7777 21.2607 43.2904 30.4992 43.2904C39.7378 43.2904 47.2251 50.7777 47.2251 60.0162Z" fill="#FCD770"/>
<path d="M44.2636 32.4678C42.0991 32.4678 40.3281 30.7066 40.3281 28.5323V24.5968H60.0055V28.5323C60.0055 30.7066 58.2444 32.4678 56.0701 32.4678H44.2636Z" fill="#969FAA"/>
<path d="M60.0047 4.91937V8.85485H50.166C51.2581 8.85485 52.242 8.41211 52.9504 7.70373C53.6588 6.9855 54.1015 6.00163 54.1015 4.91937V0.983887H56.0692C58.2436 0.983887 60.0047 2.74502 60.0047 4.91937Z" fill="#969FAA"/>
<path d="M50.1668 8.85485H40.3281V4.91937C40.3281 2.74502 42.0991 0.983887 44.2636 0.983887H46.2314V4.91937C46.2314 7.09373 48.0023 8.85485 50.1668 8.85485Z" fill="#969FAA"/>
<path d="M20.661 4.91937V8.85485H10.8223C11.9045 8.85485 12.8884 8.41211 13.6066 7.70373C14.315 6.9855 14.7577 6.00163 14.7577 4.91937V0.983887H16.7255C18.8998 0.983887 20.661 2.74502 20.661 4.91937Z" fill="#969FAA"/>
<path d="M10.8211 8.85485H0.982422V4.91937C0.982422 2.74502 2.74355 0.983887 4.91791 0.983887H6.88565V4.91937C6.88565 7.09373 8.64678 8.85485 10.8211 8.85485Z" fill="#969FAA"/>
<path d="M4.91791 32.4678C2.74355 32.4678 0.982422 30.7066 0.982422 28.5323V24.5968H20.6598V28.5323C20.6598 30.7066 18.8987 32.4678 16.7244 32.4678H4.91791Z" fill="#969FAA"/>
<path d="M30.4999 20.6614C32.6734 20.6614 34.4354 18.8994 34.4354 16.7259C34.4354 14.5524 32.6734 12.7904 30.4999 12.7904C28.3264 12.7904 26.5645 14.5524 26.5645 16.7259C26.5645 18.8994 28.3264 20.6614 30.4999 20.6614Z" fill="#FF826E"/>
<path d="M46.2305 0.983887H54.1014V4.91937C54.1014 6.00163 53.6587 6.9855 52.9503 7.70373C52.2419 8.41211 51.258 8.85485 50.166 8.85485C48.0014 8.85485 46.2305 7.09373 46.2305 4.91937V0.983887Z" fill="#E6E9ED"/>
<path d="M6.88672 0.983887H14.7577V4.91937C14.7577 6.00163 14.3149 6.9855 13.6066 7.70373C12.8883 8.41211 11.9045 8.85485 10.8222 8.85485C8.64785 8.85485 6.88672 7.09373 6.88672 4.91937V0.983887Z" fill="#E6E9ED"/>
<path d="M50.1668 8.85486H60.0055V24.5968H40.3281V16.7258V8.85486H50.1668Z" fill="#69D6F4"/>
<path d="M20.6598 8.85486V16.7258V24.5968H0.982422V8.85486H10.8211H20.6598Z" fill="#69D6F4"/>
<path d="M10.8218 5.90317C11.3651 5.90317 11.8056 5.46267 11.8056 4.9193C11.8056 4.37592 11.3651 3.93542 10.8218 3.93542C10.2784 3.93542 9.83789 4.37592 9.83789 4.9193C9.83789 5.46267 10.2784 5.90317 10.8218 5.90317Z" fill="black"/>
<path d="M7.87109 27.5483H13.7743V29.5161H7.87109V27.5483Z" fill="black"/>
<path d="M3.93555 27.5483H5.90329V29.5161H3.93555V27.5483Z" fill="black"/>
<path d="M15.7422 27.5483H17.7099V29.5161H15.7422V27.5483Z" fill="black"/>
<path d="M7.87182 23.0363L18.4061 12.502L17.0149 11.1108L7.87182 20.254L5.6158 17.9979L4.22461 19.3891L7.87182 23.0363Z" fill="black"/>
<path d="M50.1714 5.90317C50.7147 5.90317 51.1552 5.46267 51.1552 4.9193C51.1552 4.37592 50.7147 3.93542 50.1714 3.93542C49.628 3.93542 49.1875 4.37592 49.1875 4.9193C49.1875 5.46267 49.628 5.90317 50.1714 5.90317Z" fill="black"/>
<path d="M47.2207 27.5483H53.1239V29.5161H47.2207V27.5483Z" fill="black"/>
<path d="M43.2852 27.5483H45.2529V29.5161H43.2852V27.5483Z" fill="black"/>
<path d="M55.0898 27.5483H57.0576V29.5161H55.0898V27.5483Z" fill="black"/>
<path d="M47.2195 23.0363L57.7538 12.502L56.3626 11.1108L47.2195 20.254L44.9635 17.9979L43.5723 19.3891L47.2195 23.0363Z" fill="black"/>
<path d="M27.5488 55.0968H29.5166V57.0645H27.5488V55.0968Z" fill="black"/>
<path d="M35.4199 55.0968H37.3877V57.0645H35.4199V55.0968Z" fill="black"/>
<path d="M23.6133 55.0968H25.581V57.0645H23.6133V55.0968Z" fill="black"/>
<path d="M31.4844 55.0968H33.4521V57.0645H31.4844V55.0968Z" fill="black"/>
<path d="M56.0806 59.0323V55.3585L53.4714 54.5389C52.8929 52.1029 51.9336 49.7908 50.6133 47.6508L51.8825 45.2217L45.2955 38.6346L42.8663 39.9029C40.7254 38.5825 38.4133 37.6232 35.9772 37.0457L35.1576 34.4355H31.4839V21.5458C33.4083 21.1532 34.9274 19.6341 35.32 17.7097H39.3489V28.5323C39.3489 31.2448 41.5558 33.4516 44.2683 33.4516H56.0747C58.7873 33.4516 60.9941 31.2448 60.9941 28.5323V4.91935C60.9941 2.20682 58.7873 0 56.0747 0H44.2683C41.5558 0 39.3489 2.20682 39.3489 4.91935V15.7419H35.32C34.8625 13.4997 32.876 11.8065 30.5 11.8065C28.124 11.8065 26.1375 13.4997 25.68 15.7419H21.6452V4.91935C21.6452 2.20682 19.4383 0 16.7258 0H4.91935C2.20682 0 0 2.20682 0 4.91935V28.5323C0 31.2448 2.20682 33.4516 4.91935 33.4516H16.7258C19.4383 33.4516 21.6452 31.2448 21.6452 28.5323V17.7097H25.68C26.0726 19.6341 27.5917 21.1532 29.5161 21.5458V34.4355H25.8424L25.0238 37.0457C22.5877 37.6232 20.2756 38.5835 18.1347 39.9029L15.7055 38.6346L9.11852 45.2217L10.3877 47.6508C9.06735 49.7908 8.10808 52.1029 7.52956 54.5389L4.91935 55.3585V59.0323H0V61H61V59.0323H56.0806ZM47.2199 4.91935V1.96774H53.1231V4.91935C53.1231 6.54668 51.7988 7.87097 50.1715 7.87097C48.5442 7.87097 47.2199 6.54668 47.2199 4.91935ZM59.0264 9.83871V23.6129H41.3167V9.83871H59.0264ZM56.0747 31.4839H44.2683C42.641 31.4839 41.3167 30.1596 41.3167 28.5323V25.5806H59.0264V28.5323C59.0264 30.1596 57.7021 31.4839 56.0747 31.4839ZM59.0264 4.91935V7.87097H54.0814C54.7062 7.04648 55.0909 6.03113 55.0909 4.91935V1.96774H56.0747C57.7021 1.96774 59.0264 3.29203 59.0264 4.91935ZM44.2683 1.96774H45.2522V4.91935C45.2522 6.03113 45.6369 7.04648 46.2616 7.87097H41.3167V4.91935C41.3167 3.29203 42.641 1.96774 44.2683 1.96774ZM7.87097 4.91935V1.96774H13.7742V4.91935C13.7742 6.54668 12.4499 7.87097 10.8226 7.87097C9.19526 7.87097 7.87097 6.54668 7.87097 4.91935ZM19.6774 9.83871V23.6129H1.96774V9.83871H19.6774ZM19.6774 4.91935V7.87097H14.7325C15.3572 7.04648 15.7419 6.03113 15.7419 4.91935V1.96774H16.7258C18.3531 1.96774 19.6774 3.29203 19.6774 4.91935ZM4.91935 1.96774H5.90323V4.91935C5.90323 6.03113 6.28792 7.04648 6.91268 7.87097H1.96774V4.91935C1.96774 3.29203 3.29203 1.96774 4.91935 1.96774ZM16.7258 31.4839H4.91935C3.29203 31.4839 1.96774 30.1596 1.96774 28.5323V25.5806H19.6774V28.5323C19.6774 30.1596 18.3531 31.4839 16.7258 31.4839ZM27.5484 16.7258C27.5484 15.0985 28.8727 13.7742 30.5 13.7742C32.1273 13.7742 33.4516 15.0985 33.4516 16.7258C33.4516 18.3531 32.1273 19.6774 30.5 19.6774C28.8727 19.6774 27.5484 18.3531 27.5484 16.7258ZM6.8871 56.8028L9.20805 56.0747L9.3271 55.512C9.8761 52.9185 10.8915 50.4696 12.3456 48.2353L12.6595 47.7532L11.531 45.5926L16.0735 41.0481L18.2351 42.1766L18.7162 41.8627C20.9515 40.4076 23.4014 39.3922 25.9939 38.8442L26.5566 38.7252L27.2867 36.4032H33.7123L34.4404 38.7242L35.0032 38.8432C37.5967 39.3922 40.0455 40.4076 42.2809 41.8617L42.762 42.1756L44.9235 41.0471L49.4661 45.5916L48.3376 47.7522L48.6514 48.2343C50.1066 50.4686 51.1219 52.9175 51.67 55.511L51.789 56.0738L54.1129 56.8028V59.0323H48.1595C47.6449 49.7258 39.9324 42.3065 30.5 42.3065C21.0676 42.3065 13.3551 49.7258 12.8405 59.0323H6.8871V56.8028ZM30.5 48.2097C24.3213 48.2097 19.2465 52.9824 18.7437 59.0323H14.8082C15.3199 50.811 22.1528 44.2742 30.5 44.2742C38.8472 44.2742 45.6801 50.811 46.1918 59.0323H42.2563C41.7535 52.9824 36.6787 48.2097 30.5 48.2097ZM40.2885 59.0323H20.7115C21.2073 54.0676 25.4075 50.1774 30.5 50.1774C35.5925 50.1774 39.7936 54.0676 40.2885 59.0323Z" fill="black"/>
</svg>
