<svg width="437" height="302" viewBox="0 0 437 302" fill="none" xmlns="http://www.w3.org/2000/svg">
<rect width="437" height="302" rx="20" fill="url(#paint0_linear_583_99088)"/>
<path opacity="0.2" fill-rule="evenodd" clip-rule="evenodd" d="M282.94 289.963L214.097 250.643C211.542 249.476 207.788 248.374 205.282 249.901L198.87 253.808C197.58 254.594 193.338 257.202 196.175 258.744C204.521 263.283 257.851 294.442 266.326 299.053C267.929 299.925 270.274 300.24 272.736 300.035C275.187 299.832 277.731 299.169 279.677 297.968L282.239 296.388C284.049 295.272 285.052 294.052 285.149 292.882C285.243 291.738 284.508 290.679 282.94 289.963Z" fill="#5F7FFB"/>
<path fill-rule="evenodd" clip-rule="evenodd" d="M141.241 156.222C142.178 157.036 143.183 157.758 144.254 158.383L145.141 156.847C144.169 156.282 143.246 155.615 142.398 154.877L141.241 156.222ZM133.992 140.443L132.222 140.569L131.97 137.031L133.739 136.904L133.992 140.443ZM145.522 52.2466L144.64 53.7854L141.562 52.0206L142.445 50.4818L145.522 52.2466ZM174.801 68.8769L174.634 68.7812L173.752 70.32L173.918 70.4157L174.801 68.8769ZM173.095 67.8986L172.213 69.4374L169.135 67.6722L170.018 66.1334L173.095 67.8986ZM168.479 65.2509L167.597 66.7898L164.519 65.0246L165.402 63.4857L168.479 65.2509ZM163.863 62.6031L162.98 64.142L159.903 62.3767L160.785 60.8379L163.863 62.6031ZM159.247 59.9555L158.364 61.4943L155.287 59.7293L156.169 58.1905L159.247 59.9555ZM154.631 57.308L153.748 58.8469L150.671 57.0818L151.553 55.543L154.631 57.308ZM150.015 54.6606L149.133 56.1994L146.055 54.4346L146.938 52.8957L150.015 54.6606ZM140.106 50.0618L140.065 50.0573C138.719 49.9234 137.407 50.0767 136.169 50.6395L136.911 52.2509C137.816 51.8224 138.924 51.7172 139.911 51.8248L140.106 50.0618ZM134.468 51.7623C133.504 52.6403 132.754 53.8542 132.343 55.0887L134.018 55.6711L134.082 55.4956C134.427 54.5793 134.935 53.736 135.663 53.0736L134.468 51.7623ZM131.87 56.9524C131.74 57.755 131.681 58.5321 131.677 59.3451L131.681 60.6378L133.455 60.6322L133.45 59.3448C133.455 58.6296 133.506 57.9486 133.62 57.2422L131.87 56.9524ZM131.687 62.4118L133.461 62.4062L133.472 65.9538L131.699 65.9594L131.687 62.4118ZM131.704 67.7334L133.478 67.7278L133.49 71.2754L131.716 71.281L131.704 67.7334ZM131.722 73.0547L133.496 73.0492L133.507 76.5967L131.733 76.6023L131.722 73.0547ZM131.739 78.3763L133.513 78.3707L133.525 81.9183L131.751 81.9239L131.739 78.3763ZM131.757 83.6977L133.53 83.6921L133.542 87.2397L131.769 87.2453L131.757 83.6977ZM131.774 89.0193L133.548 89.0137L133.559 92.5613L131.786 92.5669L131.774 89.0193ZM131.792 94.3406L133.565 94.335L133.577 97.8826L131.804 97.8882L131.792 94.3406ZM131.809 99.662L133.583 99.6564L133.595 103.204L131.821 103.21L131.809 99.662ZM131.826 104.984L133.6 104.978L133.611 108.526L131.838 108.531L131.826 104.984ZM131.844 110.305L133.617 110.299L133.628 113.847L131.855 113.853L131.844 110.305ZM131.861 115.627L133.634 115.621L133.645 119.169L131.872 119.174L131.861 115.627ZM131.877 120.948L133.651 120.943L133.662 124.49L131.889 124.496L131.877 120.948ZM131.894 126.269L133.668 126.264L133.679 129.812L131.906 129.817L131.894 126.269ZM131.911 131.591L133.685 131.585L133.696 135.133L131.923 135.138L131.911 131.591ZM132.671 142.399C132.989 143.578 133.388 144.741 133.864 145.865L135.498 145.172C135.05 144.154 134.672 143.008 134.383 141.934L132.671 142.399ZM134.626 147.526C135.088 148.543 135.826 149.761 136.448 150.695L137.926 149.714C137.334 148.787 136.668 147.735 136.214 146.736L134.626 147.526ZM137.501 152.188C138.239 153.166 139.031 154.093 139.894 154.963L141.154 153.714C140.346 152.9 139.608 152.034 138.917 151.119L137.501 152.188Z" fill="url(#paint1_linear_583_99088)"/>
<path fill-rule="evenodd" clip-rule="evenodd" d="M140.575 99.4819C141.22 99.1407 141.871 98.8095 142.514 98.4692C143.089 98.2791 143.818 98.3852 144.612 98.8404C164.304 110.135 183.955 121.826 203.649 133.122C205.505 134.194 207.008 136.797 207.002 138.931L207.099 216.884C207.096 217.854 206.781 218.561 206.265 218.943C205.65 219.398 204.722 220.03 203.945 220.12C203.644 220.155 203.343 220.114 203.062 219.952C183.369 208.657 164.083 195.962 144.393 184.669C142.535 183.596 141.034 180.993 141.039 178.86L140.575 99.4819Z" fill="#D0E7FF"/>
<path fill-rule="evenodd" clip-rule="evenodd" d="M139.574 101.651C139.58 99.5171 141.091 98.6533 142.95 99.7269C162.642 111.021 182.293 122.713 201.986 134.008C203.843 135.081 205.346 137.684 205.34 139.817L205.436 217.771C205.43 219.904 203.917 220.766 202.06 219.694C182.368 208.399 162.714 196.706 143.024 185.412C141.165 184.339 139.664 181.737 139.67 179.604L139.574 101.651Z" fill="url(#paint2_linear_583_99088)"/>
<path fill-rule="evenodd" clip-rule="evenodd" d="M139.633 139.455L205.371 177.409L205.382 188.534L139.646 150.538L139.633 139.455Z" fill="#6699FD"/>
<path fill-rule="evenodd" clip-rule="evenodd" d="M139.633 167.23L205.371 205.184L205.382 216.309L139.646 178.313L139.633 167.23Z" fill="#6699FD"/>
<path opacity="0.8" fill-rule="evenodd" clip-rule="evenodd" d="M182.825 152.194C182.827 151.254 182.412 150.34 181.497 149.811C180.653 149.324 180.199 149.143 179.719 148.989L179.716 149.959L181.031 150.719C181.493 150.986 181.69 151.149 181.688 151.558C181.687 152.057 180.234 152.569 179.762 152.666L179.759 153.789L182.815 155.553L182.819 154.388L181.594 153.681C181.949 153.509 182.822 153.112 182.825 152.194Z" fill="white"/>
<path opacity="0.8" fill-rule="evenodd" clip-rule="evenodd" d="M199.219 161.599V161.344C199.222 160.548 198.762 159.842 198.121 159.462C197.969 159.372 197.818 159.283 197.667 159.195C197.128 158.883 196.603 158.609 196.192 158.533L196.189 159.512L197.541 160.293C197.852 160.473 198.09 160.611 198.09 160.958V161.019C198.089 161.326 197.947 161.244 197.538 161.028L196.587 160.539L196.585 161.613L197.535 162.212C197.916 162.443 198.076 162.556 198.075 162.862V162.923C198.075 163.24 197.95 163.168 197.506 162.911L196.227 162.173L196.224 163.172C196.68 163.614 197.271 163.962 197.872 164.31C197.936 164.346 197.998 164.382 198.062 164.419C198.763 164.824 199.21 164.621 199.212 163.814L199.213 163.61C199.215 163.11 199.091 162.65 198.726 162.297C199.083 162.36 199.218 162.099 199.219 161.599Z" fill="white"/>
<path opacity="0.8" fill-rule="evenodd" clip-rule="evenodd" d="M148.878 134.036C148.876 134.392 148.743 134.346 148.556 134.239L148.308 134.096C148.184 134.024 147.979 133.886 147.98 133.507L147.985 131.721C147.986 131.638 147.978 131.328 148.271 131.496L148.608 131.691C148.769 131.784 148.883 131.932 148.883 132.24L148.878 134.036ZM148.94 130.707L147.99 130.159C147.253 129.733 146.851 129.992 146.848 130.87L146.842 133.137C146.84 133.933 147.212 134.629 147.967 135.064L148.926 135.618C149.619 136.018 150.012 135.755 150.014 134.969L150.021 132.631C150.023 131.936 149.793 131.2 148.94 130.707Z" fill="white"/>
<path opacity="0.8" fill-rule="evenodd" clip-rule="evenodd" d="M164.63 140.098L163.927 140.244L163.924 141.071L164.608 141.332L164.598 144.998L165.736 145.655L165.749 140.743L164.63 140.098Z" fill="white"/>
<path opacity="0.8" fill-rule="evenodd" clip-rule="evenodd" d="M162.31 128.693L162.33 121.698L158.177 122.811L162.31 128.693Z" fill="white"/>
<path opacity="0.8" fill-rule="evenodd" clip-rule="evenodd" d="M163.09 122.136L163.07 129.131L163.83 129.57L163.849 122.575L163.09 122.136Z" fill="white"/>
<path opacity="0.8" fill-rule="evenodd" clip-rule="evenodd" d="M147.378 116.575L151.525 122.48L151.545 115.471L147.378 116.575Z" fill="white"/>
<path opacity="0.8" fill-rule="evenodd" clip-rule="evenodd" d="M146.004 119.293L146.752 119.709L146.771 112.713L146.024 112.282L146.004 119.293Z" fill="white"/>
<path opacity="0.8" fill-rule="evenodd" clip-rule="evenodd" d="M185.486 135.066L185.466 142.061L189.633 140.972L185.486 135.066Z" fill="white"/>
<path opacity="0.8" fill-rule="evenodd" clip-rule="evenodd" d="M183.972 141.2L184.719 141.629L184.738 134.634L183.992 134.205L183.972 141.2Z" fill="white"/>
<path opacity="0.8" fill-rule="evenodd" clip-rule="evenodd" d="M172.19 127.389L172.17 134.4L176.324 133.288L172.19 127.389Z" fill="#00CEDC"/>
<path opacity="0.8" fill-rule="evenodd" clip-rule="evenodd" d="M194.848 147.493L199.002 146.381L194.868 140.482L194.848 147.493Z" fill="white"/>
<path opacity="0.8" fill-rule="evenodd" clip-rule="evenodd" d="M199.618 143.226L199.598 150.221L200.358 150.675L200.378 143.663L199.618 143.226Z" fill="white"/>
<path fill-rule="evenodd" clip-rule="evenodd" d="M139.648 152.2L140.454 151.628L140.722 153.085L141.225 152.512L142.13 153.371L142.465 154.33L143.538 154.763L144.443 143.753L144.275 155.444L144.544 154.857L144.812 155.376L145.181 154.157L145.483 153.404L145.751 155.767L146.556 157.023C146.556 157.023 147.394 158.448 147.461 158.25C147.528 158.054 148.635 151.179 148.635 151.179L148.701 157.587L150.177 148.489L149.875 157.959L150.881 149.068V158.657L152.088 153.934L152.188 157.394L152.792 155.251L153.094 159.56L153.999 156.865L154.166 161.569L155.105 159.211L154.904 162.552L154.837 164.928L155.441 163.791L155.575 165.509C155.575 165.509 156.111 163.764 156.178 164.305C156.245 164.846 156.413 166.331 156.413 166.331C156.413 166.331 157.017 164.154 157.05 164.458C157.084 164.762 157.607 164.957 157.653 164.695C158.082 162.281 158.44 159.983 158.961 157.766L158.425 166.317L158.744 167.677L159.229 162.408L159.9 158.827V162.314L159.363 167.714C159.137 169.995 159.995 163.674 160.369 161.404C160.369 161.404 160.637 159.81 160.637 160.481C160.637 161.152 160.571 163.83 160.571 163.83L160.168 168.547L160.419 168.654L162.247 152.195L161.442 170.387C162.382 167.354 162.704 165.349 163.119 162.189L162.716 168.317L162.515 170.92L163.32 166.811L163.856 165.032L164.057 166.319L164.46 165.404L164.728 167.029L165.264 166.19L165.566 167.046L165.6 169.931L165.868 168.874L165.935 170.085L166.472 169.447L166.539 170.256L167.31 171.241L168.014 172.457L168.953 167.417L168.819 172.639L170.216 163.777L170.026 172.578C171.392 167.487 172.225 151.656 171.97 157.003L171.424 168.476L171.568 168.312L171.836 169.77L172.339 169.196L173.244 170.055L173.579 171.014L174.652 171.447L175.557 160.437L175.39 172.129L175.658 171.541L175.926 172.06L176.295 170.842L176.597 170.088L176.865 172.451L177.67 173.707C177.67 173.707 178.508 175.132 178.575 174.935C178.642 174.738 179.749 167.863 179.749 167.863L179.816 174.271L181.291 165.173L180.989 174.643L181.995 165.751V175.341L183.202 170.619L183.303 174.078L183.906 171.935L184.208 176.244L185.113 173.549L185.281 178.253L186.22 175.895L186.018 179.236L185.951 181.612L186.555 180.475L186.689 182.193C186.689 182.193 187.226 180.448 187.293 180.989C187.36 181.529 187.527 183.015 187.527 183.015C187.527 183.015 188.131 180.838 188.164 181.142C188.198 181.446 188.721 181.641 188.768 181.379C189.197 178.965 189.554 176.666 190.076 174.45L189.539 183.001L189.858 184.361L190.344 179.093L191.014 175.512V178.999L190.478 184.398C190.251 186.679 191.109 180.359 191.484 178.088C191.484 178.088 191.752 176.495 191.752 177.165C191.752 177.836 191.685 180.514 191.685 180.514L191.282 185.231L191.534 185.338L193.361 168.879L192.556 187.071C193.496 184.038 193.818 182.033 194.233 178.873L193.831 185.001L193.629 187.604L194.434 183.495L194.971 181.717L195.172 183.003L195.574 182.088L195.842 183.714L196.379 182.874L196.681 183.73L196.714 186.615L196.982 185.558L197.049 186.769L197.586 186.131L197.653 186.94L198.424 187.925L199.128 189.141L200.067 184.1L199.933 189.323L201.33 180.461L201.14 189.261C202.091 184.145 202.967 168.106 203.084 173.687L203.445 190.855L204.557 190.25L204.757 191.81L205.471 191.405L205.453 203.383L204.686 201.801L203.845 201.772L203 200.688L201.798 214.192C201.302 219.776 201.934 203.065 200.957 196.376L200.561 205.368L199.802 194.886L199.587 200.246L199.017 194.114L198.261 194.491L197.456 194.559L197.338 195.285L196.865 194.014L196.72 195.141L196.533 193.771L196.31 196.605L195.964 197.1L195.504 195.629L195.139 196.93L194.813 195.543L194.535 196.586L194.137 194.179L193.635 189.133L193.657 191.964L193.639 198.545C193.449 194.905 193.272 192.527 192.57 188.394L192.143 207.466L191.473 188.908L191.224 188.717L191.3 193.892C191.3 193.892 191.188 196.639 191.144 197.307C191.099 197.975 190.947 196.071 190.947 196.071C190.737 193.365 190.33 186.054 190.397 188.594L190.556 194.607L190.326 198.081L189.918 193.719L189.799 187.897L189.403 188.873L189.355 198.026C189 195.2 188.808 192.488 188.555 189.575C188.528 189.259 188.013 188.834 187.96 189.097C187.908 189.36 187.472 186.477 187.472 186.477C187.472 186.477 187.213 187.758 187.113 188.217C187.013 188.676 186.613 186.302 186.613 186.302L186.371 187.855L185.866 186.007L185.774 188.454L185.747 192.019L185 188.559L184.529 193.046L183.838 189.289L183.264 193.224L182.826 190.375L182.501 193.702L181.653 187.569L181.021 197.12L180.641 187.072L180.307 196.862L179.489 186.053L179.003 192.356C179.003 192.356 178.393 184.198 178.342 183.923C178.29 183.647 177.391 184.073 177.391 184.073L176.535 184.371L176.122 186.407L175.882 185.299L175.608 183.649L175.317 183.848L175.098 182.945L174.488 194.789L174.345 182.751L173.285 181.911L172.901 182.469L171.974 182.252L171.529 181.085L171.175 182.22L170.986 181.725L170.684 197.509C170.576 203.137 170.82 186.382 169.843 179.693L169.446 188.684L168.688 178.202L168.473 183.563L167.903 177.431L167.147 177.808L166.342 177.876L166.224 178.602L165.751 177.33L165.606 178.457L165.419 177.087L165.196 179.921L164.85 180.416L164.39 178.945L164.025 180.246L163.699 178.859L163.421 179.901L163.023 177.494L162.521 172.449L162.543 175.28L162.525 181.861C162.335 178.221 162.158 175.843 161.456 171.709L161.029 190.782L160.359 172.224L160.111 172.033L160.186 177.208C160.186 177.208 160.074 179.955 160.03 180.623C159.985 181.29 159.833 179.386 159.833 179.386C159.623 176.681 159.216 169.37 159.283 171.909L159.442 177.923L159.212 181.396L158.804 177.035L158.685 171.212L158.289 172.189L158.241 181.342C157.886 178.516 157.694 175.803 157.441 172.891C157.414 172.575 156.899 172.15 156.847 172.413C156.794 172.676 156.358 169.793 156.358 169.793C156.358 169.793 156.099 171.074 155.999 171.533C155.899 171.992 155.499 169.618 155.499 169.618L155.257 171.171L154.752 169.323L154.66 171.77L154.633 175.335L153.887 171.875L153.415 176.362L152.724 172.606L152.15 176.541L151.712 173.691L151.387 177.018L150.539 170.884L149.907 180.436L149.527 170.388L149.193 180.178L148.375 169.369L147.889 175.672C147.889 175.672 147.279 167.514 147.228 167.238C147.176 166.963 146.277 167.389 146.277 167.389L145.422 167.687L145.008 169.723L144.768 168.615L144.495 166.965L144.203 167.164L143.984 166.261L143.375 178.105L143.231 166.066L142.172 165.227L141.787 165.785L140.86 165.568L140.415 164.402L140.062 165.536L139.616 164.369L139.648 152.2Z" fill="#4551FB"/>
<path fill-rule="evenodd" clip-rule="evenodd" d="M145.645 134.715L148.125 138.112L148.383 138.466L148.644 138.412L151.144 137.891L145.645 134.715Z" fill="#00CEDC"/>
<path fill-rule="evenodd" clip-rule="evenodd" d="M197.383 165.392C197.367 171.436 197.35 194.523 197.333 216.974L197.95 217.33C197.967 194.878 197.985 171.792 197.999 165.748L197.383 165.392ZM181.517 207.793C181.535 185.358 181.552 162.301 181.569 156.261L180.953 155.906C180.936 161.945 180.919 185 180.902 207.435L181.517 207.793ZM165.08 198.194C165.097 175.792 165.114 152.801 165.13 146.771L164.515 146.416C164.498 152.445 164.481 175.435 164.464 197.835L165.08 198.194Z" fill="#6BB6FF"/>
<path fill-rule="evenodd" clip-rule="evenodd" d="M148.084 136.928C148.066 142.953 148.049 165.91 148.032 188.293L148.648 188.648C148.665 166.265 148.682 143.309 148.7 137.284C148.473 137.154 148.332 137.073 148.084 136.928Z" fill="#00CEDC"/>
<path opacity="0.5" fill-rule="evenodd" clip-rule="evenodd" d="M193.547 127.295C196.913 129.246 200.28 131.19 203.648 133.122C205.504 134.194 207.007 136.797 207.001 138.931L207.098 216.884C207.095 217.854 206.781 218.561 206.265 218.943C205.649 219.398 204.722 220.03 203.944 220.12L203.921 220.123C203.386 220.222 202.746 220.091 202.059 219.694C198.493 217.648 194.928 215.59 191.364 213.523V127.894L193.547 127.295Z" fill="url(#paint3_linear_583_99088)"/>
<path fill-rule="evenodd" clip-rule="evenodd" d="M284.839 259.227C284.829 262.574 283.635 264.93 281.727 266.039L278.7 267.859C268.313 263.427 272.168 210.79 271.535 195.826L274.724 117.295C272.043 112.609 261.726 108.52 264.134 98.9506L233.692 84.7006C232.34 83.7815 196.815 63.2081 203.192 59.35C204.259 58.705 205.314 58.0551 206.368 57.4431C208.722 56.0503 211.723 56.9111 213.926 58.1821L274.501 92.9266C280.447 96.3524 285.11 104.641 285.092 111.27L284.839 259.227Z" fill="#D0E7FF"/>
<path fill-rule="evenodd" clip-rule="evenodd" d="M200.097 66.1579C200.106 62.8766 201.242 60.5461 203.084 59.411C205.023 58.215 207.745 58.3446 210.756 60.0831L271.331 94.8267C277.193 98.2124 281.94 106.433 281.92 113.171L281.668 261.127C281.649 267.864 276.871 270.587 271.008 267.202L210.434 232.458C204.564 229.069 199.824 220.851 199.843 214.114L200.097 66.1579Z" fill="url(#paint4_linear_583_99088)"/>
<path fill-rule="evenodd" clip-rule="evenodd" d="M273.465 107.169C275.052 108.086 276.343 107.35 276.348 105.526C276.353 103.701 275.071 101.48 273.483 100.564C271.896 99.6476 270.605 100.383 270.6 102.207C270.595 104.031 271.877 106.253 273.465 107.169Z" fill="#485AF4"/>
<path fill-rule="evenodd" clip-rule="evenodd" d="M227.471 77.519C227.473 77.0222 227.824 76.8268 228.257 77.0842C234.552 80.6411 244.868 86.4473 251.162 90.0038C251.595 90.2608 251.945 90.8728 251.943 91.37L251.943 92.3533C251.942 92.8501 251.589 93.0449 251.157 92.788C244.862 89.2312 234.547 83.4248 228.252 79.8685C227.819 79.6113 227.469 78.9995 227.471 78.5023L227.471 77.519Z" fill="#485AF4"/>
<path opacity="0.5" fill-rule="evenodd" clip-rule="evenodd" d="M200.562 60.8369L208.743 65.5467C210.756 66.7094 212.386 69.5327 212.379 71.8467L212.293 122.658C212.286 124.972 210.519 125.907 208.506 124.745L200.024 119.863L200.562 60.8369Z" fill="url(#paint5_linear_583_99088)"/>
<path fill-rule="evenodd" clip-rule="evenodd" d="M209.565 115.686C209.562 116.727 209.194 117.46 208.6 117.805C208.17 118.068 207.74 118.333 207.309 118.596C204.187 117.266 205.303 100.662 205.113 96.1611L206.105 71.7347C205.271 70.2773 202.062 69.0053 202.811 66.0289L193.342 61.5965L169.557 47.0216C169.522 46.8113 169.223 45.6588 169.349 45.5755C169.479 45.4895 169.627 45.3967 169.779 45.304L169.786 45.2978C170.108 45.1029 170.426 44.907 170.744 44.7222C171.476 44.2888 172.41 44.5567 173.095 44.9521L206.35 63.9596C208.199 65.0251 209.649 67.6032 209.644 69.6651L209.565 115.686Z" fill="#D0E7FF"/>
<path fill-rule="evenodd" clip-rule="evenodd" d="M168.494 47.6297C168.499 45.5341 169.984 44.6861 171.809 45.7403L205.063 64.7473C206.887 65.8003 208.363 68.3575 208.357 70.4531L208.279 116.474C208.273 118.569 206.787 119.416 204.963 118.363L171.709 99.356C169.883 98.3016 168.409 95.7458 168.415 93.6503L168.494 47.6297Z" fill="url(#paint6_linear_583_99088)"/>
<path fill-rule="evenodd" clip-rule="evenodd" d="M171.359 49.8442C171.36 49.5938 171.537 49.4923 171.755 49.6184L175.728 51.8892C175.946 52.0148 176.122 52.3203 176.121 52.5707L176.112 58.0687C176.111 58.319 175.934 58.4202 175.716 58.2944L171.743 56.0238C171.525 55.8977 171.349 55.5925 171.35 55.342L171.359 49.8442Z" fill="#FFB7E8"/>
<path fill-rule="evenodd" clip-rule="evenodd" d="M176.92 55.136C176.921 54.5961 177.304 54.3839 177.774 54.6636C184.613 58.5279 195.821 64.8367 202.66 68.7007C203.13 68.9799 203.511 69.6452 203.509 70.1851L203.509 71.2534C203.508 71.7933 203.125 72.0049 202.655 71.7258C195.816 67.8614 184.608 61.5528 177.769 57.6885C177.298 57.409 176.918 56.7442 176.92 56.2045L176.92 55.136Z" fill="#FFB7E8"/>
<path fill-rule="evenodd" clip-rule="evenodd" d="M171.35 59.5788C171.351 59.0389 171.734 58.8269 172.204 59.1064C179.043 62.9707 178.097 62.4901 184.937 66.3541C185.406 66.6335 185.787 67.2987 185.785 67.8385L185.785 68.9067C185.784 69.4465 185.4 69.6582 184.931 69.379C178.092 65.5146 179.037 65.9954 172.198 62.1311C171.728 61.8516 171.348 61.1868 171.35 60.6469L171.35 59.5788Z" fill="#FFB7E8"/>
<path fill-rule="evenodd" clip-rule="evenodd" d="M171.35 65.1945C171.351 64.6547 171.734 64.4426 172.204 64.7222C179.043 68.5864 178.097 68.1058 184.937 71.9699C185.406 72.2492 185.787 72.9144 185.785 73.4543L185.785 74.5226C185.784 75.0625 185.4 75.2741 184.931 74.9951C178.092 71.1307 179.037 71.6115 172.198 67.7472C171.728 67.4677 171.348 66.8029 171.35 66.263L171.35 65.1945Z" fill="#FFB7E8"/>
<path fill-rule="evenodd" clip-rule="evenodd" d="M171.359 70.9667C171.36 70.7163 171.537 70.615 171.755 70.7409L175.728 73.0116C175.946 73.1373 176.122 73.4428 176.121 73.693L176.112 79.1912C176.111 79.4413 175.934 79.5427 175.716 79.4168L171.743 77.1463C171.525 77.0204 171.349 76.7149 171.35 76.4645L171.359 70.9667Z" fill="#FFB7E8"/>
<path fill-rule="evenodd" clip-rule="evenodd" d="M176.92 76.2589C176.921 75.7193 177.304 75.507 177.774 75.7866C184.613 79.6508 195.821 85.9596 202.66 89.8235C203.13 90.1028 203.511 90.768 203.509 91.3078L203.509 92.376C203.508 92.9158 203.125 93.1275 202.655 92.8483C195.816 88.9839 184.608 82.6753 177.769 78.8111C177.298 78.5316 176.918 77.8668 176.92 77.3271L176.92 76.2589Z" fill="#FFB7E8"/>
<path fill-rule="evenodd" clip-rule="evenodd" d="M171.35 80.7013C171.351 80.1615 171.734 79.9495 172.204 80.229C179.043 84.0932 178.097 83.6127 184.937 87.4767C185.406 87.7559 185.787 88.4212 185.785 88.9611L185.785 90.0294C185.784 90.5693 185.4 90.7809 184.931 90.5018C178.092 86.6374 179.037 87.1181 172.198 83.2539C171.728 82.9743 171.348 82.3095 171.35 81.7697L171.35 80.7013Z" fill="#FFB7E8"/>
<path fill-rule="evenodd" clip-rule="evenodd" d="M171.35 86.3173C171.351 85.7774 171.734 85.5654 172.204 85.845C179.043 89.7092 178.097 89.2286 184.937 93.0925C185.406 93.3718 185.787 94.037 185.785 94.5769L185.785 95.645C185.784 96.1849 185.4 96.3965 184.931 96.1174C178.092 92.253 179.037 92.7337 172.198 88.8695C171.728 88.5899 171.348 87.9251 171.35 87.3853L171.35 86.3173Z" fill="#FFB7E8"/>
<path fill-rule="evenodd" clip-rule="evenodd" d="M171.35 92.0593C171.351 91.5195 171.734 91.3073 172.204 91.587C179.043 95.4512 178.097 94.9707 184.937 98.8345C185.406 99.1139 185.787 99.779 185.785 100.319L185.785 101.387C185.784 101.927 185.4 102.139 184.931 101.86C178.092 97.9952 179.037 98.4759 172.198 94.6117C171.728 94.3322 171.348 93.6674 171.35 93.1277L171.35 92.0593Z" fill="#FFB7E8"/>
<path fill-rule="evenodd" clip-rule="evenodd" d="M290.602 223.54C290.607 221.792 290.2 220.702 290.955 219.752C291.532 219.027 292.874 218.408 293.575 218.165C294.933 217.695 296.657 217.938 298.532 219.02L315.842 228.846C320.203 231.364 323.734 237.48 323.72 242.493L323.532 254.98C323.528 256.534 323.203 258.523 322.011 259.614C321.163 260.391 319.674 261.17 318.567 261.26C317.432 261.352 316.992 260.302 315.601 259.499L298.292 249.674C293.925 247.152 290.399 241.039 290.413 236.027L290.602 223.54Z" fill="#D0E7FF"/>
<path fill-rule="evenodd" clip-rule="evenodd" d="M289.339 224.283C289.353 219.27 292.903 217.242 297.269 219.763L314.579 229.589C318.94 232.107 322.472 238.223 322.458 243.236L322.27 255.722C322.256 260.734 318.701 262.76 314.339 260.242L297.03 250.417C292.663 247.895 289.136 241.781 289.15 236.77L289.339 224.283Z" fill="url(#paint7_linear_583_99088)"/>
<path fill-rule="evenodd" clip-rule="evenodd" d="M309.352 236.204L319.359 246.976L319.352 249.719L309.316 248.942L309.325 245.705L316.338 246.579L309.343 239.428L309.352 236.204Z" fill="white"/>
<path fill-rule="evenodd" clip-rule="evenodd" d="M307.89 233.193C308.071 233.486 308.158 233.782 308.157 234.105C308.156 234.336 308.079 234.73 307.937 235.271L305.106 246.862C305.016 247.249 304.927 247.544 304.862 247.756C304.785 247.97 304.684 248.101 304.532 248.161C304.394 248.225 304.19 248.181 303.912 248.02C303.242 247.634 302.902 247.086 302.904 246.422C302.905 246.246 302.97 245.845 303.108 245.214L305.927 233.616C306.07 233.001 306.212 232.602 306.349 232.419C306.478 232.23 306.743 232.253 307.12 232.472C307.461 232.668 307.714 232.902 307.89 233.193Z" fill="white"/>
<path fill-rule="evenodd" clip-rule="evenodd" d="M291.684 233.745L291.691 230.969L301.731 231.762L301.722 235.028L294.734 234.092L301.704 241.291L301.695 244.528L291.684 233.745Z" fill="white"/>
<path opacity="0.5" fill-rule="evenodd" clip-rule="evenodd" d="M252.999 117.299L247.003 114.326C246.034 113.844 245.181 112.724 244.888 111.551L243.102 104.277C242.781 102.969 241.89 101.952 240.996 101.507C240.102 101.062 239.201 101.187 238.857 102.165L236.954 107.596C236.65 108.478 235.784 108.743 234.816 108.261L228.819 105.269C226.647 104.179 225.717 106.811 227.463 109.1L232.287 115.432C233.064 116.449 233.382 117.736 233.069 118.606L231.149 124.028C230.62 125.512 231.85 127.653 233.246 128.348C233.683 128.565 234.138 128.641 234.559 128.51L239.439 126.987C239.833 126.863 240.296 126.933 240.758 127.163C241.218 127.392 241.678 127.78 242.066 128.293L246.881 134.64C247.296 135.189 247.748 135.563 248.186 135.781C249.581 136.475 250.839 135.573 250.343 133.578L248.533 126.3C248.247 125.132 248.586 124.172 249.376 123.935L254.271 122.438C256.033 121.897 255.166 118.378 252.999 117.299Z" fill="white"/>
<path opacity="0.8" fill-rule="evenodd" clip-rule="evenodd" d="M228.603 133.656C228.605 132.58 229.367 132.158 230.304 132.715L251.474 144.676C252.41 145.232 253.167 146.558 253.164 147.633L253.164 149.761C253.161 150.836 252.398 151.258 251.462 150.702L230.292 138.74C229.355 138.183 228.599 136.859 228.602 135.783L228.603 133.656Z" fill="white"/>
<path fill-rule="evenodd" clip-rule="evenodd" d="M216.59 196.794C216.592 195.943 217.195 195.598 217.936 196.027C227.69 201.62 254.046 216.756 263.799 222.35C264.54 222.778 265.14 223.816 265.137 224.667L265.176 233.088C265.174 233.939 264.57 234.283 263.829 233.855C254.076 228.261 227.72 213.126 217.966 207.532C217.225 207.104 216.626 206.066 216.628 205.215L216.59 196.794Z" fill="white"/>
<path fill-rule="evenodd" clip-rule="evenodd" d="M274.539 179.991L269.196 176.907L266.559 181.18L263.966 173.887L258.606 170.793L264.114 184.524L258.639 191.731L263.982 194.815L266.533 190.677L269.011 197.719L274.354 200.803L268.955 187.319L274.539 179.991Z" fill="white"/>
<path fill-rule="evenodd" clip-rule="evenodd" d="M252.283 178.935C252.276 181.5 252.237 183.231 250.004 181.943C247.648 180.581 247.6 178.918 247.608 176.236L247.641 164.462L242.824 161.681L242.79 173.455C242.764 182.54 246.266 184.771 249.522 186.651C249.679 186.741 249.835 186.832 249.991 186.921C253.01 188.665 257.11 190.973 257.136 181.737L257.169 169.962L252.317 167.161L252.283 178.935Z" fill="white"/>
<path fill-rule="evenodd" clip-rule="evenodd" d="M229.418 176.949L234.361 179.804L241.422 159.774L236.479 156.92L229.418 176.949Z" fill="white"/>
<path fill-rule="evenodd" clip-rule="evenodd" d="M223.51 171.449L228.328 174.231L228.387 153.345L223.569 150.564L223.51 171.449Z" fill="white"/>
<path fill-rule="evenodd" clip-rule="evenodd" d="M216.737 158.413C216.73 160.977 216.674 162.699 214.459 161.42C212.09 160.053 212.054 158.396 212.062 155.714L212.095 143.94L207.26 141.148L207.227 152.923C207.201 162.008 210.718 164.247 213.976 166.128C214.133 166.219 214.289 166.309 214.444 166.399C217.447 168.132 221.569 170.453 221.595 161.217L221.628 149.444L216.771 146.639L216.737 158.413Z" fill="white"/>
<path opacity="0.5" fill-rule="evenodd" clip-rule="evenodd" d="M204.031 136.382L204.04 133.039L206.926 134.705L206.917 138.021L204.031 136.382ZM204.031 168.569L204.04 165.226L206.926 166.892L206.917 170.208L204.031 168.569ZM274.708 176.683L274.717 173.34L277.603 175.006L277.594 178.322L274.708 176.683ZM274.708 208.87L274.717 205.527L277.603 207.193L277.594 210.509L274.708 208.87ZM207.818 136.973L207.822 139.561L205.523 138.251L205.592 165.09L207.813 166.359L207.817 168.746L273.817 206.661L273.813 203.987L275.868 205.162L275.799 178.324L273.821 177.197L273.817 174.887L207.818 136.973ZM204.89 137.891L204.96 164.728L203.136 163.686L203.144 169.082L207.822 171.748L207.818 169.475L273.818 207.39L273.821 209.383L278.498 212.049L278.49 206.66L276.501 205.523L276.432 178.685L278.498 179.862L278.49 174.473L273.813 171.8L273.816 174.158L207.816 136.244L207.813 134.172L203.136 131.499L203.144 136.895L204.89 137.891Z" fill="white"/>
<path opacity="0.5" fill-rule="evenodd" clip-rule="evenodd" d="M271.054 112.958L281.975 119.365L285.059 117.242L285.047 175.448L284.923 203.726L281.732 205.242C274.947 201.284 272.669 200.376 265.879 196.481C264.03 195.414 262.538 192.827 262.543 190.705L262.451 116.08C262.444 110.382 266.974 110.178 271.054 112.958Z" fill="url(#paint8_linear_583_99088)"/>
<path fill-rule="evenodd" clip-rule="evenodd" d="M267.855 113.495L269.35 112.705C269.872 112.533 270.534 112.629 271.255 113.042C289.137 123.298 306.981 133.915 324.864 144.172C326.55 145.146 327.915 147.51 327.909 149.447L327.997 220.234C327.994 221.114 327.709 221.756 327.24 222.103C326.677 222.519 325.517 223.421 324.598 222.89C306.715 212.633 289.202 201.105 271.322 190.85C269.635 189.876 268.272 187.513 268.277 185.575L267.855 113.495Z" fill="#D0E7FF"/>
<path fill-rule="evenodd" clip-rule="evenodd" d="M266.946 115.465C266.952 113.527 268.324 112.743 270.012 113.718C287.893 123.974 305.738 134.59 323.621 144.848C325.306 145.821 326.671 148.185 326.665 150.122L326.753 220.909C326.748 222.846 325.373 223.629 323.688 222.655C305.806 212.399 287.958 201.781 270.079 191.526C268.391 190.551 267.028 188.188 267.034 186.251L266.946 115.465Z" fill="url(#paint9_linear_583_99088)"/>
<path fill-rule="evenodd" clip-rule="evenodd" d="M289.903 175.85L283.906 172.341C283.54 172.124 283.251 172.059 283.042 172.107C282.918 172.135 282.815 172.21 282.738 172.319C282.641 172.457 282.579 172.653 282.558 172.889C282.503 173.508 282.736 174.336 283.334 175.172L288.155 181.921C288.598 182.535 288.91 183.221 289.068 183.875C289.233 184.563 289.23 185.228 289.031 185.765L287.112 191.022C286.92 191.545 287.051 192.244 287.362 192.913C287.717 193.675 288.293 194.369 288.898 194.722C289.062 194.818 289.223 194.885 289.374 194.917C289.505 194.942 289.629 194.945 289.742 194.92L294.622 193.817C294.905 193.753 295.209 193.758 295.519 193.826C295.814 193.891 296.115 194.013 296.41 194.185C296.688 194.347 296.966 194.558 297.232 194.81C297.48 195.046 297.719 195.321 297.938 195.631L302.75 202.392C302.924 202.636 303.106 202.846 303.29 203.023C303.474 203.199 303.658 203.339 303.838 203.444C304.087 203.589 304.321 203.663 304.522 203.667C304.672 203.671 304.805 203.632 304.907 203.554C305.016 203.47 305.101 203.333 305.149 203.147C305.219 202.876 305.213 202.515 305.104 202.068C304.502 199.596 303.775 196.994 303.266 194.52C303.118 193.83 303.15 193.205 303.336 192.717C303.548 192.157 303.955 191.767 304.525 191.631C306.082 191.213 307.862 190.898 309.457 190.548C309.576 190.522 309.67 190.467 309.74 190.392C309.896 190.223 309.964 189.932 309.954 189.58C309.942 189.164 309.819 188.685 309.603 188.215C309.279 187.512 308.754 186.846 308.086 186.457L302.09 182.966C301.518 182.632 300.986 182.122 300.56 181.526C300.141 180.939 299.814 180.258 299.647 179.572L297.861 172.14C297.73 171.593 297.486 171.092 297.186 170.671C296.861 170.216 296.471 169.855 296.083 169.629L296.648 168.55C297.197 168.87 297.742 169.37 298.187 169.994C298.586 170.553 298.909 171.217 299.083 171.941L300.868 179.366C300.994 179.879 301.242 180.395 301.564 180.846C301.879 181.286 302.259 181.656 302.655 181.887L308.651 185.378C309.582 185.921 310.302 186.823 310.736 187.766C311.028 188.4 311.195 189.062 311.212 189.652C311.23 190.307 311.066 190.891 310.692 191.295C310.471 191.533 310.183 191.703 309.824 191.782L304.902 192.863C304.727 192.908 304.596 193.048 304.519 193.251C304.413 193.528 304.401 193.907 304.494 194.348L306.322 201.865C306.485 202.535 306.486 203.105 306.368 203.562C306.253 204.004 306.027 204.347 305.723 204.581C305.411 204.82 305.025 204.938 304.598 204.93C304.181 204.922 303.727 204.789 303.273 204.524C303.003 204.366 302.728 204.159 302.46 203.901C302.218 203.669 301.979 203.392 301.75 203.07L296.936 196.307C296.771 196.076 296.592 195.869 296.405 195.692C296.223 195.519 296.033 195.374 295.845 195.265C295.673 195.165 295.505 195.095 295.35 195.061C295.221 195.032 295.1 195.029 294.996 195.052L290.113 196.154C289.818 196.22 289.517 196.217 289.218 196.154C288.916 196.089 288.618 195.968 288.333 195.802C287.485 195.306 286.697 194.375 286.229 193.369C285.781 192.409 285.611 191.356 285.926 190.499L287.846 185.243C287.96 184.937 287.955 184.524 287.846 184.075C287.729 183.59 287.493 183.075 287.157 182.605L282.335 175.856C281.532 174.737 281.224 173.573 281.304 172.672C281.343 172.23 281.477 171.84 281.693 171.533C281.929 171.198 282.259 170.966 282.668 170.872C283.176 170.757 283.79 170.862 284.471 171.263L290.468 174.771L289.903 175.85Z" fill="white"/>
<path fill-rule="evenodd" clip-rule="evenodd" d="M297.689 140.875L294.513 139.186L291.338 137.235C291.273 137.47 290.039 141.932 288.189 142.448C292.576 150.886 293.036 161.953 293.06 162.535L294.1 163.135L294.089 147.961C293.252 147.244 292.613 146.029 292.616 145.003C292.62 143.818 293.467 143.343 294.5 143.913C295.532 144.509 296.39 145.968 296.386 147.153C296.383 148.178 295.771 148.697 294.933 148.449L294.937 163.619L295.969 164.179C295.993 163.624 296.447 153.085 300.821 149.687C298.98 147.067 297.753 141.184 297.689 140.875Z" fill="#1C8DF3"/>
<path fill-rule="evenodd" clip-rule="evenodd" d="M291.004 132.116L291.012 137.541L298.036 141.569L298.051 136.157L291.004 132.116Z" fill="#485AF4"/>
<path fill-rule="evenodd" clip-rule="evenodd" d="M309.648 176L308.247 175.227L308.252 173.582L309.652 174.39L309.648 176ZM295.902 168.999L293.016 167.334L293.003 164.012L295.912 165.665L295.902 168.999ZM280.559 159.349L279.151 158.537L279.156 156.927L280.564 157.74L280.559 159.349ZM278.88 140.943L278.889 137.6L281.776 139.266L281.766 142.582L278.88 140.943ZM306.991 157.027L307 153.721L309.886 155.36L309.877 158.694L306.991 157.027ZM307.34 172.029L307.352 173.484L299.373 168.923C301.362 169.226 303.149 168.935 304.617 168.081C307.151 166.609 308.735 163.499 308.802 159.1L310.335 159.986L310.781 160.243L310.773 154.845L306.087 152.168L306.104 157.542L307.911 158.586C307.852 162.701 306.363 165.613 303.978 167C302.078 168.109 299.587 168.219 296.808 167.2L296.799 165.151L292.121 162.477L292.123 164.495C289.325 162.33 286.842 159.376 284.932 156.094C282.538 151.967 281.039 147.357 280.989 143.158L282.232 143.867L282.67 144.121L282.662 138.732L277.984 136.059L277.993 141.455L280.097 142.652C280.154 147.134 281.747 152.049 284.288 156.461C285.762 158.986 287.565 161.342 289.557 163.31L281.446 158.672L281.45 157.199L278.251 155.378L278.264 159.076L280.994 160.626L281.439 160.883L281.443 159.436L292.128 165.56L292.13 167.848L296.345 170.281L296.814 170.553L296.829 168.229L307.349 174.275L307.361 175.732L310.09 177.307L310.559 177.551L310.546 173.88L307.34 172.029Z" fill="white"/>
<path fill-rule="evenodd" clip-rule="evenodd" d="M244.885 73.7132L246.659 73.7056L246.673 76.9415C246.674 77.5168 244.836 77.8698 244.896 76.3047L244.885 73.7132ZM338.473 125.212L336.7 125.22L336.684 121.672L338.458 121.665L338.473 125.212ZM327.146 189.413C327.419 189.527 327.698 189.634 327.987 189.734L328.551 188.052C328.162 187.919 328.138 187.917 327.77 187.748C327.092 187.599 326.547 189.018 327.146 189.413ZM329.858 190.196C331.214 190.398 332.509 190.313 333.8 189.835L333.167 188.177C332.191 188.549 331.144 188.594 330.119 188.441L329.858 190.196ZM335.577 188.82C336.642 187.966 337.376 186.862 337.883 185.603L336.233 184.952C335.835 185.93 335.29 186.777 334.459 187.442L335.577 188.82ZM338.427 183.747C338.682 182.445 338.694 181.367 338.688 180.042L336.914 180.05C336.92 181.255 336.917 182.225 336.685 183.408L338.427 183.747ZM338.68 178.268L336.906 178.276L336.891 174.728L338.664 174.721L338.68 178.268ZM338.656 172.947L336.883 172.955L336.868 169.407L338.641 169.399L338.656 172.947ZM338.633 167.625L336.86 167.633L336.844 164.085L338.618 164.078L338.633 167.625ZM338.61 162.304L336.837 162.312L336.821 158.764L338.595 158.756L338.61 162.304ZM338.587 156.982L336.814 156.99L336.798 153.443L338.572 153.435L338.587 156.982ZM338.564 151.661L336.791 151.669L336.776 148.121L338.549 148.114L338.564 151.661ZM338.542 146.34L336.768 146.347L336.753 142.8L338.527 142.792L338.542 146.34ZM338.519 141.018L336.745 141.026L336.73 137.478L338.503 137.471L338.519 141.018ZM338.496 135.697L336.722 135.704L336.707 132.157L338.481 132.149L338.496 135.697ZM338.473 130.375L336.7 130.383L336.684 126.835L338.458 126.828L338.473 130.375ZM338.249 119.617C338.075 118.397 337.799 117.204 337.438 116.026L335.743 116.55C336.082 117.612 336.336 118.77 336.493 119.874L338.249 119.617ZM336.839 114.292C336.405 113.156 335.889 112.042 335.315 110.97L333.752 111.809C334.293 112.813 334.778 113.867 335.185 114.932L336.839 114.292ZM334.403 109.385C333.759 108.343 333.062 107.355 332.296 106.399L330.914 107.512C331.634 108.41 332.29 109.34 332.895 110.32L334.403 109.385ZM331.099 105.01C330.263 104.106 329.37 103.264 328.404 102.499L327.305 103.892C328.2 104.605 329.018 105.373 329.795 106.213L331.099 105.01ZM326.895 101.414C325.893 100.769 324.819 100.193 323.792 99.6033L322.909 101.142C323.914 101.718 324.958 102.276 325.936 102.906L326.895 101.414ZM322.253 98.7207L321.37 100.26L318.293 98.4939L319.175 96.9551L322.253 98.7207ZM317.636 96.0723L316.754 97.6111L313.676 95.8459L314.559 94.3071L317.636 96.0723ZM313.02 93.4247L312.138 94.9635L309.06 93.1983L309.943 91.6594L313.02 93.4247ZM308.404 90.777L307.522 92.3158L304.444 90.5506L305.327 89.0118L308.404 90.777ZM303.788 88.1294L302.906 89.6682L299.828 87.903L300.711 86.3642L303.788 88.1294ZM299.172 85.4817L298.29 87.0206L295.212 85.2554L296.095 83.7165L299.172 85.4817ZM294.556 82.8341L293.673 84.3729L290.596 82.6079L291.478 81.0691L294.556 82.8341ZM289.94 80.1867L289.057 81.7255L285.98 79.9605L286.862 78.4216L289.94 80.1867ZM285.324 77.5392L284.442 79.078L281.364 77.3132L282.247 75.7744L285.324 77.5392ZM280.708 74.8918L279.826 76.4306L276.748 74.6656L277.631 73.1267L280.708 74.8918ZM276.092 72.2443L275.21 73.7831L272.132 72.0181L273.015 70.4793L276.092 72.2443ZM271.476 69.5969L270.594 71.1357L267.516 69.3708L268.399 67.832L271.476 69.5969ZM266.86 66.9494L265.978 68.4882L262.901 66.7234L263.783 65.1846L266.86 66.9494ZM262.245 64.302L261.362 65.8408L258.285 64.0758L259.167 62.5369L262.245 64.302ZM257.594 61.647C256.408 61.0399 255.33 60.6147 254.017 60.3596L253.699 62.1047C253.951 62.1679 254.201 62.2091 254.457 62.2809C255.267 62.4981 256.026 62.837 256.77 63.2179L257.594 61.647ZM252.059 60.2095C251.164 60.2095 250.051 60.4976 249.246 60.8849C249.037 60.9863 248.838 61.0947 248.64 61.2161C248.508 61.2978 248.378 61.3834 248.253 61.4742L249.294 62.9103C249.383 62.8454 249.477 62.7846 249.571 62.7262C250.288 62.2824 251.284 61.9821 252.128 61.9821L252.059 60.2095ZM246.803 62.886L246.698 63.0264C245.936 64.0772 245.501 65.1855 245.2 66.4411L246.93 66.8325C247.189 65.7707 247.544 64.8452 248.209 63.9683L248.211 63.9648L246.803 62.886ZM244.916 68.32C244.822 69.5107 244.872 70.764 244.878 71.9394L246.651 71.9318C246.646 70.8133 246.594 69.5978 246.685 68.4584L244.916 68.32Z" fill="url(#paint10_linear_583_99088)"/>
<path opacity="0.2" fill-rule="evenodd" clip-rule="evenodd" d="M200.741 285.467L166.12 265.749C162.346 264.024 156.944 262.652 153.098 264.653C149.595 266.476 143.823 270.208 141.271 271.664C139.332 272.77 132.603 276.801 136.794 279.08C149.123 285.784 161.325 293.324 173.844 300.135C176.212 301.423 179.676 301.888 183.312 301.586C186.932 301.285 190.646 300.231 193.566 298.532C195.647 297.322 197.693 296.131 199.706 294.959C202.421 293.377 203.861 291.507 204.004 289.779C204.143 288.09 203.058 286.525 200.741 285.467Z" fill="#5F7FFB"/>
<path fill-rule="evenodd" clip-rule="evenodd" d="M157.031 261.368C156.863 261.876 156.67 262.351 156.448 262.784C156.034 263.235 155.517 263.508 155.275 264.023C153.978 266.781 153.693 269.439 154.596 283.597L157.919 283.668L158.345 278.667C158.756 276.64 159.895 273.673 160.355 271.836C161.341 267.902 161.451 265.896 162.038 263.031L162.071 263.012C165.713 251.909 169.475 240.992 172.499 229.809L182.871 199.724L183.201 191.657C183.255 190.354 182.56 189.397 182.149 188.377C176.806 189.952 173.817 191.648 168.077 191.446C166.355 194.006 163.996 198.797 163.908 202.418C163.738 209.471 164.292 214.176 162.137 225.967C155.743 247.49 159.457 247.117 157.031 261.368Z" fill="url(#paint11_linear_583_99088)"/>
<path fill-rule="evenodd" clip-rule="evenodd" d="M150.975 273.631C150.613 273.583 149.927 273.553 149.85 273.467C149.678 273.276 149.356 272.337 149.591 272.16C150.009 271.883 150.862 273.36 150.975 273.631Z" fill="#1F202B"/>
<path fill-rule="evenodd" clip-rule="evenodd" d="M152.821 267.971C153.218 269.236 152.654 270.456 152.256 271.77C150.866 276.361 150.051 276.618 150.64 278.695C151.049 280.137 151.767 281.308 152.672 282.34C153.572 283.366 153.844 284.103 155 284.902C156.741 286.105 158.291 286.668 157.913 284.254C157.779 283.4 157.523 282.428 157.345 282.015C156.111 279.15 154.675 277.893 155.453 274.317C156.031 271.662 156.949 269.913 155.756 268.124L152.821 267.971Z" fill="#161A40"/>
<path fill-rule="evenodd" clip-rule="evenodd" d="M153.096 265.108C152.574 267.506 151.793 269.516 149.59 272.161C149.866 272.087 150.575 272.811 150.965 273.612C153.838 270.31 155.236 268.704 156.119 270.126C156.034 271.32 155.597 273.481 155.231 275.165C155.11 275.718 154.976 276.941 155.327 277.782C156.455 280.49 158.523 284.444 157.734 285.738C158.012 285.39 158.324 284.436 158.321 283.152C158.316 281.282 157.998 278.751 157.958 277.196C157.904 275.094 158.699 273.269 158.826 270.405C158.862 269.599 158.869 268.808 158.821 268.007C158.701 265.983 158.479 263.297 157.055 262.537C156.548 262.266 155.23 262.462 154.548 262.808C153.591 263.294 153.297 264.186 153.096 265.108Z" fill="#161F69"/>
<path fill-rule="evenodd" clip-rule="evenodd" d="M176.664 268.707C176.408 270.844 174.456 272.887 174.218 274.279C173.643 277.638 176.076 275.891 178.831 280.208C179.933 280.199 182.362 284.173 185.649 284.382C186.404 284.43 187.753 282.599 186.261 281.303C185.596 280.916 185.002 281.203 184.456 280.727C183.386 279.781 182.137 272.428 182.208 269.561C185.188 253.745 187.071 238.667 190.044 223.193C191.538 215.415 191.819 210.608 191.319 204.881C191.126 201.603 191.467 199.993 190.387 196.815C189.967 195.577 189.393 194.555 188.823 193.535C183.726 195.109 179.925 196.654 174.153 196.452C172.831 199.012 171.686 202.438 172.165 206.059C173.097 213.111 176.629 218.245 177.411 230.339C173.607 243.64 177.557 254.258 176.659 268.628C176.659 268.654 176.661 268.681 176.664 268.707Z" fill="url(#paint12_linear_583_99088)"/>
<path fill-rule="evenodd" clip-rule="evenodd" d="M187.516 237.577C188.297 232.798 189.118 228.015 190.044 223.193C191.539 215.415 191.819 210.608 191.319 204.881C191.127 201.603 191.468 199.993 190.388 196.815C190.242 196.384 189.309 194.568 189.39 194.324C187.777 190.768 187.555 180.303 187.567 180.211C188.323 174.668 191.339 172.719 189.716 167.979C188.527 166.348 185.313 163.732 181.971 161.902C177.27 159.327 172.018 157.713 169.199 157.395C163.232 156.72 163.218 166.556 165.294 171.188C169.431 180.42 169.734 185.142 167.617 192.159C165.963 194.827 163.988 199.111 163.908 202.418C163.737 209.471 164.291 214.177 162.136 225.967C161.144 229.307 160.396 232.119 159.83 234.541C164.185 242.479 178.478 241.773 187.516 237.577Z" fill="url(#paint13_linear_583_99088)"/>
<path fill-rule="evenodd" clip-rule="evenodd" d="M175.435 271.702C178.104 272.03 180.595 278.547 182.66 281.379C183.662 282.755 185.787 281.336 184.925 280.968C185.364 280.999 186.98 280.807 188.171 280.999C189.845 281.268 189.258 282.945 188.12 283.731C185.586 285.482 183.338 286.467 181.04 285.308C180.657 285.115 180.147 284.756 179.632 284.371C179.275 284.104 178.863 283.813 178.694 283.611C177.951 282.72 177.665 281.284 176.986 280.064C176.762 279.66 176.578 279.573 176.433 279.683C176.154 280.074 176.442 285.932 176.581 287.105C176.506 287.442 175.364 287.707 175.135 287.451L173.015 277.043C172.772 276.198 172.867 275.191 173.293 274.378C173.931 273.158 175.152 272.214 175.435 271.702Z" fill="#161F69"/>
<path fill-rule="evenodd" clip-rule="evenodd" d="M182.4 285.761C181.945 285.684 181.492 285.536 181.04 285.308C180.657 285.114 180.147 284.756 179.632 284.37C179.275 284.104 178.863 283.813 178.694 283.61C177.889 282.645 177.496 280.853 176.602 279.624C176.9 279.441 177.679 279.46 178.461 280.747C179.636 282.906 180.441 284.495 181.992 285.542C182.121 285.63 182.257 285.7 182.4 285.761Z" fill="#161A40"/>
<path fill-rule="evenodd" clip-rule="evenodd" d="M163.576 174.072L173.754 176.396C175.797 177.312 174.25 181.645 172.23 182.153L158.022 180.315C154.4 179.546 153.607 177.159 154.392 175.3C154.409 175.261 154.427 175.223 154.446 175.186C154.692 174.035 161.928 163.629 162.971 162.219C164.422 160.257 165.937 158.995 166.568 158.617C167.798 157.879 169.424 158.073 170.489 158.726C171.953 159.623 172.441 161.112 171.871 162.48C170.83 164.979 166.874 169.874 163.576 174.072Z" fill="url(#paint14_linear_583_99088)"/>
<path fill-rule="evenodd" clip-rule="evenodd" d="M207.823 169.865C210.26 168.379 213.548 165.562 215.802 165.257C217.224 164.534 219.335 163.346 220.685 162.635C221.673 162.115 222.091 163.819 221.243 164.38C220.412 164.929 218.172 166.302 218.165 166.305C218.133 166.318 218.101 166.331 218.068 166.344C218.61 167.249 218.718 168.515 218.557 169.397C218.342 170.575 215.738 172.078 214.106 173.169C212.658 174.136 210.92 173.41 209.942 174.175C208.292 173.407 208.018 171.467 207.823 169.865Z" fill="url(#paint15_linear_583_99088)"/>
<path fill-rule="evenodd" clip-rule="evenodd" d="M196.526 176.673C199.234 174.494 202.62 172.602 205.356 170.895C205.795 170.622 206.457 170.631 206.803 170.423C207.231 170.166 207.579 169.964 207.823 169.833C208.798 170.365 210.008 172.351 210.545 173.913C210.181 174.227 209.818 174.559 209.454 174.903C209.172 175.17 208.88 176.088 208.598 176.369C205.551 179.4 203.487 182.098 200.516 184.166C200.088 184.464 198.316 186.006 197.216 186.561C195.865 187.242 193.938 186.559 193.032 185.188C192.249 184.482 191.548 183.707 191.103 183.292C189.086 181.405 184.07 177.123 181.325 173.441C179.309 170.738 179.643 169.255 180.435 167.847C182.278 164.571 185.063 162.471 188.141 165.441C189.604 166.854 190.588 169.215 191.841 170.846C193.242 172.671 195.009 174.682 196.526 176.673Z" fill="url(#paint16_linear_583_99088)"/>
<path opacity="0.5" fill-rule="evenodd" clip-rule="evenodd" d="M169.199 157.394C167.332 157.183 166.048 158.001 165.228 159.367C165.195 159.422 165.163 159.478 165.131 159.535L165.088 159.615L165.016 159.753L164.994 159.796C164.964 159.857 164.935 159.919 164.906 159.982L164.876 160.05L164.804 160.218L164.79 160.252C164.762 160.321 164.734 160.39 164.708 160.461L164.687 160.519L164.627 160.688L164.608 160.743C164.585 160.815 164.562 160.887 164.54 160.959L164.524 161.014L164.472 161.195L164.457 161.25C164.435 161.329 164.415 161.409 164.395 161.489L164.395 161.494C164.376 161.571 164.358 161.648 164.341 161.726L164.328 161.786C164.313 161.858 164.298 161.931 164.284 162.005L164.278 162.034C164.263 162.112 164.249 162.191 164.236 162.271L164.223 162.347L164.19 162.564L164.187 162.584L164.155 162.826L164.145 162.913L164.124 163.103L164.117 163.168L164.094 163.425L164.091 163.467L164.076 163.67L164.071 163.762L164.059 163.999L164.056 164.073L164.049 164.289L164.048 164.33L164.044 164.573L164.044 164.661L164.045 164.899L164.045 164.915C164.048 165.104 164.053 165.293 164.061 165.482L164.063 165.523L164.076 165.759L164.079 165.819L164.099 166.092L164.1 166.109L164.12 166.346L164.127 166.418L164.152 166.666L164.16 166.731L164.187 166.962L164.191 166.993L164.227 167.26L164.233 167.308L164.268 167.537L164.277 167.591L164.318 167.841L164.327 167.887L164.368 168.111L164.377 168.159C164.409 168.329 164.445 168.496 164.481 168.662L164.497 168.729L164.547 168.945L164.555 168.976L164.619 169.229L164.625 169.252C164.669 169.416 164.714 169.579 164.762 169.737L164.781 169.798L164.836 169.975L164.856 170.04L164.925 170.244L164.944 170.301L165.008 170.478L165.023 170.52C165.05 170.593 165.077 170.665 165.105 170.736L165.111 170.752L165.186 170.937L165.209 170.991L165.294 171.188C169.431 180.42 169.734 185.142 167.617 192.159C165.963 194.827 163.988 199.111 163.908 202.418C163.737 209.471 164.291 214.177 162.136 225.967C161.144 229.307 160.396 232.119 159.83 234.541C161.833 238.193 165.94 240.014 170.67 240.509C190.167 219.091 162.655 211.404 173.115 191.76C174.307 189.521 181.628 186.673 183.457 183.905C187.38 179.303 188.932 174.759 183.009 167.434C182.026 166.218 181.293 165.582 179.975 163.746C177.822 164.254 173.813 163.541 173.333 162.663C173.166 162.357 174.016 159.666 173.878 159.338C170.19 157.712 171.366 157.639 169.199 157.394Z" fill="url(#paint17_linear_583_99088)"/>
<path fill-rule="evenodd" clip-rule="evenodd" d="M171.112 160.108C170.65 162.068 177.805 164.185 180.256 163.12L180.308 162.645C180.94 159.721 181.561 157.237 181.999 155.183C183.138 155.669 185.937 155.811 186.184 155.42C178.641 149.396 169.821 144.942 168.687 147.984C169.434 150.187 171.365 151.753 172.331 153.188C172.587 153.569 172.787 154.363 172.836 155.159L172.837 155.16C172.558 156.713 171.969 158.201 171.112 160.108Z" fill="url(#paint18_linear_583_99088)"/>
<path fill-rule="evenodd" clip-rule="evenodd" d="M186.142 155.454C185.492 155.878 180.874 154.343 180.501 154.361C176.909 154.539 173.043 154.247 172.33 153.187C171.365 151.753 169.434 150.187 168.686 147.983C167.492 144.462 167.725 140.491 170.944 137.726C176.543 132.919 185.325 136.442 186.582 141.887C187.098 144.12 186.459 144.305 186.564 145.801C186.759 148.557 187.072 147.518 186.818 151.879C186.721 153.54 186.573 155.173 186.142 155.454Z" fill="#FFA698"/>
<path fill-rule="evenodd" clip-rule="evenodd" d="M172.146 157.481C172.342 159.265 177.362 160.522 180.406 159.812C180.732 159.737 180.935 159.675 181.052 159.468C181.499 159.714 182.719 161.474 182.857 162.35C180.226 164.887 171.911 163.399 170.901 160.429C170.659 159.718 170.437 158.377 172.146 157.481Z" fill="#C758D8"/>
<path fill-rule="evenodd" clip-rule="evenodd" d="M158.289 151.571C153.503 155.573 150.807 162.781 152.985 166.87C154.958 170.575 159.771 172.755 158.29 175.101C157.066 177.04 154.184 178.984 157.612 182.115C159.377 183.727 163.688 188.051 172.487 185.811C181.063 183.628 190.063 176.219 182.837 168.118C175.233 159.594 179.682 157.709 184.043 151.005C186.35 147.46 188.411 140.455 186.436 137.849C183.047 133.38 180.796 136.6 177.536 135.021C171.316 132.009 166.215 134.162 163.29 138.872C160.672 143.088 162.094 148.388 158.289 151.571Z" fill="url(#paint19_linear_583_99088)"/>
<path opacity="0.5" fill-rule="evenodd" clip-rule="evenodd" d="M116.593 32.3013C116.595 31.5286 117.142 31.2159 117.815 31.6047C124.946 35.6949 132.063 39.9289 139.195 44.0197C139.867 44.408 140.412 45.3508 140.41 46.1232L140.445 74.3542C140.443 75.1266 139.895 75.4389 139.222 75.0507C132.091 70.9602 124.973 66.7255 117.842 62.6356C117.169 62.2468 116.625 61.3045 116.628 60.5319L116.593 32.3013Z" fill="url(#paint20_linear_583_99088)"/>
<path opacity="0.5" fill-rule="evenodd" clip-rule="evenodd" d="M347.533 248.684C347.535 248.217 347.865 248.028 348.271 248.263C352.578 250.733 356.875 253.29 361.182 255.76C361.588 255.995 361.916 256.564 361.915 257.03L361.936 274.078C361.935 274.544 361.604 274.732 361.198 274.498C356.892 272.028 352.593 269.471 348.288 267.001C347.881 266.766 347.553 266.197 347.554 265.731L347.533 248.684Z" fill="url(#paint21_linear_583_99088)"/>
<path opacity="0.5" fill-rule="evenodd" clip-rule="evenodd" d="M276.99 55.9054C276.992 55.1326 277.54 54.8199 278.213 55.2087C285.344 59.2989 292.461 63.5329 299.593 67.6237C300.265 68.012 300.809 68.9546 300.807 69.7272L300.842 97.9582C300.84 98.7308 300.292 99.0429 299.619 98.6547C292.488 94.5643 285.37 90.3295 278.239 86.2396C277.566 85.8508 277.023 84.9085 277.025 84.1359L276.99 55.9054Z" fill="url(#paint22_linear_583_99088)"/>
<path opacity="0.5" fill-rule="evenodd" clip-rule="evenodd" d="M259.824 25.8639C259.827 25.0912 260.374 24.7782 261.047 25.1672C268.178 29.2573 275.295 33.4915 282.427 37.5823C283.099 37.9706 283.644 38.913 283.641 39.6858L283.676 67.9167C283.674 68.6891 283.126 69.0015 282.454 68.6133C275.322 64.5228 268.205 60.2881 261.074 56.1982C260.401 55.8096 259.857 54.8671 259.859 54.0945L259.824 25.8639ZM261.668 29.115L261.698 52.9805C261.696 53.6335 262.156 54.4304 262.724 54.7589C268.753 58.2163 274.77 61.7963 280.799 65.2544C281.367 65.5826 281.83 65.3185 281.832 64.6657L281.803 40.7998C281.805 40.1468 281.344 39.3499 280.776 39.0217C274.747 35.5635 268.731 31.9838 262.702 28.5263C262.133 28.1974 261.67 28.462 261.668 29.115Z" fill="url(#paint23_linear_583_99088)"/>
<path opacity="0.5" fill-rule="evenodd" clip-rule="evenodd" d="M100.499 180.897C100.501 180.125 101.048 179.812 101.722 180.201C108.853 184.291 115.969 188.525 123.102 192.616C123.774 193.004 124.318 193.946 124.316 194.719L124.351 222.95C124.349 223.723 123.801 224.035 123.128 223.647C115.997 219.556 108.879 215.321 101.748 211.232C101.075 210.843 100.532 209.901 100.534 209.128L100.499 180.897ZM102.343 184.148L102.372 208.014C102.371 208.667 102.83 209.464 103.399 209.792C109.427 213.25 115.445 216.83 121.473 220.288C122.042 220.616 122.505 220.352 122.507 219.699L122.477 195.833C122.479 195.18 122.019 194.383 121.451 194.055C115.421 190.597 109.405 187.017 103.376 183.56C102.808 183.231 102.345 183.495 102.343 184.148Z" fill="url(#paint24_linear_583_99088)"/>
<path opacity="0.5" fill-rule="evenodd" clip-rule="evenodd" d="M81.8612 128.912C77.6667 125.455 75.1591 118.275 76.2586 112.87C77.3572 107.467 81.6471 105.885 85.8416 109.342C90.0333 112.796 92.5427 119.982 91.4438 125.384C90.3445 130.79 86.0532 132.367 81.8612 128.912Z" fill="url(#paint25_linear_583_99088)"/>
<path opacity="0.5" fill-rule="evenodd" clip-rule="evenodd" d="M303.551 297.668C297.383 292.585 293.696 282.028 295.313 274.079C296.928 266.136 303.236 263.81 309.403 268.893C315.567 273.972 319.257 284.537 317.641 292.481C316.024 300.429 309.715 302.747 303.551 297.668ZM304.225 294.348C308.967 298.257 313.821 296.473 315.065 290.358C316.308 284.247 313.47 276.119 308.728 272.212C303.983 268.301 299.131 270.091 297.888 276.202C296.644 282.317 299.481 290.438 304.225 294.348Z" fill="url(#paint26_linear_583_99088)"/>
<defs>
<linearGradient id="paint0_linear_583_99088" x1="218.5" y1="302" x2="218.5" y2="0" gradientUnits="userSpaceOnUse">
<stop stop-color="#EFE5FF" stop-opacity="0"/>
<stop offset="1" stop-color="#D9D9FF"/>
</linearGradient>
<linearGradient id="paint1_linear_583_99088" x1="124.672" y1="123.309" x2="165.625" y2="72.2797" gradientUnits="userSpaceOnUse">
<stop stop-color="#6D6AFE"/>
<stop offset="1" stop-color="#3FB0F7"/>
</linearGradient>
<linearGradient id="paint2_linear_583_99088" x1="169.541" y1="165.295" x2="182.654" y2="140.593" gradientUnits="userSpaceOnUse">
<stop stop-color="#6D6AFE"/>
<stop offset="1" stop-color="#3FB0F7"/>
</linearGradient>
<linearGradient id="paint3_linear_583_99088" x1="189.485" y1="105.024" x2="201.264" y2="191.3" gradientUnits="userSpaceOnUse">
<stop stop-color="#FD70CB"/>
<stop offset="1" stop-color="#6E4DFD"/>
</linearGradient>
<linearGradient id="paint4_linear_583_99088" x1="220.279" y1="179.284" x2="292.497" y2="124.452" gradientUnits="userSpaceOnUse">
<stop stop-color="#6D6AFE"/>
<stop offset="1" stop-color="#3FB0F7"/>
</linearGradient>
<linearGradient id="paint5_linear_583_99088" x1="205.858" y1="63.7282" x2="206.358" y2="110.351" gradientUnits="userSpaceOnUse">
<stop stop-color="#FD90DA"/>
<stop offset="1" stop-color="#8E6DFD"/>
</linearGradient>
<linearGradient id="paint6_linear_583_99088" x1="187.364" y1="48.3955" x2="188.979" y2="101.564" gradientUnits="userSpaceOnUse">
<stop stop-color="#FD90DA"/>
<stop offset="1" stop-color="#8E6DFD"/>
</linearGradient>
<linearGradient id="paint7_linear_583_99088" x1="311.138" y1="231.238" x2="303.614" y2="243.599" gradientUnits="userSpaceOnUse">
<stop stop-color="#FD90DA"/>
<stop offset="1" stop-color="#8E6DFD"/>
</linearGradient>
<linearGradient id="paint8_linear_583_99088" x1="271.757" y1="119.513" x2="275.715" y2="186.371" gradientUnits="userSpaceOnUse">
<stop stop-color="#FD70CB"/>
<stop offset="1" stop-color="#6E4DFD"/>
</linearGradient>
<linearGradient id="paint9_linear_583_99088" x1="292.286" y1="187.417" x2="301.489" y2="148.636" gradientUnits="userSpaceOnUse">
<stop stop-color="#1C8EF4"/>
<stop offset="1" stop-color="#00CFDD"/>
</linearGradient>
<linearGradient id="paint10_linear_583_99088" x1="297.154" y1="120.861" x2="321.924" y2="100.594" gradientUnits="userSpaceOnUse">
<stop stop-color="#6D6AFE"/>
<stop offset="1" stop-color="#3FB0F7"/>
</linearGradient>
<linearGradient id="paint11_linear_583_99088" x1="167.696" y1="235.389" x2="152.095" y2="242.587" gradientUnits="userSpaceOnUse">
<stop stop-color="#FF8A78"/>
<stop offset="1" stop-color="#FFA799"/>
</linearGradient>
<linearGradient id="paint12_linear_583_99088" x1="169.156" y1="259.706" x2="181.336" y2="238.415" gradientUnits="userSpaceOnUse">
<stop stop-color="#FFB89E"/>
<stop offset="0.9951" stop-color="#FFA799"/>
</linearGradient>
<linearGradient id="paint13_linear_583_99088" x1="183.654" y1="228.442" x2="161.425" y2="160.401" gradientUnits="userSpaceOnUse">
<stop stop-color="#965CF2"/>
<stop offset="1" stop-color="#FF8ADC"/>
</linearGradient>
<linearGradient id="paint14_linear_583_99088" x1="160.057" y1="176.473" x2="170.785" y2="169.55" gradientUnits="userSpaceOnUse">
<stop stop-color="#965CF2"/>
<stop offset="1" stop-color="#FF8ADC"/>
</linearGradient>
<linearGradient id="paint15_linear_583_99088" x1="214.925" y1="167.543" x2="215.832" y2="169.706" gradientUnits="userSpaceOnUse">
<stop stop-color="#FFB89E"/>
<stop offset="0.9951" stop-color="#FFA799"/>
</linearGradient>
<linearGradient id="paint16_linear_583_99088" x1="200.306" y1="180.813" x2="188.95" y2="161.861" gradientUnits="userSpaceOnUse">
<stop stop-color="#965CF2"/>
<stop offset="1" stop-color="#FF8ADC"/>
</linearGradient>
<linearGradient id="paint17_linear_583_99088" x1="175.283" y1="228.88" x2="171.257" y2="178.759" gradientUnits="userSpaceOnUse">
<stop stop-color="#965CF2"/>
<stop offset="1" stop-color="#FF8ADC"/>
</linearGradient>
<linearGradient id="paint18_linear_583_99088" x1="177.517" y1="154.605" x2="179.374" y2="160.109" gradientUnits="userSpaceOnUse">
<stop stop-color="#FF8A78"/>
<stop offset="1" stop-color="#FFA799"/>
</linearGradient>
<linearGradient id="paint19_linear_583_99088" x1="177.85" y1="140.602" x2="166.121" y2="176.893" gradientUnits="userSpaceOnUse">
<stop stop-color="#5A2D68"/>
<stop offset="1" stop-color="#22043D"/>
</linearGradient>
<linearGradient id="paint20_linear_583_99088" x1="126.699" y1="60.9969" x2="130.369" y2="45.5305" gradientUnits="userSpaceOnUse">
<stop stop-color="#1C8EF4"/>
<stop offset="1" stop-color="#00CFDD"/>
</linearGradient>
<linearGradient id="paint21_linear_583_99088" x1="360.433" y1="264.484" x2="342.538" y2="254.738" gradientUnits="userSpaceOnUse">
<stop stop-color="#6D6AFE"/>
<stop offset="1" stop-color="#3FB0F7"/>
</linearGradient>
<linearGradient id="paint22_linear_583_99088" x1="288.305" y1="56.8781" x2="289.27" y2="88.553" gradientUnits="userSpaceOnUse">
<stop stop-color="#FD90DA"/>
<stop offset="1" stop-color="#8E6DFD"/>
</linearGradient>
<linearGradient id="paint23_linear_583_99088" x1="281.187" y1="52.0295" x2="251.551" y2="35.8896" gradientUnits="userSpaceOnUse">
<stop stop-color="#6D6AFE"/>
<stop offset="1" stop-color="#3FB0F7"/>
</linearGradient>
<linearGradient id="paint24_linear_583_99088" x1="111.814" y1="181.87" x2="112.779" y2="213.545" gradientUnits="userSpaceOnUse">
<stop stop-color="#FD90DA"/>
<stop offset="1" stop-color="#8E6DFD"/>
</linearGradient>
<linearGradient id="paint25_linear_583_99088" x1="89.4375" y1="122.362" x2="73.2803" y2="113.006" gradientUnits="userSpaceOnUse">
<stop stop-color="#6D6AFE"/>
<stop offset="1" stop-color="#3FB0F7"/>
</linearGradient>
<linearGradient id="paint26_linear_583_99088" x1="304.679" y1="289.386" x2="308.325" y2="277.002" gradientUnits="userSpaceOnUse">
<stop stop-color="#1C8EF4"/>
<stop offset="1" stop-color="#00CFDD"/>
</linearGradient>
</defs>
</svg>
