<svg width="437" height="302" viewBox="0 0 437 302" fill="none" xmlns="http://www.w3.org/2000/svg">
<rect width="437" height="302" rx="20" transform="matrix(1 0 0 -1 0 302)" fill="url(#paint0_linear_583_99087)"/>
<g opacity="0.2">
<path opacity="0.0323" d="M261 288.94C286.284 288.94 306.781 270.175 306.781 247.028C306.781 223.881 286.284 205.116 261 205.116C235.716 205.116 215.219 223.881 215.219 247.028C215.219 270.175 235.716 288.94 261 288.94Z" fill="#141723"/>
<path opacity="0.0645" d="M261 287.823C285.611 287.823 305.562 269.558 305.562 247.027C305.562 224.496 285.611 206.231 261 206.231C236.389 206.231 216.438 224.496 216.438 247.027C216.438 269.558 236.389 287.823 261 287.823Z" fill="#141723"/>
<path opacity="0.0968" d="M261 286.708C284.937 286.708 304.343 268.942 304.343 247.028C304.343 225.113 284.937 207.348 261 207.348C237.062 207.348 217.656 225.113 217.656 247.028C217.656 268.942 237.062 286.708 261 286.708Z" fill="#141723"/>
<path opacity="0.129" d="M261 285.592C284.265 285.592 303.125 268.326 303.125 247.028C303.125 225.729 284.265 208.464 261 208.464C237.736 208.464 218.876 225.729 218.876 247.028C218.876 268.326 237.736 285.592 261 285.592Z" fill="#141723"/>
<path opacity="0.1613" d="M261 284.476C283.591 284.476 301.905 267.71 301.905 247.028C301.905 226.346 283.591 209.58 261 209.58C238.409 209.58 220.095 226.346 220.095 247.028C220.095 267.71 238.409 284.476 261 284.476Z" fill="#141723"/>
<path opacity="0.1935" d="M261 283.36C282.918 283.36 300.686 267.093 300.686 247.027C300.686 226.962 282.918 210.695 261 210.695C239.082 210.695 221.313 226.962 221.313 247.027C221.313 267.093 239.082 283.36 261 283.36Z" fill="#141723"/>
<path opacity="0.2258" d="M261 282.244C282.245 282.244 299.467 266.477 299.467 247.028C299.467 227.578 282.245 211.811 261 211.811C239.755 211.811 222.532 227.578 222.532 247.028C222.532 266.477 239.755 282.244 261 282.244Z" fill="#141723"/>
<path opacity="0.2581" d="M261.001 281.128C281.572 281.128 298.249 265.861 298.249 247.028C298.249 228.194 281.572 212.927 261.001 212.927C240.429 212.927 223.752 228.194 223.752 247.028C223.752 265.861 240.429 281.128 261.001 281.128Z" fill="#141723"/>
<path opacity="0.2903" d="M260.999 280.013C280.898 280.013 297.029 265.245 297.029 247.028C297.029 228.811 280.898 214.043 260.999 214.043C241.101 214.043 224.97 228.811 224.97 247.028C224.97 265.245 241.101 280.013 260.999 280.013Z" fill="#141723"/>
<path opacity="0.3226" d="M260.999 278.896C280.225 278.896 295.81 264.628 295.81 247.028C295.81 229.427 280.225 215.159 260.999 215.159C241.774 215.159 226.188 229.427 226.188 247.028C226.188 264.628 241.774 278.896 260.999 278.896Z" fill="#141723"/>
<path opacity="0.3548" d="M261 277.781C279.552 277.781 294.592 264.012 294.592 247.028C294.592 230.044 279.552 216.275 261 216.275C242.448 216.275 227.408 230.044 227.408 247.028C227.408 264.012 242.448 277.781 261 277.781Z" fill="#141723"/>
<path opacity="0.3871" d="M261 276.664C278.879 276.664 293.373 263.396 293.373 247.028C293.373 230.66 278.879 217.391 261 217.391C243.121 217.391 228.627 230.66 228.627 247.028C228.627 263.396 243.121 276.664 261 276.664Z" fill="#141723"/>
<path opacity="0.4194" d="M261 275.549C278.205 275.549 292.154 262.78 292.154 247.028C292.154 231.276 278.205 218.507 261 218.507C243.794 218.507 229.846 231.276 229.846 247.028C229.846 262.78 243.794 275.549 261 275.549Z" fill="#141723"/>
<path opacity="0.4516" d="M261 274.433C277.533 274.433 290.935 262.163 290.935 247.028C290.935 231.892 277.533 219.623 261 219.623C244.468 219.623 231.065 231.892 231.065 247.028C231.065 262.163 244.468 274.433 261 274.433Z" fill="#141723"/>
<path opacity="0.4839" d="M261 273.317C276.86 273.317 289.716 261.547 289.716 247.028C289.716 232.509 276.86 220.739 261 220.739C245.141 220.739 232.284 232.509 232.284 247.028C232.284 261.547 245.141 273.317 261 273.317Z" fill="#141723"/>
<path opacity="0.5161" d="M260.999 272.201C276.185 272.201 288.496 260.93 288.496 247.028C288.496 233.125 276.185 221.854 260.999 221.854C245.813 221.854 233.502 233.125 233.502 247.028C233.502 260.93 245.813 272.201 260.999 272.201Z" fill="#141723"/>
<path opacity="0.5484" d="M261 271.085C275.513 271.085 287.278 260.314 287.278 247.028C287.278 233.741 275.513 222.97 261 222.97C246.487 222.97 234.722 233.741 234.722 247.028C234.722 260.314 246.487 271.085 261 271.085Z" fill="#141723"/>
<path opacity="0.5806" d="M261.001 269.969C274.841 269.969 286.06 259.698 286.06 247.028C286.06 234.357 274.841 224.086 261.001 224.086C247.161 224.086 235.941 234.357 235.941 247.028C235.941 259.698 247.161 269.969 261.001 269.969Z" fill="#141723"/>
<path opacity="0.6129" d="M261.001 268.853C274.167 268.853 284.841 259.082 284.841 247.028C284.841 234.974 274.167 225.202 261.001 225.202C247.834 225.202 237.16 234.974 237.16 247.028C237.16 259.082 247.834 268.853 261.001 268.853Z" fill="#141723"/>
<path opacity="0.6452" d="M261 267.737C273.493 267.737 283.621 258.465 283.621 247.028C283.621 235.59 273.493 226.318 261 226.318C248.506 226.318 238.378 235.59 238.378 247.028C238.378 258.465 248.506 267.737 261 267.737Z" fill="#141723"/>
<path opacity="0.6774" d="M260.999 266.621C272.82 266.621 282.402 257.849 282.402 247.028C282.402 236.206 272.82 227.434 260.999 227.434C249.179 227.434 239.597 236.206 239.597 247.028C239.597 257.849 249.179 266.621 260.999 266.621Z" fill="#141723"/>
<path opacity="0.7097" d="M261 265.505C272.147 265.505 281.184 257.232 281.184 247.028C281.184 236.823 272.147 228.55 261 228.55C249.853 228.55 240.816 236.823 240.816 247.028C240.816 257.232 249.853 265.505 261 265.505Z" fill="#141723"/>
<path opacity="0.7419" d="M261.001 264.39C271.475 264.39 279.966 256.616 279.966 247.028C279.966 237.439 271.475 229.666 261.001 229.666C250.527 229.666 242.036 237.439 242.036 247.028C242.036 256.616 250.527 264.39 261.001 264.39Z" fill="#141723"/>
<path opacity="0.7742" d="M261.001 263.274C270.801 263.274 278.747 256 278.747 247.028C278.747 238.055 270.801 230.782 261.001 230.782C251.2 230.782 243.255 238.055 243.255 247.028C243.255 256 251.2 263.274 261.001 263.274Z" fill="#141723"/>
<path opacity="0.8065" d="M261.001 262.158C270.128 262.158 277.527 255.384 277.527 247.028C277.527 238.672 270.128 231.898 261.001 231.898C251.873 231.898 244.474 238.672 244.474 247.028C244.474 255.384 251.873 262.158 261.001 262.158Z" fill="#141723"/>
<path opacity="0.8387" d="M261 261.042C269.455 261.042 276.308 254.767 276.308 247.027C276.308 239.288 269.455 233.013 261 233.013C252.546 233.013 245.692 239.288 245.692 247.027C245.692 254.767 252.546 261.042 261 261.042Z" fill="#141723"/>
<path opacity="0.871" d="M261 259.926C268.781 259.926 275.089 254.151 275.089 247.028C275.089 239.904 268.781 234.129 261 234.129C253.219 234.129 246.911 239.904 246.911 247.028C246.911 254.151 253.219 259.926 261 259.926Z" fill="#141723"/>
<path opacity="0.9032" d="M261 258.81C268.108 258.81 273.87 253.535 273.87 247.027C273.87 240.52 268.108 235.245 261 235.245C253.892 235.245 248.13 240.52 248.13 247.027C248.13 253.535 253.892 258.81 261 258.81Z" fill="#141723"/>
<path opacity="0.9355" d="M261.001 257.694C267.436 257.694 272.652 252.919 272.652 247.028C272.652 241.137 267.436 236.361 261.001 236.361C254.566 236.361 249.35 241.137 249.35 247.028C249.35 252.919 254.566 257.694 261.001 257.694Z" fill="#141723"/>
<path opacity="0.9677" d="M261 256.578C266.761 256.578 271.432 252.302 271.432 247.028C271.432 241.753 266.761 237.477 261 237.477C255.238 237.477 250.567 241.753 250.567 247.028C250.567 252.302 255.238 256.578 261 256.578Z" fill="#141723"/>
<path d="M260.999 255.463C266.088 255.463 270.213 251.686 270.213 247.028C270.213 242.37 266.088 238.593 260.999 238.593C255.911 238.593 251.786 242.37 251.786 247.028C251.786 251.686 255.911 255.463 260.999 255.463Z" fill="#141723"/>
</g>
<path d="M241.353 121.284L357.433 191.864C359.379 192.973 363.373 189.544 365.161 188.736C367.36 187.741 369 185.553 369 182.798V89.7166C369 84.5171 366.211 79.7173 361.692 77.1436L242.948 9.50051C240.777 8.26391 238.31 8.60332 236.566 9.92714C235.207 10.9587 229.669 12.8242 229.669 14.7709L234.286 109.125C234.286 114.153 236.984 118.795 241.353 121.284Z" fill="url(#paint1_linear_583_99087)"/>
<path d="M235.32 124.677L353.235 191.847C357.575 194.319 362.967 191.186 362.967 186.191V93.1097C362.967 87.9102 360.177 83.1103 355.659 80.5366L236.915 12.8935C233.052 10.6933 228.253 13.4826 228.253 17.9278V112.518C228.253 117.546 230.951 122.188 235.32 124.677Z" fill="url(#paint2_linear_583_99087)"/>
<path d="M359.871 93.0807V186.198C359.871 187.417 359.261 188.162 358.787 188.636C358.178 189.245 357.298 189.584 356.417 189.584C355.875 189.584 355.333 189.448 354.791 189.11L236.889 121.93C233.503 120.034 231.403 116.445 231.403 112.517V17.9098C231.403 16.2845 232.758 15.269 234.045 15.269C234.519 15.269 234.925 15.3363 235.399 15.6076L354.114 83.2612C357.636 85.2927 359.871 89.0173 359.871 93.0807Z" fill="url(#paint3_linear_583_99087)"/>
<path d="M138.867 193.396L253.602 258.92C258.149 261.516 263.749 261.433 268.216 258.702L350.948 208.129C352.704 207.056 353.493 205.18 353.328 203.382C353.187 201.844 354.482 195.609 352.954 194.737L233.19 132.313C229.732 130.338 225.473 130.402 222.076 132.479L136.847 177.998C135.132 179.046 136.088 186.196 135.964 187.956C135.817 190.05 136.79 192.21 138.867 193.396Z" fill="url(#paint4_linear_583_99087)"/>
<path d="M138.866 193.027L253.602 258.55C258.149 261.147 263.749 261.064 268.216 258.333L350.948 207.76C352.704 206.687 353.493 204.811 353.328 203.013C353.187 201.475 354.482 195.24 352.954 194.367L233.19 131.944C229.732 129.969 225.473 130.033 222.076 132.11L136.847 177.628C135.132 178.677 136.088 185.826 135.964 187.586C135.817 189.68 136.789 191.841 138.866 193.027Z" fill="url(#paint5_linear_583_99087)"/>
<path d="M138.866 185.278L253.602 250.802C258.149 253.398 263.748 253.315 268.216 250.584L350.948 200.011C354.206 198.02 354.135 193.265 350.819 191.372L233.189 124.195C229.731 122.22 225.473 122.284 222.075 124.361L138.718 175.316C134.962 177.612 135.043 183.095 138.866 185.278Z" fill="url(#paint6_linear_583_99087)"/>
<path d="M350.949 199.658L268.217 250.231C263.749 252.962 258.149 253.045 253.602 250.449L138.866 184.925C137.012 183.866 136.078 182.023 135.995 180.152C135.959 182.147 136.891 184.15 138.866 185.278L253.602 250.802C258.149 253.398 263.749 253.315 268.217 250.584L350.949 200.011C352.633 198.981 353.389 197.219 353.304 195.489C353.268 197.099 352.515 198.701 350.949 199.658Z" fill="white"/>
<path opacity="0.47" d="M355.66 80.5367L236.916 12.8935C234.86 11.7228 232.56 11.9931 230.838 13.1459C232.504 12.2245 234.611 12.094 236.5 13.1705L355.245 80.8134C359.763 83.3873 362.552 88.1869 362.552 93.3866V186.468C362.552 188.822 361.334 190.734 359.613 191.869C361.561 190.786 362.968 188.736 362.968 186.191V93.1093C362.968 87.9099 360.178 83.1102 355.66 80.5367Z" fill="url(#paint7_linear_583_99087)"/>
<path d="M227.915 152.161L222.443 155.341L216.761 152.06L222.233 148.88L227.915 152.161Z" fill="#333551"/>
<path d="M220.178 147.694L214.706 150.874L205.221 145.397L210.693 142.218L220.178 147.694Z" fill="#333551"/>
<path d="M309.095 184.59L305.708 186.559L300.025 183.278L303.413 181.31L309.095 184.59Z" fill="#333551"/>
<path d="M301.097 179.972L297.71 181.941L291.983 178.635L295.371 176.666L301.097 179.972Z" fill="#333551"/>
<path d="M293.053 175.328L289.666 177.297L283.983 174.016L287.371 172.048L293.053 175.328Z" fill="#333551"/>
<path d="M285.053 170.71L281.666 172.679L275.939 169.373L279.327 167.404L285.053 170.71Z" fill="#333551"/>
<path d="M277.01 166.066L273.623 168.035L267.94 164.754L271.328 162.785L277.01 166.066Z" fill="#333551"/>
<path d="M270.18 168.01L264.752 171.165L259.069 167.884L264.498 164.729L270.18 168.01Z" fill="#333551"/>
<path d="M268.967 161.423L265.58 163.391L259.897 160.11L263.285 158.142L268.967 161.423Z" fill="#333551"/>
<path d="M262.443 163.543L257.015 166.698L251.332 163.417L256.761 160.262L262.443 163.543Z" fill="#333551"/>
<path d="M254.706 159.076L249.277 162.231L243.595 158.95L249.023 155.795L254.706 159.076Z" fill="#333551"/>
<path d="M246.97 154.609L241.541 157.763L235.858 154.482L241.287 151.328L246.97 154.609Z" fill="#333551"/>
<path d="M260.968 156.804L257.581 158.773L251.898 155.492L255.286 153.523L260.968 156.804Z" fill="#333551"/>
<path d="M252.925 152.161L249.537 154.129L243.854 150.848L247.242 148.88L252.925 152.161Z" fill="#333551"/>
<path d="M228.884 138.28L225.497 140.249L219.771 136.943L223.158 134.974L228.884 138.28Z" fill="#333551"/>
<path d="M223.802 141.233L218.374 144.388L212.647 141.082L218.076 137.927L223.802 141.233Z" fill="#333551"/>
<path d="M236.883 142.899L233.496 144.867L227.813 141.586L231.201 139.618L236.883 142.899Z" fill="#333551"/>
<path d="M231.495 145.674L226.066 148.829L220.384 145.548L225.812 142.394L231.495 145.674Z" fill="#333551"/>
<path d="M244.926 147.542L241.539 149.511L235.812 146.205L239.2 144.236L244.926 147.542Z" fill="#333551"/>
<path d="M239.232 150.142L233.804 153.297L228.121 150.016L233.55 146.861L239.232 150.142Z" fill="#333551"/>
<path d="M277.918 172.477L272.489 175.632L266.807 172.351L272.235 169.196L277.918 172.477Z" fill="#333551"/>
<path d="M301.128 185.878L295.7 189.033L289.974 185.727L295.402 182.572L301.128 185.878Z" fill="#333551"/>
<path d="M293.392 181.411L287.964 184.565L282.281 181.285L287.71 178.13L293.392 181.411Z" fill="#333551"/>
<path d="M285.655 176.944L280.226 180.099L274.544 176.818L279.972 173.663L285.655 176.944Z" fill="#333551"/>
<path d="M308.867 190.345L303.438 193.5L297.712 190.194L303.14 187.039L308.867 190.345Z" fill="#333551"/>
<path d="M316.603 194.812L311.174 197.966L305.448 194.66L310.877 191.506L316.603 194.812Z" fill="#333551"/>
<path d="M297.505 192.338L292.033 195.518L286.351 192.238L291.822 189.058L297.505 192.338Z" fill="#333551"/>
<path d="M290.96 213.563L288.224 215.153L282.366 211.772L285.102 210.182L290.96 213.563Z" fill="#333551"/>
<path d="M295.746 220.251L293.01 221.841L287.152 218.46L289.888 216.87L295.746 220.251Z" fill="#333551"/>
<path d="M287.57 215.532L284.834 217.122L278.977 213.741L281.713 212.15L287.57 215.532Z" fill="#333551"/>
<path d="M305.243 196.806L299.771 199.986L294.089 196.705L299.561 193.525L305.243 196.806Z" fill="#333551"/>
<path d="M312.981 201.273L307.509 204.453L301.826 201.172L307.298 197.992L312.981 201.273Z" fill="#333551"/>
<path d="M300.134 202.459L294.662 205.639L288.892 202.308L294.363 199.127L300.134 202.459Z" fill="#333551"/>
<path d="M288.992 204.63L283.564 207.785L277.794 204.453L283.222 201.298L288.992 204.63Z" fill="#333551"/>
<path d="M313.293 210.055L307.821 213.235L296.718 206.825L302.19 203.645L313.293 210.055Z" fill="#333551"/>
<path d="M305.865 214.371L300.437 217.526L285.618 208.971L291.047 205.816L305.865 214.371Z" fill="#333551"/>
<path d="M320.718 205.74L315.246 208.919L309.563 205.639L315.035 202.459L320.718 205.74Z" fill="#333551"/>
<path d="M328.1 201.449L322.671 204.604L313.186 199.127L318.614 195.973L328.1 201.449Z" fill="#333551"/>
<path d="M289.768 187.872L284.296 191.052L278.613 187.771L284.085 184.591L289.768 187.872Z" fill="#333551"/>
<path d="M268.968 184.464L263.495 187.645L257.726 184.313L263.197 181.133L268.968 184.464Z" fill="#333551"/>
<path d="M214.413 152.969L208.942 156.149L197.795 149.713L203.267 146.533L214.413 152.969Z" fill="#333551"/>
<path d="M222.193 157.461L216.722 160.641L210.995 157.334L216.467 154.155L222.193 157.461Z" fill="#333551"/>
<path d="M194.271 158.496L188.799 161.676L182.941 158.294L188.413 155.114L194.271 158.496Z" fill="#333551"/>
<path d="M210.485 159.304L205.057 162.458L190.413 154.004L195.842 150.849L210.485 159.304Z" fill="#333551"/>
<path d="M202.227 163.089L196.755 166.269L190.897 162.887L196.369 159.707L202.227 163.089Z" fill="#333551"/>
<path d="M218.308 163.821L212.88 166.976L207.109 163.644L212.538 160.49L218.308 163.821Z" fill="#333551"/>
<path d="M210.182 167.682L204.71 170.862L198.853 167.48L204.325 164.3L210.182 167.682Z" fill="#333551"/>
<path d="M226.175 168.363L220.746 171.518L214.977 168.187L220.405 165.032L226.175 168.363Z" fill="#333551"/>
<path d="M220.148 173.436L214.676 176.616L206.808 172.073L212.279 168.893L220.148 173.436Z" fill="#333551"/>
<path d="M279.354 210.788L276.618 212.378L270.761 208.996L273.497 207.406L279.354 210.788Z" fill="#333551"/>
<path d="M274.309 204.705L268.837 207.885L263.023 204.529L268.495 201.349L274.309 204.705Z" fill="#333551"/>
<path d="M266.222 200.036L260.75 203.216L252.882 198.674L258.354 195.494L266.222 200.036Z" fill="#333551"/>
<path d="M253.361 175.455L247.889 178.635L242.163 175.329L247.635 172.149L253.361 175.455Z" fill="#333551"/>
<path d="M241.869 177.424L236.441 180.578L230.671 177.247L236.099 174.092L241.869 177.424Z" fill="#333551"/>
<path d="M249.737 181.966L244.309 185.121L238.495 181.764L243.924 178.61L249.737 181.966Z" fill="#333551"/>
<path d="M257.563 186.483L252.134 189.638L246.364 186.307L251.793 183.152L257.563 186.483Z" fill="#333551"/>
<path d="M265.43 191.026L260.002 194.181L254.231 190.85L259.66 187.695L265.43 191.026Z" fill="#333551"/>
<path d="M256.43 194.383L250.958 197.563L216.731 177.802L222.203 174.622L256.43 194.383Z" fill="#333551"/>
<path d="M261.143 179.947L255.671 183.127L249.944 179.821L255.416 176.641L261.143 179.947Z" fill="#333551"/>
<path d="M266.602 174.496L261.13 177.676L255.403 174.37L260.875 171.19L266.602 174.496Z" fill="#333551"/>
<path d="M274.339 178.963L268.867 182.143L263.141 178.837L268.612 175.657L274.339 178.963Z" fill="#333551"/>
<path d="M282.031 183.405L276.559 186.585L270.876 183.304L276.348 180.124L282.031 183.405Z" fill="#333551"/>
<path d="M258.864 170.029L253.392 173.209L247.666 169.903L253.138 166.723L258.864 170.029Z" fill="#333551"/>
<path d="M244.503 203.938L243.768 204.379L215.927 188.365L189.409 203.792L188.674 203.351L215.927 187.484L244.503 203.938Z" fill="url(#paint8_linear_583_99087)"/>
<path d="M243.769 204.379L217.251 219.806L189.41 203.792L215.929 188.365L243.769 204.379Z" fill="url(#paint9_linear_583_99087)"/>
<path d="M235.653 156.628L230.181 159.808L224.498 156.527L229.97 153.347L235.653 156.628Z" fill="#333551"/>
<path d="M245.58 170.963L240.108 174.143L234.382 170.837L239.854 167.657L245.58 170.963Z" fill="#333551"/>
<path d="M237.8 166.471L232.328 169.65L226.558 166.319L232.029 163.139L237.8 166.471Z" fill="#333551"/>
<path d="M243.389 161.095L237.917 164.275L232.234 160.994L237.706 157.814L243.389 161.095Z" fill="#333551"/>
<path d="M251.127 165.562L245.655 168.742L239.973 165.461L245.444 162.281L251.127 165.562Z" fill="#333551"/>
<path d="M276.747 188.957L271.275 192.137L265.549 188.831L271.021 185.651L276.747 188.957Z" fill="#333551"/>
<path d="M284.528 193.449L279.056 196.629L273.33 193.323L278.802 190.143L284.528 193.449Z" fill="#333551"/>
<path d="M273.298 195.569L267.869 198.724L262.056 195.367L267.484 192.213L273.298 195.569Z" fill="#333551"/>
<path d="M281.122 200.087L275.693 203.242L269.923 199.91L275.351 196.755L281.122 200.087Z" fill="#333551"/>
<path d="M292.309 197.941L286.837 201.121L281.11 197.815L286.582 194.635L292.309 197.941Z" fill="#333551"/>
<path d="M229.976 161.953L224.504 165.133L218.777 161.827L224.249 158.647L229.976 161.953Z" fill="#333551"/>
<path d="M234.001 172.881L228.573 176.036L222.803 172.704L228.231 169.55L234.001 172.881Z" fill="#333551"/>
<path d="M317.139 189.234L313.752 191.203L308.069 187.922L311.457 185.953L317.139 189.234Z" fill="#333551"/>
<path d="M333.18 198.496L329.793 200.465L324.11 197.184L327.498 195.216L333.18 198.496Z" fill="#333551"/>
<path d="M325.137 193.853L321.75 195.821L316.067 192.54L319.455 190.572L325.137 193.853Z" fill="#333551"/>
<path d="M359.871 93.0807V97.8383L231.403 25.3592V17.9096C231.403 16.2843 232.758 15.2688 234.045 15.2688C234.519 15.2688 234.925 15.3361 235.399 15.6074L354.114 83.2609C357.636 85.2927 359.871 89.0173 359.871 93.0807Z" fill="#155284"/>
<path d="M240.683 24.5361C240.683 25.3576 240.017 25.6441 239.196 25.1763C238.374 24.7086 237.708 23.6633 237.708 22.8418C237.708 22.0202 238.374 21.7335 239.196 22.2015C240.017 22.6693 240.683 23.7145 240.683 24.5361Z" fill="url(#paint10_linear_583_99087)"/>
<path d="M245.028 27.0107C245.028 27.8322 244.362 28.1187 243.54 27.6509C242.719 27.1832 242.053 26.1379 242.053 25.3164C242.053 24.4948 242.719 24.2081 243.54 24.6761C244.362 25.1439 245.028 26.1891 245.028 27.0107Z" fill="url(#paint11_linear_583_99087)"/>
<path d="M249.075 30.2283C249.57 29.8546 249.44 28.8477 248.784 27.9793C248.129 27.1109 247.196 26.7099 246.701 27.0836C246.206 27.4573 246.336 28.4642 246.992 29.3326C247.647 30.2009 248.58 30.602 249.075 30.2283Z" fill="white"/>
<path d="M317.124 149.857C302.445 141.625 290.503 122.986 290.503 108.307C290.503 93.6274 302.445 88.3823 317.124 96.6143V101.775C305.29 95.1387 295.664 99.3667 295.664 111.201C295.664 123.035 305.29 138.06 317.124 144.696V149.857Z" fill="url(#paint12_linear_583_99087)"/>
<path d="M317.603 102.049L317.124 101.775V96.6143L317.679 96.9303L317.603 102.049Z" fill="url(#paint13_linear_583_99087)"/>
<path d="M318.878 150.785L318.535 145.442C318.843 145.594 319.148 145.738 319.455 145.88L319.989 151.31C319.622 151.144 319.251 150.969 318.878 150.785ZM321.113 151.797L320.352 146.265C320.65 146.388 320.947 146.502 321.239 146.608L322.237 152.233C321.864 152.097 321.491 151.951 321.113 151.797ZM323.349 152.619L322.124 146.918C322.421 147.011 322.719 147.103 323.011 147.183L324.432 152.94C324.074 152.842 323.712 152.735 323.349 152.619ZM325.493 153.207L323.896 147.402C324.18 147.471 324.46 147.527 324.737 147.577L326.577 153.432C326.219 153.367 325.859 153.291 325.493 153.207ZM327.64 153.6L325.564 147.708C325.849 147.744 326.133 147.775 326.411 147.797L328.643 153.701C328.311 153.673 327.976 153.639 327.64 153.6ZM329.649 153.758L327.219 147.84C327.491 147.849 327.756 147.848 328.018 147.842L330.629 153.756C330.306 153.764 329.981 153.766 329.649 153.758ZM331.599 153.701L328.782 147.796C329.036 147.773 329.291 147.744 329.54 147.708L332.524 153.589C332.219 153.635 331.909 153.673 331.599 153.701ZM333.431 153.428L330.266 147.575C330.508 147.524 330.745 147.466 330.977 147.399L334.308 153.209C334.021 153.29 333.729 153.363 333.431 153.428ZM335.15 152.932L331.657 147.173C331.882 147.093 332.101 147.006 332.315 146.912L335.964 152.608C335.699 152.724 335.43 152.832 335.15 152.932ZM336.755 152.225L332.94 146.613C333.147 146.499 333.351 146.385 333.55 146.259L337.491 151.801C337.252 151.949 337.007 152.091 336.755 152.225ZM338.197 151.322L334.119 145.87C334.306 145.736 334.484 145.591 334.661 145.443L338.869 150.787C338.653 150.973 338.429 151.152 338.197 151.322ZM339.507 150.207L335.173 144.974C335.334 144.815 335.493 144.65 335.644 144.472L340.104 149.57C339.913 149.79 339.714 150.003 339.507 150.207ZM340.644 148.904L336.098 143.91C336.239 143.727 336.372 143.535 336.501 143.338L341.163 148.17C340.999 148.423 340.825 148.668 340.644 148.904ZM341.621 147.406L336.884 142.708C336.999 142.499 337.113 142.28 337.219 142.057L342.047 146.589C341.911 146.871 341.773 147.146 341.621 147.406ZM342.425 145.725L337.516 141.374C337.612 141.133 337.703 140.889 337.786 140.641L342.75 144.836C342.647 145.139 342.541 145.435 342.425 145.725ZM343.035 143.9L338.015 139.895C338.083 139.644 338.146 139.384 338.202 139.12L343.272 142.916C343.201 143.252 343.123 143.579 343.035 143.9ZM343.463 141.907L338.353 138.31C338.396 138.032 338.436 137.75 338.466 137.459L343.602 140.874C343.562 141.224 343.516 141.569 343.463 141.907ZM343.698 139.778L338.542 136.62C338.559 136.317 338.572 136.01 338.58 135.699L343.741 138.709C343.733 139.07 343.715 139.425 343.698 139.778ZM338.58 134.794C338.575 134.489 338.56 134.178 338.539 133.869L343.69 136.41C343.716 136.802 343.731 137.189 343.741 137.572L338.58 134.794ZM338.466 132.923C338.433 132.598 338.393 132.27 338.348 131.942L343.453 134.039C343.509 134.438 343.554 134.834 343.597 135.231L338.466 132.923ZM338.197 130.965C338.139 130.633 338.073 130.296 338.005 129.961L343.025 131.587C343.113 131.999 343.189 132.407 343.262 132.818L338.197 130.965ZM337.776 128.955C337.693 128.614 337.602 128.271 337.506 127.927L342.41 129.069C342.526 129.49 342.637 129.91 342.74 130.328L337.776 128.955ZM337.206 126.912C337.098 126.564 336.984 126.218 336.863 125.868L341.611 126.505C341.757 126.929 341.896 127.355 342.029 127.777L337.206 126.912ZM336.501 124.858C336.365 124.502 336.223 124.146 336.077 123.789L340.638 123.933C340.81 124.354 340.976 124.775 341.137 125.196L336.501 124.858ZM335.634 122.747C335.48 122.401 335.321 122.052 335.158 121.709L339.492 121.337C339.696 121.769 339.895 122.201 340.084 122.632L335.634 122.747ZM334.648 120.669C334.469 120.32 334.288 119.971 334.099 119.621L338.197 118.778C338.421 119.199 338.643 119.621 338.857 120.046L334.648 120.669ZM333.537 118.61C333.338 118.264 333.139 117.925 332.932 117.585L336.732 116.224C336.984 116.64 337.234 117.062 337.478 117.489L333.537 118.61ZM332.302 116.577C332.086 116.238 331.866 115.906 331.645 115.578L335.137 113.736C335.415 114.146 335.684 114.557 335.951 114.974L332.302 116.577ZM330.962 114.593C330.73 114.266 330.493 113.942 330.251 113.62L333.416 111.317C333.713 111.716 334.006 112.117 334.293 112.52L330.962 114.593ZM329.52 112.666C329.273 112.353 329.021 112.04 328.767 111.734L331.569 108.971C331.884 109.352 332.196 109.739 332.504 110.13L329.52 112.666ZM327.993 110.821C327.728 110.519 327.459 110.217 327.187 109.918L329.631 106.743C329.959 107.103 330.284 107.466 330.604 107.835L327.993 110.821ZM326.37 109.049C326.101 108.767 325.826 108.487 325.551 108.217L327.577 104.606C327.928 104.953 328.273 105.303 328.618 105.663L326.37 109.049ZM324.694 107.391C324.42 107.131 324.14 106.876 323.858 106.627L325.455 102.614C325.823 102.941 326.189 103.275 326.544 103.61L324.694 107.391ZM322.971 105.855C322.686 105.615 322.396 105.377 322.104 105.145L323.283 100.781C323.656 101.079 324.026 101.382 324.392 101.693L322.971 105.855ZM321.214 104.457C320.914 104.233 320.614 104.012 320.309 103.796L321.071 99.1168C321.441 99.38 321.812 99.6508 322.177 99.9262L321.214 104.457ZM319.412 103.179C319.105 102.974 318.798 102.776 318.49 102.584L318.833 97.6252C319.206 97.8597 319.574 98.0962 319.947 98.3431L319.412 103.179Z" fill="url(#paint14_linear_583_99087)"/>
<path d="M317.124 149.857V144.696L317.603 144.96L317.679 150.163L317.124 149.857Z" fill="url(#paint15_linear_583_99087)"/>
<path d="M309.394 113.286L305.478 111.089L305.082 114.129C305.319 114.223 305.541 114.308 305.921 114.521C306.71 114.963 307.499 115.622 308.131 116.446C308.935 117.461 309.598 118.927 309.598 120.529C309.598 123.009 308.005 123.971 305.778 122.721C304.656 122.092 303.709 121.17 303.22 120.506L303.568 119.393C303.993 119.944 304.83 120.804 305.762 121.327C307.073 122.062 308.194 121.637 308.194 119.936C308.179 118.287 307.295 116.619 305.241 115.468C304.656 115.14 304.2 114.962 303.82 114.809L304.482 109.087L309.394 111.842V113.286Z" fill="#FAFAFD"/>
<path d="M318.191 122.985C318.191 127.301 316.896 128.956 314.623 127.682C312.617 126.557 311.259 123.471 311.229 119.256C311.229 114.997 312.713 113.486 314.797 114.655C316.959 115.868 318.191 118.942 318.191 122.985ZM312.617 120.055C312.617 123.354 313.439 125.689 314.701 126.397C316.122 127.195 316.8 125.526 316.8 122.283C316.8 119.158 316.153 116.743 314.716 115.938C313.502 115.257 312.617 116.598 312.617 120.055Z" fill="#FAFAFD"/>
<path d="M324.098 123.661C324.098 126.337 322.962 127.026 321.633 126.281C320.356 125.564 319.25 123.676 319.234 121.11C319.234 118.57 320.356 117.772 321.714 118.534C323.151 119.34 324.098 121.239 324.098 123.661ZM320.341 121.67C320.308 123.274 320.797 124.778 321.666 125.266C322.581 125.779 322.992 124.797 322.992 123.119C322.992 121.574 322.629 120.083 321.666 119.543C320.797 119.055 320.341 120.07 320.341 121.67ZM321.54 131.561L327.571 121.818L328.455 122.314L322.425 132.057L321.54 131.561ZM330.776 132.658C330.776 135.334 329.64 136.025 328.329 135.29C327.049 134.572 325.946 132.685 325.93 130.137C325.93 127.579 327.049 126.78 328.407 127.542C329.844 128.347 330.776 130.239 330.776 132.658ZM327.019 130.669C327.004 132.281 327.508 133.794 328.362 134.272C329.277 134.785 329.688 133.806 329.688 132.128C329.688 130.583 329.325 129.092 328.362 128.552C327.493 128.065 327.019 129.069 327.019 130.669Z" fill="#FAFAFD"/>
<path d="M281.765 79.2531V170.368C281.765 173.072 280.168 175.223 278.017 176.201C277.789 176.299 277.528 176.429 277.235 176.624C278.05 175.581 278.538 174.278 278.538 172.779V81.6646C278.538 76.5813 275.801 71.8884 271.402 69.3791L155.162 3.16147C153.207 2.05322 151.024 2.24886 149.362 3.2594C149.329 3.29197 149.264 3.32475 149.231 3.35732C148.319 3.42225 147.439 3.68281 146.689 4.17201C148.384 2.93326 151.252 1.85801 152.164 1.17339C153.859 -0.129859 156.27 -0.455993 158.388 0.750185L274.628 66.9679C279.06 69.4769 281.765 74.1698 281.765 79.2531Z" fill="#80ECEE"/>
<path opacity="0.5" d="M278.538 81.6645V172.779C278.538 174.278 278.05 175.581 277.235 176.624C277.235 176.657 277.235 176.657 277.235 176.657C276.029 177.341 274.367 178.547 272.868 179.101C271.597 179.264 270.261 179.036 269.023 178.319L153.598 112.557C149.329 110.146 146.689 105.583 146.689 100.663V8.0821C146.689 6.15915 147.602 4.56234 148.938 3.58501C149.036 3.48709 149.134 3.42195 149.231 3.35702C149.264 3.32445 149.329 3.29188 149.362 3.25909C151.024 2.24877 153.207 2.05292 155.162 3.16117L271.402 69.3788C275.801 71.8883 278.538 76.581 278.538 81.6645Z" fill="#80ECEE"/>
<path opacity="0.5" d="M277.236 176.657C276.747 177.277 276.16 177.798 275.509 178.222C274.727 178.71 273.814 179.036 272.869 179.102C274.368 178.547 276.03 177.342 277.236 176.657Z" fill="#80ECEE"/>
<path d="M169.329 62.3127L164.488 59.4238V48.29L169.329 51.179V62.3127Z" fill="url(#paint16_linear_583_99087)"/>
<path d="M177.766 67.3475L172.925 64.4586V47.8618L177.766 50.7507V67.3475Z" fill="url(#paint17_linear_583_99087)"/>
<path d="M161.38 57.5687L156.539 54.6798V42.0825L161.38 44.9714V57.5687Z" fill="url(#paint18_linear_583_99087)"/>
<path d="M186.202 72.3825L181.361 69.4936V47.2263L186.202 50.1152V72.3825Z" fill="url(#paint19_linear_583_99087)"/>
<path d="M194.639 77.4174L189.798 74.5285V46.5906L194.639 49.4795V77.4174Z" fill="url(#paint20_linear_583_99087)"/>
<path d="M203.075 82.4525L198.234 79.5636V44.7104L203.075 47.5994V82.4525Z" fill="url(#paint21_linear_583_99087)"/>
<path d="M211.512 87.4874L206.671 84.5985V40.064L211.512 42.9529V87.4874Z" fill="url(#paint22_linear_583_99087)"/>
<path d="M219.949 92.5226L215.108 89.6337V59.7595L219.949 62.6484V92.5226Z" fill="url(#paint23_linear_583_99087)"/>
<path d="M191.479 92.1896L216.613 107.048V104.871L191.479 90.0127V92.1896Z" fill="url(#paint24_linear_583_99087)"/>
<path d="M191.479 95.9498L211.468 107.766V105.589L191.479 93.7727V95.9498Z" fill="url(#paint25_linear_583_99087)"/>
<path d="M191.479 119.129L207.11 128.37V126.193L191.479 116.952V119.129Z" fill="url(#paint26_linear_583_99087)"/>
<path d="M191.479 88.1265L207.11 97.3669V95.1898L191.479 85.9495V88.1265Z" fill="url(#paint27_linear_583_99087)"/>
<path d="M155.479 66.8437L157.941 68.2995V66.1228L155.479 64.6672V66.8437Z" fill="url(#paint28_linear_583_99087)"/>
<path d="M155.479 70.9071L157.941 72.3627V70.1863L155.479 68.7305V70.9071Z" fill="url(#paint29_linear_583_99087)"/>
<path d="M155.479 74.9701L157.941 76.4257V74.2493L155.479 72.7937V74.9701Z" fill="url(#paint30_linear_583_99087)"/>
<path d="M155.479 79.0336L157.941 80.4892V78.3125L155.479 76.8569V79.0336Z" fill="url(#paint31_linear_583_99087)"/>
<path d="M155.479 83.0966L157.941 84.5522V82.3758L155.479 80.9202V83.0966Z" fill="url(#paint32_linear_583_99087)"/>
<path d="M155.479 87.1601L157.941 88.6157V86.439L155.479 84.9834V87.1601Z" fill="url(#paint33_linear_583_99087)"/>
<path d="M155.479 91.2233L157.941 92.6789V90.5024L155.479 89.0466V91.2233Z" fill="url(#paint34_linear_583_99087)"/>
<path d="M155.479 95.2863L157.941 96.7421V94.5655L155.479 93.1099V95.2863Z" fill="url(#paint35_linear_583_99087)"/>
<path d="M155.479 99.3497L157.941 100.805V98.6289L155.479 97.1731V99.3497Z" fill="url(#paint36_linear_583_99087)"/>
<path d="M191.479 99.7098L218.196 115.504V113.327L191.479 97.5327V99.7098Z" fill="url(#paint37_linear_583_99087)"/>
<path d="M191.479 103.47L226.904 124.412V122.235L191.479 101.293V103.47Z" fill="url(#paint38_linear_583_99087)"/>
<path d="M191.479 107.23L214.238 120.684V118.508L191.479 105.053V107.23Z" fill="url(#paint39_linear_583_99087)"/>
<path d="M191.479 110.99L219.087 127.311V125.134L191.479 108.813V110.99Z" fill="url(#paint40_linear_583_99087)"/>
<path d="M191.479 114.75L212.952 127.444V125.267L191.479 112.573V114.75Z" fill="url(#paint41_linear_583_99087)"/>
<path d="M191.848 92.4071L166.714 77.5489V75.3721L191.848 90.2302V92.4071Z" fill="white"/>
<path d="M191.849 96.1671L171.86 84.3509V82.1738L191.849 93.9903V96.1671Z" fill="white"/>
<path d="M191.848 119.347L176.217 110.107V107.93L191.848 117.17V119.347Z" fill="white"/>
<path d="M191.848 88.3442L172.664 77.0033V74.8264L191.848 86.1674V88.3442Z" fill="white"/>
<path d="M191.847 99.9275L165.13 84.1334V81.9565L191.847 97.7506V99.9275Z" fill="white"/>
<path d="M191.848 103.688L161.937 86.0052V83.8281L191.848 101.511V103.688Z" fill="white"/>
<path d="M191.849 107.448L169.09 93.9937V91.8167L191.849 105.271V107.448Z" fill="white"/>
<path d="M191.848 111.208L164.24 94.8873V92.7104L191.848 109.031V111.208Z" fill="white"/>
<path d="M191.848 114.968L170.375 102.274V100.097L191.848 112.791V114.968Z" fill="white"/>
<path d="M268.221 144.071C268.221 152.1 261.716 154.811 253.686 150.128C249.789 147.855 246.258 144.271 243.649 140.259L253.686 135.593L244.104 119.074C246.668 118.327 250.023 118.922 253.686 121.058C261.716 125.741 268.221 136.041 268.221 144.071Z" fill="url(#paint42_linear_583_99087)"/>
<path d="M253.686 135.593L243.65 140.259C240.88 135.992 239.151 131.247 239.151 127.115C239.151 122.749 241.071 119.957 244.104 119.073L253.686 135.593Z" fill="url(#paint43_linear_583_99087)"/>
<path d="M253.686 106.734C248.289 103.586 243.916 96.6637 243.916 91.2667C243.916 85.8696 248.289 84.0476 253.686 87.1954C256.504 88.8393 259.051 91.5255 260.828 94.4841L265.329 92.961C262.43 88.1472 258.282 83.7742 253.686 81.0935C244.909 75.9748 237.799 78.9383 237.799 87.6985C237.799 96.4749 244.909 107.733 253.686 112.851C256.969 114.766 260.011 115.548 262.542 115.342L259.755 108.16C258.09 108.518 255.976 108.07 253.686 106.734Z" fill="url(#paint44_linear_583_99087)"/>
<path d="M269.573 106.23C269.573 111.724 266.786 114.951 262.542 115.342L259.756 108.16C262.014 107.683 263.455 105.769 263.455 102.662C263.455 100.1 262.462 97.1666 260.829 94.484L265.329 92.9609C267.972 97.337 269.573 102.05 269.573 106.23Z" fill="url(#paint45_linear_583_99087)"/>
<path d="M247.159 94.297C247.346 94.5112 247.776 94.9591 248.206 95.21C248.755 95.5301 249.032 95.4039 249.032 95.0347C249.032 94.5515 248.588 94.0735 248.124 93.8026L247.694 93.5517V92.7276L248.103 92.9665C248.457 93.1664 248.907 93.2851 248.907 92.8692C248.907 92.5752 248.685 92.2266 248.241 91.9675C247.874 91.7532 247.486 91.7005 247.298 91.7115L247.082 90.7551C247.353 90.7236 247.896 90.8603 248.477 91.1998C249.442 91.7625 249.977 92.6249 249.977 93.2976C249.977 93.8182 249.706 94.0687 249.151 93.956V93.9702C249.692 94.3921 250.129 95.0924 250.129 95.7335C250.129 96.603 249.428 96.8278 248.283 96.1601C247.7 95.8198 247.207 95.3666 246.944 95.0321L247.159 94.297Z" fill="black"/>
<path d="M254.499 97.2251C254.499 98.7437 253.937 99.4579 252.785 98.7855C251.619 98.106 251.105 96.6656 251.099 95.2732C251.099 93.8532 251.654 93.0524 252.821 93.733C254.028 94.4371 254.499 95.8816 254.499 97.2251ZM252.16 95.8925C252.154 97.0134 252.403 97.6948 252.813 97.9337C253.222 98.1726 253.445 97.7439 253.445 96.6257C253.445 95.5387 253.229 94.8389 252.806 94.5927C252.417 94.3655 252.154 94.7489 252.16 95.8925Z" fill="black"/>
<path d="M257.736 98.056C257.736 99.0835 257.139 99.2717 256.487 98.8911C255.8 98.4906 255.259 97.6168 255.259 96.6956C255.259 95.8181 255.751 95.4425 256.521 95.8912C257.298 96.3444 257.736 97.2193 257.736 98.056ZM256.042 97.1212C256.042 97.6356 256.202 98.0978 256.508 98.2766C256.806 98.4499 256.953 98.2041 256.953 97.6519C256.953 97.1546 256.828 96.6954 256.501 96.5047C256.188 96.3225 256.042 96.6302 256.042 97.1212ZM256.543 100.978L259.131 97.4136L259.701 97.7456L257.104 101.305L256.543 100.978ZM260.985 101.99C260.985 103.017 260.387 103.204 259.735 102.824C259.055 102.427 258.513 101.553 258.507 100.628C258.507 99.7523 259 99.3749 259.769 99.8236C260.547 100.277 260.985 101.152 260.985 101.99ZM259.297 101.059C259.291 101.568 259.45 102.032 259.755 102.21C260.054 102.384 260.2 102.136 260.2 101.585C260.2 101.086 260.082 100.633 259.755 100.442C259.436 100.256 259.297 100.568 259.297 101.059Z" fill="black"/>
<path d="M270.682 207.704L133.748 116.576L136.339 115.067L270.682 190.409V207.704Z" fill="url(#paint46_linear_583_99087)"/>
<path d="M268.09 209.213L133.748 133.871V116.576L268.09 191.918V209.213Z" fill="url(#paint47_linear_583_99087)"/>
<path d="M264.497 203.444L137.341 132.132V122.345L264.497 193.657V203.444Z" fill="white"/>
<path d="M141.788 133.289L139.06 131.758V124.645L141.788 126.175V133.289Z" fill="url(#paint48_linear_583_99087)"/>
<path d="M146.165 135.744L143.437 134.214V127.1L146.165 128.631V135.744Z" fill="url(#paint49_linear_583_99087)"/>
<path d="M150.543 138.199L147.814 136.669V129.555L150.543 131.086V138.199Z" fill="url(#paint50_linear_583_99087)"/>
<path d="M154.921 140.654L152.192 139.124V132.01L154.921 133.541V140.654Z" fill="url(#paint51_linear_583_99087)"/>
<path d="M159.299 143.109L156.57 141.579V134.466L159.299 135.996V143.109Z" fill="url(#paint52_linear_583_99087)"/>
<path d="M163.676 145.564L160.947 144.034V136.921L163.676 138.451V145.564Z" fill="url(#paint53_linear_583_99087)"/>
<path d="M168.054 148.02L165.325 146.489V139.376L168.054 140.906V148.02Z" fill="url(#paint54_linear_583_99087)"/>
<path d="M172.432 150.475L169.703 148.944V141.831L172.432 143.361V150.475Z" fill="url(#paint55_linear_583_99087)"/>
<path d="M176.81 152.929L174.081 151.399V144.286L176.81 145.816V152.929Z" fill="url(#paint56_linear_583_99087)"/>
<path d="M181.187 155.385L178.458 153.855V146.741L181.187 148.272V155.385Z" fill="url(#paint57_linear_583_99087)"/>
<path d="M185.565 157.84L182.836 156.31V149.196L185.565 150.726V157.84Z" fill="url(#paint58_linear_583_99087)"/>
<path d="M189.942 160.295L187.214 158.765V151.651L189.942 153.182V160.295Z" fill="url(#paint59_linear_583_99087)"/>
<path d="M194.32 162.75L191.592 161.22V154.107L194.32 155.637V162.75Z" fill="url(#paint60_linear_583_99087)"/>
<path d="M270.682 190.409L268.091 191.918V209.213L270.682 207.704V190.409Z" fill="url(#paint61_linear_583_99087)"/>
<path opacity="0.7" d="M68 301.85V145.04C68 144.059 68.3519 143.316 68.9797 142.971L76.23 138.99C77.5999 138.237 79.8576 139.554 81.1814 141.876L84.1106 147.016C85.7046 149.813 88.5314 151.015 89.6394 149.367L113.92 113.254C115.329 111.157 119.214 113.703 120.172 117.351L126.229 140.415C127.107 143.758 130.537 146.306 132.192 144.844C133.692 143.519 136.742 145.497 137.924 148.562L149.644 178.949C150.687 181.652 153.253 183.607 154.903 182.956L189.315 169.385C190.929 168.748 193.433 170.608 194.516 173.25L196.387 177.809C196.659 178.473 197.293 178.935 197.69 178.759L209.988 173.286C212.177 172.312 215.721 176.015 215.721 179.276V301.673L68 301.85Z" fill="url(#paint62_linear_583_99087)"/>
<path d="M68.9795 142.971L76.2298 138.99C77.5997 138.237 79.8574 139.554 81.1812 141.876L84.1104 147.016C85.7044 149.813 88.5312 151.015 89.6392 149.367L113.919 113.254C115.329 111.157 119.214 113.703 120.172 117.351L126.228 140.415C127.106 143.758 130.537 146.306 132.192 144.844C133.692 143.519 136.742 145.497 137.924 148.562L149.644 178.949C150.687 181.652 153.253 183.607 154.902 182.956L189.314 169.385C190.929 168.748 193.433 170.608 194.516 173.25L196.386 177.809C196.659 178.473 197.293 178.935 197.69 178.759L209.987 173.286C209.987 173.286 213.543 171.576 215.721 176.439" stroke="#1C8EF4" stroke-width="2.07" stroke-miterlimit="10" stroke-linecap="round" stroke-linejoin="round"/>
<defs>
<linearGradient id="paint0_linear_583_99087" x1="218.5" y1="302" x2="218.5" y2="0" gradientUnits="userSpaceOnUse">
<stop stop-color="#EFE5FF" stop-opacity="0"/>
<stop offset="1" stop-color="#DADAFF"/>
</linearGradient>
<linearGradient id="paint1_linear_583_99087" x1="338.103" y1="169.049" x2="265.863" y2="30.9742" gradientUnits="userSpaceOnUse">
<stop stop-color="#3B3E5E"/>
<stop offset="1" stop-color="#626282"/>
</linearGradient>
<linearGradient id="paint2_linear_583_99087" x1="228.253" y1="102.418" x2="362.967" y2="102.418" gradientUnits="userSpaceOnUse">
<stop stop-color="#3B3E5E"/>
<stop offset="1" stop-color="#626282"/>
</linearGradient>
<linearGradient id="paint3_linear_583_99087" x1="344.949" y1="66.5326" x2="266.905" y2="123.031" gradientUnits="userSpaceOnUse">
<stop stop-color="#1D7ECE"/>
<stop offset="1" stop-color="#6D6AFE"/>
</linearGradient>
<linearGradient id="paint4_linear_583_99087" x1="206.44" y1="195.895" x2="338.291" y2="195.714" gradientUnits="userSpaceOnUse">
<stop stop-color="#3B3E5E"/>
<stop offset="1" stop-color="#626282"/>
</linearGradient>
<linearGradient id="paint5_linear_583_99087" x1="206.44" y1="195.525" x2="338.291" y2="195.345" gradientUnits="userSpaceOnUse">
<stop stop-color="#CBCBD6"/>
<stop offset="1" stop-color="#F9FAF9"/>
</linearGradient>
<linearGradient id="paint6_linear_583_99087" x1="256.348" y1="129.301" x2="233.758" y2="242.556" gradientUnits="userSpaceOnUse">
<stop stop-color="#CBCBD6"/>
<stop offset="1" stop-color="#F9FAF9"/>
</linearGradient>
<linearGradient id="paint7_linear_583_99087" x1="295.016" y1="47.9138" x2="367.73" y2="174.42" gradientUnits="userSpaceOnUse">
<stop stop-color="#3B3E5E"/>
<stop offset="0.3291" stop-color="white"/>
<stop offset="1" stop-color="#626282"/>
</linearGradient>
<linearGradient id="paint8_linear_583_99087" x1="188.674" y1="195.931" x2="244.503" y2="195.931" gradientUnits="userSpaceOnUse">
<stop stop-color="#CBCBD6"/>
<stop offset="1" stop-color="#F9FAF9"/>
</linearGradient>
<linearGradient id="paint9_linear_583_99087" x1="231.047" y1="198.773" x2="201.545" y2="209.614" gradientUnits="userSpaceOnUse">
<stop stop-color="#CBCBD6"/>
<stop offset="1" stop-color="#F9FAF9"/>
</linearGradient>
<linearGradient id="paint10_linear_583_99087" x1="237.708" y1="22.8418" x2="240.683" y2="22.8418" gradientUnits="userSpaceOnUse">
<stop stop-color="#FBD008"/>
<stop offset="1" stop-color="#F88019"/>
</linearGradient>
<linearGradient id="paint11_linear_583_99087" x1="242.053" y1="25.3164" x2="245.028" y2="25.3164" gradientUnits="userSpaceOnUse">
<stop stop-color="#1D7ECE"/>
<stop offset="1" stop-color="#185894"/>
</linearGradient>
<linearGradient id="paint12_linear_583_99087" x1="290.503" y1="108.306" x2="317.124" y2="108.306" gradientUnits="userSpaceOnUse">
<stop stop-color="#FBD008"/>
<stop offset="1" stop-color="#F88019"/>
</linearGradient>
<linearGradient id="paint13_linear_583_99087" x1="317.124" y1="99.1973" x2="317.678" y2="99.1973" gradientUnits="userSpaceOnUse">
<stop stop-color="#CBCBD6"/>
<stop offset="1" stop-color="#F9FAF9"/>
</linearGradient>
<linearGradient id="paint14_linear_583_99087" x1="318.49" y1="124" x2="343.741" y2="124" gradientUnits="userSpaceOnUse">
<stop stop-color="#CBCBD6"/>
<stop offset="1" stop-color="#F9FAF9"/>
</linearGradient>
<linearGradient id="paint15_linear_583_99087" x1="317.124" y1="147.274" x2="317.678" y2="147.274" gradientUnits="userSpaceOnUse">
<stop stop-color="#CBCBD6"/>
<stop offset="1" stop-color="#F9FAF9"/>
</linearGradient>
<linearGradient id="paint16_linear_583_99087" x1="166.909" y1="19.7744" x2="148.302" y2="50.951" gradientUnits="userSpaceOnUse">
<stop stop-color="#1D7ECE"/>
<stop offset="1" stop-color="#17538C"/>
</linearGradient>
<linearGradient id="paint17_linear_583_99087" x1="175.345" y1="24.8092" x2="156.739" y2="55.9859" gradientUnits="userSpaceOnUse">
<stop stop-color="#FABB0C"/>
<stop offset="1" stop-color="#F88019"/>
</linearGradient>
<linearGradient id="paint18_linear_583_99087" x1="158.96" y1="15.0303" x2="140.353" y2="46.207" gradientUnits="userSpaceOnUse">
<stop stop-color="#FABB0C"/>
<stop offset="1" stop-color="#F88019"/>
</linearGradient>
<linearGradient id="paint19_linear_583_99087" x1="183.782" y1="29.8443" x2="165.175" y2="61.0209" gradientUnits="userSpaceOnUse">
<stop stop-color="#1D7ECE"/>
<stop offset="1" stop-color="#17538C"/>
</linearGradient>
<linearGradient id="paint20_linear_583_99087" x1="192.218" y1="34.8791" x2="173.612" y2="66.0558" gradientUnits="userSpaceOnUse">
<stop stop-color="#FABB0C"/>
<stop offset="1" stop-color="#F88019"/>
</linearGradient>
<linearGradient id="paint21_linear_583_99087" x1="200.655" y1="39.9143" x2="182.048" y2="71.091" gradientUnits="userSpaceOnUse">
<stop stop-color="#1D7ECE"/>
<stop offset="1" stop-color="#17538C"/>
</linearGradient>
<linearGradient id="paint22_linear_583_99087" x1="209.091" y1="44.9492" x2="190.485" y2="76.1259" gradientUnits="userSpaceOnUse">
<stop stop-color="#FABB0C"/>
<stop offset="1" stop-color="#F88019"/>
</linearGradient>
<linearGradient id="paint23_linear_583_99087" x1="217.529" y1="49.9843" x2="198.923" y2="81.1608" gradientUnits="userSpaceOnUse">
<stop stop-color="#1D7ECE"/>
<stop offset="1" stop-color="#17538C"/>
</linearGradient>
<linearGradient id="paint24_linear_583_99087" x1="230.538" y1="114.192" x2="188.791" y2="114.192" gradientUnits="userSpaceOnUse">
<stop stop-color="#1D7ECE"/>
<stop offset="1" stop-color="#17538C"/>
</linearGradient>
<linearGradient id="paint25_linear_583_99087" x1="230.538" y1="117.952" x2="188.791" y2="117.952" gradientUnits="userSpaceOnUse">
<stop stop-color="#FABB0C"/>
<stop offset="1" stop-color="#F88019"/>
</linearGradient>
<linearGradient id="paint26_linear_583_99087" x1="230.538" y1="141.132" x2="188.791" y2="141.132" gradientUnits="userSpaceOnUse">
<stop stop-color="#FABB0C"/>
<stop offset="1" stop-color="#F88019"/>
</linearGradient>
<linearGradient id="paint27_linear_583_99087" x1="230.538" y1="110.129" x2="188.791" y2="110.129" gradientUnits="userSpaceOnUse">
<stop stop-color="#FABB0C"/>
<stop offset="1" stop-color="#F88019"/>
</linearGradient>
<linearGradient id="paint28_linear_583_99087" x1="161.631" y1="69.393" x2="155.055" y2="69.393" gradientUnits="userSpaceOnUse">
<stop stop-color="#FABB0C"/>
<stop offset="1" stop-color="#F88019"/>
</linearGradient>
<linearGradient id="paint29_linear_583_99087" x1="161.631" y1="73.4563" x2="155.055" y2="73.4563" gradientUnits="userSpaceOnUse">
<stop stop-color="#FABB0C"/>
<stop offset="1" stop-color="#F88019"/>
</linearGradient>
<linearGradient id="paint30_linear_583_99087" x1="161.631" y1="77.5194" x2="155.055" y2="77.5194" gradientUnits="userSpaceOnUse">
<stop stop-color="#FABB0C"/>
<stop offset="1" stop-color="#F88019"/>
</linearGradient>
<linearGradient id="paint31_linear_583_99087" x1="161.631" y1="81.5827" x2="155.055" y2="81.5827" gradientUnits="userSpaceOnUse">
<stop stop-color="#FABB0C"/>
<stop offset="1" stop-color="#F88019"/>
</linearGradient>
<linearGradient id="paint32_linear_583_99087" x1="161.631" y1="85.6459" x2="155.055" y2="85.6459" gradientUnits="userSpaceOnUse">
<stop stop-color="#FABB0C"/>
<stop offset="1" stop-color="#F88019"/>
</linearGradient>
<linearGradient id="paint33_linear_583_99087" x1="161.631" y1="89.7092" x2="155.055" y2="89.7092" gradientUnits="userSpaceOnUse">
<stop stop-color="#FABB0C"/>
<stop offset="1" stop-color="#F88019"/>
</linearGradient>
<linearGradient id="paint34_linear_583_99087" x1="161.631" y1="93.7725" x2="155.055" y2="93.7725" gradientUnits="userSpaceOnUse">
<stop stop-color="#FABB0C"/>
<stop offset="1" stop-color="#F88019"/>
</linearGradient>
<linearGradient id="paint35_linear_583_99087" x1="161.631" y1="97.8356" x2="155.055" y2="97.8356" gradientUnits="userSpaceOnUse">
<stop stop-color="#FABB0C"/>
<stop offset="1" stop-color="#F88019"/>
</linearGradient>
<linearGradient id="paint36_linear_583_99087" x1="161.631" y1="101.899" x2="155.055" y2="101.899" gradientUnits="userSpaceOnUse">
<stop stop-color="#FABB0C"/>
<stop offset="1" stop-color="#F88019"/>
</linearGradient>
<linearGradient id="paint37_linear_583_99087" x1="230.538" y1="121.712" x2="188.791" y2="121.712" gradientUnits="userSpaceOnUse">
<stop stop-color="#1D7ECE"/>
<stop offset="1" stop-color="#17538C"/>
</linearGradient>
<linearGradient id="paint38_linear_583_99087" x1="230.538" y1="125.472" x2="188.791" y2="125.472" gradientUnits="userSpaceOnUse">
<stop stop-color="#FABB0C"/>
<stop offset="1" stop-color="#F88019"/>
</linearGradient>
<linearGradient id="paint39_linear_583_99087" x1="230.538" y1="129.233" x2="188.791" y2="129.233" gradientUnits="userSpaceOnUse">
<stop stop-color="#1D7ECE"/>
<stop offset="1" stop-color="#17538C"/>
</linearGradient>
<linearGradient id="paint40_linear_583_99087" x1="230.538" y1="132.992" x2="188.791" y2="132.992" gradientUnits="userSpaceOnUse">
<stop stop-color="#FABB0C"/>
<stop offset="1" stop-color="#F88019"/>
</linearGradient>
<linearGradient id="paint41_linear_583_99087" x1="230.538" y1="136.753" x2="188.791" y2="136.753" gradientUnits="userSpaceOnUse">
<stop stop-color="#1D7ECE"/>
<stop offset="1" stop-color="#17538C"/>
</linearGradient>
<linearGradient id="paint42_linear_583_99087" x1="243.65" y1="129.74" x2="268.221" y2="129.74" gradientUnits="userSpaceOnUse">
<stop stop-color="#1D7ECE"/>
<stop offset="1" stop-color="#17538C"/>
</linearGradient>
<linearGradient id="paint43_linear_583_99087" x1="239.151" y1="126.911" x2="253.686" y2="126.911" gradientUnits="userSpaceOnUse">
<stop stop-color="#FABB0C"/>
<stop offset="1" stop-color="#F88019"/>
</linearGradient>
<linearGradient id="paint44_linear_583_99087" x1="237.799" y1="87.7075" x2="265.328" y2="87.7075" gradientUnits="userSpaceOnUse">
<stop stop-color="#1D7ECE"/>
<stop offset="1" stop-color="#17538C"/>
</linearGradient>
<linearGradient id="paint45_linear_583_99087" x1="259.756" y1="101.714" x2="269.573" y2="101.714" gradientUnits="userSpaceOnUse">
<stop stop-color="#FABB0C"/>
<stop offset="1" stop-color="#F88019"/>
</linearGradient>
<linearGradient id="paint46_linear_583_99087" x1="267.403" y1="171.208" x2="147.797" y2="152.82" gradientUnits="userSpaceOnUse">
<stop stop-color="#AF610B"/>
<stop offset="1" stop-color="#F88019"/>
</linearGradient>
<linearGradient id="paint47_linear_583_99087" x1="133.748" y1="162.894" x2="268.09" y2="162.894" gradientUnits="userSpaceOnUse">
<stop stop-color="#FBD008"/>
<stop offset="1" stop-color="#F88019"/>
</linearGradient>
<linearGradient id="paint48_linear_583_99087" x1="139.059" y1="128.202" x2="141.788" y2="128.202" gradientUnits="userSpaceOnUse">
<stop stop-color="#1D7ECE"/>
<stop offset="1" stop-color="#185894"/>
</linearGradient>
<linearGradient id="paint49_linear_583_99087" x1="143.437" y1="130.657" x2="146.165" y2="130.657" gradientUnits="userSpaceOnUse">
<stop stop-color="#1D7ECE"/>
<stop offset="1" stop-color="#185894"/>
</linearGradient>
<linearGradient id="paint50_linear_583_99087" x1="147.815" y1="133.112" x2="150.543" y2="133.112" gradientUnits="userSpaceOnUse">
<stop stop-color="#1D7ECE"/>
<stop offset="1" stop-color="#185894"/>
</linearGradient>
<linearGradient id="paint51_linear_583_99087" x1="152.192" y1="135.567" x2="154.921" y2="135.567" gradientUnits="userSpaceOnUse">
<stop stop-color="#1D7ECE"/>
<stop offset="1" stop-color="#185894"/>
</linearGradient>
<linearGradient id="paint52_linear_583_99087" x1="156.57" y1="138.022" x2="159.299" y2="138.022" gradientUnits="userSpaceOnUse">
<stop stop-color="#1D7ECE"/>
<stop offset="1" stop-color="#185894"/>
</linearGradient>
<linearGradient id="paint53_linear_583_99087" x1="160.947" y1="140.477" x2="163.676" y2="140.477" gradientUnits="userSpaceOnUse">
<stop stop-color="#1D7ECE"/>
<stop offset="1" stop-color="#185894"/>
</linearGradient>
<linearGradient id="paint54_linear_583_99087" x1="165.325" y1="142.933" x2="168.054" y2="142.933" gradientUnits="userSpaceOnUse">
<stop stop-color="#1D7ECE"/>
<stop offset="1" stop-color="#185894"/>
</linearGradient>
<linearGradient id="paint55_linear_583_99087" x1="169.703" y1="145.388" x2="172.432" y2="145.388" gradientUnits="userSpaceOnUse">
<stop stop-color="#1D7ECE"/>
<stop offset="1" stop-color="#185894"/>
</linearGradient>
<linearGradient id="paint56_linear_583_99087" x1="174.081" y1="147.843" x2="176.81" y2="147.843" gradientUnits="userSpaceOnUse">
<stop stop-color="#1D7ECE"/>
<stop offset="1" stop-color="#185894"/>
</linearGradient>
<linearGradient id="paint57_linear_583_99087" x1="178.458" y1="150.298" x2="181.187" y2="150.298" gradientUnits="userSpaceOnUse">
<stop stop-color="#1D7ECE"/>
<stop offset="1" stop-color="#185894"/>
</linearGradient>
<linearGradient id="paint58_linear_583_99087" x1="182.836" y1="152.753" x2="185.565" y2="152.753" gradientUnits="userSpaceOnUse">
<stop stop-color="#1D7ECE"/>
<stop offset="1" stop-color="#185894"/>
</linearGradient>
<linearGradient id="paint59_linear_583_99087" x1="187.214" y1="155.208" x2="189.943" y2="155.208" gradientUnits="userSpaceOnUse">
<stop stop-color="#1D7ECE"/>
<stop offset="1" stop-color="#185894"/>
</linearGradient>
<linearGradient id="paint60_linear_583_99087" x1="191.592" y1="157.663" x2="194.32" y2="157.663" gradientUnits="userSpaceOnUse">
<stop stop-color="#1D7ECE"/>
<stop offset="1" stop-color="#185894"/>
</linearGradient>
<linearGradient id="paint61_linear_583_99087" x1="271.549" y1="200.143" x2="267.572" y2="199.532" gradientUnits="userSpaceOnUse">
<stop stop-color="#AF610B"/>
<stop offset="1" stop-color="#F88019"/>
</linearGradient>
<linearGradient id="paint62_linear_583_99087" x1="166.171" y1="198.986" x2="128.106" y2="258.129" gradientUnits="userSpaceOnUse">
<stop stop-color="#C9ADF9"/>
<stop offset="1" stop-color="#C9ADF9" stop-opacity="0.16"/>
</linearGradient>
</defs>
</svg>
