<svg width="437" height="302" viewBox="0 0 437 302" fill="none" xmlns="http://www.w3.org/2000/svg">
<rect width="437" height="302" rx="20" fill="url(#paint0_linear_583_99086)"/>
<path d="M161.26 297.424H268.546C274.763 297.424 280.423 292.383 281.186 286.165L310.297 49.0785C311.06 42.8608 306.639 37.8201 300.421 37.8201H193.136C186.918 37.8201 181.259 42.8606 180.495 49.0785L151.385 286.165C150.621 292.383 155.043 297.424 161.26 297.424Z" fill="#806EFF"/>
<path d="M155.631 297.424H262.916C269.134 297.424 274.793 292.383 275.557 286.165L304.667 49.0785C305.431 42.8608 301.009 37.8201 294.791 37.8201H187.506C181.288 37.8201 175.629 42.8606 174.865 49.0785L145.755 286.165C144.991 292.383 149.413 297.424 155.631 297.424Z" fill="#806EFF"/>
<path d="M155.808 295.261H263.27C268.244 295.261 272.772 291.228 273.383 286.254L302.515 48.9905C303.126 44.0162 299.588 39.9839 294.614 39.9839H187.152C182.178 39.9839 177.651 44.0162 177.04 48.9905L147.907 286.254C147.297 291.228 150.834 295.261 155.808 295.261Z" fill="white"/>
<path d="M297.273 117.865H296.222L298.878 96.231H299.93C300.544 96.231 300.98 96.7287 300.905 97.3429L298.522 116.753C298.446 117.367 297.887 117.865 297.273 117.865Z" fill="#806EFF"/>
<path d="M164.134 126.553H165.352L166.946 113.573H165.728C165.206 113.573 164.731 113.996 164.667 114.518L163.305 125.608C163.241 126.13 163.612 126.553 164.134 126.553Z" fill="#806EFF"/>
<path d="M167.329 100.523H168.548L170.141 87.5425H168.923C168.401 87.5425 167.926 87.9654 167.862 88.4872L166.5 99.5779C166.436 100.1 166.807 100.523 167.329 100.523Z" fill="#806EFF"/>
<path d="M299.018 51.0173L270.383 284.229C269.855 288.53 265.94 292.017 261.639 292.017H158.233C153.932 292.017 150.873 288.53 151.401 284.229L180.036 51.0173C180.564 46.716 184.479 43.2292 188.78 43.2292H292.186C296.488 43.2292 299.546 46.716 299.018 51.0173Z" fill="#F0F2F7"/>
<path d="M241.278 49.4682C242.203 48.5978 242.329 47.2287 241.559 46.4102C240.79 45.5917 239.415 45.6338 238.49 46.5041C237.565 47.3745 237.439 48.7436 238.208 49.5621C238.978 50.3806 240.352 50.3385 241.278 49.4682Z" fill="#806EFF"/>
<path d="M165.674 277.657C163.493 277.657 161.542 276.81 160.18 275.271C158.804 273.715 158.196 271.646 158.466 269.442C159.019 264.939 163.132 261.276 167.636 261.276H259.74C261.921 261.276 263.873 262.124 265.234 263.663C266.61 265.218 267.219 267.288 266.948 269.492C266.395 273.994 262.282 277.657 257.779 277.657H165.674Z" fill="#36CCC4"/>
<path d="M259.74 261.479C264.152 261.479 267.289 265.055 266.747 269.467C266.205 273.878 262.19 277.455 257.778 277.455H165.674C161.262 277.455 158.125 273.878 158.667 269.467C159.209 265.055 163.224 261.479 167.636 261.479H259.74ZM259.74 261.073H167.636C163.033 261.073 158.83 264.816 158.265 269.417C157.987 271.679 158.613 273.805 160.028 275.405C161.429 276.988 163.434 277.86 165.674 277.86H257.778C262.381 277.86 266.584 274.117 267.149 269.516C267.427 267.254 266.801 265.128 265.386 263.529C263.985 261.945 261.98 261.073 259.74 261.073Z" fill="white"/>
<path d="M220.686 274.133C223.608 271.385 224.006 267.063 221.575 264.478C219.145 261.894 214.806 262.027 211.885 264.775C208.963 267.523 208.565 271.845 210.996 274.429C213.426 277.013 217.765 276.881 220.686 274.133Z" fill="white"/>
<path d="M213.182 269.612L214.929 271.604L219.697 267.358" stroke="#36CCC4" stroke-miterlimit="10" stroke-linecap="round" stroke-linejoin="round"/>
<path d="M267.092 229.992H168.019C165.532 229.992 163.763 227.975 164.068 225.488L180.657 90.3881C180.962 87.9009 183.226 85.8848 185.713 85.8848H284.786C287.273 85.8848 289.042 87.9009 288.737 90.3881L272.149 225.488C271.843 227.975 269.579 229.992 267.092 229.992Z" fill="white"/>
<path d="M181.945 123.726H180.425L182.385 107.76H198.351L198.164 109.28H183.719L181.945 123.726Z" fill="#ED1C24"/>
<path d="M280.78 123.726H279.26L281.033 109.28H266.588L266.775 107.76H282.74L280.78 123.726Z" fill="#ED1C24"/>
<path d="M186.027 208.116H170.062L172.022 192.15H173.542L171.769 206.595H186.214L186.027 208.116Z" fill="#ED1C24"/>
<path d="M270.417 208.116H254.451L254.638 206.596H269.083L270.857 192.151H272.377L270.417 208.116Z" fill="#ED1C24"/>
<path d="M207.485 198.468H194.659C187.07 198.468 181.653 192.293 182.585 184.703L184.033 172.909C184.189 171.642 185.341 170.615 186.609 170.615C187.876 170.615 188.777 171.642 188.621 172.909L187.173 184.703C186.552 189.763 190.163 193.88 195.223 193.88H208.049C209.316 193.88 210.217 194.906 210.061 196.174C209.905 197.441 208.752 198.468 207.485 198.468Z" fill="#806EFF"/>
<path d="M248.189 198.468H235.364C234.097 198.468 233.196 197.441 233.351 196.174C233.507 194.906 234.66 193.879 235.927 193.879H248.752C253.812 193.879 258.434 189.763 259.055 184.703L260.504 172.909C260.659 171.641 261.812 170.615 263.079 170.615C264.347 170.615 265.248 171.641 265.092 172.909L263.644 184.703C262.712 192.292 255.779 198.468 248.189 198.468Z" fill="#806EFF"/>
<path d="M266.152 145.609C264.884 145.609 263.984 144.582 264.139 143.315L265.63 131.173C266.251 126.112 262.641 121.996 257.58 121.996H244.756C243.488 121.996 242.587 120.969 242.743 119.702C242.899 118.435 244.052 117.408 245.319 117.408H258.144C265.733 117.408 271.15 123.583 270.218 131.173L268.727 143.315C268.572 144.582 267.419 145.609 266.152 145.609Z" fill="#806EFF"/>
<path d="M189.679 145.609C188.412 145.609 187.511 144.582 187.667 143.315L189.158 131.173C190.09 123.583 197.023 117.408 204.613 117.408H217.438C218.706 117.408 219.607 118.435 219.451 119.702C219.295 120.969 218.142 121.996 216.875 121.996H204.05C198.989 121.996 194.368 126.113 193.746 131.173L192.255 143.315C192.1 144.582 190.947 145.609 189.679 145.609Z" fill="#806EFF"/>
<path d="M223.131 184.571C215.541 184.571 209.966 179.682 210.704 173.674C210.86 172.406 212.013 171.379 213.28 171.379C214.547 171.379 215.448 172.406 215.293 173.674C214.873 177.093 218.72 179.983 223.695 179.983C228.669 179.983 233.226 177.093 233.646 173.674C233.801 172.406 234.954 171.379 236.222 171.379C237.489 171.379 238.39 172.406 238.234 173.674C237.496 179.682 230.721 184.571 223.131 184.571Z" fill="#806EFF"/>
<path d="M215.204 145.939C216.84 144.401 217.063 141.981 215.703 140.534C214.342 139.087 211.913 139.161 210.277 140.7C208.641 142.238 208.418 144.658 209.779 146.105C211.14 147.551 213.569 147.477 215.204 145.939Z" fill="#806EFF"/>
<path d="M246.146 145.939C247.782 144.4 248.005 141.981 246.644 140.534C245.283 139.087 242.854 139.161 241.219 140.699C239.583 142.238 239.36 144.658 240.72 146.104C242.081 147.551 244.51 147.477 246.146 145.939Z" fill="#806EFF"/>
<path d="M216.301 166.887C215.034 166.887 214.133 165.86 214.289 164.593C214.445 163.325 215.597 162.298 216.865 162.298C220.563 162.298 223.941 159.29 224.395 155.591L226.051 142.106C226.207 140.839 227.359 139.812 228.627 139.812C229.894 139.812 230.795 140.839 230.639 142.106L228.984 155.591C228.219 161.82 222.53 166.887 216.301 166.887Z" fill="#806EFF"/>
<path d="M172.375 157.821H280.455L280.269 159.342H172.188L172.375 157.821Z" fill="#ED1C24"/>
<path d="M125.2 182.585C139.647 168.997 141.616 147.623 129.597 134.844C117.578 122.065 96.123 122.722 81.6761 136.31C67.2291 149.898 65.2608 171.272 77.2798 184.051C89.2987 196.83 110.754 196.173 125.2 182.585Z" fill="#806EFF"/>
<path d="M102.895 163.959C98.4252 163.959 95.2353 160.322 95.7841 155.853L96.7793 147.747C97.3281 143.277 101.411 139.641 105.881 139.641C110.35 139.641 113.54 143.277 112.991 147.747L111.996 155.853C111.447 160.322 107.365 163.959 102.895 163.959ZM105.549 142.343C102.569 142.343 99.8474 144.767 99.4814 147.747L98.4862 155.853C98.1204 158.832 100.247 161.257 103.227 161.257C106.206 161.257 108.928 158.832 109.294 155.853L110.289 147.747C110.655 144.767 108.529 142.343 105.549 142.343Z" fill="#481AA0"/>
<path d="M112.549 177.018H90.0324C88.7887 177.018 87.9046 176.01 88.0572 174.767L90.8219 152.25C90.9745 151.006 92.1065 149.998 93.35 149.998H115.867C117.11 149.998 117.994 151.006 117.842 152.25L115.077 174.767C114.925 176.01 113.793 177.018 112.549 177.018Z" fill="white"/>
<path d="M106.462 160.581C106.33 161.652 105.68 162.599 104.793 163.168L104.226 167.786C104.123 168.626 103.463 169.331 102.661 169.531C102.512 169.568 102.358 169.588 102.203 169.588C101.706 169.588 101.281 169.386 100.995 169.06C100.709 168.734 100.562 168.284 100.623 167.787L101.19 163.168C100.443 162.599 100.025 161.652 100.157 160.581C100.371 158.84 101.955 157.429 103.696 157.429C103.85 157.429 103.998 157.44 104.143 157.461C105.644 157.679 106.657 158.993 106.462 160.581Z" fill="#61DBD2"/>
<path d="M106.462 160.581C106.331 161.652 105.68 162.599 104.794 163.168L104.227 167.786C104.123 168.626 103.463 169.331 102.661 169.531C102.355 169.45 102.093 169.284 101.896 169.06C101.61 168.734 101.463 168.284 101.524 167.786L102.091 163.168C101.345 162.599 100.927 161.652 101.058 160.581C101.253 158.993 102.589 157.679 104.143 157.46C105.644 157.679 106.657 158.993 106.462 160.581Z" fill="#36CCC4"/>
<path d="M368.699 182.585C383.145 168.997 385.114 147.623 373.095 134.844C361.076 122.065 339.621 122.722 325.174 136.31C310.727 149.898 308.759 171.272 320.778 184.051C332.797 196.83 354.252 196.173 368.699 182.585Z" fill="#806EFF"/>
<path d="M360.865 148.587C360.602 148.587 360.352 148.48 360.186 148.27C360.149 148.223 356.204 143.379 348.129 143.379C340.1 143.379 335.691 148.026 335.508 148.224C335.121 148.64 334.504 148.707 334.128 148.373C333.752 148.04 333.757 147.433 334.141 147.015C334.35 146.787 339.362 141.441 348.367 141.441C357.333 141.441 361.603 146.741 361.781 146.966C362.092 147.362 361.988 147.975 361.547 148.335C361.341 148.504 361.097 148.587 360.865 148.587Z" fill="white"/>
<path d="M332.66 155.875C332.522 155.875 332.385 155.845 332.26 155.782C331.805 155.554 331.667 154.98 331.953 154.496C332.158 154.148 337.121 145.969 348.551 145.969C357.157 145.969 362.862 153.685 363.101 154.013C363.398 154.421 363.273 155.032 362.822 155.379C362.372 155.725 361.766 155.676 361.47 155.268C361.416 155.195 356.012 147.907 348.313 147.907C338.156 147.907 333.787 155.017 333.606 155.32C333.397 155.67 333.023 155.875 332.66 155.875Z" fill="white"/>
<path d="M346.877 177.469C346.67 177.469 346.47 177.403 346.31 177.267C343.378 174.769 340.619 171.108 339.75 168.563C339.108 166.683 339.329 163.498 341.004 161.297C341.887 160.136 343.549 158.752 346.45 158.752C350.181 158.752 351.096 162.395 351.83 165.323C352.449 167.789 352.942 169.405 354.108 169.405C357.022 169.405 357.645 166.929 358.29 161.674C358.763 157.817 353.271 152.124 347.708 152.124C342.503 152.124 334.755 156.095 333.961 162.562C333.173 168.979 335.708 173.387 335.734 173.431C335.99 173.867 335.814 174.471 335.341 174.782C334.868 175.092 334.276 174.992 334.019 174.557C333.901 174.359 331.155 169.628 332.023 162.562C332.892 155.479 341.146 150.186 347.946 150.186C354.216 150.186 360.874 156.413 360.228 161.674C359.671 166.207 359.041 171.343 353.87 171.343C351.272 171.343 350.59 168.628 349.932 166.001C349.127 162.793 348.433 160.69 346.212 160.69C344.588 160.69 343.343 161.245 342.51 162.339C341.216 164.04 341.207 166.572 341.608 167.747C342.38 170.006 344.991 173.439 347.682 175.732C348.066 176.059 348.07 176.668 347.691 177.091C347.469 177.339 347.167 177.469 346.877 177.469Z" fill="white"/>
<path d="M352.012 175.604C351.859 175.604 351.707 175.568 351.572 175.49C344.706 171.585 344.269 164.792 344.254 164.505C344.227 163.978 344.64 163.476 345.179 163.383C345.717 163.293 346.175 163.641 346.204 164.167C346.208 164.232 346.635 170.334 352.692 173.779C353.134 174.03 353.241 174.617 352.932 175.09C352.717 175.418 352.359 175.604 352.012 175.604Z" fill="white"/>
<path d="M340.6 177.468C340.31 177.468 340.039 177.338 339.878 177.091C339.644 176.728 334.153 168.131 336.574 161.549C337.469 159.117 339.301 157.281 342.019 156.09C345.387 154.614 348.277 154.496 350.606 155.739C355.107 158.139 355.745 164.744 355.77 165.024C355.817 165.548 355.419 166.062 354.882 166.173C354.346 166.285 353.872 165.95 353.825 165.427C353.819 165.367 353.236 159.445 349.52 157.469C347.711 156.507 345.389 156.634 342.617 157.849C340.463 158.792 339.084 160.152 338.401 162.007C336.31 167.683 341.506 175.826 341.559 175.908C341.833 176.332 341.679 176.94 341.215 177.267C341.023 177.403 340.807 177.468 340.6 177.468Z" fill="white"/>
<path d="M312.66 55.1275C319.402 48.7864 320.321 38.8116 314.712 32.8483C309.103 26.885 299.091 27.1913 292.349 33.5324C285.607 39.8734 284.688 49.8481 290.297 55.8115C295.906 61.7748 305.918 61.4685 312.66 55.1275Z" fill="#36CCC4"/>
<path d="M296.417 44.587L299.821 48.4671L309.107 40.1968" stroke="white" stroke-width="3" stroke-miterlimit="10" stroke-linecap="round" stroke-linejoin="round"/>
<path d="M136.348 277.159C136.348 277.159 148.793 243.758 148.793 236.689C148.793 229.621 141.197 194.918 141.197 194.918L159.195 211.035L162.705 236.689L143.857 280.028L136.348 277.159Z" fill="#EFB600"/>
<path d="M208.15 135.961C207.007 137.72 206.483 137.311 204.825 139.193C204.557 139.497 194.222 153.99 189.83 160.073C185.439 166.156 182.049 171.446 177.619 167.058C173.516 162.993 165.123 145.336 165.123 145.336C170.438 140.863 168.726 133.879 168.726 133.879C169.988 136.585 173.238 135.97 174.537 139.404C178.099 148.812 181.66 159.591 181.66 159.591L201.273 137.765C201.273 137.765 201.145 134.3 201.106 133.175C201.066 132.049 201.657 130.918 202.061 130.437C202.463 129.956 203.088 130.495 202.793 131.354C202.498 132.214 202.313 133.278 202.88 133.085C203.445 132.891 205.374 128.381 206.328 127.002C207.282 125.624 207.23 127.195 206.514 128.676C205.8 130.159 205.58 131.39 205.58 131.39C205.58 131.39 206.906 131.786 206.826 132.99C206.826 132.99 208.144 133.146 207.882 134.197C207.882 134.197 209.29 134.203 208.15 135.961Z" fill="#FECCC6"/>
<path d="M171.958 222.399C171.654 245.606 169.411 281.717 169.411 281.717H161.24C161.24 281.717 159.474 263.908 158.64 250.903C157.801 237.893 150.353 208.245 150.353 208.245C138.799 201.974 138.761 185.4 138.761 185.4L147.42 183.644L161.761 180.735L171.307 178.801C171.307 178.801 171.307 178.801 171.307 178.806C171.307 178.825 171.312 178.902 171.322 179.032C171.447 181.034 172.306 196.022 171.958 222.399Z" fill="#FFD13E"/>
<path d="M167.417 99.6296C167.417 99.6296 171.486 107.231 166.997 115.091C164.071 120.212 159.752 117.353 159.752 117.353L162.353 121.877C162.353 121.877 158.402 127.532 154.248 127.343C150.093 127.155 148.607 121.877 148.607 121.877L150.465 115.091C150.465 115.091 148.403 100.577 156.492 98.692C164.582 96.8069 167.417 99.6296 167.417 99.6296Z" fill="#FECCC6"/>
<path d="M161.238 295.993V290.485C161.238 290.485 167.275 293.972 172.847 290.485C172.847 290.485 184.338 293.442 188.514 296.803C189.091 297.266 188.789 298.198 188.05 298.235C185.42 298.367 178.959 298.568 163.84 298.589C162.406 298.591 161.238 297.428 161.238 295.993Z" fill="#481AA0"/>
<path d="M161.238 281.72V290.485C161.238 290.485 163.641 293.631 168.099 293.066C172.557 292.5 172.847 290.485 172.847 290.485C172.847 290.485 171.837 289.79 169.318 289.59L169.411 281.718L161.238 281.72Z" fill="#FECCC6"/>
<path d="M136.348 277.159L133.469 284.171C133.469 284.171 132.633 288.317 136.348 288.883C140.063 289.449 141.178 287.092 141.178 287.092L143.858 280.029L136.348 277.159Z" fill="#FECCC6"/>
<path d="M131.125 288.354L133.468 284.171C133.468 284.171 135.047 289.543 141.177 287.092C141.177 287.092 143.499 292.087 146.935 293.03C149.468 293.725 152.051 294.522 153.16 296.1C153.757 296.95 153.155 298.119 152.117 298.119H141.929C141.623 298.119 141.324 298.026 141.073 297.852L131.846 291.47C130.838 290.773 130.526 289.423 131.125 288.354Z" fill="#481AA0"/>
<path d="M166.488 148.507C166.488 148.507 166.049 161.435 170.593 175.28C170.608 175.318 170.618 175.357 170.627 175.395C170.975 176.49 171.081 177.658 171.312 178.801C171.312 178.801 171.312 178.801 171.307 178.806C171.172 178.941 168.977 181.141 165.326 183.345C165.321 183.35 165.311 183.355 165.302 183.359C159.798 186.669 150.984 189.983 140.907 186.283C140.671 186.196 140.43 186.104 140.193 186.013C139.721 185.825 139.238 185.622 138.761 185.4L138.775 185.337C138.847 185.038 139.161 183.726 139.523 181.816C140.459 177.016 145.012 167.026 143.86 161.194C142.191 152.714 136.706 139.453 139.677 131.532C142.654 123.621 148.611 121.88 148.611 121.88C148.611 121.88 152.88 127.34 162.354 121.88C162.354 121.88 170.862 128.465 174.713 139.241C174.713 139.241 176.271 141.325 166.488 148.507Z" fill="#36CCC4"/>
<path d="M158.586 91.4351C165.325 91.4351 169.645 94.2916 168.565 98.144C167.485 101.996 166.16 107.08 166.578 111.086C166.996 115.091 169.932 122.263 163.658 127.348C157.384 132.433 144.289 129.04 143.453 122.537C142.617 116.034 148.747 111.369 147.075 105.29C145.403 99.2103 150.037 91.4351 158.586 91.4351Z" fill="#481AA0"/>
<path d="M171.322 179.033C170.299 179.944 168.21 181.662 165.326 183.345C165.321 183.35 165.311 183.355 165.302 183.359C159.581 186.688 150.743 189.862 140.907 186.283C140.671 186.196 140.43 186.104 140.193 186.013C139.721 185.824 139.238 185.622 138.761 185.4L138.775 185.337L139.523 181.816C139.523 181.816 142.528 183.335 147.42 183.644C149.219 183.765 151.274 183.712 153.526 183.364C156.401 182.916 159.233 181.907 161.761 180.735C165.914 178.806 169.247 176.432 170.627 175.395C170.974 176.49 171.08 177.658 171.312 178.801C171.312 178.801 171.312 178.801 171.307 178.806C171.307 178.825 171.312 178.903 171.322 179.033Z" fill="white"/>
<path d="M166.487 148.507C166.487 148.507 160.176 138.737 159.434 136.014" stroke="white" stroke-width="2" stroke-miterlimit="10" stroke-linecap="round" stroke-linejoin="round"/>
<path d="M366.728 99.1955C362.258 99.1955 358.622 95.5591 358.622 91.0895V82.9834C358.622 78.5138 362.258 74.8774 366.728 74.8774C371.198 74.8774 374.834 78.5138 374.834 82.9834V91.0895C374.834 95.5591 371.198 99.1955 366.728 99.1955ZM366.728 77.5794C363.748 77.5794 361.324 80.0037 361.324 82.9834V91.0895C361.324 94.0692 363.748 96.4935 366.728 96.4935C369.708 96.4935 372.132 94.0692 372.132 91.0895V82.9834C372.132 80.0037 369.708 77.5794 366.728 77.5794Z" fill="white" stroke="#B1ABFF" stroke-width="2" stroke-miterlimit="10"/>
<path d="M378.212 112.255H355.245C354.126 112.255 353.219 111.348 353.219 110.229V87.2616C353.219 86.1424 354.126 85.2351 355.245 85.2351H378.212C379.331 85.2351 380.239 86.1424 380.239 87.2616V110.229C380.239 111.348 379.331 112.255 378.212 112.255Z" fill="white" stroke="#B1ABFF" stroke-width="2" stroke-miterlimit="10"/>
<path d="M369.881 95.8175C369.881 96.8885 369.347 97.8351 368.53 98.4041V103.023C368.53 103.862 367.956 104.567 367.179 104.767C367.035 104.804 366.883 104.824 366.728 104.824C366.231 104.824 365.781 104.622 365.455 104.296C365.129 103.97 364.927 103.52 364.927 103.023V98.4043C364.11 97.8351 363.576 96.8885 363.576 95.8177C363.576 94.0767 364.987 92.6653 366.728 92.6653C366.882 92.6653 367.032 92.676 367.179 92.6969C368.706 92.9156 369.881 94.2295 369.881 95.8175Z" fill="white" stroke="#B1ABFF" stroke-width="2" stroke-miterlimit="10"/>
<path d="M59.4849 233.253C49.8282 233.253 42 225.405 42 215.723V198.463L59.4849 193.722L76.9697 198.463V215.723C76.9695 225.405 69.1413 233.253 59.4849 233.253Z" fill="white" stroke="#B1ABFF" stroke-width="2" stroke-miterlimit="10"/>
<path d="M59.4841 222.494C64.4583 222.494 68.4907 218.462 68.4907 213.488C68.4907 208.514 64.4583 204.481 59.4841 204.481C54.5099 204.481 50.4775 208.514 50.4775 213.488C50.4775 218.462 54.5099 222.494 59.4841 222.494Z" fill="white" stroke="#B1ABFF" stroke-width="2" stroke-miterlimit="10"/>
<path d="M58.23 216.977C57.942 216.977 57.6538 216.867 57.434 216.647L55.2166 214.43C54.7768 213.99 54.7768 213.277 55.2164 212.838C55.6561 212.398 56.3688 212.398 56.8086 212.837L58.23 214.259L62.16 210.329C62.5993 209.889 63.3126 209.889 63.752 210.329C64.1917 210.769 64.1917 211.482 63.752 211.921L59.026 216.647C58.8063 216.867 58.5179 216.977 58.23 216.977Z" fill="white" stroke="#B1ABFF" stroke-width="2" stroke-miterlimit="10"/>
<defs>
<linearGradient id="paint0_linear_583_99086" x1="218.5" y1="302" x2="218.5" y2="0" gradientUnits="userSpaceOnUse">
<stop stop-color="#EFE5FF" stop-opacity="0"/>
<stop offset="1" stop-color="#DBDBFF"/>
</linearGradient>
</defs>
</svg>
