<svg width="130" height="130" viewBox="0 0 130 130" fill="none" xmlns="http://www.w3.org/2000/svg">
<g filter="url(#filter0_d_213_1977)">
<path d="M115 65C115 37.3858 92.6142 15 65 15C37.3858 15 15 37.3858 15 65C15 92.6142 37.3858 115 65 115C92.6142 115 115 92.6142 115 65Z" fill="white"/>
</g>
<path d="M47.2699 57.9023C45.7967 58.7849 44.534 60.6141 46.6491 61.954C47.291 62.3689 49.4481 62.1774 50.311 60.2418C50.5636 59.6675 50.5636 58.8487 50.5004 57.9768L47.2699 57.9023Z" fill="black"/>
<path d="M94.8028 92.9244L93.7611 81.9498C93.6559 80.6949 92.7824 77.6426 90.5515 74.8564C91.3303 73.4847 92.3721 71.145 92.6877 68.0716C93.2139 62.9777 91.183 59.6598 90.1833 58.5005C90.0255 58.309 89.6045 58.2134 89.2784 58.4261C88.9733 58.628 88.8681 59.1174 89.068 59.4257L89.2784 59.681C90.0886 60.5954 91.3408 62.5524 90.8569 65.2853C90.4463 67.625 89.0047 69.2413 87.3843 70.0283C86.7003 70.358 85.9636 70.5814 85.2375 70.7196C84.1326 70.2305 82.9121 69.837 81.544 69.6029C79.629 69.2839 77.8401 69.1883 76.5984 68.5821C73.1259 66.87 71.8421 65.3705 70.7372 63.3498C70.0427 62.0844 69.6743 61.0848 69.5165 60.0107C69.1902 57.8413 67.6959 38.8798 67.7066 38.3056C67.7802 33.403 65.5914 30.9677 65.5914 30.9677C65.5914 30.9677 63.1816 31.5633 62.0137 34.0411C61.5717 34.977 61.3296 36.1468 61.5822 37.6356C61.5717 37.6037 60.4352 36.9656 59.12 36.7316C58.1939 36.5721 57.3836 36.6359 56.5313 36.7742C56.4997 36.7848 56.5102 36.721 56.4997 36.6997C55.8578 34.7005 55.3527 30.5849 50.9015 30C50.9015 30 47.6289 33.3392 51.0699 37.0932C50.4385 36.402 49.1337 37.9015 48.4181 37.9972C45.6296 38.3587 45.1035 40.7302 45.2297 41.9107C45.4086 43.5803 46.04 43.4952 46.3031 44.5906C46.5451 45.5796 46.0295 46.5686 45.0824 46.9833C43.1462 47.8235 40.1261 46.8983 39.4316 46.6111C39.4316 46.6111 37.4323 45.9943 36.4221 47.7703C34.8437 50.5353 38.2005 51.8646 38.2005 51.8646C38.2005 51.8646 39.3685 57.8092 46.9344 59.0748C51.9643 59.9148 55.6684 55.6398 55.6684 55.6398C55.6684 55.6398 58.0255 56.884 57.6782 60.8721C57.6467 61.2123 57.6256 61.744 57.2784 61.9993C56.163 62.8181 52.9851 64.6047 50.7753 68.8374C49.1863 71.8682 48.2813 75.6859 49.2705 81.5563L50.1544 94.3389C50.3017 96.1148 51.5013 98.2842 53.3218 99.1882C55.5211 100.284 58.4043 99.9219 58.4043 99.9219L56.7838 83.3641C56.7838 82.9918 57.1837 82.1729 58.0571 82.2155C58.9726 82.2474 59.2461 83.0236 59.2461 83.3959L60.772 99.0074C61.0666 100.528 62.866 99.9538 62.7924 98.8904L61.2982 83.5023C61.214 82.6409 61.9294 82.1943 62.5925 82.2155C63.3922 82.2367 63.75 83.0236 63.75 83.3959L65.2547 98.7841C65.2337 99.4328 65.644 99.9538 66.2438 99.9538C66.8436 99.9538 67.2856 99.5073 67.2856 98.9011L65.7597 83.4597C65.7597 83.0876 66.0018 82.29 66.9279 82.2262C67.7276 82.1729 68.1905 82.9387 68.1905 83.3108L69.7585 99.1775C69.9794 99.8475 70.5792 100.071 71.1264 99.8582C71.5579 99.6988 71.8104 99.2094 71.779 98.9011L70.2531 83.5874C70.1584 82.9599 70.7056 82.2367 71.3789 82.2155C72.042 82.1943 72.568 82.5345 72.6839 83.3534L74.2307 98.9542C74.378 100.486 76.3457 100.039 76.2512 98.9011L74.7148 83.5234C74.7148 82.8535 75.262 82.2367 75.9249 82.2367C76.5773 82.2367 77.0509 82.6623 77.177 83.3641L78.7029 98.9011C78.8607 100.539 80.7865 100.071 80.7443 98.9011L79.2184 83.5234C79.1763 82.9494 79.6395 82.3325 80.2919 82.2367C81.1863 82.1199 81.6597 82.9706 81.6597 83.3534L83.1961 98.9011C83.2172 99.5498 83.7223 99.9433 84.1643 99.9538C84.701 99.9645 85.2587 99.4966 85.2375 98.9223L83.7118 83.5556C83.6488 82.8431 84.2485 82.2367 84.9114 82.2367C85.5743 82.2367 86.0688 82.7153 86.1321 83.3534L87.742 99.9752C87.742 99.9752 90.6988 100.315 92.7824 98.4757C94.7924 96.6784 94.9502 94.19 94.8028 92.9244Z" fill="#EA2529"/>
<path d="M70.4748 58.4368C70.4117 58.1816 70.3801 57.9689 70.559 57.5754C70.9694 56.6821 70.58 55.874 68.4755 55.8207C65.8974 55.7569 62.1197 56.0759 60.4991 56.4482C58.8261 56.831 55.5534 57.2775 55.0904 57.671C54.7432 57.9582 54.5537 58.5857 55.143 59.0749C55.4482 59.3301 55.8375 59.3301 55.806 60.0426C55.7954 60.3616 55.4061 60.7232 55.9217 61.2868C56.0796 61.4569 56.2584 61.5102 56.4794 61.4995L57.5948 61.5633C57.6264 61.5102 57.6896 61.1912 57.6896 61.1912C57.6896 61.1912 57.7632 61.1698 57.7948 61.1593C58.9101 60.8403 60.3203 60.4573 60.3203 60.4573C62.0354 60.2234 65.95 59.5535 68.5176 59.8618C68.907 59.9044 69.2331 59.9789 69.5173 60.0319L69.5803 60.3723C69.5803 60.3723 70.3905 60.1383 70.6326 59.7129C70.9377 59.1705 70.5695 58.8091 70.4748 58.4368Z" fill="black"/>
<defs>
<filter id="filter0_d_213_1977" x="0" y="0" width="130" height="130" filterUnits="userSpaceOnUse" color-interpolation-filters="sRGB">
<feFlood flood-opacity="0" result="BackgroundImageFix"/>
<feColorMatrix in="SourceAlpha" type="matrix" values="0 0 0 0 0 0 0 0 0 0 0 0 0 0 0 0 0 0 127 0" result="hardAlpha"/>
<feOffset/>
<feGaussianBlur stdDeviation="7.5"/>
<feColorMatrix type="matrix" values="0 0 0 0 0 0 0 0 0 0 0 0 0 0 0 0 0 0 0.078 0"/>
<feBlend mode="normal" in2="BackgroundImageFix" result="effect1_dropShadow_213_1977"/>
<feBlend mode="normal" in="SourceGraphic" in2="effect1_dropShadow_213_1977" result="shape"/>
</filter>
</defs>
</svg>
