<svg width="437" height="302" viewBox="0 0 437 302" fill="none" xmlns="http://www.w3.org/2000/svg">
<rect width="437" height="302" rx="20" fill="url(#paint0_linear_1168_2166)"/>
<path fill-rule="evenodd" clip-rule="evenodd" d="M263.64 77.9185C283.867 77.9185 304.094 77.9185 324.32 77.9185C324.07 72.8112 320.725 69.0358 315.852 70.3236C315.991 69.6713 316.065 68.9945 316.065 68.3003C316.065 62.9882 311.759 58.6821 306.447 58.6821C303.211 58.6821 300.347 60.2808 298.604 62.7315C296.935 60.8628 294.507 59.686 291.804 59.686C289.509 59.686 287.413 60.5341 285.81 61.9336C284.208 60.5341 282.111 59.686 279.817 59.686C275.499 59.686 271.884 62.6869 270.941 66.7167C265.552 67.4901 262.221 71.8408 263.64 77.9185Z" fill="#F7F2F3"/>
<path fill-rule="evenodd" clip-rule="evenodd" d="M95.0947 88.3491C114.471 88.3491 133.848 88.3491 153.225 88.3491C152.985 83.4566 149.781 79.8397 145.111 81.074C145.245 80.449 145.316 79.8006 145.316 79.1355C145.316 74.0466 141.191 69.9219 136.102 69.9219C133.002 69.9219 130.259 71.4536 128.589 73.8011C126.99 72.011 124.664 70.8839 122.075 70.8839C119.876 70.8839 117.869 71.6963 116.334 73.0372C114.799 71.6963 112.79 70.8839 110.592 70.8839C106.457 70.8839 102.993 73.7592 102.089 77.6189C96.9272 78.3593 93.736 82.527 95.0947 88.3491Z" fill="#F7F2F3"/>
<path d="M106.592 156.976H105.119V154.03H106.592V156.976ZM189.425 191.395V192.869H186.479V191.395H189.425ZM182.06 191.395V192.869H179.113V191.395H182.06ZM174.694 191.395V192.869H171.748V191.395H174.694ZM167.329 191.395V192.869H164.383V191.395H167.329ZM159.964 191.395V192.869H157.017V191.395H159.964ZM152.599 191.395V192.869H149.652V191.395H152.599ZM145.233 191.395V192.869H142.287V191.395H145.233ZM137.868 191.395V192.869H134.922V191.395H137.868ZM130.502 191.395V192.869H127.556V191.395H130.502ZM123.216 191.306L123.065 192.771L123.004 192.765L122.879 192.753L122.754 192.739L122.629 192.723L122.505 192.708L122.381 192.692L122.257 192.674L122.133 192.657L122.01 192.638L121.886 192.619L121.763 192.599L121.64 192.578L121.518 192.556L121.396 192.534L121.274 192.51L121.153 192.487L121.031 192.462L120.91 192.437L120.789 192.411L120.668 192.384L120.548 192.357L120.428 192.328L120.308 192.299L120.189 192.27L120.07 192.24L120.053 192.235L120.431 190.811L120.438 190.813L120.549 190.841L120.66 190.869L120.771 190.896L120.882 190.922L120.994 190.947L121.105 190.972L121.217 190.996L121.33 191.019L121.442 191.042L121.554 191.065L121.667 191.086L121.78 191.106L121.893 191.127L122.007 191.146L122.12 191.164L122.234 191.182L122.348 191.2L122.463 191.216L122.578 191.232L122.693 191.247L122.808 191.262L122.923 191.275L123.038 191.288L123.154 191.3L123.216 191.306ZM116.477 189.276L115.787 190.578L115.771 190.569L115.665 190.513L115.559 190.455L115.453 190.397L115.348 190.339L115.243 190.279L115.139 190.22L115.035 190.16L114.931 190.099L114.828 190.037L114.726 189.975L114.623 189.912L114.521 189.849L114.419 189.785L114.318 189.72L114.217 189.655L114.116 189.589L114.016 189.522L113.917 189.455L113.818 189.388L113.719 189.32L113.621 189.251L113.523 189.181L113.425 189.112L113.328 189.041L113.232 188.97L113.201 188.947L114.084 187.768L114.108 187.786L114.198 187.852L114.288 187.917L114.378 187.982L114.468 188.046L114.559 188.109L114.651 188.172L114.743 188.235L114.835 188.297L114.928 188.358L115.021 188.419L115.115 188.479L115.208 188.54L115.302 188.599L115.396 188.657L115.491 188.715L115.587 188.773L115.683 188.83L115.779 188.887L115.875 188.943L115.972 188.998L116.069 189.053L116.166 189.107L116.263 189.161L116.361 189.214L116.46 189.266L116.477 189.276ZM110.986 184.868L109.861 185.819L109.834 185.788L109.757 185.696L109.681 185.605L109.605 185.512L109.53 185.419L109.455 185.325L109.381 185.231L109.307 185.137L109.233 185.042L109.161 184.947L109.089 184.851L109.017 184.755L108.946 184.659L108.876 184.562L108.806 184.465L108.737 184.367L108.668 184.269L108.599 184.17L108.532 184.071L108.465 183.971L108.398 183.871L108.333 183.771L108.267 183.67L108.203 183.569L108.138 183.467L108.075 183.365L108.063 183.346L109.321 182.58L109.329 182.591L109.387 182.686L109.447 182.78L109.507 182.874L109.567 182.967L109.628 183.06L109.689 183.153L109.751 183.245L109.814 183.337L109.877 183.428L109.941 183.519L110.005 183.61L110.07 183.7L110.135 183.79L110.201 183.879L110.267 183.969L110.334 184.058L110.401 184.146L110.469 184.234L110.537 184.321L110.606 184.408L110.675 184.494L110.745 184.58L110.815 184.665L110.887 184.751L110.958 184.836L110.986 184.868ZM107.527 178.74L106.126 179.196L106.093 179.094L106.055 178.978L106.018 178.862L105.982 178.745L105.946 178.627L105.911 178.51L105.877 178.392L105.844 178.275L105.811 178.156L105.779 178.037L105.748 177.918L105.718 177.799L105.688 177.68L105.659 177.56L105.631 177.44L105.603 177.319L105.577 177.199L105.55 177.078L105.525 176.957L105.501 176.836L105.477 176.713L105.454 176.591L105.432 176.469L105.41 176.346L105.391 176.234L106.844 175.991L106.862 176.096L106.882 176.208L106.902 176.322L106.924 176.434L106.946 176.547L106.969 176.659L106.992 176.771L107.016 176.884L107.041 176.995L107.067 177.107L107.093 177.218L107.12 177.329L107.147 177.44L107.175 177.55L107.204 177.66L107.233 177.77L107.264 177.879L107.294 177.988L107.326 178.098L107.358 178.207L107.391 178.315L107.425 178.423L107.459 178.53L107.494 178.639L107.527 178.74ZM106.592 171.707H105.119V168.761H106.592V171.707ZM106.592 164.342H105.119V161.395H106.592V164.342Z" fill="#3C65D1"/>
<path fill-rule="evenodd" clip-rule="evenodd" d="M105.835 108.849C98.7463 108.849 93 114.596 93 121.684C93 124.325 93.7985 126.78 95.1667 128.821L105.855 150.199L116.683 128.543C117.142 127.82 117.53 127.047 117.838 126.234L117.841 126.226H117.841C118.375 124.814 118.669 123.284 118.669 121.684C118.668 114.596 112.922 108.849 105.835 108.849ZM105.835 118.144C103.801 118.144 102.152 119.793 102.152 121.826C102.152 123.86 103.801 125.508 105.835 125.508C107.868 125.508 109.517 123.859 109.517 121.826C109.517 119.793 107.868 118.144 105.835 118.144Z" fill="#9EA3FF"/>
<path fill-rule="evenodd" clip-rule="evenodd" d="M276.266 294.742C276.942 293.365 277.107 284.104 278.906 282.801C280.706 281.498 287.371 283.253 288.919 283.776C290.468 284.299 291.606 295.848 289.476 299.221C287.346 302.594 277.136 297.439 276.266 294.742Z" fill="#1F3A6F"/>
<path fill-rule="evenodd" clip-rule="evenodd" d="M262.139 294.399C262.139 294.399 263.153 284.104 264.953 282.801C266.753 281.498 274.966 283.776 274.966 283.776C274.966 283.776 276.802 292.955 276.115 295.2C275.428 297.444 263.009 297.095 262.139 294.399Z" fill="#1F3A6F"/>
<path fill-rule="evenodd" clip-rule="evenodd" d="M142.18 72.4446H219.385C226.545 72.4446 232.403 78.303 232.403 85.4626V269.182C232.403 276.342 226.545 282.201 219.385 282.201H142.18C135.02 282.201 129.162 276.342 129.162 269.182V85.4626C129.162 78.3024 135.02 72.4446 142.18 72.4446Z" fill="#1F3A6F"/>
<path fill-rule="evenodd" clip-rule="evenodd" d="M207.381 77.7668C206.856 81.3341 203.765 84.0923 200.057 84.0923H161.507C157.799 84.0923 154.708 81.3341 154.184 77.7668H142.18C137.958 77.7668 134.484 81.2404 134.484 85.4622V269.182C134.484 273.404 137.958 276.877 142.18 276.877H219.385C223.607 276.877 227.081 273.404 227.081 269.182V85.4627C227.081 81.2404 223.607 77.7674 219.385 77.7674H207.381V77.7668Z" fill="white"/>
<path d="M146.055 115.284H215.509C216.635 115.284 217.659 115.745 218.401 116.486L218.401 116.487C219.143 117.228 219.604 118.252 219.604 119.378V163.926C219.604 165.053 219.143 166.076 218.401 166.819L218.401 166.818C217.659 167.56 216.635 168.021 215.509 168.021H146.055C144.929 168.021 143.905 167.56 143.163 166.819C142.422 166.077 141.961 165.053 141.961 163.926V119.378C141.961 118.252 142.422 117.228 143.163 116.486C143.905 115.745 144.929 115.284 146.055 115.284ZM215.509 115.563H146.055C145.005 115.563 144.051 115.992 143.36 116.683L143.36 116.684C142.669 117.375 142.239 118.329 142.239 119.378V163.926C142.239 164.976 142.669 165.93 143.36 166.621C144.052 167.312 145.006 167.742 146.055 167.742H215.509C216.558 167.742 217.513 167.313 218.203 166.622C218.895 165.93 219.324 164.976 219.324 163.926V119.378C219.324 118.329 218.895 117.375 218.204 116.683C217.513 115.992 216.558 115.563 215.509 115.563Z" fill="#9EA3FF"/>
<path d="M146.056 182.194H215.509C216.635 182.194 217.659 182.655 218.401 183.397H218.401C219.144 184.138 219.604 185.163 219.604 186.289V210.938C219.604 212.064 219.144 213.088 218.401 213.83C217.66 214.572 216.635 215.033 215.509 215.033H146.056C144.929 215.033 143.906 214.572 143.163 213.83C142.422 213.089 141.961 212.064 141.961 210.938V186.289C141.961 185.163 142.421 184.139 143.163 183.397C143.906 182.654 144.93 182.194 146.056 182.194ZM215.509 182.473H146.056C145.006 182.473 144.052 182.902 143.36 183.594L143.361 183.594C142.67 184.285 142.24 185.24 142.24 186.289V210.938C142.24 211.987 142.669 212.941 143.361 213.633C144.052 214.324 145.006 214.754 146.056 214.754H215.509C216.558 214.754 217.513 214.325 218.204 213.633C218.895 212.941 219.325 211.987 219.325 210.938V186.289C219.325 185.24 218.896 184.285 218.204 183.594L218.204 183.594C217.513 182.902 216.559 182.473 215.509 182.473Z" fill="#9EA3FF"/>
<path fill-rule="evenodd" clip-rule="evenodd" d="M146.055 221.553H215.509C217.684 221.553 219.464 223.333 219.464 225.509V250.158C219.464 252.334 217.684 254.113 215.509 254.113H146.055C143.879 254.113 142.1 252.334 142.1 250.158V225.509C142.1 223.333 143.88 221.553 146.055 221.553Z" fill="white"/>
<path d="M146.056 221.414H215.509C216.636 221.414 217.659 221.875 218.401 222.617C219.143 223.358 219.604 224.383 219.604 225.509V250.158C219.604 251.284 219.144 252.308 218.401 253.05C217.66 253.792 216.635 254.253 215.509 254.253H146.056C144.929 254.253 143.906 253.792 143.163 253.05C142.422 252.309 141.961 251.284 141.961 250.158V225.509C141.961 224.383 142.422 223.359 143.163 222.617C143.906 221.875 144.929 221.414 146.056 221.414ZM215.509 221.693H146.056C145.006 221.693 144.052 222.123 143.361 222.814L143.36 222.814C142.669 223.505 142.24 224.459 142.24 225.509V250.158C142.24 251.207 142.669 252.161 143.361 252.853C144.053 253.544 145.006 253.974 146.056 253.974H215.509C216.558 253.974 217.513 253.545 218.204 252.853C218.895 252.161 219.325 251.207 219.325 250.158V225.509C219.325 224.46 218.896 223.505 218.204 222.814L218.204 222.814C217.513 222.122 216.558 221.693 215.509 221.693Z" fill="#9EA3FF"/>
<path d="M158.968 103.392C159.563 103.079 159.939 102.515 159.939 101.784C159.939 100.646 158.999 99.8846 157.173 99.8846H153.604V107.191H157.382C159.302 107.191 160.304 106.461 160.304 105.197C160.304 104.279 159.782 103.653 158.968 103.392ZM156.964 101.159C157.789 101.159 158.238 101.44 158.238 102.015C158.238 102.589 157.789 102.881 156.964 102.881H155.284V101.159H156.964V101.159ZM157.256 105.918H155.284V104.112H157.256C158.133 104.112 158.603 104.404 158.603 105.02C158.603 105.647 158.133 105.918 157.256 105.918ZM164.145 107.275C165.93 107.275 167.224 106.074 167.224 104.384C167.224 102.693 165.93 101.493 164.145 101.493C162.36 101.493 161.056 102.693 161.056 104.384C161.056 106.074 162.36 107.275 164.145 107.275ZM164.145 105.938C163.331 105.938 162.705 105.354 162.705 104.383C162.705 103.413 163.331 102.828 164.145 102.828C164.959 102.828 165.575 103.413 165.575 104.383C165.575 105.354 164.959 105.938 164.145 105.938ZM170.981 107.275C172.766 107.275 174.06 106.074 174.06 104.384C174.06 102.693 172.766 101.493 170.981 101.493C169.196 101.493 167.892 102.693 167.892 104.384C167.892 106.074 169.197 107.275 170.981 107.275ZM170.981 105.938C170.167 105.938 169.541 105.354 169.541 104.383C169.541 103.413 170.167 102.828 170.981 102.828C171.795 102.828 172.411 103.413 172.411 104.383C172.411 105.354 171.795 105.938 170.981 105.938ZM179.331 107.191H181.304L178.757 103.955L181.095 101.575H179.154L176.774 103.83V99.446H175.146V107.19H176.774V105.76L177.557 104.988L179.331 107.191ZM188.401 101.492C187.64 101.492 186.982 101.753 186.543 102.233V101.576H184.988V107.191H186.616V104.414C186.616 103.381 187.18 102.901 187.963 102.901C188.683 102.901 189.1 103.319 189.1 104.227V107.191H190.729V103.976C190.729 102.264 189.727 101.492 188.401 101.492ZM194.935 107.275C196.72 107.275 198.014 106.074 198.014 104.384C198.014 102.693 196.72 101.493 194.935 101.493C193.15 101.493 191.845 102.693 191.845 104.384C191.845 106.074 193.15 107.275 194.935 107.275ZM194.935 105.938C194.121 105.938 193.495 105.354 193.495 104.383C193.495 103.413 194.121 102.828 194.935 102.828C195.749 102.828 196.365 103.413 196.365 104.383C196.364 105.354 195.749 105.938 194.935 105.938ZM206.521 101.576L205.153 105.375L203.817 101.576H202.439L201.062 105.375L199.736 101.576H198.202L200.227 107.191H201.793L203.097 103.705L204.36 107.191H205.926L207.961 101.576H206.521Z" fill="#9EA3FF"/>
<path fill-rule="evenodd" clip-rule="evenodd" d="M149.605 121.782H211.959C213.912 121.782 215.51 123.38 215.51 125.333V129.074C215.51 131.027 213.912 132.625 211.959 132.625H149.605C147.653 132.625 146.055 131.027 146.055 129.074V125.333C146.055 123.38 147.652 121.782 149.605 121.782Z" fill="#F7F2F3"/>
<path fill-rule="evenodd" clip-rule="evenodd" d="M149.605 136.778H211.959C213.912 136.778 215.51 138.376 215.51 140.329V144.071C215.51 146.023 213.912 147.621 211.959 147.621H149.605C147.653 147.621 146.055 146.024 146.055 144.071V140.329C146.055 138.376 147.652 136.778 149.605 136.778Z" fill="#F7F2F3"/>
<path fill-rule="evenodd" clip-rule="evenodd" d="M161.658 151.775H199.905C201.858 151.775 203.456 153.373 203.456 155.325V159.067C203.456 161.02 201.858 162.618 199.905 162.618H161.658C159.706 162.618 158.107 161.02 158.107 159.067V155.325C158.107 153.372 159.705 151.775 161.658 151.775Z" fill="#9EA3FF"/>
<path fill-rule="evenodd" clip-rule="evenodd" d="M148.881 187.917H167.883C168.541 187.917 169.079 188.454 169.079 189.112V208.115C169.079 208.772 168.541 209.31 167.883 209.31H148.881C148.223 209.31 147.686 208.772 147.686 208.115V189.112C147.686 188.454 148.223 187.917 148.881 187.917Z" fill="#9EA3FF"/>
<path fill-rule="evenodd" clip-rule="evenodd" d="M175.547 191.347H211.134V192.491H175.547V191.347Z" fill="#9EA3FF"/>
<path fill-rule="evenodd" clip-rule="evenodd" d="M175.547 195.115H193.341V196.258H175.547V195.115Z" fill="#9EA3FF"/>
<path fill-rule="evenodd" clip-rule="evenodd" d="M177.177 201.371H198.353C199.435 201.371 200.319 202.256 200.319 203.337V205.409C200.319 206.49 199.434 207.375 198.353 207.375H177.177C176.096 207.375 175.211 206.49 175.211 205.409V203.337C175.211 202.256 176.095 201.371 177.177 201.371Z" fill="#9EA3FF"/>
<path fill-rule="evenodd" clip-rule="evenodd" d="M148.881 227.137H167.883C168.541 227.137 169.079 227.674 169.079 228.332V247.335C169.079 247.992 168.541 248.53 167.883 248.53H148.881C148.223 248.53 147.686 247.992 147.686 247.335V228.332C147.686 227.674 148.223 227.137 148.881 227.137Z" fill="#9EA3FF"/>
<path fill-rule="evenodd" clip-rule="evenodd" d="M175.547 230.567H211.134V231.711H175.547V230.567Z" fill="#9EA3FF"/>
<path fill-rule="evenodd" clip-rule="evenodd" d="M175.547 234.334H193.341V235.478H175.547V234.334Z" fill="#9EA3FF"/>
<path fill-rule="evenodd" clip-rule="evenodd" d="M177.177 240.591H198.353C199.435 240.591 200.319 241.476 200.319 242.556V244.628C200.319 245.709 199.434 246.594 198.353 246.594H177.177C176.096 246.594 175.211 245.709 175.211 244.628V242.556C175.211 241.476 176.095 240.591 177.177 240.591Z" fill="#9EA3FF"/>
<path d="M172.703 159.294C173.816 159.294 174.355 158.738 174.355 158.087C174.355 156.658 172.091 157.154 172.091 156.435C172.091 156.19 172.297 155.989 172.831 155.989C173.176 155.989 173.548 156.089 173.91 156.295L174.188 155.611C173.826 155.383 173.326 155.266 172.836 155.266C171.729 155.266 171.195 155.817 171.195 156.48C171.195 157.926 173.459 157.426 173.459 158.154C173.459 158.393 173.242 158.571 172.708 158.571C172.241 158.571 171.751 158.404 171.423 158.166L171.117 158.844C171.462 159.11 172.085 159.294 172.703 159.294ZM177.843 157.741C177.843 156.779 177.165 156.189 176.285 156.189C175.373 156.189 174.689 156.835 174.689 157.73C174.689 158.62 175.362 159.271 176.397 159.271C176.937 159.271 177.354 159.104 177.632 158.787L177.17 158.287C176.964 158.481 176.736 158.576 176.419 158.576C175.963 158.576 175.646 158.347 175.563 157.975H177.827C177.832 157.903 177.843 157.808 177.843 157.741ZM176.291 156.846C176.68 156.846 176.964 157.091 177.025 157.469H175.551C175.612 157.085 175.896 156.846 176.291 156.846ZM179.546 156.19C179.068 156.19 178.583 156.317 178.255 156.551L178.566 157.158C178.784 156.985 179.112 156.879 179.429 156.879C179.896 156.879 180.118 157.096 180.118 157.469H179.429C178.516 157.469 178.144 157.836 178.144 158.365C178.144 158.882 178.561 159.272 179.262 159.272C179.701 159.272 180.013 159.127 180.174 158.854V159.227H180.986V157.519C180.986 156.612 180.458 156.19 179.546 156.19ZM179.479 158.687C179.174 158.687 178.99 158.543 178.99 158.326C178.99 158.125 179.118 157.975 179.524 157.975H180.119V158.282C180.019 158.554 179.768 158.687 179.479 158.687ZM182.6 156.629V156.234H181.771V159.227H182.639V157.814C182.639 157.241 182.956 156.979 183.434 156.979C183.501 156.979 183.557 156.985 183.629 156.99V156.19C183.168 156.19 182.812 156.34 182.6 156.629ZM185.565 159.272C186.194 159.272 186.689 158.994 186.906 158.515L186.233 158.148C186.072 158.437 185.833 158.56 185.56 158.56C185.121 158.56 184.776 158.254 184.776 157.73C184.776 157.207 185.121 156.902 185.56 156.902C185.833 156.902 186.072 157.029 186.233 157.314L186.906 156.952C186.689 156.463 186.194 156.19 185.565 156.19C184.592 156.19 183.896 156.829 183.896 157.73C183.896 158.632 184.592 159.272 185.565 159.272ZM189.204 156.19C188.82 156.19 188.487 156.312 188.253 156.546V155.099H187.385V159.227H188.253V157.748C188.253 157.197 188.553 156.941 188.97 156.941C189.354 156.941 189.577 157.163 189.577 157.647V159.227H190.445V157.514C190.445 156.601 189.911 156.19 189.204 156.19Z" fill="white"/>
<path fill-rule="evenodd" clip-rule="evenodd" d="M153.217 201.817L154.956 202.319L155.459 204.059C155.522 204.275 155.526 204.246 155.634 204.138C155.691 204.081 155.749 204.024 155.806 203.966C155.955 203.818 155.935 203.866 155.937 203.656L155.949 202.265L158.606 199.607C159.692 200.68 160.327 202.088 161.021 203.523C161.068 203.62 161.091 203.714 161.165 203.637C161.245 203.556 161.372 203.383 161.417 203.294C161.443 203.242 161.426 203.226 161.412 203.17L160.126 198.088L162.075 196.138C162.565 195.637 162.722 195.132 162.651 194.624C162.143 194.553 161.638 194.71 161.136 195.199L159.187 197.148L154.104 195.862C154.049 195.848 154.032 195.831 153.981 195.857C153.892 195.902 153.718 196.03 153.637 196.109C153.561 196.184 153.655 196.205 153.752 196.253C155.187 196.947 156.595 197.583 157.668 198.668L155.011 201.326L153.62 201.338C153.41 201.34 153.459 201.32 153.31 201.469C153.252 201.526 153.195 201.584 153.137 201.641C153.029 201.749 153.001 201.754 153.217 201.817Z" fill="white"/>
<path fill-rule="evenodd" clip-rule="evenodd" d="M153.217 241.036L154.956 241.539L155.459 243.278C155.521 243.494 155.526 243.465 155.634 243.358C155.691 243.3 155.749 243.243 155.806 243.185C155.954 243.037 155.935 243.085 155.937 242.875L155.949 241.484L158.607 238.826C159.692 239.899 160.328 241.307 161.022 242.742C161.069 242.839 161.091 242.933 161.166 242.857C161.245 242.776 161.373 242.603 161.418 242.513C161.443 242.461 161.427 242.445 161.413 242.39L160.127 237.307L162.076 235.358C162.565 234.857 162.722 234.352 162.651 233.844C162.143 233.773 161.638 233.93 161.137 234.419L159.187 236.368L154.105 235.082C154.049 235.067 154.033 235.051 153.981 235.077C153.892 235.122 153.719 235.25 153.638 235.329C153.561 235.403 153.656 235.425 153.753 235.473C155.188 236.167 156.596 236.803 157.669 237.888L155.01 240.546L153.62 240.558C153.41 240.559 153.459 240.54 153.31 240.689C153.252 240.746 153.195 240.804 153.137 240.861C153.029 240.969 153 240.973 153.217 241.036Z" fill="white"/>
<path fill-rule="evenodd" clip-rule="evenodd" d="M152.538 123.646C151.065 123.646 149.871 124.84 149.871 126.313C149.871 126.863 150.037 127.373 150.321 127.797L152.542 130.76L154.792 127.739C155.061 127.315 155.205 126.815 155.205 126.313C155.205 124.84 154.011 123.646 152.538 123.646ZM152.538 125.577C152.115 125.577 151.773 125.92 151.773 126.342C151.773 126.765 152.115 127.108 152.538 127.108C152.96 127.108 153.303 126.765 153.303 126.342C153.303 125.92 152.961 125.577 152.538 125.577Z" fill="#9EA3FF"/>
<path fill-rule="evenodd" clip-rule="evenodd" d="M227.909 38.234L218.545 55.8643L223.632 57.5222C225.06 57.9863 224.723 60.7729 222.526 60.7422C212.365 61.5889 201.674 61.7922 190.628 59.6414L176.657 57.1157C175.185 57.3899 174.176 58.7966 172.1 58.8867C170.667 58.9491 163.803 58.2107 162.983 57.0974C162.271 56.1318 163.11 53.8333 163.414 53.2273L139.488 46.9983C136.188 46.1391 123.388 41.8941 124.786 38.1467C125.425 36.4332 128.075 36.6039 130.059 36.0707C132.489 33.5191 138.804 33.7636 142.005 34.502C146.815 35.6114 185.586 46.2868 191.021 47.8096C191.021 47.8096 203.484 50.5798 207.435 48.3993C211.386 46.2178 220.657 37.0622 223.302 37.1341C225.945 37.2041 227.909 38.234 227.909 38.234Z" fill="#11AF9F"/>
<path fill-rule="evenodd" clip-rule="evenodd" d="M238.888 175.872H236.561V213.82L238.888 213.757V175.872Z" fill="#E3E3E3"/>
<path d="M317.11 185.202H315.637V182.255H317.11V185.202ZM229.271 236.754H230.787V238.227H229.271V236.754ZM235.206 238.227V236.754H238.153V238.227H235.206ZM242.571 238.227V236.754H245.518V238.227H242.571ZM249.937 238.227V236.754H252.883V238.227H249.937ZM257.302 238.227V236.754H260.248V238.227H257.302ZM264.667 238.227V236.754H267.614V238.227H264.667ZM272.032 238.227V236.754H274.979V238.227H272.032ZM279.398 238.227V236.754H282.344V238.227H279.398ZM286.763 238.227V236.754H289.709V238.227H286.763ZM294.129 238.227V236.754H297.075V238.227H294.129ZM301.625 237.727L301.291 236.292L301.347 236.279L301.458 236.253L301.569 236.226L301.68 236.199L301.79 236.171L301.9 236.142L302.01 236.112L302.12 236.082L302.23 236.051L302.338 236.019L302.448 235.987L302.556 235.955L302.664 235.921L302.772 235.887L302.879 235.853L302.987 235.817L303.094 235.781L303.2 235.744L303.307 235.707L303.413 235.669L303.518 235.631L303.624 235.591L303.729 235.552L303.834 235.512L303.939 235.47L303.992 235.449L304.543 236.815L304.482 236.84L304.369 236.884L304.255 236.928L304.141 236.971L304.027 237.013L303.912 237.055L303.798 237.096L303.683 237.136L303.568 237.176L303.452 237.215L303.336 237.253L303.219 237.291L303.103 237.327L302.986 237.364L302.868 237.399L302.751 237.433L302.633 237.467L302.515 237.501L302.397 237.534L302.278 237.566L302.159 237.597L302.04 237.627L301.92 237.657L301.8 237.686L301.68 237.714L301.625 237.727ZM308.569 234.636L307.721 233.431L307.76 233.404L307.851 233.34L307.941 233.275L308.031 233.211L308.12 233.145L308.21 233.078L308.298 233.012L308.386 232.945L308.475 232.877L308.562 232.809L308.649 232.74L308.735 232.67L308.821 232.601L308.907 232.53L308.992 232.459L309.077 232.387L309.162 232.316L309.246 232.244L309.329 232.17L309.413 232.097L309.495 232.024L309.577 231.949L309.659 231.874L309.741 231.799L309.821 231.723L309.901 231.647L309.91 231.639L310.933 232.699L310.919 232.713L310.832 232.795L310.744 232.877L310.656 232.958L310.569 233.039L310.48 233.119L310.39 233.199L310.3 233.278L310.21 233.357L310.12 233.434L310.029 233.512L309.937 233.589L309.845 233.666L309.752 233.742L309.659 233.817L309.566 233.892L309.472 233.966L309.378 234.04L309.283 234.113L309.188 234.186L309.092 234.258L308.996 234.33L308.899 234.401L308.802 234.472L308.705 234.541L308.607 234.611L308.569 234.636ZM313.861 229.182L312.627 228.378L312.661 228.325L312.722 228.232L312.781 228.138L312.841 228.043L312.9 227.949L312.958 227.854L313.016 227.759L313.073 227.663L313.13 227.567L313.186 227.471L313.241 227.374L313.296 227.277L313.35 227.18L313.404 227.082L313.457 226.984L313.509 226.886L313.562 226.786L313.613 226.687L313.664 226.588L313.714 226.488L313.764 226.387L313.813 226.287L313.862 226.186L313.91 226.084L313.956 225.983L313.995 225.897L315.337 226.506L315.294 226.6L315.243 226.71L315.191 226.819L315.139 226.928L315.086 227.037L315.032 227.145L314.978 227.253L314.923 227.361L314.868 227.468L314.812 227.574L314.755 227.68L314.697 227.786L314.639 227.892L314.581 227.997L314.522 228.102L314.462 228.206L314.401 228.311L314.34 228.415L314.279 228.518L314.216 228.621L314.153 228.723L314.09 228.825L314.026 228.927L313.961 229.028L313.896 229.129L313.861 229.182ZM316.737 222.144L315.291 221.865L315.306 221.792L315.327 221.68L315.348 221.566L315.368 221.452L315.387 221.339L315.406 221.226L315.423 221.112L315.441 220.998L315.457 220.883L315.472 220.768L315.488 220.653L315.502 220.538L315.515 220.423L315.528 220.308L315.541 220.192L315.552 220.076L315.563 219.96L315.573 219.843L315.582 219.727L315.591 219.61L315.599 219.493L315.606 219.377L315.612 219.259L315.618 219.141L315.621 219.054L317.093 219.11L317.09 219.208L317.083 219.334L317.077 219.46L317.069 219.588L317.061 219.714L317.052 219.84L317.042 219.966L317.031 220.091L317.019 220.216L317.007 220.342L316.994 220.467L316.98 220.592L316.965 220.716L316.95 220.841L316.933 220.965L316.916 221.089L316.898 221.212L316.879 221.336L316.86 221.459L316.84 221.582L316.819 221.705L316.798 221.827L316.775 221.948L316.753 222.071L316.737 222.144ZM317.11 214.663H315.637V211.716H317.11V214.663ZM317.11 207.298H315.637V204.351H317.11V207.298ZM317.11 199.932H315.637V196.986H317.11V199.932ZM317.11 192.567H315.637V189.621H317.11V192.567Z" fill="#3C65D1"/>
<path fill-rule="evenodd" clip-rule="evenodd" d="M316.351 136.954C309.263 136.954 303.518 142.7 303.518 149.788C303.518 152.429 304.316 154.884 305.684 156.925L316.373 178.303L327.201 156.647C327.659 155.923 328.047 155.15 328.355 154.338L328.359 154.33H328.358C328.892 152.918 329.186 151.388 329.186 149.788C329.186 142.7 323.44 136.954 316.351 136.954ZM316.351 146.248C314.318 146.248 312.669 147.897 312.669 149.931C312.669 151.965 314.318 153.613 316.351 153.613C318.385 153.613 320.034 151.965 320.034 149.931C320.034 147.897 318.385 146.248 316.351 146.248Z" fill="#9EA3FF"/>
<path fill-rule="evenodd" clip-rule="evenodd" d="M238.972 170.285H215.249C214.187 170.285 213.318 171.154 213.318 172.216V173.941C213.318 175.002 214.187 175.871 215.249 175.871H238.972C240.034 175.871 240.902 175.002 240.902 173.941V172.216C240.902 171.154 240.034 170.285 238.972 170.285Z" fill="#9EA3FF"/>
<path fill-rule="evenodd" clip-rule="evenodd" d="M217.661 175.872L215.334 175.872V214.161L217.661 214.098V175.872Z" fill="#E3E3E3"/>
<path fill-rule="evenodd" clip-rule="evenodd" d="M246.463 152.237L238.294 166.918L231.82 163.544L237.953 148.355C238.377 147.304 247.6 149.705 246.463 152.237Z" fill="#FFC9A9"/>
<path fill-rule="evenodd" clip-rule="evenodd" d="M229.287 175.34C230.179 174.463 231.578 175.955 230.777 176.489C229.68 177.22 228.269 176.341 229.287 175.34Z" fill="#FFC9A9"/>
<path fill-rule="evenodd" clip-rule="evenodd" d="M226.859 175.533C226.25 176.321 227.162 176.745 227.942 176.746C229.304 176.75 229.194 175.855 228.728 175.37C228.289 174.913 227.445 174.774 226.859 175.533Z" fill="#FFC9A9"/>
<path fill-rule="evenodd" clip-rule="evenodd" d="M226.945 176.297C227.515 175.188 225.933 174.324 225.029 175.131C223.457 176.535 226.404 177.347 226.945 176.297Z" fill="#FFC9A9"/>
<path fill-rule="evenodd" clip-rule="evenodd" d="M284.052 45.9663C284.052 45.9663 294.601 44.794 298.63 50.4347C302.66 56.0761 305.151 59.8855 303.246 65.1603C301.341 70.435 295.847 75.784 289.4 78.1281C282.953 80.4717 260.248 82.7924 253.655 76.5657C247.061 70.339 245.15 63.989 247.275 59.3733C249.399 54.7581 256.433 46.1136 284.052 45.9663Z" fill="#9EA3FF"/>
<path fill-rule="evenodd" clip-rule="evenodd" d="M262.166 58.2853C258.953 68.9603 262.245 86.7693 262.632 92.943L287.311 94.1494C289.19 82.3271 291.942 68.5356 289.206 59.1557C282.716 47.6588 266.098 48.4054 262.166 58.2853Z" fill="#1F3A6F"/>
<path fill-rule="evenodd" clip-rule="evenodd" d="M287.963 274.218C287.963 274.218 288.822 283.645 289.16 285.607C289.497 287.569 289.565 292.507 289.43 293.793C289.295 295.079 283.678 292.577 283.678 292.577L277.25 292.983C277.25 292.983 278.466 284.728 278.873 282.088C279.279 279.449 279.436 273.205 279.436 273.205L287.963 274.218Z" fill="#FFC9A9"/>
<path fill-rule="evenodd" clip-rule="evenodd" d="M289.626 294.56C290.008 295.228 289.931 296.593 289.769 298.26C289.275 303.351 276.475 301.705 275.907 299.641C275.487 298.135 275.77 294.746 277.251 292.983C278.939 290.975 287.217 290.342 289.626 294.56Z" fill="#1F3A6F"/>
<path fill-rule="evenodd" clip-rule="evenodd" d="M274.663 272.205C274.435 271.684 275.069 277.822 275.069 280.935C275.069 284.048 274.519 290.659 274.792 292.422C275.064 294.185 263.244 293.029 263.244 293.029C263.244 293.029 263.429 287.227 264.512 284.25C265.595 281.273 267.152 273.558 267.152 272.408C267.151 271.258 274.64 272.175 274.663 272.205Z" fill="#FFC9A9"/>
<path fill-rule="evenodd" clip-rule="evenodd" d="M262.006 297.514C262.47 302.279 273.985 300.965 275.539 299.543C276.351 298.799 276.891 293.658 274.523 292.236C272.218 290.851 268.087 288.741 263.046 292.516C261.921 293.354 261.89 296.318 262.006 297.514Z" fill="#1F3A6F"/>
<path fill-rule="evenodd" clip-rule="evenodd" d="M288.505 216.386C292.085 239.14 291.35 258.65 290.391 278.359C289.363 280.783 278.017 281.468 277.964 277.539C277.824 268.508 277.159 261.361 276.235 255.397C276.069 262.328 276.053 269.253 276.185 276.137C276.255 279.817 263.979 280.658 263.931 275.167C263.843 265.326 261.789 250.032 260.132 240.552C257.74 226.867 258.008 222.394 256.817 217.096C248.326 179.314 247.705 168.212 255.898 149.055L291.856 148.42C309.559 162.519 285.405 196.678 288.505 216.386Z" fill="#1F3A6F"/>
<path d="M270.208 211.794C270.208 208.544 270.173 201.744 270.461 193.881C270.665 188.29 270.949 182.169 271.321 176.434L277.516 171.523C275.17 171.987 272.946 173.972 271.019 175.247C269.954 173.487 268.49 171.745 266.523 170.488C267.181 171.677 269.297 175.641 270.246 176.339C269.877 182.05 269.594 188.175 269.388 193.785C269.099 201.71 269.036 208.505 269.036 211.725C269.036 225.802 273.985 246.384 276.94 260.655C275.805 243.94 270.208 228.605 270.208 211.794Z" fill="#2C5484"/>
<path fill-rule="evenodd" clip-rule="evenodd" d="M253.12 150.878C257.407 140.526 255.597 124.276 254.004 115.819C252.244 106.468 254.411 98.6066 255.36 96.4383C256.309 94.2699 262.518 91.5469 262.518 91.5469L287.343 94.2699C287.343 94.2699 293.983 104.842 293.983 109.991C293.983 141.595 286.496 111.712 296.964 152.887C297.205 153.833 297.443 155.05 296.527 155.855C287.098 164.149 261.324 163.48 253.167 156.387C251.224 154.698 252.2 153.101 253.12 150.878Z" fill="#F7F2F3"/>
<path fill-rule="evenodd" clip-rule="evenodd" d="M281.041 46.0179C281.041 46.0179 278.96 44.4656 274.418 44.6118C269.875 44.758 268.373 47.2109 268.373 47.2109L281.041 46.0179Z" fill="#9EA3FF"/>
<path fill-rule="evenodd" clip-rule="evenodd" d="M282.365 89.6213C287.734 94.3928 299.197 93.9084 299.799 101.848C300.502 112.388 300.471 121.524 302.382 131.808L291.196 137.9C290.491 134.011 290.353 131.843 290.129 130.612C289.836 129 288.957 106.877 288.371 105.118C287.785 103.36 282.365 89.6213 282.365 89.6213Z" fill="#FACF55"/>
<path fill-rule="evenodd" clip-rule="evenodd" d="M266.182 88.6873C261.927 90.5671 253.705 90.8266 251.17 92.8393C243.838 98.662 243.475 117.642 242.5 124.704C243.255 128.308 238.767 142.741 236.912 145.937C234.967 149.29 248.594 154.197 249.578 151.893C250.868 148.875 255.677 137.299 255.751 136C255.898 133.436 256.093 118.634 256.972 116.583C257.851 114.531 264.817 105.648 264.817 105.648L266.182 88.6873Z" fill="#FACF55"/>
<path fill-rule="evenodd" clip-rule="evenodd" d="M269.476 80.4763L281.981 79.7024C280.944 83.9393 281.057 87.2421 282.66 91.1982C284.875 96.6616 279.501 99.2663 274.466 98.9427C268.871 98.5833 263.75 94.3956 266.976 89.7971C269.893 87.5958 269.346 85.2176 269.476 80.4763Z" fill="#FFC9A9"/>
<path fill-rule="evenodd" clip-rule="evenodd" d="M264.424 64.9511C264.622 71.8591 264.782 79.6973 272.581 84.101C274.681 85.3727 275.861 85.3431 277.894 83.9677C285.127 78.7777 284.433 73.2831 284.738 66.6798C284.238 63.3285 281.992 57.6754 279.585 56.5684C274.797 60.1468 265.021 58.8684 264.424 64.9511Z" fill="#FFC9A9"/>
<path d="M273.546 71.1109C272.8 72.4724 273.374 73.2135 273.695 73.5025C274.237 73.9891 273.884 74.3339 273.374 74.089C272.604 73.7185 271.677 72.887 272.732 70.8554C273.841 68.7143 274.58 67.114 273.489 64.6382C273.396 64.1773 276.081 66.4823 273.546 71.1109Z" fill="#F5A475"/>
<path fill-rule="evenodd" clip-rule="evenodd" d="M270.438 64.0047C270.11 63.9517 269.616 63.8088 269.209 63.7106C268.234 63.4757 267.847 63.5773 266.937 63.6682C265.743 63.7882 267.302 62.8943 268.075 62.7553C270.452 62.3285 271.609 64.1939 270.438 64.0047Z" fill="#1F3A6F"/>
<path fill-rule="evenodd" clip-rule="evenodd" d="M277.709 63.6706C276.742 63.2895 279.245 61.8872 281.213 62.6801C281.978 62.9887 282.997 63.7113 281.365 63.4837C280.144 63.3129 279.921 63.2593 278.704 63.6053C278.372 63.699 278.02 63.7928 277.709 63.6706Z" fill="#1F3A6F"/>
<path fill-rule="evenodd" clip-rule="evenodd" d="M268.479 67.8315C268.461 68.3544 268.89 68.8008 269.435 68.8287C269.981 68.8566 270.437 68.4565 270.454 67.9342C270.472 67.4108 270.044 66.965 269.5 66.9359C268.953 66.908 268.496 67.3087 268.479 67.8315Z" fill="#1F3A6F"/>
<path fill-rule="evenodd" clip-rule="evenodd" d="M278.504 67.8143C278.487 68.3366 278.915 68.783 279.461 68.8114C280.006 68.8393 280.462 68.4404 280.479 67.917C280.498 67.3941 280.069 66.9472 279.524 66.9193C278.978 66.8897 278.522 67.2909 278.504 67.8143Z" fill="#1F3A6F"/>
<path fill-rule="evenodd" clip-rule="evenodd" d="M268.158 80.3699C271.857 84.9611 278.24 84.4823 281.274 80.5278C278.271 85.2668 271.614 86.3968 268.158 80.3699Z" fill="#F5A475"/>
<path fill-rule="evenodd" clip-rule="evenodd" d="M311.425 113.306C307.223 121.676 304.077 137.576 295.917 141.188C289.735 143.926 291.011 133.653 291.978 130.669C292.47 129.153 293.353 127.291 294.892 124.777C296.337 123.009 304.623 109.193 306.098 107.926C306.299 107.755 306.559 107.658 306.86 107.628C307.351 107.304 308.092 106.987 309.129 106.815C311.128 106.482 319.288 106.728 319.288 106.728L323.878 111.047C323.45 111.839 319.312 113.388 318.367 113.395C317.594 113.401 311.493 113.167 311.425 113.306Z" fill="#FFC9A9"/>
<path fill-rule="evenodd" clip-rule="evenodd" d="M338.837 83.0437L297.654 92.374L301.947 111.321L343.13 101.991L338.837 83.0437Z" fill="#F7F2F3"/>
<path fill-rule="evenodd" clip-rule="evenodd" d="M333.93 88.271L310.129 93.6635L313.535 108.696L337.336 103.303L333.93 88.271Z" fill="#9EA3FF"/>
<path fill-rule="evenodd" clip-rule="evenodd" d="M294.087 143.408C294.179 145.839 280.584 149.315 278.186 144.697C275.682 139.875 274.682 122.173 275.43 113.595C275.773 109.666 275.99 108.086 275.507 103.917C275.194 101.209 275.112 99.8986 277.043 98.4953C279.405 96.7767 283.293 92.9421 282.603 91.0561L282.182 89.9038L283.043 90.1912C283.043 90.1912 292.938 99.9489 291.18 107.861C289.422 115.773 289.706 127.41 290.131 130.613C290.556 133.816 294.087 143.408 294.087 143.408Z" fill="#FACF55"/>
<path fill-rule="evenodd" clip-rule="evenodd" d="M262.849 90.696L268.723 97.6532C269.439 103.129 265.353 106.981 265.705 115.045C266.057 123.124 266.373 139.853 265.416 144.348C265.455 147.256 255.808 147.827 252.532 144.765C251.556 143.852 252.227 141.077 252.215 139.325C252.201 137.462 251.404 135.902 251.198 134.179C250.293 126.613 251.811 118.382 251.664 113.805C251.425 106.32 249.956 90.7602 262.849 90.696Z" fill="#FACF55"/>
<path fill-rule="evenodd" clip-rule="evenodd" d="M305.753 127.586C305.753 127.586 304.901 134.491 304.488 136.353C304.074 138.215 300.074 142.49 299.385 143.663C298.695 144.835 294.52 144.548 294.046 143.318L290.65 134.506L289.949 128.458L295.963 123.243C293.63 130.703 294.735 136.422 297.155 140.529C302.722 135.032 302.584 134.74 305.753 127.586Z" fill="#FACF55"/>
<path d="M289.932 122.837C289.59 123.044 288.268 135.215 294.087 143.408C293.464 141.178 292.911 139.443 292.443 137.975C290.918 133.191 290.305 131.269 290.942 123.214C291.065 121.655 291.391 120.031 291.663 118.415C292.286 114.698 292.026 111.194 292.415 107.529C291.266 111.744 291.36 114.871 290.749 118.298C290.481 119.805 290.061 121.21 289.932 122.837Z" fill="#3C65D1"/>
<path fill-rule="evenodd" clip-rule="evenodd" d="M284.065 100.376C283.683 101.631 283.522 101.375 282.624 100.853C281.727 100.331 280.705 98.6471 279.77 98.387C278.834 98.127 277.041 98.4947 277.041 98.4947C277.041 98.4947 280.91 92.4014 282.515 90.0104L282.075 88.4519C284.059 88.5551 284.808 90.8228 285.529 91.6994C286.14 92.4427 284.466 99.0561 284.065 100.376Z" fill="#9EA3FF"/>
<path d="M283.448 100.839C281.246 99.7907 280.999 97.4477 277.932 97.874C278.882 96.3367 281.44 92.1255 282.753 90.1692C282.753 89.6781 282.641 89.2273 282.471 88.7987C283.57 89.071 284.225 90.1608 284.74 91.019C284.939 91.3516 285.12 91.6524 285.308 91.8811C285.48 92.0898 285.27 93.1444 285.069 94.4412C284.996 94.9038 283.84 100.958 283.448 100.839ZM284.338 100.459C284.588 99.6362 285.286 96.7686 285.634 94.5294C285.821 93.328 286.052 92.3677 285.93 91.8477C285.906 91.7444 285.799 91.577 285.75 91.5179C285.12 90.6809 284.575 89.7719 283.86 89.0058C283.329 88.436 282.505 88.3853 281.69 88.1448C281.734 88.44 282.207 89.9555 282.142 90.0531C280.464 92.5747 276.807 98.3288 276.797 98.345L276.416 99.0118C278.694 98.3288 279.613 98.4398 281.187 99.9157C281.45 100.199 283.125 101.808 283.735 101.649C283.984 101.584 284.116 101.223 284.338 100.459Z" fill="#3C65D1"/>
<path fill-rule="evenodd" clip-rule="evenodd" d="M268.719 97.6817C268.947 96.357 266.876 91.6827 268.844 86.8722C268.844 86.8722 265.98 86.7712 265.153 88.7716C264.633 90.0282 262.011 94.9023 261.015 97.2889C259.651 100.558 262.656 96.9524 265.134 97.0294C266.042 97.0573 268.719 97.6817 268.719 97.6817Z" fill="#9EA3FF"/>
<path d="M268.822 97.7803C269.129 95.9791 268.439 94.0501 268.459 91.2116C268.468 89.9053 268.829 87.9445 269.166 86.6025C267.663 86.7409 265.655 87.179 264.886 88.6627C264.671 89.1816 264.07 90.3696 263.376 91.7406C262.436 93.6009 261.323 95.7994 260.748 97.1783C260.292 98.2714 260.045 99.0849 260.404 99.2339C260.729 99.3695 261.497 98.763 262.15 98.3958C262.994 97.9215 264.129 97.2843 265.124 97.315C266.005 97.3417 268.462 98.008 268.469 98.0097L268.769 98.085L268.822 97.7803ZM268.267 97.1827C267.509 97.0131 265.825 96.5901 265.093 96.5672C263.54 96.5187 261.305 98.4109 260.93 98.2535C260.918 98.249 260.982 98.1073 261.278 97.3987C261.846 96.0366 262.952 93.8498 263.889 91.9989C264.584 90.6229 265.188 89.4305 265.415 88.8803C266.186 87.6493 267.86 87.4513 268.421 87.1706C267.235 91.4906 268.213 93.1964 268.267 97.1827Z" fill="#3C65D1"/>
<path d="M252.239 111.893C251.89 114.03 251.794 116.205 251.913 119.266C251.948 120.186 252.07 120.91 252.208 121.734C252.388 122.803 252.597 124.048 252.675 126.097C252.6 129.321 250.638 144.018 252.82 145.011C252.206 137.059 254.501 129.547 253.175 121.665C252.139 113.171 254.462 107.828 255.175 103.667C253.857 106.823 252.692 109.117 252.239 111.893Z" fill="#3C65D1"/>
<path fill-rule="evenodd" clip-rule="evenodd" d="M328.818 107.877C328.011 109.108 323.609 109.889 322.508 110.578L322.648 107.099L325.834 105.974L325.533 104.219C325.533 104.219 324.027 103.029 323.672 101.928C323.317 100.828 324.071 100.378 324.159 100.326C324.766 99.9681 327.005 101.914 327.5 102.531C328.035 103.55 329.234 107.241 328.818 107.877Z" fill="#FFC9A9"/>
<path fill-rule="evenodd" clip-rule="evenodd" d="M325.346 104.887C325.067 106.286 324.737 111.272 323.196 111.546C321.265 111.89 319.519 110.48 317.974 109.528L318.003 103.109C318.003 103.109 316.111 103.067 315.58 102.072C315.049 101.076 315.446 100.57 315.859 100.564C316.272 100.557 319.422 100.412 319.895 100.608C320.369 100.802 324.275 102.781 324.608 102.941C325.241 103.244 325.477 104.232 325.346 104.887Z" fill="#FFC9A9"/>
<path fill-rule="evenodd" clip-rule="evenodd" d="M322.665 109.393C322.665 109.393 322.739 106.906 322.437 105.595C322.136 104.284 322.007 103.765 321.499 103.411C320.991 103.056 316.766 102.464 316.441 102.418C316.116 102.373 313.74 102.888 313.221 103.018C312.702 103.147 312.516 103.436 313.153 104.309C313.79 105.183 315.971 104.842 316.455 104.853C316.939 104.865 318.975 105.385 318.975 105.385L320.057 110.523C320.057 110.523 322.025 110.726 322.665 109.393Z" fill="#FFC9A9"/>
<path fill-rule="evenodd" clip-rule="evenodd" d="M320.892 110.624C320.892 110.624 320.421 106.315 320.353 105.998C320.284 105.681 320.339 105.172 319.54 104.931C318.742 104.689 316.803 103.932 316.46 103.957C316.117 103.981 313.516 105.524 313.278 105.725C313.04 105.926 314.115 107.136 314.748 106.998C315.382 106.861 316.105 106.372 316.105 106.372L317.157 106.939L317.105 108.46C317.105 108.46 315.946 109.922 316.319 110.952C316.693 111.983 320.658 111.836 320.892 110.624Z" fill="#FFC9A9"/>
<path d="M316.594 108.858C315.983 108.58 314.632 108.301 313.119 108.791C314.112 108.909 315.446 108.848 316.369 109.402C316.144 110.032 316.046 110.734 316.538 111.23C316.493 110.521 317.008 109.176 317.391 108.548L317.445 106.95L317.451 106.773L317.294 106.688L316.243 106.12L316.09 106.039L315.947 106.134C315.345 106.586 314.44 106.978 313.792 106.425C312.838 105.612 315.431 104.65 316.233 104.343C316.611 104.198 318.746 104.917 319.359 105.135C319.711 105.261 319.986 105.485 320.045 105.89C320.045 106.489 320.765 110.651 321.033 111.046C321.351 110.063 320.782 106.969 320.613 105.809C320.556 105.42 320.482 104.915 319.625 104.657C319.058 104.481 316.627 103.579 316.227 103.732C315.803 103.895 315.093 104.218 314.468 104.583C313.909 104.488 312.93 104.107 313.038 103.431C313.047 103.376 313.144 103.334 313.291 103.297C313.606 103.219 314.613 102.997 315.419 102.846C315.907 102.756 316.311 102.691 316.403 102.704C317 102.649 321.249 103.429 321.503 103.688C322.496 104.126 322.56 109.275 322.701 109.983C323.062 109.157 322.926 105.005 322.607 104.197C322.452 103.805 322.054 103.293 321.666 103.137C320.698 102.747 316.904 102.195 316.498 102.138C315.384 101.989 315.497 100.912 315.773 100.908C316.492 100.898 319.751 100.91 320.256 101.117C320.601 101.258 322.639 102.253 323.695 102.768C324.315 103.07 324.823 103.483 325.01 104.073C325.347 105.136 324.084 108.99 323.93 110.219C323.782 111.394 322.516 111.863 321.233 112.244C319.837 112.659 318.577 113.185 317.663 113.185C316.934 113.185 310.318 112.851 309.764 113.003C310.962 113.794 316.993 113.715 317.737 113.715C319.084 113.605 323.108 112.322 323.974 111.31C324.151 111.011 324.285 110.509 324.423 110.149C325.616 109.554 328.218 109.052 328.901 108.121C329.523 107.171 328.132 103.469 327.639 102.53C327.414 102.107 326.13 100.923 325.653 100.633C324.85 100.144 324.087 99.6196 323.504 100.586C323.329 100.876 323.21 101.3 323.36 101.878C322.363 101.334 321.246 100.929 320.466 100.609C319.837 100.351 316.59 100.346 315.765 100.358C314.826 100.373 314.905 101.598 315.444 102.259L315.316 102.282C314.496 102.435 313.474 102.661 313.154 102.74C312.782 102.833 312.526 103.001 312.472 103.34C312.365 104.009 313.077 104.777 313.744 105.063C313.543 105.221 313.383 105.377 313.29 105.523C312.526 106.73 314.434 107.737 316.119 106.705L316.866 107.108L316.823 108.377C316.759 108.515 316.677 108.679 316.594 108.858ZM324.664 109.438C324.959 108.46 325.192 107.294 325.358 106.386V106.396L325.698 106.267C325.939 106.637 326.402 107.167 326.829 107.203C326.757 106.98 326.41 106.487 326.098 105.822C325.857 104.609 325.852 104.046 324.989 103.084C324.77 102.84 324.507 102.615 324.216 102.407L324.229 102.414C324.107 102.224 324.007 102.03 323.946 101.84C323.793 101.367 323.846 100.846 324.306 100.573C324.446 100.49 324.904 100.709 325.431 101.03C326.265 101.537 326.966 102.335 327.261 102.69C327.579 103.304 327.992 104.952 328.343 106.15C328.565 106.91 328.693 107.545 328.578 107.72C328.101 108.449 325.702 109.107 324.664 109.438Z" fill="#F5A475"/>
<path fill-rule="evenodd" clip-rule="evenodd" d="M237.827 198.071H237.62C236.672 198.071 235.896 198.847 235.896 199.795V219.449H239.551V199.795C239.551 198.846 238.775 198.071 237.827 198.071Z" fill="#9EA3FF"/>
<path fill-rule="evenodd" clip-rule="evenodd" d="M216.601 198.071H216.394C215.446 198.071 214.67 198.847 214.67 199.795V219.449H218.325V199.795C218.325 198.846 217.549 198.071 216.601 198.071Z" fill="#9EA3FF"/>
<path fill-rule="evenodd" clip-rule="evenodd" d="M248.93 219.448H205.289C202.044 219.448 199.389 222.102 199.389 225.348V291.058C199.389 294.304 202.044 296.958 205.289 296.958H248.93C252.176 296.958 254.831 294.304 254.831 291.058V225.348C254.831 222.102 252.176 219.448 248.93 219.448Z" fill="#9EA3FF"/>
<path fill-rule="evenodd" clip-rule="evenodd" d="M248.929 296.958H244.664V299.027C244.664 299.71 245.223 300.268 245.906 300.268H247.688C248.371 300.268 248.929 299.709 248.929 299.027L248.929 296.958Z" fill="#1F3A6F"/>
<path fill-rule="evenodd" clip-rule="evenodd" d="M209.554 296.958H205.289V299.027C205.289 299.71 205.848 300.268 206.531 300.268H208.313C208.996 300.268 209.554 299.709 209.554 299.027V296.958H209.554Z" fill="#1F3A6F"/>
<path fill-rule="evenodd" clip-rule="evenodd" d="M206.422 233.654H247.797V235.93H206.422V233.654Z" fill="#E3E3E3"/>
<path fill-rule="evenodd" clip-rule="evenodd" d="M273.64 76.157C273.279 76.1246 272.801 76.0443 272.007 75.8892C270.874 75.6676 271.351 76.9912 271.956 77.7735C273.091 79.2427 275.476 78.6295 276.409 77.0369C276.669 76.5939 276.717 76.1961 276.414 76.0387C275.952 75.7971 274.389 76.2245 273.64 76.157Z" fill="#1F3A6F"/>
<path fill-rule="evenodd" clip-rule="evenodd" d="M237.281 245.17H237.902V281.925H237.281V245.17Z" fill="#3C65D1"/>
<path fill-rule="evenodd" clip-rule="evenodd" d="M226.799 245.17H227.419V281.925H226.799V245.17Z" fill="#3C65D1"/>
<path fill-rule="evenodd" clip-rule="evenodd" d="M216.318 245.17H216.939V281.925H216.318V245.17Z" fill="#3C65D1"/>
<path fill-rule="evenodd" clip-rule="evenodd" d="M152.538 138.642C151.065 138.642 149.871 139.836 149.871 141.31C149.871 141.859 150.037 142.369 150.321 142.793L152.542 145.756L154.792 142.735C155.061 142.311 155.205 141.811 155.205 141.309C155.205 139.836 154.011 138.642 152.538 138.642ZM152.538 140.574C152.115 140.574 151.773 140.917 151.773 141.339C151.773 141.762 152.115 142.105 152.538 142.105C152.96 142.105 153.303 141.762 153.303 141.339C153.303 140.917 152.961 140.574 152.538 140.574Z" fill="#9EA3FF"/>
<path d="M296.32 122.698C295.092 125.571 294.664 129.289 294.962 132.278C295.283 135.508 296.585 139.054 298.279 141.885C295.352 140.602 294.438 133.75 294.298 132.344C294.064 130.005 293.993 125.577 296.32 122.698Z" fill="#3C65D1"/>
<path fill-rule="evenodd" clip-rule="evenodd" d="M222.21 175.756C221.99 176.454 224.332 177.171 224.772 176.09C225.439 174.441 222.656 174.333 222.21 175.756Z" fill="#FFC9A9"/>
<path fill-rule="evenodd" clip-rule="evenodd" d="M238.536 166.227C237.848 168.415 236.788 169.609 235.985 170.285C235.78 170.457 235.122 170.744 234.27 171.065C233.207 171.465 231.808 171.819 230.682 172.263C227.568 173.493 227.053 173.505 223.579 175.577C222.29 176.346 221.686 176.718 220.793 176.54C218.894 176.16 219.756 174.651 221.492 173.513C223.775 171.944 225.814 170.285 225.52 170.285L221.72 170.288C222.792 169.107 224.573 166.074 225.986 165.826C228.573 165.372 229.858 165.117 231.933 163.268C231.933 163.268 238.918 162.369 238.536 166.227Z" fill="#FFC9A9"/>
<path d="M237.58 169.013C236.538 170.528 235.936 170.795 234.39 171.377C230.33 172.904 227.793 173.453 223.752 175.863L223.688 175.902C222.368 176.69 221.732 177.068 220.729 176.868C220.313 176.785 220.003 176.647 219.786 176.469C218.48 175.224 220.486 173.699 221.31 173.233C222.74 172.25 224.26 170.896 224.971 170.282L221.909 170.284L221.321 170.285C222.192 168.871 224.313 165.78 225.929 165.496C227.139 165.284 228.06 165.116 228.894 164.811C229.98 164.413 231.593 163.325 232.407 162.092C232.026 163.828 231.147 164.252 229.121 165.439C228.229 165.765 227.284 165.938 226.045 166.155C224.991 166.34 222.416 169.607 222.584 169.807C223.319 169.61 226.179 169.329 226.338 169.79C226.398 169.965 225.72 170.511 225.545 170.667C224.859 171.278 223.231 172.723 221.681 173.787C221.244 174.108 219.267 175.125 220.209 175.952C221.152 176.729 222.529 175.813 223.344 175.327C227.427 172.893 230.056 172.292 234.154 170.751C235.579 170.214 236.068 170.032 237.03 168.632C238.143 167.013 238.06 166.304 239.594 164.58C238.98 166.036 238.457 167.738 237.58 169.013Z" fill="#F5A475"/>
<path d="M229.007 175.303C229.342 174.96 229.75 174.874 230.128 174.939C230.394 174.985 230.643 175.11 230.839 175.273C231.041 175.442 231.19 175.658 231.249 175.879C231.331 176.188 231.25 176.495 230.925 176.711C230.825 176.778 230.721 176.834 230.616 176.879C230.263 177.03 229.899 177.057 229.587 176.992C229.34 176.941 229.121 176.832 228.96 176.68C228.933 176.705 228.905 176.729 228.875 176.752C228.673 176.905 228.373 177.005 227.946 177.013C227.73 177.017 227.507 176.988 227.303 176.931C227.154 176.889 227.013 176.832 226.889 176.761C226.646 176.944 226.316 177.033 225.977 177.04C225.62 177.048 225.243 176.966 224.944 176.812C224.847 176.762 224.756 176.703 224.676 176.638C224.386 176.856 223.987 176.931 223.582 176.906C223.36 176.892 223.136 176.849 222.933 176.785C222.725 176.719 222.532 176.63 222.374 176.525C222.282 176.464 222.202 176.398 222.135 176.327L222.626 176.05L222.669 176.079C222.784 176.156 222.93 176.223 223.093 176.274C223.26 176.327 223.439 176.362 223.613 176.373C224.014 176.398 224.396 176.299 224.522 175.99C224.66 175.649 224.612 175.408 224.463 175.261C224.411 175.21 224.347 175.168 224.274 175.134L224.8 174.845C224.813 174.857 224.825 174.869 224.838 174.881L224.846 174.889C225.492 174.52 226.475 174.507 226.997 175.022C227.299 174.795 227.638 174.701 227.955 174.714C228.281 174.727 228.585 174.852 228.807 175.061C228.856 175.107 228.902 175.158 228.942 175.211C228.965 175.239 228.986 175.27 229.007 175.303ZM225.008 176.218C225.06 176.263 225.122 176.303 225.19 176.338C225.412 176.453 225.696 176.513 225.968 176.507C226.222 176.502 226.459 176.438 226.607 176.304C227.333 175.653 226.165 174.741 225.112 175.351C225.172 175.587 225.15 175.867 225.019 176.191L225.008 176.218ZM227.224 176.333C227.437 176.437 227.708 176.484 227.939 176.48C229.171 176.456 228.749 175.279 227.935 175.246C227.733 175.239 227.514 175.301 227.315 175.451L227.281 175.478L227.294 175.521C227.367 175.766 227.353 176.042 227.224 176.333ZM229.694 176.47C230.182 176.571 231.19 176.265 230.496 175.683C230.369 175.577 230.208 175.495 230.038 175.466C229.761 175.418 229.451 175.519 229.222 175.897C229.256 176.194 229.274 176.382 229.694 176.47Z" fill="#F5A475"/>
<defs>
<linearGradient id="paint0_linear_1168_2166" x1="218.5" y1="302" x2="218.5" y2="0" gradientUnits="userSpaceOnUse">
<stop stop-color="#E8EDFF" stop-opacity="0"/>
<stop offset="1" stop-color="#E8EDFF"/>
</linearGradient>
</defs>
</svg>
