<svg width="61" height="61" viewBox="0 0 61 61" fill="none" xmlns="http://www.w3.org/2000/svg">
<path d="M47.9829 12.8789C48.8487 12.751 49.7637 12.7608 50.7082 12.9281C53.8074 13.5086 56.3064 15.9879 56.9066 19.0871C57.8905 24.1245 54.0534 28.5323 49.193 28.5323H34.435H26.564H11.8059C6.94562 28.5323 3.10852 24.1245 4.09239 19.0871C4.68271 16.0174 7.16207 13.5381 10.2317 12.9478C11.1172 12.7707 11.9929 12.751 12.8193 12.8592C13.2916 6.21808 18.8209 0.983887 25.5801 0.983887C30.4503 0.983887 34.6809 3.70921 36.8455 7.71356C37.8982 7.19211 39.0788 6.88711 40.3382 6.88711C44.0376 6.88711 47.1367 9.43534 47.9829 12.8789Z" fill="#E6E9ED"/>
<path d="M24.5973 52.1453V56.0807C24.5973 58.2551 22.8361 60.0162 20.6618 60.0162H4.91986C2.7455 60.0162 0.984375 58.2551 0.984375 56.0807V52.1453H24.5973Z" fill="#969FAA"/>
<path d="M24.5973 46.242V52.1452H0.984375V36.4033C0.984375 34.2289 2.7455 32.4678 4.91986 32.4678H20.6618C22.8361 32.4678 24.5973 34.2289 24.5973 36.4033V46.242Z" fill="#FFEAA7"/>
<path d="M20.6599 45.258V47.2258C20.6599 47.7669 20.2172 48.2097 19.676 48.2097H5.90184C5.36071 48.2097 4.91797 47.7669 4.91797 47.2258V45.258C4.91797 44.7169 5.36071 44.2742 5.90184 44.2742H19.676C20.2172 44.2742 20.6599 44.7169 20.6599 45.258Z" fill="#69D6F4"/>
<path d="M20.6599 37.3872V39.3549C20.6599 39.8961 20.2172 40.3388 19.676 40.3388H5.90184C5.36071 40.3388 4.91797 39.8961 4.91797 39.3549V37.3872C4.91797 36.8461 5.36071 36.4033 5.90184 36.4033H19.676C20.2172 36.4033 20.6599 36.8461 20.6599 37.3872Z" fill="#69D6F4"/>
<path d="M48.2088 60.0162C54.7293 60.0162 60.0152 54.7303 60.0152 48.2098C60.0152 41.6892 54.7293 36.4033 48.2088 36.4033C41.6883 36.4033 36.4023 41.6892 36.4023 48.2098C36.4023 54.7303 41.6883 60.0162 48.2088 60.0162Z" fill="#B4DD7F"/>
<path d="M56.859 56.248C54.7043 58.5699 51.6248 60.0162 48.2107 60.0162C44.7967 60.0162 41.7172 58.5699 39.5625 56.248C40.3791 52.7651 43.498 50.1775 47.2269 50.1775H48.2107H49.1946C52.9235 50.1775 56.0423 52.7651 56.859 56.248Z" fill="#FCD770"/>
<path d="M48.2084 50.1773C50.9253 50.1773 53.1278 47.9749 53.1278 45.258C53.1278 42.5411 50.9253 40.3386 48.2084 40.3386C45.4915 40.3386 43.2891 42.5411 43.2891 45.258C43.2891 47.9749 45.4915 50.1773 48.2084 50.1773Z" fill="#F0D0B4"/>
<path d="M48.2097 35.4194C41.4898 35.4194 35.9752 40.6329 35.4695 47.2258H34.4355C33.8924 47.2258 33.4516 46.784 33.4516 46.2419V30.5C33.4516 29.9579 33.8924 29.5161 34.4355 29.5161H49.1936C51.847 29.5161 54.3382 28.3404 56.0285 26.291C57.7178 24.2416 58.3908 21.5458 57.8762 18.8952C57.1983 15.4015 54.3894 12.6172 50.8868 11.9649C50.1518 11.8271 49.413 11.7828 48.6829 11.8242C47.4688 8.3816 44.1925 5.90323 40.3387 5.90323C39.2771 5.90323 38.2431 6.09115 37.2543 6.46305C34.7425 2.45476 30.3495 0 25.5806 0C18.7142 0 12.9182 5.11711 11.958 11.8143C11.3224 11.8025 10.6809 11.8537 10.0404 11.9786C6.57619 12.6516 3.79577 15.431 3.12379 18.8943C2.60923 21.5458 3.28219 24.2416 4.9715 26.291C6.66179 28.3404 9.15295 29.5161 11.8065 29.5161H26.5645C27.1076 29.5161 27.5484 29.9579 27.5484 30.5V44.2742C27.5484 44.8163 27.1076 45.2581 26.5645 45.2581H25.5806V36.4032C25.5806 33.6907 23.3738 31.4839 20.6613 31.4839H4.91935C2.20682 31.4839 0 33.6907 0 36.4032V56.0806C0 58.7932 2.20682 61 4.91935 61H20.6613C23.3738 61 25.5806 58.7932 25.5806 56.0806V47.2258H26.5645C28.1918 47.2258 29.5161 45.9015 29.5161 44.2742V30.5C29.5161 28.8727 28.1918 27.5484 26.5645 27.5484H11.8065C9.74131 27.5484 7.80406 26.6334 6.48961 25.0395C5.17516 23.4456 4.65273 21.3421 5.05513 19.2701C5.57658 16.5861 7.73126 14.4324 10.4153 13.91C12.4883 13.5085 14.5898 14.03 16.1837 15.3445C17.7785 16.6589 18.6935 18.5971 18.6935 20.6613H20.6613C20.6613 18.0068 19.4856 15.5156 17.4362 13.8263C16.3962 12.9694 15.19 12.3761 13.907 12.0652C14.7413 6.33908 19.705 1.96774 25.5806 1.96774C29.9284 1.96774 33.9121 4.34773 35.9782 8.1799L36.4298 9.01718L37.2818 8.59411C38.248 8.11398 39.2761 7.87097 40.3387 7.87097C44.1355 7.87097 47.2258 10.9603 47.2258 14.7581C47.2258 18.5558 44.1355 21.6452 40.3387 21.6452V23.6129C45.2217 23.6129 49.1936 19.64 49.1936 14.7581C49.1936 14.4295 49.1729 14.1067 49.1375 13.787C49.5989 13.783 50.0623 13.8116 50.5267 13.8982C53.2412 14.4039 55.4195 16.5625 55.9449 19.2691C56.3473 21.3411 55.8248 23.4447 54.5104 25.0385C53.1959 26.6334 51.2587 27.5484 49.1936 27.5484H34.4355C32.8082 27.5484 31.4839 28.8727 31.4839 30.5V46.2419C31.4839 47.8693 32.8082 49.1936 34.4355 49.1936H35.4695C35.9752 55.7865 41.4898 61 48.2097 61C55.2621 61 61 55.2621 61 48.2097C61 41.1573 55.2621 35.4194 48.2097 35.4194ZM4.91935 33.4516H20.6613C22.2886 33.4516 23.6129 34.7759 23.6129 36.4032V51.1613H1.96774V36.4032C1.96774 34.7759 3.29203 33.4516 4.91935 33.4516ZM20.6613 59.0323H4.91935C3.29203 59.0323 1.96774 57.708 1.96774 56.0806V53.129H23.6129V56.0806C23.6129 57.708 22.2886 59.0323 20.6613 59.0323ZM48.2097 37.3871C54.1769 37.3871 59.0323 42.2425 59.0323 48.2097C59.0323 50.4431 58.3514 52.52 57.1885 54.2457C56.1702 52.0871 54.3353 50.45 52.1068 49.6815C53.3337 48.5983 54.1129 47.0192 54.1129 45.2581C54.1129 42.0024 51.4653 39.3548 48.2097 39.3548C44.954 39.3548 42.3065 42.0024 42.3065 45.2581C42.3065 47.0192 43.0857 48.5983 44.3135 49.6815C42.0851 50.4509 40.2511 52.0881 39.2319 54.2457C38.0679 52.52 37.3871 50.4431 37.3871 48.2097C37.3871 42.2425 42.2425 37.3871 48.2097 37.3871ZM44.2742 45.2581C44.2742 43.0876 46.0393 41.3226 48.2097 41.3226C50.3801 41.3226 52.1452 43.0876 52.1452 45.2581C52.1452 47.4285 50.3801 49.1936 48.2097 49.1936C46.0393 49.1936 44.2742 47.4285 44.2742 45.2581ZM40.6831 55.9705C41.5833 53.1202 44.1896 51.1613 47.2258 51.1613H49.1936C52.2317 51.1613 54.838 53.1202 55.7363 55.9705C53.7863 57.8615 51.1337 59.0323 48.2097 59.0323C45.2856 59.0323 42.6331 57.8615 40.6831 55.9705Z" fill="black"/>
<path d="M5.90524 41.3227H19.6794C20.7646 41.3227 21.6472 40.4401 21.6472 39.3549V37.3872C21.6472 36.302 20.7646 35.4194 19.6794 35.4194H5.90524C4.82003 35.4194 3.9375 36.302 3.9375 37.3872V39.3549C3.9375 40.4401 4.82003 41.3227 5.90524 41.3227ZM5.90524 37.3872H19.6794L19.6804 39.3549H5.90524V37.3872Z" fill="black"/>
<path d="M5.90524 49.1935H19.6794C20.7646 49.1935 21.6472 48.311 21.6472 47.2258V45.258C21.6472 44.1728 20.7646 43.2903 19.6794 43.2903H5.90524C4.82003 43.2903 3.9375 44.1728 3.9375 45.258V47.2258C3.9375 48.311 4.82003 49.1935 5.90524 49.1935ZM5.90524 45.258H19.6794L19.6804 47.2258H5.90524V45.258Z" fill="black"/>
<path d="M19.6758 55.0967H21.6435V57.0644H19.6758V55.0967Z" fill="black"/>
<path d="M15.7422 55.0967H17.7099V57.0644H15.7422V55.0967Z" fill="black"/>
<path d="M11.8047 55.0967H13.7724V57.0644H11.8047V55.0967Z" fill="black"/>
<path d="M14.7563 20.6613H16.724C16.724 17.9488 14.5172 15.7419 11.8047 15.7419V17.7097C13.432 17.7097 14.7563 19.034 14.7563 20.6613Z" fill="black"/>
<path d="M34.3975 9.39997C32.722 6.02922 29.3444 3.93555 25.582 3.93555V5.90329C28.5927 5.90329 31.2954 7.57882 32.6354 10.2766L34.3975 9.39997Z" fill="black"/>
<path d="M43.2915 14.7581C43.2915 16.3854 41.9672 17.7097 40.3398 17.7097V19.6774C43.0524 19.6774 45.2592 17.4706 45.2592 14.7581H43.2915Z" fill="black"/>
<path d="M11.8047 23.6128H13.7724V25.5805H11.8047V23.6128Z" fill="black"/>
<path d="M15.7422 23.6128H17.7099V25.5805H15.7422V23.6128Z" fill="black"/>
<path d="M19.6758 23.6128H21.6435V25.5805H19.6758V23.6128Z" fill="black"/>
</svg>
