<svg width="61" height="61" viewBox="0 0 61 61" fill="none" xmlns="http://www.w3.org/2000/svg">
<path fill-rule="evenodd" clip-rule="evenodd" d="M35.7354 7.78638C34.179 7.78638 32.9062 9.05844 32.9062 10.6139C32.9062 12.1694 34.179 13.4415 35.7354 13.4415H46.39C47.9463 13.4415 49.2191 12.1694 49.2191 10.6139C49.2191 9.05844 47.9463 7.78638 46.39 7.78638H35.7354Z" fill="#CCF5FC"/>
<path fill-rule="evenodd" clip-rule="evenodd" d="M11.1455 7.78638C9.58239 7.78638 8.31641 9.05165 8.31641 10.6139C8.31641 12.1762 9.58239 13.4415 11.1455 13.4415C12.7086 13.4415 13.978 12.1762 13.978 10.6139C13.978 9.05177 12.7085 7.78638 11.1455 7.78638Z" fill="#CCF5FC"/>
<path d="M11.1474 13.4552C9.57985 13.4552 8.30469 12.1807 8.30469 10.6141C8.30469 9.04752 9.57985 7.77295 11.1474 7.77295C12.7167 7.77295 13.9934 9.04752 13.9934 10.6141C13.9934 12.1807 12.7167 13.4552 11.1474 13.4552ZM11.1474 7.80011C9.59486 7.80011 8.33185 9.06241 8.33185 10.6141C8.33185 12.1658 9.59486 13.4281 11.1474 13.4281C12.7017 13.4281 13.9662 12.1658 13.9662 10.6141C13.9662 9.06241 12.7017 7.80011 11.1474 7.80011Z" fill="#8AA8BD"/>
<path fill-rule="evenodd" clip-rule="evenodd" d="M21.5947 7.78638C20.0316 7.78638 18.7656 9.05165 18.7656 10.6139C18.7656 12.1762 20.0316 13.4415 21.5947 13.4415C23.1579 13.4415 24.4272 12.1762 24.4272 10.6139C24.4272 9.05177 23.1579 7.78638 21.5947 7.78638Z" fill="#DC72A9"/>
<path fill-rule="evenodd" clip-rule="evenodd" d="M45.6566 38.0936C42.2637 38.0936 39.5156 40.8403 39.5156 44.2313C39.5156 47.619 42.2637 50.3656 45.6566 50.3656C49.0462 50.3656 51.7941 47.6189 51.7941 44.2313C51.7941 40.8403 49.046 38.0936 45.6566 38.0936Z" fill="white"/>
<path fill-rule="evenodd" clip-rule="evenodd" d="M43.0336 31.5815V32.9548C41.7507 33.2552 40.5489 33.7646 39.4685 34.4496L38.4996 33.4845C37.9223 32.9042 36.9736 32.9042 36.3929 33.4845L34.8569 35.0198C34.2762 35.6001 34.2762 36.5483 34.8569 37.1252L35.8358 38.1071C35.164 39.1834 34.6643 40.3779 34.374 41.6534H32.9966C32.1762 41.6534 31.5078 42.3249 31.5078 43.1415V45.3178C31.5078 46.1344 32.1763 46.8059 32.9966 46.8059H34.3774C34.6711 48.0881 35.1776 49.2892 35.8595 50.369L34.8839 51.3408C34.3067 51.9212 34.3067 52.8694 34.8839 53.4463L36.4233 54.985C37.0006 55.5653 37.9493 55.5653 38.53 54.985L39.5023 54.0132C40.586 54.6914 41.7912 55.2009 43.0741 55.4911V56.8779C43.0741 57.6978 43.7459 58.3693 44.5629 58.3693H46.7404C47.5574 58.3693 48.2292 57.6978 48.2292 56.8779V55.4946C49.5188 55.201 50.724 54.6949 51.8077 54.0133L52.7834 54.9851C53.3606 55.5655 54.3093 55.5655 54.89 54.9851L56.4261 53.4464C57.0068 52.8694 57.0068 51.9213 56.4261 51.341L55.4538 50.3691C56.1324 49.2894 56.6387 48.0882 56.9324 46.806H58.3065C59.1269 46.806 59.7987 46.1345 59.7987 45.3179V43.1416C59.7987 42.325 59.1269 41.6535 58.3065 41.6535H56.9392C56.6455 40.3645 56.1391 39.1566 55.4538 38.0701L56.4261 37.095C57.0068 36.518 57.0068 35.5698 56.4261 34.9895L55.4538 34.0177L54.89 33.4541C54.3093 32.8738 53.3607 32.8738 52.7834 33.4541L51.8077 34.426C50.7105 33.7376 49.4917 33.2248 48.1887 32.9346V31.5815C48.1887 30.7616 47.5169 30.0901 46.6965 30.0901H44.5224C43.7021 30.0901 43.0336 30.7616 43.0336 31.5815ZM45.6534 38.0937C49.0429 38.0937 51.7909 40.8404 51.7909 44.2314C51.7909 47.6191 49.0428 50.3657 45.6534 50.3657C42.2605 50.3657 39.5124 47.619 39.5124 44.2314C39.5124 40.8404 42.2605 38.0937 45.6534 38.0937Z" fill="#CCF5FC"/>
<path fill-rule="evenodd" clip-rule="evenodd" d="M51.0193 2.63062H10.7775H5.63921C3.19837 2.63062 1.20312 5.01283 1.20312 7.92808V18.5097H19.8893H55.4554V7.9282C55.4554 5.01617 53.4601 2.63062 51.0193 2.63062ZM21.5942 7.78643C23.1573 7.78643 24.4266 9.0517 24.4266 10.614C24.4266 12.1763 23.1573 13.4416 21.5942 13.4416C20.031 13.4416 18.765 12.1763 18.765 10.614C18.765 9.05182 20.031 7.78643 21.5942 7.78643ZM11.1489 7.78643C12.712 7.78643 13.9813 9.0517 13.9813 10.614C13.9813 12.1763 12.712 13.4416 11.1489 13.4416C9.58574 13.4416 8.31975 12.1763 8.31975 10.614C8.31975 9.05182 9.58574 7.78643 11.1489 7.78643ZM32.9072 10.614C32.9072 9.05849 34.1799 7.78643 35.7363 7.78643H46.3909C47.9472 7.78643 49.22 9.05849 49.22 10.614C49.22 12.1695 47.9472 13.4416 46.3909 13.4416H35.7363C34.1798 13.4417 32.9072 12.1696 32.9072 10.614Z" fill="#8AA8BD"/>
<path fill-rule="evenodd" clip-rule="evenodd" d="M19.8893 18.5096H1.20312V41.5083C1.20312 44.4202 3.20171 46.8058 5.63921 46.8058H32.9982C32.1778 46.8058 31.5094 46.1343 31.5094 45.3177V43.1414C31.5094 42.3248 32.1779 41.6533 32.9982 41.6533H34.3756C34.6659 40.3779 35.1656 39.1834 35.8374 38.107L34.8584 37.1251C34.2778 36.5481 34.2778 35.6 34.8584 35.0197L36.3945 33.4844C36.9752 32.9041 37.9238 32.9041 38.5012 33.4844L39.4701 34.4495C40.5505 33.7645 41.7523 33.255 43.0352 32.9547V31.5814C43.0352 30.7615 43.7037 30.09 44.524 30.09H46.698C47.5184 30.09 48.1903 30.7615 48.1903 31.5814V32.9345C49.4934 33.2247 50.7121 33.7375 51.8093 34.4259L52.7849 33.454C53.3622 32.8737 54.3109 32.8737 54.8916 33.454L55.4554 34.0176V18.5096H19.8893Z" fill="white"/>
<path d="M11.1477 6.58496C8.92527 6.58496 7.11719 8.39244 7.11719 10.6139C7.11719 12.8354 8.92527 14.6429 11.1477 14.6429C13.372 14.6429 15.1816 12.8354 15.1816 10.6139C15.1816 8.39244 13.372 6.58496 11.1477 6.58496ZM11.1477 12.2401C10.2502 12.2401 9.52013 11.5106 9.52013 10.6139C9.52013 9.71729 10.2502 8.98791 11.1477 8.98791C12.047 8.98791 12.7787 9.71741 12.7787 10.6141C12.7787 11.5107 12.047 12.2401 11.1477 12.2401Z" fill="black"/>
<path d="M46.3883 6.58496H35.7337C33.5112 6.58496 31.7031 8.39244 31.7031 10.6139C31.7031 12.8354 33.5112 14.6429 35.7337 14.6429H46.3883C48.6107 14.6429 50.4188 12.8354 50.4188 10.6139C50.4188 8.39244 48.6107 6.58496 46.3883 6.58496ZM46.3883 12.2401H35.7337C34.8362 12.2401 34.1061 11.5106 34.1061 10.6139C34.1061 9.71729 34.8363 8.98779 35.7337 8.98779H46.3883C47.2858 8.98779 48.0159 9.71729 48.0159 10.6139C48.0159 11.5106 47.2858 12.2401 46.3883 12.2401Z" fill="black"/>
<path d="M21.593 6.58496C19.3706 6.58496 17.5625 8.39244 17.5625 10.6139C17.5625 12.8354 19.3706 14.6429 21.593 14.6429C23.8173 14.6429 25.6269 12.8354 25.6269 10.6139C25.6269 8.39244 23.8173 6.58496 21.593 6.58496ZM21.593 12.2401C20.6955 12.2401 19.9654 11.5106 19.9654 10.6139C19.9654 9.71729 20.6957 8.98779 21.593 8.98779C22.4923 8.98779 23.2241 9.71729 23.2241 10.6139C23.2241 11.5106 22.4923 12.2401 21.593 12.2401Z" fill="black"/>
<path d="M19.634 26.5022C18.9889 26.3476 18.3404 26.7459 18.1862 27.3914L15.8027 37.3656C15.6485 38.011 16.0466 38.6593 16.692 38.8134C16.7858 38.8358 16.8798 38.8467 16.9723 38.8467C17.5155 38.8467 18.008 38.4757 18.1398 37.9242L20.5233 27.95C20.6776 27.3046 20.2794 26.6564 19.634 26.5022Z" fill="black"/>
<path d="M24.0431 37.6412C24.272 37.8452 24.5575 37.9455 24.8418 37.9455C25.1726 37.9455 25.5021 37.8097 25.7395 37.5432L29.1086 33.7612C29.6645 33.1424 29.6645 32.1733 29.112 31.5584L25.7394 27.7725C25.2978 27.2768 24.5383 27.2332 24.0431 27.6744C23.5474 28.1158 23.5036 28.8753 23.945 29.3707L26.8731 32.6577L23.945 35.9448C23.5037 36.4404 23.5475 37.1999 24.0431 37.6412Z" fill="black"/>
<path d="M12.2798 27.6745C11.7842 27.2331 11.0249 27.2773 10.5835 27.7725L7.21482 31.5542C6.6582 32.1731 6.6582 33.1427 7.21101 33.7573L10.5836 37.5433C10.8211 37.8099 11.1504 37.9456 11.4814 37.9456C11.7656 37.9456 12.0512 37.8453 12.2801 37.6413C12.7757 37.1999 12.8196 36.4404 12.3781 35.945L9.45002 32.658L12.3781 29.3709C12.8193 28.8753 12.7755 28.1158 12.2798 27.6745Z" fill="black"/>
<path d="M58.3063 40.452H57.8603C57.6267 39.6953 57.3239 38.9647 56.9546 38.2665L57.2729 37.9471C57.7813 37.4418 58.0619 36.7671 58.0629 36.0473C58.064 35.3258 57.7844 34.6483 57.2754 34.1395L56.6552 33.5196V7.9282C56.6552 4.34457 54.1263 1.4292 51.0177 1.4292H5.6375C2.52888 1.4292 0 4.34457 0 7.9282V41.5083C0 45.092 2.52888 48.0073 5.6375 48.0073H12.6866C13.3501 48.0073 13.888 47.4694 13.888 46.8059C13.888 46.1424 13.3501 45.6045 12.6866 45.6045H5.6375C3.88422 45.6045 2.40295 43.7286 2.40295 41.5085V19.7112H54.2521V31.8522C54.1152 31.8311 53.9765 31.8173 53.8354 31.8173C53.8339 31.8173 53.8325 31.8173 53.8312 31.8173C53.1113 31.8185 52.4366 32.0987 51.9353 32.6028L51.6105 32.9262C50.8977 32.5496 50.1553 32.2433 49.3899 32.0094V31.5814C49.3899 30.0965 48.1815 28.8885 46.6962 28.8885H44.522C43.0386 28.8885 41.8318 30.0965 41.8318 31.5814V32.0387C41.0808 32.2747 40.3555 32.5784 39.6624 32.9473L39.3512 32.637C38.8458 32.1291 38.171 31.8487 37.4511 31.8476C37.4498 31.8476 37.4485 31.8476 37.4471 31.8476C36.7271 31.8476 36.0511 32.127 35.5432 32.6345L34.0071 34.1699C33.4982 34.6786 33.2186 35.3562 33.2196 36.0776C33.2207 36.7974 33.5012 37.4721 34.0057 37.9734L34.3375 38.3062C33.9774 38.9936 33.6815 39.7108 33.4527 40.4518H32.9964C31.5128 40.4518 30.306 41.6582 30.306 43.1413V45.3176C30.306 45.4144 30.3114 45.5099 30.3214 45.604H23.3308C22.6673 45.604 22.1294 46.142 22.1294 46.8055C22.1294 47.4689 22.6673 48.0069 23.3308 48.0069H32.9962H33.4572C33.6895 48.755 33.9899 49.4778 34.3562 50.1697L34.0316 50.493C32.9863 51.5438 32.9873 53.2498 34.0341 54.2957L35.571 55.832C36.0764 56.3399 36.7512 56.6204 37.471 56.6214H37.475C38.1951 56.6214 38.8711 56.3421 39.379 55.8344L39.7008 55.5128C40.3989 55.8809 41.1248 56.1816 41.8721 56.4126V56.8776C41.8721 58.3626 43.0789 59.5705 44.5624 59.5705H46.7399C48.2234 59.5705 49.4301 58.3626 49.4301 56.8776V56.4155C50.1844 56.1828 50.9133 55.8809 51.6106 55.5127L51.931 55.8319C52.4363 56.3399 53.111 56.6203 53.8308 56.6214H53.835C54.555 56.6214 55.231 56.3421 55.7398 55.8336L57.2726 54.2982C57.7809 53.7929 58.0615 53.1182 58.0626 52.3984C58.0637 51.6769 57.784 50.9994 57.275 50.4906L56.9543 50.1701C57.32 49.4775 57.6201 48.7542 57.8521 48.007H58.3061C59.7914 48.007 60.9998 46.8006 60.9998 45.3176V43.1413C61 41.6585 59.7917 40.452 58.3063 40.452ZM2.40295 17.3083V7.9282C2.40295 5.70801 3.88422 3.83215 5.6375 3.83215H51.0177C52.771 3.83215 54.2522 5.70801 54.2522 7.9282V17.3084L2.40295 17.3083ZM58.5971 45.3179C58.5971 45.4705 58.4612 45.6043 58.3062 45.6043H56.9323C56.3721 45.6043 55.8862 45.9914 55.7612 46.5374C55.5017 47.6698 55.056 48.7438 54.4363 49.7296C54.1379 50.2044 54.2076 50.8225 54.6043 51.2189L55.5765 52.1905C55.6492 52.2632 55.6599 52.3499 55.6599 52.3952C55.6598 52.4493 55.6457 52.5278 55.5755 52.5974L54.0405 54.1351C53.9677 54.2078 53.8809 54.2187 53.8351 54.2187C53.835 54.2187 53.8349 54.2187 53.8349 54.2187C53.7803 54.2187 53.7016 54.2046 53.6312 54.1337L52.6554 53.162C52.2585 52.7668 51.6416 52.6983 51.1678 52.9961C50.1805 53.6172 49.102 54.0636 47.9622 54.323C47.4155 54.4476 47.0274 54.9337 47.0274 55.4946V56.878C47.0274 57.0324 46.8932 57.1679 46.7402 57.1679H44.5626C44.4095 57.1679 44.2753 57.0325 44.2753 56.878V55.4912C44.2753 54.9298 43.8864 54.4431 43.3388 54.3193C42.2135 54.0648 41.137 53.6191 40.1393 52.9948C39.9427 52.8717 39.7218 52.8117 39.5023 52.8117C39.1919 52.8117 38.8843 52.9317 38.6526 53.1635L37.6805 54.1351C37.6077 54.2078 37.5208 54.2187 37.4751 54.2187C37.475 54.2187 37.4748 54.2187 37.4747 54.2187C37.4203 54.2187 37.3414 54.2046 37.2724 54.1352L35.733 52.5965C35.6252 52.4888 35.6264 52.298 35.7316 52.1922L36.7072 51.2204C37.1059 50.8235 37.1756 50.2032 36.8752 49.7276C36.2546 48.7449 35.8083 47.6717 35.5486 46.5377C35.4235 45.9917 34.9376 45.6045 34.3773 45.6045H32.9965C32.8408 45.6045 32.7091 45.4733 32.7091 45.3181V43.1418C32.7091 42.9865 32.8408 42.8552 32.9965 42.8552H34.3739C34.9347 42.8552 35.421 42.4672 35.5455 41.9205C35.8019 40.7937 36.2425 39.7249 36.855 38.7434C37.1507 38.2696 37.0808 37.6545 36.6864 37.259L35.7035 36.2732C35.6367 36.2069 35.6227 36.1284 35.6226 36.0743C35.6226 36.0291 35.6333 35.9423 35.706 35.8698L37.2419 34.3345C37.3147 34.2619 37.4016 34.2509 37.4473 34.2509H37.4477C37.5021 34.251 37.581 34.2651 37.6514 34.336L38.6203 35.301C39.0183 35.6974 39.6375 35.7653 40.1114 35.4646C41.0932 34.8422 42.1684 34.3914 43.3071 34.1248C43.8504 33.9977 44.2346 33.5131 44.2346 32.955V31.5818C44.2346 31.4246 44.3662 31.2918 44.5219 31.2918H46.6961C46.8537 31.2918 46.9869 31.4246 46.9869 31.5818V32.9347C46.9869 33.4977 47.3777 33.9851 47.9273 34.1074C49.0704 34.362 50.1611 34.8117 51.1689 35.444C51.6425 35.7409 52.2588 35.6722 52.6553 35.2774L53.635 34.3016C53.7014 34.2348 53.7802 34.2207 53.8346 34.2206H53.835C53.8808 34.2206 53.9676 34.2316 54.0403 34.3043L55.5764 35.8394C55.649 35.9121 55.6598 35.9988 55.6598 36.0441C55.6596 36.0982 55.6456 36.1767 55.5749 36.2469L54.6026 37.222C54.2067 37.6191 54.1381 38.2372 54.4373 38.7114C55.0593 39.6975 55.5068 40.7774 55.7675 41.9209C55.8921 42.4675 56.3782 42.8553 56.939 42.8553H58.3062C58.4611 42.8553 58.5971 42.9894 58.5971 43.1419V45.3179Z" fill="black"/>
<path d="M45.6549 36.8921C41.6063 36.8921 38.3125 40.1844 38.3125 44.2313C38.3125 48.2762 41.6063 51.5671 45.6549 51.5671C49.7018 51.5671 52.994 48.2763 52.994 44.2313C52.994 40.1845 49.7018 36.8921 45.6549 36.8921ZM45.6549 49.1642C42.9313 49.1642 40.7154 46.9513 40.7154 44.2313C40.7154 41.5094 42.9313 39.295 45.6549 39.295C48.3767 39.295 50.591 41.5094 50.591 44.2313C50.591 46.9513 48.3765 49.1642 45.6549 49.1642Z" fill="black"/>
<path d="M18.0453 45.6044H18.0217C17.3582 45.6044 16.8203 46.1423 16.8203 46.8058C16.8203 47.4693 17.3582 48.0072 18.0217 48.0072H18.0453C18.7088 48.0072 19.2467 47.4693 19.2467 46.8058C19.2467 46.1423 18.7088 45.6044 18.0453 45.6044Z" fill="black"/>
</svg>
