<svg width="61" height="61" viewBox="0 0 61 61" fill="none" xmlns="http://www.w3.org/2000/svg">
<path fill-rule="evenodd" clip-rule="evenodd" d="M47.6017 55.834C47.6017 58.2001 45.6661 60.1356 43.3 60.1356H17.6966C15.334 60.1356 13.3984 58.2001 13.3984 55.834V5.16599C13.3984 2.79996 15.334 0.86438 17.6966 0.86438H43.3C45.6661 0.86438 47.6017 2.79996 47.6017 5.16599V55.834Z" fill="#A4D4FF"/>
<path d="M56.8631 12.9656C58.6703 12.9656 60.1354 11.5005 60.1354 9.69329C60.1354 7.88606 58.6703 6.42102 56.8631 6.42102C55.0559 6.42102 53.5908 7.88606 53.5908 9.69329C53.5908 11.5005 55.0559 12.9656 56.8631 12.9656Z" fill="#C6EA94"/>
<path d="M56.8631 32.5992C58.6703 32.5992 60.1354 31.1342 60.1354 29.327C60.1354 27.5197 58.6703 26.0547 56.8631 26.0547C55.0559 26.0547 53.5908 27.5197 53.5908 29.327C53.5908 31.1342 55.0559 32.5992 56.8631 32.5992Z" fill="#C6EA94"/>
<path d="M56.8631 52.2945C58.6703 52.2945 60.1354 50.8295 60.1354 49.0223C60.1354 47.215 58.6703 45.75 56.8631 45.75C55.0559 45.75 53.5908 47.215 53.5908 49.0223C53.5908 50.8295 55.0559 52.2945 56.8631 52.2945Z" fill="#C6EA94"/>
<path d="M4.13653 32.5992C5.94375 32.5992 7.40879 31.1342 7.40879 29.327C7.40879 27.5197 5.94375 26.0547 4.13653 26.0547C2.3293 26.0547 0.864258 27.5197 0.864258 29.327C0.864258 31.1342 2.3293 32.5992 4.13653 32.5992Z" fill="#C6EA94"/>
<path d="M4.13653 52.2945C5.94375 52.2945 7.40879 50.8295 7.40879 49.0223C7.40879 47.215 5.94375 45.75 4.13653 45.75C2.3293 45.75 0.864258 47.215 0.864258 49.0223C0.864258 50.8295 2.3293 52.2945 4.13653 52.2945Z" fill="#C6EA94"/>
<path d="M4.13653 12.9656C5.94375 12.9656 7.40879 11.5005 7.40879 9.69329C7.40879 7.88606 5.94375 6.42102 4.13653 6.42102C2.3293 6.42102 0.864258 7.88606 0.864258 9.69329C0.864258 11.5005 2.3293 12.9656 4.13653 12.9656Z" fill="#C6EA94"/>
<path fill-rule="evenodd" clip-rule="evenodd" d="M42.4706 31.449C39.9482 31.449 38.6816 34.5057 40.4657 36.2898C40.794 36.6181 40.794 37.1521 40.4657 37.4806L38.6544 39.2918C38.326 39.6202 37.7919 39.6202 37.4636 39.2918C35.6795 37.5078 32.6228 38.7743 32.6228 41.2968C32.6228 41.7628 32.2461 42.1381 31.7816 42.1381H29.2198C28.7553 42.1381 28.3785 41.7628 28.3785 41.2968C28.3785 38.7712 25.3233 37.5063 23.5378 39.2918C23.2095 39.6202 22.6769 39.6202 22.3485 39.2918L20.5357 37.4806C20.2074 37.1521 20.2074 36.6181 20.5357 36.2898C22.3198 34.5057 21.0547 31.449 18.5307 31.449C18.0662 31.449 17.6895 31.0723 17.6895 30.6077V28.046C17.6895 27.5814 18.0662 27.2047 18.5307 27.2047C21.0547 27.2047 22.3198 24.148 20.5357 22.364C20.2074 22.0356 20.2074 21.5031 20.5357 21.1747L22.3485 19.3619C22.6769 19.0335 23.2095 19.0335 23.5378 19.3619C25.3219 21.1459 28.3785 19.8809 28.3785 17.3569C28.3785 16.8924 28.7553 16.5156 29.2198 16.5156H31.7816C32.2461 16.5156 32.6228 16.8924 32.6228 17.3569C32.6228 19.8809 35.6795 21.1459 37.4636 19.3619C37.7919 19.0335 38.326 19.0335 38.6544 19.3619L40.4657 21.1747C40.794 21.5031 40.794 22.0356 40.4657 22.364C38.6816 24.148 39.9482 27.2047 42.4706 27.2047C42.9367 27.2047 43.3119 27.5814 43.3119 28.046V30.6077C43.3119 31.0723 42.9367 31.449 42.4706 31.449Z" fill="#FDCD56"/>
<path fill-rule="evenodd" clip-rule="evenodd" d="M30.5013 35.4831C33.8907 35.4831 36.6568 32.717 36.6568 29.3276C36.6568 25.9366 33.8907 23.172 30.5013 23.172C27.1103 23.172 24.3457 25.9366 24.3457 29.3276C24.3457 32.717 27.1103 35.4831 30.5013 35.4831Z" fill="#F4F6F8"/>
<path fill-rule="evenodd" clip-rule="evenodd" d="M5.17895 13.6973C4.84592 13.7839 4.49659 13.83 4.13664 13.83C1.85359 13.83 0 11.9764 0 9.69332C0 7.41026 1.85359 5.55668 4.13664 5.55668C6.41969 5.55668 8.27328 7.41026 8.27328 9.69332C8.27328 10.9978 7.6681 12.1621 6.72346 12.9205L7.93383 15.25H12.534V5.16598C12.534 2.3243 14.8589 0 17.6965 0H43.3C46.1416 0 48.466 2.32454 48.466 5.16598V15.25H53.0662L54.2765 12.9205C53.3319 12.1621 52.7267 10.9978 52.7267 9.69332C52.7267 7.41026 54.5803 5.55668 56.8634 5.55668C59.1464 5.55668 61 7.41026 61 9.69332C61 11.9764 59.1464 13.83 56.8634 13.83C56.5034 13.83 56.1541 13.7839 55.821 13.6973L54.3582 16.513C54.2094 16.7992 53.9136 16.9787 53.5911 16.9787H48.466V28.4626H52.8174C53.2152 26.5938 54.8767 25.1903 56.8634 25.1903C59.1464 25.1903 61 27.0439 61 29.3269C61 31.61 59.1464 33.4636 56.8634 33.4636C54.8767 33.4636 53.2152 32.0601 52.8174 30.1913H48.466V41.6751H53.5911C53.9136 41.6751 54.2094 41.8546 54.3582 42.1409L55.8495 45.011C56.174 44.9291 56.5135 44.8856 56.8634 44.8856C59.1464 44.8856 61 46.7392 61 49.0223C61 51.3053 59.1464 53.1589 56.8634 53.1589C54.5803 53.1589 52.7267 51.3053 52.7267 49.0223C52.7267 47.7073 53.3415 46.5348 54.2993 45.7769L53.0662 43.4038H48.466V55.834C48.466 58.6755 46.1416 61 43.3 61H17.6965C14.8589 61 12.534 58.6757 12.534 55.834V43.4038H7.93383L6.70074 45.7769C7.65846 46.5348 8.27328 47.7073 8.27328 49.0223C8.27328 51.3053 6.41969 53.1589 4.13664 53.1589C1.85359 53.1589 0 51.3053 0 49.0223C0 46.7392 1.85359 44.8856 4.13664 44.8856C4.48646 44.8856 4.82604 44.9291 5.15055 45.011L6.64184 42.1409C6.79063 41.8546 7.08637 41.6751 7.40891 41.6751H12.534V30.1913H8.18264C7.78479 32.0601 6.12334 33.4636 4.13664 33.4636C1.85359 33.4636 0 31.61 0 29.3269C0 27.0439 1.85359 25.1903 4.13664 25.1903C6.12334 25.1903 7.78479 26.5938 8.18264 28.4626H12.534V16.9787H7.40891C7.08637 16.9787 6.79063 16.7992 6.64184 16.513L5.17895 13.6973ZM46.7372 55.834V5.16598C46.7372 3.27535 45.1906 1.72874 43.3 1.72874H17.6965C15.8089 1.72874 14.2628 3.2756 14.2628 5.16598V55.834C14.2628 57.7244 15.8089 59.2713 17.6965 59.2713H43.3C45.1906 59.2713 46.7372 57.7246 46.7372 55.834ZM54.4555 29.3269C54.4555 30.6558 55.5345 31.7348 56.8634 31.7348C58.1923 31.7348 59.2713 30.6558 59.2713 29.3269C59.2713 27.998 58.1923 26.919 56.8634 26.919C55.5345 26.919 54.4555 27.998 54.4555 29.3269ZM6.54453 29.3269C6.54453 27.998 5.46555 26.919 4.13664 26.919C2.80773 26.919 1.72874 27.998 1.72874 29.3269C1.72874 30.6558 2.80773 31.7348 4.13664 31.7348C5.46555 31.7348 6.54453 30.6558 6.54453 29.3269ZM42.47 32.3135C40.7164 32.3135 39.836 34.4383 41.0762 35.6786C41.7415 36.344 41.7415 37.4265 41.0762 38.0918L39.2649 39.9031C38.5995 40.5685 37.5171 40.5685 36.8517 39.9031C35.6114 38.6629 33.4865 39.5433 33.4865 41.2969C33.4865 42.2418 32.7227 43.0025 31.7809 43.0025H29.2191C28.2773 43.0025 27.5135 42.2418 27.5135 41.2969C27.5135 39.5412 25.3896 38.6619 24.1483 39.9031C23.4825 40.569 22.4024 40.569 21.7369 39.9034L19.9238 38.0918C19.2585 37.4265 19.2585 36.344 19.9238 35.6786C21.164 34.4383 20.2846 32.3135 18.53 32.3135C17.5883 32.3135 16.8244 31.5496 16.8244 30.6078V28.046C16.8244 27.1042 17.5883 26.3404 18.53 26.3404C20.2846 26.3404 21.164 24.2155 19.9238 22.9753C19.258 22.3095 19.258 21.2294 19.9238 20.5635L21.7366 18.7507C22.4024 18.0849 23.4825 18.0849 24.1483 18.7507C25.3886 19.991 27.5135 19.1115 27.5135 17.357C27.5135 16.4152 28.2773 15.6513 29.2191 15.6513H31.7809C32.7227 15.6513 33.4865 16.4152 33.4865 17.357C33.4865 19.1115 35.6114 19.991 36.8517 18.7507C37.5171 18.0854 38.5995 18.0854 39.2649 18.7507L41.0762 20.5635C41.742 21.2294 41.742 22.3095 41.0762 22.9753C39.836 24.2155 40.7164 26.3404 42.47 26.3404C43.4148 26.3404 44.1756 27.1042 44.1756 28.046V30.6078C44.1756 31.5496 43.4148 32.3135 42.47 32.3135ZM18.5531 28.069V30.5848C21.8237 30.6034 23.4612 34.5606 21.1619 36.8851L22.9425 38.6642C25.2692 36.364 29.2236 38.0016 29.2421 41.2738H31.7579C31.7764 38.0052 35.7337 36.3658 38.0582 38.665L39.8381 36.8851C37.5388 34.5606 39.1783 30.6034 42.4469 30.5848V28.069C39.1785 28.0505 37.5391 24.0941 39.8373 21.7695L38.0582 19.9889C35.7337 22.2881 31.7764 20.6506 31.7579 17.3801H29.2421C29.2236 20.6502 25.2672 22.2878 22.9425 19.9896L21.1627 21.7695C23.4609 24.0941 21.8233 28.0505 18.5531 28.069ZM30.5007 36.3476C26.6335 36.3476 23.4808 33.1931 23.4808 29.3277C23.4808 25.4605 26.6335 22.3077 30.5007 22.3077C34.3662 22.3077 37.5207 25.4605 37.5207 29.3277C37.5207 33.1931 34.3662 36.3476 30.5007 36.3476ZM30.5007 34.6189C33.4143 34.6189 35.7919 32.2412 35.7919 29.3277C35.7919 26.4129 33.4143 24.0365 30.5007 24.0365C27.586 24.0365 25.2095 26.4129 25.2095 29.3277C25.2095 32.2412 27.586 34.6189 30.5007 34.6189ZM28.1619 55.0322C27.6849 55.0322 27.2975 54.645 27.2975 54.1679C27.2975 53.6909 27.6849 53.3035 28.1619 53.3035H32.8381C33.3151 53.3035 33.7025 53.6909 33.7025 54.1679C33.7025 54.645 33.3151 55.0322 32.8381 55.0322H28.1619ZM4.13664 46.6144C2.80773 46.6144 1.72874 47.6934 1.72874 49.0223C1.72874 50.3512 2.80773 51.4302 4.13664 51.4302C5.46555 51.4302 6.54453 50.3512 6.54453 49.0223C6.54453 47.6934 5.46555 46.6144 4.13664 46.6144ZM56.8634 7.28543C55.5345 7.28543 54.4555 8.36441 54.4555 9.69332C54.4555 11.0222 55.5345 12.1012 56.8634 12.1012C58.1923 12.1012 59.2713 11.0222 59.2713 9.69332C59.2713 8.36441 58.1923 7.28543 56.8634 7.28543ZM56.8634 46.6144C55.5345 46.6144 54.4555 47.6934 54.4555 49.0223C54.4555 50.3512 55.5345 51.4302 56.8634 51.4302C58.1923 51.4302 59.2713 50.3512 59.2713 49.0223C59.2713 47.6934 58.1923 46.6144 56.8634 46.6144ZM4.13664 7.28543C2.80773 7.28543 1.72874 8.36441 1.72874 9.69332C1.72874 11.0222 2.80773 12.1012 4.13664 12.1012C5.46555 12.1012 6.54453 11.0222 6.54453 9.69332C6.54453 8.36441 5.46555 7.28543 4.13664 7.28543Z" fill="black"/>
</svg>
