<svg width="437" height="302" viewBox="0 0 437 302" fill="none" xmlns="http://www.w3.org/2000/svg">
<rect width="437" height="302" rx="20" fill="url(#paint0_linear_1165_680)"/>
<path d="M308.307 201.432C331.266 178.474 331.266 141.251 308.307 118.292C285.349 95.3337 248.126 95.3338 225.168 118.292C202.209 141.251 202.209 178.474 225.168 201.432C248.126 224.39 285.349 224.39 308.307 201.432Z" fill="#CFD9FF"/>
<path d="M227.702 248.248C250.66 225.29 250.66 188.067 227.702 165.108C204.743 142.15 167.52 142.15 144.562 165.108C121.604 188.067 121.604 225.29 144.562 248.248C167.52 271.207 204.743 271.207 227.702 248.248Z" fill="#CFD9FF"/>
<path d="M223.421 106.427C223.421 143.116 193.683 172.847 157.002 172.847C120.312 172.847 90.582 143.109 90.582 106.427C90.582 97.7677 92.2379 89.496 95.2512 81.9105C96.907 77.7411 98.9805 73.7806 101.412 70.0662C101.412 70.0662 101.412 70.0587 101.419 70.0587C102.896 67.7838 104.522 65.6208 106.268 63.5547L106.275 63.5473C107.916 61.608 109.654 59.7732 111.511 58.0279C112.093 57.4759 112.69 56.9314 113.301 56.4019C124.989 46.1835 140.272 40.0002 157.002 40.0002C175.052 40.0002 191.431 47.1979 203.402 58.9005C203.656 59.1467 203.917 59.3928 204.163 59.6538C205.073 60.5638 205.945 61.4961 206.773 62.4508C208.713 64.6288 210.495 66.9335 212.129 69.3501C212.524 69.9319 212.912 70.5286 213.285 71.1327C219.714 81.3586 223.421 93.464 223.421 106.427Z" fill="#B8C7FF"/>
<path d="M205.48 112.879C205.316 112.379 205.204 111.842 204.883 111.417C204.562 110.992 203.951 110.731 203.496 111.007C202.944 113.118 204.637 115.094 205.204 117.205C205.592 118.637 205.443 120.159 205.562 121.635C205.704 123.373 206.211 125.081 207.054 126.603C207.262 126.991 207.583 127.408 208.023 127.379C208.612 127.341 208.799 126.566 208.829 125.976C208.888 124.641 208.941 123.306 209 121.971C209.045 120.994 209.067 119.957 208.568 119.122C208.314 118.697 207.941 118.354 207.658 117.943C207.091 117.13 207.255 116.265 206.919 115.415C206.561 114.512 205.801 113.841 205.48 112.879Z" fill="#8FA7FF"/>
<path d="M151.477 89.5479C150.254 94.9927 144.541 99.0204 138.999 98.3491C139.253 100.736 137.977 103.205 135.881 104.376C134.837 104.972 133.606 105.256 132.659 106.009C130.765 107.523 130.63 110.38 131.123 112.752C131.622 115.139 132.585 117.503 132.264 119.912C132.212 120.293 132.122 120.688 131.883 120.986C131.481 121.464 130.794 121.561 130.175 121.628C128.385 121.814 126.491 122.09 125.133 123.269C123.149 124.999 123.03 128.012 121.904 130.392C120.36 133.666 116.601 135.754 113.006 135.314C112.036 135.202 111.059 134.912 110.238 134.382C108.187 133.069 107.292 130.533 106.942 128.124C106.584 125.715 106.628 123.216 105.815 120.927C105.002 118.644 103.361 116.638 102.981 114.236C102.481 111.021 104.324 107.941 104.883 104.726C105.278 102.474 105.025 100.117 104.16 98.0061C103.093 95.4254 101.146 92.5239 102.623 90.167C103.339 89.0183 104.764 88.3247 105.107 87.0269C105.413 85.8484 104.652 84.6028 103.623 83.9539C102.593 83.3125 101.348 83.1185 100.132 82.947C98.0434 82.6561 96.0893 82.7232 95.2539 81.9177C96.9097 77.7483 98.9832 73.7877 101.415 70.0733C101.415 70.0733 101.415 70.0659 101.422 70.0659C102.735 68.5517 104.055 67.0376 105.249 65.4266C105.405 65.2177 105.793 64.4868 106.27 63.5619L106.278 63.5544C107.919 61.6152 109.657 59.7803 111.514 58.035C113.043 57.9231 114.564 57.9008 116.093 57.9753C117.361 58.035 118.756 58.2215 119.592 59.1687C120.009 59.6461 120.24 60.2726 120.71 60.6978C122.642 62.4506 126.163 59.4298 128.199 61.0632C128.646 61.4213 128.915 61.9434 129.303 62.3685C131.369 64.6136 135.27 62.913 138.059 64.1586C137.985 65.173 138.044 66.2023 138.223 67.2017C137.239 67.2465 136.269 67.5672 135.464 68.1266C137.865 71.1399 136.195 75.7121 137.589 79.2997C138.537 81.7536 140.856 83.5288 141.624 86.0423C142.05 87.4446 142.109 89.1899 143.37 89.9208C144.086 90.3311 144.966 90.2565 145.786 90.167C147.681 89.9507 149.575 89.7568 151.477 89.5479Z" fill="#8FA7FF"/>
<path d="M204.166 59.6536C203.905 59.4224 203.652 59.1762 203.405 58.9003C191.434 47.1976 175.055 40 157.005 40C140.275 40 124.985 46.1832 113.305 56.4016C114.602 57.1922 116.325 56.8417 117.772 56.1629C119.645 55.2828 121.196 53.8358 123.001 52.8215C124.336 52.0681 125.813 51.5609 127.342 51.3297C126.723 52.3217 127.513 53.5375 128.125 54.5295C128.737 55.5215 128.983 57.1549 127.886 57.5577C128.916 57.8934 129.893 56.7671 130.057 55.693C130.228 54.619 129.96 53.5002 130.236 52.456C130.504 51.3968 131.772 50.4794 132.652 51.1134C133.741 53.0079 133.54 55.5588 132.183 57.2668C132.854 57.2892 133.51 57.3265 134.167 57.3489C134.502 56.7895 134.845 56.2301 135.181 55.6558C137.985 54.537 140.782 53.4107 143.587 52.2844C144.184 52.0532 144.818 51.8071 145.437 51.9488C145.936 52.0532 146.354 52.3963 146.749 52.717C148.36 54.0521 149.972 55.3872 151.59 56.7298C149.255 57.7367 146.608 56.7596 144.146 56.148C141.677 55.529 138.567 55.514 137.172 57.6398C138.575 59.3925 142.655 57.7367 143.02 59.9594C143.281 61.5332 141.021 62.0777 139.79 63.0995C138.12 64.4943 138.381 67.0899 138.791 69.238C139.708 74.0265 140.618 78.8224 141.536 83.6109C141.692 84.394 141.864 85.2443 142.453 85.7962C143.296 86.5869 144.616 86.4899 145.757 86.3333C148.83 85.9156 151.918 85.4904 154.991 85.0728C159.228 84.491 164.143 83.4393 165.963 79.5757C164.18 78.703 162.808 77.0099 162.308 75.0781C158.236 75.8837 153.79 72.9226 152.977 68.8501C154.208 67.6717 156.028 69.3424 157.162 70.6178C159.921 73.7132 164.106 75.0185 168.036 76.3163C170.058 76.9876 172.176 77.7558 173.504 79.4191C174.578 80.7691 174.98 82.5294 175.913 83.9763C176.845 85.4308 178.777 86.557 180.261 85.6844C182.327 88.1159 182.312 91.6215 182.499 94.8063C182.685 97.9986 183.498 101.631 186.325 103.1C186.303 100.646 187.653 98.3343 189.45 96.671C191.248 95.0002 193.478 93.8591 195.656 92.7552C196.924 92.1063 198.207 91.4574 199.475 90.8085C200.31 90.3908 201.354 89.9731 202.13 90.5101C202.615 90.8458 202.809 91.4723 202.958 92.0541C203.584 94.5676 203.913 97.1558 203.942 99.744C204.494 99.7514 205.039 99.7589 205.591 99.7663C206.188 104.309 206.784 108.851 207.381 113.393C207.62 115.236 207.94 117.235 209.32 118.48C208.865 113.632 208.41 108.776 207.963 103.928C210.603 104.115 212.908 106.487 213.027 109.12C214.407 107.322 213.803 104.734 212.893 102.653C211.998 100.572 210.812 98.4014 211.267 96.1787C213.199 96.3876 215.563 96.395 216.57 94.7243C217.256 93.5831 216.965 92.1361 216.585 90.8756C215.585 87.5714 214.071 84.3567 213.863 80.9034C213.706 78.345 214.273 75.7718 213.922 73.2358C213.825 72.5273 213.616 71.8112 213.311 71.1325C213.012 70.4761 212.624 69.8645 212.154 69.3499C211.401 68.507 210.424 67.9402 209.283 67.8731C208.448 68.7606 207.955 69.954 207.91 71.1698C205.524 72.1618 203.047 70.1256 201.265 68.2609C199.795 66.717 198.341 65.1879 196.872 63.6514C196.059 62.7937 195.216 61.4362 196.021 60.5561C196.573 59.9519 197.558 60.0937 198.348 60.31C201.369 61.1379 204.256 62.4431 206.859 64.1736C206.844 63.5992 206.829 63.0175 206.799 62.4431L204.166 59.6536Z" fill="#8FA7FF"/>
<path d="M137.383 124.865C137.263 124.887 137.174 124.991 137.107 125.096C136.577 125.916 136.659 127.11 135.921 127.744C135.637 127.99 135.272 128.109 134.929 128.266C133.706 128.825 132.691 129.922 132.445 131.242C132.206 132.562 132.863 134.061 134.093 134.591C134.474 134.755 134.906 134.829 135.302 134.703C135.57 134.613 135.801 134.442 136.025 134.27C137.196 133.345 138.322 132.226 139.792 131.965C140.441 131.853 141.112 131.921 141.768 131.831C143.126 131.652 144.371 130.772 144.99 129.549C145.528 128.482 145.587 127.169 145.087 126.073C144.841 125.536 144.453 125.044 143.924 124.783C143.394 124.522 142.708 124.544 142.253 124.917C142.074 125.066 141.91 125.275 141.679 125.312C141.358 125.364 141.075 125.066 140.747 125.059C140.06 125.051 139.777 125.782 138.979 125.685C138.457 125.64 138.009 124.738 137.383 124.865Z" fill="#8FA7FF"/>
<path d="M109.873 69.7307C106.949 69.7307 104.562 72.2145 104.562 75.2725C104.562 78.2261 109.463 84.9837 109.672 85.2671C109.731 85.3492 109.821 85.3939 109.918 85.3939C110.015 85.3939 110.112 85.3492 110.171 85.2671C110.373 84.9762 115.176 78.2261 115.176 75.2725C115.184 72.2145 112.804 69.7307 109.873 69.7307ZM107.3 74.9443C107.3 73.5496 108.463 72.4233 109.903 72.4233C111.342 72.4233 112.506 73.5496 112.506 74.9443C112.506 76.3316 111.342 77.4654 109.903 77.4654C108.471 77.4579 107.3 76.3316 107.3 74.9443Z" fill="white"/>
<path d="M153.693 43.2893C150.77 43.2893 148.383 45.773 148.383 48.8311C148.383 51.7847 153.283 58.5423 153.492 58.8257C153.552 58.9078 153.641 58.9525 153.738 58.9525C153.835 58.9525 153.932 58.9078 153.992 58.8257C154.193 58.5348 158.997 51.7847 158.997 48.8311C158.997 45.773 156.617 43.2893 153.693 43.2893ZM151.12 48.5029C151.12 47.1082 152.284 45.9819 153.723 45.9819C155.163 45.9819 156.326 47.1082 156.326 48.5029C156.326 49.8902 155.163 51.024 153.723 51.024C152.284 51.024 151.12 49.8902 151.12 48.5029Z" fill="white"/>
<path d="M144.168 83.1782C141.244 83.1782 138.857 85.662 138.857 88.72C138.857 91.6736 143.758 98.4312 143.967 98.7146C144.026 98.7967 144.116 98.8414 144.213 98.8414C144.31 98.8414 144.407 98.7967 144.466 98.7146C144.668 98.4238 149.471 91.6736 149.471 88.72C149.471 85.662 147.092 83.1782 144.168 83.1782ZM141.595 88.3918C141.595 86.9971 142.758 85.8708 144.198 85.8708C145.637 85.8708 146.801 86.9971 146.801 88.3918C146.801 89.7866 145.637 90.9129 144.198 90.9129C142.758 90.9129 141.595 89.7792 141.595 88.3918Z" fill="white"/>
<path d="M189.145 58.7439C186.221 58.7439 183.834 61.2276 183.834 64.2857C183.834 67.2393 188.734 73.9969 188.943 74.2803C189.003 74.3624 189.092 74.4071 189.189 74.4071C189.286 74.4071 189.383 74.3624 189.443 74.2803C189.644 73.9894 194.448 67.2393 194.448 64.2857C194.455 61.2276 192.076 58.7439 189.145 58.7439ZM186.571 63.9575C186.571 62.5627 187.735 61.4365 189.174 61.4365C190.614 61.4365 191.777 62.5627 191.777 63.9575C191.777 65.3523 190.614 66.4785 189.174 66.4785C187.742 66.4785 186.571 65.3448 186.571 63.9575Z" fill="white"/>
<path d="M144.205 97.7003C144.078 97.7003 143.951 97.6406 143.877 97.5287C143.877 97.5213 143.63 97.1856 143.183 96.6113C143.041 96.4323 143.078 96.1787 143.25 96.0444C143.429 95.9102 143.683 95.94 143.817 96.1116C144.287 96.7083 144.533 97.0588 144.533 97.0588C144.66 97.2453 144.622 97.4914 144.436 97.6257C144.369 97.6779 144.287 97.7003 144.205 97.7003Z" fill="white"/>
<path d="M138.497 91.2854C138.4 91.2854 138.295 91.2481 138.221 91.1736C137.617 90.5992 137.005 90.0473 136.393 89.5326C136.222 89.3909 136.2 89.1299 136.349 88.9583C136.49 88.7868 136.751 88.7644 136.923 88.9136C137.542 89.4431 138.169 90.0025 138.788 90.5843C138.952 90.7409 138.959 90.9945 138.803 91.1586C138.706 91.2407 138.601 91.2854 138.497 91.2854ZM134.708 88.0857C134.626 88.0857 134.536 88.0558 134.469 88.0036C133.805 87.5039 133.127 87.034 132.455 86.6014C132.269 86.482 132.209 86.2285 132.336 86.042C132.455 85.8555 132.709 85.7958 132.895 85.9226C133.582 86.3627 134.268 86.8401 134.954 87.3547C135.133 87.489 135.17 87.7426 135.036 87.9216C134.954 88.026 134.835 88.0857 134.708 88.0857ZM130.538 85.4155C130.471 85.4155 130.412 85.4005 130.352 85.3707C129.614 84.9754 128.875 84.6323 128.144 84.334C127.935 84.2519 127.838 84.0132 127.92 83.8044C128.002 83.5955 128.241 83.4986 128.45 83.5806C129.203 83.8864 129.964 84.2519 130.725 84.6547C130.919 84.7591 131.001 85.0052 130.889 85.1992C130.829 85.3334 130.688 85.4155 130.538 85.4155ZM113.734 83.6478C113.562 83.6478 113.398 83.5359 113.346 83.3569C113.279 83.1406 113.406 82.9168 113.615 82.8497C114.413 82.611 115.241 82.4096 116.069 82.2604C116.292 82.2231 116.501 82.3649 116.539 82.5886C116.576 82.8049 116.434 83.0212 116.21 83.0585C115.412 83.2002 114.614 83.3942 113.846 83.6254C113.816 83.6478 113.779 83.6478 113.734 83.6478ZM125.959 83.5433C125.922 83.5433 125.884 83.5359 125.847 83.5284C125.071 83.3047 124.273 83.1256 123.475 82.9989C123.251 82.9616 123.102 82.7527 123.139 82.5364C123.177 82.3127 123.386 82.1635 123.602 82.2008C124.43 82.335 125.258 82.5215 126.063 82.7527C126.28 82.8124 126.406 83.0361 126.339 83.2524C126.302 83.4315 126.138 83.5433 125.959 83.5433ZM118.605 82.7676C118.396 82.7676 118.217 82.6035 118.202 82.3872C118.187 82.1635 118.358 81.9696 118.582 81.9546C119.38 81.9024 120.231 81.8875 121.103 81.9323C121.327 81.9397 121.499 82.1336 121.491 82.3574C121.484 82.5812 121.29 82.7527 121.066 82.7453C120.216 82.708 119.41 82.7154 118.634 82.7676C118.619 82.7676 118.612 82.7676 118.605 82.7676Z" fill="white"/>
<path d="M111.169 81.6266C111.131 81.6266 111.094 81.6191 111.057 81.6117C110.841 81.552 110.721 81.3208 110.781 81.1119C110.997 80.3735 111.236 79.6277 111.497 78.8818C111.572 78.6729 111.803 78.5611 112.012 78.6356C112.22 78.7102 112.332 78.9415 112.258 79.1503C112.004 79.8812 111.765 80.6197 111.549 81.3431C111.504 81.5147 111.348 81.6266 111.169 81.6266ZM112.705 77.2409C112.653 77.2409 112.601 77.2334 112.556 77.211C112.347 77.129 112.25 76.8903 112.332 76.6815C112.623 75.958 112.944 75.2345 113.272 74.5334C113.369 74.332 113.608 74.2425 113.809 74.3395C114.011 74.4364 114.1 74.6751 114.003 74.8765C113.682 75.5701 113.369 76.2787 113.086 76.9873C113.019 77.1439 112.869 77.2409 112.705 77.2409ZM114.667 73.0267C114.6 73.0267 114.54 73.0118 114.48 72.982C114.279 72.8776 114.204 72.6314 114.309 72.4375C114.674 71.7438 115.062 71.0576 115.45 70.3938C115.562 70.1999 115.816 70.1402 116.002 70.2521C116.196 70.364 116.256 70.6176 116.144 70.804C115.756 71.4604 115.375 72.1317 115.017 72.8179C114.95 72.9521 114.809 73.0267 114.667 73.0267ZM117.039 69.0363C116.964 69.0363 116.882 69.014 116.815 68.9692C116.629 68.8424 116.576 68.5963 116.703 68.4098C117.136 67.7609 117.591 67.1195 118.053 66.4929C118.187 66.3139 118.441 66.2766 118.62 66.4109C118.799 66.5451 118.836 66.7987 118.702 66.9777C118.247 67.5894 117.8 68.2233 117.374 68.8573C117.3 68.9692 117.166 69.0363 117.039 69.0363ZM119.813 65.3145C119.724 65.3145 119.627 65.2846 119.552 65.2175C119.381 65.0758 119.358 64.8147 119.5 64.6432C120 64.0465 120.522 63.4498 121.052 62.8829C121.201 62.7188 121.462 62.7114 121.626 62.8606C121.79 63.0172 121.797 63.2708 121.648 63.4349C121.126 63.9868 120.619 64.5686 120.127 65.1578C120.045 65.2622 119.933 65.3145 119.813 65.3145ZM122.991 61.9208C122.886 61.9208 122.774 61.876 122.7 61.794C122.543 61.6299 122.551 61.3763 122.715 61.2196C123.282 60.6826 123.863 60.1531 124.46 59.6533C124.632 59.5116 124.885 59.5265 125.034 59.6981C125.176 59.8696 125.154 60.1232 124.99 60.2724C124.408 60.7647 123.834 61.2793 123.282 61.8089C123.192 61.8835 123.088 61.9208 122.991 61.9208ZM126.534 58.9224C126.407 58.9224 126.288 58.8627 126.205 58.7583C126.071 58.5793 126.109 58.3257 126.288 58.1914C126.728 57.8632 127.175 57.5425 127.638 57.2293C127.831 57.095 128.018 56.9682 128.212 56.8414C128.398 56.7221 128.652 56.7743 128.771 56.9607C128.891 57.1472 128.846 57.4008 128.652 57.5201C128.465 57.6395 128.279 57.7663 128.093 57.8931C127.645 58.2063 127.205 58.5196 126.772 58.8403C126.705 58.9 126.623 58.9224 126.534 58.9224ZM130.412 56.3715C130.27 56.3715 130.136 56.2969 130.062 56.1701C129.95 55.9762 130.017 55.7301 130.211 55.6182C130.904 55.2229 131.606 54.8574 132.292 54.5218C132.493 54.4248 132.739 54.5068 132.836 54.7082C132.933 54.9096 132.851 55.1557 132.65 55.2527C131.978 55.5734 131.292 55.9389 130.621 56.3193C130.554 56.3491 130.479 56.3715 130.412 56.3715ZM134.596 54.3577C134.432 54.3577 134.283 54.2607 134.216 54.0966C134.134 53.8878 134.238 53.6566 134.447 53.5745C135.186 53.2836 135.939 53.03 136.677 52.8137C136.894 52.7541 137.118 52.8734 137.177 53.0897C137.237 53.306 137.118 53.5298 136.901 53.5894C136.178 53.8057 135.454 54.0519 134.738 54.3278C134.701 54.3502 134.649 54.3577 134.596 54.3577ZM150.513 53.7162C150.469 53.7162 150.424 53.7088 150.379 53.6938C149.67 53.4552 148.932 53.2463 148.186 53.0822C147.97 53.0375 147.828 52.8212 147.88 52.5974C147.925 52.3811 148.141 52.2394 148.365 52.2916C149.141 52.4632 149.909 52.6795 150.648 52.9256C150.856 53.0002 150.968 53.2314 150.901 53.4403C150.841 53.6118 150.685 53.7162 150.513 53.7162ZM139.049 53.0524C138.863 53.0524 138.691 52.9181 138.654 52.7242C138.609 52.5079 138.751 52.2916 138.975 52.2469C139.75 52.0902 140.541 51.9784 141.309 51.8963C141.533 51.8814 141.727 52.038 141.749 52.2618C141.772 52.4855 141.608 52.6795 141.384 52.7018C140.638 52.7764 139.877 52.8883 139.124 53.0375C139.102 53.0449 139.079 53.0524 139.049 53.0524ZM145.986 52.7168C145.971 52.7168 145.956 52.7168 145.941 52.7168C145.195 52.6347 144.427 52.5974 143.666 52.59C143.442 52.59 143.263 52.411 143.263 52.1872C143.263 51.9634 143.442 51.7844 143.666 51.7844C144.457 51.7844 145.255 51.8292 146.031 51.9112C146.254 51.9336 146.411 52.135 146.389 52.3587C146.366 52.5676 146.187 52.7168 145.986 52.7168Z" fill="white"/>
<path d="M153.701 55.1782C153.619 55.1782 153.544 55.1558 153.477 55.111C153.477 55.111 153.134 54.8798 152.508 54.5665C152.306 54.4696 152.224 54.2234 152.329 54.0221C152.426 53.8207 152.672 53.7386 152.873 53.843C153.246 54.0295 153.522 54.1861 153.701 54.2906C153.873 54.1712 154.141 53.9997 154.499 53.7983C154.693 53.6864 154.939 53.7535 155.051 53.9475C155.163 54.1414 155.096 54.3875 154.902 54.4994C154.29 54.85 153.962 55.0961 153.962 55.0961C153.873 55.1558 153.783 55.1782 153.701 55.1782Z" fill="white"/>
<path d="M188.726 71.2296C188.562 71.2296 188.405 71.1326 188.346 70.9685C188.062 70.2226 187.764 69.4768 187.443 68.7458C187.354 68.5445 187.443 68.2983 187.652 68.2088C187.861 68.1193 188.1 68.2163 188.189 68.4177C188.51 69.1561 188.823 69.9168 189.106 70.6776C189.181 70.8865 189.077 71.1177 188.868 71.1997C188.823 71.2221 188.771 71.2296 188.726 71.2296ZM186.787 66.7991C186.638 66.7991 186.496 66.7171 186.429 66.5754C186.063 65.8519 185.675 65.1433 185.28 64.472C185.168 64.2781 185.228 64.032 185.422 63.9201C185.616 63.8082 185.862 63.8753 185.974 64.0618C186.377 64.748 186.772 65.4715 187.145 66.2024C187.249 66.4038 187.167 66.6425 186.966 66.7469C186.906 66.7842 186.846 66.7991 186.787 66.7991ZM184.333 62.6297C184.206 62.6297 184.079 62.5701 183.997 62.4507C183.542 61.7794 183.065 61.138 182.58 60.5338C182.438 60.3623 182.468 60.1012 182.64 59.967C182.819 59.8253 183.072 59.8551 183.207 60.0266C183.706 60.6457 184.191 61.3095 184.661 61.9957C184.788 62.1822 184.743 62.4358 184.557 62.5551C184.49 62.6073 184.407 62.6297 184.333 62.6297ZM181.305 58.8631C181.2 58.8631 181.088 58.8183 181.014 58.7363C180.462 58.1545 179.88 57.6026 179.291 57.0954C179.119 56.9462 179.104 56.6926 179.246 56.5211C179.395 56.3495 179.649 56.3346 179.82 56.4763C180.425 56.9984 181.029 57.5727 181.596 58.1694C181.752 58.3335 181.745 58.5871 181.581 58.7438C181.506 58.8258 181.402 58.8631 181.305 58.8631ZM177.642 55.723C177.56 55.723 177.486 55.7006 177.411 55.6484C176.755 55.1934 176.076 54.7832 175.382 54.4252C175.181 54.3208 175.106 54.0746 175.211 53.8807C175.315 53.6793 175.561 53.6047 175.755 53.7091C176.471 54.0821 177.18 54.5147 177.866 54.9846C178.053 55.1114 178.097 55.365 177.971 55.5514C177.903 55.6559 177.777 55.723 177.642 55.723ZM156.855 53.5003C156.698 53.5003 156.542 53.4033 156.482 53.2467C156.4 53.0379 156.497 52.8066 156.706 52.7171C157.459 52.4113 158.242 52.1354 159.033 51.9116C159.249 51.8519 159.473 51.9787 159.533 52.195C159.592 52.4113 159.466 52.6351 159.249 52.6948C158.489 52.9111 157.735 53.1721 157.012 53.4705C156.96 53.4854 156.907 53.5003 156.855 53.5003ZM173.376 53.4854C173.331 53.4854 173.279 53.4779 173.234 53.4556C172.481 53.1721 171.72 52.926 170.974 52.7171C170.758 52.6575 170.631 52.4337 170.691 52.2174C170.751 52.0011 170.974 51.8743 171.191 51.934C171.966 52.1428 172.75 52.4039 173.525 52.6948C173.734 52.7768 173.839 53.008 173.764 53.2169C173.689 53.3884 173.54 53.4854 173.376 53.4854ZM168.714 52.2174C168.692 52.2174 168.67 52.2174 168.647 52.21C167.864 52.0757 167.074 51.9862 166.29 51.9414C166.067 51.9265 165.895 51.7326 165.91 51.5163C165.925 51.2925 166.119 51.1359 166.335 51.1359C167.148 51.1881 167.969 51.2776 168.782 51.4119C169.005 51.4492 169.154 51.658 169.117 51.8818C169.08 52.0757 168.908 52.2174 168.714 52.2174ZM161.494 52.1876C161.3 52.1876 161.129 52.0459 161.092 51.8445C161.054 51.6207 161.204 51.4119 161.427 51.382C162.233 51.2478 163.053 51.1657 163.874 51.121C164.083 51.1061 164.284 51.2851 164.299 51.5088C164.306 51.7326 164.135 51.9191 163.911 51.934C163.12 51.9713 162.33 52.0608 161.554 52.1876C161.539 52.1801 161.517 52.1876 161.494 52.1876Z" fill="white"/>
<path d="M189.827 74.6527C189.648 74.6527 189.476 74.5259 189.432 74.3469C189.432 74.3394 189.335 73.9367 189.118 73.2505C189.051 73.0342 189.17 72.8104 189.387 72.7433C189.603 72.6762 189.827 72.7955 189.894 73.0118C190.118 73.7353 190.215 74.153 190.215 74.153C190.267 74.3693 190.133 74.593 189.916 74.6453C189.887 74.6453 189.857 74.6527 189.827 74.6527Z" fill="white"/>
<path d="M274.523 151.217C274.523 149.195 276.164 147.554 278.186 147.554C280.207 147.554 281.848 149.195 281.848 151.217C281.848 153.238 280.207 154.879 278.186 154.879C276.164 154.879 274.523 153.238 274.523 151.217Z" fill="white"/>
<path d="M308.649 138.977C307.188 138.977 305.994 137.783 305.994 136.322C305.994 134.86 307.188 133.666 308.649 133.666C310.111 133.666 311.305 134.86 311.305 136.322C311.305 137.783 310.111 138.977 308.649 138.977ZM308.649 134.472C307.628 134.472 306.8 135.3 306.8 136.322C306.8 137.343 307.628 138.171 308.649 138.171C309.671 138.171 310.499 137.343 310.499 136.322C310.492 135.3 309.664 134.472 308.649 134.472Z" fill="white"/>
<path d="M335.154 147.636L338.712 157.005L344.276 152.932L335.154 147.636Z" fill="#ABBDFF"/>
<path d="M348.983 149.486L335.154 147.636L345.761 151.813L348.983 149.486Z" fill="#ABBDFF"/>
<path d="M345.775 155.438L344.276 152.932L335.154 147.636L345.79 151.791L345.775 155.438Z" fill="#96ADFF"/>
<path d="M342.807 154.006L345.775 155.438L344.276 152.932L342.807 154.006Z" fill="#7593FF"/>
<path d="M348.549 210.863L348.004 210.267C348.549 209.774 349.079 209.215 349.593 208.618L350.212 209.14C349.675 209.774 349.116 210.349 348.549 210.863ZM351.652 207.253L350.98 206.798C351.398 206.187 351.808 205.53 352.196 204.844L352.905 205.247C352.502 205.948 352.077 206.627 351.652 207.253ZM353.994 203.136L353.255 202.801C353.591 202.099 353.904 201.391 354.195 200.675L354.949 200.981C354.65 201.712 354.329 202.435 353.994 203.136ZM355.769 198.765L355.001 198.504C355.247 197.781 355.478 197.035 355.679 196.289L356.463 196.505C356.254 197.266 356.023 198.027 355.769 198.765ZM357.022 194.216L356.231 194.044C356.388 193.298 356.537 192.53 356.657 191.769L357.455 191.896C357.328 192.679 357.186 193.455 357.022 194.216ZM357.753 189.554L356.947 189.472L356.985 189.054C357.044 188.428 357.082 187.794 357.112 187.167L357.917 187.204C357.887 187.846 357.842 188.487 357.783 189.129L357.753 189.554ZM357.164 184.848C357.156 184.072 357.134 183.296 357.082 182.535L357.887 182.483C357.932 183.259 357.962 184.049 357.969 184.84L357.164 184.848ZM356.88 180.223C356.791 179.462 356.686 178.694 356.56 177.926L357.358 177.792C357.492 178.567 357.596 179.358 357.686 180.126L356.88 180.223ZM356.119 175.658C355.948 174.905 355.761 174.144 355.56 173.413L356.343 173.197C356.552 173.943 356.746 174.719 356.918 175.487L356.119 175.658ZM354.874 171.198C354.628 170.467 354.359 169.736 354.076 169.028L354.829 168.729C355.12 169.453 355.396 170.199 355.642 170.945L354.874 171.198ZM353.158 166.895C352.83 166.193 352.487 165.5 352.129 164.821L352.845 164.441C353.211 165.127 353.569 165.843 353.897 166.551L353.158 166.895ZM350.98 162.815C350.578 162.151 350.153 161.502 349.72 160.875L350.384 160.413C350.824 161.047 351.256 161.718 351.674 162.389L350.98 162.815ZM348.348 159.011C347.87 158.407 347.378 157.81 346.863 157.236L347.467 156.698C347.99 157.288 348.497 157.892 348.982 158.511L348.348 159.011Z" fill="#5572D9"/>
<path d="M69.8538 189.009C69.369 188.435 68.8842 187.809 68.3994 187.145L69.0483 186.667C69.5256 187.316 70.003 187.928 70.4729 188.487L69.8538 189.009ZM67.0419 185.213C66.6242 184.579 66.2065 183.915 65.7888 183.214L66.4825 182.796C66.8927 183.483 67.3029 184.139 67.7132 184.765L67.0419 185.213ZM64.6253 181.163C64.2598 180.484 63.9018 179.791 63.5438 179.067L64.2747 178.709C64.6253 179.418 64.9758 180.111 65.3338 180.775L64.6253 181.163ZM62.5592 176.934C62.246 176.225 61.9476 175.502 61.6567 174.756L62.41 174.458C62.6935 175.189 62.9918 175.905 63.2976 176.606L62.5592 176.934ZM60.8437 172.541C60.5901 171.802 60.3515 171.056 60.1277 170.296L60.9034 170.064C61.1272 170.818 61.3584 171.549 61.6045 172.28L60.8437 172.541ZM59.5161 168.021C59.3296 167.253 59.1581 166.477 59.0089 165.716L59.807 165.559C59.9561 166.305 60.1202 167.074 60.3067 167.827L59.5161 168.021ZM58.621 163.389C58.5092 162.606 58.4197 161.823 58.3451 161.047L59.1506 160.972C59.2177 161.733 59.3072 162.509 59.4191 163.277L58.621 163.389ZM59.0089 158.668L58.1959 158.697C58.1661 157.907 58.1586 157.116 58.181 156.34L58.994 156.355C58.9716 157.116 58.9791 157.892 59.0089 158.668ZM59.1059 154.043L58.3003 153.976C58.36 153.193 58.4495 152.402 58.5614 151.627L59.3595 151.738C59.255 152.499 59.1655 153.275 59.1059 154.043ZM59.7548 149.464L58.9641 149.299C59.1208 148.531 59.3072 147.763 59.5086 147.002L60.2918 147.211C60.0829 147.957 59.9039 148.71 59.7548 149.464ZM60.9631 145.003L60.1948 144.742C60.4484 143.996 60.7244 143.258 61.0227 142.527L61.7686 142.833C61.4777 143.549 61.2092 144.28 60.9631 145.003ZM62.7159 140.722L61.9849 140.371C62.328 139.648 62.686 138.947 63.0515 138.268L63.7675 138.649C63.4095 139.327 63.059 140.013 62.7159 140.722ZM64.9012 136.635L64.2076 136.217C64.6104 135.538 65.0355 134.867 65.4681 134.226L66.1394 134.673C65.7142 135.314 65.2966 135.971 64.9012 136.635ZM67.4745 132.786L66.8256 132.301C67.3029 131.667 67.7952 131.041 68.2875 130.451L68.9065 130.974C68.4217 131.548 67.9369 132.159 67.4745 132.786ZM70.443 129.236L69.8538 128.684C70.3908 128.109 70.9502 127.55 71.5245 127.013L72.0765 127.602C71.5171 128.124 70.9651 128.676 70.443 129.236ZM73.7994 126.066L73.2848 125.447C73.8889 124.939 74.5155 124.455 75.1495 123.992L75.6268 124.649C75.0077 125.096 74.3961 125.573 73.7994 126.066ZM77.5288 123.343L77.0962 122.657C77.76 122.232 78.4387 121.829 79.1249 121.449L79.5128 122.157C78.849 122.53 78.1777 122.933 77.5288 123.343ZM81.5788 121.113L81.2357 120.382C81.9443 120.047 82.6753 119.733 83.4062 119.442L83.7045 120.196C82.9885 120.479 82.2725 120.792 81.5788 121.113ZM85.875 119.413L85.6214 118.644C86.3673 118.398 87.1281 118.174 87.8889 117.981L88.0977 118.764C87.3518 118.95 86.606 119.174 85.875 119.413ZM90.3502 118.234L90.1936 117.444C90.9618 117.287 91.745 117.153 92.5207 117.041L92.6326 117.846C91.8718 117.951 91.1036 118.085 90.3502 118.234ZM101.874 117.555C101.113 117.496 100.337 117.458 99.5617 117.436L99.5766 116.623C100.367 116.638 101.158 116.683 101.934 116.742L101.874 117.555ZM94.9373 117.585L94.8627 116.772C95.5489 116.713 96.2202 116.668 96.8766 116.645L97.2197 116.631L97.2495 117.444L96.9064 117.458C96.265 117.481 95.6086 117.526 94.9373 117.585Z" fill="#5572D9"/>
<path d="M233.214 70.7372C233.087 69.9839 232.93 69.2231 232.751 68.4772L233.542 68.2833C233.728 69.0516 233.885 69.8273 234.012 70.603L233.214 70.7372ZM232.125 66.2546C231.893 65.5236 231.625 64.7927 231.341 64.0841L232.095 63.7857C232.386 64.5167 232.654 65.2626 232.893 66.0084L232.125 66.2546ZM230.409 61.9733C230.073 61.2871 229.715 60.6009 229.335 59.9296L230.036 59.5268C230.432 60.213 230.797 60.9141 231.14 61.6153L230.409 61.9733ZM228.112 57.9605C227.687 57.3265 227.232 56.6925 226.762 56.0884L227.403 55.5887C227.888 56.2077 228.351 56.8566 228.783 57.5055L228.112 57.9605ZM225.285 54.3132C224.77 53.7389 224.233 53.1795 223.689 52.6425L224.256 52.0607C224.815 52.6052 225.367 53.1795 225.889 53.7687L225.285 54.3132ZM189.2 46.9217L188.969 46.146C189.707 45.9222 190.46 45.7059 191.221 45.4971L191.438 46.2802C190.677 46.4816 189.931 46.6979 189.2 46.9217ZM221.981 51.0985C221.392 50.6063 220.78 50.1214 220.161 49.6814L220.638 49.025C221.272 49.48 221.899 49.9723 222.503 50.4795L221.981 51.0985ZM193.69 45.6985L193.504 44.9078C194.257 44.7288 195.025 44.5573 195.808 44.4081L195.965 45.2062C195.189 45.3554 194.436 45.5194 193.69 45.6985ZM218.244 48.3985C217.588 47.9957 216.909 47.6228 216.23 47.2797L216.596 46.5562C217.297 46.9068 217.99 47.2946 218.669 47.7048L218.244 48.3985ZM198.24 44.8109L198.121 44.0053C198.911 43.8935 199.702 43.7965 200.463 43.7294L200.537 44.5349C199.791 44.6095 199.023 44.699 198.24 44.8109ZM214.127 46.3324C213.418 46.049 212.687 45.7954 211.956 45.5717L212.188 44.796C212.948 45.0272 213.702 45.2882 214.425 45.5791L214.127 46.3324ZM202.849 44.4156L202.827 43.6026C203.625 43.5802 204.423 43.5951 205.191 43.6249L205.154 44.4305C204.401 44.4006 203.625 44.3932 202.849 44.4156ZM209.726 45.0048C209.047 44.8631 208.346 44.7437 207.653 44.6542L207.459 44.6319L207.556 43.8263L207.757 43.8562C208.473 43.9531 209.197 44.0725 209.89 44.2216L209.726 45.0048Z" fill="#5572D9"/>
<path d="M354.521 109.105C354.521 107.076 356.162 105.435 358.191 105.435C360.22 105.435 361.861 107.076 361.861 109.105C361.861 111.134 360.22 112.775 358.191 112.775C356.162 112.775 354.521 111.126 354.521 109.105Z" fill="#E4EDFF"/>
<path d="M359.855 116.623C359.855 114.594 361.496 112.953 363.525 112.953C365.554 112.953 367.195 114.594 367.195 116.623C367.195 118.652 365.554 120.293 363.525 120.293C361.496 120.293 359.855 118.652 359.855 116.623Z" fill="#E8EDFF"/>
<path d="M283.215 45.8852C283.215 42.9465 285.594 40.5671 288.533 40.5671C291.472 40.5671 293.851 42.9465 293.851 45.8852C293.851 48.8239 291.472 51.2032 288.533 51.2032C285.594 51.2032 283.215 48.8239 283.215 45.8852Z" fill="#E8EDFF"/>
<path d="M50.3457 111.037C50.3457 108.098 52.725 105.719 55.6637 105.719C58.6025 105.719 60.9818 108.098 60.9818 111.037C60.9818 113.975 58.6025 116.355 55.6637 116.355C52.725 116.355 50.3457 113.975 50.3457 111.037Z" fill="#E8EDFF"/>
<path d="M46.3882 211.109C45.0456 212.266 43.0168 212.109 41.8607 210.766C40.7046 209.424 40.8613 207.395 42.2038 206.239C43.5464 205.083 45.5752 205.239 46.7313 206.582C47.8873 207.925 47.7307 209.953 46.3882 211.109Z" fill="#E8EDFF"/>
<path d="M306.645 95.955C307.085 88.5187 313.85 82.0073 321.301 81.8581C321.689 83.7153 322.077 85.5651 322.464 87.4223C330.199 80.0308 340.134 74.9812 350.666 73.0942C351.285 72.9823 352.001 72.9077 352.478 73.318C352.896 73.6834 352.978 74.295 353.015 74.847C353.299 79.2401 352.568 83.693 350.889 87.7579C355.335 85.8709 359.773 83.9764 364.218 82.0894C366.433 81.1496 369.32 80.3216 370.983 82.067C375.719 87.027 369.611 95.6716 369.611 95.6716C369.611 95.6716 317.199 95.597 306.645 95.955Z" fill="#E8EDFF"/>
<path d="M20 185.72C20.2685 181.178 24.4006 177.21 28.9429 177.12C29.1816 178.254 29.4128 179.38 29.6515 180.514C34.3729 176.002 40.4368 172.921 46.8587 171.773C47.2391 171.705 47.6717 171.661 47.9626 171.907C48.2162 172.131 48.2684 172.504 48.2907 172.839C48.4623 175.517 48.0148 178.239 46.9929 180.716C49.7004 179.559 52.4154 178.411 55.1229 177.255C56.4729 176.68 58.2332 176.173 59.2475 177.24C62.134 180.268 58.4122 185.541 58.4122 185.541C58.4122 185.541 26.4443 185.497 20 185.72Z" fill="#E8EDFF"/>
<path d="M326.791 298.772H255.396V159.869H326.791C333.399 159.869 338.762 165.224 338.762 171.84V286.808C338.762 293.416 333.407 298.772 326.791 298.772Z" fill="#11AF9F"/>
<path d="M274.352 178.374H276.567C278.327 178.374 279.215 179.112 279.215 180.589C279.215 181.328 278.998 181.895 278.566 182.29C278.133 182.685 277.499 182.879 276.656 182.879H275.403V185.132H274.352V178.374ZM276.582 181.947C277.104 181.947 277.492 181.85 277.73 181.648C277.969 181.447 278.088 181.111 278.088 180.634C278.088 180.172 277.969 179.836 277.73 179.635C277.492 179.433 277.104 179.336 276.559 179.336H275.396V181.939H276.582V181.947Z" fill="white"/>
<path d="M284.383 183.468H281.28L280.661 185.139H279.609L282.198 178.374H283.518L286.106 185.139H285.009L284.383 183.468ZM284.04 182.573L282.832 179.343L281.616 182.573H284.04Z" fill="white"/>
<path d="M288.424 185.109C288.013 185.012 287.633 184.878 287.268 184.713V183.647C288.088 184.102 288.849 184.326 289.535 184.326C289.923 184.326 290.236 184.236 290.467 184.065C290.699 183.893 290.81 183.647 290.81 183.349C290.81 183.125 290.751 182.946 290.624 182.797C290.497 182.647 290.341 182.536 290.147 182.446C289.953 182.357 289.692 182.26 289.363 182.14C288.946 181.991 288.603 181.849 288.342 181.715C288.081 181.581 287.864 181.387 287.678 181.133C287.491 180.887 287.402 180.559 287.402 180.164C287.402 179.574 287.611 179.105 288.028 178.769C288.446 178.426 289.013 178.262 289.721 178.262C290.057 178.262 290.385 178.299 290.713 178.374C291.034 178.448 291.34 178.56 291.616 178.702V179.746C290.967 179.381 290.341 179.202 289.729 179.202C289.334 179.202 289.02 179.276 288.804 179.433C288.58 179.582 288.468 179.791 288.468 180.059C288.468 180.246 288.528 180.402 288.64 180.537C288.759 180.663 288.901 180.775 289.08 180.85C289.259 180.932 289.505 181.029 289.811 181.133C290.244 181.29 290.602 181.439 290.87 181.581C291.139 181.723 291.377 181.931 291.579 182.2C291.78 182.468 291.877 182.812 291.884 183.237C291.884 183.856 291.676 184.355 291.258 184.721C290.84 185.086 290.288 185.273 289.587 185.273C289.222 185.258 288.834 185.213 288.424 185.109Z" fill="white"/>
<path d="M294.644 185.109C294.234 185.012 293.846 184.878 293.488 184.713V183.647C294.309 184.102 295.07 184.326 295.756 184.326C296.144 184.326 296.457 184.236 296.681 184.065C296.912 183.893 297.024 183.647 297.024 183.349C297.024 183.125 296.964 182.946 296.837 182.797C296.71 182.647 296.554 182.536 296.36 182.446C296.166 182.357 295.905 182.26 295.577 182.14C295.159 181.991 294.816 181.849 294.555 181.715C294.294 181.581 294.078 181.387 293.891 181.133C293.705 180.887 293.615 180.559 293.615 180.164C293.615 179.574 293.824 179.105 294.242 178.769C294.659 178.426 295.226 178.262 295.935 178.262C296.27 178.262 296.606 178.299 296.927 178.374C297.247 178.448 297.553 178.56 297.829 178.702V179.746C297.18 179.381 296.554 179.202 295.942 179.202C295.547 179.202 295.234 179.276 295.017 179.433C294.794 179.582 294.682 179.791 294.682 180.059C294.682 180.246 294.741 180.402 294.853 180.537C294.973 180.663 295.114 180.775 295.293 180.85C295.472 180.932 295.718 181.029 296.024 181.133C296.457 181.29 296.815 181.439 297.083 181.581C297.352 181.723 297.591 181.931 297.792 182.2C297.993 182.468 298.09 182.812 298.098 183.237C298.098 183.856 297.889 184.355 297.471 184.721C297.054 185.086 296.494 185.273 295.8 185.273C295.442 185.258 295.055 185.213 294.644 185.109Z" fill="white"/>
<path d="M300.016 178.374H302.231C303.991 178.374 304.879 179.112 304.879 180.589C304.879 181.327 304.662 181.894 304.23 182.289C303.797 182.685 303.163 182.879 302.328 182.879H301.075V185.131H300.023V178.374H300.016ZM302.253 181.946C302.775 181.946 303.163 181.849 303.402 181.648C303.641 181.447 303.76 181.111 303.76 180.634C303.76 180.171 303.641 179.835 303.402 179.634C303.163 179.433 302.775 179.336 302.231 179.336H301.067V181.939H302.253V181.946Z" fill="white"/>
<path d="M307.674 184.825C307.19 184.534 306.824 184.132 306.578 183.602C306.324 183.073 306.205 182.461 306.205 181.76C306.205 181.059 306.332 180.447 306.578 179.918C306.824 179.388 307.197 178.985 307.674 178.694C308.159 178.403 308.734 178.262 309.397 178.262C310.061 178.262 310.643 178.403 311.12 178.694C311.605 178.985 311.971 179.388 312.217 179.918C312.463 180.447 312.59 181.059 312.59 181.76C312.59 182.461 312.463 183.073 312.217 183.602C311.971 184.132 311.598 184.542 311.12 184.825C310.636 185.116 310.061 185.258 309.397 185.258C308.726 185.258 308.152 185.116 307.674 184.825ZM310.941 183.617C311.299 183.17 311.478 182.543 311.478 181.752C311.478 180.962 311.299 180.343 310.941 179.888C310.583 179.44 310.069 179.209 309.397 179.209C308.726 179.209 308.219 179.433 307.853 179.888C307.495 180.335 307.316 180.962 307.316 181.752C307.316 182.543 307.495 183.162 307.853 183.617C308.211 184.065 308.726 184.296 309.397 184.296C310.061 184.296 310.576 184.072 310.941 183.617Z" fill="white"/>
<path d="M318.484 185.139L317.104 182.521H317.081H315.649V185.139H314.598V178.374H316.962C317.797 178.374 318.424 178.546 318.842 178.896C319.259 179.239 319.461 179.746 319.461 180.395C319.461 180.873 319.356 181.283 319.14 181.619C318.924 181.954 318.61 182.2 318.185 182.349L319.67 185.139H318.484ZM316.97 181.574C317.439 181.574 317.783 181.484 318.006 181.313C318.23 181.134 318.342 180.843 318.342 180.418C318.342 180.022 318.23 179.746 318.014 179.582C317.79 179.418 317.447 179.336 316.962 179.336H315.649V181.574H316.97Z" fill="white"/>
<path d="M322.685 179.373H320.693V178.374H325.728V179.373H323.737V185.139H322.685V179.373Z" fill="white"/>
<path d="M146.718 233.113C145.256 233.113 144.062 231.919 144.062 230.458C144.062 228.996 145.256 227.802 146.718 227.802C148.18 227.802 149.373 228.996 149.373 230.458C149.373 231.919 148.18 233.113 146.718 233.113ZM146.718 228.608C145.696 228.608 144.868 229.436 144.868 230.458C144.868 231.479 145.696 232.307 146.718 232.307C147.74 232.307 148.568 231.479 148.568 230.458C148.56 229.436 147.732 228.608 146.718 228.608Z" fill="white"/>
<path d="M257.816 294.93H167.939C165.201 294.93 162.979 292.707 162.979 289.97V81.4778C162.979 78.7405 165.201 76.5178 167.939 76.5178H257.816C260.553 76.5178 262.776 78.7405 262.776 81.4778V289.97C262.776 292.715 260.56 294.93 257.816 294.93Z" fill="#ABBDFF"/>
<path d="M254.677 76.5178L171.139 76.5253C166.91 76.3612 163.576 78.9344 162.756 82.6489V89.839H262.792V82.6489C262.105 79.5833 259.077 76.5178 254.677 76.5178Z" fill="#7593FF"/>
<path d="M257.816 294.93H167.939C165.201 294.93 162.979 292.707 162.979 289.97V271.898H262.783V289.97C262.776 292.715 260.56 294.93 257.816 294.93Z" fill="#DCE3F2"/>
<path d="M258.606 294.93H167.275C164.903 294.93 162.979 293.006 162.979 290.634V286.51H262.783V290.761C262.776 293.066 260.911 294.93 258.606 294.93Z" fill="#DDE4FF"/>
<path d="M201.352 267.639C202.551 267.639 203.523 266.667 203.523 265.469C203.523 264.27 202.551 263.298 201.352 263.298C200.153 263.298 199.182 264.27 199.182 265.469C199.182 266.667 200.153 267.639 201.352 267.639Z" fill="#DCE3F2"/>
<path d="M207.773 265.469C207.773 264.268 208.743 263.298 209.944 263.298C211.145 263.298 212.114 264.268 212.114 265.469C212.114 266.669 211.145 267.639 209.944 267.639C208.751 267.647 207.773 266.669 207.773 265.469Z" fill="#DCE3F2"/>
<path d="M218.544 267.639C219.742 267.639 220.714 266.667 220.714 265.469C220.714 264.27 219.742 263.298 218.544 263.298C217.345 263.298 216.373 264.27 216.373 265.469C216.373 266.667 217.345 267.639 218.544 267.639Z" fill="#DCE3F2"/>
<path d="M259.703 176.367V202.801H164.418L164.47 200.444H162.979V164.403C170.094 161.867 175.487 158.198 178.172 152.745H178.187V152.76H178.194C179.91 156.251 182.737 159.011 186.414 161.196C186.63 161.33 186.846 161.457 187.07 161.584C187.995 162.106 188.972 162.598 190.001 163.061L204.493 163.053L210.378 162.919V147.054H221.954V156.646H227.944L227.929 143.996L235.029 148.837V157.668H237.058V164.344H242.95V151.992L255.876 152.022L255.682 176.36H259.703V176.367Z" fill="#96ADFF"/>
<path d="M262.783 220.873H250.543L250.581 223.23H162.979V193.082H167.014V177.486L172.063 172.429V184.766H177.963V178.098H179.992V169.259L186.414 164.881V157.803L187.07 158.429V177.083H193.059V167.492H204.635V183.349L210.52 183.483V172.698L217.83 160.324L225.02 172.698V183.49C230.457 181.044 234.582 177.747 236.827 173.19H236.834V173.175H236.849C239.736 179.045 245.755 182.841 253.676 185.392L253.37 185.407L250.663 188.54H250.088V194.44H250.126V198.96H252.938V190.718H257.808V175.122L262.79 170.132V220.873H262.783Z" fill="#7593FF"/>
<path d="M224.841 189.902C230.463 184.28 230.463 175.166 224.841 169.544C219.22 163.923 210.105 163.923 204.484 169.544C198.862 175.166 198.862 184.28 204.484 189.902C210.105 195.524 219.22 195.524 224.841 189.902Z" fill="white"/>
<path d="M213.725 188.54C213.717 188.54 213.71 188.54 213.702 188.54C213.203 188.532 212.733 188.294 212.434 187.898L206.773 180.343C206.244 179.634 206.385 178.627 207.094 178.098C207.802 177.568 208.809 177.71 209.339 178.418L213.747 184.303L222.272 173.481C222.817 172.787 223.831 172.668 224.525 173.212C225.218 173.764 225.338 174.771 224.793 175.465L214.978 187.928C214.679 188.316 214.217 188.54 213.725 188.54Z" fill="#FF6572"/>
<path d="M253.514 86.1395H245.317C244.69 86.1395 244.176 85.6249 244.176 84.9984V82.0596C244.176 81.4331 244.69 80.9185 245.317 80.9185H253.514C254.141 80.9185 254.655 81.4331 254.655 82.0596V84.9984C254.655 85.6249 254.141 86.1395 253.514 86.1395ZM245.317 81.4928C245.004 81.4928 244.75 81.7464 244.75 82.0596V84.9984C244.75 85.3116 245.004 85.5652 245.317 85.5652H253.514C253.827 85.5652 254.081 85.3116 254.081 84.9984V82.0596C254.081 81.7464 253.827 81.4928 253.514 81.4928H245.317Z" fill="white"/>
<path d="M251.572 85.1699H245.724C245.351 85.1699 245.061 84.8566 245.061 84.4837V82.5668C245.061 82.1939 245.351 81.8806 245.724 81.8806H249.491L251.572 85.1699Z" fill="white"/>
<path d="M255.263 83.1185V83.7749C255.263 83.8942 255.173 83.9837 255.061 83.9837H254.375V82.9097H255.061C255.173 82.9097 255.263 83.0066 255.263 83.1185Z" fill="white"/>
<path d="M176.301 82.701L175.54 83.5066C174.839 82.8428 173.892 82.4325 172.847 82.4325C171.788 82.4325 170.819 82.8577 170.117 83.5439L169.342 82.7458C170.252 81.8582 171.482 81.3137 172.847 81.3137C174.182 81.3212 175.398 81.8433 176.301 82.701Z" fill="white"/>
<path d="M175.16 83.9019L174.391 84.7149C173.989 84.3271 173.444 84.0959 172.848 84.0959C172.236 84.0959 171.684 84.342 171.281 84.7373L170.498 83.9318C171.102 83.3425 171.938 82.9771 172.848 82.9771C173.743 82.9771 174.563 83.3276 175.16 83.9019Z" fill="white"/>
<path d="M173.995 85.1328L172.839 86.3486L171.668 85.1478C171.974 84.8494 172.384 84.6704 172.839 84.6704C173.294 84.6704 173.697 84.8494 173.995 85.1328Z" fill="white"/>
<path d="M185.434 86.3513H186.963V80.9438H185.434V86.3513Z" fill="white"/>
<path d="M183.157 86.3486H184.686V82.1345H183.157V86.3486Z" fill="white"/>
<path d="M181.049 86.3472H182.578V83.1474H181.049V86.3472Z" fill="white"/>
<path d="M178.973 86.3506H180.502V84.747H178.973V86.3506Z" fill="white"/>
<path d="M264.498 76.5254C262.462 73.803 259.202 72.0427 255.548 72.0427H170.198C166.543 72.0427 163.299 73.803 161.248 76.5254C159.845 78.3975 159.018 80.7172 159.018 83.2382V287.651C159.018 293.826 164.022 298.831 170.198 298.831H255.548C261.723 298.831 266.736 293.826 266.736 287.651V83.2307C266.743 80.7172 265.915 78.3975 264.498 76.5254ZM262.783 286.77C262.783 291.283 259.128 294.938 254.615 294.938H171.13C166.618 294.938 162.978 291.283 162.978 286.77V84.6777C162.978 80.1652 166.618 76.5254 171.13 76.5254H254.615C259.128 76.5254 262.783 80.1652 262.783 84.6777V286.77Z" fill="#0B216D"/>
<path d="M175.977 129.691H172.725V133.845H175.977V129.691Z" fill="#7593FF"/>
<path d="M225.644 128.333H212.771H212.622H199.748C198.883 128.333 198.182 129.034 198.182 129.899V132.592C198.182 136.336 201.217 139.372 204.962 139.372H212.622H212.771H220.431C224.175 139.372 227.211 136.336 227.211 132.592V129.899C227.203 129.034 226.51 128.333 225.644 128.333Z" fill="#F4F4F4"/>
<path d="M214.543 114.505H210.836L212.44 93.5459H212.939L214.543 114.505Z" fill="#F4F4F4"/>
<path d="M227.201 124.022C227.201 126.215 226.709 128.303 225.829 130.175C223.516 135.113 218.504 138.536 212.686 138.536C206.876 138.536 201.856 135.113 199.544 130.175C198.664 128.303 198.172 126.222 198.172 124.022C198.172 116.011 204.676 109.507 212.686 109.507C220.712 109.507 227.201 116.011 227.201 124.022Z" fill="#F4F4F4"/>
<path d="M225.829 130.176C223.517 135.113 218.505 138.537 212.687 138.537C206.877 138.537 201.857 135.113 199.545 130.176H225.829Z" fill="#7593FF"/>
<path d="M206.511 119.815L207.018 117.533C207.063 117.317 207.257 117.167 207.473 117.167H211.717C211.978 117.167 212.187 117.376 212.187 117.637V120.285C212.187 120.561 211.956 120.777 211.68 120.755L206.929 120.382C206.645 120.367 206.444 120.099 206.511 119.815Z" fill="#7593FF"/>
<path d="M206.318 117.653L205.729 120.01C205.706 120.107 205.632 120.189 205.535 120.226L203.618 120.942C203.514 120.979 203.424 120.867 203.476 120.778L205.378 117.556C205.445 117.444 205.557 117.384 205.684 117.384H206.102C206.243 117.377 206.348 117.511 206.318 117.653Z" fill="#7593FF"/>
<path d="M204.675 117.167H204.048L201.072 121.374H201.908C201.997 121.374 202.087 121.329 202.131 121.255L204.846 117.167H204.675Z" fill="#7593FF"/>
<path d="M218.444 119.815L217.936 117.533C217.892 117.317 217.698 117.167 217.481 117.167H213.237C212.976 117.167 212.768 117.376 212.768 117.637V120.285C212.768 120.561 212.999 120.777 213.275 120.755L218.026 120.382C218.309 120.367 218.503 120.099 218.444 119.815Z" fill="#7593FF"/>
<path d="M218.64 117.653L219.229 120.01C219.252 120.107 219.326 120.189 219.423 120.226L221.34 120.942C221.445 120.979 221.534 120.867 221.482 120.778L219.58 117.556C219.513 117.444 219.401 117.384 219.274 117.384H218.856C218.715 117.377 218.603 117.511 218.64 117.653Z" fill="#7593FF"/>
<path d="M220.273 117.167H220.9L223.876 121.374H223.04C222.951 121.374 222.861 121.329 222.817 121.255L220.102 117.167H220.273Z" fill="#7593FF"/>
<path d="M199.112 120.763L176.281 118.055L176.654 117.376L200.089 118.659L199.112 120.763Z" fill="#F4F4F4"/>
<path d="M226.172 120.763L249.003 118.055L248.623 117.376L225.188 118.659L226.172 120.763Z" fill="#F4F4F4"/>
<path d="M134.125 123.194C134.125 123.194 134.125 124.432 135.236 125.186C136.348 125.939 138.817 126.371 138.817 126.371L199.552 134.36L199.008 128.333L134.125 123.194Z" fill="#F4F4F4"/>
<path d="M249.398 136.323H252.65V129.7H249.398V136.323Z" fill="#7593FF"/>
<path d="M174.388 145.854C177.968 145.854 180.869 142.952 180.869 139.372C180.869 135.792 177.968 132.89 174.388 132.89C170.808 132.89 167.906 135.792 167.906 139.372C167.906 142.952 170.808 145.854 174.388 145.854Z" fill="#F4F4F4"/>
<path d="M174.388 143.825C176.848 143.825 178.841 141.831 178.841 139.372C178.841 136.913 176.848 134.919 174.388 134.919C171.929 134.919 169.936 136.913 169.936 139.372C169.936 141.831 171.929 143.825 174.388 143.825Z" fill="#7593FF"/>
<path d="M250.985 145.854C254.565 145.854 257.467 142.952 257.467 139.372C257.467 135.792 254.565 132.89 250.985 132.89C247.406 132.89 244.504 135.792 244.504 139.372C244.504 142.952 247.406 145.854 250.985 145.854Z" fill="#F4F4F4"/>
<path d="M250.986 143.825C253.445 143.825 255.439 141.831 255.439 139.372C255.439 136.913 253.445 134.919 250.986 134.919C248.527 134.919 246.533 136.913 246.533 139.372C246.533 141.831 248.527 143.825 250.986 143.825Z" fill="#7593FF"/>
<path d="M291.339 123.194C291.339 123.194 291.339 124.432 290.228 125.186C289.117 125.939 286.648 126.371 286.648 126.371L225.904 134.36L226.449 128.333L291.339 123.194Z" fill="#F4F4F4"/>
<path d="M264.324 204.889V283.085C264.324 285.539 262.303 287.546 259.827 287.546H167.496C165.019 287.546 162.998 285.547 162.998 283.085V204.889C162.998 202.427 165.019 200.428 167.496 200.428H259.827C262.31 200.428 264.324 202.427 264.324 204.889Z" fill="white"/>
<path d="M321.703 204.27V283.697C321.703 285.823 319.987 287.539 317.861 287.539H269.581C267.463 287.539 265.74 285.816 265.74 283.697V204.27C265.74 202.152 267.463 200.429 269.581 200.429H317.861C319.98 200.429 321.703 202.152 321.703 204.27Z" fill="white"/>
<path d="M264.324 204.889V214.697H162.998V204.889C162.998 202.427 165.019 200.428 167.496 200.428H259.827C262.31 200.428 264.324 202.427 264.324 204.889Z" fill="#B9CCFE"/>
<path d="M321.703 204.27V214.697H265.74V204.27C265.74 202.152 267.463 200.429 269.581 200.429H317.861C319.98 200.429 321.703 202.152 321.703 204.27Z" fill="#B9CCFE"/>
<path d="M264.324 283.085V273.277H162.998V283.085C162.998 285.547 165.019 287.546 167.496 287.546H259.827C262.31 287.546 264.324 285.554 264.324 283.085Z" fill="#B9CCFE"/>
<path d="M321.703 283.705V273.277H265.74V283.705C265.74 285.823 267.463 287.546 269.581 287.546H317.861C319.98 287.546 321.703 285.83 321.703 283.705Z" fill="#B9CCFE"/>
<path d="M259.318 207.566H193.838V210.99H259.318V207.566Z" fill="white"/>
<path d="M308.986 207.566H279.785V210.99H308.986V207.566Z" fill="white"/>
<path d="M308.986 278.707H279.785V282.131H308.986V278.707Z" fill="white"/>
<path d="M270.574 209.275C270.574 207.104 272.334 205.351 274.497 205.351C276.668 205.351 278.421 207.112 278.421 209.275C278.421 211.438 276.661 213.198 274.497 213.198C272.334 213.198 270.574 211.445 270.574 209.275Z" fill="white"/>
<path d="M194.182 227.138L181.383 227.146C180.981 227.146 180.652 226.818 180.652 226.407V225.826C180.652 225.415 180.981 225.087 181.383 225.087L194.182 225.08C194.332 225.08 194.481 225.125 194.6 225.214L195.01 225.505C195.428 225.796 195.428 226.422 195.01 226.721L194.6 227.012C194.481 227.086 194.332 227.138 194.182 227.138Z" fill="#A3BCFE"/>
<path d="M183.986 218.941H184.926C185.336 218.941 185.724 219.15 185.948 219.493L189.782 225.304H185.799L183.986 218.941Z" fill="#A3BCFE"/>
<path d="M183.996 233.15H184.936C185.346 233.15 185.734 232.941 185.958 232.598L189.784 226.781H185.801L183.996 233.15Z" fill="#A3BCFE"/>
<path d="M179.729 223.268H180.146C180.333 223.268 180.504 223.357 180.601 223.514L182.317 226.117H180.534L179.729 223.268Z" fill="#A3BCFE"/>
<path d="M179.734 228.959H180.152C180.339 228.959 180.51 228.869 180.607 228.712L182.323 226.109H180.54L179.734 228.959Z" fill="#A3BCFE"/>
<path d="M301.8 224.61H270.578V226.587H301.8V224.61Z" fill="#A3BCFE"/>
<path d="M248.348 224.61H204.641V226.587H248.348V224.61Z" fill="#A3BCFE"/>
<path d="M248.348 228.511H204.641V230.488H248.348V228.511Z" fill="#A3BCFE"/>
<path d="M248.348 242.153H204.641V244.129H248.348V242.153Z" fill="#A3BCFE"/>
<path d="M248.348 246.061H204.641V248.037H248.348V246.061Z" fill="#A3BCFE"/>
<path d="M248.348 259.39H204.641V261.366H248.348V259.39Z" fill="#A3BCFE"/>
<path d="M248.348 263.291H204.641V265.267H248.348V263.291Z" fill="#A3BCFE"/>
<path d="M301.8 228.511H270.578V230.488H301.8V228.511Z" fill="#A3BCFE"/>
<path d="M284.265 232.844H270.578V234.821H284.265V232.844Z" fill="#A3BCFE"/>
<path d="M301.105 232.844H287.418V234.821H301.105V232.844Z" fill="#A3BCFE"/>
<path d="M284.265 237.185H270.578V239.162H284.265V237.185Z" fill="#A3BCFE"/>
<path d="M277.924 241.616H271.084V243.592H277.924V241.616Z" fill="#A3BCFE"/>
<path d="M297.218 241.616H290.379V243.592H297.218V241.616Z" fill="#A3BCFE"/>
<path d="M277.924 249.06H271.084V251.036H277.924V249.06Z" fill="#A3BCFE"/>
<path d="M301.105 237.185H287.418V239.162H301.105V237.185Z" fill="#A3BCFE"/>
<path d="M186.786 238.976C183.542 238.976 180.924 241.601 180.924 244.838C180.924 248.083 183.542 250.701 186.786 250.701C190.016 250.701 192.649 248.083 192.649 244.838C192.649 241.601 190.016 238.976 186.786 238.976ZM186.786 249.686C184.101 249.686 181.938 247.523 181.938 244.838C181.938 242.16 184.101 239.99 186.786 239.99C189.464 239.99 191.634 242.168 191.634 244.838C191.634 247.516 189.464 249.686 186.786 249.686Z" fill="#A3BCFE"/>
<path d="M189.629 247.143C189.562 247.143 189.502 247.128 189.435 247.098L186.593 245.584C186.459 245.517 186.377 245.375 186.377 245.226V241.332C186.377 241.109 186.556 240.93 186.78 240.93C187.003 240.93 187.182 241.109 187.182 241.332V244.98L189.815 246.382C190.009 246.486 190.084 246.733 189.979 246.926C189.912 247.068 189.771 247.143 189.629 247.143Z" fill="#A3BCFE"/>
<path d="M187.039 257.055C184.831 257.055 183.033 258.928 183.033 261.232C183.033 263.462 186.725 268.557 186.889 268.773C186.934 268.833 187.001 268.87 187.076 268.87C187.15 268.87 187.225 268.833 187.27 268.773C187.426 268.557 191.051 263.462 191.051 261.232C191.036 258.928 189.246 257.055 187.039 257.055ZM185.092 260.994C185.092 259.942 185.972 259.092 187.053 259.092C188.135 259.092 189.015 259.942 189.015 260.994C189.015 262.045 188.135 262.896 187.053 262.896C185.972 262.888 185.092 262.038 185.092 260.994Z" fill="#A3BCFE"/>
<path d="M125.47 186.474C135.099 189.883 136.889 205.755 134.808 212.9C134.555 213.78 130.93 219.963 130.318 220.105C130.042 220.172 129.751 220.09 129.483 220.016C128.797 219.822 128.103 219.62 127.417 219.426C126.574 219.188 125.686 218.912 125.105 218.263C124.321 217.375 124.314 216.077 124.262 214.892C124.083 211.14 122.927 207.515 122.166 203.838C121.345 199.84 121.002 195.775 120.711 191.71C120.622 190.487 120.107 188.301 121.01 187.25C121.92 186.176 124.306 186.064 125.47 186.474Z" fill="#D85B66"/>
<path d="M107.745 284.212L107.051 297.198L102.763 296.72L101.092 283.437L107.745 284.212Z" fill="#F69784"/>
<path d="M117.185 229.204C116.701 229.279 116.014 229.339 115.254 229.391C115.246 229.272 106.974 230.189 106.467 230.211C104.125 230.301 98.9712 226.333 97.3229 228.004C95.503 229.846 100.56 261.679 100.56 261.679C100.56 261.679 100.56 267.684 100.269 270.443C99.9782 273.203 101.567 290.656 101.567 290.656L107.832 290.463C107.832 290.463 108.958 266.714 109.413 265.304C109.861 263.895 109.481 246.956 109.481 246.956C109.481 246.956 109.451 241.899 109.786 241.317C110.54 240.057 119.505 228.861 117.185 229.204Z" fill="#2D3540"/>
<path d="M104.248 295.811L105.135 295.818C106.716 295.833 107.992 297.138 107.97 298.719L107.962 299.652C107.955 300.234 107.477 300.703 106.895 300.696L99.3398 300.607C99.3697 297.929 101.57 295.781 104.248 295.811Z" fill="#232716"/>
<path d="M101.146 288.419C101.183 288.389 101.22 288.374 101.265 288.359C102.623 287.845 104.219 287.889 105.658 287.755C106.128 287.71 106.606 287.666 107.075 287.621C107.344 287.598 107.911 287.412 108.149 287.531C108.798 287.852 108.828 290.06 108.172 290.321C108.008 290.388 107.821 290.403 107.642 290.418C106.277 290.545 104.935 290.731 103.57 290.858C102.958 290.918 101.735 291.343 101.362 290.753C100.989 290.157 101.138 289.284 101.079 288.62C101.071 288.568 101.071 288.523 101.094 288.479C101.109 288.456 101.123 288.441 101.146 288.419Z" fill="#4F5D70"/>
<path d="M122.359 285.443L125.962 297.943L130.027 296.511L128.669 283.19L122.359 285.443Z" fill="#F69784"/>
<path d="M102.639 232.77C102.617 232.65 110.881 231.688 111.381 231.591C113.686 231.151 117.81 226.124 119.794 227.385C121.98 228.772 124.21 260.926 124.21 260.926C124.21 260.926 125.56 266.781 126.462 269.399C127.365 272.025 129.744 289.381 129.744 289.381L123.598 290.604C123.598 290.604 117.161 267.721 116.408 266.446C115.655 265.178 112.216 248.582 112.216 248.582C112.216 248.582 111.112 243.644 110.65 243.16C109.636 242.101 101.886 232.889 102.639 232.77Z" fill="#2D3540"/>
<path d="M128.983 296.34L128.095 296.325C126.514 296.295 125.201 297.556 125.172 299.137L125.157 300.069C125.142 300.651 125.604 301.136 126.193 301.143L133.742 301.292C133.786 298.615 131.661 296.4 128.983 296.34Z" fill="#232716"/>
<path d="M130.304 287.599C130.267 287.584 130.215 287.577 130.177 287.569C128.738 287.375 127.194 287.778 125.762 287.972C125.292 288.031 124.822 288.099 124.352 288.158C124.084 288.196 123.494 288.143 123.285 288.307C122.719 288.762 123.189 290.925 123.89 291.03C124.069 291.06 124.248 291.03 124.427 291.007C125.784 290.821 127.134 290.702 128.499 290.523C129.111 290.441 130.394 290.59 130.625 289.926C130.856 289.262 130.513 288.449 130.423 287.785C130.416 287.733 130.409 287.688 130.379 287.644C130.349 287.629 130.326 287.614 130.304 287.599Z" fill="#4F5D70"/>
<path d="M105.569 188.682C107.725 187.511 110.007 186.504 112.431 186.131C118.204 185.251 124.365 188.458 126.968 193.687C128.781 197.334 128.907 201.555 128.892 205.628C128.87 214.548 128.355 223.514 126.364 232.203C125.193 232.449 124.216 231.092 123.015 231.084C122.426 231.077 121.896 231.398 121.344 231.599C120.68 231.838 119.964 231.905 119.263 231.957C111.909 232.479 104.435 231.271 97.6182 228.474C97.2527 228.325 96.8649 228.153 96.656 227.817C96.4845 227.541 96.4621 227.191 96.4621 226.863C96.4919 222.38 100.012 218.643 100.751 214.22C99.7066 215.511 98.5282 216.883 96.9022 217.219C96.5964 217.278 96.2756 217.301 95.9848 217.189C95.0151 216.801 95.1419 215.332 94.4408 214.563C94.135 214.235 93.6875 214.041 93.4488 213.661C93.2176 213.288 93.24 212.811 93.2847 212.371C93.7844 206.948 94.7764 201.302 96.7157 196.2C98.1627 192.359 102.116 190.561 105.569 188.682Z" fill="#83B8FF"/>
<path d="M80.1797 296.236L80.5675 301.449H95.4401C96.8871 301.449 97.3868 299.778 96.1338 299.159L88.2351 295.259L80.1797 296.236Z" fill="#232716"/>
<path d="M66.3357 295.721H72.4817C73.3991 295.721 74.145 296.467 74.145 297.384V301.099C74.145 301.434 73.869 301.71 73.5334 301.71H63.5313V298.533C63.5238 296.981 64.7843 295.721 66.3357 295.721Z" fill="#232716"/>
<path d="M68.8281 220.225C68.8281 220.225 72.2144 235.612 74.1387 236.962C76.063 238.312 78.4871 258.264 78.7705 259.83C79.2479 262.478 78.9719 265.454 79.0167 268.124C79.0614 270.533 79.0913 272.942 79.1211 275.359C79.1435 277.351 78.6437 280.133 79.136 282.035C79.3374 282.818 79.6954 283.579 79.7327 284.384C79.7775 285.413 79.3001 286.39 79.1435 287.405C78.875 289.18 79.6059 291.015 79.2777 292.783C79.2031 293.2 79.0689 293.648 79.233 294.036C79.3747 294.356 79.7029 294.58 79.8073 294.916C80.2101 296.214 79.9266 296.296 81.3811 296.221C82.3582 296.176 83.3576 295.945 84.3198 295.811C85.2969 295.677 87.527 295.87 88.2729 295.222C89.5185 294.14 88.9367 290.351 88.877 288.904C88.6682 283.735 88.795 278.566 89.0486 273.397C89.2574 269.146 89.1381 264.604 89.884 260.404C90.3091 257.98 88.2207 220.747 88.2207 220.747L68.8281 220.225Z" fill="#E3B266"/>
<path d="M109.031 180.275C109.77 179.873 110.09 178.985 109.74 178.209C109.374 177.404 108.42 177.046 107.607 177.411L107.517 177.456L107.375 177.15C106.286 174.763 103.467 173.704 101.08 174.793C98.6936 175.882 97.6344 178.702 98.7234 181.088L99.7676 183.386C100.678 185.392 103.4 188.398 104.884 186.086L106.055 189.614C105.391 192.828 105.033 196.073 105.22 199.37L110.657 190.576L112.768 187.398L109.031 180.275Z" fill="#F69784"/>
<path d="M99.02 176.636C99.0722 176.524 101.071 178.165 101.243 178.217C101.302 178.232 101.362 178.247 101.414 178.225C101.489 178.195 101.541 178.12 101.601 178.06C101.862 177.807 102.302 178.023 102.563 178.277C102.824 178.53 103.122 178.851 103.48 178.776C103.726 178.724 103.898 178.501 104.114 178.381C104.427 178.21 104.808 178.262 105.144 178.374C105.479 178.486 105.8 178.642 106.15 178.687C106.598 178.739 107.09 178.471 107.329 178.09C107.486 177.852 107.5 177.479 107.769 177.374C107.866 177.337 108 177.3 108.12 177.277C108.485 177.218 108.873 177.352 109.186 177.546C109.634 177.822 109.842 178.471 109.775 178.993C109.708 179.515 109.358 179.985 108.888 180.231C110.268 182.558 111.476 184.997 112.819 187.361C113.512 187.175 114.124 186.772 114.788 186.519C115.511 186.243 116.302 186.161 117.07 186.258C117.816 186.354 118.368 186.742 119.069 186.936C119.106 186.086 119.121 185.169 118.614 184.482C118.532 184.37 118.435 184.266 118.375 184.132C118.323 184.005 118.316 183.871 118.308 183.729C118.286 182.789 118.323 182.178 117.696 181.469C117.1 180.798 116.883 180.246 116.593 179.358C116.481 179.03 116.369 178.687 116.153 178.418C115.869 178.068 115.436 177.867 115.131 177.531C114.676 177.016 114.586 176.248 114.124 175.733C113.714 175.278 113.072 175.092 112.677 174.622C112.11 173.943 112.207 172.832 111.528 172.258C111.245 172.019 110.879 171.915 110.573 171.713C109.917 171.266 109.626 170.385 108.925 170.005C108.313 169.677 107.575 169.834 106.881 169.819C105.957 169.796 105.076 169.453 104.166 169.319C103.234 169.185 102.108 169.423 101.213 169.714C100.758 169.863 100.37 170.087 100.087 170.475C99.8628 170.773 99.8926 171.243 99.4973 171.407C99.3631 171.467 99.2064 171.452 99.0647 171.497C98.3263 171.721 98.5351 172.951 97.9086 173.399C97.752 173.511 97.558 173.563 97.4387 173.705C97.1329 174.063 97.5133 174.607 97.4313 175.07C97.394 175.278 97.2597 175.457 97.1553 175.644C96.5138 176.755 96.7078 179.627 98.3412 179.851C98.3114 178.769 98.5202 177.673 99.02 176.636Z" fill="#2E354E"/>
<path d="M147.455 300.875H145.404C145.039 300.875 144.74 300.577 144.74 300.211V298.16C144.74 297.794 145.039 297.496 145.404 297.496H147.455C147.821 297.496 148.119 297.794 148.119 298.16V300.211C148.119 300.577 147.828 300.875 147.455 300.875Z" fill="#282A41"/>
<path d="M163.25 300.875H161.199C160.834 300.875 160.535 300.577 160.535 300.211V298.16C160.535 297.794 160.834 297.496 161.199 297.496H163.25C163.616 297.496 163.914 297.794 163.914 298.16V300.211C163.914 300.577 163.616 300.875 163.25 300.875Z" fill="#282A41"/>
<path d="M149.602 235.88H148.543V251.059H149.602V235.88Z" fill="#AFBBC7"/>
<path d="M160.133 235.88H159.074V251.059H160.133V235.88Z" fill="#AFBBC7"/>
<path d="M159.949 232.233H158.614H156.585H152.14H150.111H148.776C148.395 232.233 148.082 232.546 148.082 232.927V234.262V235.917C148.082 236.238 148.343 236.499 148.664 236.499H149.529C149.85 236.499 150.111 236.238 150.111 235.917V234.896C150.111 234.545 150.394 234.262 150.745 234.262H152.147H156.592H157.995C158.345 234.262 158.629 234.545 158.629 234.896V235.917C158.629 236.238 158.89 236.499 159.21 236.499H160.076C160.396 236.499 160.657 236.238 160.657 235.917V234.262V232.927C160.642 232.539 160.329 232.233 159.949 232.233Z" fill="#282A41"/>
<path d="M150.645 249.522V248.671C150.645 248.343 150.689 248.015 150.779 247.709C151.927 247.456 153.121 247.329 154.351 247.329H154.359C155.59 247.329 156.783 247.456 157.932 247.709C158.014 248.015 158.058 248.336 158.058 248.671V249.522C158.058 251.513 156.447 253.132 154.456 253.132H154.255C152.263 253.124 150.645 251.513 150.645 249.522Z" fill="#23253C"/>
<path d="M161.671 298.346H147.037C141.965 298.346 137.848 294.237 137.848 289.157V264.506C137.848 255.392 145.239 248 154.354 248C163.468 248 170.86 255.392 170.86 264.506V289.157C170.86 294.229 166.75 298.346 161.671 298.346Z" fill="#7E8AD8"/>
<path d="M161.671 298.346H147.037C141.965 298.346 137.848 294.237 137.848 289.157V264.506C137.848 255.392 145.239 248 154.354 248C163.468 248 170.86 255.392 170.86 264.506V289.157C170.86 294.229 166.75 298.346 161.671 298.346Z" fill="#D85B66"/>
<path d="M159.903 292.469H148.819C144.851 292.469 141.629 289.247 141.629 285.279V266.603C141.629 259.584 147.342 253.871 154.361 253.871C161.379 253.871 167.093 259.584 167.093 266.603V285.279C167.085 289.247 163.863 292.469 159.903 292.469ZM154.353 254.333C147.588 254.333 142.076 259.838 142.076 266.61V285.287C142.076 289.001 145.097 292.014 148.812 292.014H159.895C163.61 292.014 166.623 288.993 166.623 285.287V266.61C166.63 259.838 161.126 254.333 154.353 254.333Z" fill="#D8959B"/>
<path d="M160.983 248.306L159.662 247.732C158.909 245.949 157.141 244.688 155.075 244.688H153.584C152.196 244.688 150.958 245.248 150.056 246.15C149.601 246.605 149.243 247.15 148.997 247.754L147.736 248.306C147.236 248.522 147.013 249.104 147.229 249.604L149.817 248.477C150.13 248.395 150.436 248.313 150.757 248.246C151.174 246.725 152.569 245.598 154.233 245.598H154.434C156.09 245.598 157.492 246.725 157.91 248.246C158.275 248.321 158.633 248.41 158.984 248.515L161.49 249.611C161.706 249.104 161.482 248.522 160.983 248.306Z" fill="#23253C"/>
<path d="M124.516 238.021C123.994 238.491 123.934 239.08 123.599 239.684C123.077 240.646 122.54 241.683 121.667 242.392C120.563 243.302 121.137 241.802 121.301 241.556C121.458 241.325 122.435 239.93 122.607 239.438C122.89 238.714 123.062 238.2 123.3 237.446C122.264 238.685 122.734 239.878 120.183 241.206C120.011 241.303 120.086 240.848 120.183 240.669C120.496 240.027 120.958 239.967 121.316 239.319C122.249 237.693 122.137 236.402 121.943 235.716C121.742 235.045 121.488 234.359 121.495 233.643C121.488 233.247 121.57 232.852 121.645 232.464C121.749 232.009 121.853 231.554 121.965 231.092C121.995 231.047 126.135 229.779 125.896 232.919C125.911 232.912 125.933 232.912 125.963 232.912C126.329 232.979 126.858 234.068 127.052 234.359C127.201 234.575 127.365 234.799 127.515 235.015C128.044 235.791 128.581 236.589 128.879 237.491C128.902 237.551 128.917 237.655 128.865 237.7C128.805 237.745 128.723 237.707 128.663 237.67C127.746 237.111 127.246 235.932 126.209 235.656C126.194 235.664 126.179 235.656 126.165 235.649C126.209 235.865 126.217 236.074 126.269 236.275C126.388 236.775 126.515 237.29 126.552 237.797C126.582 238.334 126.56 240.512 126.426 240.997C126.082 242.227 124.882 244.353 124.188 244.085C123.726 243.898 124.658 242.645 124.889 242.19C125.531 240.907 125.65 239.908 125.486 238.476C125.381 239.087 125.225 240.243 124.859 241.101C124.598 241.683 122.547 244.331 122.025 243.95C121.577 243.63 122.435 242.712 122.793 242.302C124.158 240.713 124.091 239.639 124.516 238.021Z" fill="#F69784"/>
<path d="M61.1465 220.135C61.1465 220.135 62.3846 261.545 62.3846 262.97C62.3846 265.767 62.7352 268.594 62.9291 271.383C63.1007 273.852 63.2722 276.313 63.4512 278.782C63.6228 281.199 63.6973 283.668 64.1001 286.054C64.2344 286.838 64.3835 287.613 64.4731 288.397C64.6595 290.06 64.5775 291.753 64.2269 293.394C64.1523 293.752 64.1672 294.281 64.5327 294.319C64.6297 294.326 64.7266 294.296 64.8162 294.326C64.9728 294.386 65.0026 294.587 65.0026 294.759C65.0026 295.37 64.9429 296.012 64.9579 296.616C64.9802 297.257 64.8534 297.198 65.5471 297.295C66.8375 297.474 68.2844 297.295 69.5897 297.295C70.7682 297.295 71.9541 297.295 73.1326 297.295C73.5428 297.295 74.05 297.377 74.4528 297.295C75.1464 297.153 75.1539 296.318 74.9823 295.699C74.8182 295.117 74.5348 294.542 74.6168 293.938C74.684 293.446 74.9823 293.006 75.0495 292.514C75.1613 291.663 74.5497 290.873 74.4677 290.015C74.3782 289.098 74.8928 288.232 74.9749 287.308C75.0718 286.114 74.3483 285.1 74.2961 283.951C74.2812 283.571 74.4229 283.228 74.4378 282.855C74.4602 282.303 74.3707 281.721 74.3334 281.169C73.9605 275.247 73.5726 269.325 73.2221 263.395C72.9386 258.547 74.147 236.962 74.147 236.962L76.4964 220.739L61.1465 220.135Z" fill="#F4BF6E"/>
<path d="M80.6799 176.226C77.8307 176.688 75.0412 177.247 72.1398 177.389C70.0439 177.494 67.9107 177.471 65.9267 178.142C61.5484 179.627 61.6827 183.722 60.7205 187.473C60.0865 189.935 59.184 192.321 58.5426 194.783C58.0429 196.677 56.9464 200.265 58.0429 202.085C58.4307 202.726 59.1467 203.107 59.8702 203.263C61.362 203.577 62.5927 202.808 62.4733 204.777C62.3987 206.001 61.8766 207.209 61.4067 208.32C60.5415 210.401 58.8111 213.012 59.1542 215.369C59.3108 216.48 59.1915 219.001 60.2432 219.717C60.6907 220.023 61.5932 219.941 62.1153 220.03C63.1744 220.209 64.241 220.396 65.3001 220.582C65.9491 220.694 66.598 220.806 67.2319 220.993C67.8212 221.164 68.3955 221.395 68.9922 221.552C69.8499 221.776 70.745 221.85 71.64 221.865C74.989 221.94 78.3155 221.351 81.6645 221.313C83.9394 221.291 86.2441 221.164 88.4892 220.843C90.6969 220.53 89.2798 212.266 89.5259 211.162C89.7422 210.192 88.6607 209.148 88.7055 208.141C88.9814 209.103 89.1828 211.214 90.0406 211.818C91.1519 212.602 94.4636 211.289 95.6793 210.976C96.0373 210.886 96.4028 210.782 96.7086 210.58C97.4247 210.11 97.7006 209.215 97.9169 208.387C98.2004 207.343 98.7598 206.157 98.894 205.098C99.0357 204.046 98.618 202.823 98.4316 201.786C98.2227 200.601 97.7006 199.183 97.723 197.975C97.7678 195.551 97.6932 193.127 97.5365 190.71C97.3128 187.354 97.2531 182.737 94.2398 180.559C92.1663 179.06 90.3389 177.844 87.8701 177.15C88.1386 178.955 87.2734 181.059 85.1924 181.059C82.7833 181.059 81.2543 178.254 80.6799 176.226Z" fill="#2E354E"/>
<path d="M100.639 214.347C101.147 214.25 100.938 214.891 101.46 214.876C101.997 214.862 104.205 214.944 104.69 215.093C105.92 215.473 108.046 216.749 107.748 217.45C107.546 217.92 106.308 216.928 105.853 216.689C104.563 216.01 103.571 215.861 102.124 215.988C102.728 216.122 103.906 216.301 104.757 216.696C105.338 216.972 107.964 219.128 107.569 219.635C107.225 220.083 106.323 219.195 105.913 218.807C104.331 217.36 103.243 217.405 101.624 216.92C102.072 217.465 102.661 217.547 103.272 217.905C104.249 218.464 105.271 219.038 105.965 219.926C106.86 221.082 105.346 220.456 105.115 220.284C104.883 220.112 103.496 219.098 103.004 218.897C102.273 218.591 101.758 218.404 101.005 218.151C102.221 219.232 103.444 218.777 104.727 221.403C104.816 221.582 104.361 221.492 104.182 221.403C103.533 221.06 103.481 220.597 102.855 220.217C101.221 219.225 99.916 219.292 99.2223 219.478C98.5286 219.657 97.835 219.911 97.1115 219.889C96.7087 219.874 96.3209 219.777 95.9256 219.68C95.4631 219.568 95.2543 218.136 95.9703 217.181L100.639 214.347Z" fill="#F69784"/>
<path d="M68.2615 203.651C66.4341 203.651 64.6142 203.554 62.8167 203.457C62.6973 203.45 62.6004 203.345 62.6078 203.218C62.6153 203.099 62.7122 203.002 62.8316 203.002C62.8316 203.002 62.839 203.002 62.8465 203.002C66.4565 203.196 70.1858 203.405 73.8033 202.778C76.6227 202.293 80.5609 201.063 83.3206 197.952C83.5219 197.729 83.7457 197.46 83.8576 197.147C83.9918 196.804 83.9769 196.401 83.9695 196.021L83.8725 190.926C83.2385 190.956 82.6493 191.277 82.0302 191.62C81.7319 191.784 81.4335 191.948 81.1203 192.082C80.3073 192.426 79.4048 192.56 78.6141 192.679L69.7831 193.984C69.6936 193.999 69.6115 193.962 69.5593 193.887C69.5071 193.813 69.5071 193.723 69.5593 193.641C71.4389 190.628 72.871 187.369 73.8033 183.938C73.8331 183.818 73.9599 183.751 74.0793 183.781C74.1986 183.811 74.2732 183.938 74.2359 184.057C73.3334 187.376 71.9759 190.539 70.1933 193.47L78.547 192.239C79.3526 192.12 80.1879 192 80.9412 191.672C81.2321 191.545 81.5305 191.389 81.8139 191.232C82.4852 190.867 83.1789 190.486 83.962 190.486C84.0068 190.486 84.059 190.486 84.1112 190.494C84.2305 190.501 84.32 190.598 84.32 190.71L84.4244 196.021C84.4319 196.431 84.4394 196.886 84.2827 197.311C84.141 197.691 83.8874 197.997 83.6562 198.258C80.807 201.465 76.7644 202.733 73.8704 203.226C72.0207 203.546 70.1411 203.651 68.2615 203.651Z" fill="#5C6A9B"/>
<path d="M88.8555 208.686C88.8331 208.686 88.8108 208.686 88.7884 208.678C88.6691 208.641 88.6019 208.514 88.6392 208.395C88.7735 207.962 88.7735 207.485 88.7735 207.022V206.582C88.7809 203.569 88.7809 200.451 89.5715 197.498C89.6014 197.378 89.7207 197.304 89.8475 197.341C89.9669 197.371 90.0414 197.498 90.0042 197.617C89.2285 200.518 89.2284 203.599 89.221 206.582V207.022C89.221 207.492 89.2135 208.022 89.0644 208.522C89.042 208.618 88.945 208.686 88.8555 208.686Z" fill="#5C6A9B"/>
<path d="M82.9492 169.185C81.9721 168.834 81.4052 167.812 81.6886 166.798C81.9795 165.739 83.0759 165.12 84.1351 165.411L84.2544 165.448L84.3663 165.045C85.2315 161.92 88.476 160.093 91.6012 160.958C94.7264 161.823 96.5538 165.068 95.6886 168.193L94.8532 171.199C94.1222 173.824 91.3849 178.023 89.1249 175.48L87.7302 180.007C85.9252 182.267 80.5176 180.634 80.2715 177.471L82.9492 169.185Z" fill="#F69784"/>
<path d="M97.3293 161.107C97.3069 161.256 97.292 161.428 97.2696 161.577C97.0608 163.106 96.2925 164.635 94.7038 165.157C93.048 165.687 91.2728 165.329 89.5872 165.127C88.7443 165.03 87.8344 164.926 86.9766 165.075C84.3064 165.56 84.9255 168.581 85.0001 170.505L84.0752 170.348C84.1274 170.095 84.1722 169.863 84.1946 169.692C84.3736 168.7 84.8435 166.358 83.4636 165.94C81.9793 165.5 82.1136 167.611 82.5089 168.424C82.6431 168.737 82.8296 169.006 82.949 169.311C83.2846 170.229 82.9042 171.243 82.5164 172.131C82.2702 172.049 82.2031 171.743 82.1658 171.467C82.0837 170.855 81.9122 170.251 81.6586 169.692C81.4796 169.311 81.2782 168.939 81.2185 168.528C81.1812 168.036 81.3752 167.551 81.2558 167.074C81.129 166.641 81.0544 166.216 81.0097 165.754C80.9426 164.836 80.9724 163.8 81.4125 162.964C81.9868 161.898 82.5238 160.756 83.389 159.891C83.9633 159.317 84.5451 158.922 85.3283 158.854C86.1114 158.795 86.7678 158.325 87.551 158.22C87.7374 158.198 87.9612 158.213 88.1253 158.302C88.3043 158.414 88.4087 158.623 88.3639 158.81C88.9457 159.011 89.5872 159.086 90.1839 159.018C90.5792 158.974 90.9521 158.877 91.325 158.862C92.138 158.839 92.3245 159.444 92.9734 159.69C93.2718 159.794 93.4955 159.735 93.8088 159.928C94.122 160.085 94.2787 160.294 94.6591 160.234C94.9649 160.182 95.1886 159.928 95.5243 159.966C95.6436 159.973 95.7555 160.01 95.8002 160.115C95.8748 160.272 95.7629 160.518 95.8897 160.644C95.9718 160.719 96.1061 160.712 96.2105 160.697C96.5014 160.659 96.7699 160.659 97.0608 160.712C97.1279 160.719 97.195 160.734 97.2622 160.771C97.3218 160.853 97.3367 160.988 97.3293 161.107Z" fill="#2E354E"/>
<path d="M100.758 214.459C100.669 214.459 100.579 214.399 100.55 214.302C99.8783 212.094 99.5502 209.804 99.58 207.5C99.58 207.38 99.6769 207.283 99.7963 207.283C99.9156 207.283 100.013 207.38 100.013 207.5C99.9827 209.76 100.303 212.005 100.96 214.168C100.997 214.28 100.93 214.399 100.818 214.436C100.803 214.459 100.781 214.459 100.758 214.459Z" fill="#485589"/>
<path d="M121.001 229.839H120.994C120.874 229.831 120.785 229.727 120.792 229.615C121.21 221.5 120.598 213.355 118.98 205.404C118.928 205.158 118.868 204.882 118.808 204.584C118.234 201.899 117.264 197.401 118.525 195.603C118.592 195.507 118.726 195.484 118.823 195.551C118.92 195.618 118.943 195.753 118.876 195.85C117.727 197.498 118.704 202.048 119.226 204.494C119.293 204.8 119.353 205.076 119.398 205.322C121.024 213.303 121.635 221.485 121.218 229.637C121.218 229.749 121.121 229.839 121.001 229.839Z" fill="#485589"/>
<path d="M102.145 197.923H88.876C88.5925 197.923 88.3613 197.692 88.3613 197.408V191.277C88.3613 190.994 88.5925 190.762 88.876 190.762H102.145C102.428 190.762 102.66 190.994 102.66 191.277V197.408C102.66 197.699 102.428 197.923 102.145 197.923Z" fill="#C0D0EA"/>
<path d="M84.2597 191.665C85.6097 191.277 86.915 190.733 88.1457 190.054C88.6007 189.8 89.0482 189.532 89.5405 189.353C90.0476 189.174 92.1808 188.577 92.6806 188.577C93.9709 188.562 96.3801 189.129 96.3129 189.882C96.2682 190.39 94.7839 189.823 94.2767 189.733C92.8447 189.48 91.8526 189.636 90.5101 190.203C91.1217 190.144 92.3002 189.957 93.2325 190.076C93.8665 190.158 97.029 191.411 96.8127 192.016C96.6187 192.545 95.4925 191.971 94.9778 191.74C93.0311 190.845 92.0093 191.218 90.3162 191.255C90.9054 191.635 91.5021 191.538 92.1883 191.687C93.2847 191.926 94.4408 192.157 95.3657 192.791C96.574 193.619 94.9405 193.485 94.6646 193.395C94.3886 193.306 92.7626 192.761 92.233 192.717C91.4424 192.65 90.8979 192.627 90.0999 192.612C91.5916 193.269 92.6134 192.463 94.6347 194.567C94.769 194.708 94.314 194.768 94.1201 194.731C93.3966 194.604 93.2101 194.179 92.4941 194.007C90.6369 193.567 89.4137 194.029 88.8095 194.41C88.2054 194.798 87.6161 195.245 86.9225 195.447C86.5346 195.559 86.1318 195.581 85.7365 195.611C85.2592 195.641 84.7818 195.67 84.3119 195.708C84.2896 194.723 84.2597 193.739 84.2373 192.747C84.2299 192.344 84.215 191.941 84.3343 191.553L84.2597 191.665Z" fill="#F69784"/>
<path d="M97.0943 204.606C97.691 203.33 98.4294 202.129 99.2946 201.018C99.6153 200.608 99.9509 200.205 100.205 199.75C100.466 199.28 101.383 197.266 101.465 196.767C101.681 195.499 101.495 193.022 100.742 192.97C100.227 192.933 100.555 194.492 100.57 195.006C100.592 196.461 100.279 197.416 99.5109 198.654C99.6675 198.057 100.04 196.923 100.07 195.984C100.093 195.342 99.3468 192.023 98.7128 192.142C98.1609 192.247 98.5487 193.455 98.6979 193.992C99.2722 196.051 98.7426 197.005 98.4443 198.669C98.1609 198.02 98.3548 197.46 98.3175 196.752C98.2578 195.625 98.2056 194.454 97.7282 193.44C97.1017 192.12 96.9749 193.753 97.0197 194.037C97.0644 194.32 97.3479 196.013 97.3106 196.543C97.2509 197.334 97.1912 197.878 97.0793 198.669C96.6617 197.095 97.6238 196.207 95.8636 193.88C95.7442 193.724 95.6174 194.164 95.6174 194.365C95.6249 195.096 96.0202 195.35 96.0724 196.08C96.2141 197.99 95.5727 199.116 95.0953 199.653C94.618 200.19 94.081 200.697 93.7751 201.354C93.6036 201.719 93.5141 202.115 93.4246 202.502C93.3202 202.965 93.2157 203.435 93.1113 203.897C94.081 204.076 95.0506 204.255 96.0202 204.434C96.4155 204.509 96.8108 204.583 97.2136 204.524L97.0943 204.606Z" fill="#F69784"/>
<path d="M115.832 197.528C116.668 201.287 118.331 204.8 120.039 208.246C119.853 205.113 118.346 202.189 118.04 199.064C117.757 196.14 118.54 193.231 119.323 190.397C119.502 189.741 119.696 189.062 120.106 188.517C120.517 187.973 121.21 187.585 121.881 187.734C122.202 187.458 122.12 186.906 121.822 186.608C121.523 186.31 121.083 186.205 120.666 186.138C119.748 185.996 117.563 185.691 116.75 186.28C115.989 186.832 115.728 188.928 115.564 189.808C115.109 192.366 115.273 195.007 115.832 197.528Z" fill="#D85B66"/>
<path d="M347.879 264.856C347.879 264.856 349.766 275.985 347.29 291.805C346.865 295.169 346.85 299.04 346.85 299.04L340.018 300.099L337.512 300.203L342.546 295.43L339.906 264.543L347.879 264.856Z" fill="#F49582"/>
<path d="M347.649 297.339L347.455 299.905C347.418 300.42 346.992 300.815 346.478 300.815H335.215C334.559 300.815 333.888 300.256 334.104 299.547C334.231 299.137 336.17 298.973 336.752 298.809C337.117 298.704 337.453 298.548 337.788 298.369C338.527 297.966 339.213 297.481 339.899 296.989C340.466 296.586 340.861 298.794 340.861 298.794C341.309 298.906 347.686 296.869 347.649 297.339Z" fill="#13114C"/>
<path d="M359.503 262.5C359.503 262.5 366.186 271.6 371.072 286.845C372.198 290.037 373.928 293.506 373.928 293.506L368.297 297.518L366.104 298.734L368.461 292.208L352.246 265.789L359.503 262.5Z" fill="#F49582"/>
<path d="M373.44 291.313L374.805 293.491C375.081 293.923 374.969 294.497 374.552 294.796L365.474 301.464C364.945 301.852 364.072 301.8 363.826 301.106C363.684 300.703 365.146 299.42 365.519 298.943C365.75 298.645 365.929 298.316 366.093 297.973C366.452 297.212 366.72 296.407 366.981 295.609C367.197 294.945 368.823 296.496 368.823 296.496C369.256 296.332 373.194 290.917 373.44 291.313Z" fill="#13114C"/>
<path d="M337.943 265.424C338.607 268.273 339.42 271.174 339.077 274.083C342.597 274.456 346.11 274.821 349.631 275.194C350.175 262.112 346.424 249.238 341.919 236.946C341.508 235.828 341.083 234.694 340.36 233.747C339.681 232.859 338.816 232.389 337.824 231.949C336.69 231.442 336.817 231.114 336.526 232.598C336.011 235.223 335.877 237.998 335.743 240.668C335.467 246.016 335.676 251.394 336.369 256.704C336.75 259.643 337.272 262.552 337.943 265.424Z" fill="#212638"/>
<path d="M324.817 208.253L327.569 208.38C328.248 208.417 328.681 207.664 328.3 207.097L323.698 200.794C323.542 200.563 323.288 200.421 323.012 200.421H320.454C319.782 200.421 319.387 201.182 319.782 201.727L324.191 207.902C324.34 208.119 324.571 208.246 324.817 208.253Z" fill="#13114C"/>
<path d="M353.316 190.293C354.039 190.516 354.77 190.8 355.292 191.352C355.822 191.904 356.061 192.664 356.478 193.298C356.881 193.917 357.455 194.425 357.821 195.074C358.216 195.767 358.35 196.58 358.447 197.378C359.715 208.328 354.226 219.516 356.866 230.219C354.561 230.144 352.361 231.062 350.153 231.711C345.827 232.993 341.188 232.374 336.728 231.688C336.534 224.781 336.31 220.746 336.452 214.556C336.519 211.751 336.772 210.08 336.101 207.358C335.736 205.889 334.945 204.442 335.191 202.942C335.296 202.294 336.608 200.578 336.914 199.996C338.055 197.811 339.39 195.73 340.897 193.783C342.202 192.09 344.022 189.949 346.208 189.412C348.371 188.868 351.257 189.644 353.316 190.293Z" fill="#F4BF6E"/>
<path d="M345.59 182.192C346.336 181.789 346.664 180.879 346.306 180.096C345.933 179.276 344.963 178.918 344.143 179.291L344.046 179.335L343.904 179.022C342.8 176.598 339.944 175.532 337.52 176.635C335.095 177.739 334.029 180.596 335.133 183.02L336.192 185.355C337.117 187.383 339.876 190.441 341.383 188.092L342.651 192.366C341.972 195.625 341.398 195.446 340.078 198.959L346.895 192.425L349.386 189.42L345.59 182.192Z" fill="#F49582"/>
<path d="M345.348 212.266C346.169 214.25 348.563 215.107 349.749 216.898C349.1 217.711 348.078 218.21 347.042 218.24C346.273 218.262 345.527 218.039 344.789 217.845C342.149 217.173 339.374 216.92 336.883 215.801C334.257 214.623 332.02 212.519 329.2 211.945C328.246 211.751 327.254 211.736 326.344 211.386C325.322 210.99 324.472 210.162 324.061 209.148C323.875 208.7 323.741 208.178 323.323 207.932C323.084 207.79 322.764 207.761 322.592 207.537C322.503 207.418 322.465 207.261 322.413 207.119C322.264 206.694 321.936 206.358 321.69 205.978C321.451 205.598 321.294 205.09 321.525 204.703C322.361 205.292 323.345 205.687 324.36 205.829C325.121 205.933 326.06 205.814 326.389 205.12C326.5 204.882 326.523 204.606 326.612 204.359C326.702 204.113 326.911 203.867 327.179 203.875C327.298 203.875 327.41 203.934 327.522 203.987C328.223 204.33 328.939 204.68 329.484 205.232C329.82 205.575 330.073 205.978 330.364 206.358C331.908 208.402 334.317 209.663 336.816 210.237C338.636 210.655 340.508 210.737 342.365 210.684C342.924 210.67 343.924 210.386 344.453 210.58C345.035 210.819 345.132 211.751 345.348 212.266Z" fill="#F49582"/>
<path d="M346.825 191.24C347.078 190.792 347.339 190.337 347.742 190.024C348.272 189.614 348.988 189.517 349.659 189.569C351.979 189.755 353.896 191.598 354.828 193.731C355.76 195.857 355.88 198.243 355.917 200.571C355.999 205.486 355.79 210.409 355.29 215.301C355.156 216.614 354.999 217.919 355.037 219.24C355.074 220.881 355.984 227.698 356.536 229.391C357.103 231.144 358.692 233.001 360.534 233.046C361.227 233.061 361.891 232.785 362.533 232.509C364.278 231.74 366.008 230.853 367.351 229.495C370.461 226.348 370.76 221.462 370.819 217.039C370.864 213.743 370.849 210.326 369.477 207.336C367.135 202.249 361.466 199.593 358.102 195.118C356.864 193.47 355.939 191.583 354.507 190.106C353.068 188.629 350.867 187.615 348.943 188.346C347.929 188.726 347.138 189.539 346.467 190.389C342.402 195.558 341.917 202.666 342.409 209.223C342.439 209.596 342.566 210.699 342.566 210.699L343.655 210.558C342.372 203.934 343.565 197.05 346.825 191.24Z" fill="#D85B66"/>
<path d="M344.493 217.777C344.493 217.777 345.963 221.067 349.394 222.558C351.243 223.364 353.13 224.11 355.085 224.624C355.525 224.736 355.995 224.856 356.323 225.169C356.658 225.482 356.793 226.057 356.472 226.392C352.832 225.661 348.998 224.774 346.328 222.193C345.269 221.171 343.471 219.008 343.322 217.516L344.493 217.777Z" fill="#D85B66"/>
<path d="M357.053 240.288C356.889 241.422 356.672 242.555 356.583 243.697C356.382 246.255 356.829 248.813 357.277 251.334C357.933 255.041 358.612 258.83 360.491 262.097C361.356 263.604 365.429 269.243 367.361 273.382C364.765 274.158 357.47 275.978 357.47 275.978C357.47 275.978 356.478 274.441 356.053 273.68C354.45 270.816 352.018 268.519 350.086 265.864C345.671 259.777 344.134 252.132 341.181 245.218C339.316 240.847 338.123 236.327 337.168 231.711C341.136 232.456 345.171 231.778 349.087 231.062C351.093 230.696 353.107 230.308 355.136 230.07C355.912 229.98 356.68 229.682 357.075 230.405C357.463 231.106 357.321 232.62 357.359 233.419C357.478 235.716 357.374 238.021 357.053 240.288Z" fill="#2E354E"/>
<path d="M335.438 178.5C335.49 178.388 337.518 180.052 337.69 180.104C337.75 180.119 337.809 180.134 337.869 180.111C337.951 180.082 337.996 180.007 338.055 179.947C338.324 179.694 338.764 179.91 339.025 180.164C339.286 180.425 339.592 180.745 339.957 180.671C340.204 180.619 340.375 180.395 340.599 180.268C340.912 180.096 341.3 180.149 341.643 180.261C341.986 180.372 342.314 180.536 342.665 180.581C343.12 180.633 343.612 180.365 343.866 179.977C344.022 179.731 344.037 179.358 344.313 179.254C344.418 179.216 344.545 179.179 344.671 179.157C345.037 179.097 345.44 179.231 345.753 179.425C346.208 179.701 346.417 180.365 346.35 180.894C346.282 181.424 345.924 181.901 345.455 182.148C346.148 183.893 348.162 187.935 348.11 188.54C347.923 190.509 346.64 192.179 345.947 194.029C345.768 194.514 345.619 195.036 345.693 195.543C345.768 196.058 346.103 196.558 346.611 196.692C346.961 196.781 347.342 196.685 347.707 196.714C348.155 196.759 348.639 196.99 349.027 196.759C349.624 196.401 349.378 195.521 349.639 194.991C349.997 194.253 350.631 193.865 351.317 193.41C352.794 192.426 354.591 191.65 355.412 189.964C356.24 188.249 355.665 186.503 354.3 185.325C353.189 184.363 351.876 183.483 350.355 183.423C349.93 183.408 349.512 183.46 349.087 183.401C349.072 181.26 349.057 179.052 348.363 177.001C347.7 175.047 346.021 173.376 344.559 171.959C342.911 170.355 339.607 170.952 337.615 171.564C337.235 171.683 336.832 171.832 336.601 172.16C336.362 172.511 336.333 173.048 335.937 173.205C335.796 173.264 335.639 173.249 335.497 173.294C334.751 173.518 334.96 174.771 334.326 175.218C334.17 175.33 333.968 175.383 333.849 175.524C333.543 175.89 333.931 176.442 333.849 176.912C333.812 177.128 333.677 177.307 333.565 177.493C332.909 178.62 333.11 181.528 334.766 181.76C334.721 180.663 334.93 179.552 335.438 178.5Z" fill="#13114C"/>
<path d="M356.237 237.05L355.334 237.76L371.999 258.966L372.902 258.257L356.237 237.05Z" fill="#ADB9C5"/>
<path d="M362.522 232.09L361.619 232.8L378.264 253.972L379.167 253.262L362.522 232.09Z" fill="#ADB9C5"/>
<path d="M359.182 229.921L357.958 230.883L355.281 232.986L354.058 233.948L352.842 234.911L354.14 236.566L355.572 238.386L356.795 237.424L355.363 235.604L356.586 234.642L359.264 232.539L360.487 231.576L361.919 233.396L363.142 232.434L361.71 230.614L360.405 228.958L359.182 229.921Z" fill="#23253C"/>
<path d="M395.439 296.4C395.304 296.504 395.207 296.639 395.118 296.78C394.931 296.676 394.745 296.542 394.596 296.355L393.947 295.557L392.373 296.795L393.462 298.175C393.716 298.496 394.014 298.742 394.335 298.899L394.342 298.906C394.402 298.936 394.461 298.951 394.521 298.973L395.446 299.339C395.483 299.398 395.521 299.458 395.565 299.51C396.431 300.607 397.773 300.987 398.564 300.368C399.354 299.741 399.302 298.347 398.437 297.25C397.572 296.161 396.229 295.773 395.439 296.4Z" fill="#13114E"/>
<path d="M401.493 295.139C400.628 294.043 400.575 292.648 401.366 292.021C402.157 291.395 403.499 291.783 404.364 292.879C405.23 293.976 405.282 295.37 404.491 295.997C403.701 296.623 402.358 296.236 401.493 295.139Z" fill="#13114E"/>
<path d="M387.449 252.237L409.295 280.028C410.668 281.774 410.586 284.131 409.116 285.287L393.602 297.482C392.312 298.496 390.373 298.25 388.993 296.989C388.799 296.818 388.62 296.624 388.456 296.415L366.609 268.624C365.237 266.879 365.319 264.522 366.788 263.366L382.302 251.171C383.764 250.015 386.076 250.492 387.449 252.237Z" fill="#5788CB"/>
<path d="M403.999 293.2C404.626 293.991 404.663 295.012 404.081 295.467C403.798 295.691 403.41 295.736 403.022 295.624L400.449 294.602C400.389 294.58 400.33 294.557 400.27 294.535L400.262 294.528C399.942 294.371 399.643 294.125 399.39 293.804L398.301 292.424L399.875 291.186L400.523 291.984C400.941 292.514 401.598 292.745 401.993 292.476C402.582 292.178 403.432 292.476 403.999 293.2Z" fill="#13114E"/>
<path d="M389.275 250.797L411.121 278.588C412.494 280.334 412.695 282.474 411.576 283.354L399.739 292.663C398.755 293.439 397.069 292.991 395.741 291.678C395.555 291.499 395.383 291.305 395.212 291.097L373.365 263.305C371.993 261.56 371.792 259.42 372.91 258.539L384.747 249.231C385.874 248.351 387.902 249.052 389.275 250.797Z" fill="#6A93CB"/>
<path d="M401.058 290.918L401.401 291.35L399.738 292.663C398.754 293.439 397.068 292.991 395.74 291.678L398.037 289.873C398.791 289.284 400.148 289.754 401.058 290.918Z" fill="#13114E"/>
<path d="M409.609 284.198L409.952 284.63L411.615 283.318C412.6 282.542 412.562 280.797 411.608 279.208L409.31 281.013C408.565 281.602 408.699 283.034 409.609 284.198Z" fill="#13114E"/>
<path d="M375.209 265.651L368.219 271.145L370.228 273.702L377.218 268.207L375.209 265.651Z" fill="#13114E"/>
<path d="M391.929 286.935L384.875 292.48L386.885 295.036L393.939 289.491L391.929 286.935Z" fill="#13114E"/>
<path d="M401.812 294.886C401.141 294.035 401.104 292.954 401.715 292.469C402.334 291.984 403.371 292.283 404.042 293.133C404.714 293.983 404.751 295.065 404.139 295.549C403.528 296.034 402.483 295.736 401.812 294.886Z" fill="#FBFBFB"/>
<path d="M413.055 286.055C412.19 284.958 412.138 283.563 412.928 282.937C413.719 282.31 415.062 282.698 415.927 283.795C416.792 284.891 416.844 286.286 416.054 286.912C415.256 287.531 413.913 287.151 413.055 286.055Z" fill="#13114E"/>
<path d="M415.56 284.115C416.186 284.906 416.224 285.928 415.642 286.383C415.358 286.607 414.971 286.651 414.583 286.539L412.009 285.518C411.95 285.495 411.89 285.473 411.83 285.45L411.823 285.443C411.502 285.286 411.204 285.04 410.95 284.72L409.861 283.34L411.435 282.102L412.084 282.9C412.502 283.429 413.158 283.66 413.553 283.392C414.143 283.094 414.993 283.392 415.56 284.115Z" fill="#13114E"/>
<path d="M413.375 285.801C412.703 284.951 412.666 283.869 413.278 283.384C413.897 282.9 414.933 283.198 415.605 284.048C416.276 284.898 416.313 285.98 415.702 286.465C415.083 286.95 414.046 286.651 413.375 285.801Z" fill="#FBFBFB"/>
<path d="M397.055 286.659C396.966 286.726 396.839 286.711 396.764 286.621L377.581 262.037C377.514 261.948 377.529 261.821 377.618 261.747C377.708 261.679 377.834 261.694 377.909 261.784L397.093 286.368C397.16 286.457 397.145 286.584 397.055 286.659Z" fill="#80B2F6"/>
<path d="M399.63 284.638C399.54 284.712 399.413 284.69 399.339 284.6L380.155 260.016C380.088 259.927 380.103 259.8 380.192 259.726C380.282 259.658 380.409 259.673 380.483 259.763L399.667 284.347C399.734 284.436 399.719 284.57 399.63 284.638Z" fill="#80B2F6"/>
<path d="M402.278 282.549C402.189 282.616 402.062 282.601 401.987 282.512L382.803 257.928C382.736 257.838 382.751 257.712 382.841 257.637C382.93 257.57 383.057 257.585 383.132 257.674L402.315 282.258C402.382 282.355 402.368 282.482 402.278 282.549Z" fill="#80B2F6"/>
<path d="M404.852 280.535C404.763 280.61 404.636 280.588 404.561 280.498L385.378 255.914C385.311 255.825 385.325 255.698 385.415 255.624C385.504 255.556 385.631 255.571 385.706 255.661L404.89 280.245C404.957 280.334 404.942 280.461 404.852 280.535Z" fill="#80B2F6"/>
<path d="M407.057 278.521C406.968 278.588 406.841 278.573 406.766 278.484L387.583 253.9C387.516 253.81 387.531 253.684 387.62 253.609C387.71 253.542 387.836 253.557 387.911 253.646L407.095 278.23C407.162 278.32 407.147 278.454 407.057 278.521Z" fill="#80B2F6"/>
<path d="M346.993 218.359C346.933 218.337 346.903 218.27 346.918 218.21C346.933 218.15 346.985 218.113 347.045 218.113C347.06 218.113 347.075 218.113 347.097 218.113C347.679 218.113 349.096 217.292 349.611 216.852C349.462 216.621 348.693 215.749 346.963 214.436C346.075 213.765 345.397 212.884 345.136 212.079C345.016 211.713 344.591 210.52 343.92 210.647C343.868 210.654 343.808 210.632 343.786 210.58C343.763 210.527 343.771 210.468 343.815 210.43C344.36 209.961 345.613 209.55 346.307 209.744C347.03 209.946 347.731 210.445 348.447 211.258C348.671 211.519 348.887 211.788 349.096 212.056C349.409 212.452 349.738 212.869 350.096 213.228C350.349 213.481 350.633 213.72 350.901 213.951C351.297 214.287 351.707 214.63 352.05 215.04C352.751 215.875 352.997 216.837 352.706 217.621C352.371 218.508 351.401 218.971 350.595 219.023C350.536 219.03 350.469 219.03 350.394 219.03C349.439 219.03 347.724 218.672 346.993 218.359ZM344.248 210.43C344.688 210.58 345.091 211.132 345.367 212.012C345.613 212.773 346.262 213.6 347.105 214.242C348.895 215.599 349.864 216.644 349.879 216.882C349.879 216.92 349.864 216.972 349.835 216.994C349.469 217.33 348.335 218.038 347.545 218.284C348.44 218.56 349.864 218.829 350.566 218.769C351.297 218.717 352.162 218.314 352.46 217.531C352.766 216.718 352.348 215.793 351.848 215.204C351.52 214.816 351.118 214.473 350.73 214.145C350.454 213.914 350.17 213.668 349.909 213.407C349.536 213.034 349.208 212.616 348.887 212.213C348.679 211.952 348.47 211.684 348.246 211.43C347.567 210.654 346.911 210.184 346.232 209.998C346.135 209.968 346.023 209.961 345.896 209.961C345.382 209.953 344.703 210.169 344.248 210.43Z" fill="#D19B47"/>
<path d="M345.756 209.879C345.808 209.879 345.86 209.842 345.875 209.79C346.024 209.267 346.017 208.738 346.009 208.216L345.905 201.003C345.905 200.936 345.845 200.876 345.778 200.876C345.703 200.876 345.651 200.936 345.651 201.003L345.756 208.216C345.763 208.716 345.771 209.23 345.629 209.715C345.606 209.782 345.651 209.857 345.718 209.872C345.726 209.872 345.741 209.879 345.756 209.879Z" fill="#D19B47"/>
<path d="M352.759 217.345C352.796 217.345 352.826 217.33 352.848 217.308C353.43 216.696 353.698 215.883 353.93 215.107C354.549 213.011 354.974 210.848 355.205 208.678C355.212 208.611 355.16 208.544 355.093 208.536C355.019 208.521 354.959 208.581 354.951 208.648C354.728 210.804 354.302 212.952 353.683 215.025C353.46 215.771 353.199 216.554 352.662 217.129C352.617 217.181 352.617 217.263 352.669 217.308C352.691 217.337 352.729 217.345 352.759 217.345Z" fill="#D19B47"/>
<defs>
<linearGradient id="paint0_linear_1165_680" x1="218.5" y1="302" x2="218.5" y2="0" gradientUnits="userSpaceOnUse">
<stop stop-color="#E8EDFF" stop-opacity="0"/>
<stop offset="1" stop-color="#E8EDFF"/>
</linearGradient>
</defs>
</svg>
