<svg width="437" height="302" viewBox="0 0 437 302" fill="none" xmlns="http://www.w3.org/2000/svg">
<rect width="437" height="302" rx="20" transform="matrix(1 0 0 -1 0 302)" fill="url(#paint0_linear_1165_1710)"/>
<path d="M219.167 146.992C213.687 132.38 213.892 115.718 219.73 101.245C223.825 91.0931 230.612 81.8254 232.144 70.9865C233.588 60.7713 230.163 50.5937 227.973 40.512C225.783 30.4303 225.065 19.0328 231.066 10.641C237.848 1.15704 251.181 -1.31062 262.683 0.600634C274.184 2.51189 284.795 7.88629 296.006 11.0919C310.197 15.1498 325.387 15.6641 339.82 12.5751C353.088 9.73556 365.742 3.91176 379.264 2.7864C392.786 1.66105 408.351 6.96534 413.266 19.6128C417.414 30.2886 412.679 42.3236 406.614 52.0393C400.549 61.755 392.924 70.9821 390.618 82.2017C388.192 94.0124 392.072 106.15 396.554 117.344C401.037 128.537 406.254 139.818 406.63 151.87C407.006 163.921 401.023 177.179 389.574 180.961C378.912 184.483 367.666 179.015 356.984 175.554C339.603 169.923 320.854 169.565 302.746 172.001C292.845 173.333 283.074 175.483 273.41 177.993C266.283 179.843 256.915 184.686 249.576 181.876C236.096 176.713 224.012 159.912 219.167 146.992Z" fill="#9EA3FF"/>
<path d="M399.097 7.28564H230.936V175.447H399.097V7.28564Z" stroke="#252543" stroke-width="2" stroke-miterlimit="10" stroke-linecap="round" stroke-linejoin="round"/>
<path d="M230.936 141.814H399.097" stroke="#252543" stroke-width="2" stroke-miterlimit="10" stroke-linecap="round" stroke-linejoin="round"/>
<path d="M230.936 108.182H399.097" stroke="#252543" stroke-width="2" stroke-miterlimit="10" stroke-linecap="round" stroke-linejoin="round"/>
<path d="M230.936 74.5503H399.097" stroke="#252543" stroke-width="2" stroke-miterlimit="10" stroke-linecap="round" stroke-linejoin="round"/>
<path d="M230.936 40.9177H399.097" stroke="#252543" stroke-width="2" stroke-miterlimit="10" stroke-linecap="round" stroke-linejoin="round"/>
<path d="M365.465 7.28564V175.447" stroke="#252543" stroke-width="2" stroke-miterlimit="10" stroke-linecap="round" stroke-linejoin="round"/>
<path d="M331.832 7.28564V175.447" stroke="#252543" stroke-width="2" stroke-miterlimit="10" stroke-linecap="round" stroke-linejoin="round"/>
<path d="M298.201 7.28564V175.447" stroke="#252543" stroke-width="2" stroke-miterlimit="10" stroke-linecap="round" stroke-linejoin="round"/>
<path d="M264.566 7.28564V175.447" stroke="#252543" stroke-width="2" stroke-miterlimit="10" stroke-linecap="round" stroke-linejoin="round"/>
<path d="M250.176 145.836C254.154 126.594 258.131 107.351 262.11 88.1089C262.717 85.1704 263.342 82.184 264.771 79.5458C268.052 73.4911 275.743 70.2161 282.382 72.0477C287.98 73.5929 292.274 78.1984 295.105 83.268C297.937 88.3376 299.586 93.9674 301.841 99.3189C304.097 104.67 307.136 109.944 311.926 113.228C316.716 116.51 323.6 117.285 328.216 113.762C331.341 111.377 332.932 107.542 334.389 103.891C341.484 86.1024 348.577 68.3137 355.672 50.5257C356.983 47.2404 358.331 43.8895 360.627 41.1982C362.922 38.5069 366.374 36.544 369.888 36.9506C373.758 37.3993 376.849 40.6307 378.279 44.254C379.71 47.8773 379.792 51.8717 379.856 55.7673" stroke="white" stroke-width="12" stroke-miterlimit="10" stroke-linecap="round" stroke-linejoin="round"/>
<path d="M66.4362 139.904H292.595C300.488 139.904 306.887 146.303 306.887 154.196V251.236C306.887 259.129 300.488 265.528 292.595 265.528H66.4362C58.5432 265.528 52.1445 259.129 52.1445 251.236V154.195C52.1445 146.302 58.5432 139.904 66.4362 139.904Z" fill="#7593FF"/>
<path d="M66.4369 258.147C62.6262 258.147 59.5254 255.047 59.5254 251.235V154.195C59.5254 150.384 62.6262 147.283 66.4369 147.283H292.596C296.408 147.283 299.508 150.384 299.508 154.195V251.235C299.508 255.047 296.408 258.147 292.596 258.147H66.4369Z" fill="white"/>
<path d="M102.42 227.53H81.6113V242.934H102.42V227.53Z" fill="#9EA3FF"/>
<path d="M148.16 194H127.352V242.935H148.16V194Z" fill="#8084D0"/>
<path d="M193.898 217.261H173.09V242.934H193.898V217.261Z" fill="#6264A1"/>
<path d="M239.636 175.103H218.828V242.934H239.636V175.103Z" fill="#434572"/>
<path d="M285.375 199.021H264.566V242.934H285.375V199.021Z" fill="#252543"/>
<path d="M92.0156 215.64L137.754 174.022L183.493 204.161L229.231 157.808L274.97 186.724" stroke="#252543" stroke-width="2" stroke-miterlimit="10" stroke-linecap="round" stroke-linejoin="round"/>
<path d="M92.0153 218.467C93.577 218.467 94.8431 217.201 94.8431 215.64C94.8431 214.078 93.577 212.812 92.0153 212.812C90.4535 212.812 89.1875 214.078 89.1875 215.64C89.1875 217.201 90.4535 218.467 92.0153 218.467Z" fill="#252543"/>
<path d="M140.581 174.262C140.581 175.823 139.316 177.09 137.754 177.09C136.192 177.09 134.926 175.823 134.926 174.262C134.926 172.7 136.191 171.434 137.754 171.434C139.316 171.434 140.581 172.7 140.581 174.262Z" fill="#252543"/>
<path d="M186.32 204.161C186.32 205.722 185.053 206.989 183.492 206.989C181.93 206.989 180.664 205.722 180.664 204.161C180.664 202.6 181.93 201.333 183.492 201.333C185.053 201.333 186.32 202.599 186.32 204.161Z" fill="#252543"/>
<path d="M232.06 157.808C232.06 159.37 230.794 160.636 229.232 160.636C227.671 160.636 226.404 159.37 226.404 157.808C226.404 156.247 227.671 154.98 229.232 154.98C230.794 154.98 232.06 156.246 232.06 157.808Z" fill="#252543"/>
<path d="M277.796 186.724C277.796 188.285 276.53 189.552 274.968 189.552C273.407 189.552 272.141 188.286 272.141 186.724C272.141 185.162 273.407 183.896 274.968 183.896C276.531 183.897 277.796 185.162 277.796 186.724Z" fill="#252543"/>
<path d="M94.1267 155.251C64.6055 155.251 40.675 131.32 40.675 101.8C40.675 72.2791 64.6063 48.3478 94.1267 48.3478V29.6729C54.2921 29.6729 22 61.965 22 101.8C22 141.634 54.2921 173.926 94.1267 173.926C133.961 173.926 166.253 141.634 166.253 101.8H147.578C147.578 131.32 123.647 155.251 94.1267 155.251Z" fill="#11AF9F"/>
<path d="M63.7763 127.258C49.7164 110.497 51.9051 85.511 68.6666 71.4511C85.4274 57.3912 110.412 59.5799 124.473 76.3414L135.076 67.4471C116.103 44.8308 82.3885 41.8761 59.7722 60.8484C37.1559 79.8208 34.2012 113.536 53.1736 136.152C72.146 158.768 105.861 161.723 128.477 142.751L119.583 132.148C102.822 146.207 77.8362 144.018 63.7763 127.258Z" fill="#7593FF"/>
<path d="M105.499 113.174C111.781 106.892 111.781 96.707 105.499 90.4249C99.2168 84.1429 89.0317 84.1429 82.7496 90.4249C76.4676 96.707 76.4676 106.892 82.7496 113.174C89.0316 119.456 99.2168 119.456 105.499 113.174Z" fill="#9EA3FF"/>
<path d="M125.982 43.4878L149.471 20H201.507" stroke="#252543" stroke-width="2" stroke-miterlimit="10" stroke-linecap="round" stroke-linejoin="round"/>
<path d="M123.971 47.429C125.083 47.429 125.985 46.5274 125.985 45.4152C125.985 44.303 125.083 43.4014 123.971 43.4014C122.859 43.4014 121.957 44.303 121.957 45.4152C121.957 46.5274 122.859 47.429 123.971 47.429Z" stroke="#252543" stroke-width="2" stroke-miterlimit="10" stroke-linecap="round" stroke-linejoin="round"/>
<path d="M160.39 33.7145H204.915C206.617 33.7145 207.997 32.3346 207.997 30.6329C207.997 28.9312 206.617 27.5513 204.915 27.5513H160.39C158.689 27.5513 157.309 28.9312 157.309 30.6329C157.309 32.3346 158.689 33.7145 160.39 33.7145Z" fill="#7593FF"/>
<path d="M180.914 44.7651H204.914C206.616 44.7651 207.996 43.3851 207.996 41.6834C207.996 39.9817 206.616 38.6018 204.914 38.6018H180.914C179.212 38.6018 177.832 39.9817 177.832 41.6834C177.832 43.3858 179.212 44.7651 180.914 44.7651Z" fill="#7593FF"/>
<path d="M207.997 53.1895H168.904" stroke="#252543" stroke-width="2" stroke-miterlimit="10" stroke-linecap="round" stroke-linejoin="round"/>
<path d="M207.997 62.4099H168.904" stroke="#252543" stroke-width="2" stroke-miterlimit="10" stroke-linecap="round" stroke-linejoin="round"/>
<path d="M319.066 220.869C318.87 220.868 318.674 220.864 318.481 220.86C317.593 220.844 316.795 220.83 316.289 221.05L316.478 221.569C316.844 221.386 317.699 221.4 318.47 221.414C318.666 221.418 318.865 221.422 319.063 221.423C319.157 221.423 319.224 221.436 319.273 221.454L319.37 220.906C319.281 220.884 319.181 220.869 319.066 220.869Z" fill="#5E5E5E"/>
<path d="M350.025 143.79L345.361 143.901L343.999 143.932C343.999 143.98 343.995 144.077 343.99 144.215C343.974 144.503 343.947 144.976 343.909 145.573C343.682 149.187 343.106 157.401 343.106 157.401L338.026 183.905C338.026 183.905 333.225 184.645 330.639 186.03C328.053 187.415 326.944 190.74 327.684 190.647C328.422 190.554 331.47 187.876 334.056 187.692C335.698 187.574 335.812 188.538 335.465 189.423L337.609 190.001C339.665 188.629 341.704 187.055 341.905 185.383C341.926 185.213 341.992 184.914 342.097 184.505C342.16 184.261 342.236 183.98 342.325 183.663L342.336 183.624C344.145 177.184 350.956 156.754 350.956 156.754L352.046 147.253L352.447 143.759L352.449 143.733L350.025 143.79Z" fill="white"/>
<path d="M331.442 290.782C331.436 290.957 331.418 291.131 331.386 291.307C331.017 293.415 329.008 294.824 326.9 294.454C324.791 294.084 323.382 292.076 323.752 289.968C323.812 289.625 323.916 289.303 324.056 289.002C324.776 287.449 326.474 286.51 328.239 286.82C330.172 287.16 331.517 288.876 331.442 290.782Z" fill="#FACF55"/>
<path d="M329.702 291.772C330.336 290.595 329.897 289.126 328.719 288.491C327.542 287.856 326.073 288.296 325.438 289.473C324.804 290.651 325.243 292.12 326.421 292.754C327.598 293.389 329.067 292.949 329.702 291.772Z" fill="white"/>
<path opacity="0.4" d="M331.443 290.782L329.983 290.43L325.517 289.354L324.057 289.002C324.777 287.449 326.475 286.51 328.24 286.82C330.172 287.16 331.518 288.876 331.443 290.782Z" fill="#444444"/>
<path d="M306.332 286.999C306.322 287.053 306.312 287.106 306.3 287.159C305.859 289.178 303.899 290.507 301.845 290.147C299.737 289.777 298.328 287.768 298.698 285.66C298.778 285.203 298.934 284.779 299.153 284.399C299.342 284.071 299.576 283.775 299.846 283.521C300.706 282.704 301.928 282.292 303.184 282.513C303.226 282.52 303.268 282.528 303.308 282.538C304.585 282.802 305.592 283.676 306.075 284.8C306.364 285.47 306.468 286.228 306.332 286.999Z" fill="#FACF55"/>
<path d="M303.07 288.698C304.372 288.389 305.176 287.084 304.867 285.782C304.559 284.481 303.253 283.676 301.952 283.985C300.651 284.294 299.846 285.599 300.155 286.9C300.464 288.202 301.769 289.006 303.07 288.698Z" fill="white"/>
<path opacity="0.4" d="M306.075 284.8C306.363 285.47 306.467 286.228 306.331 286.999C306.321 287.053 306.312 287.106 306.299 287.159L304.917 286.625L300.534 284.934L299.153 284.399C299.341 284.071 299.575 283.775 299.845 283.521C299.834 283.517 299.823 283.511 299.812 283.507L299.679 283.449C299.48 283.36 299.287 283.263 299.098 283.158C299.051 283.132 299.004 283.106 298.959 283.078C298.873 283.028 298.788 282.975 298.705 282.923C298.952 282.036 299.258 280.963 299.319 280.882C299.367 280.819 301.221 281.147 303.207 281.519C305.534 281.956 308.044 282.455 308.044 282.455L308.147 285.164L306.075 284.8Z" fill="#444444"/>
<path d="M343.256 249.831L339.631 249.195C338.741 249.039 338.14 248.182 338.296 247.292L338.683 245.089C338.839 244.198 339.696 243.598 340.586 243.754L344.211 244.391C345.101 244.547 345.702 245.403 345.546 246.293L345.159 248.497C345.003 249.387 344.146 249.988 343.256 249.831Z" fill="#E59D29"/>
<path d="M339.285 272.454L335.66 271.818C334.77 271.661 334.169 270.805 334.326 269.915L334.712 267.711C334.869 266.821 335.725 266.22 336.615 266.377L340.24 267.013C341.131 267.169 341.731 268.026 341.575 268.916L341.188 271.119C341.032 272.01 340.176 272.61 339.285 272.454Z" fill="#E59D29"/>
<path d="M345.938 246.867L343.65 246.465L343.438 247.674L345.726 248.075L345.938 246.867Z" fill="#FACF55"/>
<path d="M341.967 269.488L339.68 269.087L339.468 270.295L341.755 270.697L341.967 269.488Z" fill="#FACF55"/>
<path d="M321.198 196.28L316.523 222.91L318.936 223.333L323.611 196.703L321.198 196.28Z" fill="#99BDE0"/>
<path d="M340.349 199.626L337.936 199.202L333.261 225.833L335.674 226.256L340.349 199.626Z" fill="#99BDE0"/>
<path d="M323.62 196.695L323.122 199.533L320.961 197.675L321.207 196.272L323.62 196.695Z" fill="#6994B7"/>
<path d="M340.356 199.633L339.858 202.471L337.697 200.613L337.944 199.21L340.356 199.633Z" fill="#6994B7"/>
<path d="M346.375 234.775L345.846 237.788L344.661 244.54L344.301 246.587L344.089 247.797L343.73 249.844L340.69 267.162L340.331 269.211L340.119 270.419L339.759 272.466L337.944 282.805C337.915 282.972 337.879 283.138 337.839 283.302C337.827 283.356 337.813 283.41 337.797 283.464C337.784 283.518 337.768 283.572 337.752 283.625C337.737 283.679 337.72 283.731 337.703 283.784C337.683 283.85 337.66 283.916 337.637 283.981C337.624 284.019 337.611 284.058 337.595 284.097C337.577 284.148 337.558 284.199 337.537 284.249C337.518 284.3 337.497 284.352 337.475 284.402C337.454 284.451 337.432 284.503 337.41 284.551C337.388 284.601 337.365 284.651 337.342 284.699C337.249 284.896 337.148 285.086 337.039 285.272C337.012 285.317 336.984 285.363 336.957 285.409C336.646 285.91 336.278 286.37 335.864 286.779C335.828 286.815 335.792 286.849 335.754 286.885C335.753 286.885 335.752 286.887 335.75 286.888C335.677 286.959 335.602 287.027 335.527 287.092C335.44 287.168 335.353 287.24 335.263 287.31C335.224 287.341 335.186 287.371 335.148 287.4C334.954 287.549 334.751 287.687 334.544 287.815C334.456 287.869 334.369 287.92 334.28 287.97C334.236 287.995 334.19 288.02 334.146 288.043C334.1 288.068 334.056 288.092 334.01 288.114C333.965 288.137 333.919 288.16 333.873 288.182C333.827 288.205 333.782 288.226 333.735 288.247C333.687 288.269 333.64 288.29 333.595 288.309C333.548 288.33 333.5 288.349 333.452 288.369C333.405 288.388 333.358 288.408 333.309 288.426C333.226 288.459 333.143 288.489 333.058 288.517C333.009 288.534 332.96 288.55 332.91 288.566C332.84 288.589 332.768 288.611 332.696 288.631C332.657 288.643 332.617 288.654 332.576 288.664C332.079 288.798 331.564 288.88 331.036 288.906C330.497 288.933 329.946 288.899 329.39 288.802L329.086 288.748L327.553 288.48L326.787 288.345L324.743 287.986L307.832 285.018L305.759 284.653L303.715 284.295H303.713L302.949 284.16L301.418 283.892L301.112 283.838C301.056 283.828 301 283.817 300.944 283.806C300.889 283.795 300.834 283.784 300.778 283.771C300.724 283.759 300.669 283.746 300.615 283.732C300.451 283.692 300.29 283.648 300.133 283.596C300.08 283.58 300.027 283.562 299.975 283.544C299.923 283.527 299.872 283.509 299.822 283.49C299.724 283.454 299.627 283.415 299.53 283.375C299.519 283.371 299.508 283.365 299.497 283.361L299.364 283.303C299.164 283.214 298.972 283.117 298.783 283.012C298.736 282.986 298.689 282.959 298.643 282.932C298.557 282.882 298.473 282.829 298.39 282.776C298.153 282.623 297.927 282.458 297.711 282.282C297.674 282.251 297.638 282.221 297.602 282.189C297.546 282.142 297.492 282.095 297.438 282.047C297.392 282.006 297.35 281.965 297.305 281.923C297.169 281.794 297.039 281.66 296.915 281.522C296.88 281.484 296.847 281.447 296.813 281.408C296.633 281.202 296.466 280.985 296.311 280.76C296.288 280.728 296.266 280.697 296.245 280.666C296.212 280.616 296.18 280.566 296.148 280.516C296.107 280.452 296.068 280.387 296.029 280.321C295.95 280.188 295.874 280.05 295.805 279.912C295.772 279.848 295.74 279.784 295.709 279.719C295.643 279.581 295.582 279.44 295.525 279.295C295.499 279.232 295.474 279.167 295.45 279.101C295.431 279.052 295.413 278.999 295.396 278.948C295.379 278.899 295.363 278.849 295.348 278.801C295.284 278.603 295.228 278.401 295.183 278.197C295.169 278.14 295.158 278.083 295.145 278.025C295.14 278 295.136 277.974 295.13 277.948C295.118 277.88 295.105 277.81 295.094 277.741C295.093 277.73 295.09 277.719 295.089 277.708C295.079 277.643 295.069 277.576 295.061 277.51C295.05 277.432 295.041 277.355 295.035 277.277C295.028 277.205 295.021 277.134 295.017 277.062C295.015 277.05 295.015 277.037 295.014 277.024C295.01 276.952 295.006 276.88 295.004 276.806C295.001 276.729 295 276.65 295 276.571C295 276.147 295.036 275.717 295.112 275.285L295.641 272.274L303.543 227.256C304.248 223.239 308.077 220.553 312.097 221.258L313.933 221.581L316.68 222.063L319.091 222.487L333.415 225.001L335.83 225.425L338.538 225.9L340.375 226.223C344.395 226.928 347.08 230.758 346.375 234.775Z" fill="#FACF55"/>
<path d="M313.934 221.581C312.66 226.65 308.132 230.17 303.016 230.269L303.544 227.257C304.25 223.239 308.078 220.553 312.097 221.258L313.934 221.581Z" fill="#E59D29"/>
<path d="M346.375 234.775L345.847 237.788C341.07 235.952 338.011 231.1 338.54 225.9L340.377 226.222C344.396 226.928 347.081 230.758 346.375 234.775Z" fill="#E59D29"/>
<path d="M302.974 283.89C302.967 283.98 302.958 284.07 302.949 284.161L301.418 283.892L301.112 283.838C301.056 283.828 301 283.817 300.944 283.806C300.889 283.795 300.833 283.784 300.778 283.771C300.724 283.759 300.669 283.746 300.615 283.733C300.451 283.692 300.29 283.648 300.133 283.597C300.08 283.58 300.027 283.562 299.975 283.544C299.923 283.528 299.872 283.51 299.822 283.49C299.724 283.454 299.627 283.415 299.53 283.375C299.519 283.371 299.508 283.366 299.497 283.361L299.364 283.303C299.164 283.215 298.972 283.118 298.783 283.012C298.736 282.986 298.689 282.96 298.643 282.932C298.557 282.882 298.473 282.829 298.39 282.777C298.153 282.623 297.927 282.458 297.711 282.282C297.674 282.252 297.638 282.221 297.602 282.19C297.546 282.142 297.492 282.095 297.438 282.047C297.392 282.007 297.35 281.965 297.305 281.924C297.169 281.795 297.039 281.66 296.915 281.522C296.88 281.484 296.847 281.447 296.813 281.408C296.633 281.202 296.466 280.986 296.311 280.76C296.288 280.728 296.266 280.698 296.245 280.666C296.212 280.616 296.18 280.566 296.148 280.516C296.107 280.453 296.068 280.387 296.029 280.321C295.95 280.188 295.874 280.051 295.805 279.912C295.772 279.848 295.74 279.785 295.709 279.72C295.643 279.581 295.582 279.44 295.525 279.296C295.499 279.232 295.474 279.167 295.45 279.102C295.431 279.052 295.413 278.999 295.396 278.948C295.379 278.9 295.363 278.85 295.348 278.801C295.284 278.603 295.228 278.401 295.183 278.197C295.169 278.14 295.158 278.084 295.145 278.025C295.14 278 295.136 277.974 295.13 277.948C295.118 277.88 295.105 277.811 295.094 277.741C295.093 277.73 295.09 277.719 295.089 277.708C295.079 277.643 295.069 277.577 295.061 277.51C295.05 277.432 295.041 277.355 295.035 277.277C295.028 277.205 295.021 277.135 295.017 277.063C295.015 277.05 295.015 277.038 295.014 277.024C295.01 276.952 295.006 276.88 295.004 276.806C295.001 276.729 295 276.65 295 276.571C295 276.147 295.036 275.718 295.112 275.285L295.641 272.274C299.548 273.776 302.307 277.295 302.892 281.374C302.94 281.709 302.973 282.05 302.991 282.392C303.018 282.886 303.012 283.386 302.974 283.89Z" fill="#E59D29"/>
<path d="M338.473 279.792L337.945 282.804C337.239 286.821 333.411 289.508 329.392 288.802L327.555 288.48C328.829 283.41 333.357 279.89 338.473 279.792Z" fill="#E59D29"/>
<path d="M305.421 273.99C303.47 273.647 302.153 271.77 302.496 269.818L308.724 234.339C309.066 232.387 310.943 231.07 312.895 231.413C314.847 231.755 316.164 233.633 315.821 235.585L309.593 271.064C309.251 273.016 307.373 274.332 305.421 273.99Z" fill="#E59D29"/>
<path d="M317.058 276.032C315.106 275.69 313.79 273.812 314.132 271.861L320.36 236.381C320.703 234.429 322.58 233.113 324.532 233.455C326.484 233.798 327.8 235.675 327.458 237.627L321.23 273.107C320.887 275.058 319.01 276.375 317.058 276.032Z" fill="#E59D29"/>
<path d="M328.693 278.075C326.741 277.733 325.424 275.855 325.767 273.903L331.995 238.424C332.338 236.472 334.215 235.156 336.167 235.498C338.119 235.841 339.435 237.718 339.093 239.67L332.865 275.149C332.522 277.101 330.645 278.418 328.693 278.075Z" fill="#E59D29"/>
<path d="M324.176 197.232L324.788 193.745C324.932 192.926 325.716 192.376 326.535 192.52L336.59 194.285C337.409 194.428 337.959 195.212 337.815 196.032L337.203 199.518L340.879 200.164L341.491 196.677C341.991 193.831 340.081 191.108 337.235 190.609L327.181 188.844C324.334 188.344 321.612 190.253 321.112 193.1L320.5 196.586L324.176 197.232Z" fill="#FACF55"/>
<path d="M362.195 108.872C362.195 108.872 357.429 111.072 355.313 103.971C355.054 103.104 354.835 102.097 354.669 100.929C353.765 94.5816 355.002 91.638 356.162 90.2943C356.957 89.3704 357.716 89.2014 357.716 89.2014C357.716 89.2014 366.443 91.0479 370.783 99.7292C375.123 108.409 362.195 108.872 362.195 108.872Z" fill="white"/>
<path d="M355.313 103.971C355.054 103.104 354.835 102.097 354.669 100.929C353.765 94.5817 355.002 91.6381 356.162 90.2944L356.652 90.2307L357.298 91.8002C357.256 92.0926 354.146 93.7673 355.313 103.971Z" fill="#BACAE2"/>
<path d="M396.599 150.244C396.461 150.59 378.245 169.776 378.245 169.983C378.245 170.029 378.141 169.788 377.977 169.385C377.542 168.309 376.691 166.073 376.3 165.048C376.269 164.965 376.24 164.89 376.217 164.825C376.141 164.627 376.098 164.512 376.098 164.512L376.394 164.099L389.188 146.296L387.716 143.179L385.851 139.235L385.649 138.807L387.673 137.678L391.586 135.496L392.474 135.002L393.683 134.327C393.683 134.327 393.721 134.452 393.789 134.676C393.827 134.806 393.879 134.97 393.937 135.161C394.044 135.502 394.181 135.934 394.341 136.429C395.064 138.657 396.277 142.164 397.43 144.426C399.231 147.958 396.738 149.897 396.599 150.244Z" fill="white"/>
<path d="M390.59 146.472L376.3 165.048L376.098 165.311L376.217 164.825L376.394 164.099L389.188 146.296L385.649 138.807L387.673 137.678L390.59 146.472Z" fill="#BACAE2"/>
<path d="M394.342 136.429L387.716 143.179L385.852 139.235L393.937 135.161C394.044 135.502 394.181 135.934 394.342 136.429Z" fill="#BACAE2"/>
<path d="M352.45 143.733L350.956 156.754C350.956 156.754 344.145 177.184 342.336 183.624L349.679 156.445C349.679 156.445 349.938 146.113 350.025 143.79L352.45 143.733Z" fill="#BACAE2"/>
<path d="M352.447 143.759L352.047 147.253C350.559 146.943 345.379 145.861 343.91 145.573C343.948 144.976 343.975 144.503 343.991 144.215L352.447 143.759Z" fill="#BACAE2"/>
<path d="M395.699 287.798H389.881C389.881 287.798 389.41 285.353 388.659 281.703C386.9 273.148 383.602 257.975 381.223 252.197C377.829 243.955 378.314 240.146 376.86 231.765C375.911 226.296 373.959 220.287 372.716 216.771C372.056 214.9 371.596 213.735 371.596 213.735L374.453 213.138L380.457 211.885L385.077 210.921L385.771 210.776C385.771 210.776 385.729 211.151 385.677 211.813C385.573 213.092 385.427 215.436 385.458 218.205C385.473 219.647 385.537 221.204 385.678 222.785C386.232 228.973 387.942 233.358 387.942 233.358C391.365 240.79 393.821 264.857 394.969 278.37C395.447 284 395.699 287.798 395.699 287.798Z" fill="white"/>
<path d="M394.97 278.37L394.238 278.485C394.238 278.485 389.805 249.949 389.736 247.109C389.667 244.27 386.827 237.066 384.749 230.209C382.671 223.353 383.641 212.271 383.648 212.025L385.078 210.921L385.772 210.776C385.772 210.776 385.125 216.597 385.679 222.785C386.233 228.972 387.942 233.358 387.942 233.358C391.365 240.79 393.821 264.857 394.97 278.37Z" fill="#BACAE2"/>
<path d="M385.458 218.205C382.115 217.842 375.384 217.105 372.716 216.771C372.056 214.9 371.596 213.735 371.596 213.735L374.453 213.138L380.457 211.886L385.677 211.814C385.573 213.092 385.427 215.436 385.458 218.205Z" fill="#BACAE2"/>
<path d="M364.986 218.417C364.029 224.284 362.412 232.244 363.562 240.007C364.721 247.828 363.523 267.97 362.692 279.454C362.331 284.443 362.038 287.798 362.038 287.798C362.038 287.798 357.744 287.798 356.774 287.798C356.633 287.798 356.435 286.78 356.197 285.038C354.798 274.78 352.064 239.453 352.064 239.453L350.459 216.485L350.264 213.688C350.264 213.688 350.309 213.667 350.397 213.628C350.591 213.541 350.989 213.366 351.537 213.138H365.603C365.575 214.577 365.321 216.37 364.986 218.417Z" fill="white"/>
<path d="M363.562 240.007C364.722 247.828 363.523 267.97 362.692 279.453C361.713 279.322 361.085 279.224 361.085 279.224C361.085 279.224 361.824 256.044 362.101 252.904C362.378 249.765 361.454 237.482 360.808 235.081C360.161 232.679 362.655 213.472 362.748 212.732L365.571 212.025C366.02 217.151 361.9 228.787 363.562 240.007Z" fill="#BACAE2"/>
<path d="M365.602 213.138C365.575 214.577 365.321 216.369 364.986 218.417L350.459 216.484L350.264 213.688C350.264 213.688 350.309 213.667 350.397 213.628C350.591 213.541 350.989 213.366 351.537 213.138H365.602Z" fill="#BACAE2"/>
<path d="M359.953 110.409C359.953 110.686 361.148 116.748 361.148 116.748L369.419 116.55L359.953 110.409Z" fill="white"/>
<path d="M386.156 292.823C386.156 292.823 385.987 294.644 388.072 294.506C390.157 294.368 396.807 294.216 397.487 293.726C398.168 293.235 398.728 291.616 398.324 290.217C397.919 288.818 386.156 292.823 386.156 292.823Z" fill="#15315E"/>
<path d="M398.307 290.984C398.242 291.298 398.164 291.571 398.094 291.8C397.987 292.128 397.886 292.37 397.809 292.503C397.483 293.06 395.706 291.745 393.99 292.8C392.284 293.843 388.522 294.189 387.235 293.964C386.142 293.77 385.571 291.926 386.714 290.951C386.916 290.767 387.184 290.621 387.519 290.513C389.656 289.837 388.813 285.84 388.908 283.246C389.003 280.653 385.253 278.592 386.32 276.468C386.65 275.804 387.485 275.332 388.469 275.01C390.624 274.29 393.518 274.248 393.518 274.248C393.518 274.248 394.568 274.274 395.618 274.311C396.669 274.359 397.003 276.005 397.003 276.005C397.003 276.005 397.586 282.532 398.269 286.057C398.675 288.148 398.542 289.846 398.307 290.984Z" fill="#FACF55"/>
<path d="M398.819 290.74C398.656 291.51 398.393 292.497 398.268 292.718C397.942 293.275 395.706 291.745 393.99 292.8C392.284 293.843 388.522 294.189 387.235 293.965C386.142 293.77 385.571 291.926 386.714 290.952C386.646 291.373 386.691 292.055 387.593 292.112C388.903 292.186 393.189 291.367 394.089 290.911C394.999 290.444 398.464 289.417 398.819 290.74Z" fill="#15315E"/>
<path d="M386.786 213.642L371.457 214.103L371.262 213.46L369.609 208.008L369.608 208.012C369.572 208.194 368.41 214.017 368.41 214.38C368.41 214.47 367.311 214.565 365.642 214.653C362.739 214.81 358.108 214.95 354.514 215.02C351.612 215.079 349.388 215.09 349.293 215.027C349.016 214.843 347.724 195.84 347.17 186.324C347.168 186.318 347.168 186.313 347.168 186.307C347.095 185.037 347.059 183.926 347.052 182.953C347.037 180.857 347.156 179.403 347.324 178.394C347.659 176.364 348.185 176.148 348.185 176.148L348.922 176.121L367.646 175.437L381.061 174.948C381.178 175.096 381.292 175.255 381.406 175.429C381.942 176.253 382.426 177.349 382.861 178.649C383.319 180.017 383.725 181.608 384.084 183.345C386.52 195.149 386.786 213.642 386.786 213.642Z" fill="#1F3A6F"/>
<path d="M382.861 178.649C382.417 179.361 381.539 180.1 379.785 180.456C376.573 181.107 352.718 184.154 347.052 182.953C347.037 180.858 347.156 179.403 347.324 178.395C347.843 177.559 348.421 176.765 348.922 176.121C349.633 175.204 350.187 174.592 350.187 174.592C350.187 174.592 365.794 175.378 366.487 175.423C366.587 175.43 367.004 175.434 367.646 175.437C370.518 175.452 377.883 175.437 381.406 175.429C381.942 176.253 382.426 177.349 382.861 178.649Z" fill="#072542"/>
<path d="M394.825 135.106L385.451 140.04L382.021 131.751C382.021 131.751 382.021 131.752 382.02 131.753C381.929 131.993 376.098 147.397 376.029 155.369C375.973 161.762 378.901 168.798 380.099 171.406C380.406 172.076 380.6 172.455 380.6 172.455C382.354 174.394 382.631 176.517 380.6 178.087C378.568 179.658 348 182.613 347.446 180.026C347.428 179.94 347.41 179.852 347.395 179.759C347.295 179.163 347.249 178.418 347.267 177.549C347.327 174.469 348.173 169.852 350.125 164.974C350.657 163.644 351.095 162.011 351.455 160.253C352.847 153.466 353.08 144.841 353.08 144.841H343.521C343.521 144.841 344.675 138.562 345.322 125.818C345.695 118.48 353.721 115.949 360.463 115.122C365.432 114.513 369.703 114.828 369.703 114.828C369.987 114.768 370.269 114.716 370.55 114.676C384.699 112.591 394.825 135.106 394.825 135.106Z" fill="#FACF55"/>
<path d="M351.455 160.253C352.847 153.466 353.08 144.841 353.08 144.841C353.097 144.44 354.852 135.898 354.852 135.898C354.852 135.898 356.953 146.051 351.455 160.253Z" fill="#E59D29"/>
<path d="M376.03 155.369C375.975 161.762 378.902 168.798 380.1 171.406C378.971 169.735 377.825 167.795 376.692 165.542C369.266 150.781 381.838 132.025 382.021 131.753C381.93 131.993 376.099 147.397 376.03 155.369Z" fill="#E59D29"/>
<path d="M369.609 208.012C369.572 208.194 368.41 214.017 368.41 214.38C368.41 214.47 367.312 214.565 365.643 214.653L369.609 208.012Z" fill="#072542"/>
<path d="M354.515 215.02C351.612 215.079 349.388 215.09 349.294 215.027C349.016 214.843 347.724 195.84 347.17 186.324L354.515 215.02Z" fill="#072542"/>
<path d="M351.546 292.572C351.546 292.572 351.205 294.37 353.293 294.43C355.382 294.491 362.016 294.973 362.74 294.549C363.464 294.125 364.177 292.568 363.907 291.137C363.637 289.706 351.546 292.572 351.546 292.572Z" fill="#15315E"/>
<path d="M363.817 291.899C363.723 292.205 363.619 292.469 363.527 292.691C363.39 293.007 363.266 293.238 363.177 293.364C362.799 293.886 361.155 292.409 359.347 293.295C357.55 294.172 353.772 294.158 352.512 293.811C351.442 293.513 351.049 291.624 352.28 290.763C352.498 290.598 352.779 290.478 353.123 290.403C355.314 289.933 354.856 285.874 355.198 283.301C355.539 280.728 352.002 278.32 353.266 276.307C353.658 275.678 354.534 275.288 355.544 275.061C357.758 274.549 360.644 274.782 360.644 274.782C360.644 274.782 361.686 274.908 362.728 275.046C363.77 275.193 363.945 276.863 363.945 276.863C363.945 276.863 363.904 283.416 364.248 286.991C364.453 289.11 364.159 290.788 363.817 291.899Z" fill="#FACF55"/>
<path d="M364.35 291.705C364.115 292.456 363.758 293.412 363.614 293.621C363.236 294.144 361.155 292.409 359.347 293.295C357.55 294.172 353.772 294.158 352.512 293.812C351.442 293.514 351.049 291.624 352.28 290.763C352.172 291.176 352.152 291.859 353.045 292.002C354.341 292.2 358.686 291.792 359.626 291.425C360.576 291.047 364.122 290.353 364.35 291.705Z" fill="#15315E"/>
<path d="M359.261 175.908C358.694 176.894 349.548 179.681 347.395 179.759C347.295 179.163 347.25 178.418 347.268 177.55C347.779 178.058 348.816 178.36 350.897 177.864C355.694 176.723 359.868 174.852 359.261 175.908Z" fill="#E59D29"/>
<path d="M347.554 177.737C347.554 177.737 346.313 177.451 347.698 174.89C349.084 172.329 348.16 177.757 348.149 177.826C348.137 177.896 347.554 177.737 347.554 177.737Z" fill="#F4B545"/>
<path d="M376.738 119.252C376.091 120.821 372.859 119.875 371.312 119.113C369.764 118.351 366.902 119.529 363.015 118.605C360.129 117.919 360.235 116.074 360.462 115.122C365.431 114.513 369.702 114.829 369.702 114.829C369.986 114.768 370.269 114.716 370.55 114.676C372.779 115.736 377.227 118.063 376.738 119.252Z" fill="#E59D29"/>
<path d="M371.665 118.591C368.416 116.814 363.54 119.864 360.252 111.608C359.826 110.536 359.425 109.274 359.06 107.786C355.874 94.8341 356.591 94.9933 355.666 94.2107C355.281 93.8851 354.073 94.0029 354.419 91.1632C354.765 88.3234 359.752 80.8431 369.934 85.6915C374.343 87.7915 375.505 91.8156 375.685 96.3315C375.924 102.242 374.481 109 376.444 113.396C379.908 121.154 375.336 120.6 371.665 118.591Z" fill="#1F3A6F"/>
<path d="M386.786 213.642L371.457 214.103L371.262 213.46C372.551 213.237 374.847 212.769 378.93 211.813C386.33 210.082 384.971 191.163 384.084 183.345C386.52 195.149 386.786 213.642 386.786 213.642Z" fill="#072542"/>
<path d="M371.665 118.591C368.415 116.814 363.539 119.864 360.252 111.608C368.555 117.486 375.279 114.868 374.106 108.609C373.203 103.79 374.748 98.8 375.685 96.3315C375.923 102.242 374.481 109 376.444 113.396C379.907 121.154 375.336 120.6 371.665 118.591Z" fill="#15315E"/>
<path d="M315.869 221.381C315.692 221.649 315.7 222.001 315.892 222.427C316.549 223.887 317.095 224.195 317.854 224.499C317.996 224.555 318.157 224.486 318.214 224.344C318.271 224.202 318.202 224.041 318.06 223.984C317.41 223.724 316.982 223.499 316.397 222.2C316.323 222.034 316.25 221.809 316.332 221.686C316.362 221.64 316.414 221.602 316.479 221.569L316.289 221.05C316.11 221.128 315.966 221.234 315.869 221.381Z" fill="#5E5E5E"/>
<path d="M315.869 228.274L316.532 239.906H319.175L315.869 228.274Z" fill="#E59D29"/>
<path d="M322.865 227.004L315.869 228.274L316.6 223.994L320.676 223.254L322.865 227.004Z" fill="#3B82F4"/>
<path d="M322.859 227.001L315.863 228.271L318.149 240.863L325.145 239.593L322.859 227.001Z" fill="white"/>
<path d="M322.465 227.827L316.523 228.906L316.671 229.717L322.612 228.638L322.465 227.827Z" fill="#D7E3F4"/>
<path d="M322.732 229.302L316.791 230.381L316.938 231.192L322.879 230.113L322.732 229.302Z" fill="#D7E3F4"/>
<path d="M320.197 231.036L319.771 231.113L321.259 239.31L321.685 239.233L320.197 231.036Z" fill="#D7E3F4"/>
<path d="M323.376 232.846L320.938 233.288L320.995 233.608L323.434 233.165L323.376 232.846Z" fill="#D7E3F4"/>
<path d="M320.249 236.131L317.811 236.573L317.869 236.893L320.307 236.45L320.249 236.131Z" fill="#D7E3F4"/>
<path d="M319.896 221.3C319.815 221.15 319.659 220.979 319.369 220.906L319.273 221.454C319.366 221.488 319.396 221.54 319.409 221.565C319.664 222.033 318.962 223.521 318.382 224.427C318.299 224.556 318.337 224.727 318.465 224.81C318.512 224.839 318.563 224.853 318.615 224.853C318.706 224.853 318.795 224.808 318.848 224.726C319.111 224.315 320.397 222.222 319.896 221.3Z" fill="#5E5E5E"/>
<path d="M381.081 95.3698C383.228 89.6167 378.625 82.586 370.8 79.6661C362.975 76.7463 354.891 79.043 352.744 84.7961C350.598 90.5491 355.201 97.5799 363.026 100.5C370.851 103.42 378.934 101.123 381.081 95.3698Z" fill="#FACF55"/>
<path d="M376.201 90.9302C376.216 90.8704 376.23 90.8105 376.243 90.7505L378.093 82.7656L359.433 77.7007L357.525 85.7185L357.575 85.7328C357.001 89.2053 359.859 93.1049 364.436 94.813C369.457 96.6869 374.644 95.2133 376.022 91.5218C376.083 91.3581 376.132 91.1923 376.176 91.0257L376.179 91.0264L376.201 90.9302Z" fill="#E59D29"/>
<path d="M377.877 83.4693C379.254 79.7777 376.3 75.2662 371.279 73.3925C366.258 71.5189 361.071 72.9927 359.693 76.6843C358.316 80.376 361.27 84.8875 366.291 86.7611C371.312 88.6348 376.499 87.161 377.877 83.4693Z" fill="white"/>
<path d="M335.466 189.423C335.465 189.424 335.465 189.425 335.465 189.425C335.265 189.933 334.914 190.414 334.611 190.648C333.78 191.294 332.856 193.14 335.349 191.478C336.037 191.019 336.824 190.526 337.607 190.002C337.608 190.002 337.609 190.002 337.609 190.001L335.466 189.423Z" fill="white"/>
<defs>
<linearGradient id="paint0_linear_1165_1710" x1="218.5" y1="302" x2="218.5" y2="0" gradientUnits="userSpaceOnUse">
<stop stop-color="#E8EDFF" stop-opacity="0"/>
<stop offset="1" stop-color="#E8EDFF"/>
</linearGradient>
</defs>
</svg>
