<svg width="130" height="130" viewBox="0 0 130 130" fill="none" xmlns="http://www.w3.org/2000/svg">
<g filter="url(#filter0_d_230_65)">
<path d="M115 65C115 37.3858 92.6142 15 65 15C37.3858 15 15 37.3858 15 65C15 92.6142 37.3858 115 65 115C92.6142 115 115 92.6142 115 65Z" fill="white"/>
</g>
<g clip-path="url(#clip0_230_65)">
<path d="M66.6926 68.2936V61.5354H69.712V58.4546H66.6926V54H63.5521V56.1826C63.5521 57.4686 62.8644 58.4546 61.3099 58.4546H60.5625V61.5354H63.2538V68.8621C63.2538 71.5815 64.9276 73.1973 67.619 73.1973C68.8752 73.1973 69.5331 72.9587 69.7419 72.8675V69.9972C69.5927 70.0268 69.0243 70.1165 68.5453 70.1165C67.2593 70.1165 66.6926 69.5796 66.6926 68.2936Z" fill="#00205B"/>
<path d="M37.3266 70.2957C35.0529 70.2957 33.4089 68.5009 33.4089 65.7201C33.4089 62.9989 35.0529 61.2041 37.3266 61.2041C39.6583 61.2041 41.2426 62.9989 41.2426 65.7201C41.2426 68.5009 39.6285 70.2957 37.3266 70.2957ZM31.2053 78.6926C32.6615 78.6926 33.3563 77.8259 33.4387 76.6591V71.3712C34.1862 72.4783 35.7704 73.3748 37.8653 73.3748C42.0514 73.3748 44.7112 70.0852 44.7112 65.7201C44.7112 61.4146 42.29 58.125 37.9846 58.125C35.7406 58.125 34.0668 59.1707 33.3493 60.4269V58.4548H30V78.6978" fill="#00205B"/>
<path d="M93.377 70.3575C91.2524 70.3575 89.3084 68.7416 89.3084 65.7222C89.3084 62.7028 91.2524 61.1465 93.377 61.1465C95.5297 61.1465 97.4421 62.7028 97.4421 65.7222C97.4421 68.7714 95.5297 70.3575 93.377 70.3575ZM93.377 58.0078C89.04 58.0078 85.8398 61.2658 85.8398 65.7222C85.8398 70.2084 89.04 73.4664 93.377 73.4664C97.7421 73.4664 100.941 70.2084 100.941 65.7222C100.941 61.2658 97.7421 58.0078 93.377 58.0078Z" fill="#00205B"/>
<path d="M49.4155 64.1379C49.5348 62.5835 50.791 60.9079 52.9735 60.9079C55.3666 60.9079 56.5018 62.4326 56.5614 64.1379H49.4155ZM60.0598 65.5731C60.0598 60.9676 57.4299 58.0078 52.9437 58.0078C49.2663 58.0078 45.8574 61.0571 45.8574 65.6625C45.8574 70.5961 49.3558 73.4664 53.3034 73.4664C56.8018 73.4664 59.1036 71.4031 59.8809 68.8627L59.9896 68.4504H56.7456C56.1912 69.6259 55.1385 70.4768 53.3034 70.4768C51.1506 70.4768 49.4155 68.8925 49.326 66.6801H59.9703C60.0001 66.6187 60.0598 66.1415 60.0598 65.5731Z" fill="#00205B"/>
<path d="M84.8022 67.6065H81.6161C81.2863 68.7118 80.2406 70.2978 77.9686 70.2978C75.7843 70.2978 73.9017 68.6521 73.9017 65.7222C73.9017 62.7922 75.7843 61.2062 77.9072 61.2062C80.1213 61.2062 81.1073 62.6414 81.4372 63.9274L81.4512 63.9221L81.4389 63.9326H84.6935C84.825 63.9326 84.5864 62.9571 84.5461 62.7922L84.5447 62.787L84.5395 62.7659C83.9324 60.4413 81.7815 58.0078 77.8795 58.0078C73.6916 58.0078 70.4336 61.236 70.4336 65.7222C70.4336 70.1469 73.6916 73.4664 77.969 73.4664C81.7955 73.4664 83.9798 70.9856 84.6658 68.7118C84.6658 68.7118 84.9448 67.6065 84.8027 67.6065" fill="#00205B"/>
</g>
<defs>
<filter id="filter0_d_230_65" x="0" y="0" width="130" height="130" filterUnits="userSpaceOnUse" color-interpolation-filters="sRGB">
<feFlood flood-opacity="0" result="BackgroundImageFix"/>
<feColorMatrix in="SourceAlpha" type="matrix" values="0 0 0 0 0 0 0 0 0 0 0 0 0 0 0 0 0 0 127 0" result="hardAlpha"/>
<feOffset/>
<feGaussianBlur stdDeviation="7.5"/>
<feColorMatrix type="matrix" values="0 0 0 0 0 0 0 0 0 0 0 0 0 0 0 0 0 0 0.078 0"/>
<feBlend mode="normal" in2="BackgroundImageFix" result="effect1_dropShadow_230_65"/>
<feBlend mode="normal" in="SourceGraphic" in2="effect1_dropShadow_230_65" result="shape"/>
</filter>
<clipPath id="clip0_230_65">
<rect width="70.94" height="24.6993" fill="white" transform="translate(30 54)"/>
</clipPath>
</defs>
</svg>
