<svg width="437" height="303" viewBox="0 0 437 303" fill="none" xmlns="http://www.w3.org/2000/svg">
<rect width="437" height="302" rx="20" fill="url(#paint0_linear_1829_1753)"/>
<path d="M275.323 287.634C275.323 295.659 268.756 302.225 260.731 302.225H145.6C137.575 302.225 131.008 295.659 131.008 287.634V43.5919C131.008 35.5664 137.575 29 145.6 29H260.731C268.756 29 275.323 35.5664 275.323 43.5919V287.634Z" fill="#1B2452"/>
<path d="M270.511 276.982C270.511 280.192 267.884 282.818 264.674 282.818H141.655C138.444 282.818 135.818 280.192 135.818 276.982V54.2457C135.818 51.0355 138.444 48.4089 141.655 48.4089H264.674C267.884 48.4089 270.511 51.0355 270.511 54.2457V276.982Z" fill="white"/>
<path d="M262.114 264.967C262.114 268.177 259.488 270.804 256.278 270.804H150.048C146.838 270.804 144.212 268.177 144.212 264.967V213.797C144.212 210.587 146.838 207.96 150.048 207.96H256.278C259.488 207.96 262.114 210.587 262.114 213.797V264.967Z" fill="#F9A532"/>
<path d="M256.158 83.3483C258.413 83.3483 260.248 84.9273 260.248 86.8681V195.812C260.248 197.752 258.413 199.331 256.158 199.331H149.842C147.587 199.331 145.752 197.752 145.752 195.812V86.8681C145.752 84.9273 147.587 83.3483 149.842 83.3483H256.158ZM256.158 81.8398H149.842C146.629 81.8398 144 84.1025 144 86.8681V195.812C144 198.577 146.629 200.84 149.842 200.84H256.158C259.371 200.84 262 198.577 262 195.812V86.8681C262 84.1025 259.371 81.8398 256.158 81.8398Z" fill="#F0593E"/>
<rect x="179" y="81" width="57" height="4" fill="white"/>
<path d="M224.495 91.3201C223.367 90.6712 222.482 89.6724 222.531 89.0945C222.531 89.0945 222.531 89.0945 222.529 88.5611C222.528 88.0241 222.529 88.0241 222.529 88.0241C222.476 87.4503 223.355 86.4405 224.48 85.7903C225.611 85.1355 225.887 83.486 225.093 82.1205L222.298 77.3088C221.505 75.9479 219.941 75.3739 218.809 76.0251C217.681 76.6791 216.367 76.958 215.88 76.6394C215.392 76.3265 214.013 74.5777 214.01 73.273C214.007 71.9667 212.716 70.9062 211.141 70.9099L205.578 70.9265C204.003 70.9306 202.718 71.9982 202.722 73.3045C202.726 74.6089 202.299 75.8863 201.78 76.1515C201.259 76.416 199.069 76.731 197.938 76.0822C196.804 75.4378 195.241 76.0199 194.457 77.3845L191.689 82.2129C190.903 83.5828 191.186 85.2308 192.323 85.8738C193.452 86.5227 194.335 87.5294 194.287 88.1018C194.287 88.1018 194.287 88.1018 194.288 88.6395C194.289 89.1712 194.289 89.1712 194.289 89.1712C194.342 89.7504 193.463 90.7543 192.339 91.4091C191.205 92.0652 190.931 93.7135 191.724 95.0748L194.519 99.8868C195.312 101.246 196.877 101.825 198.009 101.17C199.136 100.52 200.45 100.242 200.937 100.554C201.425 100.874 202.803 102.623 202.806 103.927C202.81 105.233 204.101 106.294 205.675 106.289L211.24 106.274C212.813 106.269 214.098 105.201 214.095 103.896C214.092 102.591 214.517 101.308 215.036 101.044C215.557 100.778 217.748 100.469 218.878 101.114C220.014 101.761 221.575 101.173 222.361 99.8095L225.13 94.9828C225.915 93.617 225.629 91.9694 224.495 91.3201Z" fill="#F0593E"/>
<path d="M208.429 96.0413C204.32 96.0533 200.979 92.73 200.969 88.6211C200.957 84.5102 204.28 81.1698 208.389 81.1592C212.498 81.1475 215.839 84.4703 215.85 88.5796C215.862 92.6893 212.539 96.0305 208.429 96.0413Z" fill="white"/>
<path d="M199.749 67.1221C199.079 66.7372 198.553 66.1437 198.583 65.8005C198.583 65.8005 198.583 65.8005 198.582 65.4837C198.581 65.1646 198.581 65.1646 198.581 65.1646C198.549 64.824 199.072 64.224 199.74 63.838C200.412 63.449 200.576 62.4692 200.105 61.6583L198.444 58.8005C197.973 57.9921 197.044 57.6511 196.372 58.038C195.702 58.4265 194.922 58.5922 194.632 58.4027C194.343 58.2168 193.524 57.1783 193.522 56.4033C193.52 55.6275 192.753 54.9975 191.817 55L188.513 55.0097C187.578 55.012 186.815 55.6461 186.817 56.4222C186.819 57.1969 186.566 57.9554 186.258 58.1132C185.948 58.2702 184.648 58.4574 183.976 58.0719C183.302 57.6894 182.374 58.0348 181.908 58.8457L180.264 61.7133C179.797 62.5271 179.966 63.5059 180.641 63.8877C181.311 64.273 181.836 64.8708 181.807 65.211C181.807 65.211 181.807 65.211 181.808 65.5303C181.808 65.8461 181.808 65.8461 181.808 65.8461C181.84 66.1899 181.318 66.7865 180.65 67.1751C179.977 67.5649 179.815 68.5442 180.285 69.3526L181.945 72.2105C182.416 73.0182 183.346 73.3617 184.018 72.9729C184.687 72.5868 185.468 72.4217 185.757 72.6073C186.046 72.7975 186.865 73.8354 186.867 74.6102C186.87 75.3857 187.636 76.0159 188.571 76.0132L191.876 76.0043C192.811 76.0017 193.574 75.3674 193.572 74.5922C193.57 73.8171 193.823 73.0548 194.131 72.898C194.44 72.7402 195.742 72.5565 196.414 72.9392C197.088 73.3239 198.015 72.9749 198.482 72.1649L200.127 69.2979C200.593 68.4868 200.423 67.5082 199.749 67.1221Z" fill="#F0593E"/>
<path d="M190.207 69.9264C187.766 69.9334 185.782 67.9598 185.775 65.5192C185.768 63.0776 187.742 61.0934 190.182 61.0872C192.623 61.0803 194.607 63.0536 194.614 65.4946C194.621 67.9356 192.647 69.9201 190.207 69.9264Z" fill="white"/>
<path d="M256.896 234.635C253.248 248.351 268.569 253.167 268.569 253.167C269.737 264.111 271.342 279.432 279.951 286.728C287.352 293 326.791 264.548 326.791 264.548C326.791 260.609 325.478 248.351 325.04 243.828C324.556 238.819 331.669 222.793 329.855 215.957C327.959 208.807 320.079 193.777 317.306 191.151C314.534 188.524 301.109 183.709 297.607 182.834C297.607 182.834 286.809 182.104 284.037 182.834C281.264 183.563 265.651 190.275 261.711 195.966C257.771 201.657 256.896 234.635 256.896 234.635Z" fill="#F6892B"/>
<path d="M315.263 211.142C317.598 216.395 322.705 229.382 324.018 235.511C325.332 241.639 326.937 229.674 326.937 229.674L315.263 211.142Z" fill="#FDF1D7"/>
<path d="M272.8 210.412C274.113 217.708 274.405 247.914 273.821 252.437C273.821 252.437 259.813 249.811 262.731 237.699C265.65 225.588 272.8 210.412 272.8 210.412Z" fill="#FDF1D7"/>
<path d="M266.137 236.629C265.943 237.991 265.261 243.244 265.261 243.244C265.261 243.244 283.453 243.633 290.457 244.022C297.461 244.412 305.536 246.26 307.189 245.579C308.843 244.898 313.61 241.395 318.765 244.8C323.921 248.205 328.299 250.734 313.804 253.264C299.31 255.793 263.705 259.295 256.993 257.836C250.281 256.377 247.557 251.999 248.14 245.871C248.724 239.742 249.697 234.586 249.697 234.586L266.137 236.629Z" fill="#FFAD98"/>
<path d="M261.712 195.966C257.351 201.233 249.445 217.416 248.064 237.845C248.064 237.845 251.838 239.547 257.382 240.326C262.927 241.104 267.305 239.644 267.305 239.644C267.305 239.644 272.461 217.951 272.801 210.412C273.142 202.873 266.624 190.031 261.712 195.966Z" fill="#F6892B"/>
<path d="M323.353 252.217C323.549 251.409 322.923 250.835 321.962 250.941L295.838 253.816C294.877 253.922 293.932 254.67 293.736 255.478C293.541 256.285 294.167 256.859 295.128 256.753L321.252 253.877C322.212 253.772 323.158 253.024 323.353 252.217Z" fill="#F0593E"/>
<path d="M317.548 256.766C333.721 251.567 369.641 245.865 376.11 255.793C384.475 268.634 354.903 288.479 354.903 288.479C350.234 290.035 311.905 299.374 301.593 293.732C291.282 288.09 301.205 262.019 317.548 256.766Z" fill="#1B2452"/>
<path d="M333.355 213.056C332.394 213.127 331.357 213.931 331.05 214.845L318.354 252.577C318.046 253.491 318.581 254.179 319.542 254.108L366.245 250.669C367.205 250.598 368.243 249.793 368.55 248.88L381.246 211.148C381.553 210.234 381.019 209.546 380.058 209.617L333.355 213.056Z" fill="#F0593E"/>
<path d="M343.428 273.692L352.961 264.937C352.961 264.937 338.564 271.552 337.98 274.082C337.397 276.611 343.428 273.692 343.428 273.692Z" fill="#302D5E"/>
<path d="M364.291 288.479C377.278 286.145 395.155 288.43 395.955 292.565C396.831 297.088 384.282 300.153 379.612 300.591C374.943 301.028 359.767 300.882 357.141 296.213C354.514 291.544 360.513 289.159 364.291 288.479Z" fill="#3F3C6B"/>
<path d="M365.995 288.284C350.43 275.638 311.907 249.762 302.374 247.622C292.84 245.482 283.695 246.648 279.999 258.712C276.303 270.774 274.552 283.226 277.276 287.896C279.999 292.565 290.7 302.098 297.899 301.904C305.097 301.709 311.907 298.013 311.713 281.28C322.024 287.117 349.652 296.846 356.266 297.623C363.854 296.067 365.995 288.284 365.995 288.284Z" fill="#1B2452"/>
<path d="M311.716 281.28C307.825 279.724 297.512 274.86 291.481 270.385C291.481 270.385 305.295 282.934 311.618 286.533C311.716 284.685 311.716 281.28 311.716 281.28Z" fill="#302D5E"/>
<path d="M351.161 291.689C350.26 285.856 341.943 285.544 337.591 286.29C333.238 287.036 325.331 290.362 322.415 290.814C319.499 291.264 312.427 291.866 309.936 294.172C307.446 296.477 308.854 302.713 313.952 302.196C322.561 301.32 331.462 302.196 339.634 301.174C344.999 300.503 351.752 295.507 351.161 291.689Z" fill="#525078"/>
<path d="M280.685 166.853C281.535 171.53 283.233 180.81 282.093 185.362C281.88 186.213 287.534 187.152 290.723 186.94C293.912 186.727 300.503 185.557 300.291 184.707C300.078 183.856 299.607 179.61 300.032 177.165C300.457 174.72 280.685 166.853 280.685 166.853Z" fill="#FFAD98"/>
<path d="M300.012 182.445C296.03 182.755 289.887 177.452 288.02 175.889C286.154 174.327 299.805 178.67 299.805 178.67C299.805 179.549 300.012 182.445 300.012 182.445Z" fill="#FF7D71"/>
<path d="M288.019 175.889C294.093 180.066 299.951 180.172 302.902 178.228C307.871 174.955 310.556 160.581 308.536 153.246C306.516 145.911 288.408 141.873 280.897 155.266C276.007 163.983 286.318 174.72 288.019 175.889Z" fill="#FFAD98"/>
<path d="M305.348 159.704C305.264 159.704 305.18 159.667 305.122 159.597C304.714 159.098 304.104 158.967 303.664 158.945C302.907 158.913 302.056 159.184 301.621 159.618C301.507 159.732 301.322 159.732 301.208 159.618C301.094 159.504 301.094 159.32 301.208 159.206C301.759 158.655 302.763 158.318 303.693 158.363C304.482 158.402 305.15 158.709 305.574 159.228C305.676 159.352 305.657 159.536 305.533 159.638C305.479 159.682 305.413 159.704 305.348 159.704Z" fill="#49437B"/>
<path d="M303.963 162.495C303.963 163.199 303.677 163.77 303.325 163.77C302.972 163.77 302.687 163.199 302.687 162.495C302.687 161.79 302.973 161.219 303.325 161.219C303.677 161.219 303.963 161.79 303.963 162.495Z" fill="#49437B"/>
<path d="M298.12 159.704C298.035 159.704 297.952 159.668 297.894 159.597C297.486 159.099 296.876 158.968 296.436 158.946C295.679 158.913 294.828 159.184 294.392 159.619C294.278 159.733 294.094 159.733 293.98 159.619C293.866 159.505 293.866 159.32 293.98 159.206C294.531 158.655 295.535 158.319 296.465 158.363C297.254 158.402 297.922 158.709 298.345 159.228C298.447 159.353 298.429 159.536 298.304 159.638C298.25 159.683 298.185 159.704 298.12 159.704Z" fill="#49437B"/>
<path d="M296.736 162.495C296.736 163.199 296.45 163.77 296.098 163.77C295.747 163.77 295.46 163.199 295.46 162.495C295.46 161.79 295.746 161.219 296.098 161.219C296.451 161.219 296.736 161.79 296.736 162.495Z" fill="#49437B"/>
<path d="M299.74 171.632C299.476 171.632 299.206 171.623 298.955 171.61C298.794 171.602 298.67 171.465 298.678 171.304C298.686 171.144 298.822 171.006 298.983 171.027C299.674 171.062 300.499 171.044 300.796 170.972C300.753 170.38 300.533 168.165 300.379 166.671C300.363 166.511 300.479 166.367 300.64 166.351C300.79 166.337 300.943 166.451 300.96 166.611C301.003 167.037 301.387 170.781 301.387 171.106C301.387 171.208 301.344 171.304 301.267 171.378C301.06 171.574 300.418 171.632 299.74 171.632Z" fill="#49437B"/>
<path d="M298.132 174.73C296.711 174.73 295.135 174.01 294.199 173.204C293.77 172.835 293.257 172.262 293.257 171.637C293.257 171.476 293.388 171.345 293.549 171.345C293.71 171.345 293.841 171.476 293.841 171.637C293.841 171.948 294.11 172.358 294.58 172.762C295.518 173.569 297.248 174.313 298.608 174.113C298.766 174.092 298.916 174.198 298.94 174.358C298.964 174.517 298.855 174.666 298.695 174.689C298.511 174.717 298.323 174.73 298.132 174.73Z" fill="#49437B"/>
<path d="M279.088 164.301C277.303 165.113 275.367 152.395 277.069 146.655C278.769 140.915 283.021 140.702 287.274 140.277C291.526 139.852 297.586 136.769 303.751 137.726C309.916 138.682 313.425 149.313 310.661 152.715C307.897 156.116 293.652 156.222 288.443 153.14C288.443 153.14 287.274 160.581 279.088 164.301Z" fill="#2C3D4F"/>
<path d="M283.659 161.432C281.275 158.092 277.069 157.817 276.219 160.475C275.368 163.132 277.388 168.661 281.959 169.086C286.53 169.511 284.722 162.92 283.659 161.432Z" fill="#FFAD98"/>
<path d="M279.62 165.657C279.531 165.657 279.443 165.617 279.386 165.539C277.959 163.614 278.034 161.762 278.828 160.997C279.423 160.424 280.304 160.5 281.184 161.204C281.31 161.305 281.33 161.488 281.23 161.614C281.129 161.74 280.946 161.761 280.819 161.66C280.182 161.15 279.603 161.06 279.234 161.418C278.623 162.006 278.687 163.616 279.854 165.192C279.951 165.322 279.923 165.504 279.794 165.6C279.741 165.639 279.68 165.657 279.62 165.657Z" fill="#49437B"/>
<path d="M154.747 217.801H152.399C151.916 217.801 151.524 217.409 151.524 216.926C151.524 216.442 151.916 216.05 152.399 216.05H154.747C155.23 216.05 155.622 216.442 155.622 216.926C155.622 217.409 155.23 217.801 154.747 217.801Z" fill="#EDFBFF"/>
<path d="M154.747 226.787H152.399C151.916 226.787 151.524 226.395 151.524 225.911C151.524 225.428 151.916 225.036 152.399 225.036H154.747C155.23 225.036 155.622 225.428 155.622 225.911C155.622 226.395 155.23 226.787 154.747 226.787Z" fill="#EDFBFF"/>
<path d="M154.747 235.772H152.399C151.916 235.772 151.524 235.38 151.524 234.897C151.524 234.413 151.916 234.021 152.399 234.021H154.747C155.23 234.021 155.622 234.413 155.622 234.897C155.622 235.38 155.23 235.772 154.747 235.772Z" fill="#EDFBFF"/>
<path d="M154.747 244.758H152.399C151.916 244.758 151.524 244.366 151.524 243.882C151.524 243.399 151.916 243.007 152.399 243.007H154.747C155.23 243.007 155.622 243.399 155.622 243.882C155.622 244.366 155.23 244.758 154.747 244.758Z" fill="#EDFBFF"/>
<path d="M154.747 253.743H152.399C151.916 253.743 151.524 253.351 151.524 252.868C151.524 252.385 151.916 251.992 152.399 251.992H154.747C155.23 251.992 155.622 252.385 155.622 252.868C155.622 253.351 155.23 253.743 154.747 253.743Z" fill="#EDFBFF"/>
<path d="M154.747 262.729H152.399C151.916 262.729 151.524 262.337 151.524 261.854C151.524 261.37 151.916 260.978 152.399 260.978H154.747C155.23 260.978 155.622 261.37 155.622 261.854C155.622 262.337 155.23 262.729 154.747 262.729Z" fill="#EDFBFF"/>
<path d="M185.098 217.801H165.059C164.575 217.801 164.183 217.409 164.183 216.926C164.183 216.442 164.575 216.05 165.059 216.05H185.098C185.582 216.05 185.974 216.442 185.974 216.926C185.974 217.409 185.582 217.801 185.098 217.801Z" fill="#EDFBFF"/>
<path d="M209.028 217.801H188.988C188.504 217.801 188.113 217.409 188.113 216.925C188.113 216.442 188.504 216.05 188.988 216.05H209.028C209.512 216.05 209.903 216.442 209.903 216.925C209.903 217.409 209.512 217.801 209.028 217.801Z" fill="#F0593E"/>
<path d="M191.716 226.787H165.061C164.578 226.787 164.186 226.395 164.186 225.911C164.186 225.428 164.578 225.036 165.061 225.036H191.716C192.199 225.036 192.591 225.428 192.591 225.911C192.591 226.395 192.199 226.787 191.716 226.787Z" fill="#F9CB4E"/>
<path d="M208.447 226.787H195.996C195.512 226.787 195.12 226.395 195.12 225.911C195.12 225.428 195.512 225.036 195.996 225.036H208.447C208.931 225.036 209.323 225.428 209.323 225.911C209.323 226.395 208.931 226.787 208.447 226.787Z" fill="#EDFBFF"/>
<path d="M224.4 226.787H211.948C211.464 226.787 211.073 226.395 211.073 225.911C211.073 225.428 211.464 225.036 211.948 225.036H224.4C224.883 225.036 225.276 225.428 225.276 225.911C225.276 226.395 224.883 226.787 224.4 226.787Z" fill="#F0593E"/>
<path d="M180.055 235.772H165.061C164.577 235.772 164.186 235.38 164.186 234.897C164.186 234.413 164.577 234.021 165.061 234.021H180.055C180.539 234.021 180.93 234.413 180.93 234.897C180.93 235.38 180.538 235.772 180.055 235.772Z" fill="#EDFBFF"/>
<path d="M192.507 244.757H165.061C164.578 244.757 164.186 244.365 164.186 243.882C164.186 243.398 164.578 243.006 165.061 243.006H192.507C192.991 243.006 193.383 243.398 193.383 243.882C193.383 244.365 192.991 244.757 192.507 244.757Z" fill="#EDFBFF"/>
<path d="M213.907 244.757H196.202C195.718 244.757 195.327 244.365 195.327 243.882C195.327 243.398 195.718 243.006 196.202 243.006H213.907C214.391 243.006 214.783 243.398 214.783 243.882C214.783 244.365 214.391 244.757 213.907 244.757Z" fill="#F9CB4E"/>
<path d="M245.622 244.757H217.411C216.927 244.757 216.535 244.365 216.535 243.882C216.535 243.398 216.927 243.006 217.411 243.006H245.622C246.105 243.006 246.498 243.398 246.498 243.882C246.498 244.365 246.106 244.757 245.622 244.757Z" fill="#F0593E"/>
<path d="M185.503 253.744H165.061C164.578 253.744 164.186 253.351 164.186 252.868C164.186 252.385 164.578 251.993 165.061 251.993H185.503C185.986 251.993 186.378 252.385 186.378 252.868C186.378 253.351 185.986 253.744 185.503 253.744Z" fill="#F9CB4E"/>
<path d="M208.838 253.744H188.397C187.913 253.744 187.521 253.351 187.521 252.868C187.521 252.385 187.913 251.993 188.397 251.993H208.838C209.322 251.993 209.714 252.385 209.714 252.868C209.714 253.351 209.322 253.744 208.838 253.744Z" fill="#EDFBFF"/>
<path d="M175.967 262.727H165.059C164.575 262.727 164.183 262.335 164.183 261.852C164.183 261.369 164.575 260.976 165.059 260.976H175.967C176.45 260.976 176.842 261.369 176.842 261.852C176.842 262.335 176.45 262.727 175.967 262.727Z" fill="#EDFBFF"/>
<path d="M190.168 262.727H179.26C178.777 262.727 178.385 262.335 178.385 261.852C178.385 261.369 178.777 260.976 179.26 260.976H190.168C190.652 260.976 191.044 261.369 191.044 261.852C191.044 262.335 190.652 262.727 190.168 262.727Z" fill="#EDFBFF"/>
<path d="M223.246 262.727H193.465C192.982 262.727 192.59 262.335 192.59 261.851C192.59 261.368 192.982 260.976 193.465 260.976H223.246C223.729 260.976 224.122 261.368 224.122 261.851C224.122 262.335 223.729 262.727 223.246 262.727Z" fill="#F0593E"/>
<path d="M237.64 262.727H226.732C226.249 262.727 225.857 262.334 225.857 261.851C225.857 261.368 226.249 260.976 226.732 260.976H237.64C238.123 260.976 238.515 261.368 238.515 261.851C238.515 262.334 238.123 262.727 237.64 262.727Z" fill="#F9CB4E"/>
<path d="M108.31 198.953L106.212 196.85L80.4717 222.56L82.5693 224.662L108.31 198.953Z" fill="#F0593E"/>
<path d="M88.2809 225.362C90.5905 223.056 90.5933 219.28 88.2876 216.971L88.1696 216.853C85.864 214.544 82.0884 214.541 79.7787 216.846L61.8591 234.738C59.5494 237.043 59.546 240.819 61.851 243.129L61.9685 243.246C64.2735 245.557 68.0491 245.559 70.3588 243.254L88.2809 225.362Z" fill="#F9A532"/>
<path d="M63.4977 233.096L62.6577 233.935L68.4995 239.783L69.3394 238.944L63.4977 233.096Z" fill="#F0593E"/>
<path d="M66.7776 229.848L65.9377 230.687L71.7783 236.535L72.6182 235.696L66.7776 229.848Z" fill="#F0593E"/>
<path d="M70.033 226.572L69.1929 227.411L75.0331 233.258L75.8732 232.419L70.033 226.572Z" fill="#F0593E"/>
<path d="M73.2984 223.305L72.4583 224.143L78.2973 229.992L79.1375 229.154L73.2984 223.305Z" fill="#F0593E"/>
<path d="M102.419 244.235C101.813 244.326 100.979 244.032 100.564 243.582L73.758 214.538C73.343 214.089 73.3567 213.367 73.7893 212.935L76.5406 210.183C76.9738 209.751 77.6954 209.736 78.1446 210.151L107.177 236.946C107.627 237.361 107.921 238.195 107.832 238.8L107.3 242.429C107.211 243.034 106.643 243.603 106.038 243.695L102.419 244.235Z" fill="#F0593E"/>
<path d="M72.999 194.267C73.5884 194.107 74.4269 194.331 74.8588 194.764L81.6516 201.556C82.0836 201.989 82.3064 202.828 82.1498 203.418L79.2427 214.267C79.0837 214.858 78.472 215.471 77.8792 215.63L67.0231 218.544C66.4319 218.703 65.597 218.478 65.1638 218.046L58.3705 211.253C57.9379 210.82 57.7128 209.984 57.8729 209.394L58.9622 205.344C59.1194 204.753 59.604 204.625 60.0372 205.057L66.8224 211.842C67.2556 212.274 68.0912 212.5 68.6822 212.34L73.3431 211.092C73.9336 210.934 74.547 210.321 74.7043 209.729L75.9481 205.077C76.1042 204.487 75.8807 203.648 75.4487 203.215L68.6623 196.431C68.2302 195.999 68.3591 195.515 68.9496 195.357L72.999 194.267Z" fill="#F0593E"/>
<path d="M105.913 253.974H57.4675C48.9386 253.974 42 247.035 42 238.506V190.061C42 181.532 48.9386 174.594 57.4675 174.594H105.913C114.442 174.594 121.38 181.532 121.38 190.061V238.506C121.38 247.035 114.442 253.974 105.913 253.974ZM57.4675 176.345C49.9042 176.345 43.751 182.498 43.751 190.061V238.506C43.751 246.07 49.9042 252.223 57.4675 252.223H105.913C113.476 252.223 119.629 246.07 119.629 238.506V190.061C119.629 182.498 113.476 176.345 105.913 176.345H57.4675Z" fill="#1B2452"/>
<path d="M61.6639 158.574H60.0369V163.018H61.6639V158.574Z" fill="url(#paint1_linear_1829_1753)"/>
<path d="M61.5675 177.565C60.6815 177.565 59.9312 177.286 59.3227 176.73C57.952 175.476 57.6503 173.017 58.4005 169.213C58.8994 166.684 59.6882 164.466 59.7216 164.373C59.9674 163.686 60.7237 163.328 61.4109 163.574C62.0979 163.82 62.4555 164.576 62.2097 165.264C62.1958 165.302 61.4447 167.423 60.9877 169.752C60.384 172.831 60.6742 174.384 61.1061 174.779C61.4052 175.053 62.2542 174.916 63.3218 174.422C63.9843 174.116 64.7693 174.404 65.0755 175.067C65.3817 175.73 65.0931 176.515 64.4307 176.821C63.3595 177.317 62.4031 177.565 61.5675 177.565Z" fill="url(#paint2_radial_1829_1753)"/>
<path d="M61.5679 177.22C60.7618 177.22 60.1037 176.976 59.5561 176.476C58.2816 175.31 58.0145 172.956 58.7395 169.281C59.2326 166.78 60.0139 164.582 60.0468 164.489C60.1854 164.102 60.5549 163.841 60.9664 163.841C61.0781 163.841 61.1888 163.861 61.2954 163.899C61.541 163.987 61.7377 164.165 61.8491 164.401C61.9607 164.637 61.9737 164.902 61.8857 165.148C61.8542 165.237 61.1108 167.338 60.6501 169.686C60.1146 172.417 60.1984 174.416 60.8743 175.034C61.0404 175.186 61.2817 175.263 61.5912 175.263C62.0721 175.263 62.7207 175.08 63.4671 174.735C63.597 174.675 63.7346 174.645 63.8761 174.645C64.2558 174.645 64.6041 174.868 64.7634 175.212C64.8728 175.449 64.8835 175.714 64.7935 175.959C64.7035 176.204 64.5236 176.399 64.2867 176.509C63.2663 176.981 62.3516 177.22 61.5682 177.22H61.5679Z" fill="url(#paint3_radial_1829_1753)"/>
<path d="M63.2258 164.474C63.2258 165.785 62.1627 166.849 60.8514 166.849C59.54 166.849 58.4769 165.785 58.4769 164.474C58.4769 163.162 59.54 162.099 60.8514 162.099C62.1627 162.099 63.2258 163.162 63.2258 164.474Z" fill="url(#paint4_radial_1829_1753)"/>
<path d="M62.9192 164.474C62.9192 165.616 61.9933 166.542 60.8513 166.542C59.7091 166.542 58.7832 165.616 58.7832 164.474C58.7832 163.331 59.7091 162.405 60.8513 162.405C61.9933 162.405 62.9192 163.331 62.9192 164.474Z" fill="url(#paint5_radial_1829_1753)"/>
<path d="M61.4261 176.273C61.4261 180.885 63.4665 184.624 65.9836 184.624C68.5006 184.624 70.541 180.885 70.541 176.273C70.541 171.661 68.5006 167.921 65.9836 167.921C63.4665 167.921 61.4261 171.661 61.4261 176.273Z" fill="#231F20"/>
<path d="M62.6511 176.273C62.6511 179.645 64.1429 182.379 65.9831 182.379C67.8232 182.379 69.315 179.645 69.315 176.273C69.315 172.901 67.8232 170.167 65.9831 170.167C64.1429 170.167 62.6511 172.901 62.6511 176.273Z" fill="url(#paint6_radial_1829_1753)"/>
<path d="M68.4332 185.506C68.4332 186.712 69.4107 187 70.6162 187H70.8461C72.0516 187 73.029 186.022 73.029 184.816V168.036C73.029 166.831 72.0516 165.853 70.8461 165.853H70.6162C69.4107 165.853 68.4332 166.141 68.4332 167.347V185.506Z" fill="#231F20"/>
<path d="M70.8458 186.426C71.7327 186.426 72.4542 185.704 72.4542 184.816V168.037C72.4542 167.15 71.7327 166.428 70.8458 166.428H70.6159C69.0074 166.428 69.0074 166.981 69.0074 167.347V185.506C69.0074 185.872 69.0074 186.426 70.6159 186.426H70.8458Z" fill="url(#paint7_linear_1829_1753)"/>
<path d="M67.0619 166.849C66.4004 166.849 65.8621 167.526 65.8621 168.359V184.11C65.8621 184.943 66.4004 185.621 67.0619 185.621H67.2334C68.4334 185.621 68.4334 185.102 68.4334 184.758V167.712C68.4334 167.368 68.4334 166.849 67.2334 166.849H67.0619Z" fill="url(#paint8_linear_1829_1753)"/>
<path d="M67.0617 185.276C66.5982 185.276 66.2065 184.742 66.2065 184.11V168.359C66.2065 167.727 66.5982 167.193 67.0617 167.193H67.2332C68.0884 167.193 68.0884 167.422 68.0884 167.712V184.758C68.0884 185.047 68.0884 185.276 67.2332 185.276L67.0617 185.276Z" fill="url(#paint9_linear_1829_1753)"/>
<path opacity="0.3" d="M72.4542 179.567L69.0074 176.234V175.277L72.4542 178.61V179.567Z" fill="#C2C4C6"/>
<path opacity="0.3" d="M72.4542 182.671L69.0074 179.338V177.269L72.4542 180.602V182.671Z" fill="#C2C4C6"/>
<path d="M62.1923 176.019C62.1923 177.38 61.8466 178.484 61.4201 178.484C60.9936 178.484 60.6478 177.38 60.6478 176.019C60.6478 174.657 60.9936 173.553 61.4201 173.553C61.8466 173.553 62.1923 174.657 62.1923 176.019Z" fill="#231F20"/>
<path d="M103.162 158.574H101.535V163.018H103.162V158.574Z" fill="url(#paint10_linear_1829_1753)"/>
<path d="M101.631 177.565C102.517 177.565 103.267 177.286 103.876 176.73C105.246 175.476 105.548 173.017 104.798 169.213C104.299 166.684 103.51 164.466 103.477 164.373C103.231 163.686 102.475 163.328 101.788 163.574C101.101 163.82 100.743 164.576 100.989 165.264C101.003 165.302 101.754 167.423 102.211 169.752C102.814 172.831 102.524 174.384 102.092 174.779C101.793 175.053 100.944 174.916 99.8768 174.422C99.2142 174.116 98.4292 174.404 98.1229 175.067C97.8169 175.73 98.1054 176.515 98.7679 176.821C99.839 177.317 100.796 177.565 101.631 177.565Z" fill="url(#paint11_radial_1829_1753)"/>
<path d="M101.633 177.22C102.439 177.22 103.097 176.976 103.645 176.476C104.919 175.31 105.186 172.956 104.461 169.281C103.968 166.78 103.187 164.582 103.154 164.489C103.015 164.102 102.646 163.841 102.234 163.841C102.123 163.841 102.012 163.861 101.905 163.899C101.66 163.987 101.463 164.165 101.352 164.401C101.24 164.637 101.227 164.902 101.315 165.148C101.347 165.237 102.09 167.338 102.551 169.686C103.086 172.417 103.002 174.416 102.326 175.034C102.16 175.186 101.919 175.263 101.61 175.263C101.129 175.263 100.48 175.08 99.7337 174.735C99.6037 174.675 99.4662 174.645 99.3246 174.645C98.9449 174.645 98.5965 174.868 98.4376 175.212C98.328 175.449 98.3173 175.714 98.4072 175.959C98.4972 176.204 98.6772 176.399 98.9143 176.509C99.9346 176.981 100.849 177.22 101.633 177.22H101.633Z" fill="url(#paint12_radial_1829_1753)"/>
<path d="M99.9738 164.474C99.9738 165.785 101.037 166.849 102.349 166.849C103.66 166.849 104.723 165.785 104.723 164.474C104.723 163.162 103.66 162.099 102.349 162.099C101.037 162.099 99.9738 163.162 99.9738 164.474Z" fill="url(#paint13_radial_1829_1753)"/>
<path d="M100.282 164.474C100.282 165.616 101.207 166.542 102.35 166.542C103.492 166.542 104.417 165.616 104.417 164.474C104.417 163.331 103.492 162.405 102.35 162.405C101.207 162.405 100.282 163.331 100.282 164.474Z" fill="url(#paint14_radial_1829_1753)"/>
<path d="M101.774 176.273C101.774 180.885 99.7336 184.624 97.2163 184.624C94.6993 184.624 92.6589 180.885 92.6589 176.273C92.6589 171.661 94.6993 167.921 97.2163 167.921C99.7336 167.921 101.774 171.661 101.774 176.273Z" fill="#231F20"/>
<path d="M100.549 176.273C100.549 179.645 99.0575 182.379 97.2172 182.379C95.3771 182.379 93.8855 179.645 93.8855 176.273C93.8855 172.901 95.3771 170.167 97.2172 170.167C99.0574 170.167 100.549 172.901 100.549 176.273Z" fill="url(#paint15_radial_1829_1753)"/>
<path d="M94.7663 185.506C94.7663 186.712 93.789 187 92.5832 187H92.3535C91.1479 187 90.1707 186.022 90.1707 184.816V168.036C90.1707 166.831 91.148 165.853 92.3535 165.853H92.5832C93.7891 165.853 94.7663 166.141 94.7663 167.347V185.506Z" fill="#231F20"/>
<path d="M92.3533 186.426C91.4664 186.426 90.7449 185.704 90.7449 184.816V168.037C90.7449 167.15 91.4663 166.428 92.3533 166.428H92.5831C94.1916 166.428 94.1916 166.981 94.1916 167.347V185.506C94.1916 185.872 94.1916 186.426 92.5831 186.426H92.3533Z" fill="url(#paint16_linear_1829_1753)"/>
<path d="M96.1374 166.849C96.7991 166.849 97.3372 167.526 97.3372 168.359V184.11C97.3372 184.943 96.799 185.621 96.1374 185.621H95.966C94.766 185.621 94.766 185.102 94.766 184.758V167.712C94.766 167.368 94.766 166.849 95.966 166.849H96.1374Z" fill="url(#paint17_linear_1829_1753)"/>
<path d="M96.1372 185.276C96.6009 185.276 96.9924 184.742 96.9924 184.11V168.359C96.9924 167.727 96.6009 167.193 96.1372 167.193H95.9657C95.1105 167.193 95.1105 167.422 95.1105 167.712V184.758C95.1105 185.047 95.1105 185.276 95.9657 185.276L96.1372 185.276Z" fill="url(#paint18_linear_1829_1753)"/>
<path opacity="0.3" d="M90.7449 179.567L94.1916 176.234V175.277L90.7449 178.61V179.567Z" fill="#C2C4C6"/>
<path opacity="0.3" d="M90.7449 182.671L94.1916 179.338V177.269L90.7449 180.602V182.671Z" fill="#C2C4C6"/>
<path d="M101.009 176.019C101.009 177.38 101.355 178.484 101.781 178.484C102.208 178.484 102.554 177.38 102.554 176.019C102.554 174.657 102.208 173.553 101.781 173.553C101.355 173.553 101.009 174.657 101.009 176.019Z" fill="#231F20"/>
<path d="M92.4383 148.113C92.0624 148.113 91.6811 148.025 91.3244 147.84C80.7722 142.365 72.1412 147.682 72.0554 147.737C70.9238 148.452 69.426 148.115 68.7108 146.983C67.9953 145.851 68.3329 144.353 69.4646 143.637C69.9116 143.354 80.5617 136.792 93.5568 143.534C94.7453 144.151 95.2091 145.615 94.5926 146.803C94.1612 147.636 93.315 148.113 92.4383 148.113Z" fill="#4D5E6D"/>
<path d="M91.6994 146.78C91.3492 146.78 90.9936 146.698 90.6614 146.525C80.8302 141.425 72.7889 146.379 72.7089 146.43C71.6546 147.096 70.2592 146.782 69.5927 145.727C68.9261 144.672 69.2407 143.277 70.2952 142.61C70.7114 142.347 80.6341 136.232 92.7412 142.514C93.8488 143.089 94.2809 144.452 93.7065 145.56C93.3046 146.335 92.516 146.78 91.6994 146.78Z" fill="#7D8DA4"/>
<path d="M62.6637 159.586C62.6637 150.373 72.1218 142.905 81.9444 142.905C91.7711 142.905 100.766 150.373 100.766 159.586L103.409 159.587H102.206L103.93 159.586C103.93 147.663 94.6584 138 81.9445 138C69.2327 138 59.2722 147.663 59.2722 159.586L59.3871 159.587H60.8254L62.6637 159.586Z" fill="url(#paint19_radial_1829_1753)"/>
<mask id="mask0_1829_1753" style="mask-type:luminance" maskUnits="userSpaceOnUse" x="165" y="115" width="77" height="73">
<path d="M241.53 115H165.533V187.19H241.53V115Z" fill="white"/>
</mask>
<g mask="url(#mask0_1829_1753)">
<path d="M241.5 153.161C241.5 161.631 238.755 169.452 234.122 175.797C231.672 179.132 228.721 182.054 225.327 184.445C221.726 185.566 213.728 187.308 202.218 187.16C192.331 187.013 187.933 186.54 183.359 185.36C179.788 183.087 176.63 180.195 174.033 176.889C168.897 170.367 165.828 162.133 165.828 153.161C165.828 132.088 182.769 115.03 203.664 115.03C224.56 115.03 241.5 132.088 241.5 153.161Z" fill="#D84012"/>
</g>
<path fill-rule="evenodd" clip-rule="evenodd" d="M174.121 176.565V176.594C174.033 176.565 174.033 176.565 174.121 176.565Z" fill="#442A00"/>
<mask id="mask1_1829_1753" style="mask-type:luminance" maskUnits="userSpaceOnUse" x="173" y="175" width="62" height="13">
<path d="M234.86 175.266H173.295V187.219H234.86V175.266Z" fill="white"/>
</mask>
<g mask="url(#mask1_1829_1753)">
<path fill-rule="evenodd" clip-rule="evenodd" d="M234.653 175.709L227.629 183.441L227.57 183.471C227.511 183.5 227.452 183.559 227.393 183.589C227.186 183.736 226.507 184.061 225.327 184.415C221.726 185.537 213.728 187.278 202.218 187.13C192.331 186.983 187.933 186.511 183.359 185.33C182.533 185.123 181.706 184.887 180.85 184.622C177.81 183.441 173.383 178.335 173.531 178.483C173.531 178.099 173.885 177.391 174.033 176.86C174.062 176.742 174.092 176.653 174.092 176.565C175.154 176.889 193.925 179.664 206.261 179.132C216.65 178.66 226.95 176.86 234.092 175.768C234.299 175.768 234.476 175.738 234.653 175.709Z" fill="#442A00"/>
</g>
<path fill-rule="evenodd" clip-rule="evenodd" d="M230.787 177.952L226.655 182.173C226.655 182.173 221.52 185.301 204.284 185.508C193.216 185.655 186.723 184.563 183.477 183.737C182.296 183.442 181.529 183.176 181.175 183.028C179.522 182.232 178.017 180.963 176.984 179.959C176.984 179.959 176.984 179.959 176.955 179.93C176.158 179.103 175.715 178.483 175.685 178.454C175.685 178.454 189.822 181.051 206.291 180.726C213.167 180.579 227.717 178.395 230.344 177.982C230.639 177.982 230.787 177.952 230.787 177.952Z" fill="#C1CCCE"/>
<path fill-rule="evenodd" clip-rule="evenodd" d="M230.787 177.952L226.655 182.173C226.655 182.173 221.52 185.301 204.284 185.508C193.216 185.655 186.723 184.563 183.477 183.737C182.296 183.442 181.529 183.176 181.175 183.028C179.522 182.232 178.017 180.963 176.984 179.959C176.984 179.959 176.984 179.959 176.955 179.93C176.158 179.103 175.715 178.483 175.685 178.454C175.685 178.454 189.822 181.051 206.291 180.726C213.167 180.579 227.717 178.395 230.344 177.982C230.639 177.982 230.787 177.952 230.787 177.952Z" fill="#442A00" fill-opacity="0.4"/>
<path d="M203.694 183.648C203.546 183.648 203.398 183.648 203.28 183.648C203.398 183.677 203.546 183.648 203.694 183.648Z" fill="#442A00" fill-opacity="0.2"/>
<path d="M231.17 177.804C228.278 182.143 226.448 183.058 223.054 183.737C222.907 182.999 221.844 182.969 221.047 182.969C215.676 183.353 209.153 183.619 203.664 183.648C203.516 183.648 203.369 183.648 203.251 183.648C203.103 183.648 202.956 183.648 202.838 183.648C197.348 183.619 190.826 183.353 185.454 182.969C184.687 182.94 183.595 182.969 183.447 183.737C179.876 183.117 177.456 180.815 175.715 178.513C176.659 178.896 191.239 180.461 203.251 180.697C215.263 180.461 230.226 178.218 231.17 177.804Z" fill="#442A00" fill-opacity="0.2"/>
<path fill-rule="evenodd" clip-rule="evenodd" d="M231.2 128.399C231.141 128.311 231.082 128.252 231.023 128.163L230.669 127.72C230.61 127.661 230.551 127.573 230.462 127.514L230.285 127.366C230.108 127.219 229.901 127.101 229.665 127.042C226.714 126.038 214.968 127.219 213.817 130.642C213.492 131.469 213.521 132.384 213.905 133.18C214.525 134.538 215.056 135.866 215.469 137.283C216.119 139.496 216.532 141.828 216.679 144.395C216.768 145.694 217.801 146.727 219.07 146.816C221.49 147.081 222.907 147.494 222.759 149.56C222.907 159.034 217.211 156.614 221.844 161.454V162.192C222.257 162.192 223.143 162.399 223.526 162.34C227.57 160.539 228.721 153.899 229.045 149.206C229.104 148.439 229.341 147.76 229.813 147.199C230.403 146.461 231.111 146.166 231.879 145.842C232.853 145.458 234.151 144.897 234.417 143.244C235.214 137.46 234.063 132.206 231.2 128.399ZM231.525 143.805L218.126 143.628L217.712 135.896H216.473V130.908H219.188V129.816H229.754V130.908H230.551V135.04H231.554V143.805H231.525Z" fill="#442A00"/>
<mask id="mask2_1829_1753" style="mask-type:luminance" maskUnits="userSpaceOnUse" x="224" y="137" width="26" height="36">
<path d="M250 137.755H224.884V172.462H250V137.755Z" fill="white"/>
</mask>
<g mask="url(#mask2_1829_1753)">
<path fill-rule="evenodd" clip-rule="evenodd" d="M225.327 170.78L225.297 169.806C225.238 167.977 225.534 166.294 226.183 164.671C226.862 162.959 227.836 161.572 228.78 160.274C228.869 160.156 228.957 160.037 229.046 159.919C229.311 159.565 229.547 159.241 229.783 158.916C229.813 158.886 229.842 158.857 229.842 158.827C229.901 158.739 229.961 158.65 230.02 158.591C230.698 157.617 231.407 156.378 231.643 154.873C231.672 154.637 231.702 154.4 231.702 154.105C231.702 154.017 231.702 153.958 231.702 153.869C231.613 151.42 232.971 148.173 235.716 144.189L235.745 144.159C237.073 142.388 238.224 141.119 239.375 140.204C240.91 138.935 242.474 138.286 244.009 138.286C244.865 138.286 245.691 138.493 246.488 138.876L246.577 138.906L246.636 138.965C247.285 139.378 247.846 139.88 248.318 140.441C248.672 140.854 248.967 141.296 249.203 141.739C249.292 141.916 249.38 142.093 249.469 142.3C250.354 144.484 250.148 147.229 248.82 150.446C245.721 157.735 241.589 159.241 238.254 160.451C236.66 161.041 235.273 161.543 234.181 162.605C233.768 163.018 233.384 163.491 233.059 164.051C232.174 165.586 231.613 167.799 231.348 170.81L231.2 172.315L225.327 170.78Z" fill="#442A00"/>
</g>
<mask id="mask3_1829_1753" style="mask-type:luminance" maskUnits="userSpaceOnUse" x="156" y="150" width="22" height="25">
<path d="M177.751 150.623H156V174.676H177.751V150.623Z" fill="white"/>
</mask>
<g mask="url(#mask3_1829_1753)">
<path fill-rule="evenodd" clip-rule="evenodd" d="M172.498 172.02C172.232 171.194 171.377 169.895 170.107 168.419C169.458 167.652 168.484 167.298 167.481 167.298C166.212 167.209 164.972 166.678 163.998 165.793C161.017 163.048 156.738 161.011 156.708 160.982C156.236 160.775 156.03 160.628 156 160.067C155.764 157.057 156.561 153.486 159.424 151.951C160.309 151.567 161.372 151.095 162.375 151.154C167.363 152.895 172.498 156.673 172.941 159.772C173.118 160.657 173.236 162.369 173.856 163.107C175.331 164.76 176.778 166.707 177.545 168.39L177.368 168.626L177.456 168.832L173.206 174.381L172.498 172.02Z" fill="#442A00"/>
</g>
<path fill-rule="evenodd" clip-rule="evenodd" d="M229.754 128.488C231.082 134.361 231.761 139.467 230.551 142.595L228.042 144.248L226.98 148.025H225.12V157.588H223.231V161.011C223.261 161.011 223.32 161.011 223.349 161.011C226.271 159.624 227.629 153.662 227.894 149.088C227.953 148.084 228.308 147.11 228.927 146.343C230.58 144.248 232.971 144.808 233.236 143.038C233.915 138.02 233.177 132.531 229.754 128.488Z" fill="#FCCE0B"/>
<path fill-rule="evenodd" clip-rule="evenodd" d="M229.754 128.488C231.082 134.361 231.761 139.467 230.551 142.595L228.042 144.248L226.98 148.025H225.12V157.588H223.231V161.011C223.261 161.011 223.32 161.011 223.349 161.011C226.271 159.624 227.629 153.662 227.894 149.088C227.953 148.084 228.308 147.11 228.927 146.343C230.58 144.248 232.971 144.808 233.236 143.038C233.915 138.02 233.177 132.531 229.754 128.488Z" fill="#D84012" fill-opacity="0.3"/>
<path fill-rule="evenodd" clip-rule="evenodd" d="M231.731 132.383C231.288 131.203 230.728 130.081 230.108 128.96C229.813 128.428 229.252 128.074 228.632 128.015C228.131 127.986 227.658 127.956 227.186 127.927C225.947 127.868 224.737 127.927 223.556 128.045C220.988 128.31 218.568 128.96 216.148 129.934C215.145 130.347 214.672 131.527 215.115 132.531C215.764 133.947 216.296 135.335 216.738 136.81C217.447 139.142 217.83 141.591 218.007 144.189C218.037 144.69 218.362 145.133 218.804 145.31C218.922 145.369 219.07 145.399 219.218 145.428C220.811 145.546 222.641 145.959 223.585 147.228C223.585 147.228 223.585 147.258 223.615 147.258C223.645 147.287 223.645 147.317 223.674 147.317C223.674 147.346 223.704 147.376 223.733 147.376C223.763 147.406 223.792 147.435 223.792 147.494C223.792 147.524 223.822 147.524 223.822 147.553C223.822 147.583 223.851 147.612 223.851 147.612C223.851 147.642 223.881 147.642 223.881 147.671C223.91 147.73 223.94 147.819 223.969 147.878C223.999 147.937 223.999 147.996 224.028 148.084C224.028 148.173 224.058 148.261 224.058 148.35C224.058 148.379 224.058 148.409 224.058 148.409C224.058 148.468 224.058 148.527 224.058 148.557C224.058 148.704 224.087 148.881 224.087 149.058C224.087 149.088 224.087 149.117 224.087 149.176C224.087 149.265 224.087 149.324 224.087 149.412C224.235 154.312 222.287 157.322 221.431 158.325C221.401 158.355 221.372 158.414 221.342 158.444C221.254 158.591 221.372 158.709 221.52 158.886C221.549 158.916 221.579 158.945 221.608 158.975L221.785 159.181L222.11 159.595L222.73 160.362C223.025 160.716 223.202 161.011 223.881 160.391C226.773 157.971 227.393 151.833 227.511 149.442C227.54 148.94 227.54 148.557 227.54 148.35C227.54 148.291 227.54 148.202 227.57 148.143C227.658 147.848 227.776 147.553 227.924 147.258C228.691 145.723 230.108 144.484 231.879 144.071C232.41 143.952 232.794 143.51 232.853 142.979C232.912 142.506 232.971 142.064 233 141.591C233.266 138.109 232.794 135.157 231.731 132.383ZM224.53 142.388C224.53 143.097 223.054 143.244 223.025 142.654C222.907 140.736 222.73 138.876 222.434 137.046C222.198 135.63 221.874 134.243 221.461 132.855C221.461 132.826 221.431 132.796 221.431 132.767C221.313 132.413 221.195 132.088 221.077 131.734C220.9 131.291 221.195 130.79 221.667 130.73C221.785 130.701 221.933 130.73 222.051 130.73C222.169 130.73 222.257 130.79 222.375 130.819C222.493 130.878 222.612 130.967 222.641 131.085C223.349 132.973 223.881 134.921 224.176 136.928C224.412 138.699 224.559 140.529 224.53 142.388ZM218.981 136.309C218.686 135.098 218.332 133.888 217.86 132.737C217.683 132.295 217.948 131.763 218.421 131.704C218.657 131.675 218.922 131.704 219.129 131.793C219.247 131.852 219.336 131.941 219.395 132.029C219.808 133.003 220.162 134.036 220.457 135.039C220.634 135.6 220.752 136.19 220.87 136.751C221.283 138.699 221.49 140.706 221.52 142.831C221.52 143.51 220.044 143.687 219.985 143.126C219.867 141.739 219.719 140.381 219.513 139.053C219.513 138.994 219.483 138.906 219.483 138.847C219.336 137.991 219.188 137.135 218.981 136.309ZM227.688 142.064C227.658 142.742 226.183 142.89 226.153 142.3C226.065 140.293 225.917 138.345 225.622 136.427C225.356 134.715 224.973 133.033 224.412 131.409C224.235 130.967 224.559 130.465 225.032 130.406C225.445 130.347 225.888 130.494 225.976 130.79C226.507 132.295 226.92 133.859 227.216 135.453C227.599 137.578 227.776 139.791 227.688 142.064ZM230.58 141.326C230.551 141.975 229.075 142.093 229.045 141.532C228.986 139.142 228.809 136.81 228.367 134.538C228.16 133.416 227.865 132.324 227.481 131.262C227.304 130.79 227.658 130.288 228.131 130.258C228.514 130.229 228.927 130.376 229.016 130.642C229.341 131.557 229.606 132.472 229.842 133.387C230.492 135.925 230.728 138.552 230.58 141.326Z" fill="#FCCE0B"/>
<path d="M227.924 147.258C227.776 147.553 227.658 147.848 227.57 148.143C227.54 148.202 227.54 148.291 227.54 148.35C227.54 148.557 227.54 148.94 227.511 149.442H224.087C224.087 149.413 224.087 149.413 224.087 149.383C224.087 148.97 224.028 148.527 223.999 148.114C223.999 148.055 223.969 147.996 223.94 147.907C223.851 147.671 223.733 147.465 223.585 147.258H227.924Z" fill="#D84012" fill-opacity="0.3"/>
<path fill-rule="evenodd" clip-rule="evenodd" d="M225.533 150.652C225.238 153.869 224.176 156.938 222.139 159.624C222.021 159.476 221.874 159.358 221.726 159.181C221.638 159.093 221.549 159.004 221.49 158.886C221.402 158.739 221.313 158.591 221.313 158.443C221.343 158.414 221.372 158.355 221.402 158.325C222.257 157.322 224.235 154.312 224.058 149.412C224.058 149.324 224.058 149.235 224.058 149.176C224.058 149.147 224.058 149.117 224.058 149.058C224.058 148.911 224.028 148.734 224.028 148.556C224.028 148.497 224.028 148.438 224.028 148.409C224.028 148.379 224.028 148.379 224.028 148.35C224.028 148.261 224.028 148.173 223.999 148.084C223.999 148.025 223.969 147.966 223.94 147.878C223.91 147.819 223.881 147.73 223.851 147.671C223.851 147.642 223.822 147.642 223.822 147.612C223.822 147.583 223.792 147.553 223.792 147.553C223.792 147.524 223.763 147.523 223.763 147.494C223.733 147.464 223.704 147.435 223.704 147.376C223.704 147.346 223.674 147.346 223.645 147.317C223.615 147.287 223.615 147.258 223.586 147.258C223.586 147.258 223.586 147.228 223.556 147.228C222.612 145.959 220.811 145.576 219.188 145.428C219.04 145.428 218.893 145.369 218.775 145.31C218.332 145.133 218.008 144.661 217.978 144.188C217.712 139.939 216.738 136.102 215.115 132.59C214.613 131.498 215.115 130.347 216.148 129.934C218.598 128.96 221.077 128.34 223.615 128.074C223.29 129.019 222.848 129.934 222.405 130.848C222.287 130.789 222.139 130.76 222.021 130.73C221.903 130.701 221.756 130.701 221.638 130.73C221.165 130.789 220.87 131.291 221.047 131.734C221.165 132.059 221.283 132.413 221.402 132.767C221.402 132.796 221.431 132.826 221.431 132.855C221.106 133.593 220.782 134.302 220.516 135.069C220.221 134.036 219.867 133.032 219.454 132.059C219.395 131.94 219.277 131.852 219.129 131.793C218.952 131.704 218.686 131.675 218.421 131.704C217.948 131.763 217.653 132.295 217.86 132.737C218.332 133.888 218.686 135.098 218.981 136.308C219.188 137.135 219.336 137.991 219.483 138.847C219.572 139.643 219.572 140.44 219.542 141.237C219.572 142.182 219.749 143.185 220.369 143.893C221.136 144.749 222.375 144.956 223.349 145.546C225.002 146.579 225.681 148.704 225.533 150.652Z" fill="white" fill-opacity="0.3"/>
<path fill-rule="evenodd" clip-rule="evenodd" d="M175.981 168.685L173.708 171.636C173.324 170.367 172.055 168.744 171.081 167.593C170.314 166.707 169.222 166.146 168.041 166.058L167.599 166.028C166.595 165.969 165.651 165.556 164.913 164.848C161.755 161.926 157.299 159.831 157.299 159.831C157.062 159.034 157.24 158.119 157.269 157.529C161.903 159.211 165.267 162.546 165.267 162.546C165.267 162.546 165.828 162.959 166.182 162.546C166.33 162.369 166.359 162.192 166.33 162.044C166.271 161.837 166.153 161.719 166.153 161.719C163.024 158.65 159.128 157.027 157.505 156.496C157.505 156.407 157.505 156.289 157.535 156.171C157.535 156.141 157.535 156.141 157.535 156.112C157.564 156.053 157.564 155.964 157.594 155.905C157.8 155.345 158.213 154.666 158.597 154.253C158.627 154.223 158.627 154.223 158.656 154.194C158.745 154.223 158.804 154.253 158.892 154.282C163.644 155.964 167.127 159.388 167.127 159.388C167.127 159.388 167.687 159.801 168.041 159.388C168.189 159.211 168.219 159.034 168.189 158.886C168.159 158.68 168.012 158.561 168.012 158.561C165.267 155.846 161.696 154.282 159.807 153.574C159.837 153.456 159.955 153.338 160.073 153.249C160.132 153.19 160.22 153.131 160.309 153.102C160.457 153.042 160.604 152.954 160.781 152.895C161.194 152.747 161.696 152.629 162.109 152.541C164.795 153.19 168.425 156.289 170.284 157.942C171.022 158.591 171.524 159.476 171.701 160.48L172.055 162.516C172.203 163.343 172.586 164.11 173.147 164.73C174.741 166.471 175.656 168.006 175.921 168.507C175.951 168.626 175.981 168.685 175.981 168.685Z" fill="#FCCE0B"/>
<path fill-rule="evenodd" clip-rule="evenodd" d="M175.981 168.685L173.708 171.636C173.324 170.367 172.055 168.744 171.081 167.593C170.314 166.707 169.222 166.146 168.041 166.058L167.599 166.028C166.595 165.969 165.651 165.556 164.913 164.848C161.755 161.926 157.299 159.831 157.299 159.831C157.062 159.034 157.24 158.119 157.269 157.529C161.903 159.211 165.267 162.546 165.267 162.546C165.267 162.546 165.828 162.959 166.182 162.546C166.33 162.369 166.359 162.192 166.33 162.044C166.271 161.837 166.153 161.719 166.153 161.719C163.024 158.65 159.128 157.027 157.505 156.496C157.505 156.407 157.505 156.289 157.535 156.171C157.535 156.141 157.535 156.141 157.535 156.112C157.564 156.053 157.564 155.964 157.594 155.905C157.8 155.345 158.213 154.666 158.597 154.253C158.627 154.223 158.627 154.223 158.656 154.194C158.745 154.223 158.804 154.253 158.892 154.282C163.644 155.964 167.127 159.388 167.127 159.388C167.127 159.388 167.687 159.801 168.041 159.388C168.189 159.211 168.219 159.034 168.189 158.886C168.159 158.68 168.012 158.561 168.012 158.561C165.267 155.846 161.696 154.282 159.807 153.574C159.837 153.456 159.955 153.338 160.073 153.249C160.132 153.19 160.22 153.131 160.309 153.102C160.457 153.042 160.604 152.954 160.781 152.895C161.194 152.747 161.696 152.629 162.109 152.541C164.795 153.19 168.425 156.289 170.284 157.942C171.022 158.591 171.524 159.476 171.701 160.48L172.055 162.516C172.203 163.343 172.586 164.11 173.147 164.73C174.741 166.471 175.656 168.006 175.921 168.507C175.951 168.626 175.981 168.685 175.981 168.685Z" fill="#D84012" fill-opacity="0.3"/>
<path fill-rule="evenodd" clip-rule="evenodd" d="M176.04 168.272L175.863 168.508L173.767 171.253C173.442 170.22 172.528 168.892 171.672 167.829C171.495 167.593 171.318 167.386 171.14 167.18C170.845 166.855 170.521 166.56 170.166 166.324C169.547 165.94 168.838 165.675 168.101 165.645L167.658 165.616C166.654 165.557 165.71 165.143 164.972 164.435C163.969 163.52 162.847 162.664 161.755 161.926C159.424 160.392 157.358 159.388 157.358 159.388C157.24 158.709 157.21 158.09 157.24 157.499C161.873 159.182 165.297 162.103 165.297 162.103C165.297 162.103 165.858 162.517 166.212 162.103C166.241 162.074 166.271 162.044 166.271 162.015C166.507 161.631 166.153 161.277 166.153 161.277C163.024 158.208 159.069 156.673 157.446 156.142C157.446 156.112 157.446 156.112 157.476 156.083C157.505 156.024 157.535 155.935 157.535 155.876C157.653 155.581 157.771 155.315 157.918 155.05C158.096 154.755 158.302 154.489 158.538 154.223C158.568 154.194 158.568 154.194 158.597 154.164C158.686 154.194 158.745 154.223 158.833 154.253C163.585 155.906 167.156 158.946 167.156 158.946C167.156 158.946 167.717 159.359 168.071 158.946C168.101 158.916 168.101 158.887 168.13 158.857C168.366 158.473 168.042 158.119 168.042 158.119C165.297 155.433 161.932 153.928 160.014 153.22C160.073 153.161 160.161 153.102 160.25 153.072C160.398 153.013 160.545 152.925 160.722 152.866C161.135 152.718 161.608 152.571 162.109 152.453C164.795 153.102 168.455 155.876 170.314 157.529C171.052 158.178 171.554 159.064 171.731 160.067L172.085 162.103C172.203 162.753 172.469 163.402 172.852 163.933C172.941 164.081 173.059 164.199 173.177 164.317C173.531 164.701 173.826 165.055 174.121 165.409C174.889 166.353 175.42 167.15 175.715 167.682C175.922 168.036 176.04 168.272 176.04 168.272Z" fill="#FCCE0B"/>
<path fill-rule="evenodd" clip-rule="evenodd" d="M247.728 149.826C247.698 149.885 247.698 149.914 247.668 149.973C247.639 150.032 247.639 150.062 247.609 150.121C247.58 150.209 247.521 150.298 247.491 150.387C247.462 150.446 247.462 150.475 247.432 150.534C247.255 150.888 247.108 151.242 246.931 151.567C246.901 151.656 246.842 151.715 246.813 151.803C246.783 151.833 246.754 151.892 246.754 151.921C246.547 152.305 246.311 152.689 246.104 153.043C246.075 153.072 246.075 153.102 246.045 153.161C246.016 153.22 246.016 153.22 245.986 153.249C245.957 153.279 245.927 153.338 245.898 153.367C245.868 153.426 245.839 153.456 245.809 153.515C245.809 153.515 245.78 153.544 245.78 153.574C245.75 153.604 245.75 153.633 245.721 153.663C245.691 153.692 245.691 153.722 245.662 153.751C245.514 153.987 245.337 154.194 245.16 154.4C245.13 154.43 245.101 154.459 245.101 154.489C244.835 154.814 244.599 155.109 244.333 155.374C244.245 155.463 244.156 155.551 244.068 155.64L243.95 155.758C243.92 155.788 243.891 155.817 243.832 155.847C243.773 155.906 243.743 155.935 243.684 155.994C243.625 156.053 243.596 156.083 243.537 156.112C243.507 156.142 243.507 156.171 243.478 156.171C243.419 156.201 243.389 156.26 243.33 156.289C243.271 156.319 243.241 156.378 243.182 156.407C243.123 156.437 243.094 156.496 243.035 156.525C242.976 156.555 242.946 156.584 242.887 156.643C242.858 156.673 242.799 156.702 242.769 156.732C242.769 156.732 242.74 156.732 242.74 156.761L242.592 156.85C242.533 156.88 242.504 156.909 242.445 156.968C242.327 157.027 242.238 157.116 242.149 157.175C242.09 157.204 242.061 157.234 242.002 157.263C241.943 157.293 241.913 157.322 241.854 157.352C241.795 157.381 241.736 157.411 241.677 157.47C241.648 157.499 241.589 157.529 241.559 157.529C241.471 157.588 241.382 157.647 241.294 157.676C241.235 157.706 241.176 157.735 241.146 157.765C240.939 157.853 240.762 157.971 240.585 158.06C240.526 158.09 240.497 158.09 240.438 158.119C240.349 158.178 240.231 158.208 240.143 158.267C239.995 158.326 239.847 158.385 239.729 158.444C239.729 158.444 239.7 158.444 239.7 158.473C239.434 158.591 239.169 158.68 238.874 158.798C236.837 159.565 234.919 160.096 233.384 161.572C232.912 162.044 232.469 162.605 232.056 163.313C231.79 163.786 231.525 164.317 231.318 164.937C230.787 166.353 230.403 168.213 230.197 170.603L226.685 169.718C226.625 167.888 226.95 166.412 227.481 165.084C227.658 164.642 227.865 164.228 228.072 163.815V163.786C228.603 162.782 229.252 161.867 229.901 160.982C230.049 160.775 230.226 160.539 230.374 160.333C230.374 160.333 230.403 160.303 230.403 160.274C230.58 160.037 230.757 159.801 230.905 159.565C230.934 159.536 230.964 159.477 230.993 159.447C231.052 159.359 231.112 159.27 231.171 159.182C232.056 157.912 232.764 156.584 233.03 154.961C233.089 154.636 233.089 154.312 233.089 153.987C233.089 153.899 233.089 153.81 233.089 153.722C233.03 152.098 233.797 149.944 235.184 147.494C235.184 147.465 235.214 147.435 235.214 147.435C235.509 146.904 235.863 146.343 236.217 145.812C236.217 145.812 236.247 145.782 236.247 145.753C236.453 145.458 236.66 145.133 236.867 144.838C238.844 142.182 241.117 139.791 243.596 139.496C244.393 139.408 245.189 139.526 246.016 139.939C246.576 140.293 247.049 140.706 247.432 141.178C247.728 141.503 247.964 141.857 248.141 142.241C248.2 142.388 248.288 142.507 248.347 142.654C248.347 142.654 248.347 142.684 248.377 142.713C248.377 142.743 248.406 142.772 248.406 142.802C249.144 144.661 248.879 147.052 247.728 149.826Z" fill="#FCCE0B"/>
<path fill-rule="evenodd" clip-rule="evenodd" d="M248.288 142.684C241.353 142.152 236.394 146.225 233.886 156.614C233.532 158.267 232.676 159.713 231.702 161.07C230.256 163.048 228.544 165.232 228.662 167.829C228.691 168.301 228.75 168.832 228.367 169.128C228.042 169.334 227.481 169.452 227.157 169.246C226.891 168.891 226.714 168.36 226.655 167.918C226.802 166.973 227.009 165.97 227.393 165.084C227.57 164.671 227.747 164.258 227.924 163.874V163.845C228.603 162.576 229.429 161.484 230.256 160.392C230.256 160.392 230.285 160.362 230.285 160.333C231.643 158.532 232.823 156.732 233 154.105C232.794 152.6 233.679 150.062 235.066 147.524C235.066 147.494 235.096 147.465 235.096 147.465C235.391 146.904 235.745 146.373 236.099 145.842C236.099 145.842 236.129 145.812 236.129 145.783C238.165 142.713 240.91 139.998 243.478 139.526C244.274 139.437 245.071 139.555 245.898 139.968C246.458 140.323 246.931 140.736 247.314 141.208C247.609 141.533 247.845 141.887 248.023 142.27C248.17 142.388 248.229 142.536 248.288 142.684Z" fill="white" fill-opacity="0.3"/>
<path fill-rule="evenodd" clip-rule="evenodd" d="M247.727 149.826C242.651 162.192 234.417 156.437 231.289 164.937L231.023 165.733C232.882 158.355 238.578 159.624 242.149 156.82C246.281 153.574 248.79 148.114 248.377 142.802C249.144 144.661 248.879 147.051 247.727 149.826Z" fill="#D84012" fill-opacity="0.3"/>
<path d="M233.384 161.572C232.912 162.044 232.469 162.605 232.056 163.313L229.901 160.982C230.344 160.391 230.787 159.772 231.2 159.181L233.384 161.572Z" fill="#D84012" fill-opacity="0.3"/>
<path fill-rule="evenodd" clip-rule="evenodd" d="M234.889 154.223C235.066 150.003 238.106 145.517 241.146 142.743C243.832 140.5 245.986 141.562 244.156 144.75C243.802 145.399 243.359 146.019 243.094 146.698C242.474 149.059 242.297 149.501 239.906 150.18C238.195 150.829 237.457 152.571 237.28 154.282C236.926 155.581 235.302 155.315 234.889 154.223Z" fill="#D84012" fill-opacity="0.2"/>
<path fill-rule="evenodd" clip-rule="evenodd" d="M244.835 141.621C244.274 141.592 243.714 141.71 243.182 142.005C239.847 143.923 235.627 150.416 235.627 154.4C235.627 155.492 236.335 156.437 237.28 156.791C235.952 156.732 234.889 155.61 234.889 154.253C234.889 150.298 239.11 143.776 242.445 141.857C243.212 141.414 244.068 141.355 244.835 141.621Z" fill="#442A00" fill-opacity="0.2"/>
<path fill-rule="evenodd" clip-rule="evenodd" d="M172.291 152.393C174.18 156.997 175.567 161.926 176.01 168.094C176.01 168.094 179.434 156.171 195.636 153.279C207.235 151.183 215.617 155.079 215.617 155.079C215.44 154.076 215.912 146.668 206.586 139.23C206.586 139.23 215.823 136.456 212.311 128.428C209.567 122.172 200.654 123.441 200.654 123.441C200.654 123.441 196.699 113.406 180.762 118.364C168.396 122.231 168.13 133.446 168.13 133.446C168.13 133.446 157.092 138.817 163.113 149.147C166.448 154.784 172.291 152.393 172.291 152.393Z" fill="white"/>
<path d="M188.288 154.194C187.579 156.496 185.366 155.905 183.831 157.263C180.083 160.155 177.574 164.464 175.479 168.655C176.187 165.763 175.036 162.841 174.682 159.978C174.475 158.384 174.062 156.909 173.56 155.374C173.324 154.607 173.088 153.869 172.941 153.102C172.793 152.334 172.616 151.685 173.413 151.242C173.708 151.065 174.092 150.977 174.416 150.829C175.154 150.534 175.803 150.062 176.276 149.442C176.689 148.94 176.954 148.35 177.397 147.878C178.873 146.225 181.529 146.166 183.123 144.631C183.447 144.336 183.713 143.982 184.097 143.746C184.687 143.392 185.041 143.775 185.602 143.746C186.281 143.687 186.959 143.274 187.55 142.978C190.294 141.798 196.669 138.847 199.385 139.702C201.214 140.116 203.074 140.293 204.963 140.263C205.641 140.263 206.94 140.381 207.53 140.057C205.169 141.414 202.513 141.945 199.886 142.27C199.089 142.447 198.175 142.211 197.437 142.595C196.905 142.86 196.581 143.451 196.197 143.923C195.046 145.31 193.157 145.782 191.8 146.963C189.645 148.734 189.143 151.655 188.288 154.194Z" fill="#442A00" fill-opacity="0.3"/>
<path d="M165.297 146.048C167.54 148.409 171.229 144.838 170.373 141.68C170.285 141.414 170.58 141.149 170.845 141.267C174.092 142.506 176.777 140.381 176.748 136.987C176.748 136.692 177.073 136.515 177.309 136.692C178.371 137.459 180.644 138.67 183.123 137.755C183.861 137.489 184.658 137.43 185.454 137.637C192.065 139.378 201.805 133.564 203.841 125.92C204.372 126.923 204.874 128.222 205.199 129.52C205.258 129.756 205.317 129.963 205.405 130.199C207.029 134.42 210.688 127.012 207.206 124.444C214.909 126.835 214.023 134.567 209.272 136.958C206.556 138.581 203.192 138.286 200.093 138.67C193.334 139.732 187.166 143.244 180.762 145.635C179.581 146.107 178.401 146.609 177.427 147.405C176.246 148.35 175.42 149.708 174.239 150.681C169.37 154.902 161.578 150.859 161.283 144.631C161.165 143.333 163.674 137.518 163.674 137.518C163.674 137.518 162.552 142.919 165.297 146.048Z" fill="#442A00" fill-opacity="0.2"/>
<path fill-rule="evenodd" clip-rule="evenodd" d="M174.859 167.239C174.977 169.039 174.77 168.331 173.738 168.655L173.944 171.105C173.944 171.105 183.743 159.565 200.388 156.584C212.311 154.459 216.414 156.201 216.414 156.201C216.856 156.112 216.148 146.137 208.947 139.26C208.947 139.26 216.62 136.191 213.02 127.956C210.186 121.493 201.716 122.939 201.716 122.939C201.716 122.939 197.584 112.639 181.263 117.745C166.861 122.231 167.038 133.416 167.038 133.416C167.038 133.416 156.207 138.817 162.404 149.442C165.769 155.227 172.085 153.338 172.085 153.338C172.085 153.338 174.918 159.536 174.859 167.239ZM196.935 140.293C195.784 140.972 194.958 141.237 194.958 141.237C191.091 144.012 184.569 144.72 184.569 144.72C181.854 147.347 178.961 147.288 178.961 147.288C176.482 151.98 173.413 152.836 173.413 152.836C176.04 158.562 176.423 164.11 176.482 165.674C179.375 163.077 184.628 159.27 194.013 156.525C208.091 152.393 214.732 154.607 214.732 154.607C214.732 154.607 214.141 150.386 212.223 146.55C210.275 142.92 207.678 140.086 207.678 140.086L205.878 140.499C200.831 141.119 198.086 140.618 196.935 140.293ZM200.89 137.076C202.188 137.401 206.173 138.256 209.065 136.84C212.577 135.128 214.259 129.373 209.065 125.595C203.841 121.847 196.787 126.008 196.787 126.008C198.175 124.179 200.093 123.47 200.093 123.47C200.093 123.47 194.544 114.557 181.204 119.22C170.462 122.821 169.045 132.826 169.045 132.826C172.173 131.941 176.128 133.328 176.128 133.328C174.18 133.593 171.967 133.033 167.038 135.335C160.752 138.286 161.017 149.147 167.304 151.272C173.56 153.367 175.892 146.638 175.892 146.638C172.291 145.458 170.993 142.27 170.993 142.27C170.993 142.27 172.764 144.631 177.279 145.222C181.765 145.812 182.355 143.008 182.355 143.008C178.725 142.241 177.309 137.607 177.309 137.607C180.732 142.713 188.11 141.71 188.11 141.71C185.927 141.473 184.421 138.965 184.421 138.965C184.421 138.965 187.284 141.532 193.511 139.467C202.454 136.515 203.989 128.429 203.989 128.429C203.989 132.265 202.572 135.069 200.89 137.076Z" fill="#442A00"/>
<path d="M234.505 173.436C234.505 173.702 234.446 173.938 234.358 174.174C234.24 174.41 234.092 174.676 233.886 174.912C233.679 175.148 233.413 175.384 233.089 175.65C232.764 175.886 232.41 176.122 231.997 176.358C231.584 176.594 231.111 176.801 230.61 177.037C230.108 177.244 229.547 177.48 228.957 177.686C228.367 177.893 227.717 178.1 227.039 178.277C226.36 178.483 225.622 178.66 224.884 178.837C224.117 179.014 223.32 179.192 222.494 179.339C221.667 179.487 220.811 179.634 219.896 179.782C219.011 179.929 218.067 180.047 217.122 180.165C216.178 180.284 215.204 180.402 214.2 180.49C213.197 180.579 212.193 180.667 211.16 180.756C210.127 180.815 209.094 180.903 208.032 180.933C206.97 180.992 205.907 181.021 204.845 181.051C203.782 181.08 202.69 181.08 201.628 181.08C200.565 181.08 199.473 181.08 198.411 181.051C197.348 181.021 196.286 180.992 195.223 180.933C194.161 180.874 193.128 180.815 192.095 180.756C191.062 180.697 190.058 180.608 189.055 180.49C188.051 180.402 187.078 180.284 186.133 180.165C185.189 180.047 184.244 179.929 183.359 179.782C182.473 179.634 181.588 179.487 180.762 179.339C179.935 179.192 179.138 179.014 178.371 178.837C177.604 178.66 176.895 178.483 176.217 178.277C175.538 178.07 174.889 177.893 174.298 177.686C173.708 177.48 173.147 177.273 172.646 177.037C172.144 176.83 171.672 176.594 171.258 176.358C170.845 176.122 170.491 175.886 170.166 175.65C169.842 175.414 169.606 175.178 169.37 174.912C169.163 174.676 169.015 174.41 168.897 174.174C168.779 173.938 168.75 173.673 168.75 173.436C168.75 173.2 168.809 172.935 168.897 172.699C169.015 172.463 169.163 172.197 169.37 171.961C169.576 171.725 169.842 171.459 170.166 171.223C170.491 170.987 170.845 170.751 171.258 170.515C171.672 170.279 172.144 170.072 172.646 169.836C173.147 169.629 173.708 169.393 174.298 169.187C174.889 168.98 175.538 168.773 176.217 168.596C176.895 168.39 177.633 168.213 178.371 168.035C179.138 167.858 179.935 167.681 180.762 167.534C181.588 167.386 182.444 167.239 183.359 167.091C184.244 166.944 185.189 166.825 186.133 166.707C187.078 166.589 188.051 166.471 189.055 166.383C190.058 166.294 191.062 166.206 192.095 166.117C193.128 166.058 194.161 165.97 195.223 165.94C196.286 165.881 197.348 165.852 198.411 165.822C199.473 165.792 200.565 165.792 201.628 165.792C202.69 165.792 203.782 165.792 204.845 165.822C205.907 165.852 206.97 165.881 208.032 165.94C209.094 165.999 210.127 166.058 211.16 166.117C212.193 166.176 213.197 166.265 214.2 166.383C215.204 166.471 216.178 166.589 217.122 166.707C218.067 166.825 218.981 166.944 219.896 167.091C220.782 167.239 221.667 167.386 222.494 167.534C223.32 167.681 224.117 167.858 224.884 168.035C225.651 168.213 226.36 168.39 227.039 168.596C227.717 168.803 228.367 168.98 228.957 169.187C229.547 169.393 230.108 169.6 230.61 169.836C231.111 170.042 231.584 170.279 231.997 170.515C232.41 170.751 232.764 170.987 233.089 171.223C233.413 171.459 233.65 171.695 233.886 171.961C234.092 172.197 234.24 172.463 234.358 172.699C234.446 172.935 234.505 173.171 234.505 173.436Z" fill="#C1CCCE"/>
<mask id="mask4_1829_1753" style="mask-type:luminance" maskUnits="userSpaceOnUse" x="168" y="165" width="67" height="17">
<path d="M234.86 165.173H168.307V181.405H234.86V165.173Z" fill="white"/>
</mask>
<g mask="url(#mask4_1829_1753)">
<mask id="mask5_1829_1753" style="mask-type:luminance" maskUnits="userSpaceOnUse" x="168" y="165" width="67" height="17">
<path d="M234.623 165.733H168.602V181.11H234.623V165.733Z" fill="white"/>
</mask>
<g mask="url(#mask5_1829_1753)">
<path fill-rule="evenodd" clip-rule="evenodd" d="M234.505 173.436C234.505 175.059 232.321 176.535 228.632 177.775C222.7 179.752 212.813 181.051 201.628 181.051C183.477 181.051 168.75 177.627 168.75 173.436C168.75 171.223 172.852 169.245 179.375 167.829C185.218 166.589 193.039 165.822 201.598 165.822C219.778 165.822 234.505 169.216 234.505 173.436Z" fill="#442A00"/>
</g>
</g>
<path fill-rule="evenodd" clip-rule="evenodd" d="M234.506 173.436C234.506 175.06 232.322 176.535 228.632 177.775C222.73 179.162 214.584 179.988 205.612 179.988C187.609 179.988 172.35 176.683 172.35 172.492C172.35 170.751 175.007 169.128 179.375 167.829C185.218 166.589 193.039 165.822 201.598 165.822C219.778 165.822 234.506 169.216 234.506 173.436Z" fill="#C1CCCE"/>
<mask id="mask6_1829_1753" style="mask-type:luminance" maskUnits="userSpaceOnUse" x="172" y="165" width="63" height="16">
<path d="M234.889 165.173H172.203V180.283H234.889V165.173Z" fill="white"/>
</mask>
<g mask="url(#mask6_1829_1753)">
<mask id="mask7_1829_1753" style="mask-type:luminance" maskUnits="userSpaceOnUse" x="172" y="165" width="63" height="16">
<path d="M234.624 165.733H172.203V180.165H234.624V165.733Z" fill="white"/>
</mask>
<g mask="url(#mask7_1829_1753)">
<path fill-rule="evenodd" clip-rule="evenodd" d="M234.506 173.436C234.506 175.059 232.322 176.535 228.632 177.775C222.73 179.162 214.584 179.988 205.612 179.988C187.609 179.988 172.35 176.683 172.35 172.492C172.35 170.751 175.007 169.127 179.375 167.829C185.218 166.589 193.039 165.822 201.598 165.822C219.778 165.822 234.506 169.216 234.506 173.436Z" fill="#442A00"/>
</g>
</g>
<path fill-rule="evenodd" clip-rule="evenodd" d="M228.603 169.777C228.603 169.777 237.988 174.027 223.999 178.218L225.592 179.133L232.263 177.214L234.889 173.555L231.731 170.397L228.927 169.511L228.603 169.777Z" fill="white" fill-opacity="0.7"/>
<path fill-rule="evenodd" clip-rule="evenodd" d="M201.687 164.937C220.487 164.937 235.745 168.803 235.745 173.584C235.745 178.365 220.487 182.231 201.687 182.231C182.887 182.231 167.628 178.365 167.628 173.584C167.628 168.832 182.887 164.937 201.687 164.937ZM201.539 166.442C219.011 166.442 233.177 169.541 233.177 173.377C233.177 177.214 219.011 180.313 201.539 180.313C184.097 180.313 169.901 177.214 169.901 173.377C169.901 169.541 184.097 166.442 201.539 166.442Z" fill="#442A00"/>
<path fill-rule="evenodd" clip-rule="evenodd" d="M227.54 173.171C227.54 173.171 218.863 177.126 202.1 176.358C195.194 176.034 189.498 175.296 185.189 174.558C179.079 173.495 175.715 172.315 175.715 172.315C175.715 172.315 175.951 156.761 194.161 153.161C196.374 152.718 198.853 152.452 201.628 152.423C227.983 152.098 227.54 173.171 227.54 173.171Z" fill="#C1CCCE"/>
<path fill-rule="evenodd" clip-rule="evenodd" d="M196.699 153.309C189.793 153.987 174.062 168.39 185.218 174.617C179.109 173.555 175.744 172.374 175.744 172.374C175.744 172.374 175.98 156.821 194.19 153.22C194.19 153.545 196.699 153.309 196.699 153.309Z" fill="#442A00" fill-opacity="0.2"/>
<path d="M203.635 153.013C203.635 153.013 217.329 156.85 217.801 175.001C222.11 174.027 221.313 174.322 221.313 174.322C221.313 174.322 220.428 157.175 203.635 153.013Z" fill="white"/>
<path d="M203.93 153.043C203.93 153.043 222.198 156.614 222.612 174.263C226.921 173.289 225.622 173.702 225.622 173.702C225.622 173.702 224.117 156.466 203.93 153.043Z" fill="white"/>
<path fill-rule="evenodd" clip-rule="evenodd" d="M175.538 173.436C175.184 173.348 174.475 173.141 174.475 173.141C174.475 173.141 174.534 172.256 174.594 171.961C175.361 167.534 179.611 152.01 201.598 151.774C223.674 151.508 227.688 167.062 228.396 172.079C228.455 172.492 228.455 173.495 228.455 173.495C228.455 173.495 227.983 173.879 227.127 174.174C223.851 175.296 214.997 177.775 201.952 177.155C185.484 176.447 178.696 174.233 175.538 173.436ZM176.984 172.551C176.659 172.492 175.745 172.256 175.745 172.256C175.745 172.256 175.922 171.37 175.981 170.987C176.896 166.737 181.411 153.249 201.51 153.013C221.667 152.777 225.947 166.265 226.832 171.075C226.921 171.548 227.216 172.728 227.216 172.728C227.216 172.728 225.976 173.112 225.504 173.23C222.199 174.174 213.758 176.152 201.864 175.62C187.225 175.089 180.142 173.289 176.984 172.551Z" fill="#442A00"/>
<path d="M246.724 143.451C246.99 144.809 246.96 146.196 246.783 147.553C246.37 150.446 244.894 153.279 242.563 155.079L242.356 155.256L242.297 155.286C242.238 155.315 242.179 155.374 242.149 155.404L241.736 155.699C241.618 155.787 241.441 155.876 241.294 155.965C240.703 156.289 240.083 156.584 239.434 156.791C241.441 155.551 243.182 154.017 244.392 152.01C245.927 149.442 246.606 146.432 246.724 143.451Z" fill="white" fill-opacity="0.7"/>
<path fill-rule="evenodd" clip-rule="evenodd" d="M174.121 165.35L171.672 167.799C171.494 167.563 171.317 167.357 171.14 167.15C170.845 166.825 170.521 166.53 170.166 166.294L172.852 163.844C172.941 163.992 173.059 164.11 173.147 164.228C173.501 164.641 173.826 164.995 174.121 165.35Z" fill="#D84012" fill-opacity="0.3"/>
<path fill-rule="evenodd" clip-rule="evenodd" d="M161.755 161.926C159.424 160.392 157.358 159.388 157.358 159.388C157.24 158.709 157.21 158.09 157.24 157.499L157.712 159.123L161.755 161.926Z" fill="white" fill-opacity="0.7"/>
<path fill-rule="evenodd" clip-rule="evenodd" d="M175.715 167.652C175.567 167.859 175.036 168.331 175.213 168.154C171.701 163.697 165.769 156.85 157.948 155.05C158.125 154.755 158.332 154.489 158.568 154.223C158.597 154.194 158.597 154.194 158.627 154.164C158.715 154.194 158.774 154.223 158.863 154.253C163.614 155.906 167.186 158.946 167.186 158.946C167.186 158.946 167.746 159.359 168.1 158.946C168.13 158.916 168.13 158.887 168.159 158.857C168.396 158.473 168.071 158.119 168.071 158.119C165.326 155.433 161.962 153.928 160.043 153.22C160.102 153.161 160.191 153.102 160.279 153.072C160.427 153.013 160.575 152.925 160.752 152.866C161.165 152.718 161.637 152.571 162.139 152.453C164.824 153.102 168.484 155.876 170.343 157.529C171.081 158.178 171.583 159.064 171.76 160.067L172.114 162.103C172.232 162.753 172.498 163.402 172.882 163.933C172.97 164.081 173.088 164.199 173.206 164.317C173.56 164.701 173.856 165.055 174.151 165.409C174.859 166.324 175.39 167.121 175.715 167.652Z" fill="#442A00" fill-opacity="0.2"/>
<mask id="mask8_1829_1753" style="mask-type:luminance" maskUnits="userSpaceOnUse" x="199" y="138" width="13" height="16">
<path d="M211.042 138.315H199.385V153.426H211.042V138.315Z" fill="white"/>
</mask>
<g mask="url(#mask8_1829_1753)">
<mask id="mask9_1829_1753" style="mask-type:luminance" maskUnits="userSpaceOnUse" x="199" y="138" width="12" height="16">
<path d="M210.688 153.102L206.202 152.777C205.022 146.993 202.306 141.651 199.798 139.968L203.517 138.345C206.733 141.267 210.009 147.967 210.688 153.102Z" fill="white"/>
</mask>
<g mask="url(#mask9_1829_1753)">
<mask id="mask10_1829_1753" style="mask-type:luminance" maskUnits="userSpaceOnUse" x="199" y="138" width="12" height="16">
<path d="M210.688 138.345H199.798V153.102H210.688V138.345Z" fill="white"/>
</mask>
<g mask="url(#mask10_1829_1753)">
<mask id="mask11_1829_1753" style="mask-type:luminance" maskUnits="userSpaceOnUse" x="194" y="52" width="127" height="98">
<path d="M320.98 52.1069H194.515V149.117H320.98V52.1069Z" fill="white"/>
</mask>
<g mask="url(#mask11_1829_1753)">
<mask id="mask12_1829_1753" style="mask-type:luminance" maskUnits="userSpaceOnUse" x="194" y="52" width="127" height="98">
<path d="M320.98 52.1069H194.515V149.117H320.98V52.1069Z" fill="white"/>
</mask>
<g mask="url(#mask12_1829_1753)">
<mask id="mask13_1829_1753" style="mask-type:luminance" maskUnits="userSpaceOnUse" x="194" y="52" width="127" height="98">
<path d="M320.98 52.1069H194.515V149.117H320.98V52.1069Z" fill="white"/>
</mask>
<g mask="url(#mask13_1829_1753)">
<mask id="mask14_1829_1753" style="mask-type:luminance" maskUnits="userSpaceOnUse" x="189" y="45" width="137" height="111">
<path d="M325.584 155.61L320.95 52.1072L189.881 45.6143L194.515 149.118L325.584 155.61Z" fill="white"/>
</mask>
<g mask="url(#mask14_1829_1753)">
<path d="M457.42 -73.6492H58.0748V329.296H457.42V-73.6492Z" fill="#442A00"/>
</g>
</g>
</g>
</g>
</g>
<mask id="mask15_1829_1753" style="mask-type:luminance" maskUnits="userSpaceOnUse" x="199" y="138" width="12" height="16">
<path d="M210.688 138.345H199.798V153.102H210.688V138.345Z" fill="white"/>
</mask>
<g mask="url(#mask15_1829_1753)">
<mask id="mask16_1829_1753" style="mask-type:luminance" maskUnits="userSpaceOnUse" x="194" y="149" width="127" height="98">
<path d="M320.98 149.117H194.515V246.128H320.98V149.117Z" fill="white"/>
</mask>
<g mask="url(#mask16_1829_1753)">
<mask id="mask17_1829_1753" style="mask-type:luminance" maskUnits="userSpaceOnUse" x="194" y="149" width="127" height="98">
<path d="M320.98 149.117H194.515V246.128H320.98V149.117Z" fill="white"/>
</mask>
<g mask="url(#mask17_1829_1753)">
<mask id="mask18_1829_1753" style="mask-type:luminance" maskUnits="userSpaceOnUse" x="194" y="149" width="127" height="98">
<path d="M320.98 149.117H194.515V246.128H320.98V149.117Z" fill="white"/>
</mask>
<g mask="url(#mask18_1829_1753)">
<mask id="mask19_1829_1753" style="mask-type:luminance" maskUnits="userSpaceOnUse" x="189" y="142" width="137" height="111">
<path d="M325.584 252.621L320.95 149.117L189.881 142.625L194.515 246.128L325.584 252.621Z" fill="white"/>
</mask>
<g mask="url(#mask19_1829_1753)">
<path d="M457.42 23.3611H58.0748V426.307H457.42V23.3611Z" fill="#442A00"/>
</g>
</g>
</g>
</g>
</g>
</g>
</g>
<mask id="mask20_1829_1753" style="mask-type:luminance" maskUnits="userSpaceOnUse" x="189" y="137" width="13" height="17">
<path d="M201.037 137.755H189.38V153.426H201.037V137.755Z" fill="white"/>
</mask>
<g mask="url(#mask20_1829_1753)">
<mask id="mask21_1829_1753" style="mask-type:luminance" maskUnits="userSpaceOnUse" x="189" y="138" width="12" height="16">
<path d="M200.742 153.072L196.256 152.747C195.076 146.963 192.331 141.621 189.852 139.939L193.57 138.315C196.758 141.237 200.034 147.937 200.742 153.072Z" fill="white"/>
</mask>
<g mask="url(#mask21_1829_1753)">
<mask id="mask22_1829_1753" style="mask-type:luminance" maskUnits="userSpaceOnUse" x="189" y="138" width="12" height="16">
<path d="M200.713 138.315H189.822V153.072H200.713V138.315Z" fill="white"/>
</mask>
<g mask="url(#mask22_1829_1753)">
<mask id="mask23_1829_1753" style="mask-type:luminance" maskUnits="userSpaceOnUse" x="194" y="52" width="127" height="98">
<path d="M320.98 52.1069H194.515V149.117H320.98V52.1069Z" fill="white"/>
</mask>
<g mask="url(#mask23_1829_1753)">
<mask id="mask24_1829_1753" style="mask-type:luminance" maskUnits="userSpaceOnUse" x="194" y="52" width="127" height="98">
<path d="M320.98 52.1069H194.515V149.117H320.98V52.1069Z" fill="white"/>
</mask>
<g mask="url(#mask24_1829_1753)">
<mask id="mask25_1829_1753" style="mask-type:luminance" maskUnits="userSpaceOnUse" x="194" y="52" width="127" height="98">
<path d="M320.98 52.1069H194.515V149.117H320.98V52.1069Z" fill="white"/>
</mask>
<g mask="url(#mask25_1829_1753)">
<mask id="mask26_1829_1753" style="mask-type:luminance" maskUnits="userSpaceOnUse" x="189" y="45" width="137" height="111">
<path d="M325.584 155.61L320.95 52.1072L189.881 45.6143L194.515 149.118L325.584 155.61Z" fill="white"/>
</mask>
<g mask="url(#mask26_1829_1753)">
<path d="M457.42 -73.6494H58.0748V329.296H457.42V-73.6494Z" fill="#442A00"/>
</g>
</g>
</g>
</g>
</g>
<mask id="mask27_1829_1753" style="mask-type:luminance" maskUnits="userSpaceOnUse" x="189" y="138" width="12" height="16">
<path d="M200.713 138.315H189.822V153.072H200.713V138.315Z" fill="white"/>
</mask>
<g mask="url(#mask27_1829_1753)">
<mask id="mask28_1829_1753" style="mask-type:luminance" maskUnits="userSpaceOnUse" x="194" y="149" width="127" height="98">
<path d="M320.98 149.117H194.515V246.128H320.98V149.117Z" fill="white"/>
</mask>
<g mask="url(#mask28_1829_1753)">
<mask id="mask29_1829_1753" style="mask-type:luminance" maskUnits="userSpaceOnUse" x="194" y="149" width="127" height="98">
<path d="M320.98 149.117H194.515V246.128H320.98V149.117Z" fill="white"/>
</mask>
<g mask="url(#mask29_1829_1753)">
<mask id="mask30_1829_1753" style="mask-type:luminance" maskUnits="userSpaceOnUse" x="194" y="149" width="127" height="98">
<path d="M320.98 149.117H194.515V246.128H320.98V149.117Z" fill="white"/>
</mask>
<g mask="url(#mask30_1829_1753)">
<mask id="mask31_1829_1753" style="mask-type:luminance" maskUnits="userSpaceOnUse" x="189" y="142" width="137" height="111">
<path d="M325.584 252.621L320.95 149.117L189.881 142.625L194.515 246.128L325.584 252.621Z" fill="white"/>
</mask>
<g mask="url(#mask31_1829_1753)">
<path d="M457.42 23.3611H58.0748V426.307H457.42V23.3611Z" fill="#442A00"/>
</g>
</g>
</g>
</g>
</g>
<mask id="mask32_1829_1753" style="mask-type:luminance" maskUnits="userSpaceOnUse" x="189" y="138" width="12" height="16">
<path d="M200.713 138.315H189.822V153.072H200.713V138.315Z" fill="white"/>
</mask>
<g mask="url(#mask32_1829_1753)">
<mask id="mask33_1829_1753" style="mask-type:luminance" maskUnits="userSpaceOnUse" x="68" y="52" width="127" height="98">
<path d="M194.515 52.1069H68.0503V149.117H194.515V52.1069Z" fill="white"/>
</mask>
<g mask="url(#mask33_1829_1753)">
<mask id="mask34_1829_1753" style="mask-type:luminance" maskUnits="userSpaceOnUse" x="68" y="52" width="127" height="98">
<path d="M194.515 52.1069H68.0503V149.117H194.515V52.1069Z" fill="white"/>
</mask>
<g mask="url(#mask34_1829_1753)">
<mask id="mask35_1829_1753" style="mask-type:luminance" maskUnits="userSpaceOnUse" x="68" y="52" width="127" height="98">
<path d="M194.515 52.1069H68.0503V149.117H194.515V52.1069Z" fill="white"/>
</mask>
<g mask="url(#mask35_1829_1753)">
<mask id="mask36_1829_1753" style="mask-type:luminance" maskUnits="userSpaceOnUse" x="63" y="45" width="137" height="111">
<path d="M199.119 155.61L194.515 52.1072L63.4166 45.6143L68.0502 149.118L199.119 155.61Z" fill="white"/>
</mask>
<g mask="url(#mask36_1829_1753)">
<path d="M330.955 -73.6494H-68.3898V329.296H330.955V-73.6494Z" fill="#442A00"/>
</g>
</g>
</g>
</g>
</g>
<mask id="mask37_1829_1753" style="mask-type:luminance" maskUnits="userSpaceOnUse" x="189" y="138" width="12" height="16">
<path d="M200.713 138.315H189.822V153.072H200.713V138.315Z" fill="white"/>
</mask>
<g mask="url(#mask37_1829_1753)">
<mask id="mask38_1829_1753" style="mask-type:luminance" maskUnits="userSpaceOnUse" x="68" y="149" width="127" height="98">
<path d="M194.515 149.117H68.0503V246.128H194.515V149.117Z" fill="white"/>
</mask>
<g mask="url(#mask38_1829_1753)">
<mask id="mask39_1829_1753" style="mask-type:luminance" maskUnits="userSpaceOnUse" x="68" y="149" width="127" height="98">
<path d="M194.515 149.117H68.0503V246.128H194.515V149.117Z" fill="white"/>
</mask>
<g mask="url(#mask39_1829_1753)">
<mask id="mask40_1829_1753" style="mask-type:luminance" maskUnits="userSpaceOnUse" x="68" y="149" width="127" height="98">
<path d="M194.515 149.117H68.0503V246.128H194.515V149.117Z" fill="white"/>
</mask>
<g mask="url(#mask40_1829_1753)">
<mask id="mask41_1829_1753" style="mask-type:luminance" maskUnits="userSpaceOnUse" x="63" y="142" width="137" height="111">
<path d="M199.119 252.621L194.515 149.117L63.4166 142.625L68.0502 246.128L199.119 252.621Z" fill="white"/>
</mask>
<g mask="url(#mask41_1829_1753)">
<path d="M330.955 23.3611H-68.3898V426.307H330.955V23.3611Z" fill="#442A00"/>
</g>
</g>
</g>
</g>
</g>
</g>
</g>
<mask id="mask42_1829_1753" style="mask-type:luminance" maskUnits="userSpaceOnUse" x="181" y="142" width="9" height="15">
<path d="M189.94 142.802H181.618V156.791H189.94V142.802Z" fill="white"/>
</mask>
<g mask="url(#mask42_1829_1753)">
<mask id="mask43_1829_1753" style="mask-type:luminance" maskUnits="userSpaceOnUse" x="181" y="143" width="9" height="14">
<path d="M189.911 154.754L185.395 156.496C184.894 152.983 183.625 149.029 182.178 146.018C181.145 143.923 182.857 145.339 181.824 144.661L183.27 143.303C184.303 144.247 184.805 142.241 185.779 143.805C187.815 147.11 189.468 151.272 189.911 154.754Z" fill="white"/>
</mask>
<g mask="url(#mask43_1829_1753)">
<mask id="mask44_1829_1753" style="mask-type:luminance" maskUnits="userSpaceOnUse" x="181" y="142" width="9" height="15">
<path d="M189.94 142.27H181.175V156.496H189.94V142.27Z" fill="white"/>
</mask>
<g mask="url(#mask44_1829_1753)">
<mask id="mask45_1829_1753" style="mask-type:luminance" maskUnits="userSpaceOnUse" x="68" y="52" width="127" height="98">
<path d="M194.515 52.1069H68.0503V149.117H194.515V52.1069Z" fill="white"/>
</mask>
<g mask="url(#mask45_1829_1753)">
<mask id="mask46_1829_1753" style="mask-type:luminance" maskUnits="userSpaceOnUse" x="68" y="52" width="127" height="98">
<path d="M194.515 52.1069H68.0503V149.117H194.515V52.1069Z" fill="white"/>
</mask>
<g mask="url(#mask46_1829_1753)">
<mask id="mask47_1829_1753" style="mask-type:luminance" maskUnits="userSpaceOnUse" x="68" y="52" width="127" height="98">
<path d="M194.515 52.1069H68.0503V149.117H194.515V52.1069Z" fill="white"/>
</mask>
<g mask="url(#mask47_1829_1753)">
<mask id="mask48_1829_1753" style="mask-type:luminance" maskUnits="userSpaceOnUse" x="63" y="45" width="137" height="111">
<path d="M199.119 155.61L194.515 52.1072L63.4166 45.6143L68.0502 149.118L199.119 155.61Z" fill="white"/>
</mask>
<g mask="url(#mask48_1829_1753)">
<path d="M330.955 -73.6494H-68.3898V329.296H330.955V-73.6494Z" fill="#442A00"/>
</g>
</g>
</g>
</g>
</g>
<mask id="mask49_1829_1753" style="mask-type:luminance" maskUnits="userSpaceOnUse" x="181" y="142" width="9" height="15">
<path d="M189.94 142.27H181.175V156.496H189.94V142.27Z" fill="white"/>
</mask>
<g mask="url(#mask49_1829_1753)">
<mask id="mask50_1829_1753" style="mask-type:luminance" maskUnits="userSpaceOnUse" x="68" y="149" width="127" height="98">
<path d="M194.515 149.117H68.0503V246.128H194.515V149.117Z" fill="white"/>
</mask>
<g mask="url(#mask50_1829_1753)">
<mask id="mask51_1829_1753" style="mask-type:luminance" maskUnits="userSpaceOnUse" x="68" y="149" width="127" height="98">
<path d="M194.515 149.117H68.0503V246.128H194.515V149.117Z" fill="white"/>
</mask>
<g mask="url(#mask51_1829_1753)">
<mask id="mask52_1829_1753" style="mask-type:luminance" maskUnits="userSpaceOnUse" x="68" y="149" width="127" height="98">
<path d="M194.515 149.117H68.0503V246.128H194.515V149.117Z" fill="white"/>
</mask>
<g mask="url(#mask52_1829_1753)">
<mask id="mask53_1829_1753" style="mask-type:luminance" maskUnits="userSpaceOnUse" x="63" y="142" width="137" height="111">
<path d="M199.119 252.62L194.515 149.117L63.4166 142.624L68.0502 246.128L199.119 252.62Z" fill="white"/>
</mask>
<g mask="url(#mask53_1829_1753)">
<path d="M330.955 23.3611H-68.3898V426.307H330.955V23.3611Z" fill="#442A00"/>
</g>
</g>
</g>
</g>
</g>
</g>
</g>
<mask id="mask54_1829_1753" style="mask-type:luminance" maskUnits="userSpaceOnUse" x="174" y="147" width="9" height="16">
<path d="M182.739 147.288H174.416V162.959H182.739V147.288Z" fill="white"/>
</mask>
<g mask="url(#mask54_1829_1753)">
<mask id="mask55_1829_1753" style="mask-type:luminance" maskUnits="userSpaceOnUse" x="174" y="147" width="9" height="16">
<path d="M182.621 159.359L178.489 162.546C178.283 159.595 176.895 155.109 175.243 151.715C174.239 149.619 175.715 150.505 174.771 149.855L176.807 147.76C177.633 148.527 177.515 147.347 178.224 148.38C180.23 151.361 181.736 155.286 182.621 159.359Z" fill="white"/>
</mask>
<g mask="url(#mask55_1829_1753)">
<mask id="mask56_1829_1753" style="mask-type:luminance" maskUnits="userSpaceOnUse" x="174" y="147" width="9" height="16">
<path d="M182.621 147.346H174.21V162.546H182.621V147.346Z" fill="white"/>
</mask>
<g mask="url(#mask56_1829_1753)">
<mask id="mask57_1829_1753" style="mask-type:luminance" maskUnits="userSpaceOnUse" x="68" y="52" width="127" height="98">
<path d="M194.515 52.1069H68.0503V149.117H194.515V52.1069Z" fill="white"/>
</mask>
<g mask="url(#mask57_1829_1753)">
<mask id="mask58_1829_1753" style="mask-type:luminance" maskUnits="userSpaceOnUse" x="68" y="52" width="127" height="98">
<path d="M194.515 52.1069H68.0503V149.117H194.515V52.1069Z" fill="white"/>
</mask>
<g mask="url(#mask58_1829_1753)">
<path d="M330.955 -73.6492H-68.3898V329.296H330.955V-73.6492Z" fill="#442A00"/>
</g>
</g>
</g>
<mask id="mask59_1829_1753" style="mask-type:luminance" maskUnits="userSpaceOnUse" x="174" y="147" width="9" height="16">
<path d="M182.621 147.346H174.21V162.546H182.621V147.346Z" fill="white"/>
</mask>
<g mask="url(#mask59_1829_1753)">
<mask id="mask60_1829_1753" style="mask-type:luminance" maskUnits="userSpaceOnUse" x="68" y="149" width="127" height="98">
<path d="M194.515 149.117H68.0503V246.128H194.515V149.117Z" fill="white"/>
</mask>
<g mask="url(#mask60_1829_1753)">
<mask id="mask61_1829_1753" style="mask-type:luminance" maskUnits="userSpaceOnUse" x="68" y="149" width="127" height="98">
<path d="M194.515 149.117H68.0503V246.128H194.515V149.117Z" fill="white"/>
</mask>
<g mask="url(#mask61_1829_1753)">
<path d="M330.955 23.3611H-68.3898V426.307H330.955V23.3611Z" fill="#442A00"/>
</g>
</g>
</g>
</g>
</g>
<path fill-rule="evenodd" clip-rule="evenodd" d="M173.856 152.187C173.856 152.187 177.191 159.742 177.102 165.468L175.804 166.589C175.804 166.589 173.531 156.289 173.502 156.024C173.472 155.758 172.114 152.364 172.114 152.364L173.856 152.187Z" fill="#442A00"/>
<path fill-rule="evenodd" clip-rule="evenodd" d="M209.183 138.758C209.183 138.758 216.266 145.842 217.978 155.699L216.178 154.932C215.587 152.423 209.685 141.326 208.386 139.053L209.183 138.758Z" fill="#442A00"/>
<path d="M204.195 152.541C204.254 152.305 204.254 152.039 204.254 151.803C204.254 149.737 202.572 148.055 200.536 148.055C198.499 148.055 196.817 149.737 196.817 151.803C196.817 152.069 196.846 152.305 196.876 152.541H204.195Z" fill="#442A00"/>
<path d="M202.956 151.803C202.956 151.951 202.926 152.128 202.897 152.275C202.867 152.423 202.808 152.6 202.749 152.748C202.69 152.895 202.602 153.043 202.513 153.161C202.425 153.308 202.336 153.426 202.218 153.544C202.1 153.662 201.982 153.751 201.834 153.84C201.716 153.928 201.569 154.017 201.421 154.076C201.274 154.135 201.126 154.194 200.978 154.223C200.831 154.253 200.654 154.282 200.506 154.282C200.359 154.282 200.182 154.253 200.034 154.223C199.886 154.194 199.739 154.135 199.591 154.076C199.444 154.017 199.296 153.928 199.178 153.84C199.06 153.751 198.912 153.633 198.824 153.544C198.706 153.426 198.617 153.308 198.529 153.161C198.44 153.013 198.352 152.895 198.293 152.748C198.234 152.6 198.175 152.452 198.145 152.275C198.116 152.128 198.086 151.951 198.086 151.803C198.086 151.656 198.116 151.478 198.145 151.331C198.175 151.183 198.234 151.006 198.293 150.859C198.352 150.711 198.44 150.564 198.529 150.445C198.617 150.298 198.706 150.18 198.824 150.062C198.942 149.944 199.06 149.855 199.178 149.767C199.326 149.678 199.444 149.59 199.591 149.531C199.739 149.472 199.886 149.413 200.034 149.383C200.182 149.353 200.359 149.324 200.506 149.324C200.654 149.324 200.831 149.353 200.978 149.383C201.126 149.413 201.274 149.472 201.421 149.531C201.569 149.59 201.716 149.678 201.834 149.767C201.952 149.855 202.1 149.973 202.218 150.062C202.336 150.18 202.425 150.298 202.513 150.445C202.602 150.593 202.69 150.711 202.749 150.859C202.808 151.006 202.867 151.154 202.897 151.331C202.956 151.478 202.956 151.656 202.956 151.803Z" fill="#C1CCCE"/>
<path d="M199.326 153.19C199.06 152.807 198.883 152.305 198.883 151.803C198.883 150.593 199.739 149.59 200.89 149.383C200.772 149.383 200.654 149.354 200.536 149.354C199.178 149.354 198.086 150.446 198.086 151.803C198.086 152.305 198.234 152.777 198.499 153.19H199.326Z" fill="#442A00" fill-opacity="0.2"/>
<path d="M201.982 150.328C202.041 150.416 202.1 150.505 202.159 150.623C202.218 150.711 202.247 150.8 202.277 150.888C202.306 150.977 202.306 151.036 202.306 151.095C202.306 151.154 202.277 151.183 202.247 151.213C202.218 151.242 202.159 151.242 202.129 151.213C202.07 151.183 202.011 151.154 201.952 151.124C201.893 151.065 201.805 151.006 201.746 150.918C201.687 150.829 201.598 150.741 201.539 150.652C201.48 150.564 201.421 150.446 201.362 150.357C201.303 150.268 201.273 150.18 201.244 150.091C201.214 150.003 201.214 149.944 201.214 149.885C201.214 149.826 201.244 149.796 201.273 149.767C201.303 149.737 201.362 149.737 201.391 149.767C201.45 149.796 201.509 149.826 201.569 149.855C201.628 149.914 201.716 149.973 201.775 150.062C201.834 150.121 201.893 150.209 201.982 150.328Z" fill="white"/>
<defs>
<linearGradient id="paint0_linear_1829_1753" x1="218.5" y1="302" x2="218.5" y2="0" gradientUnits="userSpaceOnUse">
<stop stop-color="#FDECC6" stop-opacity="0"/>
<stop offset="0.620029" stop-color="#FDECC6"/>
</linearGradient>
<linearGradient id="paint1_linear_1829_1753" x1="60.0369" y1="160.796" x2="61.6639" y2="160.796" gradientUnits="userSpaceOnUse">
<stop stop-color="#010511"/>
<stop offset="0.3503" stop-color="#465765"/>
<stop offset="0.5644" stop-color="#6D8494"/>
</linearGradient>
<radialGradient id="paint2_radial_1829_1753" cx="0" cy="0" r="1" gradientUnits="userSpaceOnUse" gradientTransform="translate(91.2201 182.668) rotate(-176.996) scale(34.5759 39.0877)">
<stop stop-color="#010511"/>
<stop offset="0.3503" stop-color="#465765"/>
<stop offset="0.5644" stop-color="#6D8494"/>
</radialGradient>
<radialGradient id="paint3_radial_1829_1753" cx="0" cy="0" r="1" gradientUnits="userSpaceOnUse" gradientTransform="translate(88.3939 182.073) rotate(-176.996) scale(31.3386 35.4279)">
<stop offset="0.4356" stop-color="#6D8494"/>
<stop offset="0.6497" stop-color="#465765"/>
<stop offset="1" stop-color="#010511"/>
</radialGradient>
<radialGradient id="paint4_radial_1829_1753" cx="0" cy="0" r="1" gradientUnits="userSpaceOnUse" gradientTransform="translate(60.8514 164.474) scale(2.37433 2.37528)">
<stop offset="0.129" stop-color="#4D5E6D"/>
<stop offset="0.7207" stop-color="#010511"/>
<stop offset="0.745" stop-color="#040915"/>
<stop offset="0.7706" stop-color="#0F1522"/>
<stop offset="0.7967" stop-color="#202A37"/>
<stop offset="0.8232" stop-color="#384654"/>
<stop offset="0.8497" stop-color="#576A7A"/>
<stop offset="0.8657" stop-color="#6D8494"/>
<stop offset="0.9166" stop-color="#465765"/>
<stop offset="1" stop-color="#010511"/>
</radialGradient>
<radialGradient id="paint5_radial_1829_1753" cx="0" cy="0" r="1" gradientUnits="userSpaceOnUse" gradientTransform="translate(61.6937 166.006) scale(4.19868 4.20036)">
<stop offset="0.1882" stop-color="#485968"/>
<stop offset="1" stop-color="#010511"/>
</radialGradient>
<radialGradient id="paint6_radial_1829_1753" cx="0" cy="0" r="1" gradientUnits="userSpaceOnUse" gradientTransform="translate(76.96 175.939) scale(13.2072 13.2125)">
<stop offset="0.3334" stop-color="#6D8494"/>
<stop offset="0.4514" stop-color="#9CACB6"/>
<stop offset="0.6777" stop-color="white"/>
<stop offset="0.7131" stop-color="#F7F8F8"/>
<stop offset="0.7674" stop-color="#E2E4E6"/>
<stop offset="0.834" stop-color="#BFC3C8"/>
<stop offset="0.9101" stop-color="#8E969F"/>
<stop offset="0.9933" stop-color="#505D6A"/>
<stop offset="1" stop-color="#4B5866"/>
</radialGradient>
<linearGradient id="paint7_linear_1829_1753" x1="76.015" y1="170.932" x2="65.0258" y2="181.921" gradientUnits="userSpaceOnUse">
<stop offset="0.0161" stop-color="#485968"/>
<stop offset="0.4358" stop-color="#010511"/>
<stop offset="0.5195" stop-color="#040915"/>
<stop offset="0.6074" stop-color="#0F1621"/>
<stop offset="0.6969" stop-color="#202B36"/>
<stop offset="0.7797" stop-color="#35454F"/>
<stop offset="0.7941" stop-color="#303F49"/>
<stop offset="0.879" stop-color="#161F2A"/>
<stop offset="0.9507" stop-color="#070C18"/>
<stop offset="1" stop-color="#010511"/>
</linearGradient>
<linearGradient id="paint8_linear_1829_1753" x1="67.1094" y1="166.472" x2="67.186" y2="185.321" gradientUnits="userSpaceOnUse">
<stop offset="0.0054" stop-color="#2E6FB7"/>
<stop offset="0.2097" stop-color="#485968"/>
<stop offset="0.511" stop-color="#3393D1"/>
<stop offset="0.5781" stop-color="#3792CD"/>
<stop offset="0.6485" stop-color="#438FC0"/>
<stop offset="0.7202" stop-color="#578AAB"/>
<stop offset="0.7797" stop-color="#6D8494"/>
<stop offset="0.7919" stop-color="#688297"/>
<stop offset="0.8777" stop-color="#4878A8"/>
<stop offset="0.9502" stop-color="#3571B3"/>
<stop offset="1" stop-color="#2E6FB7"/>
</linearGradient>
<linearGradient id="paint9_linear_1829_1753" x1="67.1106" y1="185.639" x2="67.1844" y2="167.482" gradientUnits="userSpaceOnUse">
<stop offset="0.0054" stop-color="#2E6FB7"/>
<stop offset="0.2097" stop-color="#485968"/>
<stop offset="0.511" stop-color="#3393D1"/>
<stop offset="0.5781" stop-color="#3792CD"/>
<stop offset="0.6485" stop-color="#438FC0"/>
<stop offset="0.7202" stop-color="#578AAB"/>
<stop offset="0.7797" stop-color="#6D8494"/>
<stop offset="0.7919" stop-color="#688297"/>
<stop offset="0.8777" stop-color="#4878A8"/>
<stop offset="0.9502" stop-color="#3571B3"/>
<stop offset="1" stop-color="#2E6FB7"/>
</linearGradient>
<linearGradient id="paint10_linear_1829_1753" x1="103.162" y1="160.796" x2="101.535" y2="160.796" gradientUnits="userSpaceOnUse">
<stop stop-color="#010511"/>
<stop offset="0.3503" stop-color="#465765"/>
<stop offset="0.5644" stop-color="#6D8494"/>
</linearGradient>
<radialGradient id="paint11_radial_1829_1753" cx="0" cy="0" r="1" gradientUnits="userSpaceOnUse" gradientTransform="translate(71.9836 182.677) rotate(-3.00405) scale(34.576 39.0877)">
<stop stop-color="#010511"/>
<stop offset="0.3503" stop-color="#465765"/>
<stop offset="0.5644" stop-color="#6D8494"/>
</radialGradient>
<radialGradient id="paint12_radial_1829_1753" cx="0" cy="0" r="1" gradientUnits="userSpaceOnUse" gradientTransform="translate(74.8121 182.082) rotate(-3.00405) scale(31.3386 35.428)">
<stop offset="0.4356" stop-color="#6D8494"/>
<stop offset="0.6497" stop-color="#465765"/>
<stop offset="1" stop-color="#010511"/>
</radialGradient>
<radialGradient id="paint13_radial_1829_1753" cx="0" cy="0" r="1" gradientUnits="userSpaceOnUse" gradientTransform="translate(102.348 164.474) rotate(180) scale(2.37436 2.37531)">
<stop offset="0.129" stop-color="#4D5E6D"/>
<stop offset="0.7207" stop-color="#010511"/>
<stop offset="0.745" stop-color="#040915"/>
<stop offset="0.7706" stop-color="#0F1522"/>
<stop offset="0.7967" stop-color="#202A37"/>
<stop offset="0.8232" stop-color="#384654"/>
<stop offset="0.8497" stop-color="#576A7A"/>
<stop offset="0.8657" stop-color="#6D8494"/>
<stop offset="0.9166" stop-color="#465765"/>
<stop offset="1" stop-color="#010511"/>
</radialGradient>
<radialGradient id="paint14_radial_1829_1753" cx="0" cy="0" r="1" gradientUnits="userSpaceOnUse" gradientTransform="translate(101.507 166.006) rotate(180) scale(4.19857 4.20025)">
<stop offset="0.1882" stop-color="#485968"/>
<stop offset="1" stop-color="#010511"/>
</radialGradient>
<radialGradient id="paint15_radial_1829_1753" cx="0" cy="0" r="1" gradientUnits="userSpaceOnUse" gradientTransform="translate(81.015 176.503) scale(18.2544 18.2617)">
<stop offset="0.3334" stop-color="#6D8494"/>
<stop offset="0.4514" stop-color="#9CACB6"/>
<stop offset="0.6777" stop-color="white"/>
<stop offset="0.7131" stop-color="#F7F8F8"/>
<stop offset="0.7674" stop-color="#E2E4E6"/>
<stop offset="0.834" stop-color="#BFC3C8"/>
<stop offset="0.9101" stop-color="#8E969F"/>
<stop offset="0.9933" stop-color="#505D6A"/>
<stop offset="1" stop-color="#4B5866"/>
</radialGradient>
<linearGradient id="paint16_linear_1829_1753" x1="87.1841" y1="170.932" x2="98.1733" y2="181.921" gradientUnits="userSpaceOnUse">
<stop offset="0.0161" stop-color="#485968"/>
<stop offset="0.4358" stop-color="#010511"/>
<stop offset="0.5195" stop-color="#040915"/>
<stop offset="0.6074" stop-color="#0F1621"/>
<stop offset="0.6969" stop-color="#202B36"/>
<stop offset="0.7797" stop-color="#35454F"/>
<stop offset="0.7941" stop-color="#303F49"/>
<stop offset="0.879" stop-color="#161F2A"/>
<stop offset="0.9507" stop-color="#070C18"/>
<stop offset="1" stop-color="#010511"/>
</linearGradient>
<linearGradient id="paint17_linear_1829_1753" x1="96.0899" y1="166.472" x2="96.0133" y2="185.321" gradientUnits="userSpaceOnUse">
<stop offset="0.0054" stop-color="#2E6FB7"/>
<stop offset="0.2097" stop-color="#485968"/>
<stop offset="0.511" stop-color="#3393D1"/>
<stop offset="0.5781" stop-color="#3792CD"/>
<stop offset="0.6485" stop-color="#438FC0"/>
<stop offset="0.7202" stop-color="#578AAB"/>
<stop offset="0.7797" stop-color="#6D8494"/>
<stop offset="0.7919" stop-color="#688297"/>
<stop offset="0.8777" stop-color="#4878A8"/>
<stop offset="0.9502" stop-color="#3571B3"/>
<stop offset="1" stop-color="#2E6FB7"/>
</linearGradient>
<linearGradient id="paint18_linear_1829_1753" x1="96.0882" y1="185.639" x2="96.0144" y2="167.482" gradientUnits="userSpaceOnUse">
<stop offset="0.0054" stop-color="#2E6FB7"/>
<stop offset="0.2097" stop-color="#485968"/>
<stop offset="0.511" stop-color="#3393D1"/>
<stop offset="0.5781" stop-color="#3792CD"/>
<stop offset="0.6485" stop-color="#438FC0"/>
<stop offset="0.7202" stop-color="#578AAB"/>
<stop offset="0.7797" stop-color="#6D8494"/>
<stop offset="0.7919" stop-color="#688297"/>
<stop offset="0.8777" stop-color="#4878A8"/>
<stop offset="0.9502" stop-color="#3571B3"/>
<stop offset="1" stop-color="#2E6FB7"/>
</linearGradient>
<radialGradient id="paint19_radial_1829_1753" cx="0" cy="0" r="1" gradientUnits="userSpaceOnUse" gradientTransform="translate(81.7663 159.736) scale(22.3307 20.9435)">
<stop offset="0.7207" stop-color="#010511"/>
<stop offset="0.745" stop-color="#040915"/>
<stop offset="0.7706" stop-color="#0F1522"/>
<stop offset="0.7967" stop-color="#202A37"/>
<stop offset="0.8232" stop-color="#384654"/>
<stop offset="0.8497" stop-color="#576A7A"/>
<stop offset="0.8657" stop-color="#6D8494"/>
<stop offset="0.9166" stop-color="#465765"/>
<stop offset="1" stop-color="#010511"/>
</radialGradient>
</defs>
</svg>
