<svg width="437" height="302" viewBox="0 0 437 302" fill="none" xmlns="http://www.w3.org/2000/svg">
<rect width="437" height="302" rx="20" transform="matrix(1 0 0 -1 0 302)" fill="url(#paint0_linear_1829_1188)"/>
<path d="M66.3789 225.505C63.6356 235.655 67.8158 270.19 67.8158 270.19H73.1782L82.9886 225.505H66.3789Z" fill="#FF9B7D"/>
<path d="M79.3057 272.31C78.3176 271.51 77.2119 270.876 76.1155 270.239C75.2869 269.757 74.2951 269.285 73.5215 268.714C71.5947 269.283 67.6049 268.351 67.6049 268.351C67.3586 269.659 66.391 273.957 68.0136 275.192C69.6642 276.446 73.3695 276.687 75.6443 276.73C77.4563 276.764 81.0935 277.054 81.0916 274.915C81.0907 273.807 80.1091 272.963 79.3057 272.31Z" fill="#1F0F09"/>
<path d="M46.6303 224.68C44.7809 240.437 49.2429 268.975 49.2429 268.975L54.9935 270.024L62.9666 224.68H46.6303Z" fill="#FF9B7D"/>
<path d="M61.1396 272.223C60.1319 271.404 59.0047 270.76 57.8869 270.108C57.0415 269.619 56.0282 269.137 55.2398 268.555C53.2756 269.134 49.13 268.351 49.13 268.351C48.879 269.685 47.9692 273.9 49.6245 275.16C51.3059 276.44 55.0877 276.687 57.4054 276.731C59.2548 276.765 62.9638 277.061 62.9628 274.879C62.961 273.748 61.9589 272.888 61.1396 272.223Z" fill="#1F0F09"/>
<path d="M78.7459 166.046H31.8494C31.3698 181.762 34.2082 197.453 39.0229 212.403C40.597 217.296 42.8224 222.12 44.7735 226.874L64.0844 227.108C64.3886 224.301 64.5827 222.112 64.8197 219.302C65.0296 221.7 65.1705 224.671 65.2387 227.081C65.2387 227.081 78.5471 227.238 84.1214 227.238C85.0031 197.609 80.153 193.445 79.0715 176.294C78.856 172.88 78.7375 169.464 78.7459 166.046Z" fill="#1B2452"/>
<path d="M100.928 113.722L103.264 111.332C103.923 112.709 105.471 114.457 107.133 114.574C110.36 114.805 114.204 112.126 117.135 107.799C118.534 105.735 119.576 104.576 120.113 102.929C119.94 101.124 118.692 99.0274 115.254 95.5302C113.679 93.9281 103.821 99.6302 103.707 99.4828C102.24 100.891 100.473 101.02 100.473 101.02C98.1744 103.145 94.4039 106.418 94.4039 106.418C96.2084 110.372 100.928 113.722 100.928 113.722Z" fill="#FF9B7D"/>
<path d="M125.879 98.2858C125.938 97.712 125.796 97.1344 125.551 96.6184C125.287 96.0623 124.89 95.5799 124.47 95.1367C124.036 94.6748 123.506 94.2577 123.151 93.7258C122.742 93.1109 122.898 92.4251 122.796 91.7365C122.721 91.2252 122.521 90.7391 122.235 90.3127C121.653 89.4449 120.757 88.8132 119.794 88.4334C119.226 88.2076 118.58 88.0882 118.098 87.6888C117.648 87.3165 117.441 86.738 117.01 86.3471C116.541 85.9188 115.917 85.721 115.304 85.609C114.589 85.4793 113.85 85.4159 113.126 85.4896C112.636 85.539 112.15 85.6631 111.701 85.8609C111.359 85.735 111.01 85.6305 110.666 85.5456C108.63 85.0389 106.264 84.94 104.577 86.3975C104.212 86.711 103.909 87.0907 103.686 87.5172C103.416 88.0303 103.227 88.5734 102.856 89.0278C102.208 89.8209 101.298 90.335 100.531 90.9994C99.7905 91.6414 99.1747 92.4494 98.8267 93.3694C98.6559 93.8201 98.557 94.3016 98.5505 94.784C98.5421 95.3298 98.6755 95.857 98.7753 96.3889C98.9116 97.1017 98.8901 97.7185 98.5803 98.381C98.347 98.8783 98.055 99.3579 97.9804 99.9131C97.8954 100.553 98.139 101.171 98.1427 101.807C98.1464 102.468 97.8759 103.093 97.4214 103.567C97.33 103.662 97.3804 103.795 97.4923 103.839C99.5181 104.622 101.89 103.844 103.119 102.076C103.302 101.813 103.471 101.536 103.71 101.317C104.002 101.053 104.372 100.928 104.747 100.839C104.979 100.783 105.222 100.74 105.462 100.765C105.893 100.809 106.037 101.062 106.039 101.478C106.04 101.973 106.203 102.367 106.681 102.571C107.15 102.769 107.655 102.665 108.069 102.395C108.63 102.031 109.057 101.455 109.448 100.924C109.617 100.694 109.773 100.457 109.925 100.217C111.054 100.275 112.196 99.6537 112.714 98.6292C113.964 99.4689 115.747 99.2208 116.757 98.1225C116.858 98.3577 116.964 98.5928 117.065 98.8289C117.136 98.9912 117.24 99.1676 117.278 99.3402C117.332 99.5837 117.203 99.733 117.102 99.9327C116.871 100.389 116.734 100.902 116.76 101.416C116.802 102.27 117.305 103.046 118.098 103.365C117.931 104.068 118.243 104.955 118.6 105.567C118.272 106.136 117.361 107.47 117.361 107.47C118.004 108.036 119.052 108.121 119.775 107.684C120.505 107.241 120.881 106.425 120.977 105.603C121.866 106.002 122.898 106.011 123.793 105.608C124.748 105.178 125.42 104.279 125.63 103.26C125.734 102.757 125.729 102.233 125.596 101.736C125.427 101.099 125.037 100.513 125.285 99.8394C125.48 99.3057 125.818 98.8699 125.879 98.2858Z" fill="#1F0F09"/>
<path d="M103.543 100.275C103.217 101.609 103.67 102.866 104.555 103.083C105.438 103.299 106.421 102.392 106.748 101.057C107.073 99.7219 106.561 98.7123 105.675 98.4958C104.79 98.2803 103.87 98.939 103.543 100.275Z" fill="#FF9B7D"/>
<path d="M138.45 175.109C137.564 174.124 136.329 173.362 135.038 172.987C133.434 172.519 127.441 174.027 125.64 173.771C120.993 170.422 106.401 158.353 104.212 155.988C102.316 153.94 104.118 149.555 104.118 149.555C104.118 149.555 89.1581 144.019 89.1599 144.019C87.3768 147.214 86.4913 153.161 87.3152 157.036C88.3519 161.922 99.0011 169.103 124.144 177.619C128.355 179.045 131.074 178.852 132.587 179.07C134.224 179.304 139.876 183.073 142.204 181.26C143.213 180.471 139.728 176.532 138.45 175.109Z" fill="#FF9B7D"/>
<path d="M107.718 129.06C107.361 123.147 106.065 117.552 101.363 113.278C97.2264 109.518 96.4324 106.291 95.7587 105.235C94.4029 103.114 91.4964 100.863 88.2353 99.2001C84.8417 97.4674 81.1569 97.2537 77.4806 98.1373C69.9637 99.9456 63.0636 104.511 57.1292 109.312C53.549 112.208 48.3704 117.385 47.5484 119.567C47.5484 119.567 49.1664 121.477 49.8102 122.414C29.8339 145.256 30.2911 164.478 30 169.205C56.1523 168.882 63.4154 174.82 79.4335 180.526C79.4335 180.526 81.8362 164.796 85.9679 158.141C87.8275 155.147 89.9419 152.332 92.059 149.516C96.7925 150.128 100.425 150.613 105.141 151.357C106.846 144.343 108.173 136.579 107.718 129.06Z" fill="#FFDEC9"/>
<path d="M64.9457 219.865C64.634 208.137 63.8642 196.422 62.6363 184.753C62.6111 184.514 62.2341 184.512 62.2593 184.753C63.4873 196.422 64.257 208.137 64.5687 219.865C64.5734 220.108 64.9513 220.108 64.9457 219.865Z" fill="#4863B3"/>
<path d="M39.4316 181.962C40.9123 193.651 43.4774 205.177 47.1033 216.389C47.177 216.618 47.5428 216.52 47.4672 216.288C43.8534 205.111 41.2856 193.617 39.8104 181.962C39.7787 181.725 39.4017 181.722 39.4316 181.962Z" fill="#4863B3"/>
<path d="M45.1784 203.518C46.8374 207.053 48.8622 210.404 51.2191 213.517C51.3638 213.708 51.6913 213.521 51.5438 213.326C49.1878 210.212 47.1649 206.863 45.505 203.327C45.4014 203.109 45.0757 203.3 45.1784 203.518Z" fill="#4863B3"/>
<path d="M46.5108 183.755C51.0054 181.986 54.414 177.9 55.3125 173.148C55.3573 172.91 54.9934 172.808 54.9496 173.047C54.0753 177.663 50.7862 181.669 46.411 183.391C46.187 183.48 46.2841 183.844 46.5108 183.755Z" fill="#4863B3"/>
<path d="M43.9906 220.885C50.0976 220.73 56.2055 220.726 62.3134 220.873C62.5551 220.878 62.5551 220.501 62.3134 220.495C56.2055 220.349 50.0976 220.353 43.9906 220.508C43.748 220.515 43.7471 220.891 43.9906 220.885Z" fill="#4863B3"/>
<path d="M68.7974 220.833C73.8547 220.788 78.9101 220.851 83.9664 220.954C84.2081 220.957 84.2081 220.582 83.9664 220.576C78.9101 220.475 73.8547 220.412 68.7974 220.457C68.5557 220.458 68.5548 220.835 68.7974 220.833Z" fill="#4863B3"/>
<path d="M40.3357 145.718C41.7213 151.567 44.0102 157.163 47.1182 162.307C47.2451 162.514 47.5699 162.325 47.4439 162.117C44.3517 157 42.0778 151.437 40.6987 145.617C40.6427 145.382 40.2806 145.482 40.3357 145.718Z" fill="#E6B08E"/>
<path d="M45.8166 154.923C51.1753 161.848 58.1491 167.41 66.0924 171.094C66.3098 171.195 66.502 170.871 66.2827 170.768C58.3646 167.095 51.4253 161.559 46.0835 154.655C45.9342 154.464 45.6692 154.733 45.8166 154.923Z" fill="#E6B08E"/>
<path d="M65.1406 135.507C71.1086 131.162 77.1839 126.592 81.3249 120.37C83.2535 117.475 84.7474 114.251 85.4827 110.841C86.1032 107.958 86.6705 103.85 84.7558 101.333C84.6112 101.143 84.2837 101.33 84.4311 101.525C86.44 104.168 85.6637 108.73 84.8892 111.707C84.0345 114.992 82.4903 118.073 80.5467 120.844C76.4542 126.682 70.6514 131.032 64.9503 135.183C64.7562 135.323 64.9447 135.651 65.1406 135.507Z" fill="#E6B08E"/>
<path d="M92.4938 149.468C95.4806 144.919 97.901 140.02 99.6655 134.872C100.556 132.276 101.278 129.622 101.826 126.932C102.428 123.979 102.438 121.205 102.056 118.22C102.024 117.982 101.647 117.979 101.679 118.22C102.066 121.252 102.042 124.036 101.421 127.039C100.878 129.659 100.17 132.242 99.3016 134.772C97.5493 139.891 95.1391 144.757 92.1701 149.278C92.0357 149.48 92.3613 149.669 92.4938 149.468Z" fill="#E6B08E"/>
<path d="M91.8547 168.361C91.1437 167.244 90.2825 166.105 89.1404 165.397C87.7212 164.515 81.5442 164.353 79.8786 163.622C76.3059 159.146 66.6849 146.225 65.0324 143.46C64.1134 141.921 63.0095 140.25 63.0086 138.399C63.0077 136.508 64.8197 135.305 64.8197 135.305L52.7578 125.144C50.1816 127.741 47.7266 133.231 47.4756 137.184C47.1584 142.17 58.8881 156.228 77.4013 166.924C81.2531 169.149 83.7435 169.979 85.1421 170.595C86.6565 171.262 91.2892 175.955 94.0194 174.834C95.2035 174.348 92.3399 169.121 91.8547 168.361Z" fill="#FF9B7D"/>
<path d="M201.09 268.894C189.128 268.894 179.397 259.16 179.397 247.199V21.6941C179.397 9.73201 189.129 0 201.09 0H293.659C305.621 0 315.353 9.73108 315.353 21.6941V247.199C315.353 259.16 305.621 268.894 293.659 268.894H201.09Z" fill="#1F0F09"/>
<path d="M308.97 247.199C308.97 255.621 302.077 262.512 293.658 262.512H201.089C192.667 262.512 185.775 255.621 185.775 247.199V21.6941C185.775 13.2712 192.667 6.38037 201.089 6.38037H293.658C302.077 6.38037 308.97 13.2712 308.97 21.6941V247.199Z" fill="#FFF2E9"/>
<mask id="mask0_1829_1188" style="mask-type:luminance" maskUnits="userSpaceOnUse" x="185" y="6" width="124" height="257">
<path d="M308.97 247.199C308.97 255.621 302.077 262.512 293.658 262.512H201.089C192.667 262.512 185.775 255.621 185.775 247.199V21.6941C185.775 13.2712 192.667 6.38037 201.089 6.38037H293.658C302.077 6.38037 308.97 13.2712 308.97 21.6941V247.199Z" fill="white"/>
</mask>
<g mask="url(#mask0_1829_1188)">
<path d="M235.156 -28.2987L177.156 189.716L182.06 191.021L240.061 -26.9939L235.156 -28.2987Z" fill="white"/>
<path d="M177.192 57.3056L175.996 61.7998L275.374 88.2278L276.569 83.7336L177.192 57.3056Z" fill="white"/>
<path d="M187.768 154.044L186.156 160.104L321.638 196.133L323.25 190.073L187.768 154.044Z" fill="white"/>
<path d="M295.654 -12.2141L214.547 292.654L222.205 294.692L303.312 -10.1767L295.654 -12.2141Z" fill="white"/>
<path d="M183.494 18.3889L176.329 45.3325L203.213 52.4819L210.378 25.5383L183.494 18.3889Z" fill="white"/>
<path d="M240.614 9.06028L235.297 29.0552L248.464 32.5568L253.781 12.5619L240.614 9.06028Z" fill="white"/>
<path d="M252.847 46.421L248.25 63.708L267.779 68.9014L272.376 51.6144L252.847 46.421Z" fill="white"/>
<path d="M267.406 31.046L264.928 40.3662L274.692 42.963L277.171 33.6428L267.406 31.046Z" fill="white"/>
<path d="M220.135 82.748L217.396 93.0466L258.308 103.927L261.047 93.628L220.135 82.748Z" fill="white"/>
<path d="M213.719 106.922L208.717 125.721L217.496 128.057L222.497 109.258L213.719 106.922Z" fill="white"/>
<path d="M235.215 108.354L227.343 137.957L247.799 143.397L255.672 113.794L235.215 108.354Z" fill="white"/>
<path d="M204.639 140.958L202.424 149.275L209.007 151.027L211.221 142.711L204.639 140.958Z" fill="white"/>
<path d="M216.084 144.014L213.873 152.331L220.457 154.081L222.668 145.764L216.084 144.014Z" fill="white"/>
<path d="M227.545 147.035L225.331 155.352L231.915 157.104L234.128 148.787L227.545 147.035Z" fill="white"/>
<path d="M238.989 150.108L236.777 158.426L243.361 160.177L245.573 151.859L238.989 150.108Z" fill="white"/>
<path d="M271.787 142.848L266.448 162.935L303.93 172.899L309.269 152.812L271.787 142.848Z" fill="white"/>
<path d="M283.114 100.362L276.812 124.059L286.536 126.645L292.838 102.948L283.114 100.362Z" fill="white"/>
<path d="M292.551 64.7946L286.252 88.4919L295.976 91.077L302.275 67.3796L292.551 64.7946Z" fill="white"/>
<path d="M299.586 38.381L295.13 55.1396L307.375 58.3961L311.832 41.6375L299.586 38.381Z" fill="white"/>
<path d="M231.129 44.7325L227.546 58.2043L236.325 60.5388L239.907 47.067L231.129 44.7325Z" fill="white"/>
<path d="M185.924 74.4097L167.699 142.917L180.043 146.202L198.269 77.6939L185.924 74.4097Z" fill="white"/>
<path d="M196.361 172.14L191.189 191.588L216.316 198.269L210.378 220.599L226.165 224.798L237.274 183.019L196.361 172.14Z" fill="white"/>
<path d="M191.075 200.824L185.14 223.152L195.015 225.777L200.951 203.449L191.075 200.824Z" fill="white"/>
<path d="M201.083 225.071L196.677 241.639L220.032 247.85L224.438 231.282L201.083 225.071Z" fill="white"/>
<path d="M181.317 237.56L177.869 250.524L187.745 253.15L191.192 240.186L181.317 237.56Z" fill="white"/>
<path d="M195.717 250.832L194.233 256.415L205.962 259.532L207.446 253.95L195.717 250.832Z" fill="white"/>
<path d="M262.194 189.649L256.639 210.535L269.258 213.891L274.812 193.004L262.194 189.649Z" fill="white"/>
<path d="M254.243 219.534L241.864 266.083L258.597 270.533L270.976 223.984L254.243 219.534Z" fill="white"/>
<path d="M319.793 192.016L299.46 268.445L306.318 270.269L326.651 193.841L319.793 192.016Z" fill="white"/>
<path d="M267.958 -14.135L260.085 15.4688L280.541 20.9086L288.413 -8.69507L267.958 -14.135Z" fill="white"/>
<path d="M292.616 245.984L290.318 254.626L296.653 256.311L298.952 247.669L292.616 245.984Z" fill="white"/>
<path d="M296.626 230.982L294.327 239.627L300.662 241.312L302.961 232.667L296.626 230.982Z" fill="white"/>
<path d="M300.625 215.966L298.327 224.608L304.662 226.293L306.96 217.651L300.625 215.966Z" fill="white"/>
<path d="M304.614 200.917L302.315 209.559L308.65 211.244L310.949 202.602L304.614 200.917Z" fill="white"/>
<path d="M287.401 197.058L272.534 252.942L282.259 255.529L297.126 199.645L287.401 197.058Z" fill="white"/>
<path d="M304.372 88.6765L290.76 139.86L305.298 143.726L318.91 92.5426L304.372 88.6765Z" fill="white"/>
<path d="M183.465 -8.07059L179.155 8.13525L212.675 17.0494L216.985 0.843533L183.465 -8.07059Z" fill="white"/>
</g>
<path d="M314.363 53.8712V36.083C315.784 36.083 316.938 37.2363 316.938 38.6583V51.2978C316.937 52.7198 315.784 53.8712 314.363 53.8712Z" fill="#1F0F09"/>
<path d="M314.363 77.3923V59.605C315.784 59.605 316.938 60.7573 316.938 62.1793V74.8188C316.937 76.239 315.784 77.3923 314.363 77.3923Z" fill="#1F0F09"/>
<path d="M259.261 19.1721H235.485C232.864 19.1721 230.745 17.0493 230.745 14.433C230.745 11.8129 232.865 9.68921 235.485 9.68921H259.261C261.882 9.68921 264.003 11.8129 264.003 14.433C264.003 17.0493 261.882 19.1721 259.261 19.1721Z" fill="#1F0F09"/>
<path d="M235.887 74.1013C235.887 75.3601 234.856 76.3911 233.597 76.3911H198.489C197.231 76.3911 196.2 75.3601 196.2 74.1013V38.9924C196.2 37.7328 197.231 36.7026 198.489 36.7026H233.597C234.857 36.7026 235.887 37.7328 235.887 38.9924V74.1013Z" fill="white"/>
<path d="M233.597 77.0106H198.489C196.886 77.0106 195.58 75.7043 195.58 74.1013V38.9923C195.58 37.3874 196.885 36.083 198.489 36.083H233.597C235.201 36.083 236.506 37.3874 236.506 38.9923V74.1013C236.506 75.7052 235.201 77.0106 233.597 77.0106ZM198.489 37.3221C197.568 37.3221 196.819 38.0705 196.819 38.9923V74.1013C196.819 75.0213 197.568 75.7715 198.489 75.7715H233.597C234.518 75.7715 235.266 75.0213 235.266 74.1013V38.9923C235.266 38.0705 234.518 37.3221 233.597 37.3221H198.489Z" fill="#824938"/>
<path d="M228.409 67.4559C224.125 67.9066 214.33 68.6465 203.763 67.4634C202.482 67.3206 201.517 66.2298 201.517 64.9413V64.9319C201.517 63.5295 202.655 62.3921 204.055 62.3921H228.139C229.541 62.3921 230.678 63.5295 230.678 64.9319C230.677 66.2298 229.699 67.3197 228.409 67.4559Z" fill="#ED874C"/>
<path d="M227.074 63.2394C223.254 63.6201 214.521 64.2499 205.1 63.2459C203.957 63.1237 203.097 62.1972 203.097 61.1036V61.0961C203.097 59.9074 204.11 58.9417 205.359 58.9417H226.835C228.086 58.9417 229.098 59.9065 229.098 61.0961C229.098 62.2 228.226 63.1237 227.074 63.2394Z" fill="#622F2A"/>
<path d="M210.013 56.2131H207.035C205.886 56.2131 204.765 56.5388 203.789 57.1443C203.185 57.5194 202.567 57.8628 201.878 58.0373C201.777 58.0625 201.754 58.1698 201.79 58.2528C202.46 59.7887 204.075 60.5986 205.683 60.2748C205.206 61.3824 205.514 62.5926 205.851 63.7198C205.873 63.7944 205.949 63.8392 206.022 63.8233C208.694 63.2933 211.292 61.6595 212.072 58.9088C212.075 58.8976 212.077 58.8892 212.08 58.8789C212.455 57.5362 211.407 56.2131 210.013 56.2131Z" fill="#9FBD51"/>
<path d="M227.603 57.0327C226.143 56.4131 224.399 56.2293 222.825 56.2592C221.99 56.275 220.12 57.2482 218.703 58.0675C217.588 58.7113 216.906 59.9066 216.906 61.1951C217.913 62.2094 219.295 62.8215 220.743 62.814C220.997 62.8131 221.431 62.8486 221.647 62.6638C221.924 62.4212 221.999 61.7942 222.093 61.4648C222.316 60.668 222.446 59.8487 222.307 59.0425C224.057 60.8592 226.75 61.2353 229.163 60.6689C229.222 60.6549 229.272 60.5914 229.27 60.5289C229.221 59.1246 229.042 57.642 227.603 57.0327Z" fill="#9FBD51"/>
<path d="M204.542 57.2602C207.033 59.6172 209.55 61.9471 212.101 64.2424C212.148 64.2863 212.221 64.3003 212.278 64.2639C216.493 61.6905 220.848 59.354 225.319 57.2593L204.542 57.2602Z" fill="#FFC557"/>
<path d="M215.988 44.9929C204.648 44.9929 201.407 53.4261 201.407 54.7147V54.7231C201.407 56.1255 202.543 57.261 203.945 57.261H228.029C229.432 57.261 230.568 56.1255 230.568 54.7231C230.568 53.4233 226.738 44.9929 215.988 44.9929Z" fill="#ED874C"/>
<path d="M210.841 46.2723C210.762 46.5149 210.685 46.7575 210.608 46.9991C210.596 47.0327 210.586 47.0682 210.574 47.1027C210.551 47.1811 210.603 47.2781 210.685 47.2968C210.771 47.3173 210.852 47.2706 210.879 47.1867C210.957 46.945 211.035 46.7024 211.111 46.4607C211.124 46.4271 211.134 46.3917 211.145 46.3572C211.171 46.2788 211.116 46.1808 211.036 46.1631C210.95 46.1426 210.867 46.1883 210.841 46.2723Z" fill="#FFDEC9"/>
<path d="M221.802 49.4252C221.582 49.2974 221.361 49.1686 221.142 49.0389C221.112 49.0202 221.081 49.0025 221.049 48.9829C220.978 48.9418 220.872 48.9652 220.832 49.0417C220.792 49.1173 220.814 49.2124 220.889 49.2563C221.109 49.386 221.33 49.5138 221.549 49.6435C221.578 49.6631 221.609 49.6809 221.642 49.6995C221.713 49.7406 221.818 49.7182 221.856 49.6417C221.899 49.567 221.878 49.4709 221.802 49.4252Z" fill="#FFDEC9"/>
<path d="M220.102 45.8599C219.849 45.8599 219.593 45.8618 219.339 45.8627C219.304 45.8627 219.266 45.8627 219.23 45.8627C219.147 45.8646 219.069 45.9364 219.072 46.0213C219.076 46.1072 219.14 46.1799 219.23 46.179C219.484 46.179 219.738 46.1771 219.992 46.1762C220.03 46.1743 220.065 46.1744 220.102 46.1744C220.186 46.1744 220.264 46.1034 220.261 46.0167C220.256 45.9317 220.191 45.858 220.102 45.8599Z" fill="#FFDEC9"/>
<path d="M208.367 48.1711C208.119 48.2261 207.87 48.2802 207.622 48.3353C207.587 48.3427 207.551 48.3502 207.515 48.3586C207.434 48.3763 207.38 48.4734 207.405 48.5527C207.431 48.6376 207.512 48.6824 207.598 48.6628C207.849 48.6077 208.098 48.5536 208.346 48.4986C208.382 48.4902 208.418 48.4827 208.451 48.4762C208.532 48.4566 208.587 48.3595 208.562 48.2821C208.533 48.1963 208.454 48.1515 208.367 48.1711Z" fill="#FFDEC9"/>
<path d="M217.13 48.116C217.018 47.8884 216.907 47.6607 216.795 47.4312C216.78 47.3985 216.763 47.3659 216.747 47.3332C216.709 47.2586 216.598 47.2334 216.531 47.2763C216.455 47.3257 216.435 47.4134 216.474 47.4928C216.586 47.7204 216.697 47.9481 216.808 48.1776C216.824 48.2103 216.84 48.243 216.857 48.2747C216.894 48.3493 217.004 48.3745 217.072 48.3316C217.149 48.2831 217.168 48.1954 217.13 48.116Z" fill="#FFDEC9"/>
<path d="M223.329 47.5777C223.092 47.4853 222.856 47.3939 222.62 47.3015C222.585 47.2865 222.55 47.2725 222.516 47.2595C222.44 47.2296 222.34 47.2931 222.323 47.3705C222.302 47.462 222.349 47.5329 222.432 47.5646C222.668 47.6579 222.906 47.7503 223.143 47.8427C223.177 47.8567 223.21 47.8688 223.245 47.8818C223.321 47.9126 223.421 47.8501 223.438 47.7727C223.461 47.6803 223.412 47.6113 223.329 47.5777Z" fill="#FFDEC9"/>
<path d="M215.424 45.469C215.169 45.469 214.916 45.469 214.66 45.469C214.625 45.469 214.589 45.469 214.553 45.469C214.47 45.469 214.392 45.5418 214.394 45.6267C214.4 45.7135 214.465 45.7853 214.553 45.7853C214.806 45.7853 215.062 45.7853 215.316 45.7853C215.352 45.7853 215.389 45.7853 215.424 45.7853C215.507 45.7853 215.586 45.7135 215.584 45.6267C215.578 45.5418 215.513 45.469 215.424 45.469Z" fill="#FFDEC9"/>
<path d="M214.065 48.5022C213.847 48.3725 213.628 48.2428 213.41 48.1121C213.378 48.0935 213.348 48.0757 213.317 48.0571C213.245 48.0151 213.14 48.0384 213.1 48.114C213.06 48.1905 213.081 48.2847 213.157 48.3295C213.375 48.4602 213.595 48.5889 213.814 48.7196C213.845 48.7382 213.876 48.756 213.907 48.7755C213.979 48.8175 214.083 48.7942 214.123 48.7186C214.163 48.6431 214.141 48.5479 214.065 48.5022Z" fill="#FFDEC9"/>
<path d="M201.742 54.1065C203.489 54.7699 205.419 54.8213 207.263 54.9267C209.271 55.0433 211.278 55.0937 213.289 55.0835C213.441 55.0835 213.441 54.8455 213.289 54.8465C211.332 54.8576 209.375 54.8101 207.421 54.699C205.546 54.5936 203.581 54.5535 201.806 53.8788C201.663 53.8229 201.6 54.0524 201.742 54.1065Z" fill="#CF6223"/>
<path d="M216.148 55.0982C216.723 55.1215 217.3 55.1289 217.877 55.1196C218.029 55.1177 218.03 54.8807 217.877 54.8835C217.301 54.891 216.724 54.8845 216.148 54.8612C215.995 54.8565 215.995 55.0926 216.148 55.0982Z" fill="#CF6223"/>
<path d="M292.174 154.094C287.529 154.094 283.76 157.86 283.76 162.507C283.76 171.828 292.174 178.862 292.174 178.862C292.174 178.862 300.587 171.828 300.587 162.507C300.587 157.86 296.821 154.094 292.174 154.094ZM292.174 167.128C289.754 167.128 287.795 165.167 287.795 162.75C287.795 160.331 289.755 158.371 292.174 158.371C294.593 158.371 296.552 160.332 296.552 162.75C296.553 165.167 294.593 167.128 292.174 167.128Z" fill="#F0593E"/>
<path d="M257.492 41.5892C257.725 41.9605 257.958 42.3338 258.191 42.7061C258.748 43.5962 259.303 44.4845 259.86 45.3737C260.533 46.4496 261.205 47.5245 261.877 48.5994C262.462 49.5325 263.046 50.4646 263.629 51.3977C263.912 51.8484 264.179 52.3102 264.474 52.7516C264.48 52.7572 264.484 52.7637 264.487 52.7702C264.587 52.9298 264.841 52.7824 264.739 52.6228C264.508 52.2505 264.275 51.8792 264.041 51.5059C263.485 50.6176 262.929 49.7275 262.372 48.8373C261.699 47.7624 261.027 46.6866 260.355 45.6126C259.771 44.6795 259.188 43.7464 258.604 42.8134C258.322 42.3627 258.053 41.9018 257.757 41.4595C257.753 41.4539 257.749 41.4464 257.745 41.4408C257.645 41.2822 257.393 41.4287 257.492 41.5892Z" fill="#595959"/>
<path d="M252.292 41.4408C252.059 41.8131 251.826 42.1845 251.593 42.5577C251.037 43.447 250.481 44.3371 249.925 45.2263C249.251 46.3012 248.579 47.3771 247.905 48.452C247.322 49.3841 246.739 50.3172 246.155 51.2503C245.875 51.7 245.567 52.1414 245.309 52.6042C245.305 52.6107 245.301 52.6163 245.297 52.6228C245.197 52.7824 245.45 52.9298 245.549 52.7703C245.783 52.398 246.016 52.0266 246.248 51.6543C246.805 50.7642 247.361 49.8749 247.918 48.9857C248.59 47.9099 249.263 46.834 249.936 45.7591C250.519 44.826 251.103 43.893 251.686 42.9608C251.968 42.5111 252.274 42.0697 252.533 41.6069C252.536 41.6013 252.541 41.5948 252.545 41.5883C252.645 41.4287 252.392 41.2822 252.292 41.4408Z" fill="#595959"/>
<path d="M241.199 53.0614C241.283 53.388 241.366 53.7155 241.449 54.043C241.658 54.8641 241.867 55.6871 242.076 56.5091C242.347 57.5812 242.62 58.6543 242.893 59.7273C243.17 60.8209 243.447 61.9144 243.725 63.0071C243.945 63.8748 244.167 64.7435 244.386 65.6104C244.49 66.0219 244.593 66.4324 244.698 66.843C244.945 67.7975 245.792 68.4003 246.762 68.4003C247.214 68.4003 247.667 68.4003 248.118 68.4003C248.988 68.4003 249.856 68.4003 250.725 68.4003C251.822 68.4003 252.919 68.4003 254.014 68.4003C255.162 68.4003 256.31 68.4003 257.457 68.4003C258.467 68.4003 259.477 68.4003 260.486 68.4003C261.17 68.4003 261.854 68.4003 262.539 68.4003C263.064 68.4003 263.565 68.4227 264.053 68.1735C264.585 67.902 264.965 67.4009 265.107 66.8252C265.139 66.6937 265.17 66.5612 265.203 66.4296C265.365 65.7606 265.528 65.0925 265.69 64.4235C265.938 63.4083 266.184 62.3931 266.43 61.3779C266.701 60.2648 266.971 59.1516 267.241 58.0384C267.48 57.0596 267.717 56.0799 267.955 55.1011C268.101 54.503 268.245 53.9058 268.391 53.3087C268.411 53.2256 268.431 53.1435 268.451 53.0614C268.495 52.8776 268.212 52.8001 268.168 52.983C268.09 53.3068 268.01 53.6315 267.931 53.9553C267.734 54.7699 267.536 55.5854 267.339 56.4009C267.078 57.4655 266.821 58.5311 266.562 59.5967C266.298 60.6856 266.032 61.7745 265.767 62.8634C265.556 63.7358 265.345 64.6082 265.131 65.4797C265.031 65.8996 264.928 66.3186 264.827 66.7375C264.695 67.2694 264.353 67.7126 263.854 67.9468C263.584 68.0728 263.297 68.1082 263.006 68.1082C262.534 68.1082 262.06 68.1082 261.588 68.1082C260.717 68.1082 259.846 68.1082 258.975 68.1082C257.878 68.1082 256.782 68.1082 255.687 68.1082C254.55 68.1082 253.412 68.1082 252.275 68.1082C251.281 68.1082 250.287 68.1082 249.293 68.1082C248.614 68.1082 247.935 68.1082 247.255 68.1082C246.742 68.1082 246.246 68.1371 245.782 67.8591C245.365 67.609 245.092 67.2069 244.974 66.7403C244.934 66.5901 244.896 66.4389 244.859 66.2887C244.684 65.5973 244.508 64.9059 244.333 64.2145C244.075 63.2012 243.818 62.185 243.56 61.1698C243.28 60.0697 243.001 58.9687 242.722 57.8686C242.478 56.9057 242.234 55.9427 241.99 54.9807C241.84 54.3948 241.692 53.8079 241.543 53.221C241.523 53.1416 241.503 53.0633 241.483 52.983C241.435 52.8001 241.154 52.8776 241.199 53.0614Z" fill="#595959"/>
<path d="M242.346 57.0363C242.569 57.0363 242.793 57.0363 243.017 57.0363C243.623 57.0363 244.228 57.0363 244.835 57.0363C245.733 57.0363 246.633 57.0363 247.532 57.0363C248.624 57.0363 249.717 57.0363 250.81 57.0363C252.012 57.0363 253.213 57.0363 254.415 57.0363C255.628 57.0363 256.842 57.0363 258.054 57.0363C259.179 57.0363 260.306 57.0363 261.431 57.0363C262.385 57.0363 263.336 57.0363 264.289 57.0363C264.976 57.0363 265.666 57.0363 266.352 57.0363C266.679 57.0363 267.005 57.0438 267.329 57.0363C267.344 57.0363 267.358 57.0363 267.371 57.0363C267.559 57.0363 267.559 56.7443 267.371 56.7443C267.147 56.7443 266.925 56.7443 266.7 56.7443C266.094 56.7443 265.488 56.7443 264.884 56.7443C263.983 56.7443 263.085 56.7443 262.186 56.7443C261.093 56.7443 260 56.7443 258.907 56.7443C257.707 56.7443 256.505 56.7443 255.303 56.7443C254.09 56.7443 252.877 56.7443 251.665 56.7443C250.538 56.7443 249.412 56.7443 248.285 56.7443C247.333 56.7443 246.381 56.7443 245.428 56.7443C244.74 56.7443 244.052 56.7443 243.364 56.7443C243.039 56.7443 242.713 56.7368 242.388 56.7443C242.374 56.7443 242.36 56.7443 242.346 56.7443C242.158 56.7434 242.158 57.0363 242.346 57.0363Z" fill="#595959"/>
<path d="M243.285 60.7843C243.493 60.7843 243.699 60.7843 243.906 60.7843C244.469 60.7843 245.031 60.7843 245.594 60.7843C246.423 60.7843 247.25 60.7843 248.079 60.7843C249.093 60.7843 250.109 60.7843 251.123 60.7843C252.235 60.7843 253.346 60.7843 254.458 60.7843C255.58 60.7843 256.703 60.7843 257.825 60.7843C258.871 60.7843 259.917 60.7843 260.963 60.7843C261.843 60.7843 262.726 60.7843 263.605 60.7843C264.242 60.7843 264.879 60.7843 265.516 60.7843C265.816 60.7843 266.118 60.7918 266.422 60.7843C266.435 60.7843 266.447 60.7843 266.46 60.7843C266.649 60.7843 266.649 60.4914 266.46 60.4914C266.254 60.4914 266.046 60.4914 265.84 60.4914C265.278 60.4914 264.714 60.4914 264.152 60.4914C263.323 60.4914 262.496 60.4914 261.667 60.4914C260.652 60.4914 259.638 60.4914 258.624 60.4914C257.512 60.4914 256.4 60.4914 255.288 60.4914C254.166 60.4914 253.044 60.4914 251.921 60.4914C250.876 60.4914 249.83 60.4914 248.784 60.4914C247.903 60.4914 247.021 60.4914 246.141 60.4914C245.504 60.4914 244.867 60.4914 244.23 60.4914C243.93 60.4914 243.626 60.4839 243.325 60.4914C243.311 60.4914 243.299 60.4914 243.285 60.4914C243.098 60.4914 243.097 60.7843 243.285 60.7843Z" fill="#595959"/>
<path d="M244.346 64.791C244.533 64.791 244.721 64.791 244.908 64.791C245.422 64.791 245.934 64.791 246.446 64.791C247.201 64.791 247.956 64.791 248.712 64.791C249.632 64.791 250.554 64.791 251.475 64.791C252.488 64.791 253.502 64.791 254.515 64.791C255.534 64.791 256.552 64.791 257.571 64.791C258.521 64.791 259.47 64.791 260.421 64.791C261.226 64.791 262.033 64.791 262.839 64.791C263.417 64.791 263.995 64.791 264.572 64.791C264.846 64.791 265.119 64.7984 265.392 64.791C265.405 64.791 265.416 64.791 265.429 64.791C265.616 64.791 265.618 64.4989 265.429 64.4989C265.241 64.4989 265.055 64.4989 264.867 64.4989C264.355 64.4989 263.841 64.4989 263.329 64.4989C262.574 64.4989 261.819 64.4989 261.064 64.4989C260.144 64.4989 259.222 64.4989 258.301 64.4989C257.288 64.4989 256.273 64.4989 255.26 64.4989C254.241 64.4989 253.223 64.4989 252.205 64.4989C251.254 64.4989 250.304 64.4989 249.355 64.4989C248.548 64.4989 247.742 64.4989 246.935 64.4989C246.358 64.4989 245.781 64.4989 245.204 64.4989C244.93 64.4989 244.656 64.4915 244.382 64.4989C244.37 64.4989 244.358 64.4989 244.346 64.4989C244.157 64.4989 244.156 64.791 244.346 64.791Z" fill="#595959"/>
<path d="M254.973 68.1241C254.973 67.6389 254.973 67.1527 254.973 66.6675C254.973 65.5021 254.973 64.3367 254.973 63.1713C254.973 61.767 254.973 60.3627 254.973 58.9585C254.973 57.7445 254.973 56.5297 254.973 55.3148C254.973 54.7232 254.994 54.127 254.973 53.5354C254.972 53.5261 254.973 53.5186 254.973 53.5093C254.973 53.3208 254.68 53.3208 254.68 53.5093C254.68 53.9954 254.68 54.4806 254.68 54.9658C254.68 56.1312 254.68 57.2966 254.68 58.4611C254.68 59.8654 254.68 61.2697 254.68 62.674C254.68 63.8888 254.68 65.1037 254.68 66.3176C254.68 66.9092 254.658 67.5055 254.68 68.098C254.681 68.1064 254.68 68.1147 254.68 68.1231C254.68 68.3126 254.973 68.3126 254.973 68.1241Z" fill="#595959"/>
<path d="M257.764 68.1239C257.786 67.6387 257.806 67.1526 257.827 66.6674C257.877 65.502 257.926 64.3366 257.976 63.1721C258.036 61.7678 258.097 60.3626 258.156 58.9583C258.208 57.7444 258.26 56.5295 258.311 55.3156C258.336 54.7249 258.392 54.1268 258.388 53.5362C258.388 53.5278 258.389 53.5194 258.389 53.511C258.397 53.3225 258.104 53.3225 258.097 53.511C258.077 53.9971 258.055 54.4814 258.035 54.9666C257.985 56.132 257.936 57.2974 257.886 58.4628C257.825 59.8671 257.765 61.2714 257.706 62.6757C257.653 63.8896 257.602 65.1054 257.551 66.3194C257.525 66.91 257.469 67.5072 257.474 68.0987C257.474 68.1071 257.473 68.1155 257.472 68.1239C257.465 68.3124 257.757 68.3115 257.764 68.1239Z" fill="#595959"/>
<path d="M260.576 68.1241C260.607 67.637 260.638 67.1499 260.671 66.6629C260.745 65.5021 260.819 64.3423 260.894 63.1825C260.987 61.7707 261.078 60.359 261.169 58.9472C261.248 57.7352 261.326 56.5231 261.404 55.311C261.429 54.9089 261.456 54.5067 261.481 54.1046C261.494 53.9161 261.517 53.7239 261.519 53.5363C261.519 53.5279 261.519 53.5195 261.521 53.5111C261.532 53.3226 261.24 53.3236 261.228 53.5111C261.197 53.9973 261.166 54.4853 261.133 54.9723C261.058 56.1321 260.983 57.292 260.909 58.4518C260.817 59.8626 260.727 61.2743 260.635 62.687C260.556 63.8991 260.478 65.1112 260.4 66.3232C260.374 66.7254 260.347 67.1275 260.322 67.5288C260.309 67.7172 260.286 67.9085 260.285 68.0979C260.285 68.1063 260.284 68.1147 260.284 68.1222C260.271 68.3126 260.563 68.3116 260.576 68.1241Z" fill="#595959"/>
<path d="M263.219 68.1651C263.267 67.6762 263.312 67.1882 263.359 66.6992C263.472 65.5357 263.583 64.3721 263.696 63.2086C263.831 61.7978 263.967 60.386 264.105 58.9743C264.221 57.7538 264.34 56.5343 264.456 55.3138C264.495 54.9126 264.533 54.5114 264.573 54.1111C264.592 53.9198 264.622 53.7257 264.628 53.5354C264.628 53.526 264.63 53.5186 264.63 53.5102C264.649 53.3226 264.357 53.3236 264.338 53.5102C264.29 53.9982 264.243 54.4871 264.196 54.976C264.085 56.1396 263.972 57.3031 263.861 58.4667C263.724 59.8775 263.588 61.2893 263.452 62.701C263.334 63.9215 263.217 65.141 263.099 66.3615C263.061 66.7618 263.022 67.163 262.984 67.5633C262.965 67.7536 262.935 67.9477 262.929 68.139C262.929 68.1474 262.927 68.1558 262.925 68.1632C262.907 68.3527 263.201 68.3517 263.219 68.1651Z" fill="#595959"/>
<path d="M252.35 68.1651C252.329 67.6799 252.309 67.1947 252.288 66.7095C252.238 65.5441 252.188 64.3787 252.139 63.2133C252.079 61.809 252.018 60.4047 251.96 59.0004C251.906 57.7856 251.855 56.5707 251.803 55.3558C251.779 54.7643 251.768 54.169 251.727 53.5765C251.727 53.5681 251.726 53.5597 251.726 53.5513C251.718 53.3628 251.425 53.3628 251.434 53.5513C251.454 54.0365 251.475 54.5217 251.496 55.0078C251.546 56.1732 251.595 57.3386 251.645 58.5041C251.705 59.9083 251.766 61.3126 251.825 62.7169C251.878 63.9318 251.928 65.1457 251.981 66.3606C252.006 66.9531 252.016 67.5484 252.057 68.14C252.058 68.1483 252.058 68.1567 252.058 68.1651C252.065 68.3536 252.357 68.3546 252.35 68.1651Z" fill="#595959"/>
<path d="M249.539 68.1651C249.509 67.678 249.477 67.1909 249.444 66.7029C249.37 65.5431 249.295 64.3833 249.219 63.2235C249.128 61.8118 249.038 60.4 248.946 58.9883C248.868 57.7762 248.789 56.5641 248.711 55.3521C248.672 54.7605 248.646 54.167 248.596 53.5764C248.595 53.5689 248.595 53.5605 248.595 53.5521C248.582 53.3646 248.29 53.3637 248.302 53.5521C248.334 54.0392 248.365 54.5263 248.397 55.0133C248.473 56.1741 248.547 57.3339 248.622 58.4928C248.714 59.9045 248.804 61.3163 248.895 62.728C248.975 63.9401 249.052 65.1522 249.131 66.3642C249.17 66.9558 249.196 67.5493 249.245 68.1399C249.246 68.1483 249.246 68.1567 249.247 68.1651C249.259 68.3526 249.551 68.3536 249.539 68.1651Z" fill="#595959"/>
<path d="M246.896 68.2062C246.848 67.7182 246.801 67.2292 246.755 66.7403C246.643 65.5768 246.531 64.4132 246.419 63.2497C246.283 61.8388 246.148 60.4271 246.01 59.0154C245.894 57.7949 245.775 56.5744 245.659 55.3549C245.602 54.7624 245.55 54.1689 245.486 53.5764C245.486 53.569 245.485 53.5606 245.484 53.5522C245.465 53.3665 245.173 53.3637 245.191 53.5522C245.239 54.0402 245.285 54.53 245.332 55.018C245.444 56.1816 245.556 57.3451 245.668 58.5087C245.804 59.9204 245.939 61.3322 246.075 62.743C246.192 63.9635 246.31 65.1839 246.427 66.4035C246.484 66.9969 246.535 67.5894 246.599 68.1828C246.6 68.1912 246.6 68.1987 246.601 68.2071C246.622 68.3928 246.914 68.3937 246.896 68.2062Z" fill="#595959"/>
<path d="M241.341 53.7099C241.583 53.7099 241.825 53.7099 242.064 53.7099C242.718 53.7099 243.371 53.7099 244.025 53.7099C244.994 53.7099 245.963 53.7099 246.932 53.7099C248.111 53.7099 249.288 53.7099 250.467 53.7099C251.763 53.7099 253.057 53.7099 254.353 53.7099C255.656 53.7099 256.958 53.7099 258.262 53.7099C259.477 53.7099 260.691 53.7099 261.905 53.7099C262.936 53.7099 263.966 53.7099 264.997 53.7099C265.738 53.7099 266.478 53.7099 267.218 53.7099C267.566 53.7099 267.916 53.7146 268.266 53.7099C268.281 53.7099 268.295 53.7099 268.312 53.7099C268.671 53.7099 269.015 53.3936 268.999 53.0213C268.982 52.649 268.696 52.3336 268.312 52.3336C268.069 52.3336 267.828 52.3336 267.589 52.3336C266.935 52.3336 266.282 52.3336 265.627 52.3336C264.658 52.3336 263.69 52.3336 262.721 52.3336C261.541 52.3336 260.365 52.3336 259.186 52.3336C257.89 52.3336 256.595 52.3336 255.3 52.3336C253.997 52.3336 252.695 52.3336 251.392 52.3336C250.177 52.3336 248.963 52.3336 247.749 52.3336C246.718 52.3336 245.687 52.3336 244.656 52.3336C243.916 52.3336 243.176 52.3336 242.435 52.3336C242.086 52.3336 241.737 52.329 241.387 52.3336C241.372 52.3336 241.357 52.3336 241.342 52.3336C240.983 52.3336 240.638 52.6499 240.654 53.0213C240.669 53.3945 240.956 53.7099 241.341 53.7099Z" fill="#F0593E"/>
<path d="M251.928 41.8784C252.215 41.8784 252.501 41.8784 252.787 41.8784C252.828 41.8784 252.869 41.8784 252.91 41.8784C253.086 41.8784 253.272 41.8019 253.397 41.6769C253.464 41.6153 253.511 41.5407 253.538 41.4558C253.581 41.3727 253.602 41.285 253.599 41.1898C253.591 41.0116 253.532 40.8269 253.397 40.7037C253.261 40.5796 253.096 40.5012 252.91 40.5012C252.622 40.5012 252.337 40.5012 252.05 40.5012C252.009 40.5012 251.969 40.5012 251.928 40.5012C251.753 40.5012 251.566 40.5787 251.441 40.7037C251.374 40.7653 251.326 40.8399 251.299 40.9248C251.256 41.007 251.236 41.0947 251.239 41.1898C251.249 41.368 251.307 41.5528 251.442 41.676C251.576 41.801 251.741 41.8784 251.928 41.8784Z" fill="#F0593E"/>
<path d="M257.129 41.8784C257.415 41.8784 257.702 41.8784 257.988 41.8784C258.029 41.8784 258.069 41.8784 258.111 41.8784C258.287 41.8784 258.473 41.8019 258.597 41.6769C258.663 41.6153 258.711 41.5407 258.739 41.4558C258.781 41.3727 258.801 41.285 258.797 41.1898C258.789 41.0116 258.731 40.8269 258.596 40.7037C258.46 40.5796 258.295 40.5012 258.11 40.5012C257.822 40.5012 257.536 40.5012 257.249 40.5012C257.209 40.5012 257.168 40.5012 257.128 40.5012C256.952 40.5012 256.765 40.5787 256.642 40.7037C256.575 40.7653 256.527 40.8399 256.499 40.9248C256.456 41.007 256.437 41.0947 256.44 41.1898C256.449 41.368 256.507 41.5528 256.643 41.676C256.776 41.801 256.942 41.8784 257.129 41.8784Z" fill="#F0593E"/>
<path d="M284.003 161.673H274.66C273.053 161.673 271.751 160.372 271.751 158.766V149.423C271.751 147.817 273.054 146.516 274.66 146.516H284.003C285.609 146.516 286.91 147.818 286.91 149.423V158.766C286.91 160.373 285.608 161.673 284.003 161.673Z" fill="#9FBD51"/>
<path d="M275.208 155.065C275.97 155.978 276.73 156.889 277.491 157.802C277.596 157.928 277.702 158.055 277.808 158.181C278.021 158.436 278.443 158.336 278.597 158.079C278.761 157.806 278.926 157.533 279.088 157.259C279.481 156.607 279.873 155.955 280.264 155.302C280.74 154.507 281.215 153.715 281.691 152.921C282.1 152.239 282.511 151.555 282.92 150.872C283.12 150.538 283.331 150.209 283.523 149.869C283.526 149.864 283.529 149.859 283.531 149.854C283.667 149.628 283.59 149.293 283.351 149.167C283.108 149.038 282.808 149.106 282.664 149.348C282.499 149.621 282.335 149.892 282.173 150.167C281.781 150.819 281.389 151.472 280.997 152.125C280.521 152.918 280.045 153.711 279.57 154.504C279.161 155.187 278.75 155.872 278.342 156.554C278.142 156.887 277.924 157.215 277.739 157.557C277.736 157.562 277.733 157.567 277.729 157.572C277.993 157.538 278.256 157.504 278.52 157.471C277.76 156.557 276.998 155.647 276.238 154.735C276.133 154.608 276.027 154.482 275.921 154.354C275.751 154.152 275.383 154.168 275.209 154.354C275.011 154.571 275.028 154.85 275.208 155.065Z" fill="white"/>
<path d="M243.982 78.0452C243.943 78.0452 243.902 78.0405 243.861 78.0293L242.508 77.6691C242.259 77.6029 242.112 77.3472 242.177 77.0981C242.244 76.849 242.496 76.7025 242.748 76.7669L244.101 77.127C244.35 77.1933 244.498 77.4489 244.433 77.6981C244.377 77.9071 244.189 78.0452 243.982 78.0452Z" fill="#595959"/>
<path d="M269.422 84.8103C269.383 84.8103 269.343 84.8056 269.302 84.7944L266.757 84.1179C266.508 84.0517 266.361 83.796 266.427 83.5469C266.493 83.2978 266.741 83.1503 266.998 83.2157L269.543 83.8921C269.792 83.9584 269.939 84.2141 269.874 84.4632C269.817 84.6731 269.628 84.8103 269.422 84.8103ZM264.333 83.4573C264.294 83.4573 264.253 83.4527 264.213 83.4415L261.669 82.765C261.42 82.6987 261.273 82.4431 261.338 82.1939C261.403 81.9457 261.656 81.7974 261.909 81.8627L264.453 82.5392C264.702 82.6054 264.849 82.8611 264.783 83.1102C264.729 83.3202 264.54 83.4573 264.333 83.4573ZM259.246 82.1044C259.207 82.1044 259.167 82.0997 259.126 82.0885L256.581 81.412C256.332 81.3458 256.185 81.0901 256.251 80.841C256.317 80.5918 256.565 80.4444 256.822 80.5097L259.366 81.1862C259.616 81.2525 259.763 81.5081 259.697 81.7572C259.642 81.9663 259.453 82.1044 259.246 82.1044ZM254.158 80.7514C254.119 80.7514 254.079 80.7467 254.038 80.7355L251.493 80.0591C251.244 79.9928 251.097 79.7371 251.163 79.488C251.228 79.2398 251.476 79.0914 251.734 79.1568L254.278 79.8332C254.527 79.8995 254.675 80.1552 254.609 80.4043C254.554 80.6133 254.365 80.7514 254.158 80.7514ZM249.07 79.3984C249.031 79.3984 248.991 79.3938 248.95 79.3826L246.405 78.7061C246.156 78.6398 246.008 78.3842 246.075 78.135C246.141 77.8859 246.39 77.7385 246.646 77.8038L249.19 78.4803C249.439 78.5465 249.587 78.8022 249.521 79.0513C249.466 79.2603 249.277 79.3984 249.07 79.3984Z" fill="#595959"/>
<path d="M272.959 87.199C272.919 87.199 272.878 87.1943 272.838 87.1831C272.589 87.1169 272.442 86.8612 272.508 86.6121L272.749 85.7098L271.846 85.4709C271.597 85.4047 271.45 85.149 271.516 84.8999C271.581 84.6517 271.829 84.5033 272.087 84.5686L273.439 84.9279C273.559 84.9596 273.66 85.038 273.723 85.1443C273.784 85.2516 273.802 85.3795 273.77 85.498L273.41 86.8509C273.353 87.0618 273.165 87.199 272.959 87.199Z" fill="#595959"/>
<path d="M251.011 169.732C250.972 169.732 250.93 169.727 250.89 169.716C250.641 169.65 250.493 169.393 250.559 169.145L251.292 166.394C251.357 166.146 251.61 165.993 251.863 166.064C252.112 166.129 252.26 166.384 252.193 166.634L251.46 169.385C251.406 169.594 251.218 169.732 251.011 169.732ZM252.474 164.231C252.435 164.231 252.394 164.225 252.353 164.214C252.104 164.149 251.957 163.893 252.023 163.644L252.755 160.892C252.821 160.644 253.076 160.493 253.326 160.562C253.575 160.627 253.722 160.883 253.656 161.132L252.924 163.884C252.869 164.092 252.681 164.231 252.474 164.231ZM253.938 158.729C253.899 158.729 253.858 158.723 253.817 158.712C253.568 158.646 253.421 158.391 253.487 158.142L254.219 155.39C254.284 155.142 254.538 154.991 254.79 155.06C255.039 155.125 255.186 155.381 255.121 155.63L254.389 158.381C254.333 158.591 254.145 158.729 253.938 158.729ZM255.401 153.225C255.362 153.225 255.321 153.222 255.28 153.21C255.031 153.143 254.884 152.888 254.95 152.638L255.682 149.889C255.748 149.64 256.002 149.487 256.253 149.557C256.502 149.625 256.649 149.88 256.583 150.129L255.852 152.879C255.796 153.088 255.608 153.225 255.401 153.225ZM256.864 147.723C256.825 147.723 256.784 147.719 256.744 147.708C256.494 147.641 256.347 147.385 256.413 147.136L257.145 144.386C257.211 144.138 257.465 143.985 257.716 144.055C257.965 144.122 258.112 144.378 258.046 144.627L257.315 147.377C257.259 147.587 257.07 147.723 256.864 147.723ZM258.327 142.222C258.288 142.222 258.248 142.218 258.207 142.207C257.957 142.139 257.81 141.884 257.876 141.635L258.608 138.883C258.673 138.635 258.923 138.484 259.179 138.553C259.428 138.618 259.575 138.874 259.51 139.123L258.779 141.874C258.723 142.084 258.534 142.222 258.327 142.222ZM259.79 136.719C259.751 136.719 259.71 136.714 259.67 136.702C259.421 136.637 259.273 136.381 259.339 136.132L260.071 133.381C260.137 133.133 260.39 132.983 260.642 133.05C260.891 133.117 261.039 133.371 260.972 133.621L260.241 136.373C260.186 136.581 259.997 136.719 259.79 136.719ZM261.253 131.217C261.214 131.217 261.174 131.212 261.133 131.201C260.884 131.135 260.736 130.879 260.802 130.63L261.534 127.878C261.6 127.629 261.847 127.481 262.105 127.547C262.354 127.613 262.502 127.869 262.435 128.118L261.704 130.87C261.649 131.08 261.459 131.217 261.253 131.217ZM262.716 125.714C262.677 125.714 262.636 125.71 262.596 125.699C262.347 125.632 262.199 125.377 262.266 125.128L262.997 122.377C263.063 122.128 263.317 121.98 263.568 122.046C263.817 122.112 263.965 122.367 263.898 122.617L263.167 125.367C263.112 125.577 262.923 125.714 262.716 125.714ZM264.179 120.212C264.14 120.212 264.099 120.207 264.059 120.196C263.81 120.13 263.662 119.874 263.729 119.625L264.46 116.874C264.525 116.625 264.779 116.479 265.031 116.543C265.28 116.609 265.428 116.865 265.361 117.114L264.63 119.865C264.575 120.075 264.386 120.212 264.179 120.212ZM265.642 114.71C265.603 114.71 265.562 114.705 265.522 114.694C265.273 114.628 265.125 114.372 265.192 114.123L265.923 111.372C265.989 111.123 266.244 110.975 266.494 111.041C266.743 111.107 266.891 111.363 266.825 111.612L266.093 114.363C266.038 114.573 265.849 114.71 265.642 114.71ZM267.105 109.208C267.066 109.208 267.026 109.204 266.985 109.192C266.736 109.126 266.588 108.87 266.655 108.621L267.386 105.87C267.452 105.622 267.7 105.473 267.957 105.538C268.206 105.605 268.354 105.86 268.288 106.11L267.556 108.861C267.501 109.07 267.313 109.208 267.105 109.208ZM268.568 103.706C268.529 103.706 268.488 103.701 268.448 103.69C268.199 103.624 268.052 103.368 268.118 103.119L268.849 100.368C268.916 100.119 269.17 99.9727 269.42 100.037C269.669 100.103 269.817 100.359 269.752 100.608L269.02 103.359C268.964 103.568 268.776 103.706 268.568 103.706ZM270.032 98.2035C269.992 98.2035 269.951 98.1989 269.911 98.1877C269.662 98.1214 269.515 97.8658 269.581 97.6166L270.312 94.8659C270.379 94.6168 270.632 94.4684 270.883 94.5347C271.133 94.6009 271.28 94.8566 271.214 95.1057L270.482 97.8564C270.427 98.0654 270.239 98.2035 270.032 98.2035ZM271.495 92.7012C271.455 92.7012 271.414 92.6965 271.374 92.6853C271.125 92.6191 270.978 92.3634 271.044 92.1143L271.775 89.3636C271.841 89.1144 272.094 88.967 272.347 89.0323C272.596 89.0986 272.743 89.3542 272.677 89.6034L271.945 92.3541C271.89 92.5631 271.702 92.7012 271.495 92.7012Z" fill="#595959"/>
<path d="M251.272 174.195C251.233 174.195 251.193 174.19 251.153 174.179L249.8 173.819C249.679 173.789 249.578 173.71 249.515 173.603C249.453 173.496 249.436 173.368 249.467 173.249L249.829 171.897C249.895 171.649 250.149 171.503 250.4 171.566C250.649 171.633 250.797 171.889 250.731 172.138L250.49 173.038L251.391 173.277C251.642 173.344 251.789 173.6 251.723 173.847C251.668 174.057 251.479 174.195 251.272 174.195Z" fill="#595959"/>
<path d="M287.063 183.712C287.024 183.712 286.984 183.706 286.943 183.695L284.387 183.015C284.138 182.949 283.99 182.694 284.057 182.445C284.122 182.195 284.37 182.043 284.628 182.113L287.183 182.794C287.432 182.861 287.58 183.116 287.515 183.366C287.459 183.574 287.269 183.712 287.063 183.712ZM281.95 182.352C281.911 182.352 281.87 182.347 281.829 182.335L279.274 181.655C279.025 181.59 278.877 181.334 278.943 181.085C279.01 180.837 279.258 180.686 279.514 180.754L282.07 181.434C282.319 181.501 282.467 181.757 282.4 182.006C282.345 182.214 282.157 182.352 281.95 182.352ZM276.837 180.993C276.798 180.993 276.758 180.987 276.717 180.976L274.161 180.296C273.912 180.23 273.765 179.975 273.831 179.726C273.897 179.477 274.145 179.326 274.402 179.394L276.958 180.075C277.207 180.142 277.354 180.397 277.288 180.647C277.233 180.855 277.045 180.993 276.837 180.993ZM271.724 179.631C271.685 179.631 271.645 179.628 271.604 179.616L269.048 178.936C268.799 178.869 268.652 178.613 268.718 178.364C268.783 178.116 269.03 177.965 269.289 178.034L271.844 178.714C272.094 178.78 272.241 179.035 272.175 179.284C272.12 179.495 271.931 179.631 271.724 179.631ZM266.612 178.272C266.573 178.272 266.532 178.268 266.491 178.257L263.936 177.577C263.687 177.51 263.539 177.254 263.604 177.005C263.671 176.757 263.918 176.605 264.176 176.674L266.731 177.355C266.98 177.42 267.128 177.676 267.062 177.925C267.007 178.136 266.818 178.272 266.612 178.272ZM261.499 176.912C261.459 176.912 261.419 176.909 261.378 176.897L258.822 176.217C258.572 176.15 258.425 175.894 258.49 175.645C258.557 175.397 258.805 175.248 259.061 175.315L261.618 175.995C261.867 176.061 262.015 176.316 261.948 176.565C261.894 176.776 261.706 176.912 261.499 176.912ZM256.386 175.553C256.347 175.553 256.307 175.549 256.267 175.538L253.71 174.858C253.46 174.792 253.313 174.537 253.379 174.288C253.444 174.038 253.697 173.888 253.949 173.956L256.506 174.637C256.756 174.702 256.903 174.958 256.837 175.207C256.782 175.417 256.593 175.553 256.386 175.553Z" fill="#595959"/>
<path d="M290.972 184.751C290.932 184.751 290.891 184.748 290.851 184.736L289.499 184.375C289.25 184.31 289.102 184.054 289.168 183.805C289.234 183.557 289.487 183.404 289.739 183.474L291.091 183.835C291.34 183.9 291.489 184.156 291.421 184.405C291.367 184.614 291.179 184.751 290.972 184.751Z" fill="#595959"/>
<path d="M242.196 78.8459C241.297 78.6071 240.763 77.6842 241.002 76.7857C241.241 75.8871 242.163 75.3525 243.062 75.5914C243.96 75.8302 244.495 76.753 244.256 77.6516C244.016 78.5502 243.095 79.0848 242.196 78.8459Z" fill="#595959"/>
<path d="M289.766 186.274L294.078 185.11L290.915 181.959L289.766 186.274Z" fill="#595959"/>
<path d="M402.796 236.976L400.752 241.675L388.724 237.87L391.543 231.648L402.796 236.976Z" fill="#FF9B7D"/>
<path d="M401.469 250.061C403.168 250.983 404.503 247.967 405.257 246.511C406.201 244.685 407.605 241.631 407.315 239.78C407.033 237.956 403.032 236.916 401.887 236.547C401.887 236.547 401.077 240.085 399.796 241.371C399.918 242.232 399.864 243.224 399.892 244.09C399.927 245.238 399.953 246.389 400.165 247.52C400.338 248.439 400.587 249.583 401.469 250.061Z" fill="#1F0F09"/>
<path d="M348.989 267.315L343.907 267.966L341.008 255.69L347.798 254.921L348.989 267.315Z" fill="#FF9B7D"/>
<path d="M337.071 272.881C337.151 274.815 340.426 274.414 342.063 274.315C344.115 274.189 347.456 273.831 348.898 272.633C350.317 271.455 349.162 267.488 348.891 266.314C348.891 266.314 345.438 267.431 343.675 266.991C343 267.537 342.119 268 341.39 268.467C340.423 269.085 339.45 269.698 338.587 270.459C337.884 271.078 337.031 271.881 337.071 272.881Z" fill="#1F0F09"/>
<path d="M332.331 216.021C331.679 193.183 335.296 166.34 335.451 157.805L361.615 155.237C361.615 155.237 368.733 162.636 370.946 171.694C372.248 177.026 372.793 184.059 370.776 196.475C368.963 207.632 366.419 217.754 368.175 218.016C382.684 220.191 385.266 225.997 397.485 233.414L394.893 240.588C387.217 238.439 375.138 234.112 370.405 232.436C358.977 228.396 354.882 225.92 353.542 221.846C352.704 219.295 351.376 197.527 351.226 196.553C349.548 210.604 344.999 219.756 346.508 223.134C353.475 238.738 348.604 249.859 349.591 261.446L341.571 262.207C341.106 261.287 332.631 226.505 332.331 216.021Z" fill="#F0593E"/>
<path d="M351.077 196.347C350.355 193.671 349.841 188.53 349.547 181.377C349.536 181.148 349.893 181.148 349.901 181.377C350.196 188.499 350.774 193.429 351.421 196.253C351.474 196.474 351.111 196.573 351.077 196.347Z" fill="#AB1B08"/>
<path d="M299.256 99.844L303.354 115.47C303.471 115.922 303.132 116.364 302.665 116.364H295.675C295.349 116.364 295.067 116.146 294.987 115.832L290.825 99.9653C290.738 99.6359 290.988 99.314 291.329 99.314H298.567C298.892 99.3121 299.173 99.5314 299.256 99.844Z" fill="#402013"/>
<path d="M291.204 111.491C291.233 109.999 291.548 108.127 292.048 106.654C292.315 105.865 293.342 104.815 294.252 105.272C295.126 105.708 295.344 109.441 295.824 110.67C296.132 111.46 297.295 112.674 297.863 113.17C300.051 115.082 301.392 116.807 301.131 119.806C305.658 124.584 311.223 129.233 316.053 133.704C317.187 131.089 324.864 114.203 328.361 111.638C328.361 111.638 331.771 115.755 330.437 130.204C328.388 133.127 322.702 146.109 316.608 146.176C313.125 146.216 309.035 141.379 307.519 138.843C303.699 132.445 299.497 124.655 297.894 121.466C297.319 120.321 296.801 119.55 294.546 117.586C293.324 116.522 291.14 114.69 291.204 111.491Z" fill="#FF9B7D"/>
<path d="M327.829 93.3478C328.21 94.3509 328.279 95.4165 328.181 96.4783C328.007 98.3697 327.414 100.189 327.178 102.069C326.755 105.427 327.193 109.028 329.005 111.946C330.467 114.295 332.833 116.166 335.554 116.789C337.073 117.136 338.606 117.01 340.12 116.694C341.659 116.372 343.271 115.982 344.653 115.204C347.451 113.627 348.15 110.269 348.436 107.306C348.782 103.719 348.24 100.074 347.106 96.6658C344.844 89.8861 340.263 84.2195 335.298 79.2061C335.354 79.1165 335.347 78.984 335.211 78.9542C335.125 78.9355 335.037 78.9318 334.951 78.914C334.936 78.9131 334.922 78.9056 334.907 78.9075C331.995 78.3654 328.872 79.3936 327.011 81.7487C325.019 84.2699 324.797 87.8819 326.338 90.6736C326.835 91.5703 327.463 92.384 327.829 93.3478Z" fill="#402013"/>
<path d="M347.153 103.32C347.153 103.32 346.006 98.9799 345.37 96.2394C345.37 96.2394 344.121 95.2494 343.743 93.4617C343.583 93.513 337.015 81.6284 335.035 82.023C330.711 82.8871 330.257 85.1563 329.805 87.7316C329.372 89.2292 329.561 90.6167 329.556 92.8589C329.548 97.556 331.056 101.491 333.57 102.949C334.866 103.703 336.899 103.184 338.084 102.494L338.613 105.451C338.613 105.451 343.814 105.346 347.153 103.32Z" fill="#FF9B7D"/>
<path d="M338.146 102.394C339.446 101.694 340.669 100.785 341.487 99.5349C341.619 99.3287 341.951 99.5209 341.817 99.7281C340.964 101.034 339.699 101.994 338.338 102.725C338.123 102.842 337.928 102.51 338.146 102.394Z" fill="#ED704C"/>
<path d="M329.421 118.016C329.708 113.426 328.36 111.637 328.36 111.637C328.36 111.637 330.377 109.794 338.391 106.498L338.096 105.001L347.493 102.604L348.153 104.729C351.927 105.642 360.716 107.141 360.716 107.141C360.736 107.845 360.114 117.25 360.549 121.475C360.758 123.499 362.149 128.697 363.857 131.844C363.857 131.844 359.889 150.891 364.69 158.016C355.973 165.125 334.588 161.91 334.588 161.91C333.523 142.094 329.556 138.547 328.422 134.689C326.314 127.512 329.518 120.809 329.421 118.016Z" fill="#F9A532"/>
<path d="M356.893 111.897C356.261 115.42 355.728 123.048 360.431 125.957C361.216 128.423 367.365 150.384 375.73 147.402C380.71 145.627 382.834 128.463 383.611 124.978C383.611 124.978 390.455 121.869 391.417 121.071C393.448 119.388 394.626 113.791 394.213 112.767C393.97 112.161 393.53 111.785 392.822 112C391.484 112.407 390.502 115.969 389.536 116.498C388.985 116.798 386.279 117.444 385.228 117.588C385.787 116.854 386.276 116.07 386.613 115.207C386.841 114.627 387.196 114.132 387.06 113.499C386.955 113.002 386.5 112.866 386.285 113.096C385.702 113.715 384.903 115.06 384.029 115.605C382.832 116.354 380.931 117.273 380.576 118.659C380.373 119.452 379.93 121.001 379.393 123.106C378.673 125.923 373.85 133.327 373.85 133.327C370.587 124.975 369.154 108.691 360.718 107.141C360.72 107.121 357.797 106.857 356.893 111.897Z" fill="#FF9B7D"/>
<path d="M335.537 88.7524C335.977 89.915 336.219 90.9852 337.004 91.9855C337.685 92.8495 338.577 93.5428 339.588 93.9804C341.006 94.5953 342.684 94.614 343.819 95.7812C344.94 96.9364 345.246 98.6393 345.162 100.191C345.061 101.978 344.496 103.705 344.199 105.46C343.943 106.985 343.801 108.538 343.947 110.083C344.145 112.149 344.877 114.197 346.291 115.749C347.898 117.514 350.082 118.011 352.349 118.393C355.125 118.863 357.515 119.923 360.093 121.004C362.66 122.081 365.316 122.625 368.102 122.361C372.534 121.939 377.281 119.728 378.535 115.109C379.651 110.983 377.404 106.623 373.456 105.043C371.414 104.226 369.187 104.091 367.097 103.446C364.42 102.619 363.075 100.85 362.187 98.2735C361.515 96.3271 360.911 94.362 359.197 93.0679C357.407 91.714 355.107 91.2717 353.3 89.9421C351.268 88.4491 350.494 85.9774 349.373 83.8332C348.33 81.8392 346.904 80.3369 344.819 79.4253C341.078 77.7887 334.96 77.0114 332.413 81.0106C330.379 85.356 334.785 86.7565 335.537 88.7524Z" fill="#402013"/>
<path d="M348.246 155.819C348.003 150.687 347.839 145.553 347.747 140.415C347.742 140.186 348.099 140.186 348.103 140.415C348.195 145.553 348.362 150.687 348.604 155.819C348.615 156.048 348.258 156.048 348.246 155.819Z" fill="#FFAD12"/>
<path d="M350.865 146.828C351.306 142.511 351.745 138.192 352.186 133.872C352.209 133.647 352.566 133.643 352.543 133.872C352.102 138.192 351.662 142.511 351.222 146.828C351.197 147.056 350.841 147.058 350.865 146.828Z" fill="#FFAD12"/>
<path d="M373.838 133.862C372.983 134.937 372.271 136.164 372.031 137.533C371.993 137.757 371.637 137.715 371.677 137.489C371.927 136.059 372.655 134.774 373.55 133.651C373.693 133.47 373.98 133.681 373.838 133.862Z" fill="#ED704C"/>
<path d="M154.638 195.737C155.306 191.919 150.351 190.366 147.643 189.377C143.074 187.706 138.341 186.545 133.775 184.863C126.008 182.004 121.835 177.684 117.905 176.354C114.851 175.319 111.312 175.3 110.594 178.815C109.046 186.398 118.049 191.808 123.748 194.491C130.841 197.829 138.733 199.215 146.524 199.501C149.458 199.607 153.984 199.475 154.638 195.737Z" fill="#ED874C"/>
<path d="M154.613 205.17C155.877 204.371 156.593 202.969 156.175 201.494C155.72 199.881 154.242 198.776 152.843 198.004C151.006 196.991 148.994 196.249 147.043 195.486C139.001 192.335 130.645 189.983 122.812 186.303C119.096 184.555 115.479 182.146 111.439 181.204C109.801 180.822 107.249 180.988 106.391 182.508C104.833 185.264 107.439 188.852 108.729 190.012C110.186 191.321 111.806 192.431 113.462 193.47C116.964 195.671 120.643 197.598 124.431 199.254C128.577 201.067 132.867 202.552 137.247 203.7C139.477 204.281 141.73 204.775 144.002 205.174C145.924 205.514 147.893 205.879 149.853 205.802C151.46 205.956 153.191 206.066 154.613 205.17Z" fill="#CF361F"/>
<path d="M150.163 205.626C150.315 205.54 150.395 205.382 150.402 205.199C150.421 203.533 150.262 201.899 149.925 200.341C149.663 199.129 149.337 197.623 148.443 196.541C147.719 195.664 146.723 195.316 145.642 195.564C144.326 195.864 143.178 197.008 142.847 198.347C142.805 198.52 142.771 198.733 142.734 198.96C142.589 199.854 142.408 200.966 141.512 201.065C140.515 201.173 139.86 200.259 139.562 198.348C139.468 197.734 139.398 197.101 139.332 196.492C139.305 196.257 139.28 196.023 139.253 195.788L139.22 195.494C139.144 194.82 139.068 194.123 138.827 193.482C138.399 192.344 137.214 191.332 135.854 191.697C134.743 191.992 133.864 192.937 133.381 194.353C133.264 194.701 133.168 195.059 133.075 195.405C132.978 195.763 132.878 196.138 132.754 196.492C132.547 197.087 132.227 197.758 131.577 197.676C131.19 197.625 130.859 197.259 130.594 196.586C130.37 196.023 130.297 195.386 130.226 194.775C130.212 194.667 130.2 194.562 130.187 194.457C130.028 193.175 129.824 191.819 129.254 190.568C128.85 189.681 128.127 188.565 126.972 188.274C125.581 187.922 124.576 188.846 124.101 189.431C123.724 189.893 123.451 190.419 123.257 190.823C123.186 190.971 123.121 191.121 123.06 191.27C122.915 191.607 122.769 191.955 122.543 192.251C122.261 192.621 121.923 192.785 121.537 192.741C120.878 192.666 120.249 192.003 119.97 191.385C119.577 190.513 119.48 189.533 119.386 188.579C119.255 187.255 119.12 185.883 118.185 184.795C117.319 183.786 115.895 183.432 114.551 183.896C113.416 184.29 112.428 185.185 111.615 186.559C111.28 187.128 110.99 187.737 110.709 188.324C110.677 188.391 110.661 188.46 110.655 188.521C110.648 188.617 110.674 188.711 110.729 188.791C110.836 188.947 111.05 189.04 111.261 189.023C111.471 189.006 111.643 188.888 111.733 188.699C112.274 187.561 112.835 186.388 113.808 185.568C114.782 184.746 116.271 184.418 117.233 185.368C117.978 186.109 118.168 187.259 118.285 188.28C118.308 188.472 118.328 188.666 118.349 188.86C118.446 189.792 118.547 190.758 118.907 191.668C119.291 192.631 120.155 193.708 121.441 193.84C122.547 193.953 123.407 193.246 124.067 191.676C124.433 190.8 124.917 189.854 125.715 189.444C126.635 188.97 127.473 189.643 127.951 190.429C128.482 191.304 128.809 192.355 129.013 193.838C129.046 194.076 129.072 194.319 129.1 194.565C129.229 195.71 129.364 196.894 130.047 197.849C130.422 198.374 130.976 198.699 131.569 198.744C132.123 198.788 132.654 198.58 133.065 198.161C133.702 197.51 133.932 196.583 134.153 195.683C134.278 195.177 134.396 194.698 134.581 194.266C134.834 193.681 135.375 192.992 136.019 192.773C136.357 192.658 136.687 192.687 136.998 192.861C137.619 193.207 137.868 193.916 137.968 194.45C138.092 195.113 138.166 195.797 138.235 196.456L138.28 196.853C138.298 197.016 138.314 197.182 138.329 197.355C138.446 198.506 138.577 199.812 139.216 200.818C139.639 201.485 140.304 201.969 140.995 202.113C141.548 202.228 142.089 202.121 142.559 201.803C143.385 201.243 143.568 200.283 143.745 199.352C143.773 199.199 143.803 199.048 143.836 198.9C144.036 197.954 144.681 196.851 145.883 196.591C147.223 196.305 147.95 197.627 148.267 198.442C148.725 199.628 149.025 201.009 149.213 202.787C149.289 203.535 149.324 204.302 149.315 205.136C149.313 205.338 149.407 205.51 149.576 205.612C149.755 205.717 149.99 205.724 150.163 205.626Z" fill="#FFAD12"/>
<path d="M150.726 209.083C151.393 205.269 146.438 203.714 143.728 202.724C139.161 201.055 134.427 199.894 129.862 198.214C122.094 195.354 117.921 191.035 113.991 189.705C110.935 188.67 107.398 188.653 106.678 192.168C105.131 199.752 114.135 205.158 119.836 207.843C126.929 211.179 134.822 212.566 142.612 212.849C145.547 212.957 150.072 212.82 150.726 209.083Z" fill="#ED874C"/>
<path d="M108.954 193.623C109.123 195.366 110.086 196.841 111.226 198.12C112.501 199.549 113.958 200.835 115.49 201.978C118.614 204.309 122.168 206.026 125.928 207.049C126.211 207.125 126.363 206.697 126.08 206.618C122.518 205.651 119.154 204.061 116.16 201.902C114.66 200.822 113.255 199.606 111.98 198.264C110.718 196.933 109.584 195.41 109.402 193.532C109.371 193.24 108.925 193.333 108.954 193.623Z" fill="#CF6223"/>
<path d="M127.999 207.578C128.778 207.784 129.568 207.939 130.366 208.043C130.489 208.06 130.601 207.947 130.609 207.83C130.618 207.701 130.52 207.604 130.397 207.588C129.639 207.488 128.889 207.342 128.15 207.149C128.032 207.117 127.903 207.164 127.859 207.288C127.82 207.396 127.879 207.546 127.999 207.578Z" fill="#CF6223"/>
<path d="M145.996 171.03C136.71 171.03 129.18 178.559 129.18 187.845C129.18 197.133 136.71 204.662 145.996 204.662C155.284 204.662 162.813 197.133 162.813 187.845C162.813 178.559 155.283 171.03 145.996 171.03ZM145.996 194.081C142.553 194.081 139.762 191.289 139.762 187.845C139.762 184.404 142.553 181.612 145.996 181.612C149.44 181.612 152.23 184.403 152.23 187.845C152.229 191.289 149.44 194.081 145.996 194.081Z" fill="#622F2A"/>
<path d="M161.54 184.525C161.565 183.555 161.355 182.611 160.8 181.804C160.327 181.109 159.637 180.614 158.993 180.094C158.373 179.593 157.814 179.04 157.417 178.342C156.994 177.597 156.635 176.818 156.207 176.073C155.318 174.525 154.201 173.137 152.438 172.589C150.789 172.077 148.874 172.163 147.395 173.112C146.151 173.912 145.074 174.997 143.63 175.446C141.71 176.044 139.843 175.137 137.91 175.329C136.387 175.477 134.76 176.907 134.245 178.348C133.918 179.26 133.741 180.23 133.485 181.161C133.318 181.772 133.115 182.369 132.852 182.948C132.587 183.528 132.224 184.031 131.859 184.535C131.39 185.178 131.022 185.9 130.848 186.678C130.846 186.684 130.845 186.689 130.844 186.691C130.503 188.224 130.615 189.921 131.364 191.321C132.18 192.848 133.857 193.633 134.664 195.159C135.461 196.663 135.828 198.42 136.965 199.729C137.563 200.419 138.353 200.999 139.244 201.235C140.023 201.44 140.834 201.358 141.619 201.241C142.479 201.107 143.334 200.953 144.205 200.924C145.129 200.893 146.038 201.116 146.909 201.404C148.599 201.963 150.21 202.671 152.032 202.38C152.801 202.256 153.553 201.986 154.186 201.526C154.906 200.999 155.302 200.247 155.788 199.522C156.269 198.803 156.797 198.113 157.395 197.487C158.035 196.814 158.747 196.235 159.325 195.504C160.533 193.972 161.154 192.205 161.088 190.251C161.055 189.276 160.958 188.307 161.115 187.337C161.266 186.398 161.515 185.483 161.54 184.525ZM147.053 193.992C142.787 194.694 139.15 191.056 139.849 186.79C140.274 184.206 142.358 182.121 144.94 181.698C149.208 180.997 152.844 184.634 152.145 188.902C151.721 191.486 149.637 193.571 147.053 193.992Z" fill="#FF999D"/>
<path d="M148.192 175.403C148.04 175.874 147.89 176.343 147.74 176.814C147.717 176.88 147.696 176.949 147.674 177.014C147.625 177.169 147.731 177.357 147.889 177.39C148.056 177.432 148.213 177.344 148.266 177.178C148.417 176.709 148.569 176.237 148.719 175.769C148.74 175.699 148.762 175.632 148.784 175.563C148.832 175.41 148.727 175.224 148.569 175.186C148.402 175.15 148.244 175.238 148.192 175.403Z" fill="#FFDEC9"/>
<path d="M156.121 184.324C156.324 184.776 156.527 185.228 156.729 185.678C156.758 185.741 156.788 185.807 156.817 185.872C156.883 186.017 157.107 186.065 157.236 185.982C157.389 185.882 157.416 185.718 157.347 185.56C157.143 185.11 156.941 184.659 156.738 184.208C156.71 184.145 156.68 184.079 156.651 184.015C156.586 183.869 156.361 183.822 156.231 183.905C156.079 184.004 156.05 184.169 156.121 184.324Z" fill="#FFDEC9"/>
<path d="M152.386 181.727C151.944 181.507 151.502 181.285 151.059 181.062C150.997 181.031 150.933 181 150.871 180.968C150.729 180.898 150.532 180.923 150.451 181.076C150.376 181.218 150.409 181.421 150.561 181.497C151.002 181.719 151.444 181.942 151.888 182.162C151.95 182.192 152.012 182.225 152.076 182.257C152.219 182.327 152.415 182.301 152.495 182.146C152.568 182.008 152.538 181.804 152.386 181.727Z" fill="#FFDEC9"/>
<path d="M138.568 178.688C138.273 178.289 137.978 177.893 137.683 177.495C137.642 177.438 137.599 177.383 137.558 177.326C137.508 177.259 137.458 177.21 137.375 177.186C137.301 177.165 137.203 177.174 137.139 177.216C137.011 177.3 136.926 177.5 137.029 177.637C137.324 178.035 137.62 178.433 137.915 178.828C137.956 178.884 137.998 178.94 138.038 178.995C138.09 179.064 138.14 179.116 138.222 179.137C138.297 179.156 138.394 179.148 138.459 179.106C138.585 179.024 138.671 178.824 138.568 178.688Z" fill="#FFDEC9"/>
<path d="M143.639 179.194C143.155 179.296 142.672 179.4 142.188 179.503C142.119 179.516 142.05 179.529 141.982 179.546C141.824 179.58 141.718 179.772 141.766 179.923C141.821 180.089 141.976 180.173 142.144 180.137C142.628 180.034 143.111 179.931 143.595 179.83C143.664 179.814 143.732 179.802 143.802 179.785C143.958 179.751 144.066 179.56 144.016 179.409C143.962 179.24 143.807 179.161 143.639 179.194Z" fill="#FFDEC9"/>
<path d="M155.038 189.587C154.887 190.058 154.737 190.527 154.585 190.999C154.564 191.065 154.542 191.135 154.52 191.201C154.471 191.354 154.578 191.543 154.735 191.58C154.903 191.618 155.06 191.528 155.113 191.365C155.264 190.896 155.414 190.424 155.565 189.953C155.587 189.886 155.609 189.82 155.63 189.752C155.679 189.598 155.572 189.409 155.416 189.373C155.248 189.337 155.091 189.424 155.038 189.587Z" fill="#FFDEC9"/>
<path d="M136.558 183.249C136.407 183.718 136.256 184.189 136.105 184.659C136.083 184.726 136.062 184.795 136.041 184.861C135.991 185.014 136.097 185.203 136.254 185.239C136.422 185.278 136.58 185.187 136.632 185.026C136.783 184.555 136.935 184.083 137.085 183.614C137.106 183.547 137.128 183.478 137.15 183.412C137.199 183.257 137.092 183.069 136.935 183.035C136.767 182.995 136.61 183.085 136.558 183.249Z" fill="#FFDEC9"/>
<path d="M154.468 195.165C153.974 195.162 153.481 195.16 152.987 195.156C152.916 195.156 152.845 195.156 152.773 195.156C152.614 195.156 152.459 195.297 152.467 195.463C152.474 195.63 152.603 195.767 152.773 195.77C153.268 195.772 153.761 195.774 154.254 195.776C154.325 195.777 154.396 195.778 154.468 195.778C154.628 195.778 154.782 195.639 154.775 195.473C154.767 195.306 154.639 195.166 154.468 195.165Z" fill="#FFDEC9"/>
<path d="M148.551 198.309C148.868 198.69 149.183 199.069 149.499 199.452C149.543 199.504 149.588 199.559 149.634 199.613C149.735 199.738 149.963 199.729 150.067 199.613C150.189 199.482 150.177 199.31 150.067 199.178C149.752 198.799 149.437 198.417 149.12 198.037C149.076 197.983 149.03 197.928 148.986 197.874C148.883 197.75 148.657 197.76 148.551 197.874C148.432 198.006 148.442 198.176 148.551 198.309Z" fill="#FFDEC9"/>
<path d="M134.958 189.626C134.487 189.479 134.017 189.332 133.545 189.184C133.477 189.163 133.409 189.142 133.342 189.122C133.19 189.073 133 189.177 132.964 189.336C132.927 189.503 133.016 189.66 133.179 189.712C133.651 189.859 134.122 190.006 134.593 190.154C134.661 190.174 134.729 190.197 134.797 190.216C134.95 190.265 135.138 190.16 135.173 190.003C135.211 189.836 135.122 189.677 134.958 189.626Z" fill="#FFDEC9"/>
<path d="M138.716 192.535C138.853 193.009 138.988 193.482 139.125 193.956C139.145 194.025 139.165 194.093 139.184 194.163C139.229 194.315 139.402 194.429 139.561 194.377C139.719 194.328 139.824 194.163 139.776 193.999C139.639 193.526 139.503 193.051 139.366 192.579C139.346 192.512 139.326 192.442 139.306 192.373C139.262 192.219 139.088 192.106 138.929 192.158C138.773 192.208 138.666 192.369 138.716 192.535Z" fill="#FFDEC9"/>
<path d="M142.664 197.059C142.222 197.281 141.78 197.505 141.337 197.73C141.275 197.76 141.214 197.791 141.152 197.825C141.009 197.896 140.956 198.11 141.042 198.245C141.137 198.391 141.309 198.432 141.463 198.354C141.905 198.129 142.346 197.907 142.788 197.682C142.849 197.651 142.912 197.621 142.973 197.588C143.116 197.515 143.169 197.302 143.084 197.169C142.99 197.023 142.817 196.981 142.664 197.059Z" fill="#FFDEC9"/>
<path d="M153.37 177.178C153.526 177.647 153.682 178.119 153.837 178.587C153.86 178.653 153.882 178.72 153.904 178.785C153.955 178.938 154.119 179.052 154.282 179C154.434 178.95 154.551 178.785 154.497 178.622C154.34 178.154 154.184 177.683 154.028 177.214C154.006 177.15 153.984 177.081 153.961 177.013C153.911 176.862 153.748 176.747 153.583 176.8C153.432 176.852 153.315 177.014 153.37 177.178Z" fill="#FFDEC9"/>
<path d="M198.131 203.638C191.126 204.376 175.105 205.586 157.824 203.65C155.729 203.417 154.149 201.634 154.149 199.525V199.51C154.149 197.217 156.01 195.356 158.301 195.356H197.69C199.982 195.356 201.842 197.217 201.842 199.51C201.842 201.635 200.243 203.417 198.131 203.638Z" fill="#ED874C"/>
<path d="M195.949 196.742C189.703 197.365 175.418 198.395 160.009 196.753C158.141 196.553 156.734 195.038 156.734 193.249V193.237C156.734 191.292 158.39 189.714 160.434 189.714H195.558C197.604 189.714 199.26 191.292 199.26 193.237C199.26 195.042 197.834 196.553 195.949 196.742Z" fill="#622F2A"/>
<path d="M168.047 185.251H163.176C161.297 185.251 159.464 185.782 157.867 186.774C156.88 187.388 155.869 187.949 154.741 188.234C154.578 188.277 154.54 188.45 154.598 188.587C155.694 191.098 158.336 192.424 160.965 191.895C160.186 193.705 160.689 195.686 161.239 197.529C161.277 197.652 161.401 197.725 161.52 197.7C165.89 196.832 170.139 194.161 171.415 189.662C171.421 189.645 171.424 189.63 171.427 189.614C172.041 187.414 170.327 185.251 168.047 185.251Z" fill="#9FBD51"/>
<path d="M196.816 186.59C194.428 185.577 191.576 185.277 189 185.325C187.635 185.35 184.576 186.942 182.258 188.282C180.434 189.336 179.319 191.29 179.319 193.396C180.967 195.054 183.229 196.058 185.594 196.045C186.013 196.043 186.722 196.102 187.073 195.799C187.526 195.403 187.65 194.377 187.802 193.837C188.167 192.535 188.381 191.193 188.154 189.876C191.015 192.848 195.42 193.463 199.366 192.537C199.464 192.514 199.545 192.409 199.541 192.307C199.46 190.012 199.169 187.588 196.816 186.59Z" fill="#9FBD51"/>
<path d="M159.097 186.964C163.173 190.819 167.289 194.63 171.459 198.384C171.538 198.454 171.656 198.478 171.749 198.419C178.643 194.21 185.766 190.39 193.08 186.964H159.097Z" fill="#FFC557"/>
<path d="M177.817 166.9C159.271 166.9 153.972 180.693 153.972 182.8V182.814C153.972 185.106 155.829 186.964 158.123 186.964H197.511C199.806 186.964 201.663 185.106 201.663 182.814C201.663 180.687 195.4 166.9 177.817 166.9Z" fill="#ED874C"/>
<path d="M169.4 168.992C169.272 169.388 169.145 169.785 169.02 170.18C169.001 170.235 168.983 170.294 168.963 170.35C168.925 170.48 169.011 170.639 169.145 170.668C169.285 170.701 169.418 170.625 169.463 170.488C169.59 170.094 169.717 169.697 169.842 169.301C169.863 169.246 169.88 169.187 169.897 169.13C169.94 169.001 169.85 168.841 169.718 168.813C169.579 168.78 169.443 168.855 169.4 168.992Z" fill="#FFDEC9"/>
<path d="M187.327 174.149C186.969 173.941 186.608 173.73 186.249 173.518C186.199 173.487 186.149 173.458 186.096 173.426C185.98 173.359 185.807 173.398 185.744 173.522C185.678 173.646 185.714 173.801 185.836 173.874C186.196 174.085 186.555 174.295 186.915 174.507C186.962 174.538 187.015 174.568 187.067 174.599C187.183 174.666 187.354 174.628 187.417 174.503C187.485 174.381 187.452 174.224 187.327 174.149Z" fill="#FFDEC9"/>
<path d="M184.548 168.318C184.131 168.318 183.712 168.321 183.299 168.323C183.242 168.323 183.18 168.323 183.12 168.323C182.986 168.327 182.858 168.443 182.863 168.582C182.87 168.722 182.974 168.841 183.12 168.839C183.537 168.839 183.951 168.837 184.367 168.834C184.428 168.831 184.486 168.831 184.548 168.831C184.683 168.831 184.812 168.716 184.807 168.574C184.799 168.436 184.692 168.315 184.548 168.318Z" fill="#FFDEC9"/>
<path d="M165.353 172.097C164.947 172.188 164.54 172.276 164.134 172.366C164.077 172.378 164.018 172.389 163.959 172.404C163.826 172.432 163.737 172.593 163.78 172.721C163.823 172.86 163.954 172.933 164.095 172.902C164.504 172.813 164.91 172.723 165.317 172.634C165.376 172.621 165.433 172.608 165.489 172.596C165.622 172.565 165.71 172.406 165.67 172.279C165.627 172.139 165.496 172.066 165.353 172.097Z" fill="#FFDEC9"/>
<path d="M179.686 172.008C179.501 171.635 179.32 171.263 179.138 170.887C179.113 170.834 179.084 170.781 179.06 170.726C178.998 170.604 178.816 170.562 178.706 170.633C178.581 170.714 178.548 170.857 178.613 170.989C178.795 171.361 178.977 171.733 179.158 172.109C179.185 172.163 179.212 172.216 179.239 172.269C179.298 172.391 179.481 172.432 179.591 172.361C179.716 172.281 179.749 172.138 179.686 172.008Z" fill="#FFDEC9"/>
<path d="M189.825 171.127C189.438 170.976 189.052 170.826 188.665 170.676C188.608 170.653 188.55 170.628 188.495 170.608C188.37 170.558 188.208 170.664 188.18 170.79C188.144 170.938 188.223 171.055 188.358 171.107C188.745 171.258 189.134 171.41 189.52 171.562C189.576 171.583 189.63 171.604 189.688 171.625C189.811 171.676 189.977 171.573 190.004 171.447C190.04 171.296 189.96 171.184 189.825 171.127Z" fill="#FFDEC9"/>
<path d="M176.896 167.679C176.479 167.679 176.065 167.679 175.645 167.679C175.588 167.679 175.529 167.679 175.469 167.679C175.335 167.679 175.207 167.798 175.209 167.936C175.219 168.077 175.326 168.196 175.469 168.196C175.886 168.196 176.304 168.196 176.717 168.196C176.777 168.196 176.837 168.196 176.896 168.196C177.031 168.196 177.161 168.077 177.156 167.936C177.146 167.798 177.04 167.679 176.896 167.679Z" fill="#FFDEC9"/>
<path d="M174.674 172.64C174.315 172.428 173.958 172.216 173.601 172.002C173.55 171.972 173.5 171.943 173.451 171.911C173.332 171.844 173.159 171.883 173.094 172.005C173.029 172.13 173.064 172.284 173.186 172.358C173.544 172.57 173.905 172.783 174.262 172.996C174.314 173.027 174.364 173.055 174.414 173.088C174.531 173.155 174.704 173.117 174.769 172.995C174.833 172.87 174.798 172.714 174.674 172.64Z" fill="#FFDEC9"/>
<path d="M154.519 181.805C157.377 182.89 160.532 182.973 163.55 183.147C166.835 183.338 170.116 183.419 173.407 183.402C173.654 183.402 173.654 183.014 173.407 183.015C170.205 183.034 167.004 182.955 163.807 182.773C160.739 182.6 157.528 182.535 154.624 181.433C154.39 181.341 154.288 181.718 154.519 181.805Z" fill="#CF6223"/>
<path d="M178.079 183.427C179.021 183.466 179.963 183.479 180.909 183.463C181.156 183.46 181.159 183.073 180.909 183.076C179.963 183.09 179.022 183.078 178.079 183.039C177.829 183.032 177.829 183.418 178.079 183.427Z" fill="#CF6223"/>
<path d="M205.808 200.592H102.588V272.73H205.808V200.592Z" fill="#FFC557"/>
<path d="M205.808 200.592H166.105V272.73H205.808V200.592Z" fill="#FFAD12"/>
<path d="M102.588 200.592L92.407 227.063H155.925L166.105 200.592H102.588Z" fill="#FFD179"/>
<path d="M166.105 200.592L176.285 227.063H215.989L205.808 200.592H166.105Z" fill="#FFD179"/>
<path d="M163.692 255.937C165.515 249.66 167.336 243.384 169.157 237.107C169.922 234.475 170.567 231.768 171.46 229.176C172.634 225.769 176.878 224.411 179.84 222.834C180.591 222.434 179.924 221.293 179.173 221.693C176.239 223.253 171.92 224.643 170.502 227.917C169.484 230.266 168.987 232.951 168.276 235.401C166.323 242.129 164.37 248.857 162.418 255.584C162.181 256.403 163.455 256.752 163.692 255.937Z" fill="#402013"/>
<path d="M174.714 277.583L177.041 243.003H154.584L156.911 277.583C156.959 278.299 157.554 278.856 158.272 278.856H173.352C174.07 278.856 174.665 278.299 174.714 277.583Z" fill="#CF361F"/>
<path d="M176.955 243.003H154.669C154.249 243.003 153.908 242.662 153.908 242.241V241.279C153.908 240.858 154.249 240.518 154.669 240.518H176.955C177.375 240.518 177.716 240.858 177.716 241.279V242.241C177.716 242.662 177.375 243.003 176.955 243.003Z" fill="#FFDEC9"/>
<path d="M175.916 240.517H155.972L156.535 238.441C156.601 238.198 156.821 238.03 157.072 238.03H174.593C174.825 238.03 175.033 238.173 175.115 238.39L175.916 240.517Z" fill="#FFDEC9"/>
<path d="M176.133 256.498L176.508 250.92H155.116L155.491 256.498H176.133Z" fill="#FFDEC9"/>
<path d="M175.94 259.363L176.031 258.005H155.592L155.684 259.363H175.94Z" fill="#FFDEC9"/>
<path d="M166.106 92.4353C150.791 92.4353 138.33 104.895 138.33 120.21C138.33 135.525 150.792 147.984 166.106 147.984C181.421 147.984 193.88 135.524 193.88 120.21C193.88 104.894 181.421 92.4353 166.106 92.4353Z" fill="#577D35"/>
<path d="M190.3 120.209C190.3 133.57 179.468 144.401 166.107 144.401C152.745 144.401 141.915 133.571 141.915 120.209C141.915 106.849 152.746 96.0176 166.107 96.0176C179.468 96.0176 190.3 106.849 190.3 120.209Z" fill="white"/>
<path d="M166.106 145.119C152.37 145.119 141.197 133.943 141.197 120.209C141.197 106.474 152.37 95.3 166.106 95.3C179.839 95.3 191.014 106.475 191.014 120.209C191.014 133.944 179.84 145.119 166.106 145.119ZM166.106 96.7323C153.162 96.7323 142.631 107.265 142.631 120.209C142.631 133.154 153.162 143.683 166.106 143.683C179.05 143.683 189.583 133.154 189.583 120.209C189.583 107.265 179.05 96.7323 166.106 96.7323Z" fill="#37591A"/>
<path d="M166.24 103.811C166.323 103.811 166.393 103.741 166.393 103.657L166.388 100.841C166.388 100.755 166.32 100.688 166.235 100.688H165.907C165.823 100.688 165.753 100.757 165.753 100.841L165.757 103.657C165.757 103.741 165.825 103.811 165.911 103.811L166.24 103.811Z" fill="#402013"/>
<path d="M166.301 136.608H165.975C165.889 136.608 165.82 136.677 165.82 136.761L165.824 139.579C165.824 139.663 165.893 139.732 165.978 139.732H166.307C166.393 139.732 166.463 139.661 166.463 139.577L166.457 136.761C166.456 136.677 166.387 136.608 166.301 136.608Z" fill="#402013"/>
<path d="M149.709 120.405L149.708 120.075C149.708 120.035 149.691 119.996 149.662 119.967C149.631 119.938 149.593 119.918 149.555 119.924L146.739 119.928C146.653 119.928 146.583 119.999 146.583 120.082L146.586 120.411C146.586 120.495 146.653 120.564 146.739 120.564L149.555 120.559C149.64 120.559 149.709 120.49 149.709 120.405Z" fill="#402013"/>
<path d="M185.626 120.009C185.626 119.925 185.561 119.856 185.475 119.856L182.657 119.86C182.571 119.86 182.504 119.929 182.504 120.015V120.341C182.504 120.427 182.573 120.496 182.657 120.496L185.478 120.492C185.561 120.49 185.629 120.42 185.629 120.337L185.626 120.009Z" fill="#402013"/>
<path d="M157.446 134.159C157.374 134.115 157.278 134.139 157.234 134.21L155.777 136.621C155.732 136.694 155.757 136.789 155.829 136.833L156.111 137.005C156.134 137.019 156.162 137.023 156.189 137.023C156.203 137.023 156.215 137.023 156.227 137.021C156.268 137.01 156.302 136.985 156.323 136.95L157.778 134.543C157.8 134.509 157.807 134.467 157.797 134.425C157.786 134.386 157.762 134.352 157.725 134.329L157.446 134.159Z" fill="#402013"/>
<path d="M174.689 106.26C174.713 106.276 174.741 106.283 174.768 106.283C174.781 106.283 174.794 106.281 174.803 106.278C174.845 106.269 174.88 106.244 174.901 106.207L176.359 103.797C176.402 103.725 176.379 103.631 176.307 103.586L176.026 103.417C175.99 103.395 175.947 103.391 175.908 103.4C175.868 103.409 175.836 103.434 175.814 103.469L174.357 105.879C174.338 105.914 174.329 105.956 174.34 105.996C174.35 106.035 174.374 106.069 174.41 106.09L174.689 106.26Z" fill="#402013"/>
<path d="M151.804 128.3L151.802 128.299C151.757 128.226 151.663 128.199 151.594 128.244L149.158 129.657C149.123 129.678 149.096 129.712 149.085 129.751C149.073 129.792 149.08 129.833 149.099 129.868L149.266 130.152C149.294 130.204 149.344 130.229 149.397 130.229C149.424 130.229 149.452 130.222 149.476 130.206L151.909 128.796C151.982 128.752 152.01 128.661 151.968 128.584L151.804 128.3Z" fill="#402013"/>
<path d="M180.426 112.19C180.439 112.194 180.451 112.196 180.465 112.196C180.491 112.196 180.519 112.19 180.542 112.176L182.979 110.762C183.015 110.74 183.039 110.708 183.051 110.667C183.06 110.626 183.055 110.585 183.034 110.552L182.867 110.27C182.85 110.233 182.817 110.208 182.776 110.196C182.736 110.185 182.693 110.193 182.662 110.213L180.224 111.628C180.15 111.67 180.126 111.766 180.168 111.836L180.332 112.118C180.351 112.154 180.385 112.18 180.426 112.19Z" fill="#402013"/>
<path d="M157.276 106.31C157.289 106.314 157.301 106.315 157.313 106.315C157.342 106.315 157.37 106.308 157.393 106.292L157.673 106.123C157.746 106.079 157.767 105.983 157.724 105.911L156.258 103.507C156.237 103.472 156.203 103.447 156.162 103.436C156.119 103.424 156.079 103.433 156.046 103.455L155.766 103.625C155.694 103.671 155.673 103.764 155.715 103.837L157.18 106.242C157.202 106.277 157.237 106.302 157.276 106.31Z" fill="#402013"/>
<path d="M174.953 134.177C174.933 134.143 174.899 134.118 174.86 134.108C174.819 134.097 174.778 134.106 174.744 134.127L174.462 134.297C174.391 134.343 174.369 134.437 174.412 134.509L175.879 136.912C175.901 136.949 175.934 136.974 175.974 136.985C175.987 136.985 176 136.989 176.012 136.989C176.04 136.989 176.066 136.979 176.091 136.965L176.37 136.794C176.405 136.774 176.431 136.741 176.439 136.7C176.449 136.658 176.444 136.618 176.42 136.582L174.953 134.177Z" fill="#402013"/>
<path d="M151.561 112.231C151.587 112.243 151.611 112.252 151.639 112.252C151.654 112.252 151.668 112.249 151.681 112.245C151.719 112.235 151.751 112.21 151.773 112.173L151.938 111.889C151.978 111.816 151.954 111.723 151.88 111.678L149.436 110.275C149.364 110.234 149.271 110.256 149.228 110.332L149.063 110.617C149.022 110.691 149.048 110.783 149.12 110.825L151.561 112.231Z" fill="#402013"/>
<path d="M180.573 128.188C180.54 128.169 180.496 128.162 180.456 128.173C180.415 128.184 180.384 128.21 180.362 128.246L180.199 128.531C180.157 128.605 180.184 128.697 180.255 128.74L182.696 130.145C182.721 130.158 182.747 130.163 182.774 130.163C182.826 130.163 182.878 130.137 182.905 130.089L183.071 129.802C183.091 129.768 183.095 129.726 183.085 129.688C183.074 129.646 183.05 129.611 183.015 129.593L180.573 128.188Z" fill="#402013"/>
<path d="M167.049 118.717H165.166L165.998 106.952C166.008 106.819 166.205 106.819 166.213 106.952L167.049 118.717Z" fill="#402013"/>
<path d="M166.558 121.152V119.269L175.375 120.152C175.445 120.159 175.445 120.259 175.375 120.266L166.558 121.152Z" fill="#402013"/>
<path d="M167.956 120.209C167.956 121.231 167.126 122.059 166.106 122.059C165.085 122.059 164.257 121.231 164.257 120.209C164.257 119.188 165.085 118.36 166.106 118.36C167.126 118.36 167.956 119.188 167.956 120.209Z" fill="#577D35"/>
<path d="M150.119 276.555L151.546 251.105H134.238L135.665 276.555C135.693 277.051 136.105 277.442 136.603 277.442H149.179C149.678 277.443 150.089 277.052 150.119 276.555Z" fill="#FFDEC9"/>
<path d="M151.932 251.105H133.852C133.649 251.105 133.485 250.942 133.485 250.74V248.678C133.485 248.475 133.649 248.312 133.852 248.312H151.933C152.135 248.312 152.299 248.476 152.299 248.678V250.74C152.299 250.942 152.134 251.105 151.932 251.105Z" fill="#622F2A"/>
<path d="M151.546 248.312H134.238L135.018 246.575C135.065 246.471 135.17 246.404 135.284 246.404H150.499C150.612 246.404 150.717 246.471 150.764 246.575L151.546 248.312Z" fill="#622F2A"/>
<path d="M151.329 267.677L151.925 257.047H133.857L134.453 267.677H151.329Z" fill="#FF999D"/>
<path d="M135.411 257.922C135.411 260.514 135.411 263.107 135.411 265.701C135.411 266.07 135.411 266.438 135.411 266.805C135.411 266.958 135.65 266.958 135.65 266.805C135.65 264.211 135.65 261.618 135.65 259.026C135.65 258.658 135.65 258.291 135.65 257.922C135.651 257.767 135.411 257.767 135.411 257.922Z" fill="#FF6F75"/>
<path d="M137.994 257.922C137.994 260.514 137.994 263.107 137.994 265.701C137.994 266.07 137.994 266.438 137.994 266.805C137.994 266.958 138.232 266.958 138.232 266.805C138.232 264.211 138.232 261.618 138.232 259.026C138.232 258.658 138.232 258.291 138.232 257.922C138.232 257.767 137.994 257.767 137.994 257.922Z" fill="#FF6F75"/>
<path d="M140.514 257.922C140.514 260.514 140.514 263.107 140.514 265.701C140.514 266.07 140.514 266.438 140.514 266.805C140.514 266.958 140.752 266.958 140.752 266.805C140.752 264.211 140.752 261.618 140.752 259.026C140.752 258.658 140.752 258.291 140.752 257.922C140.753 257.767 140.514 257.767 140.514 257.922Z" fill="#FF6F75"/>
<path d="M143.097 257.922C143.097 260.514 143.097 263.107 143.097 265.701C143.097 266.07 143.097 266.438 143.097 266.805C143.097 266.958 143.335 266.958 143.335 266.805C143.335 264.211 143.335 261.618 143.335 259.026C143.335 258.658 143.335 258.291 143.335 257.922C143.335 257.767 143.097 257.767 143.097 257.922Z" fill="#FF6F75"/>
<path d="M145.554 257.922C145.554 260.514 145.554 263.107 145.554 265.701C145.554 266.07 145.554 266.438 145.554 266.805C145.554 266.958 145.793 266.958 145.793 266.805C145.793 264.211 145.793 261.618 145.793 259.026C145.793 258.658 145.793 258.291 145.793 257.922C145.792 257.767 145.554 257.767 145.554 257.922Z" fill="#FF6F75"/>
<path d="M148.136 257.922C148.136 260.514 148.136 263.107 148.136 265.701C148.136 266.07 148.136 266.438 148.136 266.805C148.136 266.958 148.375 266.958 148.375 266.805C148.375 264.211 148.375 261.618 148.375 259.026C148.375 258.658 148.375 258.291 148.375 257.922C148.375 257.767 148.136 257.767 148.136 257.922Z" fill="#FF6F75"/>
<path d="M150.545 257.922C150.545 260.514 150.545 263.107 150.545 265.701C150.545 266.07 150.545 266.438 150.545 266.805C150.545 266.958 150.784 266.958 150.784 266.805C150.784 264.211 150.784 261.618 150.784 259.026C150.784 258.658 150.784 258.291 150.784 257.922C150.784 257.767 150.545 257.767 150.545 257.922Z" fill="#FF6F75"/>
<path d="M148.163 246.403H143.946V245.98C143.946 245.685 144.185 245.446 144.479 245.446H147.628C147.923 245.446 148.163 245.685 148.163 245.98V246.403Z" fill="#402013"/>
<path d="M134.382 248.431C136.309 248.431 138.235 248.431 140.161 248.431C143.208 248.431 146.252 248.431 149.296 248.431C150.001 248.431 150.706 248.431 151.41 248.431C151.563 248.431 151.564 248.192 151.41 248.192C149.484 248.192 147.558 248.192 145.633 248.192C142.586 248.192 139.541 248.192 136.496 248.192C135.791 248.192 135.088 248.192 134.382 248.192C134.229 248.192 134.229 248.431 134.382 248.431Z" fill="#402013"/>
<defs>
<linearGradient id="paint0_linear_1829_1188" x1="218.5" y1="302" x2="218.5" y2="0" gradientUnits="userSpaceOnUse">
<stop stop-color="#FDECC6" stop-opacity="0"/>
<stop offset="1" stop-color="#FDECC6"/>
</linearGradient>
</defs>
</svg>
