<svg width="61" height="61" viewBox="0 0 61 61" fill="none" xmlns="http://www.w3.org/2000/svg">
<g clip-path="url(#clip0_578_1859)">
<path d="M54.5664 0.714844H6.43359C3.27522 0.714844 0.714844 3.27522 0.714844 6.43359V54.5664C0.714844 57.7248 3.27522 60.2852 6.43359 60.2852H54.5664C57.7248 60.2852 60.2852 57.7248 60.2852 54.5664V6.43359C60.2852 3.27522 57.7248 0.714844 54.5664 0.714844Z" fill="#E0F7FA"/>
<path d="M60.2852 6.43359V13.582H0.714844V6.43359C0.714844 4.91689 1.31735 3.4623 2.38983 2.38983C3.4623 1.31735 4.91689 0.714844 6.43359 0.714844H54.5664C56.0831 0.714844 57.5377 1.31735 58.6102 2.38983C59.6826 3.4623 60.2852 4.91689 60.2852 6.43359Z" fill="#455A64"/>
<path d="M7.38672 8.81641C8.17631 8.81641 8.81641 8.17631 8.81641 7.38672C8.81641 6.59712 8.17631 5.95703 7.38672 5.95703C6.59712 5.95703 5.95703 6.59712 5.95703 7.38672C5.95703 8.17631 6.59712 8.81641 7.38672 8.81641Z" fill="#E91E63"/>
<path d="M22.6367 8.81641C23.4263 8.81641 24.0664 8.17631 24.0664 7.38672C24.0664 6.59712 23.4263 5.95703 22.6367 5.95703C21.8471 5.95703 21.207 6.59712 21.207 7.38672C21.207 8.17631 21.8471 8.81641 22.6367 8.81641Z" fill="#CDDC39"/>
<path d="M15.0117 8.81641C15.8013 8.81641 16.4414 8.17631 16.4414 7.38672C16.4414 6.59712 15.8013 5.95703 15.0117 5.95703C14.2221 5.95703 13.582 6.59712 13.582 7.38672C13.582 8.17631 14.2221 8.81641 15.0117 8.81641Z" fill="#FFC107"/>
<path d="M53.1367 5.95703H45.5117C45.1325 5.95703 44.7689 6.10766 44.5008 6.37578C44.2327 6.6439 44.082 7.00754 44.082 7.38672C44.082 7.7659 44.2327 8.12954 44.5008 8.39766C44.7689 8.66578 45.1325 8.81641 45.5117 8.81641H53.1367C53.5159 8.81641 53.8795 8.66578 54.1477 8.39766C54.4158 8.12954 54.5664 7.7659 54.5664 7.38672C54.5664 7.00754 54.4158 6.6439 54.1477 6.37578C53.8795 6.10766 53.5159 5.95703 53.1367 5.95703Z" fill="white"/>
<path d="M47.248 23.9983C48.4324 23.9983 49.3926 23.0382 49.3926 21.8538C49.3926 20.6694 48.4324 19.7092 47.248 19.7092C46.0637 19.7092 45.1035 20.6694 45.1035 21.8538C45.1035 23.0382 46.0637 23.9983 47.248 23.9983Z" fill="#455A64"/>
<path d="M13.752 23.9983C14.9363 23.9983 15.8965 23.0382 15.8965 21.8538C15.8965 20.6694 14.9363 19.7092 13.752 19.7092C12.5676 19.7092 11.6074 20.6694 11.6074 21.8538C11.6074 23.0382 12.5676 23.9983 13.752 23.9983Z" fill="#455A64"/>
<path d="M31.9297 19.7092H29.0703C28.6755 19.7092 28.3555 20.0293 28.3555 20.4241V23.2834C28.3555 23.6782 28.6755 23.9983 29.0703 23.9983H31.9297C32.3245 23.9983 32.6445 23.6782 32.6445 23.2834V20.4241C32.6445 20.0293 32.3245 19.7092 31.9297 19.7092Z" fill="#455A64"/>
<path d="M44.4902 30.0234H41.6309C41.2361 30.0234 40.916 30.3435 40.916 30.7383V33.5977C40.916 33.9925 41.2361 34.3125 41.6309 34.3125H44.4902C44.885 34.3125 45.2051 33.9925 45.2051 33.5977V30.7383C45.2051 30.3435 44.885 30.0234 44.4902 30.0234Z" fill="#455A64"/>
<path d="M19.3691 30.0234H16.5098C16.115 30.0234 15.7949 30.3435 15.7949 30.7383V33.5977C15.7949 33.9925 16.115 34.3125 16.5098 34.3125H19.3691C19.7639 34.3125 20.084 33.9925 20.084 33.5977V30.7383C20.084 30.3435 19.7639 30.0234 19.3691 30.0234Z" fill="#455A64"/>
<path d="M24.1895 51.0708H36.8112V54.677H24.1895V51.0708Z" fill="#455A64"/>
<path d="M28.9752 27.3709C26.575 31.291 23.7876 34.9605 20.6549 38.3242C20.3825 38.6194 20.216 38.9966 20.1815 39.3968C20.147 39.7969 20.2465 40.1971 20.4643 40.5345C23.2369 44.8269 24.1872 47.641 24.1872 51.0708H36.8108C36.8108 47.6396 37.7611 44.8279 40.5337 40.5345C40.7519 40.1974 40.8517 39.7973 40.8177 39.3972C40.7836 38.9971 40.6175 38.6196 40.3455 38.3242C37.2128 34.9605 34.4254 31.291 32.0252 27.3709C31.8631 27.1128 31.6382 26.9001 31.3714 26.7527C31.1047 26.6053 30.805 26.528 30.5002 26.528C30.1955 26.528 29.8957 26.6053 29.629 26.7527C29.3623 26.9001 29.1373 27.1128 28.9752 27.3709Z" fill="#EEEEEE"/>
<path d="M24.1895 54.677H36.8112V60.2852H24.1895V54.677Z" fill="#FFB300"/>
<path d="M30.5 43.2571C31.6618 43.2571 32.6036 42.3154 32.6036 41.1536C32.6036 39.9918 31.6618 39.05 30.5 39.05C29.3383 39.05 28.3965 39.9918 28.3965 41.1536C28.3965 42.3154 29.3383 43.2571 30.5 43.2571Z" fill="#E0E0E0"/>
<path d="M54.5664 0H6.43359C4.72788 0.00189209 3.09257 0.680323 1.88645 1.88645C0.680323 3.09257 0.00189209 4.72788 0 6.43359L0 54.5664C0.00189209 56.2721 0.680323 57.9074 1.88645 59.1136C3.09257 60.3197 4.72788 60.9981 6.43359 61H54.5664C56.2721 60.9981 57.9074 60.3197 59.1136 59.1136C60.3197 57.9074 60.9981 56.2721 61 54.5664V6.43359C60.9981 4.72788 60.3197 3.09257 59.1136 1.88645C57.9074 0.680323 56.2721 0.00189209 54.5664 0ZM36.0958 59.5703H24.9042V55.3913H36.0958V59.5703ZM36.0958 53.9616H24.9042V51.7857H36.0958V53.9616ZM24.8894 50.356C24.7574 47.0391 23.6785 44.1897 21.0669 40.1466C20.9342 39.9436 20.873 39.7021 20.893 39.4604C20.913 39.2187 21.0131 38.9906 21.1775 38.8122C24.342 35.4165 27.1571 31.7111 29.5802 27.7521C29.637 27.6634 29.7059 27.5832 29.7852 27.5139V38.4271C29.1225 38.6009 28.5458 39.0101 28.1629 39.5781C27.78 40.1462 27.6171 40.8343 27.7047 41.5137C27.7923 42.1932 28.1244 42.8175 28.6389 43.2699C29.1533 43.7222 29.8149 43.9718 30.5 43.9718C31.1851 43.9718 31.8467 43.7222 32.3611 43.2699C32.8756 42.8175 33.2077 42.1932 33.2953 41.5137C33.3829 40.8343 33.22 40.1462 32.8371 39.5781C32.4542 39.0101 31.8775 38.6009 31.2148 38.4271V27.5139C31.2942 27.5831 31.3632 27.6633 31.4198 27.7521C33.8429 31.7108 36.658 35.4159 39.8225 38.8113C39.9868 38.9897 40.0868 39.2178 40.1069 39.4595C40.1269 39.7011 40.0657 39.9426 39.9331 40.1456C37.3215 44.1888 36.2426 47.0386 36.1106 50.355L24.8894 50.356ZM30.5 39.7649C30.7747 39.7649 31.0432 39.8463 31.2715 39.9989C31.4999 40.1515 31.6779 40.3684 31.783 40.6221C31.8881 40.8759 31.9156 41.1551 31.862 41.4245C31.8084 41.6939 31.6762 41.9413 31.482 42.1355C31.2877 42.3297 31.0403 42.462 30.7709 42.5156C30.5015 42.5692 30.2223 42.5417 29.9686 42.4366C29.7148 42.3314 29.4979 42.1534 29.3453 41.9251C29.1927 41.6967 29.1113 41.4282 29.1113 41.1536C29.1118 40.7854 29.2583 40.4325 29.5186 40.1722C29.7789 39.9118 30.1318 39.7654 30.5 39.7649ZM59.5703 54.5664C59.5688 55.8931 59.0411 57.1649 58.103 58.103C57.1649 59.0411 55.8931 59.5688 54.5664 59.5703H37.5255V51.0708C37.5255 47.703 38.47 45.0471 41.1335 40.9224C41.4396 40.4522 41.5797 39.8932 41.5317 39.3342C41.4837 38.7752 41.2503 38.2483 40.8686 37.8372C37.7657 34.5064 35.0052 30.8723 32.6288 26.9896C32.3995 26.6333 32.0845 26.3403 31.7125 26.1374C31.3406 25.9344 30.9237 25.8281 30.5 25.8281C30.0763 25.8281 29.6594 25.9344 29.2875 26.1374C28.9155 26.3403 28.6005 26.6333 28.3712 26.9896C25.9951 30.8731 23.2346 34.5078 20.1314 37.8391C19.7498 38.2503 19.5165 38.7771 19.4684 39.3361C19.4203 39.895 19.5602 40.454 19.866 40.9243C22.53 45.049 23.4745 47.7049 23.4745 51.0751V59.5703H6.43359C5.10694 59.5688 3.83506 59.0411 2.89697 58.103C1.95888 57.1649 1.4312 55.8931 1.42969 54.5664V14.2969H59.5703V54.5664ZM59.5703 12.8672H1.42969V6.43359C1.4312 5.10694 1.95888 3.83506 2.89697 2.89697C3.83506 1.95888 5.10694 1.4312 6.43359 1.42969H54.5664C55.8931 1.4312 57.1649 1.95888 58.103 2.89697C59.0411 3.83506 59.5688 5.10694 59.5703 6.43359V12.8672Z" fill="black"/>
<path d="M7.38672 5.24219C6.96257 5.24219 6.54795 5.36796 6.19528 5.60361C5.84262 5.83925 5.56775 6.17418 5.40543 6.56604C5.24312 6.9579 5.20065 7.3891 5.2834 7.8051C5.36614 8.22109 5.57039 8.60321 5.87031 8.90313C6.17023 9.20305 6.55234 9.4073 6.96834 9.49004C7.38434 9.57279 7.81553 9.53032 8.2074 9.36801C8.59926 9.20569 8.93419 8.93082 9.16983 8.57816C9.40548 8.22549 9.53125 7.81087 9.53125 7.38672C9.53062 6.81815 9.30448 6.27304 8.90244 5.871C8.5004 5.46896 7.95529 5.24282 7.38672 5.24219ZM7.38672 8.10156C7.24534 8.10156 7.10713 8.05964 6.98957 7.98109C6.87202 7.90254 6.7804 7.7909 6.72629 7.66028C6.67219 7.52966 6.65803 7.38593 6.68561 7.24726C6.71319 7.10859 6.78128 6.98122 6.88125 6.88125C6.98122 6.78128 7.10859 6.71319 7.24726 6.68561C7.38593 6.65803 7.52966 6.67218 7.66028 6.72629C7.7909 6.78039 7.90254 6.87202 7.98109 6.98957C8.05964 7.10713 8.10156 7.24534 8.10156 7.38672C8.10156 7.57631 8.02625 7.75813 7.89219 7.89219C7.75813 8.02625 7.57631 8.10156 7.38672 8.10156Z" fill="black"/>
<path d="M22.6367 5.24219C22.2126 5.24219 21.7979 5.36796 21.4453 5.60361C21.0926 5.83925 20.8177 6.17418 20.6554 6.56604C20.4931 6.9579 20.4506 7.3891 20.5334 7.8051C20.6161 8.22109 20.8204 8.60321 21.1203 8.90313C21.4202 9.20305 21.8023 9.4073 22.2183 9.49004C22.6343 9.57279 23.0655 9.53032 23.4574 9.36801C23.8493 9.20569 24.1842 8.93082 24.4198 8.57816C24.6555 8.22549 24.7813 7.81087 24.7813 7.38672C24.7806 6.81815 24.5545 6.27304 24.1524 5.871C23.7504 5.46896 23.2053 5.24282 22.6367 5.24219ZM22.6367 8.10156C22.4953 8.10156 22.3571 8.05964 22.2396 7.98109C22.122 7.90254 22.0304 7.7909 21.9763 7.66028C21.9222 7.52966 21.908 7.38593 21.9356 7.24726C21.9632 7.10859 22.0313 6.98122 22.1312 6.88125C22.2312 6.78128 22.3586 6.71319 22.4973 6.68561C22.6359 6.65803 22.7797 6.67218 22.9103 6.72629C23.0409 6.78039 23.1525 6.87202 23.2311 6.98957C23.3096 7.10713 23.3516 7.24534 23.3516 7.38672C23.3516 7.57631 23.2763 7.75813 23.1422 7.89219C23.0081 8.02625 22.8263 8.10156 22.6367 8.10156Z" fill="black"/>
<path d="M15.0117 5.24219C14.5876 5.24219 14.1729 5.36796 13.8203 5.60361C13.4676 5.83925 13.1927 6.17418 13.0304 6.56604C12.8681 6.9579 12.8256 7.3891 12.9084 7.8051C12.9911 8.22109 13.1954 8.60321 13.4953 8.90313C13.7952 9.20305 14.1773 9.4073 14.5933 9.49004C15.0093 9.57279 15.4405 9.53032 15.8324 9.36801C16.2243 9.20569 16.5592 8.93082 16.7948 8.57816C17.0305 8.22549 17.1563 7.81087 17.1563 7.38672C17.1556 6.81815 16.9295 6.27304 16.5274 5.871C16.1254 5.46896 15.5803 5.24282 15.0117 5.24219ZM15.0117 8.10156C14.8703 8.10156 14.7321 8.05964 14.6146 7.98109C14.497 7.90254 14.4054 7.7909 14.3513 7.66028C14.2972 7.52966 14.283 7.38593 14.3106 7.24726C14.3382 7.10859 14.4063 6.98122 14.5062 6.88125C14.6062 6.78128 14.7336 6.71319 14.8723 6.68561C15.0109 6.65803 15.1547 6.67218 15.2853 6.72629C15.4159 6.78039 15.5275 6.87202 15.6061 6.98957C15.6846 7.10713 15.7266 7.24534 15.7266 7.38672C15.7266 7.57631 15.6513 7.75813 15.5172 7.89219C15.3831 8.02625 15.2013 8.10156 15.0117 8.10156Z" fill="black"/>
<path d="M53.1367 5.24219H45.5117C44.943 5.24219 44.3975 5.46813 43.9953 5.87031C43.5931 6.27248 43.3672 6.81795 43.3672 7.38672C43.3672 7.95548 43.5931 8.50095 43.9953 8.90313C44.3975 9.30531 44.943 9.53125 45.5117 9.53125H53.1367C53.7055 9.53125 54.251 9.30531 54.6531 8.90313C55.0553 8.50095 55.2812 7.95548 55.2812 7.38672C55.2812 6.81795 55.0553 6.27248 54.6531 5.87031C54.251 5.46813 53.7055 5.24219 53.1367 5.24219ZM53.1367 8.10156H45.5117C45.3221 8.10156 45.1403 8.02625 45.0062 7.89219C44.8722 7.75813 44.7969 7.57631 44.7969 7.38672C44.7969 7.19713 44.8722 7.01531 45.0062 6.88125C45.1403 6.74719 45.3221 6.67188 45.5117 6.67188H53.1367C53.3263 6.67188 53.5081 6.74719 53.6422 6.88125C53.7762 7.01531 53.8516 7.19713 53.8516 7.38672C53.8516 7.57631 53.7762 7.75813 53.6422 7.89219C53.5081 8.02625 53.3263 8.10156 53.1367 8.10156Z" fill="black"/>
<path d="M13.7521 24.7131C14.3851 24.7116 14.9998 24.5004 15.5 24.1123C16.0001 23.7243 16.3575 23.1814 16.5162 22.5685H24.5963C21.799 24.0215 19.5966 26.4053 18.369 29.3085H16.5105C16.1313 29.3085 15.7676 29.4592 15.4995 29.7273C15.2314 29.9954 15.0808 30.3591 15.0808 30.7382V33.5976C15.0808 33.9768 15.2314 34.3404 15.4995 34.6086C15.7676 34.8767 16.1313 35.0273 16.5105 35.0273H19.3698C19.749 35.0273 20.1127 34.8767 20.3808 34.6086C20.6489 34.3404 20.7995 33.9768 20.7995 33.5976V30.7382C20.7989 30.4512 20.7118 30.171 20.5497 29.9341C20.3877 29.6972 20.158 29.5146 19.8907 29.4101C20.6308 27.8298 21.7083 26.4309 23.0472 25.3118C24.3861 24.1927 25.954 23.3806 27.6406 22.9326V23.2834C27.6406 23.6625 27.7912 24.0262 28.0593 24.2943C28.3274 24.5624 28.6911 24.7131 29.0703 24.7131H31.9296C32.3088 24.7131 32.6725 24.5624 32.9406 24.2943C33.2087 24.0262 33.3593 23.6625 33.3593 23.2834V22.9326C35.046 23.3804 36.6141 24.1925 37.9532 25.3116C39.2923 26.4307 40.3699 27.8297 41.1101 29.4101C40.8428 29.5146 40.6132 29.6972 40.4511 29.9341C40.289 30.171 40.202 30.4512 40.2013 30.7382V33.5976C40.2013 33.9768 40.352 34.3404 40.6201 34.6086C40.8882 34.8767 41.2518 35.0273 41.631 35.0273H44.4904C44.8696 35.0273 45.2332 34.8767 45.5013 34.6086C45.7694 34.3404 45.9201 33.9768 45.9201 33.5976V30.7382C45.9201 30.3591 45.7694 29.9954 45.5013 29.7273C45.2332 29.4592 44.8696 29.3085 44.4904 29.3085H42.6318C41.404 26.4055 39.2012 24.0222 36.4036 22.57H44.4828C44.6568 23.2438 45.0705 23.8311 45.6465 24.2217C46.2225 24.6123 46.9212 24.7794 47.6116 24.6917C48.302 24.604 48.9368 24.2675 49.3968 23.7453C49.8569 23.2231 50.1107 22.5511 50.1107 21.8551C50.1107 21.1592 49.8569 20.4871 49.3968 19.9649C48.9368 19.4427 48.302 19.1062 47.6116 19.0185C46.9212 18.9308 46.2225 19.0979 45.6465 19.4885C45.0705 19.8791 44.6568 20.4664 44.4828 21.1403H33.3593V20.4254C33.3593 20.0462 33.2087 19.6826 32.9406 19.4145C32.6725 19.1464 32.3088 18.9957 31.9296 18.9957H29.0703C28.6911 18.9957 28.3274 19.1464 28.0593 19.4145C27.7912 19.6826 27.6406 20.0462 27.6406 20.4254V21.1403H16.5176C16.3839 20.6223 16.1075 20.1522 15.7199 19.7834C15.3322 19.4147 14.8489 19.1621 14.3249 19.0543C13.8009 18.9466 13.2571 18.988 12.7555 19.1739C12.2538 19.3598 11.8144 19.6827 11.4871 20.1059C11.1598 20.5291 10.9578 21.0356 10.9041 21.5679C10.8504 22.1002 10.9471 22.6369 11.1831 23.117C11.4192 23.5971 11.7853 24.0013 12.2397 24.2837C12.6941 24.5661 13.2185 24.7153 13.7535 24.7145L13.7521 24.7131ZM16.5095 33.5976V30.7382H19.3689V33.5976H16.5095ZM41.631 30.7382H44.4904V33.5976H41.631V30.7382ZM47.2478 20.424C47.5305 20.424 47.807 20.5078 48.0421 20.6649C48.2772 20.822 48.4604 21.0453 48.5686 21.3066C48.6769 21.5678 48.7052 21.8553 48.65 22.1326C48.5948 22.4099 48.4587 22.6647 48.2587 22.8646C48.0588 23.0646 47.804 23.2007 47.5267 23.2559C47.2494 23.3111 46.9619 23.2827 46.7007 23.1745C46.4394 23.0663 46.2161 22.8831 46.059 22.648C45.9019 22.4129 45.8181 22.1364 45.8181 21.8537C45.8181 21.4745 45.9687 21.1109 46.2368 20.8427C46.505 20.5746 46.8686 20.424 47.2478 20.424ZM29.0703 20.424H31.9296V23.2834H29.0703V20.424ZM13.7521 20.424C14.0349 20.424 14.3113 20.5078 14.5464 20.6649C14.7815 20.822 14.9648 21.0453 15.073 21.3066C15.1812 21.5678 15.2095 21.8553 15.1543 22.1326C15.0992 22.4099 14.963 22.6647 14.7631 22.8646C14.5631 23.0646 14.3084 23.2007 14.031 23.2559C13.7537 23.3111 13.4662 23.2827 13.205 23.1745C12.9438 23.0663 12.7205 22.8831 12.5634 22.648C12.4063 22.4129 12.3224 22.1364 12.3224 21.8537C12.3224 21.4745 12.473 21.1109 12.7412 20.8427C13.0093 20.5746 13.3729 20.424 13.7521 20.424Z" fill="black"/>
</g>
<defs>
<clipPath id="clip0_578_1859">
<rect width="61" height="61" fill="white"/>
</clipPath>
</defs>
</svg>
