<svg width="61" height="61" viewBox="0 0 61 61" fill="none" xmlns="http://www.w3.org/2000/svg">
<path fill-rule="evenodd" clip-rule="evenodd" d="M31.4004 14.8414C31.4004 11.6741 31.4004 6.04704 31.4004 2.87982C31.4004 1.83555 32.2521 0.983887 33.2963 0.983887H47.1823C48.2265 0.983887 49.0781 1.83555 49.0781 2.87982V14.8414C49.0781 15.8857 48.2264 16.7372 47.1823 16.7372H45.5779V20.5992L41.868 16.7372H33.2962C32.2521 16.7372 31.4004 15.8856 31.4004 14.8414Z" fill="#FFE177"/>
<path fill-rule="evenodd" clip-rule="evenodd" d="M45.953 0.984009H47.1828C48.2271 0.984009 49.0786 1.83568 49.0786 2.87994V14.8415C49.0786 15.8858 48.227 16.7374 47.1828 16.7374H45.953C46.9972 16.7374 47.8488 15.8857 47.8488 14.8415C47.8488 11.6742 47.8488 6.04716 47.8488 2.87994C47.8488 1.83568 46.9971 0.984009 45.953 0.984009ZM45.5785 16.7374V20.5993L44.3486 19.319V16.7374H45.5785Z" fill="#FFD064"/>
<path fill-rule="evenodd" clip-rule="evenodd" d="M40.2395 13.1049C40.7504 13.1049 41.1646 13.5191 41.1646 14.03C41.1646 14.5409 40.7504 14.9551 40.2395 14.9551C39.7286 14.9551 39.3144 14.5409 39.3144 14.03C39.3143 13.5191 39.7285 13.1049 40.2395 13.1049ZM41.1126 11.9002C41.102 12.4414 40.6546 12.8716 40.1133 12.861C39.5721 12.8505 39.1419 12.403 39.1525 11.8618L39.1637 11.3765C39.1788 10.7179 39.3663 10.1101 39.6986 9.59555C40.0328 9.0784 40.5101 8.65632 41.103 8.37222C41.4475 8.20718 41.7381 7.94657 41.9424 7.62435C42.1368 7.31787 42.2486 6.95458 42.2486 6.56533C42.2486 6.01387 42.0223 5.51172 41.6577 5.1472C41.2931 4.78255 40.791 4.55625 40.2395 4.55625C39.6882 4.55625 39.1859 4.78267 38.8214 5.1472C38.4567 5.51185 38.2304 6.01387 38.2304 6.56533C38.2304 7.10868 37.7899 7.54921 37.2466 7.54921C36.7032 7.54921 36.2627 7.10868 36.2627 6.56533C36.2627 5.47065 36.7097 4.47619 37.4301 3.75587C38.1504 3.03555 39.1448 2.5885 40.2395 2.5885C41.3342 2.5885 42.3287 3.03567 43.049 3.75587C43.7693 4.47607 44.2164 5.47065 44.2164 6.56533C44.2164 7.33841 43.9923 8.06316 43.6027 8.67747C43.2065 9.30199 42.6342 9.81176 41.9485 10.1401C41.6938 10.2621 41.4908 10.4402 41.3513 10.6562C41.21 10.875 41.1303 11.1338 41.1238 11.4147L41.1126 11.9002Z" fill="#FE646F"/>
<path fill-rule="evenodd" clip-rule="evenodd" d="M40.2391 13.1049C40.75 13.1049 41.1642 13.5191 41.1642 14.03C41.1642 14.5409 40.75 14.9551 40.2391 14.9551C40.162 14.9551 40.0871 14.9456 40.0154 14.9278C40.4183 14.8277 40.7169 14.4638 40.7169 14.03C40.7169 13.5962 40.4183 13.2322 40.0154 13.1322C40.087 13.1144 40.1619 13.1049 40.2391 13.1049ZM41.1122 11.9002C41.1016 12.4414 40.6542 12.8716 40.1129 12.861C40.0427 12.8597 39.9745 12.8508 39.9087 12.8356C40.3348 12.736 40.6559 12.3578 40.6649 11.9003L40.6761 11.415C40.6825 11.1341 40.7623 10.8751 40.9036 10.6564C41.0431 10.4405 41.2461 10.2624 41.5008 10.1404C42.1863 9.81188 42.7588 9.30223 43.155 8.67771C43.5446 8.06341 43.7687 7.33878 43.7687 6.56558C43.7687 5.47089 43.3216 4.47644 42.6013 3.75611C41.9304 3.08523 41.0217 2.65134 40.0155 2.59502C40.0896 2.59084 40.1641 2.58875 40.2392 2.58875C41.3339 2.58875 42.3284 3.03592 43.0487 3.75611C43.769 4.47631 44.2161 5.47089 44.2161 6.56558C44.2161 7.33866 43.992 8.06341 43.6024 8.67771C43.2063 9.30223 42.6339 9.812 41.9482 10.1404C41.6935 10.2624 41.4905 10.4405 41.351 10.6564C41.2097 10.8752 41.13 11.1341 41.1235 11.415L41.1122 11.9002ZM40.0154 4.5688C39.9419 4.56056 39.8673 4.55625 39.7917 4.55625C39.2404 4.55625 38.7381 4.78267 38.3736 5.14719C38.0089 5.51184 37.7826 6.01387 37.7826 6.56533C37.7826 7.03181 37.4581 7.42229 37.0225 7.52363C37.0943 7.54035 37.1692 7.54921 37.2462 7.54921C37.7895 7.54921 38.23 7.10868 38.23 6.56533C38.23 6.01387 38.4563 5.51172 38.821 5.14719C39.1356 4.8326 39.5526 4.62094 40.0154 4.5688Z" fill="#FD4755"/>
<path fill-rule="evenodd" clip-rule="evenodd" d="M28.5576 14.8415C28.5576 11.6742 28.5576 6.04716 28.5576 2.87994C28.5576 1.83568 27.7059 0.984009 26.6616 0.984009C22.033 0.984009 17.4043 0.984009 12.7757 0.984009C11.7314 0.984009 10.8799 1.83568 10.8799 2.87994V14.8415C10.8799 15.8858 11.7316 16.7374 12.7757 16.7374H14.38V20.5993L18.09 16.7374H26.6616C27.7059 16.7374 28.5576 15.8857 28.5576 14.8415Z" fill="#6CF5C2"/>
<path fill-rule="evenodd" clip-rule="evenodd" d="M14.0055 0.984009H12.7757C11.7314 0.984009 10.8799 1.83568 10.8799 2.87994V14.8415C10.8799 15.8858 11.7316 16.7374 12.7757 16.7374H14.0055C12.9613 16.7374 12.1097 15.8857 12.1097 14.8415C12.1097 11.6742 12.1097 6.04716 12.1097 2.87994C12.1097 1.83568 12.9614 0.984009 14.0055 0.984009ZM14.38 16.7374V20.5993L15.6099 19.319V16.7374H14.38Z" fill="#00E499"/>
<path fill-rule="evenodd" clip-rule="evenodd" d="M13.2076 45.8861H10.5674V59.4015C10.5674 59.7402 10.8436 60.0164 11.1823 60.0164H12.5928C12.9315 60.0164 13.2077 59.7402 13.2077 59.4015L13.2076 45.8861Z" fill="#8D9CA8"/>
<path fill-rule="evenodd" clip-rule="evenodd" d="M11.7972 45.8861H10.5674V59.4015C10.5674 59.7402 10.8436 60.0164 11.1823 60.0164H12.4122C12.0735 60.0164 11.7972 59.7402 11.7972 59.4015V45.8861Z" fill="#8192A5"/>
<path fill-rule="evenodd" clip-rule="evenodd" d="M48.4079 45.8861H49.8184C50.1571 45.8861 50.4333 46.1623 50.4333 46.501V59.4015C50.4333 59.7402 50.1571 60.0164 49.8184 60.0164H48.4079C48.0692 60.0164 47.793 59.7402 47.793 59.4015V46.5009C47.793 46.1622 48.0692 45.8861 48.4079 45.8861Z" fill="#8D9CA8"/>
<path fill-rule="evenodd" clip-rule="evenodd" d="M48.5879 45.8861H49.8177C50.1564 45.8861 50.4327 46.1623 50.4327 46.501V59.4015C50.4327 59.7402 50.1564 60.0164 49.8177 60.0164H48.5879C48.9266 60.0164 49.2028 59.7402 49.2028 59.4015V46.5009C49.2028 46.1622 48.9266 45.8861 48.5879 45.8861Z" fill="#8192A5"/>
<path fill-rule="evenodd" clip-rule="evenodd" d="M49.9229 39.8812C49.9229 40.3963 49.7114 40.8654 49.3703 41.2064C49.0293 41.5473 48.5602 41.759 48.0452 41.759H47.0132C42.5277 41.759 40.3799 44.8762 38.8763 49.8959L35.8447 60.0164H40.5148L43.4893 49.8959C43.7992 48.8414 44.3368 48.0181 45.3671 48.0181H48.0452C50.288 48.0181 52.3227 47.1047 53.7958 45.6319C55.2688 44.1588 56.1821 42.1241 56.1821 39.8812V28.8143C56.1821 27.0957 54.7804 25.6941 53.062 25.6941C51.3323 25.6941 49.9229 27.08 49.9229 28.8143V39.8812Z" fill="#8AC9FE"/>
<path fill-rule="evenodd" clip-rule="evenodd" d="M39.2852 60.0164H40.515L43.4895 49.8959C43.7994 48.8414 44.337 48.0181 45.3672 48.0181H44.1374C43.1071 48.0181 42.5696 48.8414 42.2597 49.8959L39.2852 60.0164ZM46.8155 48.0181H48.0453C50.2882 48.0181 52.3229 47.1047 53.796 45.6319C55.269 44.1588 56.1823 42.1241 56.1823 39.8812V28.8143C56.1823 27.0957 54.7806 25.6941 53.0621 25.6941C52.8505 25.6941 52.6436 25.715 52.4435 25.7546C53.871 26.0402 54.9523 27.3049 54.9523 28.8143V39.8812C54.9523 42.1241 54.039 44.1588 52.566 45.6319C51.093 47.1047 49.0584 48.0181 46.8155 48.0181Z" fill="#60B7FF"/>
<path fill-rule="evenodd" clip-rule="evenodd" d="M47.3161 35.8693C47.6873 35.8677 48.0629 35.7651 48.3984 35.5498L52.4367 32.944C53.368 32.3463 53.6383 31.1067 53.0406 30.1756C52.4429 29.2443 51.2033 28.974 50.2722 29.5717L46.7322 31.856H37.2919C36.1831 31.856 35.2842 32.7549 35.2842 33.8638C35.2842 34.9726 36.1831 35.8715 37.2919 35.8715L47.3161 35.8693Z" fill="#60B7FF"/>
<path fill-rule="evenodd" clip-rule="evenodd" d="M47.317 35.8692C47.6882 35.8676 48.0638 35.765 48.3993 35.5497L52.4376 32.9439C53.2199 32.4417 53.5357 31.4869 53.2624 30.6421C53.1252 31.0691 52.8445 31.4527 52.4376 31.7139L48.3993 34.3197C48.0638 34.535 47.6882 34.6377 47.317 34.6393L37.2928 34.6413C36.3985 34.6413 35.6408 34.0565 35.3812 33.2485C35.3189 33.4423 35.2852 33.6489 35.2852 33.8634C35.2852 34.9723 36.1841 35.8712 37.2929 35.8712L47.317 35.8692Z" fill="#41A8FC"/>
<path d="M53.0528 25.5071C55.2464 25.5071 57.0246 23.7288 57.0246 21.5353C57.0246 19.3417 55.2464 17.5635 53.0528 17.5635C50.8593 17.5635 49.0811 19.3417 49.0811 21.5353C49.0811 23.7288 50.8593 25.5071 53.0528 25.5071Z" fill="#F6DCCD"/>
<path fill-rule="evenodd" clip-rule="evenodd" d="M53.3854 17.5635C55.579 17.5635 57.3572 19.3417 57.3572 21.5353C57.3572 23.7288 55.579 25.5071 53.3854 25.5071C53.1762 25.5071 52.971 25.4908 52.7705 25.4596C54.672 25.164 56.1274 23.5196 56.1274 21.5353C56.1274 19.5509 54.6721 17.9065 52.7705 17.6109C52.971 17.5797 53.1762 17.5635 53.3854 17.5635Z" fill="#F1CBBC"/>
<path fill-rule="evenodd" clip-rule="evenodd" d="M11.0766 39.8812C11.0766 40.3963 11.2881 40.8654 11.6291 41.2064C11.9702 41.5473 12.4392 41.759 12.9543 41.759H13.9863C18.4717 41.759 20.6196 44.8762 22.1232 49.8959L25.1547 60.0164H20.4846L17.5101 49.8959C17.2002 48.8414 16.6626 48.0181 15.6324 48.0181H12.9543C10.7114 48.0181 8.67676 47.1047 7.20365 45.6319C5.73067 44.1588 4.81738 42.1241 4.81738 39.8812V28.8143C4.81738 27.0957 6.21904 25.6941 7.9375 25.6941C9.66716 25.6941 11.0766 27.08 11.0766 28.8143V39.8812Z" fill="#8AC9FE"/>
<path fill-rule="evenodd" clip-rule="evenodd" d="M21.7145 60.0164H20.4846L17.5101 49.8959C17.2002 48.8414 16.6626 48.0181 15.6324 48.0181H16.8622C17.8925 48.0181 18.4301 48.8414 18.74 49.8959L21.7145 60.0164ZM14.1841 48.0181H12.9543C10.7114 48.0181 8.67676 47.1047 7.20365 45.6319C5.73067 44.1588 4.81738 42.1241 4.81738 39.8812V28.8143C4.81738 27.0957 6.21904 25.6941 7.9375 25.6941C8.14916 25.6941 8.35602 25.715 8.55611 25.7546C7.12863 26.0402 6.04735 27.3049 6.04735 28.8143V39.8812C6.04735 42.1241 6.96064 44.1588 8.43362 45.6319C9.90661 47.1047 11.9413 48.0181 14.1841 48.0181Z" fill="#60B7FF"/>
<path fill-rule="evenodd" clip-rule="evenodd" d="M13.6837 35.8693C13.3126 35.8677 12.937 35.7651 12.6015 35.5498L8.56315 32.944C7.63191 32.3463 7.36159 31.1067 7.9593 30.1756C8.557 29.2443 9.79644 28.974 10.7277 29.5717L14.2677 31.856H23.708C24.8168 31.856 25.7157 32.7549 25.7157 33.8638C25.7157 34.9726 24.8168 35.8715 23.708 35.8715L13.6837 35.8693Z" fill="#60B7FF"/>
<path fill-rule="evenodd" clip-rule="evenodd" d="M13.6837 35.8692C13.3125 35.8676 12.9369 35.765 12.6014 35.5497L8.56312 32.9439C7.78082 32.4417 7.46499 31.4869 7.73826 30.6421C7.87552 31.0691 8.15617 31.4527 8.56312 31.7139L12.6014 34.3197C12.9369 34.535 13.3125 34.6377 13.6837 34.6393L23.7079 34.6413C24.6022 34.6413 25.3599 34.0565 25.6196 33.2485C25.682 33.4423 25.7157 33.6489 25.7157 33.8634C25.7157 34.9723 24.8168 35.8712 23.7079 35.8712L13.6837 35.8692Z" fill="#41A8FC"/>
<path d="M8.04719 25.5102C10.2408 25.4597 11.9782 23.6406 11.9278 21.447C11.8773 19.2535 10.0581 17.5162 7.86449 17.5666C5.67086 17.6171 3.93348 19.4362 3.98393 21.6297C4.03438 23.8233 5.85357 25.5606 8.04719 25.5102Z" fill="#F6DCCD"/>
<path fill-rule="evenodd" clip-rule="evenodd" d="M7.94695 17.5635C10.1405 17.5635 11.9187 19.3417 11.9187 21.5353C11.9187 23.7288 10.1405 25.5071 7.94695 25.5071C7.73776 25.5071 7.5325 25.4908 7.33203 25.4596C9.23362 25.164 10.6889 23.5196 10.6889 21.5353C10.6889 19.5509 9.23362 17.9065 7.33203 17.6109C7.5325 17.5797 7.73776 17.5635 7.94695 17.5635Z" fill="#F1CBBC"/>
<path fill-rule="evenodd" clip-rule="evenodd" d="M21.9854 35.8704H36.5557V60.0163H21.9854V35.8704Z" fill="#A79BA7"/>
<path fill-rule="evenodd" clip-rule="evenodd" d="M36.5557 35.8705H37.7855V60.0164H36.5557V35.8705Z" fill="#837683"/>
<path fill-rule="evenodd" clip-rule="evenodd" d="M17.7243 35.8705H43.2759C43.6146 35.8705 43.8909 36.1467 43.8909 36.4854V38.1131C43.8909 38.4518 43.6146 38.728 43.2759 38.728H17.7243C17.3856 38.728 17.1094 38.4518 17.1094 38.1131V36.4854C17.1095 36.1467 17.3856 35.8705 17.7243 35.8705Z" fill="#837683"/>
<path fill-rule="evenodd" clip-rule="evenodd" d="M43.8909 36.8832V38.113C43.8909 38.4517 43.6146 38.7279 43.2759 38.7279H17.7243C17.3856 38.7279 17.1094 38.4517 17.1094 38.113V36.8832C17.1094 37.2219 17.3856 37.4981 17.7243 37.4981H43.2759C43.6146 37.498 43.8909 37.2218 43.8909 36.8832Z" fill="#685E68"/>
<path fill-rule="evenodd" clip-rule="evenodd" d="M41.1167 14.201C41.1167 14.7429 40.6746 15.1845 40.1326 15.1845C39.591 15.1845 39.149 14.7429 39.149 14.201C39.149 13.6592 39.5911 13.2169 40.1326 13.2169C40.6746 13.2169 41.1167 13.6592 41.1167 14.201ZM36.263 6.56566C36.263 4.37284 38.0469 2.58883 40.2398 2.58883C42.4328 2.58883 44.2167 4.37296 44.2167 6.56566C44.2167 8.07935 43.3274 9.48433 41.9512 10.1436C41.4408 10.3879 41.1407 10.8528 41.1275 11.4184L41.1165 11.9034C41.104 12.4389 40.666 12.8649 40.1332 12.8649C40.1256 12.8649 40.1178 12.8649 40.1102 12.8643C39.567 12.8521 39.1367 12.4018 39.1491 11.8583L39.1601 11.3732C39.1904 10.0598 39.9158 8.9368 41.1007 8.36886C41.809 8.02966 42.2488 7.33849 42.2488 6.56566C42.2488 5.45769 41.3474 4.55646 40.2397 4.55646C39.1319 4.55646 38.2306 5.45769 38.2306 6.56566C38.2306 7.10863 37.7902 7.54916 37.2467 7.54916C36.7034 7.54916 36.263 7.10863 36.263 6.56566ZM32.3848 2.87993V14.8412C32.3848 15.3442 32.7941 15.7535 33.2967 15.7535H41.8686C42.1364 15.7535 42.3925 15.8623 42.578 16.0556L44.5948 18.1552V16.7376C44.5948 16.194 45.0351 15.7535 45.5787 15.7535H47.183C47.6859 15.7535 48.095 15.3442 48.095 14.8412V2.87993C48.095 2.37692 47.6859 1.96763 47.183 1.96763H33.2969C32.794 1.96763 32.3848 2.37692 32.3848 2.87993ZM33.2967 17.7211H41.4494L44.869 21.2811C45.058 21.4779 45.3158 21.5833 45.5788 21.5833C45.7023 21.5833 45.8269 21.5602 45.9458 21.5121C46.3185 21.3622 46.5625 21.001 46.5625 20.5992V17.721H47.1829C48.7708 17.721 50.0626 16.429 50.0626 14.841V2.87993C50.0626 1.29208 48.7708 0 47.1829 0H33.2967C31.7089 0 30.417 1.29208 30.417 2.87993V14.8412C30.417 16.429 31.7089 17.7211 33.2967 17.7211ZM14.3792 12.5732C14.3792 12.0302 14.8198 11.5897 15.3631 11.5897H24.0736C24.617 11.5897 25.0575 12.0302 25.0575 12.5732C25.0575 13.1173 24.617 13.5573 24.0736 13.5573H15.3631C14.8198 13.5573 14.3792 13.1173 14.3792 12.5732ZM14.3792 8.86092C14.3792 8.31733 14.8198 7.87679 15.3631 7.87679H24.0736C24.617 7.87679 25.0575 8.31733 25.0575 8.86092C25.0575 9.40389 24.617 9.84443 24.0736 9.84443H15.3631C14.8198 9.84443 14.3792 9.40389 14.3792 8.86092ZM14.3792 5.14801C14.3792 4.60442 14.8198 4.16389 15.3631 4.16389H24.0736C24.617 4.16389 25.0575 4.60442 25.0575 5.14801C25.0575 5.69099 24.617 6.13152 24.0736 6.13152H15.3631C14.8198 6.13152 14.3792 5.69099 14.3792 5.14801ZM11.8635 2.87993V14.8412C11.8635 15.3442 12.2725 15.7535 12.7754 15.7535H14.3797C14.9231 15.7535 15.3636 16.194 15.3636 16.7376V18.1552L17.3802 16.0556C17.5656 15.8623 17.8218 15.7535 18.0896 15.7535H26.6615C27.1643 15.7535 27.5734 15.3442 27.5734 14.8412V2.87993C27.5734 2.37692 27.1643 1.96763 26.6615 1.96763H12.7754C12.2725 1.96763 11.8635 2.37692 11.8635 2.87993ZM12.7754 17.7211H13.3959V20.5993C13.3959 21.001 13.6397 21.3623 14.0123 21.5122C14.1314 21.5603 14.256 21.5834 14.3795 21.5834C14.6422 21.5834 14.9 21.478 15.0892 21.2813L18.5087 17.7212H26.6613C28.2491 17.7212 29.541 16.4293 29.541 14.8413V2.87993C29.541 1.29208 28.2492 0 26.6613 0H12.7754C11.1875 0 9.89571 1.29208 9.89571 2.87993V14.8412C9.89571 16.429 11.1875 17.7211 12.7754 17.7211ZM49.4493 59.0325H48.7768V49.0024H49.4493V59.0325ZM42.5459 49.6183C43.1736 47.4834 44.4266 47.0341 45.3674 47.0341H48.0454C51.9897 47.0341 55.1986 43.8254 55.1986 39.8816V28.8147C55.1986 27.6367 54.2403 26.6781 53.0624 26.6781C52.0548 26.6781 51.2088 27.3681 50.9739 28.2961C52.0828 28.1549 53.2268 28.6434 53.8691 29.6442C54.7587 31.0306 54.3549 32.8824 52.9687 33.7722L50.9071 35.1024V39.8816C50.9071 41.4596 49.6234 42.7435 48.0454 42.7435H47.0136C43.4854 42.7435 41.4012 44.897 39.8192 50.1781L38.7692 53.6843V59.0325H39.7788L42.5459 49.6183ZM35.8453 59.0325H24.1989V39.712H36.8017V59.0325H35.8453ZM18.4545 49.6183C17.827 47.4834 16.5735 47.0341 15.6328 47.0341H12.9548C9.01059 47.0341 5.80168 43.8254 5.80168 39.8816V28.8147C5.80168 27.6367 6.75997 26.6781 7.93792 26.6781C8.94529 26.6781 9.7913 27.3681 10.0262 28.2954C8.91798 28.1547 7.77373 28.6434 7.13114 29.6442C6.24135 31.0306 6.64535 32.8824 8.02954 33.771L10.0932 35.1024V39.8816C10.0932 41.4596 11.3769 42.7435 12.955 42.7435H13.9868C17.515 42.7435 19.5994 44.897 21.1813 50.1781L22.2312 53.6843V59.0325H21.2214L18.4545 49.6183ZM11.5508 59.0325H12.2233V49.0024H11.5508V59.0325ZM7.94739 18.5477C9.59489 18.5477 10.9354 19.8877 10.9354 21.5352C10.9354 23.1832 9.59489 24.5234 7.94739 24.5234C6.29989 24.5234 4.95948 23.1833 4.95948 21.5352C4.95948 19.8878 6.29989 18.5477 7.94739 18.5477ZM14.2676 32.8401C14.0785 32.8401 13.8931 32.7851 13.7342 32.6827L10.1942 30.3985C9.72292 30.0957 9.0909 30.234 8.787 30.707C8.48336 31.1799 8.62134 31.8127 9.09459 32.116L13.1348 34.7232C13.298 34.828 13.4893 34.8847 13.6865 34.8859L23.708 34.8877V34.887H23.7223C24.2801 34.8789 24.7317 34.4234 24.7317 33.8636C24.7317 33.2992 24.2725 32.8401 23.708 32.8401H14.2676ZM38.7693 39.712H43.8907C44.4343 39.712 44.8749 39.2714 44.8749 38.7279V36.8534H47.317H47.3208C47.8932 36.8511 48.4495 36.6862 48.9324 36.3764L48.9394 36.3712V39.8814C48.9394 40.366 48.5301 40.7758 48.0455 40.7758H47.0137C44.5759 40.7758 42.6418 41.5943 41.1006 43.2817C40.2031 44.2635 39.4428 45.5387 38.7693 47.2065V39.712ZM18.0934 37.7439V36.8536L23.708 36.8553H23.7363H37.2643H37.2929L42.907 36.8536V37.7439H18.0934ZM22.2311 47.2067V39.712H17.1094C16.566 39.712 16.1255 39.2714 16.1255 38.7279V36.8534H13.6833C13.6819 36.8534 13.6806 36.8534 13.6792 36.8534C13.1071 36.8511 12.5503 36.6862 12.0696 36.3776L12.0606 36.3712V39.8814C12.0606 40.366 12.4701 40.7758 12.9547 40.7758H13.9865C16.4243 40.7758 18.3584 41.5943 19.8994 43.2817C20.7973 44.2636 21.5576 45.5389 22.2311 47.2067ZM36.2688 33.8636C36.2688 33.2992 36.728 32.8401 37.2927 32.8401H46.7329C46.9222 32.8401 47.1074 32.7851 47.2661 32.6827L50.8042 30.3996C51.2777 30.0963 51.9095 30.234 52.2131 30.707C52.5168 31.1799 52.3791 31.8127 51.9038 32.1178L47.8676 34.7221C47.7024 34.828 47.5109 34.8848 47.314 34.8859L37.2927 34.8877V34.887H37.2782C36.7204 34.8789 36.2688 34.4234 36.2688 33.8636ZM53.053 18.5477C54.7005 18.5477 56.0408 19.8877 56.0408 21.5352C56.0408 23.1832 54.7006 24.5234 53.053 24.5234C51.4055 24.5234 50.0651 23.1833 50.0651 21.5352C50.0651 19.8878 51.4055 18.5477 53.053 18.5477ZM60.0161 28.7486C60.5597 28.7486 61.0002 29.1886 61.0002 29.7321V44.1073C61.0002 46.8055 58.804 49.0022 56.105 49.0022H51.4173V60.0165C51.4173 60.5601 50.9769 61 50.4332 61H47.7929C47.2496 61 46.8091 60.5601 46.8091 60.0165V49.0022H45.3675C45.1909 49.0022 44.7778 49.0022 44.4338 50.1727L41.4592 60.2943C41.3362 60.7128 40.9518 61 40.5152 61H20.4849C20.0486 61 19.6641 60.7128 19.5411 60.2943L16.5665 50.1739C16.2224 49.0022 15.8093 49.0022 15.6328 49.0022H14.1911V60.0165C14.1911 60.5601 13.7508 61 13.2072 61H10.567C10.0236 61 9.58308 60.5601 9.58308 60.0165V49.0022H4.8954C2.19614 49.0022 0 46.8055 0 44.1073V29.7321C0 29.1886 0.440531 28.7486 0.983877 28.7486C1.52722 28.7486 1.96775 29.1886 1.96775 29.7321V44.1073C1.96775 45.7206 3.28111 47.0341 4.8954 47.0341H7.30602C5.19339 45.3629 3.83392 42.7793 3.83392 39.8816V28.8147C3.83392 27.5701 4.39104 26.4546 5.26817 25.7016C3.90009 24.8182 2.9916 23.2812 2.9916 21.5355C2.9916 18.8031 5.21479 16.5803 7.94727 16.5803C10.6797 16.5803 12.9031 18.8032 12.9031 21.5355C12.9031 23.2831 11.9928 24.8211 10.6225 25.7039C11.5023 26.4571 12.0607 27.5719 12.0607 28.8148V29.2617L14.5573 30.8722H23.7079C25.3572 30.8722 26.6992 32.2146 26.6992 33.8638C26.6992 34.2233 26.6354 34.5677 26.519 34.8873H34.4813C34.3646 34.5678 34.301 34.2233 34.301 33.8638C34.301 32.2146 35.6429 30.8722 37.2926 30.8722H46.4429L48.9393 29.2617V28.8148C48.9393 27.572 49.4981 26.4571 50.3777 25.7039C49.0074 24.8211 48.0972 23.2831 48.0972 21.5355C48.0972 18.8031 50.3203 16.5803 53.053 16.5803C55.7855 16.5803 58.0086 18.8032 58.0086 21.5355C58.0086 23.2814 57.1002 24.8183 55.7321 25.7016C56.6092 26.4546 57.1663 27.5702 57.1663 28.8147V39.8816C57.1663 42.7795 55.8068 45.363 53.6942 47.0341H56.1048C57.7191 47.0341 59.0326 45.7206 59.0326 44.1073V29.7321C59.0326 29.1886 59.4731 28.7486 60.0161 28.7486Z" fill="#242222"/>
</svg>
