<svg width="61" height="61" viewBox="0 0 61 61" fill="none" xmlns="http://www.w3.org/2000/svg">
<g clip-path="url(#clip0_553_2300)">
<path d="M58.259 60.1064H37.771C36.7508 60.1064 35.9238 59.2795 35.9238 58.2593V44.1217C35.9238 43.1015 36.7508 42.2745 37.771 42.2745H58.2589C59.2791 42.2745 60.106 43.1015 60.106 44.1217V58.2593C60.1062 59.2795 59.2792 60.1064 58.259 60.1064Z" fill="#FDB441"/>
<path d="M58.2598 42.2745H54.6855C55.7057 42.2745 56.5327 43.1015 56.5327 44.1217V58.2593C56.5327 59.2795 55.7057 60.1064 54.6855 60.1064H58.2598C59.28 60.1064 60.1069 59.2795 60.1069 58.2593V44.1217C60.1069 43.1015 59.28 42.2745 58.2598 42.2745Z" fill="#FE9738"/>
<path d="M26.1514 59.9277H5.18262C2.81386 59.9277 0.893555 58.0074 0.893555 55.6387V12.748C0.893555 10.3793 2.81386 8.45898 5.18262 8.45898H26.1514C28.5201 8.45898 30.4404 10.3793 30.4404 12.748V55.6387C30.4404 58.0074 28.5201 59.9277 26.1514 59.9277Z" fill="#EDF9D9"/>
<path d="M26.8662 8.51941V59.8674C28.8946 59.5268 30.4404 57.7638 30.4404 55.6387V12.7481C30.4404 10.623 28.8946 8.85991 26.8662 8.51941Z" fill="#D5EFC8"/>
<path d="M26.1514 59.9277H5.18262C2.81386 59.9277 0.893555 58.0074 0.893555 55.6387V54.8047H30.4404V55.6387C30.4404 58.0074 28.5201 59.9277 26.1514 59.9277Z" fill="#3692BC"/>
<path d="M26.8662 54.8047V55.6387C26.8662 58.0074 24.9459 59.9277 22.5771 59.9277H26.1514C28.5201 59.9277 30.4404 58.0074 30.4404 55.6387V54.8047H26.8662Z" fill="#0681AF"/>
<path d="M19.7178 15.6074H11.6162C10.6292 15.6074 9.8291 14.8073 9.8291 13.8203C9.8291 12.8334 10.6292 12.0332 11.6162 12.0332H19.7178C20.7047 12.0332 21.5049 12.8334 21.5049 13.8203C21.5049 14.8073 20.7047 15.6074 19.7178 15.6074Z" fill="#3692BC"/>
<path d="M23.292 49.2531H8.04199C7.77881 49.2531 7.56543 49.0397 7.56543 48.7765V42.5812C7.56543 42.318 7.77881 42.1046 8.04199 42.1046H23.292C23.5552 42.1046 23.7686 42.318 23.7686 42.5812V48.7765C23.7686 49.0397 23.5552 49.2531 23.292 49.2531Z" fill="#FE7AB6"/>
<path d="M23.292 42.1046H19.7178C19.981 42.1046 20.1943 42.318 20.1943 42.5812V48.7765C20.1943 49.0397 19.981 49.2531 19.7178 49.2531H23.292C23.5552 49.2531 23.7686 49.0397 23.7686 48.7765V42.5812C23.7686 42.318 23.5552 42.1046 23.292 42.1046Z" fill="#FE5CA7"/>
<path d="M60.1063 3.43852V31.3505C60.1063 32.756 58.958 33.8955 57.5414 33.8955H41.4359C40.0194 33.8955 38.871 32.756 38.871 31.3505V23.0793C38.871 22.904 38.7829 22.7401 38.6363 22.6424L34.3941 19.8161C34.2384 19.7123 34.2384 19.4851 34.3941 19.3813L38.6363 16.5549C38.7829 16.4573 38.871 16.2933 38.871 16.1181V3.43852C38.871 2.03302 40.0194 0.893555 41.4359 0.893555H57.5414C58.958 0.893555 60.1063 2.03302 60.1063 3.43852Z" fill="#EAF6FF"/>
<path d="M57.541 0.893555H53.9668C55.3834 0.893555 56.5318 2.03302 56.5318 3.43852V31.3505C56.5318 32.756 55.3834 33.8955 53.9668 33.8955H57.541C58.9576 33.8955 60.106 32.756 60.106 31.3505V3.43852C60.106 2.03302 58.9576 0.893555 57.541 0.893555Z" fill="#D8ECFE"/>
<path d="M15.667 32.0656C16.7856 32.0656 17.6924 31.1588 17.6924 30.0402C17.6924 28.9216 16.7856 28.0148 15.667 28.0148C14.5484 28.0148 13.6416 28.9216 13.6416 30.0402C13.6416 31.1588 14.5484 32.0656 15.667 32.0656Z" fill="#EAF6FF"/>
<path d="M22.6416 28.0019L21.5095 25.7229C21.2421 25.1845 20.5889 24.9645 20.0503 25.2316L18.3733 26.0632C18.215 26.1418 18.0292 26.0266 18.0292 25.8497V23.9795C18.0292 23.3788 17.5423 22.8918 16.9416 22.8918H14.3929C13.7917 22.8918 13.3043 23.3792 13.3043 23.9804V25.8497C13.3043 26.0266 13.1186 26.1418 12.9603 26.0632L11.2832 25.2316C10.7446 24.9645 10.0915 25.1845 9.824 25.7229L8.69192 28.0019C8.42457 28.5402 8.64439 29.1932 9.18278 29.4602L9.92205 29.8268C10.0986 29.9144 10.0986 30.1662 9.92205 30.2538L9.18278 30.6204C8.64439 30.8874 8.42457 31.5404 8.69192 32.0787L9.82423 34.3583C10.0916 34.8965 10.7444 35.1163 11.2828 34.8493L12.9604 34.0174C13.1187 33.9389 13.3045 34.0541 13.3045 34.2309V36.1003C13.3045 36.7014 13.7919 37.1888 14.393 37.1888H16.9417C17.5424 37.1888 18.0293 36.7019 18.0293 36.1012V34.2309C18.0293 34.0541 18.2151 33.9389 18.3734 34.0174L20.051 34.8493C20.5894 35.1163 21.2422 34.8965 21.5095 34.3583L22.6421 32.0782C22.9093 31.5403 22.6895 30.8876 22.1515 30.6207L21.4117 30.2539C21.2352 30.1663 21.2352 29.9145 21.4117 29.8269L22.151 29.4603C22.689 29.1931 22.9089 28.5401 22.6416 28.0019Z" fill="#EAF6FF"/>
<path d="M15.667 32.0656C16.7856 32.0656 17.6924 31.1588 17.6924 30.0402C17.6924 28.9216 16.7856 28.0148 15.667 28.0148C14.5484 28.0148 13.6416 28.9216 13.6416 30.0402C13.6416 31.1588 14.5484 32.0656 15.667 32.0656Z" fill="#EAF6FF"/>
<path d="M22.6416 28.0019L21.5095 25.7229C21.2421 25.1845 20.5889 24.9645 20.0503 25.2316L18.3733 26.0632C18.215 26.1418 18.0292 26.0266 18.0292 25.8497V23.9795C18.0292 23.3788 17.5423 22.8918 16.9416 22.8918H14.3929C13.7917 22.8918 13.3043 23.3792 13.3043 23.9804V25.8497C13.3043 26.0266 13.1186 26.1418 12.9603 26.0632L11.2832 25.2316C10.7446 24.9645 10.0915 25.1845 9.824 25.7229L8.69192 28.0019C8.42457 28.5402 8.64439 29.1932 9.18278 29.4602L9.92205 29.8268C10.0986 29.9144 10.0986 30.1662 9.92205 30.2538L9.18278 30.6204C8.64439 30.8874 8.42457 31.5404 8.69192 32.0787L9.82423 34.3583C10.0916 34.8965 10.7444 35.1163 11.2828 34.8493L12.9604 34.0174C13.1187 33.9389 13.3045 34.0541 13.3045 34.2309V36.1003C13.3045 36.7014 13.7919 37.1888 14.393 37.1888H16.9417C17.5424 37.1888 18.0293 36.7019 18.0293 36.1012V34.2309C18.0293 34.0541 18.2151 33.9389 18.3734 34.0174L20.051 34.8493C20.5894 35.1163 21.2422 34.8965 21.5095 34.3583L22.6421 32.0782C22.9093 31.5403 22.6895 30.8876 22.1515 30.6207L21.4117 30.2539C21.2352 30.1663 21.2352 29.9145 21.4117 29.8269L22.151 29.4603C22.689 29.1931 22.9089 28.5401 22.6416 28.0019Z" fill="#A8D3D8"/>
<path d="M15.667 32.0656C16.7856 32.0656 17.6924 31.1588 17.6924 30.0402C17.6924 28.9216 16.7856 28.0148 15.667 28.0148C14.5484 28.0148 13.6416 28.9216 13.6416 30.0402C13.6416 31.1588 14.5484 32.0656 15.667 32.0656Z" fill="#FDB441"/>
<path d="M54.6472 29.5121H44.2735C44.055 29.5121 43.8779 29.3349 43.8779 29.1165V22.7593C43.8779 22.5408 44.0551 22.3638 44.2735 22.3638H54.6472C54.8657 22.3638 55.0427 22.5409 55.0427 22.7593V29.1165C55.0427 29.335 54.8657 29.5121 54.6472 29.5121Z" fill="#FE7AB6"/>
<path d="M54.6475 22.3636H51.0732C51.2917 22.3636 51.4688 22.5408 51.4688 22.7592V29.1164C51.4688 29.3349 51.2916 29.512 51.0732 29.512H54.6475C54.866 29.512 55.043 29.3348 55.043 29.1164V22.7592C55.043 22.5408 54.866 22.3636 54.6475 22.3636Z" fill="#FE5CA7"/>
<path d="M26.1514 7.56543H5.18262C2.32491 7.56543 0 9.89034 0 12.748V47.1616C0.0409844 48.3448 1.74648 48.3438 1.78711 47.1616V12.748C1.78711 10.8758 3.31032 9.35254 5.18262 9.35254H26.1514C28.0237 9.35254 29.5469 10.8758 29.5469 12.748V53.9111H1.78711V51.3446C1.74612 50.1614 0.040627 50.1624 0 51.3446V55.6387C0 58.4964 2.32491 60.8213 5.18262 60.8213H26.1514C29.0091 60.8213 31.334 58.4964 31.334 55.6387V12.748C31.334 9.89034 29.0091 7.56543 26.1514 7.56543ZM26.1514 59.0342H5.18262C3.33034 59.0342 1.82059 57.543 1.78866 55.6982H29.5454C29.5134 57.543 28.0036 59.0342 26.1514 59.0342Z" fill="black"/>
<path d="M11.6163 16.501H19.7179C23.2702 16.3659 23.2674 11.2736 19.7179 11.1396H11.6163C8.06402 11.2748 8.06676 16.3671 11.6163 16.501ZM11.6163 12.9268H19.7179C20.9008 12.9688 20.9 14.6722 19.7179 14.7139H11.6163C10.4334 14.6718 10.4342 12.9685 11.6163 12.9268Z" fill="black"/>
<path d="M6.6123 42.5812V48.7765C6.6123 49.532 7.22695 50.1466 7.98242 50.1466H23.2324C23.9879 50.1466 24.6025 49.532 24.6025 48.7765V42.5812C24.6025 41.8257 23.9879 41.2111 23.2324 41.2111H7.98242C7.22683 41.2111 6.6123 41.8257 6.6123 42.5812ZM8.39941 42.9982H22.8154V48.3595H8.39941V42.9982Z" fill="black"/>
<path d="M60.1062 8.04199C60.5997 8.04199 60.9997 7.64192 60.9997 7.14844V3.43852C60.9997 1.54251 59.4483 0 57.5412 0H41.4358C39.5287 0 37.9772 1.54251 37.9772 3.43852V15.92L33.8983 18.6378C33.2199 19.0619 33.2202 20.1355 33.8985 20.5596L37.9772 23.2771V31.3504C37.9772 33.2464 39.5287 34.7889 41.4358 34.7889H57.5412C59.4483 34.7891 60.9997 33.2466 60.9997 31.3505V11.5434C60.9587 10.3602 59.2532 10.3612 59.2126 11.5434V31.3505C59.2126 32.2611 58.4629 33.002 57.5412 33.002H41.4358C40.5141 33.002 39.7643 32.2611 39.7643 31.3505V23.0793C39.7643 22.6041 39.5277 22.1628 39.1315 21.8988L35.6792 19.5986L39.1315 17.2985C39.5278 17.0345 39.7643 16.5932 39.7643 16.1179V3.43852C39.7643 2.52793 40.5141 1.78711 41.4358 1.78711H57.5412C58.4629 1.78711 59.2126 2.52793 59.2126 3.43852V7.14844C59.2126 7.64192 59.6127 8.04199 60.1062 8.04199Z" fill="black"/>
<path d="M44.7102 7.12854H50.1918C51.375 7.08756 51.374 5.38206 50.1918 5.34143H44.7102C43.5272 5.38253 43.528 7.08803 44.7102 7.12854Z" fill="black"/>
<path d="M44.7102 18.725H50.1918C51.375 18.684 51.374 16.9785 50.1918 16.9379H44.7102C43.5272 16.9789 43.528 18.6843 44.7102 18.725Z" fill="black"/>
<path d="M44.7102 10.0277H53.9669C55.15 9.98673 55.1491 8.28123 53.9669 8.2406H44.7102C43.5272 8.28158 43.528 9.98708 44.7102 10.0277Z" fill="black"/>
<path d="M44.7102 12.9268H53.9669C55.15 12.8858 55.1491 11.1803 53.9669 11.1396H44.7102C43.5272 11.1806 43.528 12.8861 44.7102 12.9268Z" fill="black"/>
<path d="M15.667 32.9591C17.2765 32.9591 18.5859 31.6496 18.5859 30.0402C18.4392 26.1731 12.8942 26.1742 12.748 30.0402C12.748 31.6496 14.0575 32.9591 15.667 32.9591ZM15.667 28.9083C16.291 28.9083 16.7988 29.4161 16.7988 30.0402C16.7419 31.5397 14.5919 31.5392 14.5352 30.0402C14.5352 29.416 15.0429 28.9083 15.667 28.9083Z" fill="black"/>
<path d="M7.78817 29.1178C7.91243 29.4871 8.13725 29.8045 8.43641 30.04C8.13725 30.2757 7.91255 30.5931 7.78817 30.9623C7.61922 31.464 7.65592 32.0016 7.89146 32.4757L9.02377 34.7554C9.50963 35.7336 10.701 36.1347 11.6794 35.6494L12.4106 35.2869V36.1C12.4106 37.1929 13.2997 38.0821 14.3927 38.0821H16.9414C18.0338 38.0821 18.9225 37.1935 18.9225 36.101V35.2869L19.6536 35.6494C20.6324 36.1347 21.8235 35.7336 22.3094 34.7554L23.4418 32.4753C23.6774 32.0012 23.714 31.4639 23.5451 30.9622C23.4208 30.5928 23.1959 30.2755 22.8967 30.0399C23.6189 29.4878 23.863 28.4153 23.4416 27.6042L22.3096 25.3252C21.8236 24.3467 20.6319 23.9454 19.6531 24.4308L18.9225 24.7931V23.9791C18.9225 22.8867 18.0338 21.9979 16.9414 21.9979H14.3927C13.2998 21.9979 12.4106 22.8871 12.4106 23.9801V24.7931L11.6799 24.4308C10.7012 23.9454 9.50951 24.3465 9.02353 25.325L7.89146 27.6042C7.65592 28.0786 7.61922 28.6161 7.78817 29.1178ZM9.49188 28.3994L10.624 26.1203C10.6718 26.0237 10.7894 25.984 10.8859 26.032L12.5631 26.8636C12.9163 27.0386 13.3275 27.0192 13.6625 26.8113C13.9977 26.6034 14.1977 26.2439 14.1977 25.8495V23.9802C14.1977 23.8727 14.2851 23.7852 14.3927 23.7852H16.9414C17.0484 23.7852 17.1353 23.8722 17.1353 23.9792V25.8495C17.1353 26.2439 17.3354 26.6034 17.6705 26.8113C18.0055 27.0192 18.4166 27.0389 18.7701 26.8635L20.4471 26.0319C20.5438 25.9841 20.6612 26.0237 20.7092 26.1202L21.8413 28.3992C21.8708 28.4588 21.8631 28.5127 21.8514 28.5474C21.8397 28.5822 21.8133 28.6298 21.7536 28.6593L21.0143 29.0259C20.1826 29.4192 20.1828 30.6609 21.0143 31.0539L21.7541 31.4208C21.8135 31.4503 21.8398 31.4977 21.8515 31.5324C21.8632 31.5671 21.8709 31.6208 21.8414 31.6801L20.709 33.9602C20.6612 34.0564 20.5438 34.0959 20.4477 34.0482L18.7701 33.2163C18.4167 33.0412 18.0055 33.0607 17.6706 33.2686C17.3355 33.4765 17.1355 33.8361 17.1355 34.2305V36.1007C17.1355 36.2077 17.0485 36.2948 16.9415 36.2948H14.3928C14.2854 36.2948 14.1978 36.2074 14.1978 36.0998V34.2305C14.1978 33.8361 13.9978 33.4765 13.6626 33.2686C13.327 33.0604 12.9156 33.0415 12.5631 33.2164L10.8855 34.0483C10.789 34.0959 10.672 34.0565 10.6243 33.9604L9.49199 31.6808C9.46245 31.6213 9.47019 31.5673 9.48187 31.5325C9.49354 31.4977 9.51999 31.4502 9.57956 31.4206L10.3189 31.054C11.1507 30.6608 11.1504 29.4191 10.3189 29.026L9.57968 28.6594C9.52011 28.6299 9.49366 28.5822 9.48199 28.5476C9.47019 28.5128 9.46245 28.4589 9.49188 28.3994Z" fill="black"/>
<path d="M58.2589 41.381H37.771C36.2597 41.381 35.0303 42.6104 35.0303 44.1217V58.2593C35.0303 59.7706 36.2598 61 37.771 61H58.2589C59.7702 61 60.9996 59.7706 60.9996 58.2593V44.1217C60.9996 42.6104 59.7702 41.381 58.2589 41.381ZM59.2125 58.2593C59.2125 58.7852 58.7848 59.2129 58.2589 59.2129H37.771C37.2451 59.2129 36.8174 58.7852 36.8174 58.2593V44.1217C36.8174 43.5958 37.2452 43.1681 37.771 43.1681H58.2589C58.7848 43.1681 59.2125 43.5958 59.2125 44.1217V58.2593Z" fill="black"/>
<path d="M42.9844 22.7593V29.1165C42.9844 29.8273 43.5627 30.4056 44.2736 30.4056H54.6472C55.358 30.4056 55.9363 29.8273 55.9363 29.1165V22.7593C55.9363 22.0485 55.358 21.4702 54.6472 21.4702H44.2736C43.5627 21.4701 42.9844 22.0484 42.9844 22.7593ZM44.7715 23.2572H54.1492V28.6185H44.7715V23.2572Z" fill="black"/>
<path d="M43.771 47.7712C43.455 47.392 42.8915 47.3407 42.5125 47.6568L38.7627 50.7816C38.3382 51.1182 38.3383 51.8179 38.7627 52.1545L42.5125 55.2794C42.6795 55.4186 42.8823 55.4866 43.084 55.4865C43.3399 55.4865 43.5942 55.377 43.771 55.1649C44.0869 54.7858 44.0357 54.2224 43.6566 53.9065L40.7305 51.468L43.6566 49.0297C44.0357 48.7137 44.0869 48.1503 43.771 47.7712Z" fill="black"/>
<path d="M57.2672 50.7816L53.5174 47.6568C53.1383 47.3409 52.5749 47.3922 52.2589 47.7711C51.943 48.1503 51.9942 48.7137 52.3733 49.0296L55.2994 51.468L52.3733 53.9064C51.9942 54.2224 51.943 54.7858 52.2589 55.1649C52.5762 55.5456 53.1404 55.5939 53.5174 55.2793L57.2672 52.1543C57.6917 51.8179 57.6916 51.1183 57.2672 50.7816Z" fill="black"/>
<path d="M50.442 45.6434C49.9865 45.4536 49.4634 45.6689 49.2735 46.1245L45.107 56.1241C44.9173 56.5797 45.1327 57.1029 45.5881 57.2927C46.0323 57.4811 46.5669 57.2717 46.7567 56.8116L50.9231 46.812C51.113 46.3564 50.8976 45.8332 50.442 45.6434Z" fill="black"/>
</g>
<defs>
<clipPath id="clip0_553_2300">
<rect width="61" height="61" fill="white"/>
</clipPath>
</defs>
</svg>
