<svg width="55" height="55" viewBox="0 0 55 55" fill="none" xmlns="http://www.w3.org/2000/svg">
<g clip-path="url(#clip0_202_2379)">
<path fill-rule="evenodd" clip-rule="evenodd" d="M49.0913 30.1973V34.587L45.4887 35.9737C45.0315 37.8919 44.2715 39.7253 43.2367 41.4046L44.803 44.9354L40.6432 49.0979L37.1124 47.5288C35.4331 48.5637 33.5996 49.3264 31.6788 49.7834L30.2923 53.3835H24.4068L23.0202 49.7809C21.102 49.3238 19.2686 48.5637 17.5892 47.5288L14.0585 49.0979L9.89604 44.9354L11.4649 41.4072C10.4301 39.7253 9.66752 37.8919 9.21037 35.9737L5.61035 34.587V30.1973H49.0913Z" fill="#837683"/>
<path fill-rule="evenodd" clip-rule="evenodd" d="M39.6429 30.1973C39.6958 30.5881 39.723 30.9855 39.723 31.3883C39.723 37.1324 34.1834 41.7904 27.3494 41.7904C20.5179 41.7904 14.9783 37.1324 14.9783 31.3883C14.9783 30.9855 15.0054 30.5881 15.0584 30.1973H39.6429Z" fill="#ECEFF1"/>
<path fill-rule="evenodd" clip-rule="evenodd" d="M16.7324 30.1973C16.6794 30.5881 16.6522 30.9855 16.6522 31.3883C16.6522 36.8957 21.7469 41.4037 28.1888 41.7671C27.9099 41.782 27.6309 41.7904 27.3494 41.7904C20.5179 41.7904 14.9783 37.1324 14.9783 31.3883C14.9783 30.9855 15.0054 30.5881 15.0584 30.1973H16.7324Z" fill="#D1D1D6"/>
<path fill-rule="evenodd" clip-rule="evenodd" d="M49.0912 30.1973V34.587L45.4886 35.9737C45.0315 37.8919 44.2714 39.7253 43.2366 41.4046L44.8029 44.9354L40.6431 49.0979L39.4567 48.5715L43.0928 44.9354L41.5239 41.4046C42.5587 39.7253 43.3188 37.8919 43.7758 35.9737L47.3784 34.587V30.1973H49.0912ZM17.5892 47.5288L14.0584 49.0979L13.532 48.5715L16.8496 47.0975C17.0909 47.2464 17.3374 47.3903 17.5892 47.5288ZM37.1123 47.5288C35.433 48.5637 33.5995 49.3264 31.6787 49.7834L30.2922 53.3835H28.5794L29.9661 49.7834C31.8868 49.3264 34.4597 48.1323 36.1417 47.0975L37.1123 47.5288Z" fill="#685E68"/>
<path fill-rule="evenodd" clip-rule="evenodd" d="M43.2782 22.8491L44.9163 27.1586C44.9622 27.2895 45.079 27.3709 45.2171 27.3779L49.8237 27.6044C50.1351 27.6185 50.266 28.0148 50.0218 28.2094L46.4271 31.1001C46.3174 31.185 46.2749 31.3195 46.3103 31.4538L47.5204 35.9049C47.6017 36.2056 47.2656 36.4498 47.0038 36.2799L43.1473 33.7537C43.0305 33.6758 42.889 33.6758 42.7722 33.7537L38.912 36.2799C38.6503 36.4498 38.3141 36.2056 38.399 35.9049L39.6091 31.4538C39.6445 31.3195 39.5985 31.185 39.4923 31.1001L35.8976 28.2094C35.6534 28.0148 35.7808 27.6185 36.0957 27.6044L40.7023 27.3779C40.8404 27.3709 40.9536 27.2895 41.0031 27.1586L42.6412 22.8491C42.7509 22.5555 43.1685 22.5555 43.2782 22.8491Z" fill="#FFE177"/>
<path fill-rule="evenodd" clip-rule="evenodd" d="M48.3661 27.5336L49.8238 27.6044C50.1352 27.6185 50.2661 28.0148 50.0219 28.2094L46.4272 31.1001C46.3175 31.185 46.275 31.3195 46.3104 31.4538L47.5205 35.9049C47.6018 36.2056 47.2657 36.4498 47.0039 36.2799L46.0062 35.6253L44.8527 31.3831C44.8173 31.2487 44.8598 31.1142 44.9695 31.0294L48.5642 28.1386C48.8084 27.9441 48.681 27.5478 48.3661 27.5336ZM43.2783 22.8491L44.9164 27.1586C44.9624 27.2895 45.0756 27.3709 45.2136 27.3779L43.7595 27.3072C43.6214 27.3002 43.5046 27.2187 43.4587 27.0878L42.2451 23.8929L42.6414 22.8491C42.751 22.5555 43.1686 22.5555 43.2783 22.8491ZM43.1474 33.7537C43.0306 33.6758 42.8891 33.6758 42.7723 33.7537L38.9121 36.2799C38.6504 36.4498 38.3143 36.2056 38.3991 35.9049L38.5018 35.5228L41.9903 33.2407C42.1035 33.1664 42.2451 33.1664 42.3618 33.2407L43.1474 33.7537Z" fill="#FFD064"/>
<path fill-rule="evenodd" clip-rule="evenodd" d="M3.77341 24.6518H19.7175C20.1643 24.6518 20.5474 24.4597 20.8134 24.1016C21.0794 23.7435 21.1545 23.3194 21.0249 22.8931C19.8233 18.9074 16.1239 16.0039 11.746 16.0039C7.36804 16.0039 3.66772 18.9074 2.46603 22.8931C2.33758 23.3194 2.41146 23.7435 2.67751 24.1016C2.94356 24.4597 3.3278 24.6518 3.77341 24.6518Z" fill="#8AC9FE"/>
<path fill-rule="evenodd" clip-rule="evenodd" d="M19.7176 24.6518C20.1644 24.6518 20.5476 24.4597 20.8135 24.1016C21.0795 23.7435 21.1546 23.3194 21.025 22.8931C19.8234 18.9074 16.124 16.0039 11.7462 16.0039C11.2823 16.0039 10.8265 16.0369 10.3809 16.0995C14.1483 16.6314 17.2201 19.3291 18.2943 22.8931C18.4239 23.3194 18.35 23.7435 18.084 24.1016C17.8179 24.4597 17.4337 24.6518 16.9881 24.6518H19.7176Z" fill="#60B7FF"/>
<path fill-rule="evenodd" clip-rule="evenodd" d="M11.7459 15.2009C14.4448 15.2009 16.6457 13 16.6457 10.3011C16.6457 7.60223 14.4448 5.40137 11.7459 5.40137C9.04705 5.40137 6.84619 7.60223 6.84619 10.3011C6.84619 13 9.04705 15.2009 11.7459 15.2009Z" fill="#F6DCCD"/>
<path fill-rule="evenodd" clip-rule="evenodd" d="M11.7459 5.40137C14.4516 5.40137 16.6457 7.59544 16.6457 10.3011C16.6457 13.0079 14.4516 15.2009 11.7459 15.2009C11.5141 15.2009 11.2855 15.1849 11.0627 15.1543C13.4455 14.8211 15.2804 12.776 15.2804 10.3011C15.2804 7.82741 13.4455 5.78108 11.0627 5.44914C11.2855 5.41841 11.5141 5.40137 11.7459 5.40137Z" fill="#F1CBBC"/>
<path fill-rule="evenodd" clip-rule="evenodd" d="M27.668 19.2163L29.3062 23.5259C29.3521 23.6568 29.4689 23.7381 29.6069 23.7452L34.2136 23.9717C34.5249 23.9858 34.6559 24.382 34.4117 24.5767L30.817 27.4673C30.7073 27.5523 30.6648 27.6867 30.7002 27.8211L31.9103 32.2722C31.9916 32.5728 31.6555 32.817 31.3937 32.6471L27.5371 30.1209C27.4203 30.043 27.2789 30.043 27.1621 30.1209L23.3019 32.6471C23.0401 32.817 22.704 32.5728 22.7889 32.2722L23.9989 27.8211C24.0343 27.6867 23.9883 27.5523 23.8822 27.4673L20.2875 24.5767C20.0433 24.382 20.1707 23.9858 20.4856 23.9717L25.0922 23.7452C25.2303 23.7381 25.3435 23.6568 25.393 23.5259L27.0311 19.2163C27.1408 18.9227 27.5583 18.9227 27.668 19.2163Z" fill="#FFE177"/>
<path fill-rule="evenodd" clip-rule="evenodd" d="M32.756 23.9008L34.2137 23.9717C34.5251 23.9858 34.656 24.382 34.4118 24.5767L30.8171 27.4673C30.7074 27.5523 30.6649 27.6867 30.7003 27.8211L31.9104 32.2722C31.9917 32.5728 31.6556 32.817 31.3938 32.6471L30.3961 31.9926L29.2426 27.7504C29.2072 27.6159 29.2497 27.4814 29.3594 27.3966L32.9541 24.5059C33.1983 24.3113 33.0709 23.9151 32.756 23.9008ZM27.6681 19.2163L29.3063 23.5259C29.3523 23.6568 29.4655 23.7381 29.6035 23.7452L28.1493 23.6745C28.0113 23.6673 27.8945 23.586 27.8486 23.4551L26.6349 20.2602L27.0313 19.2163C27.1409 18.9227 27.5584 18.9227 27.6681 19.2163ZM27.5373 30.1209C27.4205 30.043 27.279 30.043 27.1622 30.1209L23.302 32.6471C23.0402 32.817 22.7042 32.5728 22.789 32.2722L22.8916 31.89L26.3802 29.6079C26.4934 29.5336 26.6349 29.5336 26.7517 29.6079L27.5373 30.1209Z" fill="#FFD064"/>
<path fill-rule="evenodd" clip-rule="evenodd" d="M12.0645 22.8491L13.7027 27.1586C13.7487 27.2895 13.8654 27.3709 14.0035 27.3779L18.6101 27.6044C18.9214 27.6185 19.0524 28.0148 18.8082 28.2094L15.2135 31.1001C15.1038 31.185 15.0613 31.3195 15.0967 31.4538L16.3068 35.9049C16.3881 36.2056 16.052 36.4498 15.7902 36.2799L11.9336 33.7537C11.8168 33.6758 11.6753 33.6758 11.5585 33.7537L7.69852 36.2799C7.43668 36.4498 7.10053 36.2056 7.1854 35.9049L8.39551 31.4538C8.43088 31.3195 8.38483 31.185 8.27871 31.1001L4.68398 28.2094C4.43982 28.0148 4.56719 27.6185 4.88209 27.6044L9.48882 27.3779C9.62675 27.3709 9.73999 27.2895 9.78949 27.1586L11.4276 22.8491C11.5373 22.5555 11.9549 22.5555 12.0645 22.8491Z" fill="#FFE177"/>
<path fill-rule="evenodd" clip-rule="evenodd" d="M17.1525 27.5336L18.6102 27.6044C18.9215 27.6185 19.0525 28.0148 18.8083 28.2094L15.2136 31.1001C15.1039 31.185 15.0614 31.3195 15.0968 31.4538L16.3069 35.9049C16.3882 36.2056 16.0522 36.4498 15.7903 36.2799L14.7925 35.6253L13.6392 31.3831C13.6037 31.2487 13.6462 31.1142 13.7559 31.0294L17.3506 28.1386C17.5947 27.9441 17.4674 27.5478 17.1525 27.5336ZM12.0647 22.8491L13.7028 27.1586C13.7488 27.2895 13.862 27.3709 14 27.3779L12.5459 27.3072C12.4078 27.3002 12.2911 27.2187 12.2451 27.0878L11.0315 23.8929L11.4277 22.8491C11.5374 22.5555 11.955 22.5555 12.0647 22.8491ZM11.9337 33.7537C11.8169 33.6758 11.6755 33.6758 11.5587 33.7537L7.69863 36.2799C7.43678 36.4498 7.10064 36.2056 7.18551 35.9049L7.28818 35.5228L10.7768 33.2407C10.89 33.1664 11.0315 33.1664 11.1483 33.2407L11.9337 33.7537Z" fill="#FFD064"/>
<path fill-rule="evenodd" clip-rule="evenodd" d="M35.1952 24.5181H51.1394C51.5861 24.5181 51.9693 24.3259 52.2353 23.9678C52.5012 23.6097 52.5763 23.1857 52.4467 22.7594C51.2451 18.7736 47.5459 15.8701 43.1679 15.8701C38.79 15.8701 35.0895 18.7736 33.888 22.7594C33.7594 23.1857 33.8334 23.6097 34.0993 23.9678C34.3654 24.3259 34.7496 24.5181 35.1952 24.5181Z" fill="#8AC9FE"/>
<path fill-rule="evenodd" clip-rule="evenodd" d="M51.1393 24.5181C51.586 24.5181 51.9692 24.3259 52.2352 23.9678C52.5012 23.6097 52.5762 23.1857 52.4466 22.7594C51.245 18.7736 47.5458 15.8701 43.1678 15.8701C42.704 15.8701 42.2481 15.9031 41.8025 15.9657C45.57 16.4977 48.6417 19.1954 49.716 22.7594C49.8455 23.1857 49.7717 23.6097 49.5056 23.9678C49.2397 24.3259 48.8554 24.5181 48.4097 24.5181H51.1393Z" fill="#60B7FF"/>
<path fill-rule="evenodd" clip-rule="evenodd" d="M43.1678 15.0671C45.8667 15.0671 48.0676 12.8661 48.0676 10.1673C48.0676 7.46844 45.8667 5.26758 43.1678 5.26758C40.469 5.26758 38.2681 7.46844 38.2681 10.1673C38.2681 12.8661 40.469 15.0671 43.1678 15.0671Z" fill="#F6DCCD"/>
<path fill-rule="evenodd" clip-rule="evenodd" d="M43.1678 5.26758C45.8735 5.26758 48.0675 7.46165 48.0675 10.1673C48.0675 12.8741 45.8735 15.0671 43.1678 15.0671C42.9359 15.0671 42.7074 15.0511 42.4846 15.0205C44.8674 14.6874 46.7023 12.6422 46.7023 10.1673C46.7023 7.69351 44.8674 5.64729 42.4846 5.31524C42.7074 5.28462 42.9359 5.26758 43.1678 5.26758Z" fill="#F1CBBC"/>
<path fill-rule="evenodd" clip-rule="evenodd" d="M19.3786 20.8667H35.3227C35.7695 20.8667 36.1526 20.6745 36.4186 20.3165C36.6847 19.9583 36.7596 19.5343 36.6301 19.108C35.4284 15.1223 31.7292 12.2188 27.3512 12.2188C22.9733 12.2188 19.2728 15.1223 18.0713 19.108C17.9428 19.5343 18.0167 19.9583 18.2827 20.3165C18.5487 20.6745 18.9329 20.8667 19.3786 20.8667Z" fill="#8AC9FE"/>
<path fill-rule="evenodd" clip-rule="evenodd" d="M35.3227 20.8667C35.7695 20.8667 36.1525 20.6745 36.4186 20.3165C36.6846 19.9583 36.7596 19.5343 36.6301 19.108C35.4284 15.1223 31.7291 12.2188 27.3511 12.2188C26.8874 12.2188 26.4314 12.2517 25.9858 12.3143C29.7533 12.8463 32.825 15.544 33.8994 19.108C34.029 19.5343 33.955 19.9583 33.6891 20.3165C33.423 20.6745 33.0388 20.8667 32.5932 20.8667H35.3227Z" fill="#60B7FF"/>
<path fill-rule="evenodd" clip-rule="evenodd" d="M27.3512 11.4157C30.05 11.4157 32.251 9.21484 32.251 6.51596C32.251 3.81707 30.05 1.61621 27.3512 1.61621C24.6524 1.61621 22.4514 3.81707 22.4514 6.51596C22.4514 9.21484 24.6524 11.4157 27.3512 11.4157Z" fill="#F6DCCD"/>
<path fill-rule="evenodd" clip-rule="evenodd" d="M27.3512 1.61621C30.0568 1.61621 32.251 3.81028 32.251 6.51596C32.251 9.22271 30.0568 11.4157 27.3512 11.4157C27.1193 11.4157 26.8908 11.3998 26.668 11.3691C29.0508 11.036 30.8856 8.99085 30.8856 6.51596C30.8856 4.04225 29.0508 1.99593 26.668 1.66399C26.8908 1.63325 27.1193 1.61621 27.3512 1.61621Z" fill="#F1CBBC"/>
<path fill-rule="evenodd" clip-rule="evenodd" d="M9.68435 25.516H1.7128C1.468 25.516 1.23463 25.4119 1.07103 25.2298C0.907431 25.0476 0.828921 24.8045 0.85502 24.5611C1.31799 20.2502 4.2744 16.6854 8.25284 15.3401C6.76428 14.2511 5.79467 12.4913 5.79467 10.5127C5.79467 7.22126 8.47791 4.53543 11.7693 4.53543C15.0637 4.53543 17.7466 7.22137 17.7466 10.5127C17.7466 12.4913 16.777 14.2513 15.2877 15.3403C16.2215 15.656 17.0989 16.0938 17.9009 16.6349C19.2169 14.2686 21.3817 12.4394 23.9836 11.5596C22.495 10.4706 21.5254 8.71079 21.5254 6.7322C21.5254 3.44072 24.2087 0.754883 27.5 0.754883C30.7944 0.754883 33.4774 3.44093 33.4774 6.7322C33.4774 8.7109 32.5077 10.4708 31.0184 11.5598C33.5613 12.4195 35.6861 14.1853 37.009 16.4729C37.8359 15.9029 38.7447 15.4432 39.7144 15.1154C38.2258 14.0264 37.2562 12.2666 37.2562 10.288C37.2562 6.99652 39.9394 4.31069 43.2308 4.31069C46.5252 4.31069 49.2081 6.99674 49.2081 10.288C49.2081 12.2667 48.2385 14.0266 46.7492 15.1156C50.7288 16.461 53.6845 20.026 54.1451 24.3368C54.1712 24.5802 54.0925 24.8232 53.9288 25.0052C53.7652 25.1873 53.532 25.2912 53.2873 25.2912H45.2797L45.7513 26.5319C46.8208 26.5845 50.0139 26.7414 50.0109 26.7413C51.128 26.7916 51.5762 28.1986 50.7129 28.8866L47.3845 31.5632C47.6656 32.597 48.5032 35.6783 48.5029 35.6769C48.8006 36.7432 47.6126 37.6126 46.6838 37.0102C46.6828 37.0096 46.6819 37.009 46.6809 37.0084L43.107 34.6694L39.5366 37.0082C39.5355 37.0088 39.5345 37.0096 39.5334 37.0102C39.1999 37.2266 38.8327 37.2526 38.5128 37.1477C36.0503 40.5693 32.0331 42.7974 27.4964 42.7974C22.966 42.7974 18.9566 40.5757 16.4954 37.1624C16.1865 37.2503 15.8379 37.2166 15.5196 37.0102C15.5187 37.0096 15.5177 37.009 15.5167 37.0084L11.9428 34.6694L8.37244 37.0082C8.37136 37.0088 8.37028 37.0096 8.36921 37.0102C7.4438 37.6106 6.25753 36.7453 6.54515 35.6823L6.54536 35.6813C6.54536 35.6813 7.38589 32.5896 7.66499 31.5632C6.83212 30.8935 4.33706 28.8871 4.33943 28.889C3.47334 28.1986 3.92143 26.7916 5.03491 26.7415L9.29817 26.5319C9.39091 26.2878 9.52884 25.9249 9.68435 25.516ZM11.7693 16.49C7.33014 16.49 3.62087 19.6178 2.72405 23.7905H10.3403C10.6072 23.0882 10.8143 22.5434 10.8143 22.5434C11.2054 21.5068 12.68 21.5068 13.0711 22.5434L13.5451 23.7905H19.5626C19.739 23.418 20.1008 23.1316 20.5924 23.1095L20.6408 23.1071C20.5003 22.6328 20.3228 22.1745 20.1115 21.7354H17.4436C17.1988 21.7354 16.9654 21.6314 16.8018 21.4492C16.6382 21.2671 16.5597 21.024 16.5858 20.7806C16.6809 19.8951 16.8812 19.0411 17.174 18.2313C15.6537 17.1355 13.787 16.49 11.7693 16.49ZM11.7693 14.7645C14.1127 14.7645 16.0211 12.8539 16.0211 10.5127C16.0211 8.17158 14.1127 6.26092 11.7693 6.26092C9.42823 6.26092 7.52016 8.17169 7.52016 10.5127C7.52016 12.8538 9.42823 14.7645 11.7693 14.7645ZM27.5 12.7095C23.0609 12.7095 19.3516 15.8374 18.4548 20.01H25.9541C26.1932 19.3809 26.3717 18.9114 26.3717 18.9114C26.7627 17.8748 28.2374 17.8748 28.6284 18.9114L29.046 20.01H36.5458C35.651 15.8373 31.9416 12.7095 27.5 12.7095ZM25.2982 21.7354H21.9925C22.1558 22.1519 22.2943 22.5808 22.4064 23.0203L24.8555 22.8999C24.9594 22.6267 25.1198 22.2046 25.2982 21.7354ZM27.5 10.984C29.8435 10.984 31.7519 9.07336 31.7519 6.7322C31.7519 4.39103 29.8435 2.48037 27.5 2.48037C25.159 2.48037 23.2509 4.39114 23.2509 6.7322C23.2509 9.07325 25.159 10.984 27.5 10.984ZM37.7619 18.0549C38.09 18.9169 38.3128 19.8308 38.4143 20.781C38.4404 21.0244 38.3618 21.2674 38.1981 21.4494C38.0345 21.6315 37.8012 21.7354 37.5565 21.7354H34.7855C34.5885 22.1746 34.4246 22.6318 34.2974 23.1041C34.3665 23.1074 34.4045 23.1094 34.4042 23.1093C34.7922 23.1267 35.0995 23.3079 35.2991 23.5658H41.5899C41.8143 22.9753 41.9784 22.5434 41.9784 22.5434C42.3694 21.5068 43.8442 21.5068 44.2351 22.5434L44.6238 23.5658H52.2766C51.3818 19.3931 47.6723 16.2653 43.2308 16.2653C41.1847 16.2653 39.2938 16.9297 37.7619 18.0549ZM32.9235 21.7354H29.7019L30.1446 22.8999C30.6534 22.9249 31.6428 22.9736 32.5401 23.0177C32.6423 22.5796 32.7707 22.1516 32.9235 21.7354ZM43.2308 14.5398C45.5742 14.5398 47.4826 12.6292 47.4826 10.288C47.4826 7.94683 45.5742 6.03618 43.2308 6.03618C40.8897 6.03618 38.9817 7.94694 38.9817 10.288C38.9817 12.6291 40.8897 14.5398 43.2308 14.5398ZM37.9514 34.7917C38.2219 33.7965 38.6462 32.2361 38.8291 31.5632C37.9963 30.8935 35.5011 28.8871 35.5036 28.889C34.6374 28.1986 35.0855 26.7916 36.1991 26.7415L40.4622 26.5319C40.5718 26.2439 40.744 25.7907 40.9339 25.2912H35.0607L31.7777 27.9311C32.0588 28.965 32.8965 32.0463 32.8961 32.0449C33.1938 33.1112 32.0057 33.9807 31.0771 33.3783C31.076 33.3776 31.075 33.377 31.0741 33.3764L27.5001 31.0375L23.9298 33.3761C23.9287 33.3769 23.9276 33.3775 23.9265 33.3783C23.0011 33.9785 21.8149 33.1132 22.1025 32.0503L22.1028 32.0492C22.1028 32.0492 22.9432 28.9577 23.2223 27.9311C22.5744 27.4101 20.9202 26.0799 20.2189 25.516H14.201L14.5872 26.5319C15.6567 26.5845 18.8498 26.7414 18.8468 26.7413C19.964 26.7916 20.412 28.1986 19.5489 28.8866L16.2204 31.5632C16.4168 32.2856 16.885 34.0079 17.1491 34.9793C19.1685 38.6129 23.0441 41.0719 27.4964 41.0719C32.025 41.0719 35.9603 38.528 37.9514 34.7917ZM22.0577 24.7718C23.1154 25.6223 24.5702 26.7922 24.5698 26.7919C24.9555 27.0949 25.1119 27.5688 24.9864 28.0451C24.9859 28.0474 24.9852 28.0497 24.9846 28.0519L24.1371 31.1696C25.2725 30.4258 26.8352 29.4022 26.8336 29.4032C27.2478 29.1279 27.7493 29.1273 28.1639 29.4016L30.8625 31.1676L30.0155 28.0519C30.0148 28.0497 30.0142 28.0474 30.0136 28.0451C29.8882 27.5687 30.0447 27.0947 30.4297 26.7923L32.9423 24.7718L29.7152 24.6132L29.7134 24.6131C29.2241 24.588 28.8225 24.2994 28.6474 23.8364L27.5 20.8182L26.3532 23.8353C26.1776 24.2994 25.7759 24.588 25.2867 24.6131L25.2848 24.6132L22.0577 24.7718ZM6.50039 28.4038C7.55801 29.2543 9.01281 30.4241 9.01249 30.4238C9.39814 30.727 9.55451 31.2008 9.42909 31.6772C9.42855 31.6794 9.4279 31.6817 9.42725 31.684L8.57971 34.8015C9.7152 34.0578 11.2778 33.0342 11.2762 33.0352C11.6904 32.7599 12.1919 32.7594 12.6066 33.0335L15.3051 34.7996L14.4581 31.684C14.4575 31.6817 14.4568 31.6794 14.4563 31.6772C14.3309 31.2006 14.4874 30.7266 14.8724 30.4244L17.385 28.4038L14.1579 28.2452L14.1561 28.2451C13.6667 28.22 13.2652 27.9315 13.09 27.4685L11.9427 24.4502L10.7959 27.4672C10.6202 27.9315 10.2186 28.22 9.72932 28.2451L9.72749 28.2452L6.50039 28.4038ZM35.3035 29.3355C35.7796 29.3355 36.1662 29.7221 36.1662 30.1982C36.1662 30.6743 35.7796 31.061 35.3035 31.061H33.5666C33.0904 31.061 32.7039 30.6743 32.7039 30.1982C32.7039 29.7221 33.0904 29.3355 33.5666 29.3355H35.3035ZM21.3946 29.3355C21.8707 29.3355 22.2574 29.7221 22.2574 30.1982C22.2574 30.6743 21.8707 31.061 21.3946 31.061H19.6804C19.2043 31.061 18.8177 30.6743 18.8177 30.1982C18.8177 29.7221 19.2043 29.3355 19.6804 29.3355H21.3946ZM37.6645 28.4038C38.7221 29.2543 40.177 30.4241 40.1766 30.4238C40.5622 30.727 40.7186 31.2008 40.5933 31.6772C40.5926 31.6794 40.592 31.6817 40.5914 31.684L39.7439 34.8015C40.8793 34.0578 42.4419 33.0342 42.4404 33.0352C42.8546 32.7599 43.3561 32.7594 43.7707 33.0335L46.4692 34.7996L45.6222 31.684C45.6216 31.6817 45.621 31.6794 45.6204 31.6772C45.495 31.2006 45.6514 30.7266 46.0364 30.4244L48.5491 28.4038L45.322 28.2452L45.3201 28.2451C44.8309 28.22 44.4294 27.9315 44.2541 27.4685L43.1068 24.4502L41.96 27.4672C41.7843 27.9315 41.3828 28.22 40.8934 28.2451L40.8916 28.2452L37.6645 28.4038ZM9.17857 38.3446C9.01486 37.8975 9.24478 37.4015 9.6919 37.2377C10.139 37.0739 10.635 37.3039 10.7988 37.751C11.2073 38.8662 11.7265 39.9389 12.3521 40.9506C12.5021 41.1933 12.5225 41.4942 12.4066 41.7549L11.0776 44.744L14.3986 48.065L17.3881 46.7408C17.6474 46.626 17.9465 46.6458 18.1883 46.794C19.7928 47.777 21.5384 48.5061 23.3745 48.9411C23.6517 49.0068 23.8786 49.205 23.9808 49.4708L25.1542 52.5196H29.8518L31.0252 49.4708C31.1273 49.2051 31.354 49.007 31.6309 48.9412C33.4603 48.5065 35.2108 47.784 36.8087 46.7958C37.0509 46.646 37.3515 46.6254 37.6119 46.7408L40.6015 48.065L43.9231 44.7433L42.5989 41.7538C42.4841 41.4946 42.5039 41.1954 42.6521 40.9536C43.2657 39.952 43.7805 38.8954 44.1865 37.7975C44.3516 37.3509 44.8483 37.1224 45.2949 37.2876C45.7415 37.4527 45.97 37.9494 45.8049 38.396C45.4125 39.457 44.9276 40.4829 44.3573 41.4632L45.7404 44.5856C45.8848 44.9116 45.8139 45.2929 45.5617 45.545L41.4032 49.7036C41.151 49.9557 40.7697 50.0267 40.4437 49.8823C40.4437 49.8823 37.323 48.5001 37.323 48.4999C35.8074 49.3875 34.1747 50.0623 32.4745 50.5087L31.2493 53.6922C31.1212 54.0253 30.8011 54.2451 30.4442 54.2451H24.5619C24.2049 54.2451 23.8848 54.0253 23.7567 53.6922C23.7567 53.6922 22.5315 50.5091 22.5316 50.5091C20.8275 50.0618 19.1983 49.3831 17.6788 48.4992L14.5564 49.8823C14.2304 50.0267 13.849 49.9557 13.5969 49.7036L9.43836 45.545C9.1859 45.2926 9.11505 44.9107 9.2601 44.5845L10.6475 41.4643C10.0654 40.4701 9.57468 39.4255 9.17857 38.3446Z" fill="black"/>
</g>
<defs>
<clipPath id="clip0_202_2379">
<rect width="55" height="55" fill="white"/>
</clipPath>
</defs>
</svg>
