<svg width="55" height="55" viewBox="0 0 55 55" fill="none" xmlns="http://www.w3.org/2000/svg">
<path d="M52.8486 16.468H47.6764C47.9791 16.0788 48.1521 15.5944 48.1521 15.0668C48.1521 13.8041 47.1229 12.7748 45.8601 12.7748C44.5887 12.7748 43.5594 13.8041 43.5594 15.0668C43.5594 15.5944 43.741 16.0788 44.0351 16.468H37.678V10.4828C37.2801 10.7942 36.7871 10.9758 36.2509 10.9758C34.9794 10.9758 33.9502 9.94654 33.9502 8.68376C33.9502 7.41233 34.9794 6.38308 36.2509 6.38308C36.7871 6.38308 37.2801 6.57336 37.678 6.88473V0H37.9115C44.3811 0.0951408 49.9339 4.30728 52.0096 10.1368C52.5372 11.5726 52.84 13.1121 52.8919 14.7122C52.9092 15.3004 52.8919 15.8885 52.8486 16.468Z" fill="#FFAB03"/>
<path opacity="0.3" d="M52.0094 10.1368C50.5044 10.8893 48.8006 11.3131 46.9929 11.3131C43.1267 11.3131 39.7189 9.37569 37.6777 6.41768V0H37.9113C44.3808 0.0951408 49.9336 4.30728 52.0094 10.1368Z" fill="white"/>
<path d="M21.9795 42.5107H36.3804V51.8086H21.9795V42.5107Z" fill="#5592CB"/>
<path opacity="0.3" d="M36.3805 42.5107V49.2484H31.5976C27.8784 49.2484 24.8599 46.2299 24.8599 42.5107H36.3805Z" fill="white"/>
<path d="M24.9202 51.8086C25.4564 53.6509 27.1517 55.0001 29.1669 55.0001C31.1822 55.0001 32.886 53.6509 33.4136 51.8086H24.9202Z" fill="#4E6575"/>
<path d="M44.3724 23.4044C44.0437 27.4695 42.1063 31.0935 39.2002 33.6277C37.9115 34.7521 36.8909 36.1187 36.1903 37.6323C36.0865 37.8485 35.9914 38.0647 35.9049 38.2896C35.3773 39.6129 35.1005 41.04 35.1005 42.5104H23.303C23.303 39.0853 21.7635 35.8678 19.186 33.6191C15.9945 30.8254 13.9792 26.7257 13.9792 22.1503C13.9792 15.8018 17.8627 10.3701 23.3809 8.07807C25.1713 7.33424 27.1433 6.92773 29.2018 6.92773V13.8125C28.8126 13.5011 28.3109 13.3108 27.7747 13.3108C26.5119 13.3108 25.4826 14.3401 25.4826 15.6115C25.4826 16.8829 26.5119 17.9122 27.7747 17.9122C28.3109 17.9122 28.8126 17.7219 29.2018 17.4105V23.4044H35.5676C35.2648 23.0152 35.0919 22.5308 35.0919 22.0032C35.0919 20.7318 36.1211 19.7025 37.3839 19.7025C38.6553 19.7025 39.6846 20.7318 39.6846 22.0032C39.6846 22.5308 39.5029 23.0152 39.2089 23.4044H44.3724Z" fill="#FFAB03"/>
<path opacity="0.3" d="M44.3721 23.4044C44.0434 27.4695 42.106 31.0935 39.1999 33.6277C37.9112 34.7521 36.8906 36.1187 36.19 37.6323C36.0862 37.8485 35.9911 38.0647 35.9046 38.2896H35.3683C32.1508 38.2896 29.3485 36.3176 27.9906 33.4028C27.2814 31.8892 26.2608 30.5227 24.972 29.3983C21.7805 26.6046 19.7566 22.5049 19.7566 17.9295C19.7566 14.1671 21.1232 10.7247 23.3806 8.07807C25.171 7.33425 27.143 6.92773 29.2015 6.92773V13.8125C28.8123 13.5011 28.3106 13.3108 27.7744 13.3108C26.5116 13.3108 25.4823 14.3401 25.4823 15.6115C25.4823 16.8829 26.5116 17.9122 27.7744 17.9122C28.3106 17.9122 28.8123 17.7219 29.2015 17.4105V23.4044H35.5673C35.204 22.9373 35.0224 22.3319 35.1175 21.6746C35.2472 20.7232 35.9911 19.9274 36.9338 19.7458C38.4042 19.4604 39.6929 20.5848 39.6929 22.0032C39.6929 22.5308 39.5113 23.0152 39.2172 23.4044H44.3721Z" fill="white"/>
<path opacity="0.3" d="M36.3805 48.9371V42.5107H29.5044C29.5044 43.7908 30.5423 44.8374 31.831 44.8374H34.0625V46.6191C34.0539 47.8992 35.1004 48.9371 36.3805 48.9371Z" fill="white"/>
<path d="M20.9157 9.46233C20.9157 10.7511 20.6562 11.9792 20.1892 13.095C18.7707 16.52 15.3976 18.9245 11.4622 18.9245C6.22944 18.9245 2 14.6951 2 9.46233C2 5.22424 4.78503 1.63483 8.63391 0.432598C9.52477 0.164474 10.4762 0.00878906 11.4622 0.00878906C16.6776 0.00878906 20.9157 4.23823 20.9157 9.46233Z" fill="#DD3A46"/>
<path opacity="0.3" d="M20.9155 9.46233C20.9155 10.7511 20.656 11.9792 20.1889 13.095C19.2981 13.3631 18.3553 13.5188 17.378 13.5188C12.1539 13.5188 7.91577 9.28069 7.91577 4.0566C7.91577 2.76787 8.17525 1.54834 8.63365 0.432598C9.52452 0.164474 10.4759 0.00878906 11.4619 0.00878906C16.6774 0.00878906 20.9155 4.23823 20.9155 9.46233Z" fill="white"/>
<path d="M9.36905 13.7702C9.14417 13.7702 8.92794 13.6837 8.75496 13.5194L6.03912 10.8035C5.7018 10.4662 5.7018 9.92131 6.03912 9.58399C6.37644 9.24668 6.92134 9.24668 7.25865 9.58399L9.36905 11.6944L15.6483 5.4151C15.9857 5.07778 16.5306 5.07778 16.8679 5.4151C17.2052 5.75241 17.2052 6.29731 16.8679 6.63463L9.97449 13.528C9.81016 13.6923 9.58528 13.7702 9.36905 13.7702Z" fill="white"/>
</svg>
