<svg width="55" height="55" viewBox="0 0 55 55" fill="none" xmlns="http://www.w3.org/2000/svg">
<path d="M31.6833 37.928C31.6833 39.0294 32.5763 39.9223 33.6777 39.9223H41.362C41.5124 36.5305 44.3498 33.9435 47.6402 33.9435C48.7961 33.9435 49.879 34.2561 50.8104 34.8008V16.6594C50.8104 15.558 49.9174 14.665 48.816 14.665H33.6777C32.5763 14.665 31.6833 15.558 31.6833 16.6594V37.928Z" fill="white"/>
<path d="M22.9521 29.6339C22.6771 29.3535 22.5407 28.9657 22.5858 28.5758C22.6727 27.8198 22.6727 27.0522 22.5858 26.2962C22.5407 25.9063 22.6771 25.5185 22.9521 25.2392L23.7879 24.3894C24.3755 23.7911 24.4915 22.8747 24.0725 22.1496L22.9639 20.2278C22.545 19.5027 21.692 19.146 20.8809 19.3555L19.7283 19.6541C19.348 19.753 18.9419 19.6767 18.6261 19.4425C18.0181 18.9902 17.3563 18.6057 16.6527 18.3006C16.2939 18.1448 16.0253 17.8322 15.9211 17.4541L15.6053 16.3089C15.3808 15.5011 14.646 14.9414 13.8081 14.9414H11.5887C10.7508 14.9414 10.0149 15.5011 9.79147 16.3089L9.47457 17.4551C9.37037 17.8322 9.10288 18.1448 8.743 18.3006C8.03937 18.6057 7.37763 18.9902 6.76853 19.4425C6.45378 19.6767 6.04771 19.753 5.66743 19.6541L4.51476 19.3555C3.7037 19.146 2.85182 19.5027 2.43287 20.2278L1.32317 22.1496C0.903135 22.8747 1.02023 23.7911 1.60892 24.3894L2.44361 25.2381C2.71862 25.5185 2.85505 25.9063 2.80993 26.2962C2.72302 27.0526 2.72324 27.8205 2.80993 28.5768C2.85505 28.9657 2.71862 29.3546 2.44361 29.6339L1.60892 30.4826C1.02023 31.0809 0.903135 31.9973 1.32317 32.7224L2.43287 34.6442C2.85182 35.3693 3.7037 35.726 4.51476 35.5165L5.66743 35.2179C6.04771 35.119 6.45378 35.1953 6.76853 35.4295C7.37763 35.8817 8.03937 36.2663 8.743 36.5714C9.10288 36.7272 9.37037 37.0398 9.47457 37.4179L9.79147 38.5631C10.0149 39.3709 10.7508 39.9306 11.5887 39.9306H13.8081C14.646 39.9306 15.3808 39.3709 15.6053 38.5631L15.9211 37.4179C16.0253 37.0398 16.2939 36.7272 16.6527 36.5714C17.3563 36.2663 18.0181 35.8817 18.6261 35.4295C18.9419 35.1953 19.348 35.119 19.7283 35.2179L20.8809 35.5165C21.692 35.726 22.545 35.3693 22.9639 34.6442L24.0725 32.7224C24.4915 31.9973 24.3755 31.0809 23.7879 30.4826L22.9521 29.6339ZM12.6973 32.225C10.0525 32.225 7.90831 30.0808 7.90831 27.436C7.90831 24.7912 10.0525 22.647 12.6973 22.647C15.3432 22.647 17.4874 24.7912 17.4874 27.436C17.4874 30.0808 15.3432 32.225 12.6973 32.225Z" fill="#FFD88E"/>
<path d="M47.6402 46.5158C51.1118 46.5158 53.926 43.7016 53.926 40.2301C53.926 36.7586 51.1118 33.9443 47.6402 33.9443C44.1687 33.9443 41.3545 36.7586 41.3545 40.2301C41.3545 43.7016 44.1687 46.5158 47.6402 46.5158Z" fill="#BEDAFF"/>
<path d="M18.5618 27.4355C18.5618 24.2025 15.9311 21.5723 12.6975 21.5723C9.46442 21.5723 6.83423 24.2025 6.83423 27.4355C6.83423 30.6686 9.46442 33.2988 12.6975 33.2988C15.9311 33.2988 18.5618 30.6685 18.5618 27.4355ZM8.98273 27.4355C8.98273 25.3872 10.6492 23.7208 12.6975 23.7208C14.7464 23.7208 16.4133 25.3872 16.4133 27.4355C16.4133 29.4838 14.7464 31.1503 12.6975 31.1503C10.6492 31.1503 8.98273 29.4838 8.98273 27.4355Z" fill="black"/>
<path d="M13.8079 41.0049C15.123 41.0049 16.2876 40.1191 16.6408 38.8487L16.9567 37.7034C16.9748 37.6374 17.0211 37.5826 17.0799 37.5572C17.8527 37.2221 18.5886 36.7963 19.2657 36.2927C19.3188 36.2533 19.3905 36.2402 19.4587 36.2581L20.612 36.5568C21.8865 36.8858 23.2359 36.3205 23.8942 35.1813L25.0024 33.26C25.6606 32.1208 25.4762 30.6692 24.5529 29.729L23.7178 28.8809C23.6688 28.8305 23.645 28.7645 23.6527 28.6986C23.7489 27.861 23.7488 27.0104 23.6526 26.1727C23.645 26.1078 23.6686 26.0423 23.7176 25.9926L24.554 25.1422C25.4762 24.2032 25.6605 22.7515 25.0027 21.6128L23.8936 19.6904C23.2356 18.5517 21.8863 17.9863 20.6112 18.3155L19.4574 18.6144C19.3902 18.6317 19.3185 18.6189 19.2668 18.5806C18.5883 18.0759 17.8525 17.65 17.0802 17.3152C17.0209 17.2895 16.9747 17.2347 16.9564 17.1686L16.6401 16.0212C16.2875 14.7529 15.1228 13.8672 13.8078 13.8672H11.5884C10.2717 13.8672 9.10691 14.7534 8.75585 16.0226L8.43884 17.1691C8.42068 17.2347 8.37481 17.2892 8.31541 17.3149C7.54377 17.6494 6.80781 18.075 6.12695 18.5806C6.07528 18.619 6.00459 18.6316 5.93659 18.6141L4.78328 18.3153C3.50954 17.9864 2.16039 18.5519 1.50241 19.6906L0.393466 21.6112C-0.26666 22.7507 -0.0817818 24.2031 0.842824 25.1427L1.67644 25.9903C1.72607 26.041 1.75024 26.1075 1.74251 26.1737C1.64615 27.0118 1.64658 27.8626 1.74262 28.7007C1.75003 28.7645 1.72586 28.8317 1.67752 28.8808L0.842932 29.7293C-0.0817817 30.6693 -0.26666 32.1216 0.392607 33.2595L1.50252 35.1818C2.16039 36.3204 3.50975 36.8859 4.78392 36.5565L5.93745 36.2578C6.00437 36.2405 6.07538 36.2529 6.12791 36.292C6.80781 36.7969 7.54388 37.2225 8.31605 37.5573C8.37557 37.5831 8.42025 37.6362 8.43905 37.7044L8.75596 38.8495C9.10702 40.1184 10.2717 41.0048 11.5885 41.0048H13.8079V41.0049ZM10.8267 38.2767L10.5101 37.1327C10.3179 36.4352 9.82935 35.8713 9.17019 35.586C8.54938 35.3168 7.95682 34.9741 7.4096 34.5677C6.83627 34.1412 6.08913 33.9986 5.39796 34.1781L4.24594 34.4764C3.90282 34.5658 3.53983 34.4132 3.36301 34.1072L2.25256 32.184C2.07574 31.8787 2.12591 31.4888 2.3747 31.236L3.20896 30.3877C3.71633 29.8725 3.95976 29.1675 3.87704 28.4547C3.79969 27.78 3.79937 27.0946 3.87693 26.4199C3.95943 25.707 3.71655 25.0022 3.2095 24.4851L2.3746 23.6362C2.12591 23.3834 2.07574 22.9937 2.25342 22.6871L3.36301 20.7655C3.53994 20.4591 3.90282 20.3069 4.2454 20.3957L5.39699 20.6939C6.09848 20.8767 6.83208 20.7345 7.40896 20.3052C7.95693 19.8983 8.54949 19.5556 9.16976 19.2867C9.82913 19.0013 10.3176 18.4381 10.51 17.7417L10.8269 16.5956C10.9213 16.2543 11.2346 16.0159 11.5888 16.0159H13.8081C14.1619 16.0159 14.4753 16.2548 14.5698 16.5947L14.8855 17.7395C15.0775 18.4362 15.5656 18.9998 16.2254 19.2863C16.8469 19.5558 17.4388 19.8983 17.9861 20.3054C18.5646 20.7344 19.2981 20.8759 19.9976 20.6941L21.1497 20.3958C21.4934 20.3069 21.8568 20.4591 22.0335 20.7648L23.1424 22.6873C23.3194 22.9937 23.2697 23.3842 23.022 23.6363L22.1865 24.4857C21.6794 25.0009 21.436 25.7058 21.5186 26.419C21.596 27.0932 21.5961 27.7783 21.5187 28.4525C21.4361 29.1657 21.6791 29.8705 22.1852 30.3864C22.1857 30.387 22.1862 30.3875 22.1866 30.388L23.0213 31.2355C23.2696 31.4884 23.3193 31.8789 23.142 32.1859L22.0338 34.1072C21.8567 34.4135 21.4933 34.5657 21.1502 34.4769L19.9984 34.1785C19.298 33.9969 18.5646 34.138 17.9848 34.568C17.4387 34.9741 16.8467 35.3168 16.2248 35.5864C15.5655 35.8725 15.0773 36.4363 14.8854 37.1327L14.5701 38.2758C14.475 38.6179 14.1616 38.8567 13.8078 38.8567H11.5884C11.2344 38.8564 10.9211 38.618 10.8267 38.2767Z" fill="black"/>
<path d="M51.8847 34.2227V16.7131C51.8847 15.0211 50.5082 13.6445 48.8161 13.6445H33.6777C31.9857 13.6445 30.6091 15.0211 30.6091 16.7131V22.5536C30.6091 23.1468 31.0902 23.6278 31.6834 23.6278C32.2766 23.6278 32.7576 23.1468 32.7576 22.5536V16.7131C32.7576 16.2058 33.1705 15.793 33.6777 15.793H48.816C49.3234 15.793 49.7361 16.2059 49.7361 16.7131V33.1736C48.9384 32.9371 48.099 32.8375 47.2681 32.8792C44.0092 33.0405 41.1684 35.4341 40.4566 38.6188H33.6777C33.1704 38.6188 32.7576 38.2059 32.7576 37.6987V32.0037C32.7576 31.4105 32.2766 30.9294 31.6834 30.9294C31.0902 30.9294 30.6091 31.4105 30.6091 32.0037V37.6987C30.6091 39.3907 31.9857 40.7673 33.6777 40.7673H40.3015C40.5779 44.5754 43.7624 47.5898 47.6398 47.5898C51.6981 47.5898 54.9999 44.2882 54.9999 40.2298C55.0001 37.7515 53.7676 35.5571 51.8847 34.2227ZM47.6399 45.4412C44.7662 45.4412 42.4283 43.1033 42.4283 40.2297C42.4283 37.3809 44.8464 34.9911 47.6951 35.0195C50.5109 35.0495 52.8515 37.4141 52.8515 40.2297C52.8516 43.1033 50.5137 45.4412 47.6399 45.4412Z" fill="black"/>
<path d="M37.0601 22.2803H45.5467C46.1399 22.2803 46.6209 21.7993 46.6209 21.2061C46.6209 20.6129 46.1399 20.1318 45.5467 20.1318H37.0601C36.4669 20.1318 35.9858 20.6129 35.9858 21.2061C35.9858 21.7993 36.4668 22.2803 37.0601 22.2803Z" fill="black"/>
<path d="M37.0601 28.2735H45.5467C46.1399 28.2735 46.6209 27.7924 46.6209 27.1992C46.6209 26.606 46.1399 26.125 45.5467 26.125H37.0601C36.4669 26.125 35.9858 26.606 35.9858 27.1992C35.9858 27.7924 36.4668 28.2735 37.0601 28.2735Z" fill="black"/>
<path d="M37.0601 34.4805H39.8918C40.485 34.4805 40.9661 33.9995 40.9661 33.4063C40.9661 32.8131 40.485 32.332 39.8918 32.332H37.0601C36.4669 32.332 35.9858 32.8131 35.9858 33.4063C35.9858 33.9995 36.4668 34.4805 37.0601 34.4805Z" fill="black"/>
<path d="M48.9571 38.4034L46.7884 40.5722L46.1149 39.8988C45.6953 39.4794 45.0151 39.4794 44.5956 39.8988C44.1761 40.3184 44.1761 40.9985 44.5956 41.4181L46.0287 42.851C46.2385 43.0607 46.5134 43.1657 46.7883 43.1657C47.0632 43.1657 47.3381 43.0607 47.5479 42.851L50.4763 39.9226C50.8958 39.5031 50.8958 38.8229 50.4763 38.4033C50.0567 37.984 49.3767 37.984 48.9571 38.4034Z" fill="black"/>
<path d="M38.446 45.5238C34.7656 48.0416 30.454 49.3726 25.9772 49.3726C21.8746 49.3726 17.9611 48.2745 14.5201 46.1782L16.1034 45.9261C16.6893 45.8327 17.0887 45.2822 16.9954 44.6963C16.9021 44.1103 16.3513 43.7123 15.7656 43.8042L11.554 44.4748C10.9288 44.5745 10.5252 45.214 10.6853 45.8222L11.5262 49.8424C11.646 50.4147 12.2248 50.7938 12.7976 50.6738C13.3784 50.5523 13.7507 49.9831 13.6292 49.4023L13.3293 47.9687C17.1237 50.2997 21.4454 51.5211 25.977 51.5211C30.8886 51.5211 35.6197 50.0603 39.659 47.2969C40.1487 46.962 40.2741 46.2934 39.9389 45.8038C39.6042 45.3141 38.9356 45.1887 38.446 45.5238Z" fill="black"/>
<path d="M11.252 10.4252C11.4923 10.4252 11.7341 10.345 11.9342 10.1804C15.8757 6.93551 20.863 5.1485 25.9773 5.1485C30.2475 5.1485 34.4288 6.39527 37.9872 8.69535L36.3231 8.96015C35.7372 9.05339 35.3377 9.60395 35.431 10.1898C35.5229 10.768 36.0828 11.1733 36.6607 11.082L40.8718 10.4119C41.4679 10.3167 41.8794 9.72319 41.7545 9.13106L40.9 5.04397C40.7787 4.46334 40.21 4.09079 39.6286 4.2124C39.048 4.33379 38.6755 4.90303 38.797 5.48377L39.0817 6.84527C35.193 4.3513 30.6334 3 25.9774 3C20.3663 3 14.894 4.96093 10.5688 8.52153C10.1107 8.8987 10.0451 9.57559 10.4221 10.0336C10.6344 10.2918 10.942 10.4252 11.252 10.4252Z" fill="black"/>
<path d="M31.087 28.2208C31.8953 28.7746 32.9756 27.9713 32.7177 27.042C32.4546 26.094 31.1008 25.9882 30.7023 26.8936C30.4959 27.3627 30.6543 27.9379 31.087 28.2208Z" fill="black"/>
</svg>
