<svg width="46" height="46" viewBox="0 0 46 46" fill="none" xmlns="http://www.w3.org/2000/svg">
<rect x="0.5" y="0.5" width="45" height="45" rx="7.5" fill="#1C1C1E"/>
<rect x="0.5" y="0.5" width="45" height="45" rx="7.5" stroke="white"/>
<path d="M18.305 25.94L17.3375 29.63C17.3375 29.7275 17.2775 29.75 17.15 29.75H15.35C15.2225 29.75 15.2 29.7125 15.2225 29.5625L18.71 17.36C18.7938 17.0264 18.8366 16.6839 18.8375 16.34C18.8375 16.2575 18.8375 16.22 18.935 16.22H21.5C21.59 16.22 21.6275 16.22 21.65 16.34L25.5575 29.5925C25.5575 29.69 25.5575 29.75 25.46 29.75H23.4275C23.33 29.75 23.27 29.75 23.24 29.6375L22.25 25.94H18.305ZM21.7175 23.9525C21.3725 22.595 20.5625 19.6175 20.255 18.185C20 19.6175 19.3475 22.0475 18.83 23.9525H21.7175ZM27.245 17.1275C27.245 16.7953 27.377 16.4767 27.6119 16.2418C27.8468 16.007 28.1653 15.875 28.4975 15.875C28.8297 15.875 29.1483 16.007 29.3832 16.2418C29.6181 16.4767 29.75 16.7953 29.75 17.1275C29.7628 17.2972 29.7383 17.4676 29.6784 17.6269C29.6185 17.7861 29.5246 17.9304 29.4032 18.0497C29.2818 18.1689 29.1359 18.2602 28.9756 18.3173C28.8153 18.3743 28.6445 18.3957 28.475 18.38C28.3086 18.3915 28.1417 18.3667 27.9857 18.3075C27.8298 18.2483 27.6885 18.156 27.5716 18.037C27.4547 17.918 27.365 17.7751 27.3086 17.618C27.2522 17.461 27.2305 17.2937 27.245 17.1275ZM27.395 19.9175C27.395 19.82 27.4325 19.7675 27.5375 19.7675H29.465C29.5625 19.7675 29.615 19.805 29.615 19.9175V29.6C29.615 29.6975 29.615 29.75 29.465 29.75H27.5675C27.44 29.75 27.4025 29.69 27.4025 29.5925V19.9175H27.395Z" fill="white"/>
</svg>
