<svg width="74" height="89" viewBox="0 0 74 89" fill="none" xmlns="http://www.w3.org/2000/svg">
<path d="M56.2922 38.2648L73.0118 65.8119C73.3875 66.4308 72.9595 67.218 72.2355 67.2222C68.6441 67.2432 60.3142 67.0628 60.3142 64.9365C60.3142 63.7529 62.2481 63.5811 61.7646 62.2258C61.3302 61.0079 53.088 47.3868 51.4207 44.6366C51.2383 44.3356 51.2419 43.9654 51.4234 43.6639L54.6716 38.2678C55.0388 37.6577 55.9227 37.6561 56.2922 38.2648Z" fill="white"/>
<path d="M17.5594 38.2648L0.839748 65.8119C0.464072 66.4308 0.892047 67.218 1.61608 67.2222C5.20747 67.2432 13.5373 67.0628 13.5373 64.9365C13.5373 63.7529 11.6034 63.5811 12.0869 62.2258C12.5214 61.0079 20.7636 47.3868 22.4308 44.6366C22.6133 44.3356 22.6097 43.9654 22.4281 43.6639L19.1799 38.2678C18.8127 37.6577 17.9288 37.6561 17.5594 38.2648Z" fill="white"/>
<path d="M36.2915 1.63539L25.8458 21.6042C25.6733 21.9338 25.7099 22.3339 25.9393 22.6268L29.5835 27.2803C30.0012 27.8138 30.8277 27.7486 31.1567 27.1562L36.2905 17.911C36.6571 17.2507 37.6113 17.2645 37.9588 17.935L42.7069 27.0964C43.0241 27.7084 43.868 27.7872 44.293 27.2445L47.9157 22.6185C48.1417 22.3299 48.1808 21.9367 48.0161 21.6093L37.9763 1.6488C37.6298 0.95983 36.649 0.952022 36.2915 1.63539Z" fill="white"/>
<path d="M35.6402 57.334L9.30359 13.0579C8.71238 12.064 10.079 11.0798 10.8343 11.9555L35.737 40.8282C36.1147 41.2661 36.7932 41.2661 37.1709 40.8282L62.0736 11.9555C62.8289 11.0798 64.1955 12.064 63.6043 13.0579L37.2677 57.334C36.9007 57.951 36.0073 57.951 35.6402 57.334Z" fill="url(#paint0_linear_102_49473)"/>
<path d="M10.248 73.6243L12.0886 78.3735C12.1643 78.5553 12.2451 78.6815 12.331 78.7522C12.4219 78.8179 12.5052 78.8532 12.5809 78.8583V79.0098C12.4497 78.9997 12.2906 78.9946 12.1038 78.9946C11.922 78.9896 11.7351 78.987 11.5432 78.987C11.3211 78.987 11.114 78.9896 10.9221 78.9946C10.7302 78.9946 10.5737 78.9997 10.4525 79.0098V78.8583C10.71 78.8482 10.8742 78.8053 10.9449 78.7295C11.0156 78.6487 11.0004 78.4796 10.8994 78.222L9.5663 74.6241L9.70264 74.4575L8.49073 77.6009C8.39479 77.8534 8.33672 78.0604 8.31652 78.222C8.29632 78.3836 8.30894 78.5099 8.35439 78.6007C8.39984 78.6916 8.47558 78.7573 8.58162 78.7977C8.68767 78.833 8.81896 78.8532 8.9755 78.8583V79.0098C8.81391 78.9997 8.65737 78.9946 8.50588 78.9946C8.35439 78.9896 8.2029 78.987 8.05141 78.987C7.94032 78.987 7.83428 78.9896 7.73328 78.9946C7.63734 78.9946 7.5515 78.9997 7.47575 79.0098V78.8583C7.58684 78.833 7.69541 78.7674 7.80145 78.6613C7.91255 78.5553 8.01859 78.371 8.11958 78.1084L9.85413 73.6243C9.91473 73.6294 9.98037 73.6319 10.0511 73.6319C10.1218 73.6319 10.1874 73.6294 10.248 73.6243ZM10.907 76.8283V76.9798H8.64979L8.72554 76.8283H10.907ZM17.0714 73.647V73.7985C16.9704 73.8339 16.8593 73.9147 16.7381 74.0409C16.617 74.1621 16.5084 74.354 16.4124 74.6166L14.7536 79.0325C14.7233 79.0325 14.6905 79.03 14.6552 79.0249C14.6249 79.0249 14.592 79.0249 14.5567 79.0249C14.5213 79.0249 14.486 79.0249 14.4507 79.0249C14.4204 79.03 14.3901 79.0325 14.3598 79.0325L12.4586 74.2833C12.3828 74.0965 12.2995 73.9702 12.2086 73.9046C12.1228 73.8389 12.042 73.8036 11.9662 73.7985V73.647C12.0975 73.6521 12.2566 73.6571 12.4434 73.6622C12.6353 73.6672 12.8221 73.6698 13.0039 73.6698C13.2261 73.6698 13.4331 73.6672 13.625 73.6622C13.822 73.6571 13.9785 73.6521 14.0947 73.647V73.7985C13.928 73.8036 13.7992 73.8238 13.7084 73.8591C13.6225 73.8894 13.5745 73.95 13.5644 74.0409C13.5543 74.1268 13.5821 74.258 13.6478 74.4348L15.0415 78.0175L14.8975 78.1917L16.0337 75.1619C16.16 74.8236 16.2231 74.556 16.2231 74.359C16.2231 74.1621 16.1675 74.0207 16.0564 73.9349C15.9453 73.849 15.7863 73.8036 15.5792 73.7985V73.647C15.7459 73.6521 15.9024 73.6571 16.0489 73.6622C16.2004 73.6672 16.3493 73.6698 16.4958 73.6698C16.617 73.6698 16.723 73.6672 16.8139 73.6622C16.9098 73.6571 16.9957 73.6521 17.0714 73.647Z" fill="url(#paint1_linear_102_49473)"/>
<path d="M25.441 73.647C25.4208 73.8591 25.4056 74.0662 25.3955 74.2681C25.3905 74.4651 25.388 74.6166 25.388 74.7226C25.388 74.8388 25.3905 74.9499 25.3955 75.0559C25.4006 75.1619 25.4056 75.2528 25.4107 75.3286H25.2365C25.186 74.9499 25.1178 74.6519 25.032 74.4348C24.9512 74.2177 24.8325 74.0611 24.676 73.9652C24.5194 73.8692 24.2947 73.8213 24.0018 73.8213H23.6761V78.1387C23.6761 78.3407 23.6938 78.4922 23.7291 78.5932C23.7695 78.6942 23.8453 78.7623 23.9564 78.7977C24.0725 78.828 24.2392 78.8482 24.4563 78.8583V79.0098C24.3149 78.9997 24.1331 78.9946 23.9109 78.9946C23.6887 78.9896 23.4615 78.987 23.2292 78.987C22.9868 78.987 22.7571 78.9896 22.54 78.9946C22.3279 78.9946 22.1562 78.9997 22.0249 79.0098V78.8583C22.242 78.8482 22.4061 78.828 22.5172 78.7977C22.6283 78.7623 22.7041 78.6942 22.7445 78.5932C22.7849 78.4922 22.8051 78.3407 22.8051 78.1387V73.8213H22.4718C22.189 73.8213 21.9668 73.8692 21.8052 73.9652C21.6436 74.0611 21.5225 74.2177 21.4417 74.4348C21.3609 74.6519 21.2952 74.9499 21.2447 75.3286H21.0705C21.0806 75.2528 21.0857 75.1619 21.0857 75.0559C21.0907 74.9499 21.0932 74.8388 21.0932 74.7226C21.0932 74.6166 21.0882 74.4651 21.0781 74.2681C21.073 74.0662 21.0604 73.8591 21.0402 73.647C21.2573 73.6521 21.4947 73.6571 21.7522 73.6622C22.0097 73.6672 22.2698 73.6698 22.5324 73.6698C22.795 73.6698 23.0323 73.6698 23.2444 73.6698C23.4565 73.6698 23.6913 73.6698 23.9488 73.6698C24.2063 73.6698 24.4664 73.6672 24.729 73.6622C24.9916 73.6571 25.2289 73.6521 25.441 73.647ZM29.8169 73.647C29.7967 73.8389 29.7815 74.0258 29.7714 74.2076C29.7664 74.3843 29.7639 74.5206 29.7639 74.6166C29.7639 74.7125 29.7664 74.8034 29.7714 74.8893C29.7765 74.9751 29.7815 75.0458 29.7866 75.1013H29.6124C29.577 74.7782 29.5215 74.5232 29.4457 74.3363C29.375 74.1495 29.2665 74.0182 29.12 73.9424C28.9786 73.8617 28.7792 73.8213 28.5217 73.8213H27.999C27.8374 73.8213 27.7137 73.8364 27.6279 73.8667C27.5471 73.8919 27.4915 73.9475 27.4612 74.0333C27.4309 74.1141 27.4158 74.2429 27.4158 74.4196V78.2372C27.4158 78.4089 27.4309 78.5376 27.4612 78.6235C27.4915 78.7093 27.5471 78.7674 27.6279 78.7977C27.7137 78.8229 27.8374 78.8356 27.999 78.8356H28.4914C28.7792 78.8356 29.0064 78.7901 29.1731 78.6992C29.3447 78.6083 29.4735 78.4594 29.5594 78.2523C29.6503 78.0453 29.7184 77.7625 29.7639 77.404H29.9381C29.9229 77.5504 29.9154 77.7423 29.9154 77.9796C29.9154 78.0806 29.9179 78.2271 29.9229 78.419C29.933 78.6108 29.9482 78.8078 29.9684 79.0098C29.7108 78.9997 29.4205 78.9946 29.0973 78.9946C28.7741 78.9896 28.4863 78.987 28.2338 78.987C28.1177 78.987 27.9687 78.987 27.7869 78.987C27.6051 78.987 27.4082 78.9896 27.1961 78.9946C26.9891 78.9946 26.777 78.9971 26.5599 79.0022C26.3478 79.0022 26.1433 79.0047 25.9463 79.0098V78.8583C26.118 78.8482 26.2468 78.828 26.3326 78.7977C26.4185 78.7674 26.474 78.7068 26.4993 78.6159C26.5296 78.525 26.5447 78.3887 26.5447 78.2069V74.4499C26.5447 74.2631 26.5296 74.1268 26.4993 74.0409C26.474 73.95 26.416 73.8894 26.3251 73.8591C26.2392 73.8238 26.113 73.8036 25.9463 73.7985V73.647C26.1433 73.6521 26.3478 73.6571 26.5599 73.6622C26.777 73.6622 26.9891 73.6647 27.1961 73.6698C27.4082 73.6698 27.6051 73.6698 27.7869 73.6698C27.9687 73.6698 28.1177 73.6698 28.2338 73.6698C28.4661 73.6698 28.7287 73.6698 29.0216 73.6698C29.3195 73.6647 29.5846 73.6571 29.8169 73.647ZM28.5595 76.2375C28.5595 76.2375 28.5595 76.2628 28.5595 76.3133C28.5595 76.3638 28.5595 76.389 28.5595 76.389H27.1885C27.1885 76.389 27.1885 76.3638 27.1885 76.3133C27.1885 76.2628 27.1885 76.2375 27.1885 76.2375H28.5595ZM28.7792 75.2377C28.759 75.5255 28.7489 75.7452 28.7489 75.8967C28.7539 76.0481 28.7565 76.187 28.7565 76.3133C28.7565 76.4395 28.759 76.5784 28.764 76.7299C28.7691 76.8813 28.7817 77.101 28.8019 77.3888H28.6277C28.6024 77.2222 28.5696 77.0631 28.5292 76.9116C28.4888 76.7551 28.4156 76.6289 28.3096 76.5329C28.2086 76.437 28.0495 76.389 27.8324 76.389V76.2375C27.994 76.2375 28.1202 76.2047 28.2111 76.139C28.307 76.0734 28.3803 75.9876 28.4308 75.8815C28.4813 75.7755 28.5166 75.6669 28.5368 75.5558C28.5621 75.4397 28.5848 75.3336 28.605 75.2377H28.7792ZM33.2041 73.541C33.5374 73.541 33.8101 73.5915 34.0221 73.6925C34.2393 73.7884 34.4312 73.902 34.5978 74.0333C34.6988 74.1091 34.7745 74.1192 34.825 74.0636C34.8806 74.003 34.9185 73.8642 34.9386 73.647H35.1129C35.1028 73.8389 35.0952 74.0712 35.0901 74.3439C35.0851 74.6115 35.0826 74.97 35.0826 75.4195H34.9084C34.873 75.1973 34.8377 75.0155 34.8023 74.8741C34.772 74.7327 34.7291 74.6115 34.6735 74.5105C34.623 74.4095 34.5524 74.3111 34.4615 74.2151C34.315 74.0333 34.1358 73.902 33.9237 73.8213C33.7116 73.7405 33.4869 73.7001 33.2495 73.7001C32.992 73.7001 32.7648 73.7657 32.5678 73.897C32.3709 74.0232 32.2043 74.205 32.0679 74.4424C31.9366 74.6797 31.8356 74.9599 31.7649 75.2831C31.6943 75.6063 31.6589 75.9598 31.6589 76.3436C31.6589 76.7374 31.6968 77.0959 31.7725 77.4191C31.8483 77.7373 31.9568 78.0125 32.0982 78.2447C32.2447 78.472 32.4189 78.6487 32.6209 78.775C32.8279 78.8961 33.0577 78.9567 33.3101 78.9567C33.5172 78.9567 33.7318 78.9163 33.954 78.8356C34.1762 78.7497 34.3529 78.6209 34.4842 78.4493C34.6256 78.2978 34.7215 78.1286 34.772 77.9418C34.8276 77.7499 34.873 77.4898 34.9084 77.1616H35.0826C35.0826 77.6262 35.0851 78.0024 35.0901 78.2902C35.0952 78.573 35.1028 78.8128 35.1129 79.0098H34.9386C34.9185 78.7926 34.8831 78.6563 34.8326 78.6007C34.7872 78.5452 34.7089 78.5528 34.5978 78.6235C34.411 78.7548 34.2115 78.8709 33.9994 78.9719C33.7924 79.0678 33.5247 79.1158 33.1965 79.1158C32.6966 79.1158 32.2598 79.0072 31.8861 78.7901C31.5125 78.573 31.2221 78.2599 31.0151 77.8509C30.808 77.4419 30.7045 76.9495 30.7045 76.3739C30.7045 75.8083 30.8106 75.3134 31.0226 74.8893C31.2398 74.4651 31.5352 74.1343 31.9089 73.897C32.2825 73.6597 32.7143 73.541 33.2041 73.541ZM39.0617 79.0098V78.8583C39.2334 78.8482 39.3622 78.828 39.448 78.7977C39.5338 78.7674 39.5894 78.7068 39.6146 78.6159C39.6449 78.525 39.6601 78.3887 39.6601 78.2069V74.4499C39.6601 74.2631 39.6449 74.1268 39.6146 74.0409C39.5894 73.95 39.5313 73.8894 39.4404 73.8591C39.3546 73.8238 39.2283 73.8036 39.0617 73.7985V73.647C39.1879 73.6521 39.3445 73.6571 39.5313 73.6622C39.7232 73.6672 39.9126 73.6698 40.0994 73.6698C40.3115 73.6698 40.5084 73.6672 40.6902 73.6622C40.872 73.6571 41.0184 73.6521 41.1295 73.647V73.7985C40.9629 73.8036 40.8367 73.8238 40.7508 73.8591C40.665 73.8894 40.6069 73.95 40.5766 74.0409C40.5463 74.1268 40.5312 74.2631 40.5312 74.4499V78.2069C40.5312 78.3887 40.5463 78.525 40.5766 78.6159C40.6069 78.7068 40.665 78.7674 40.7508 78.7977C40.8367 78.828 40.9629 78.8482 41.1295 78.8583V79.0098C41.0184 78.9997 40.872 78.9946 40.6902 78.9946C40.5084 78.9896 40.3115 78.987 40.0994 78.987C39.9126 78.987 39.7232 78.9896 39.5313 78.9946C39.3445 78.9946 39.1879 78.9997 39.0617 79.0098ZM35.8804 79.0098V78.8583C36.0521 78.8482 36.1809 78.828 36.2667 78.7977C36.3526 78.7674 36.4081 78.7068 36.4334 78.6159C36.4637 78.525 36.4788 78.3887 36.4788 78.2069V74.4499C36.4788 74.2631 36.4637 74.1268 36.4334 74.0409C36.4081 73.95 36.35 73.8894 36.2592 73.8591C36.1733 73.8238 36.0471 73.8036 35.8804 73.7985V73.647C35.9966 73.6521 36.1455 73.6571 36.3273 73.6622C36.5142 73.6672 36.7136 73.6698 36.9257 73.6698C37.1176 73.6698 37.3044 73.6672 37.4862 73.6622C37.6731 73.6571 37.8271 73.6521 37.9483 73.647V73.7985C37.7816 73.8036 37.6554 73.8238 37.5695 73.8591C37.4837 73.8894 37.4256 73.95 37.3953 74.0409C37.365 74.1268 37.3499 74.2631 37.3499 74.4499V78.2069C37.3499 78.3887 37.365 78.525 37.3953 78.6159C37.4256 78.7068 37.4837 78.7674 37.5695 78.7977C37.6554 78.828 37.7816 78.8482 37.9483 78.8583V79.0098C37.8271 78.9997 37.6731 78.9946 37.4862 78.9946C37.3044 78.9896 37.1176 78.987 36.9257 78.987C36.7136 78.987 36.5142 78.9896 36.3273 78.9946C36.1455 78.9946 35.9966 78.9997 35.8804 79.0098ZM37.009 76.389V76.2375H40.0009V76.389H37.009ZM46.5641 73.647V73.7985C46.3924 73.8086 46.2636 73.8389 46.1778 73.8894C46.092 73.9399 46.0339 74.0232 46.0036 74.1394C45.9783 74.2505 45.9657 74.4095 45.9657 74.6166V79.0401C45.9253 79.0401 45.8849 79.0401 45.8445 79.0401C45.8041 79.0401 45.7612 79.0401 45.7158 79.0401L42.5042 74.3742V78.0099C42.5042 78.222 42.5193 78.3887 42.5496 78.5099C42.5799 78.626 42.6456 78.7093 42.7466 78.7598C42.8476 78.8103 43.0016 78.8431 43.2086 78.8583V79.0098C43.1127 78.9997 42.9889 78.9946 42.8375 78.9946C42.691 78.9896 42.5522 78.987 42.4209 78.987C42.2946 78.987 42.1684 78.9896 42.0421 78.9946C41.9159 78.9946 41.8124 78.9997 41.7316 79.0098V78.8583C41.8982 78.8431 42.0245 78.8128 42.1103 78.7674C42.1962 78.7169 42.2542 78.6336 42.2845 78.5174C42.3148 78.4013 42.33 78.2422 42.33 78.0402V74.4499C42.33 74.2631 42.3148 74.1268 42.2845 74.0409C42.2542 73.95 42.1962 73.8894 42.1103 73.8591C42.0245 73.8238 41.8982 73.8036 41.7316 73.7985V73.647C41.8124 73.6521 41.9159 73.6571 42.0421 73.6622C42.1684 73.6672 42.2946 73.6698 42.4209 73.6698C42.532 73.6698 42.6405 73.6672 42.7466 73.6622C42.8526 73.6571 42.946 73.6521 43.0268 73.647L45.7915 77.6009V74.6469C45.7915 74.4297 45.7738 74.2631 45.7385 74.147C45.7082 74.0308 45.6425 73.9475 45.5415 73.897C45.4406 73.8415 45.2891 73.8086 45.0871 73.7985V73.647C45.178 73.6521 45.2992 73.6571 45.4507 73.6622C45.6021 73.6672 45.7435 73.6698 45.8748 73.6698C46.0011 73.6698 46.1273 73.6672 46.2535 73.6622C46.3798 73.6571 46.4833 73.6521 46.5641 73.647ZM49.6401 73.541C50.135 73.541 50.5692 73.6496 50.9429 73.8667C51.3216 74.0838 51.6145 74.3969 51.8215 74.8059C52.0286 75.2099 52.1321 75.7022 52.1321 76.283C52.1321 76.8485 52.0261 77.3434 51.814 77.7676C51.6019 78.1917 51.3065 78.5225 50.9278 78.7598C50.549 78.9971 50.1173 79.1158 49.6325 79.1158C49.1326 79.1158 48.6958 79.0072 48.3221 78.7901C47.9485 78.573 47.6581 78.2599 47.4511 77.8509C47.244 77.4419 47.1405 76.9495 47.1405 76.3739C47.1405 75.8083 47.2466 75.3134 47.4587 74.8893C47.6758 74.4651 47.9712 74.1343 48.3449 73.897C48.7185 73.6597 49.1503 73.541 49.6401 73.541ZM49.6098 73.6773C49.2967 73.6773 49.024 73.791 48.7918 74.0182C48.5595 74.2454 48.3802 74.5585 48.254 74.9574C48.1277 75.3563 48.0646 75.8184 48.0646 76.3436C48.0646 76.8788 48.1353 77.3459 48.2767 77.7448C48.4181 78.1387 48.61 78.4442 48.8524 78.6613C49.0947 78.8734 49.3649 78.9795 49.6628 78.9795C49.9759 78.9795 50.2461 78.8659 50.4733 78.6386C50.7056 78.4114 50.8848 78.0983 51.0111 77.6994C51.1424 77.2954 51.208 76.8334 51.208 76.3133C51.208 75.7729 51.1348 75.3059 50.9884 74.912C50.847 74.5181 50.6551 74.2151 50.4127 74.003C50.1754 73.7859 49.9077 73.6773 49.6098 73.6773ZM54.5091 73.5561C54.7767 73.5561 54.9812 73.5864 55.1226 73.647C55.264 73.7076 55.3877 73.7733 55.4937 73.844C55.5543 73.8793 55.6023 73.9071 55.6377 73.9273C55.6781 73.9424 55.7159 73.95 55.7513 73.95C55.8018 73.95 55.8371 73.9222 55.8573 73.8667C55.8826 73.8112 55.9028 73.7278 55.9179 73.6167H56.0921C56.0871 73.7076 56.0795 73.8162 56.0694 73.9424C56.0644 74.0636 56.0593 74.2252 56.0543 74.4272C56.0543 74.6292 56.0543 74.8943 56.0543 75.2225H55.88C55.8649 74.9751 55.8093 74.7352 55.7134 74.503C55.6225 74.2707 55.4862 74.0813 55.3044 73.9349C55.1276 73.7884 54.9004 73.7152 54.6227 73.7152C54.3651 73.7152 54.1505 73.7935 53.9788 73.95C53.8122 74.1015 53.7289 74.3035 53.7289 74.556C53.7289 74.7782 53.7844 74.965 53.8955 75.1165C54.0066 75.2629 54.1581 75.4018 54.35 75.5331C54.5469 75.6593 54.7691 75.8007 55.0166 75.9573C55.269 76.1188 55.4963 76.2804 55.6983 76.442C55.9002 76.5986 56.0593 76.7728 56.1754 76.9647C56.2916 77.1565 56.3497 77.3888 56.3497 77.6615C56.3497 77.9897 56.2714 78.2624 56.1148 78.4796C55.9634 78.6916 55.7588 78.8507 55.5013 78.9567C55.2438 79.0628 54.961 79.1158 54.653 79.1158C54.3702 79.1158 54.1455 79.0855 53.9788 79.0249C53.8122 78.9643 53.6708 78.9012 53.5547 78.8356C53.4436 78.7649 53.3577 78.7295 53.2971 78.7295C53.2466 78.7295 53.2088 78.7573 53.1835 78.8128C53.1633 78.8684 53.1457 78.9517 53.1305 79.0628H52.9563C52.9664 78.9517 52.9714 78.8229 52.9714 78.6765C52.9765 78.525 52.979 78.3281 52.979 78.0857C52.9841 77.8433 52.9866 77.5378 52.9866 77.1692H53.1608C53.181 77.4822 53.2366 77.7751 53.3274 78.0478C53.4234 78.3205 53.5673 78.5401 53.7592 78.7068C53.9561 78.8684 54.2162 78.9492 54.5394 78.9492C54.711 78.9492 54.8701 78.9163 55.0166 78.8507C55.163 78.7851 55.2817 78.6815 55.3726 78.5401C55.4634 78.3988 55.5089 78.217 55.5089 77.9948C55.5089 77.7878 55.4584 77.606 55.3574 77.4494C55.2615 77.2929 55.1251 77.149 54.9484 77.0177C54.7767 76.8813 54.5747 76.7425 54.3424 76.6011C54.1051 76.4496 53.8829 76.2981 53.6759 76.1466C53.4688 75.9951 53.3022 75.8184 53.176 75.6164C53.0548 75.4144 52.9942 75.1746 52.9942 74.8968C52.9942 74.5888 53.0649 74.3363 53.2063 74.1394C53.3527 73.9424 53.5395 73.796 53.7668 73.7001C53.999 73.6041 54.2465 73.5561 54.5091 73.5561ZM61.2106 73.647V73.7985C61.1096 73.8238 61.0061 73.8945 60.9001 74.0106C60.7991 74.1217 60.6855 74.2984 60.5592 74.5408L59.0671 77.5024H58.8625L57.0901 74.2303C56.9891 74.0485 56.9033 73.9323 56.8326 73.8819C56.7669 73.8314 56.7063 73.8061 56.6508 73.8061V73.647C56.7619 73.6521 56.878 73.6571 56.9992 73.6622C57.1204 73.6672 57.2517 73.6698 57.3931 73.6698C57.5749 73.6698 57.7718 73.6698 57.9839 73.6698C58.196 73.6647 58.3929 73.6571 58.5747 73.647V73.8061C58.4485 73.8061 58.3349 73.8187 58.2339 73.844C58.1379 73.8692 58.0723 73.9197 58.0369 73.9955C58.0066 74.0662 58.0268 74.1697 58.0975 74.306L59.3473 76.7071L59.2261 76.8359L60.1578 74.9801C60.3143 74.6721 60.3926 74.4348 60.3926 74.2681C60.3976 74.0965 60.3421 73.9778 60.226 73.9121C60.1149 73.8415 59.9533 73.8036 59.7412 73.7985V73.647C59.8977 73.6521 60.0517 73.6571 60.2032 73.6622C60.3547 73.6672 60.4986 73.6698 60.635 73.6698C60.7612 73.6698 60.8698 73.6672 60.9607 73.6622C61.0516 73.6571 61.1349 73.6521 61.2106 73.647ZM59.4685 76.5708V78.2069C59.4685 78.3887 59.4837 78.525 59.514 78.6159C59.5442 78.7068 59.6023 78.7674 59.6882 78.7977C59.774 78.828 59.9002 78.8482 60.0669 78.8583V79.0098C59.9457 78.9997 59.7917 78.9946 59.6048 78.9946C59.418 78.9896 59.2286 78.987 59.0368 78.987C58.8297 78.987 58.6328 78.9896 58.446 78.9946C58.2591 78.9946 58.1101 78.9997 57.9991 79.0098V78.8583C58.1707 78.8482 58.2995 78.828 58.3854 78.7977C58.4712 78.7674 58.5267 78.7068 58.552 78.6159C58.5823 78.525 58.5974 78.3887 58.5974 78.2069V76.6541L59.0898 77.1237L59.4685 76.5708ZM63.2449 73.5561C63.5125 73.5561 63.717 73.5864 63.8584 73.647C63.9998 73.7076 64.1235 73.7733 64.2295 73.844C64.2901 73.8793 64.3381 73.9071 64.3734 73.9273C64.4138 73.9424 64.4517 73.95 64.4871 73.95C64.5376 73.95 64.5729 73.9222 64.5931 73.8667C64.6184 73.8112 64.6386 73.7278 64.6537 73.6167H64.8279C64.8229 73.7076 64.8153 73.8162 64.8052 73.9424C64.8001 74.0636 64.7951 74.2252 64.79 74.4272C64.79 74.6292 64.79 74.8943 64.79 75.2225H64.6158C64.6007 74.9751 64.5451 74.7352 64.4492 74.503C64.3583 74.2707 64.222 74.0813 64.0402 73.9349C63.8634 73.7884 63.6362 73.7152 63.3585 73.7152C63.1009 73.7152 62.8863 73.7935 62.7146 73.95C62.548 74.1015 62.4647 74.3035 62.4647 74.556C62.4647 74.7782 62.5202 74.965 62.6313 75.1165C62.7424 75.2629 62.8939 75.4018 63.0858 75.5331C63.2827 75.6593 63.5049 75.8007 63.7523 75.9573C64.0048 76.1188 64.2321 76.2804 64.434 76.442C64.636 76.5986 64.7951 76.7728 64.9112 76.9647C65.0274 77.1565 65.0854 77.3888 65.0854 77.6615C65.0854 77.9897 65.0072 78.2624 64.8506 78.4796C64.6991 78.6916 64.4946 78.8507 64.2371 78.9567C63.9796 79.0628 63.6968 79.1158 63.3888 79.1158C63.106 79.1158 62.8813 79.0855 62.7146 79.0249C62.548 78.9643 62.4066 78.9012 62.2905 78.8356C62.1794 78.7649 62.0935 78.7295 62.0329 78.7295C61.9824 78.7295 61.9446 78.7573 61.9193 78.8128C61.8991 78.8684 61.8814 78.9517 61.8663 79.0628H61.6921C61.7022 78.9517 61.7072 78.8229 61.7072 78.6765C61.7123 78.525 61.7148 78.3281 61.7148 78.0857C61.7199 77.8433 61.7224 77.5378 61.7224 77.1692H61.8966C61.9168 77.4822 61.9723 77.7751 62.0632 78.0478C62.1592 78.3205 62.3031 78.5401 62.495 78.7068C62.6919 78.8684 62.952 78.9492 63.2751 78.9492C63.4468 78.9492 63.6059 78.9163 63.7523 78.8507C63.8988 78.7851 64.0174 78.6815 64.1083 78.5401C64.1992 78.3988 64.2447 78.217 64.2447 77.9948C64.2447 77.7878 64.1942 77.606 64.0932 77.4494C63.9972 77.2929 63.8609 77.149 63.6842 77.0177C63.5125 76.8813 63.3105 76.7425 63.0782 76.6011C62.8409 76.4496 62.6187 76.2981 62.4117 76.1466C62.2046 75.9951 62.038 75.8184 61.9117 75.6164C61.7906 75.4144 61.73 75.1746 61.73 74.8968C61.73 74.5888 61.8007 74.3363 61.942 74.1394C62.0885 73.9424 62.2753 73.796 62.5026 73.7001C62.7348 73.6041 62.9823 73.5561 63.2449 73.5561Z" fill="white"/>
<defs>
<linearGradient id="paint0_linear_102_49473" x1="36.454" y1="3.78711" x2="36.454" y2="58.702" gradientUnits="userSpaceOnUse">
<stop stop-color="#E0C772"/>
<stop offset="0.4" stop-color="#F9F7C4"/>
<stop offset="0.55" stop-color="#D5B676"/>
<stop offset="0.8" stop-color="#B78636"/>
</linearGradient>
<linearGradient id="paint1_linear_102_49473" x1="19.5742" y1="76.4643" x2="12.5742" y2="76.4643" gradientUnits="userSpaceOnUse">
<stop stop-color="white"/>
<stop offset="1" stop-color="#BA8B3A"/>
</linearGradient>
</defs>
</svg>
