<svg width="74" height="89" viewBox="0 0 74 89" fill="none" xmlns="http://www.w3.org/2000/svg">
<path d="M56.2922 38.2648L73.0118 65.8119C73.3875 66.4308 72.9595 67.218 72.2355 67.2222C68.6441 67.2432 60.3142 67.0628 60.3142 64.9365C60.3142 63.7529 62.2481 63.5811 61.7646 62.2258C61.3302 61.0079 53.088 47.3868 51.4207 44.6366C51.2383 44.3356 51.2419 43.9654 51.4234 43.6639L54.6716 38.2678C55.0388 37.6577 55.9227 37.6561 56.2922 38.2648Z" fill="white"/>
<path d="M17.5594 38.2648L0.839748 65.8119C0.464072 66.4308 0.892047 67.218 1.61608 67.2222C5.20747 67.2432 13.5373 67.0628 13.5373 64.9365C13.5373 63.7529 11.6034 63.5811 12.0869 62.2258C12.5214 61.0079 20.7636 47.3868 22.4308 44.6366C22.6133 44.3356 22.6097 43.9654 22.4281 43.6639L19.1799 38.2678C18.8127 37.6577 17.9288 37.6561 17.5594 38.2648Z" fill="white"/>
<path d="M36.2915 1.63539L25.8458 21.6042C25.6733 21.9338 25.7099 22.3339 25.9393 22.6268L29.5835 27.2803C30.0012 27.8138 30.8277 27.7486 31.1567 27.1562L36.2905 17.911C36.6571 17.2507 37.6113 17.2645 37.9588 17.935L42.7069 27.0964C43.0241 27.7084 43.868 27.7872 44.293 27.2445L47.9157 22.6185C48.1417 22.3299 48.1808 21.9367 48.0161 21.6093L37.9763 1.6488C37.6298 0.95983 36.649 0.952022 36.2915 1.63539Z" fill="white"/>
<path d="M35.6402 57.334L9.30359 13.0579C8.71238 12.064 10.079 11.0798 10.8343 11.9555L35.737 40.8282C36.1147 41.2661 36.7932 41.2661 37.1709 40.8282L62.0736 11.9555C62.8289 11.0798 64.1955 12.064 63.6043 13.0579L37.2677 57.334C36.9007 57.951 36.0073 57.951 35.6402 57.334Z" fill="url(#paint0_linear_102_49473)"/>
<path d="M10.248 73.6243L12.0886 78.3735C12.1643 78.5553 12.2451 78.6815 12.331 78.7522C12.4219 78.8179 12.5052 78.8532 12.5809 78.8583V79.0098C12.4497 78.9997 12.2906 78.9946 12.1038 78.9946C11.922 78.9896 11.7351 78.987 11.5432 78.987C11.3211 78.987 11.114 78.9896 10.9221 78.9946C10.7302 78.9946 10.5737 78.9997 10.4525 79.0098V78.8583C10.71 78.8482 10.8742 78.8053 10.9449 78.7295C11.0156 78.6487 11.0004 78.4796 10.8994 78.222L9.5663 74.6241L9.70264 74.4575L8.49073 77.6009C8.39479 77.8534 8.33672 78.0604 8.31652 78.222C8.29632 78.3836 8.30894 78.5099 8.35439 78.6007C8.39984 78.6916 8.47558 78.7573 8.58162 78.7977C8.68767 78.833 8.81896 78.8532 8.9755 78.8583V79.0098C8.81391 78.9997 8.65737 78.9946 8.50588 78.9946C8.35439 78.9896 8.2029 78.987 8.05141 78.987C7.94032 78.987 7.83428 78.9896 7.73328 78.9946C7.63734 78.9946 7.5515 78.9997 7.47575 79.0098V78.8583C7.58684 78.833 7.69541 78.7674 7.80145 78.6613C7.91255 78.5553 8.01859 78.371 8.11958 78.1084L9.85413 73.6243C9.91473 73.6294 9.98037 73.6319 10.0511 73.6319C10.1218 73.6319 10.1874 73.6294 10.248 73.6243ZM10.907 76.8283V76.9798H8.64979L8.72554 76.8283H10.907ZM17.0714 73.647V73.7985C16.9704 73.8339 16.8593 73.9147 16.7381 74.0409C16.617 74.1621 16.5084 74.354 16.4124 74.6166L14.7536 79.0325C14.7233 79.0325 14.6905 79.03 14.6552 79.0249C14.6249 79.0249 14.592 79.0249 14.5567 79.0249C14.5213 79.0249 14.486 79.0249 14.4507 79.0249C14.4204 79.03 14.3901 79.0325 14.3598 79.0325L12.4586 74.2833C12.3828 74.0965 12.2995 73.9702 12.2086 73.9046C12.1228 73.8389 12.042 73.8036 11.9662 73.7985V73.647C12.0975 73.6521 12.2566 73.6571 12.4434 73.6622C12.6353 73.6672 12.8221 73.6698 13.0039 73.6698C13.2261 73.6698 13.4331 73.6672 13.625 73.6622C13.822 73.6571 13.9785 73.6521 14.0947 73.647V73.7985C13.928 73.8036 13.7992 73.8238 13.7084 73.8591C13.6225 73.8894 13.5745 73.95 13.5644 74.0409C13.5543 74.1268 13.5821 74.258 13.6478 74.4348L15.0415 78.0175L14.8975 78.1917L16.0337 75.1619C16.16 74.8236 16.2231 74.556 16.2231 74.359C16.2231 74.1621 16.1675 74.0207 16.0564 73.9349C15.9453 73.849 15.7863 73.8036 15.5792 73.7985V73.647C15.7459 73.6521 15.9024 73.6571 16.0489 73.6622C16.2004 73.6672 16.3493 73.6698 16.4958 73.6698C16.617 73.6698 16.723 73.6672 16.8139 73.6622C16.9098 73.6571 16.9957 73.6521 17.0714 73.647Z" fill="url(#paint1_linear_102_49473)"/>
<path d="M25.441 73.647C25.4208 73.8591 25.4056 74.0662 25.3955 74.2681C25.3905 74.4651 25.388 74.6166 25.388 74.7226C25.388 74.8388 25.3905 74.9499 25.3955 75.0559C25.4006 75.1619 25.4056 75.2528 25.4107 75.3286H25.2365C25.186 74.9499 25.1178 74.6519 25.032 74.4348C24.9512 74.2177 24.8325 74.0611 24.676 73.9652C24.5194 73.8692 24.2947 73.8213 24.0018 73.8213H23.6761V78.1387C23.6761 78.3407 23.6938 78.4922 23.7291 78.5932C23.7695 78.6942 23.8453 78.7623 23.9564 78.7977C24.0725 78.828 24.2392 78.8482 24.4563 78.8583V79.0098C24.3149 78.9997 24.1331 78.9946 23.9109 78.9946C23.6887 78.9896 23.4615 78.987 23.2292 78.987C22.9868 78.987 22.7571 78.9896 22.54 78.9946C22.3279 78.9946 22.1562 78.9997 22.0249 79.0098V78.8583C22.242 78.8482 22.4061 78.828 22.5172 78.7977C22.6283 78.7623 22.7041 78.6942 22.7445 78.5932C22.7849 78.4922 22.8051 78.3407 22.8051 78.1387V73.8213H22.4718C22.189 73.8213 21.9668 73.8692 21.8052 73.9652C21.6436 74.0611 21.5225 74.2177 21.4417 74.4348C21.3609 74.6519 21.2952 74.9499 21.2447 75.3286H21.0705C21.0806 75.2528 21.0857 75.1619 21.0857 75.0559C21.0907 74.9499 21.0932 74.8388 21.0932 74.7226C21.0932 74.6166 21.0882 74.4651 21.0781 74.2681C21.073 74.0662 21.0604 73.8591 21.0402 73.647C21.2573 73.6521 21.4947 73.6571 21.7522 73.6622C22.0097 73.6672 22.2698 73.6698 22.5324 73.6698C22.795 73.6698 23.0323 73.6698 23.2444 73.6698C23.4565 73.6698 23.6913 73.6698 23.9488 73.6698C24.2063 73.6698 24.4664 73.6672 24.729 73.6622C24.9916 73.6571 25.2289 73.6521 25.441 73.647ZM29.8169 73.647C29.7967 73.8389 29.7815 74.0258 29.7714 74.2076C29.7664 74.3843 29.7639 74.5206 29.7639 74.6166C29.7639 74.7125 29.7664 74.8034 29.7714 74.8893C29.7765 74.9751 29.7815 75.0458 29.7866 75.1013H29.6124C29.577 74.7782 29.5215 74.5232 29.4457 74.3363C29.375 74.1495 29.2665 74.0182 29.12 73.9424C28.9786 73.8617 28.7792 73.8213 28.5217 73.8213H27.999C27.8374 73.8213 27.7137 73.8364 27.6279 73.8667C27.5471 73.8919 27.4915 73.9475 27.4612 74.0333C27.4309 74.1141 27.4158 74.2429 27.4158 74.4196V78.2372C27.4158 78.4089 27.4309 78.5376 27.4612 78.6235C27.4915 78.7093 27.5471 78.7674 27.6279 78.7977C27.7137 78.8229 27.8374 78.8356 27.999 78.8356H28.4914C28.7792 78.8356 29.0064 78.7901 29.1731 78.6992C29.3447 78.6083 29.4735 78.4594 29.5594 78.2523C29.6503 78.0453 29.7184 77.7625 29.7639 77.404H29.9381C29.9229 77.5504 29.9154 77.7423 29.9154 77.9796C29.9154 78.0806 29.9179 78.2271 29.9229 78.419C29.933 78.6108 29.9482 78.8078 29.9684 79.0098C29.7108 78.9997 29.4205 78.9946 29.0973 78.9946C28.7741 78.9896 28.4863 78.987 28.2338 78.987C28.1177 78.987 27.9687 78.987 27.7869 78.987C27.6051 78.987 27.4082 78.9896 27.1961 78.9946C26.9891 78.9946 26.777 78.9971 26.5599 79.0022C26.3478 79.0022 26.1433 79.0047 25.9463 79.0098V78.8583C26.118 78.8482 26.2468 78.828 26.3326 78.7977C26.4185 78.7674 26.474 78.7068 26.4993 78.6159C26.5296 78.525 26.5447 78.3887 26.5447 78.2069V74.4499C26.5447 74.2631 26.5296 74.1268 26.4993 74.0409C26.474 73.95 26.416 73.8894 26.3251 73.8591C26.2392 73.8238 26.113 73.8036 25.9463 73.7985V73.647C26.1433 73.6521 26.3478 73.6571 26.5599 73.6622C26.777 73.6622 26.9891 73.6647 27.1961 73.6698C27.4082 73.6698 27.6051 73.6698 27.7869 73.6698C27.9687 73.6698 28.1177 73.6698 28.2338 73.6698C28.4661 73.6698 28.7287 73.6698 29.0216 73.6698C29.3195 73.6647 29.5846 73.6571 29.8169 73.647ZM28.5595 76.2375C28.5595 76.2375 28.5595 76.2628 28.5595 76.3133C28.5595 76.3638 28.5595 76.389 28.5595 76.389H27.1885C27.1885 76.389 27.1885 76.3638 27.1885 76.3133C27.1885 76.2628 27.1885 76.2375 27.1885 76.2375H28.5595ZM28.7792 75.2377C28.759 75.5255 28.7489 75.7452 28.7489 75.8967C28.7539 76.0481 28.7565 76.187 28.7565 76.3133C28.7565 76.4395 28.759 76.5784 28.764 76.7299C28.7691 76.8813 28.7817 77.101 28.8019 77.3888H28.6277C28.6024 77.2222 28.5696 77.0631 28.5292 76.9116C28.4888 76.7551 28.4156 76.6289 28.3096 76.5329C28.2086 76.437 28.0495 76.389 27.8324 76.389V76.2375C27.994 76.2375 28.1202 76.2047 28.2111 76.139C28.307 76.0734 28.3803 75.9876 28.4308 75.8815C28.4813 75.7755 28.5166 75.6669 28.5368 75.5558C28.5621 75.4397 28.5848 75.3336 28.605 75.2377H28.7792ZM33.2041 73.541C33.5374 73.541 33.8101 73.5915 34.0221 73.6925C34.2393 73.7884 34.4312 73.902 34.5978 74.0333C34.6988 74.1091 34.7745 74.1192 34.825 74.0636C34.8806 74.003 34.9185 73.8642 34.9386 73.647H35.1129C35.1028 73.8389 35.0952 74.0712 35.0901 74.3439C35.0851 74.6115 35.0826 74.97 35.0826 75.4195H34.9084C34.873 75.1973 34.8377 75.0155 34.8023 74.8741C34.772 74.7327 34.7291 74.6115 34.6735 74.5105C34.623 74.4095 34.5524 74.3111 34.4615 74.2151C34.315 74.0333 34.1358 73.902 33.9237 73.8213C33.7116 73.7405 33.4869 73.7001 33.2495 73.7001C32.992 73.7001 32.7648 73.7657 32.5678 73.897C32.3709 74.0232 32.2043 74.205 32.0679 74.4424C31.9366 74.6797 31.8356 74.9599 31.7649 75.2831C31.6943 75.6063 31.6589 75.9598 31.6589 76.3436C31.6589 76.7374 31.6968 77.0959 31.7725 77.4191C31.8483 77.7373 31.9568 78.0125 32.0982 78.2447C32.2447 78.472 32.4189 78.6487 32.6209 78.775C32.8279 78.8961 33.0577 78.9567 33.3101 78.9567C33.5172 78.9567 33.7318 78.9163 33.954 78.8356C34.1762 78.7497 34.3529 78.6209 34.4842 78.4493C34.6256 78.2978 34.7215 78.1286 34.772 77.9418C34.8276 77.7499 34.873 77.4898 34.9084 77.1616H35.0826C35.0826 77.6262 35.0851 78.0024 35.0901 78.2902C35.0952 78.573 35.1028 78.8128 35.1129 79.0098H34.9386C34.9185 78.7926 34.8831 78.6563 34.8326 78.6007C34.7872 78.5452 34.7089 78.5528 34.5978 78.6235C34.411 78.7548 34.2115 78.8709 33.9994 78.9719C33.7924 79.0678 33.5247 79.1158 33.1965 79.1158C32.6966 79.1158 32.2598 79.0072 31.8861 78.7901C31.5125 78.573 31.2221 78.2599 31.0151 77.8509C30.808 77.4419 30.7045 76.9495 30.7045 76.3739C30.7045 75.8083 30.8106 75.3134 31.0226 74.8893C31.2398 74.4651 31.5352 74.1343 31.9089 73.897C32.2825 73.6597 32.7143 73.541 33.2041 73.541ZM39.0617 79.0098V78.8583C39.2334 78.8482 39.3622 78.828 39.448 78.7977C39.5338 78.7674 39.5894 78.7068 39.6146 78.6159C39.6449 78.525 39.6601 78.3887 39.6601 78.2069V74.4499C39.6601 74.2631 39.6449 74.1268 39.6146 74.0409C39.5894 73.95 39.5313 73.8894 39.4404 73.8591C39.3546 73.8238 39.2283 73.8036 39.0617 73.7985V73.647C39.1879 73.6521 39.3445 73.6571 39.5313 73.6622C39.7232 73.6672 39.9126 73.6698 40.0994 73.6698C40.3115 73.6698 40.5084 73.6672 40.6902 73.6622C40.872 73.6571 41.0184 73.6521 41.1295 73.647V73.7985C40.9629 73.8036 40.8367 73.8238 40.7508 73.8591C40.665 73.8894 40.6069 73.95 40.5766 74.0409C40.5463 74.1268 40.5312 74.2631 40.5312 74.4499V78.2069C40.5312 78.3887 40.5463 78.525 40.5766 78.6159C40.6069 78.7068 40.665 78.7674 40.7508 78.7977C40.8367 78.828 40.9629 78.8482 41.1295 78.8583V79.0098C41.0184 78.9997 40.872 78.9946 40.6902 78.9946C40.5084 78.9896 40.3115 78.987 40.0994 78.987C39.9126 78.987 39.7232 78.9896 39.5313 78.9946C39.3445 78.9946 39.1879 78.9997 39.0617 79.0098ZM35.8804 79.0098V78.8583C36.0521 78.8482 36.1809 78.828 36.2667 78.7977C36.3526 78.7674 36.4081 78.7068 36.4334 78.6159C36.4637 78.525 36.4788 78.3887 36.4788 78.2069V74.4499C36.4788 74.2631 36.4637 74.1268 36.4334 74.0409C36.4081 73.95 36.35 73.8894 36.2592 73.8591C36.1733 73.8238 36.0471 73.8036 35.8804 73.7985V73.647C35.9966 73.6521 36.1455 73.6571 36.3273 73.6622C36.5142 73.6672 36.7136 73.6698 36.9257 73.6698C37.1176 73.6698 37.3044 73.6672 37.4862 73.6622C37.6731 73.6571 37.8271 73.6521 37.9483 73.647V73.7985C37.7816 73.8036 37.6554 73.8238 37.5695 73.8591C37.4837 73.8894 37.4256 73.95 37.3953 74.0409C37.365 74.1268 37.3499 74.2631 37.3499 74.4499V78.2069C37.3499 78.3887 37.365 78.525 37.3953 78.6159C37.4256 78.7068 37.4837 78.7674 37.5695 78.7977C37.6554 78.828 37.7816 78.8482 37.9483 78.8583V79.0098C37.8271 78.9997 37.6731 78.9946 37.4862 78.9946C37.3044 78.9896 37.1176 78.987 36.9257 78.987C36.7136 78.987 36.5142 78.9896 36.3273 78.9946C36.1455 78.9946 35.9966 78.9997 35.8804 79.0098ZM37.009 76.389V76.2375H40.0009V76.389H37.009ZM46.5641 73.647V73.7985C46.3924 73.8086 46.2636 73.8389 46.1778 73.8894C46.092 73.9399 46.0339 74.0232 46.0036 74.1394C45.9783 74.2505 45.9657 74.4095 45.9657 74.6166V79.0401C45.9253 79.0401 45.8849 79.0401 45.8445 79.0401C45.8041 79.0401 45.7612 79.0401 45.7158 79.0401L42.5042 74.3742V78.0099C42.5042 78.222 42.5193 78.3887 42.5496 78.5099C42.5799 78.626 42.6456 78.7093 42.7466 78.7598C42.8476 78.8103 43.0016 78.8431 43.2086 78.8583V79.0098C43.1127 78.9997 42.9889 78.9946 42.8375 78.9946C42.691 78.9896 42.5522 78.987 42.4209 78.987C42.2946 78.987 42.1684 78.9896 42.0421 78.9946C41.9159 78.9946 41.8124 78.9997 41.7316 79.0098V78.8583C41.8982 78.8431 42.0245 78.8128 42.1103 78.7674C42.1962 78.7169 42.2542 78.6336 42.2845 78.5174C42.3148 78.4013 42.33 78.2422 42.33 78.0402V74.4499C42.33 74.2631 42.3148 74.1268 42.2845 74.0409C42.2542 73.95 42.1962 73.8894 42.1103 73.8591C42.0245 73.8238 41.8982 73.8036 41.7316 73.7985V73.647C41.8124 73.6521 41.9159 73.6571 42.0421 73.6622C42.1684 73.6672 42.2946 73.6698 42.4209 73.6698C42.532 73.6698 42.6405 73.6672 42.7466 73.6622C42.8526 73.6571 42.946 73.6521 43.0268 73.647L45.7915 77.6009V74.6469C45.7915 74.4297 45.7738 74.2631 45.7385 74.147C45.7082 74.0308 45.6425 73.9475 45.5415 73.897C45.4406 73.8415 45.2891 73.8086 45.0871 73.7985V73.647C45.178 73.6521 45.2992 73.6571 45.4507 73.6622C45.6021 73.6672 45.7435 73.6698 45.8748 73.6698C46.0011 73.6698 46.1273 73.6672 46.2535 73.6622C46.3798 73.6571 46.4833 73.6521 46.5641 73.647ZM49.6401 73.541C50.135 73.541 50.5692 73.6496 50.9429 73.8667C51.3216 74.0838 51.6145 74.3969 51.8215 74.8059C52.0286 75.2099 52.1321 75.7022 52.1321 76.283C52.1321 76.8485 52.0261 77.3434 51.814 77.7676C51.6019 78.1917 51.3065 78.5225 50.9278 78.7598C50.549 78.9971 50.1173 79.1158 49.6325 79.1158C49.1326 79.1158 48.6958 79.0072 48.3221 78.7901C47.9485 78.573 47.6581 78.2599 47.4511 77.8509C47.244 77.4419 47.1405 76.9495 47.1405 76.3739C47.1405 75.8083 47.2466 75.3134 47.4587 74.8893C47.6758 74.4651 47.9712 74.1343 48.3449 73.897C48.7185 73.6597 49.1503 73.541 49.6401 73.541ZM49.6098 73.6773C49.2967 73.6773 49.024 73.791 48.7918 74.0182C48.5595 74.2454 48.3802 74.5585 48.254 74.9574C48.1277 75.3563 48.0646 75.8184 48.0646 76.3436C48.0646 76.8788 48.1353 77.3459 48.2767 77.7448C48.4181 78.1387 48.61 78.4442 48.8524 78.6613C49.0947 78.8734 49.3649 78.9795 49.6628 78.9795C49.9759 78.9795 50.2461 78.8659 50.4733 78.6386C50.7056 78.4114 50.8848 78.0983 51.0111 77.6994C51.1424 77.2954 51.208 76.8334 51.208 76.3133C51.208 75.7729 51.1348 75.3059 50.9884 74.912C50.847 74.5181 50.6551 74.2151 50.4127 74.003C50.1754 73.7859 49.9077 73.6773 49.6098 73.6773ZM54.5091 73.5561C54.7767 73.5561 54.9812 73.5864 55.1226 73.647C55.264 73.7076 55.3877 73.7733 55.4937 73.844C55.5543 73.8793 55.6023 73.9071 55.6377 73.9273C55.6781 73.9424 55.7159 73.95 55.7513 73.95C55.8018 73.95 55.8371 73.9222 55.8573 73.8667C55.8826 73.8112 55.9028 73.7278 55.9179 73.6167H56.0921C56.0871 73.7076 56.0795 73.8162 56.0694 73.9424C56.0644 74.0636 56.0593 74.2252 56.0543 74.4272C56.0543 74.6292 56.0543 74.8943 56.0543 75.2225H55.88C55.8649 74.9751 55.8093 74.7352 55.7134 74.503C55.6225 74.2707 55.4862 74.0813 55.3044 73.9349C55.1276 73.7884 54.9004 73.7152 54.6227 73.7152C54.3651 73.7152 54.1505 73.7935 53.9788 73.95C53.8122 74.1015 53.7289 74.3035 53.7289 74.556C53.7289 74.7782 53.7844 74.965 53.8955 75.1165C54.0066 75.2629 54.1581 75.4018 54.35 75.5331C54.5469 75.6593 54.7691 75.8007 55.0166 75.9573C55.269 76.1188 55.4963 76.2804 55.6983 76.442C55.9002 76.5986 56.0593 76.7728 56.1754 76.9647C56.2916 77.1565 56.3497 77.3888 56.3497 77.6615C56.3497 77.9897 56.2714 78.2624 56.1148 78.4796C55.9634 78.6916 55.7588 78.8507 55.5013 78.9567C55.2438 79.0628 54.961 79.1158 54.653 79.1158C54.3702 79.1158 54.1455 79.0855 53.9788 79.0249C53.8122 78.9643 53.6708 78.9012 53.5547 78.8356C53.4436 78.7649 53.3577 78.7295 53.2971 78.7295C53.2466 78.7295 53.2088 78.7573 53.1835 78.8128C53.1633 78.8684 53.1457 78.9517 53.1305 79.0628H52.9563C52.9664 78.9517 52.9714 78.8229 52.9714 78.6765C52.9765 78.525 52.979 78.3281 52.979 78.0857C52.9841 77.8433 52.9866 77.5378 52.9866 77.1692H53.1608C53.181 77.4822 53.2366 77.7751 53.3274 78.0478C53.4234 78.3205 53.5673 78.5401 53.7592 78.7068C53.9561 78.8684 54.2162 78.9492 54.5394 78.9492C54.711 78.9492 54.8701 78.9163 55.0166 78.8507C55.163 78.7851 55.2817 78.6815 55.3726 78.5401C55.4634 78.3988 55.5089 78.217 55.5089 77.9948C55.5089 77.7878 55.4584 77.606 55.3574 77.4494C55.2615 77.2929 55.1251 77.149 54.9484 77.0177C54.7767 76.8813 54.5747 76.7425 54.3424 76.6011C54.1051 76.4496 53.8829 76.2981 53.6759 76.1466C53.4688 75.9951 53.3022 75.8184 53.176 75.6164C53.0548 75.4144 52.9942 75.1746 52.9942 74.8968C52.9942 74.5888 53.0649 74.3363 53.2063 74.1394C53.3527 73.9424 53.5395 73.796 53.7668 73.7001C53.999 73.6041 54.2465 73.5561 54.5091 73.5561ZM61.2106 73.647V73.7985C61.1096 73.8238 61.0061 73.8945 60.9001 74.0106C60.7991 74.1217 60.6855 74.2984 60.5592 74.5408L59.0671 77.5024H58.8625L57.0901 74.2303C56.9891 74.0485 56.9033 73.9323 56.8326 73.8819C56.7669 73.8314 56.7063 73.8061 56.6508 73.8061V73.647C56.7619 73.6521 56.878 73.6571 56.9992 73.6622C57.1204 73.6672 57.2517 73.6698 57.3931 73.6698C57.5749 73.6698 57.7718 73.6698 57.9839 73.6698C58.196 73.6647 58.3929 73.6571 58.5747 73.647V73.8061C58.4485 73.8061 58.3349 73.8187 58.2339 73.844C58.1379 73.8692 58.0723 73.9197 58.0369 73.9955C58.0066 74.0662 58.0268 74.1697 58.0975 74.306L59.3473 76.7071L59.2261 76.8359L60.1578 74.9801C60.3143 74.6721 60.3926 74.4348 60.3926 74.2681C60.3976 74.0965 60.3421 73.9778 60.226 73.9121C60.1149 73.8415 59.9533 73.8036 59.7412 73.7985V73.647C59.8977 73.6521 60.0517 73.6571 60.2032 73.6622C60.3547 73.6672 60.4986 73.6698 60.635 73.6698C60.7612 73.6698 60.8698 73.6672 60.9607 73.6622C61.0516 73.6571 61.1349 73.6521 61.2106 73.647ZM59.4685 76.5708V78.2069C59.4685 78.3887 59.4837 78.525 59.514 78.6159C59.5442 78.7068 59.6023 78.7674 59.6882 78.7977C59.774 78.828 59.9002 78.8482 60.0669 78.8583V79.0098C59.9457 78.9997 59.7917 78.9946 59.6048 78.9946C59.418 78.9896 59.2286 78.987 59.0368 78.987C58.8297 78.987 58.6328 78.9896 58.446 78.9946C58.2591 78.9946 58.1101 78.9997 57.9991 79.0098V78.8583C58.1707 78.8482 58.2995 78.828 58.3854 78.7977C58.4712 78.7674 58.5267 78.7068 58.552 78.6159C58.5823 78.525 58.5974 78.3887 58.5974 78.2069V76.6541L59.0898 77.1237L59.4685 76.5708ZM63.2449 73.5561C63.5125 73.5561 63.717 73.5864 63.8584 73.647C63.9998 73.7076 64.1235 73.7733 64.2295 73.844C64.2901 73.8793 64.3381 73.9071 64.3734 73.9273C64.4138 73.9424 64.4517 73.95 64.4871 73.95C64.5376 73.95 64.5729 73.9222 64.5931 73.8667C64.6184 73.8112 64.6386 73.7278 64.6537 73.6167H64.8279C64.8229 73.7076 64.8153 73.8162 64.8052 73.9424C64.8001 74.0636 64.7951 74.2252 64.79 74.4272C64.79 74.6292 64.79 74.8943 64.79 75.2225H64.6158C64.6007 74.9751 64.5451 74.7352 64.4492 74.503C64.3583 74.2707 64.222 74.0813 64.0402 73.9349C63.8634 73.7884 63.6362 73.7152 63.3585 73.7152C63.1009 73.7152 62.8863 73.7935 62.7146 73.95C62.548 74.1015 62.4647 74.3035 62.4647 74.556C62.4647 74.7782 62.5202 74.965 62.6313 75.1165C62.7424 75.2629 62.8939 75.4018 63.0858 75.5331C63.2827 75.6593 63.5049 75.8007 63.7523 75.9573C64.0048 76.1188 64.2321 76.2804 64.434 76.442C64.636 76.5986 64.7951 76.7728 64.9112 76.9647C65.0274 77.1565 65.0854 77.3888 65.0854 77.6615C65.0854 77.9897 65.0072 78.2624 64.8506 78.4796C64.6991 78.6916 64.4946 78.8507 64.2371 78.9567C63.9796 79.0628 63.6968 79.1158 63.3888 79.1158C63.106 79.1158 62.8813 79.0855 62.7146 79.0249C62.548 78.9643 62.4066 78.9012 62.2905 78.8356C62.1794 78.7649 62.0935 78.7295 62.0329 78.7295C61.9824 78.7295 61.9446 78.7573 61.9193 78.8128C61.8991 78.8684 61.8814 78.9517 61.8663 79.0628H61.6921C61.7022 78.9517 61.7072 78.8229 61.7072 78.6765C61.7123 78.525 61.7148 78.3281 61.7148 78.0857C61.7199 77.8433 61.7224 77.5378 61.7224 77.1692H61.8966C61.9168 77.4822 61.9723 77.7751 62.0632 78.0478C62.1592 78.3205 62.3031 78.5401 62.495 78.7068C62.6919 78.8684 62.952 78.9492 63.2751 78.9492C63.4468 78.9492 63.6059 78.9163 63.7523 78.8507C63.8988 78.7851 64.0174 78.6815 64.1083 78.5401C64.1992 78.3988 64.2447 78.217 64.2447 77.9948C64.2447 77.7878 64.1942 77.606 64.0932 77.4494C63.9972 77.2929 63.8609 77.149 63.6842 77.0177C63.5125 76.8813 63.3105 76.7425 63.0782 76.6011C62.8409 76.4496 62.6187 76.2981 62.4117 76.1466C62.2046 75.9951 62.038 75.8184 61.9117 75.6164C61.7906 75.4144 61.73 75.1746 61.73 74.8968C61.73 74.5888 61.8007 74.3363 61.942 74.1394C62.0885 73.9424 62.2753 73.796 62.5026 73.7001C62.7348 73.6041 62.9823 73.5561 63.2449 73.5561Z" fill="white"/>
<line x1="0.945312" y1="82.2547" x2="72.9028" y2="82.2547" stroke="white" stroke-width="0.236702"/>
<path d="M7.0857 84.0213V84.116C6.97839 84.1192 6.89634 84.1318 6.83953 84.1539C6.78588 84.1728 6.74958 84.2107 6.73065 84.2675C6.71171 84.3212 6.70224 84.4064 6.70224 84.5232V86.8712C6.70224 86.9849 6.71171 87.0701 6.73065 87.1269C6.74958 87.1837 6.78588 87.2216 6.83953 87.2405C6.89634 87.2594 6.97839 87.2721 7.0857 87.2784V87.373C7.01311 87.3667 6.92158 87.3636 6.81112 87.3636C6.70382 87.3604 6.59494 87.3588 6.48447 87.3588C6.36139 87.3588 6.24619 87.3604 6.13889 87.3636C6.03158 87.3636 5.94479 87.3667 5.87852 87.373V87.2784C5.98582 87.2721 6.0663 87.2594 6.11995 87.2405C6.17676 87.2216 6.21463 87.1837 6.23357 87.1269C6.25251 87.0701 6.26197 86.9849 6.26197 86.8712V84.5232C6.26197 84.4064 6.25251 84.3212 6.23357 84.2675C6.21463 84.2107 6.17676 84.1728 6.11995 84.1539C6.0663 84.1318 5.98582 84.1192 5.87852 84.116V84.0213C5.94479 84.0245 6.03158 84.0277 6.13889 84.0308C6.24619 84.034 6.36139 84.0355 6.48447 84.0355C6.59494 84.0355 6.70382 84.034 6.81112 84.0308C6.92158 84.0277 7.01311 84.0245 7.0857 84.0213ZM9.01182 84.8687C9.13175 84.8687 9.23117 84.8845 9.31007 84.9161C9.39213 84.9476 9.45998 84.9918 9.51363 85.0486C9.5736 85.1118 9.6162 85.1907 9.64145 85.2853C9.6667 85.38 9.67932 85.5078 9.67932 85.6688V86.9328C9.67932 87.0653 9.70615 87.1553 9.7598 87.2026C9.81661 87.25 9.90971 87.2736 10.0391 87.2736V87.373C9.98546 87.3699 9.9034 87.3667 9.79294 87.3636C9.68248 87.3573 9.57518 87.3541 9.47103 87.3541C9.36688 87.3541 9.26431 87.3573 9.16331 87.3636C9.06548 87.3667 8.99131 87.3699 8.94081 87.373V87.2736C9.05443 87.2736 9.13491 87.25 9.18225 87.2026C9.22959 87.1553 9.25326 87.0653 9.25326 86.9328V85.5646C9.25326 85.4668 9.24537 85.3769 9.22959 85.2948C9.21381 85.2127 9.17752 85.1465 9.12071 85.096C9.06706 85.0455 8.98342 85.0202 8.8698 85.0202C8.73725 85.0202 8.62048 85.0581 8.51948 85.1338C8.42165 85.2096 8.34432 85.3137 8.28752 85.4463C8.23386 85.5757 8.20704 85.7209 8.20704 85.8818V86.9328C8.20704 87.0653 8.23071 87.1553 8.27805 87.2026C8.32539 87.25 8.40587 87.2736 8.51948 87.2736V87.373C8.46899 87.3699 8.39324 87.3667 8.29225 87.3636C8.19441 87.3573 8.09342 87.3541 7.98927 87.3541C7.88512 87.3541 7.77782 87.3573 7.66736 87.3636C7.5569 87.3667 7.47484 87.3699 7.42119 87.373V87.2736C7.55058 87.2736 7.64211 87.25 7.69576 87.2026C7.75257 87.1553 7.78097 87.0653 7.78097 86.9328V85.451C7.78097 85.309 7.75573 85.2049 7.70523 85.1386C7.65473 85.0691 7.56005 85.0344 7.42119 85.0344V84.935C7.52218 84.9445 7.62002 84.9492 7.7147 84.9492C7.80622 84.9492 7.89301 84.9445 7.97507 84.935C8.06028 84.9224 8.1376 84.905 8.20704 84.8829V85.4416C8.28909 85.2269 8.40271 85.0786 8.54789 84.9966C8.69622 84.9113 8.85087 84.8687 9.01182 84.8687ZM11.8365 84.8687C11.9565 84.8687 12.0559 84.8845 12.1348 84.9161C12.2168 84.9476 12.2847 84.9918 12.3383 85.0486C12.3983 85.1118 12.4409 85.1907 12.4662 85.2853C12.4914 85.38 12.504 85.5078 12.504 85.6688V86.9328C12.504 87.0653 12.5309 87.1553 12.5845 87.2026C12.6413 87.25 12.7344 87.2736 12.8638 87.2736V87.373C12.8102 87.3699 12.7281 87.3667 12.6176 87.3636C12.5072 87.3573 12.3999 87.3541 12.2957 87.3541C12.1916 87.3541 12.089 87.3573 11.988 87.3636C11.8902 87.3667 11.816 87.3699 11.7655 87.373V87.2736C11.8791 87.2736 11.9596 87.25 12.007 87.2026C12.0543 87.1553 12.078 87.0653 12.078 86.9328V85.5646C12.078 85.4668 12.0701 85.3769 12.0543 85.2948C12.0385 85.2127 12.0022 85.1465 11.9454 85.096C11.8918 85.0455 11.8081 85.0202 11.6945 85.0202C11.562 85.0202 11.4452 85.0581 11.3442 85.1338C11.2464 85.2096 11.169 85.3137 11.1122 85.4463C11.0586 85.5757 11.0317 85.7209 11.0317 85.8818V86.9328C11.0317 87.0653 11.0554 87.1553 11.1028 87.2026C11.1501 87.25 11.2306 87.2736 11.3442 87.2736V87.373C11.2937 87.3699 11.218 87.3667 11.117 87.3636C11.0191 87.3573 10.9181 87.3541 10.814 87.3541C10.7098 87.3541 10.6025 87.3573 10.4921 87.3636C10.3816 87.3667 10.2995 87.3699 10.2459 87.373V87.2736C10.3753 87.2736 10.4668 87.25 10.5205 87.2026C10.5773 87.1553 10.6057 87.0653 10.6057 86.9328V85.451C10.6057 85.309 10.5804 85.2049 10.5299 85.1386C10.4794 85.0691 10.3848 85.0344 10.2459 85.0344V84.935C10.3469 84.9445 10.4447 84.9492 10.5394 84.9492C10.6309 84.9492 10.7177 84.9445 10.7998 84.935C10.885 84.9224 10.9623 84.905 11.0317 84.8829V85.4416C11.1138 85.2269 11.2274 85.0786 11.3726 84.9966C11.5209 84.9113 11.6756 84.8687 11.8365 84.8687ZM14.2304 84.8687C14.4324 84.8687 14.6139 84.9129 14.7749 85.0013C14.9358 85.0897 15.0636 85.2285 15.1583 85.4179C15.2562 85.6072 15.3051 85.8534 15.3051 86.1564C15.3051 86.4594 15.2562 86.7055 15.1583 86.8949C15.0636 87.0811 14.9358 87.2184 14.7749 87.3068C14.6139 87.3951 14.4324 87.4393 14.2304 87.4393C14.0316 87.4393 13.8501 87.3951 13.686 87.3068C13.5251 87.2184 13.3957 87.0811 13.2978 86.8949C13.2032 86.7055 13.1558 86.4594 13.1558 86.1564C13.1558 85.8534 13.2032 85.6072 13.2978 85.4179C13.3957 85.2285 13.5251 85.0897 13.686 85.0013C13.8501 84.9129 14.0316 84.8687 14.2304 84.8687ZM14.2304 84.9634C14.0505 84.9634 13.9022 85.0565 13.7854 85.2427C13.6718 85.4289 13.615 85.7335 13.615 86.1564C13.615 86.5793 13.6718 86.8839 13.7854 87.0701C13.9022 87.2531 14.0505 87.3446 14.2304 87.3446C14.4103 87.3446 14.5571 87.2531 14.6707 87.0701C14.7875 86.8839 14.8459 86.5793 14.8459 86.1564C14.8459 85.7335 14.7875 85.4289 14.6707 85.2427C14.5571 85.0565 14.4103 84.9634 14.2304 84.9634ZM17.7952 84.935V85.0297C17.7353 85.036 17.6801 85.0628 17.6296 85.1102C17.5791 85.1575 17.5317 85.2411 17.4875 85.3611L16.7112 87.3967C16.6985 87.3967 16.6859 87.3967 16.6733 87.3967C16.6607 87.3967 16.6465 87.3967 16.6307 87.3967L15.7596 85.2995C15.7091 85.1765 15.6586 85.1023 15.6081 85.077C15.5608 85.0486 15.5198 85.0344 15.485 85.0344V84.935C15.5482 84.9382 15.6129 84.9429 15.6791 84.9492C15.7486 84.9524 15.8227 84.954 15.9016 84.954C15.9995 84.954 16.102 84.9524 16.2093 84.9492C16.3198 84.9461 16.4224 84.9413 16.5171 84.935V85.0344C16.4382 85.0344 16.3671 85.0407 16.304 85.0534C16.2441 85.0628 16.2046 85.0928 16.1857 85.1433C16.1699 85.1938 16.1857 85.2806 16.233 85.4037L16.8248 86.8665L16.7964 86.8902L17.336 85.4747C17.3771 85.3705 17.3929 85.2885 17.3834 85.2285C17.3771 85.1654 17.3455 85.1181 17.2887 85.0865C17.2351 85.0549 17.1514 85.036 17.0378 85.0297V84.935C17.0946 84.9382 17.1435 84.9413 17.1846 84.9445C17.2256 84.9445 17.265 84.9461 17.3029 84.9492C17.3439 84.9492 17.3881 84.9492 17.4355 84.9492C17.5081 84.9492 17.5727 84.9476 17.6296 84.9445C17.6895 84.9413 17.7448 84.9382 17.7952 84.935ZM18.5925 87.4062C18.4631 87.4062 18.351 87.3825 18.2563 87.3352C18.1617 87.2847 18.0891 87.2152 18.0386 87.1269C17.9912 87.0385 17.9676 86.9359 17.9676 86.8192C17.9676 86.6803 17.9991 86.5667 18.0622 86.4783C18.1285 86.3899 18.2122 86.3189 18.3131 86.2653C18.4141 86.2116 18.5199 86.1674 18.6303 86.1327C18.7439 86.0949 18.8512 86.0601 18.9522 86.0286C19.0532 85.9939 19.1353 85.9544 19.1984 85.9102C19.2647 85.866 19.2978 85.8077 19.2978 85.7351V85.4416C19.2978 85.309 19.2773 85.208 19.2363 85.1386C19.1984 85.0691 19.1463 85.0234 19.0801 85.0013C19.0138 84.976 18.9396 84.9634 18.8576 84.9634C18.7787 84.9634 18.6934 84.9745 18.6019 84.9966C18.5136 85.0186 18.4425 85.0644 18.3889 85.1338C18.4489 85.1465 18.5009 85.178 18.5451 85.2285C18.5893 85.279 18.6114 85.3437 18.6114 85.4226C18.6114 85.5015 18.5861 85.5646 18.5356 85.612C18.4851 85.6562 18.4205 85.6783 18.3416 85.6783C18.25 85.6783 18.1822 85.6499 18.138 85.593C18.097 85.5331 18.0764 85.4668 18.0764 85.3942C18.0764 85.3122 18.097 85.2459 18.138 85.1954C18.179 85.1449 18.2311 85.0976 18.2942 85.0534C18.3668 85.0029 18.4599 84.9603 18.5735 84.9255C18.6903 84.8877 18.8213 84.8687 18.9664 84.8687C19.0958 84.8687 19.2063 84.8845 19.2978 84.9161C19.3894 84.9445 19.4651 84.9871 19.5251 85.0439C19.6071 85.1196 19.6608 85.2127 19.686 85.3232C19.7113 85.4305 19.7239 85.5599 19.7239 85.7114V87.0275C19.7239 87.1064 19.7349 87.1632 19.757 87.1979C19.7823 87.2326 19.8201 87.25 19.8706 87.25C19.9054 87.25 19.9385 87.2421 19.9701 87.2263C20.0016 87.2105 20.0395 87.1853 20.0837 87.1505L20.1358 87.231C20.0695 87.2815 20.0064 87.3241 19.9464 87.3588C19.8864 87.3904 19.8059 87.4062 19.705 87.4062C19.6134 87.4062 19.5377 87.3904 19.4777 87.3588C19.4178 87.3273 19.372 87.2815 19.3404 87.2216C19.312 87.1584 19.2978 87.0795 19.2978 86.9849C19.2126 87.1269 19.11 87.2326 18.9901 87.302C18.8733 87.3715 18.7408 87.4062 18.5925 87.4062ZM18.7629 87.2168C18.867 87.2168 18.9633 87.1868 19.0517 87.1269C19.1432 87.0669 19.2252 86.977 19.2978 86.857V85.9292C19.26 85.9828 19.2047 86.0286 19.1321 86.0665C19.0595 86.1012 18.9806 86.1375 18.8954 86.1753C18.8102 86.2101 18.7282 86.2527 18.6493 86.3032C18.5735 86.3505 18.5104 86.4136 18.4599 86.4925C18.4094 86.5714 18.3842 86.674 18.3842 86.8002C18.3842 86.9265 18.4173 87.0275 18.4836 87.1032C18.553 87.179 18.6461 87.2168 18.7629 87.2168ZM21.0402 84.1492V84.9397H21.7408V85.0344H21.0402V86.8665C21.0402 87.0148 21.067 87.119 21.1207 87.179C21.1743 87.2389 21.2485 87.2689 21.3432 87.2689C21.4378 87.2689 21.5199 87.231 21.5893 87.1553C21.6588 87.0764 21.7187 86.9454 21.7692 86.7624L21.8639 86.786C21.8323 86.9691 21.7692 87.1237 21.6745 87.25C21.583 87.3762 21.441 87.4393 21.2485 87.4393C21.1412 87.4393 21.0528 87.4251 20.9834 87.3967C20.9139 87.3715 20.8524 87.3336 20.7987 87.2831C20.7293 87.2105 20.6804 87.1237 20.652 87.0227C20.6267 86.9217 20.6141 86.7876 20.6141 86.6203V85.0344H20.1596V84.9397H20.6141V84.2154C20.693 84.2123 20.7688 84.206 20.8413 84.1965C20.9139 84.187 20.9802 84.1713 21.0402 84.1492ZM23.1019 84.8687C23.3797 84.8687 23.5958 84.954 23.7505 85.1244C23.9083 85.2916 23.9872 85.5536 23.9872 85.9102H22.3161L22.3113 85.8203H23.5327C23.539 85.6656 23.5264 85.5236 23.4949 85.3942C23.4633 85.2617 23.4128 85.1559 23.3434 85.077C23.2771 84.9981 23.1903 84.9587 23.083 84.9587C22.9378 84.9587 22.8084 85.0313 22.6948 85.1765C22.5843 85.3216 22.5181 85.552 22.496 85.8676L22.5102 85.8866C22.5039 85.9339 22.4991 85.986 22.496 86.0428C22.4928 86.0996 22.4912 86.1564 22.4912 86.2132C22.4912 86.4278 22.526 86.6124 22.5954 86.7671C22.6648 86.9217 22.7548 87.0401 22.8652 87.1221C22.9788 87.201 23.0956 87.2405 23.2155 87.2405C23.3102 87.2405 23.4002 87.2263 23.4854 87.1979C23.5706 87.1663 23.6495 87.1158 23.7221 87.0464C23.7947 86.977 23.8578 86.8839 23.9114 86.7671L24.0061 86.805C23.9714 86.9091 23.9146 87.0101 23.8357 87.1079C23.7568 87.2058 23.6574 87.2863 23.5375 87.3494C23.4175 87.4093 23.2787 87.4393 23.1209 87.4393C22.8936 87.4393 22.698 87.3872 22.5338 87.2831C22.3729 87.179 22.2482 87.0354 22.1599 86.8523C22.0746 86.6661 22.032 86.4531 22.032 86.2132C22.032 85.9355 22.0762 85.6972 22.1646 85.4984C22.253 85.2964 22.3776 85.1417 22.5386 85.0344C22.6995 84.924 22.8873 84.8687 23.1019 84.8687ZM24.8055 86.8334C24.8749 86.8334 24.9318 86.8476 24.9759 86.876C25.0201 86.9044 25.0564 86.9407 25.0848 86.9849C25.1195 87.0354 25.1416 87.0906 25.1511 87.1505C25.1606 87.2105 25.1653 87.2594 25.1653 87.2973C25.1653 87.4519 25.1259 87.5924 25.047 87.7186C24.9681 87.8449 24.845 87.9474 24.6777 88.0263L24.6351 87.9411C24.7329 87.9001 24.8166 87.8354 24.886 87.747C24.9586 87.6587 24.9949 87.5687 24.9949 87.4772C24.9949 87.4393 24.9901 87.4062 24.9807 87.3778C24.9302 87.4188 24.8718 87.4393 24.8055 87.4393C24.7235 87.4393 24.6524 87.4125 24.5925 87.3588C24.5325 87.3052 24.5025 87.231 24.5025 87.1363C24.5025 87.048 24.5325 86.9754 24.5925 86.9186C24.6524 86.8618 24.7235 86.8334 24.8055 86.8334ZM28.0283 84.0213V84.116C27.921 84.1192 27.8389 84.1318 27.7821 84.1539C27.7285 84.1728 27.6922 84.2107 27.6732 84.2675C27.6543 84.3212 27.6448 84.4064 27.6448 84.5232V86.8712C27.6448 86.9849 27.6543 87.0701 27.6732 87.1269C27.6922 87.1837 27.7285 87.2216 27.7821 87.2405C27.8389 87.2594 27.921 87.2721 28.0283 87.2784V87.373C27.9557 87.3667 27.8642 87.3636 27.7537 87.3636C27.6464 87.3604 27.5375 87.3588 27.4271 87.3588C27.304 87.3588 27.1888 87.3604 27.0815 87.3636C26.9742 87.3636 26.8874 87.3667 26.8211 87.373V87.2784C26.9284 87.2721 27.0089 87.2594 27.0625 87.2405C27.1194 87.2216 27.1572 87.1837 27.1762 87.1269C27.1951 87.0701 27.2046 86.9849 27.2046 86.8712V84.5232C27.2046 84.4064 27.1951 84.3212 27.1762 84.2675C27.1572 84.2107 27.1194 84.1728 27.0625 84.1539C27.0089 84.1318 26.9284 84.1192 26.8211 84.116V84.0213C26.8874 84.0245 26.9742 84.0277 27.0815 84.0308C27.1888 84.034 27.304 84.0355 27.4271 84.0355C27.5375 84.0355 27.6464 84.034 27.7537 84.0308C27.8642 84.0277 27.9557 84.0245 28.0283 84.0213ZM29.926 84.8687C30.0365 84.8687 30.1327 84.8845 30.2148 84.9161C30.2968 84.9476 30.3647 84.9918 30.4184 85.0486C30.4783 85.1118 30.5193 85.1938 30.5414 85.2948C30.5635 85.3958 30.5746 85.5205 30.5746 85.6688V86.9328C30.5746 87.0653 30.6014 87.1553 30.6551 87.2026C30.7119 87.25 30.805 87.2736 30.9344 87.2736V87.373C30.8807 87.3699 30.7987 87.3667 30.6882 87.3636C30.5777 87.3573 30.4704 87.3541 30.3663 87.3541C30.2621 87.3541 30.1596 87.3573 30.0586 87.3636C29.9607 87.3667 29.8866 87.3699 29.8361 87.373V87.2736C29.9497 87.2736 30.0302 87.25 30.0775 87.2026C30.1248 87.1553 30.1485 87.0653 30.1485 86.9328V85.5646C30.1485 85.4668 30.1422 85.3769 30.1296 85.2948C30.117 85.2127 30.0854 85.1465 30.0349 85.096C29.9844 85.0455 29.9023 85.0202 29.7887 85.0202C29.6656 85.0202 29.5552 85.0581 29.4573 85.1338C29.3627 85.2096 29.2869 85.3137 29.2301 85.4463C29.1765 85.5757 29.1496 85.7209 29.1496 85.8818V86.9328C29.1496 87.0653 29.1733 87.1553 29.2206 87.2026C29.268 87.25 29.3485 87.2736 29.4621 87.2736V87.373C29.4116 87.3699 29.3358 87.3667 29.2348 87.3636C29.137 87.3573 29.036 87.3541 28.9319 87.3541C28.8277 87.3541 28.7204 87.3573 28.6099 87.3636C28.4995 87.3667 28.4174 87.3699 28.3638 87.373V87.2736C28.4932 87.2736 28.5847 87.25 28.6384 87.2026C28.6952 87.1553 28.7236 87.0653 28.7236 86.9328V85.451C28.7236 85.309 28.6983 85.2049 28.6478 85.1386C28.5973 85.0691 28.5026 85.0344 28.3638 85.0344V84.935C28.4648 84.9445 28.5626 84.9492 28.6573 84.9492C28.7488 84.9492 28.8356 84.9445 28.9177 84.935C29.0029 84.9224 29.0802 84.905 29.1496 84.8829V85.4416C29.2317 85.2364 29.3437 85.0897 29.4857 85.0013C29.6278 84.9129 29.7745 84.8687 29.926 84.8687ZM31.351 84.8687C31.4614 84.8687 31.5577 84.8845 31.6397 84.9161C31.7218 84.9476 31.7896 84.9918 31.8433 85.0486C31.9033 85.1118 31.9443 85.1938 31.9664 85.2948C31.9885 85.3958 31.9995 85.5205 31.9995 85.6688V86.9328C31.9995 87.0653 32.0263 87.1553 32.08 87.2026C32.1368 87.25 32.2299 87.2736 32.3593 87.2736V87.373C32.3057 87.3699 32.2236 87.3667 32.1131 87.3636C32.0027 87.3573 31.8954 87.3541 31.7912 87.3541C31.6871 87.3541 31.5845 87.3573 31.4835 87.3636C31.3857 87.3667 31.3115 87.3699 31.261 87.373V87.2736C31.3746 87.2736 31.4551 87.25 31.5024 87.2026C31.5498 87.1553 31.5735 87.0653 31.5735 86.9328V85.5646C31.5735 85.4668 31.5671 85.3769 31.5545 85.2948C31.5419 85.2127 31.5103 85.1465 31.4598 85.096C31.4093 85.0455 31.3273 85.0202 31.2137 85.0202C31.0906 85.0202 30.9801 85.0581 30.8823 85.1338C30.7876 85.2096 30.7119 85.3122 30.6551 85.4416C30.6014 85.571 30.5746 85.7161 30.5746 85.8771L30.5604 85.4368C30.6456 85.2191 30.7608 85.0707 30.906 84.9918C31.0511 84.9098 31.1995 84.8687 31.351 84.8687ZM33.3189 84.8829V87.7896C33.3189 87.9254 33.3583 88.0153 33.4372 88.0595C33.5193 88.1068 33.6313 88.1305 33.7733 88.1305V88.2299C33.7039 88.2268 33.6077 88.222 33.4846 88.2157C33.3615 88.2126 33.2305 88.211 33.0916 88.211C32.9938 88.211 32.896 88.2126 32.7981 88.2157C32.7035 88.222 32.6309 88.2268 32.5804 88.2299V88.1305C32.694 88.1305 32.7745 88.11 32.8218 88.069C32.8691 88.0279 32.8928 87.9506 32.8928 87.837V85.451C32.8928 85.309 32.8676 85.2049 32.8171 85.1386C32.7666 85.0691 32.6719 85.0344 32.533 85.0344V84.935C32.634 84.9445 32.7319 84.9492 32.8265 84.9492C32.9181 84.9492 33.0049 84.9445 33.0869 84.935C33.1721 84.9224 33.2494 84.905 33.3189 84.8829ZM34.0763 84.8687C34.2436 84.8687 34.3935 84.9145 34.5261 85.006C34.6586 85.0944 34.7628 85.2254 34.8385 85.399C34.9174 85.5725 34.9569 85.7871 34.9569 86.0428C34.9569 86.2132 34.9363 86.3821 34.8953 86.5493C34.8543 86.7134 34.7896 86.8633 34.7012 86.9991C34.616 87.1316 34.504 87.2389 34.3651 87.321C34.2294 87.3999 34.0653 87.4393 33.8728 87.4393C33.7244 87.4393 33.595 87.4046 33.4846 87.3352C33.3773 87.2657 33.3047 87.1821 33.2668 87.0843L33.3141 87.018C33.3583 87.1064 33.4214 87.1805 33.5035 87.2405C33.5887 87.3005 33.6944 87.3304 33.8207 87.3304C33.9974 87.3304 34.1347 87.2752 34.2325 87.1647C34.3304 87.0543 34.3982 86.9075 34.4361 86.7245C34.4771 86.5383 34.4977 86.3331 34.4977 86.1091C34.4977 85.8566 34.4771 85.6499 34.4361 85.4889C34.3951 85.3279 34.3335 85.208 34.2515 85.1291C34.1694 85.0502 34.0684 85.0108 33.9485 85.0108C33.7939 85.0108 33.6534 85.0755 33.5272 85.2049C33.4009 85.3311 33.3205 85.5236 33.2857 85.7824L33.2289 85.7161C33.2636 85.4479 33.3583 85.2396 33.513 85.0912C33.6708 84.9429 33.8586 84.8687 34.0763 84.8687ZM36.0696 83.6616V86.9328C36.0696 87.0653 36.0964 87.1553 36.1501 87.2026C36.2069 87.25 36.3 87.2736 36.4294 87.2736V87.373C36.3757 87.3699 36.2937 87.3667 36.1832 87.3636C36.0759 87.3573 35.967 87.3541 35.8566 87.3541C35.7493 87.3541 35.6404 87.3573 35.5299 87.3636C35.4195 87.3667 35.3374 87.3699 35.2838 87.373V87.2736C35.4132 87.2736 35.5047 87.25 35.5583 87.2026C35.6151 87.1553 35.6436 87.0653 35.6436 86.9328V84.2296C35.6436 84.0876 35.6183 83.9835 35.5678 83.9172C35.5173 83.8478 35.4226 83.813 35.2838 83.813V83.7136C35.3848 83.7231 35.4826 83.7278 35.5773 83.7278C35.6688 83.7278 35.7556 83.7231 35.8376 83.7136C35.9229 83.701 36.0002 83.6836 36.0696 83.6616ZM37.7756 84.8687C38.0533 84.8687 38.2695 84.954 38.4242 85.1244C38.582 85.2916 38.6609 85.5536 38.6609 85.9102H36.9898L36.985 85.8203H38.2064C38.2127 85.6656 38.2001 85.5236 38.1685 85.3942C38.137 85.2617 38.0865 85.1559 38.017 85.077C37.9508 84.9981 37.864 84.9587 37.7567 84.9587C37.6115 84.9587 37.4821 85.0313 37.3685 85.1765C37.258 85.3216 37.1917 85.552 37.1697 85.8676L37.1839 85.8866C37.1775 85.9339 37.1728 85.986 37.1697 86.0428C37.1665 86.0996 37.1649 86.1564 37.1649 86.2132C37.1649 86.4278 37.1996 86.6124 37.2691 86.7671C37.3385 86.9217 37.4284 87.0401 37.5389 87.1221C37.6525 87.201 37.7693 87.2405 37.8892 87.2405C37.9839 87.2405 38.0739 87.2263 38.1591 87.1979C38.2443 87.1663 38.3232 87.1158 38.3958 87.0464C38.4684 86.977 38.5315 86.8839 38.5851 86.7671L38.6798 86.805C38.6451 86.9091 38.5883 87.0101 38.5094 87.1079C38.4305 87.2058 38.3311 87.2863 38.2111 87.3494C38.0912 87.4093 37.9523 87.4393 37.7945 87.4393C37.5673 87.4393 37.3716 87.3872 37.2075 87.2831C37.0466 87.179 36.9219 87.0354 36.8335 86.8523C36.7483 86.6661 36.7057 86.4531 36.7057 86.2132C36.7057 85.9355 36.7499 85.6972 36.8383 85.4984C36.9266 85.2964 37.0513 85.1417 37.2123 85.0344C37.3732 84.924 37.561 84.8687 37.7756 84.8687ZM40.5822 84.8687C40.6927 84.8687 40.789 84.8845 40.871 84.9161C40.9531 84.9476 41.0209 84.9918 41.0746 85.0486C41.1345 85.1118 41.1756 85.1938 41.1977 85.2948C41.2197 85.3958 41.2308 85.5205 41.2308 85.6688V86.9328C41.2308 87.0653 41.2576 87.1553 41.3113 87.2026C41.3681 87.25 41.4612 87.2736 41.5906 87.2736V87.373C41.5369 87.3699 41.4549 87.3667 41.3444 87.3636C41.234 87.3573 41.1266 87.3541 41.0225 87.3541C40.9183 87.3541 40.8158 87.3573 40.7148 87.3636C40.6169 87.3667 40.5428 87.3699 40.4923 87.373V87.2736C40.6059 87.2736 40.6864 87.25 40.7337 87.2026C40.7811 87.1553 40.8047 87.0653 40.8047 86.9328V85.5646C40.8047 85.4668 40.7984 85.3769 40.7858 85.2948C40.7732 85.2127 40.7416 85.1465 40.6911 85.096C40.6406 85.0455 40.5586 85.0202 40.4449 85.0202C40.3219 85.0202 40.2114 85.0581 40.1136 85.1338C40.0189 85.2096 39.9431 85.3137 39.8863 85.4463C39.8327 85.5757 39.8058 85.7209 39.8058 85.8818V86.9328C39.8058 87.0653 39.8295 87.1553 39.8769 87.2026C39.9242 87.25 40.0047 87.2736 40.1183 87.2736V87.373C40.0678 87.3699 39.9921 87.3667 39.8911 87.3636C39.7932 87.3573 39.6922 87.3541 39.5881 87.3541C39.4839 87.3541 39.3766 87.3573 39.2662 87.3636C39.1557 87.3667 39.0736 87.3699 39.02 87.373V87.2736C39.1494 87.2736 39.2409 87.25 39.2946 87.2026C39.3514 87.1553 39.3798 87.0653 39.3798 86.9328V85.451C39.3798 85.309 39.3545 85.2049 39.304 85.1386C39.2535 85.0691 39.1589 85.0344 39.02 85.0344V84.935C39.121 84.9445 39.2188 84.9492 39.3135 84.9492C39.405 84.9492 39.4918 84.9445 39.5739 84.935C39.6591 84.9224 39.7364 84.905 39.8058 84.8829V85.4416C39.8879 85.2364 39.9999 85.0897 40.142 85.0013C40.284 84.9129 40.4307 84.8687 40.5822 84.8687ZM42.0072 84.8687C42.1176 84.8687 42.2139 84.8845 42.296 84.9161C42.378 84.9476 42.4459 84.9918 42.4995 85.0486C42.5595 85.1118 42.6005 85.1938 42.6226 85.2948C42.6447 85.3958 42.6557 85.5205 42.6557 85.6688V86.9328C42.6557 87.0653 42.6826 87.1553 42.7362 87.2026C42.793 87.25 42.8861 87.2736 43.0155 87.2736V87.373C42.9619 87.3699 42.8798 87.3667 42.7694 87.3636C42.6589 87.3573 42.5516 87.3541 42.4474 87.3541C42.3433 87.3541 42.2407 87.3573 42.1397 87.3636C42.0419 87.3667 41.9677 87.3699 41.9172 87.373V87.2736C42.0308 87.2736 42.1113 87.25 42.1587 87.2026C42.206 87.1553 42.2297 87.0653 42.2297 86.9328V85.5646C42.2297 85.4668 42.2234 85.3769 42.2107 85.2948C42.1981 85.2127 42.1666 85.1465 42.1161 85.096C42.0656 85.0455 41.9835 85.0202 41.8699 85.0202C41.7468 85.0202 41.6363 85.0581 41.5385 85.1338C41.4438 85.2096 41.3681 85.3122 41.3113 85.4416C41.2576 85.571 41.2308 85.7161 41.2308 85.8771L41.2166 85.4368C41.3018 85.2191 41.417 85.0707 41.5622 84.9918C41.7074 84.9098 41.8557 84.8687 42.0072 84.8687ZM44.3728 84.8687C44.6505 84.8687 44.8667 84.954 45.0213 85.1244C45.1791 85.2916 45.258 85.5536 45.258 85.9102H43.5869L43.5822 85.8203H44.8036C44.8099 85.6656 44.7972 85.5236 44.7657 85.3942C44.7341 85.2617 44.6836 85.1559 44.6142 85.077C44.5479 84.9981 44.4611 84.9587 44.3538 84.9587C44.2086 84.9587 44.0792 85.0313 43.9656 85.1765C43.8552 85.3216 43.7889 85.552 43.7668 85.8676L43.781 85.8866C43.7747 85.9339 43.77 85.986 43.7668 86.0428C43.7636 86.0996 43.7621 86.1564 43.7621 86.2132C43.7621 86.4278 43.7968 86.6124 43.8662 86.7671C43.9356 86.9217 44.0256 87.0401 44.1361 87.1221C44.2497 87.201 44.3664 87.2405 44.4864 87.2405C44.5811 87.2405 44.671 87.2263 44.7562 87.1979C44.8414 87.1663 44.9203 87.1158 44.9929 87.0464C45.0655 86.977 45.1286 86.8839 45.1823 86.7671L45.277 86.805C45.2422 86.9091 45.1854 87.0101 45.1065 87.1079C45.0276 87.2058 44.9282 87.2863 44.8083 87.3494C44.6884 87.4093 44.5495 87.4393 44.3917 87.4393C44.1645 87.4393 43.9688 87.3872 43.8047 87.2831C43.6437 87.179 43.5191 87.0354 43.4307 86.8523C43.3455 86.6661 43.3029 86.4531 43.3029 86.2132C43.3029 85.9355 43.347 85.6972 43.4354 85.4984C43.5238 85.2964 43.6484 85.1417 43.8094 85.0344C43.9704 84.924 44.1581 84.8687 44.3728 84.8687ZM47.2078 84.8687C47.3277 84.8687 47.4271 84.8845 47.506 84.9161C47.5881 84.9476 47.6559 84.9918 47.7096 85.0486C47.7696 85.1118 47.8122 85.1907 47.8374 85.2853C47.8627 85.38 47.8753 85.5078 47.8753 85.6688V86.9328C47.8753 87.0653 47.9021 87.1553 47.9558 87.2026C48.0126 87.25 48.1057 87.2736 48.2351 87.2736V87.373C48.1814 87.3699 48.0994 87.3667 47.9889 87.3636C47.8784 87.3573 47.7711 87.3541 47.667 87.3541C47.5628 87.3541 47.4603 87.3573 47.3593 87.3636C47.2614 87.3667 47.1873 87.3699 47.1368 87.373V87.2736C47.2504 87.2736 47.3309 87.25 47.3782 87.2026C47.4255 87.1553 47.4492 87.0653 47.4492 86.9328V85.5646C47.4492 85.4668 47.4413 85.3769 47.4255 85.2948C47.4098 85.2127 47.3735 85.1465 47.3167 85.096C47.263 85.0455 47.1794 85.0202 47.0658 85.0202C46.9332 85.0202 46.8164 85.0581 46.7154 85.1338C46.6176 85.2096 46.5403 85.3137 46.4835 85.4463C46.4298 85.5757 46.403 85.7209 46.403 85.8818V86.9328C46.403 87.0653 46.4267 87.1553 46.474 87.2026C46.5213 87.25 46.6018 87.2736 46.7154 87.2736V87.373C46.6649 87.3699 46.5892 87.3667 46.4882 87.3636C46.3904 87.3573 46.2894 87.3541 46.1852 87.3541C46.0811 87.3541 45.9738 87.3573 45.8633 87.3636C45.7529 87.3667 45.6708 87.3699 45.6171 87.373V87.2736C45.7465 87.2736 45.8381 87.25 45.8917 87.2026C45.9485 87.1553 45.9769 87.0653 45.9769 86.9328V85.451C45.9769 85.309 45.9517 85.2049 45.9012 85.1386C45.8507 85.0691 45.756 85.0344 45.6171 85.0344V84.935C45.7181 84.9445 45.816 84.9492 45.9107 84.9492C46.0022 84.9492 46.089 84.9445 46.171 84.935C46.2562 84.9224 46.3336 84.905 46.403 84.8829V85.4416C46.485 85.2269 46.5987 85.0786 46.7438 84.9966C46.8922 84.9113 47.0468 84.8687 47.2078 84.8687ZM49.204 84.1492V84.9397H49.9047V85.0344H49.204V86.8665C49.204 87.0148 49.2309 87.119 49.2845 87.179C49.3382 87.2389 49.4123 87.2689 49.507 87.2689C49.6017 87.2689 49.6837 87.231 49.7532 87.1553C49.8226 87.0764 49.8826 86.9454 49.9331 86.7624L50.0278 86.786C49.9962 86.9691 49.9331 87.1237 49.8384 87.25C49.7469 87.3762 49.6048 87.4393 49.4123 87.4393C49.305 87.4393 49.2167 87.4251 49.1472 87.3967C49.0778 87.3715 49.0162 87.3336 48.9626 87.2831C48.8932 87.2105 48.8442 87.1237 48.8158 87.0227C48.7906 86.9217 48.778 86.7876 48.778 86.6203V85.0344H48.3235V84.9397H48.778V84.2154C48.8569 84.2123 48.9326 84.206 49.0052 84.1965C49.0778 84.187 49.1441 84.1713 49.204 84.1492ZM50.5746 86.8334C50.644 86.8334 50.7009 86.8476 50.745 86.876C50.7892 86.9044 50.8255 86.9407 50.8539 86.9849C50.8886 87.0354 50.9107 87.0906 50.9202 87.1505C50.9297 87.2105 50.9344 87.2594 50.9344 87.2973C50.9344 87.4519 50.8949 87.5924 50.816 87.7186C50.7371 87.8449 50.6141 87.9474 50.4468 88.0263L50.4042 87.9411C50.502 87.9001 50.5857 87.8354 50.6551 87.747C50.7277 87.6587 50.764 87.5687 50.764 87.4772C50.764 87.4393 50.7592 87.4062 50.7498 87.3778C50.6993 87.4188 50.6409 87.4393 50.5746 87.4393C50.4926 87.4393 50.4215 87.4125 50.3616 87.3588C50.3016 87.3052 50.2716 87.231 50.2716 87.1363C50.2716 87.048 50.3016 86.9754 50.3616 86.9186C50.4215 86.8618 50.4926 86.8334 50.5746 86.8334ZM53.7974 84.0213V84.116C53.6901 84.1192 53.608 84.1318 53.5512 84.1539C53.4976 84.1728 53.4613 84.2107 53.4423 84.2675C53.4234 84.3212 53.4139 84.4064 53.4139 84.5232V86.8712C53.4139 86.9849 53.4234 87.0701 53.4423 87.1269C53.4613 87.1837 53.4976 87.2216 53.5512 87.2405C53.608 87.2594 53.6901 87.2721 53.7974 87.2784V87.373C53.7248 87.3667 53.6333 87.3636 53.5228 87.3636C53.4155 87.3604 53.3066 87.3588 53.1962 87.3588C53.0731 87.3588 52.9579 87.3604 52.8506 87.3636C52.7433 87.3636 52.6565 87.3667 52.5902 87.373V87.2784C52.6975 87.2721 52.778 87.2594 52.8316 87.2405C52.8884 87.2216 52.9263 87.1837 52.9453 87.1269C52.9642 87.0701 52.9737 86.9849 52.9737 86.8712V84.5232C52.9737 84.4064 52.9642 84.3212 52.9453 84.2675C52.9263 84.2107 52.8884 84.1728 52.8316 84.1539C52.778 84.1318 52.6975 84.1192 52.5902 84.116V84.0213C52.6565 84.0245 52.7433 84.0277 52.8506 84.0308C52.9579 84.034 53.0731 84.0355 53.1962 84.0355C53.3066 84.0355 53.4155 84.034 53.5228 84.0308C53.6333 84.0277 53.7248 84.0245 53.7974 84.0213ZM55.7235 84.8687C55.8434 84.8687 55.9429 84.8845 56.0218 84.9161C56.1038 84.9476 56.1717 84.9918 56.2253 85.0486C56.2853 85.1118 56.3279 85.1907 56.3531 85.2853C56.3784 85.38 56.391 85.5078 56.391 85.6688V86.9328C56.391 87.0653 56.4178 87.1553 56.4715 87.2026C56.5283 87.25 56.6214 87.2736 56.7508 87.2736V87.373C56.6971 87.3699 56.6151 87.3667 56.5046 87.3636C56.3942 87.3573 56.2869 87.3541 56.1827 87.3541C56.0786 87.3541 55.976 87.3573 55.875 87.3636C55.7772 87.3667 55.703 87.3699 55.6525 87.373V87.2736C55.7661 87.2736 55.8466 87.25 55.8939 87.2026C55.9413 87.1553 55.9649 87.0653 55.9649 86.9328V85.5646C55.9649 85.4668 55.9571 85.3769 55.9413 85.2948C55.9255 85.2127 55.8892 85.1465 55.8324 85.096C55.7787 85.0455 55.6951 85.0202 55.5815 85.0202C55.4489 85.0202 55.3322 85.0581 55.2312 85.1338C55.1333 85.2096 55.056 85.3137 54.9992 85.4463C54.9456 85.5757 54.9187 85.7209 54.9187 85.8818V86.9328C54.9187 87.0653 54.9424 87.1553 54.9897 87.2026C55.0371 87.25 55.1176 87.2736 55.2312 87.2736V87.373C55.1807 87.3699 55.1049 87.3667 55.0039 87.3636C54.9061 87.3573 54.8051 87.3541 54.701 87.3541C54.5968 87.3541 54.4895 87.3573 54.379 87.3636C54.2686 87.3667 54.1865 87.3699 54.1329 87.373V87.2736C54.2623 87.2736 54.3538 87.25 54.4074 87.2026C54.4643 87.1553 54.4927 87.0653 54.4927 86.9328V85.451C54.4927 85.309 54.4674 85.2049 54.4169 85.1386C54.3664 85.0691 54.2717 85.0344 54.1329 85.0344V84.935C54.2339 84.9445 54.3317 84.9492 54.4264 84.9492C54.5179 84.9492 54.6047 84.9445 54.6868 84.935C54.772 84.9224 54.8493 84.905 54.9187 84.8829V85.4416C55.0008 85.2269 55.1144 85.0786 55.2596 84.9966C55.4079 84.9113 55.5626 84.8687 55.7235 84.8687ZM57.805 84.8687C57.9312 84.8687 58.0385 84.8893 58.1269 84.9303C58.2153 84.9713 58.28 85.0092 58.321 85.0439C58.4251 85.1291 58.4883 85.0723 58.5103 84.8735H58.6192C58.6129 84.9618 58.6082 85.0676 58.605 85.1907C58.6019 85.3106 58.6003 85.4731 58.6003 85.6783H58.4914C58.4725 85.5615 58.4393 85.4479 58.392 85.3374C58.3478 85.2269 58.2815 85.137 58.1932 85.0676C58.1048 84.995 57.9896 84.9587 57.8476 84.9587C57.7371 84.9587 57.644 84.9902 57.5683 85.0534C57.4957 85.1133 57.4594 85.2033 57.4594 85.3232C57.4594 85.4179 57.4878 85.4999 57.5446 85.5694C57.6014 85.6357 57.6756 85.6988 57.7671 85.7587C57.8586 85.8155 57.958 85.8787 58.0653 85.9481C58.1853 86.0238 58.2942 86.1012 58.392 86.1801C58.4898 86.259 58.5672 86.3458 58.624 86.4404C58.6839 86.5351 58.7139 86.6472 58.7139 86.7766C58.7139 86.9217 58.676 87.0432 58.6003 87.1411C58.5245 87.2389 58.4251 87.3131 58.302 87.3636C58.1821 87.4141 58.0496 87.4393 57.9044 87.4393C57.835 87.4393 57.7687 87.433 57.7056 87.4204C57.6456 87.4109 57.5872 87.3951 57.5304 87.373C57.4988 87.3573 57.4657 87.3383 57.431 87.3162C57.3994 87.2941 57.3679 87.2705 57.3363 87.2452C57.3047 87.22 57.2763 87.2216 57.2511 87.25C57.2258 87.2752 57.2069 87.3273 57.1943 87.4062H57.0854C57.0917 87.3052 57.0964 87.1821 57.0996 87.0369C57.1028 86.8918 57.1043 86.6992 57.1043 86.4594H57.2132C57.2353 86.6361 57.2669 86.7908 57.3079 86.9233C57.3489 87.0559 57.4136 87.16 57.502 87.2358C57.5904 87.3083 57.7134 87.3446 57.8713 87.3446C57.9344 87.3446 57.9975 87.3304 58.0606 87.302C58.1269 87.2736 58.1821 87.2263 58.2263 87.16C58.2705 87.0937 58.2926 87.0054 58.2926 86.8949C58.2926 86.756 58.2421 86.6424 58.1411 86.5541C58.0401 86.4657 57.9123 86.3726 57.7576 86.2747C57.644 86.2022 57.5367 86.1296 57.4357 86.057C57.3379 85.9844 57.2574 85.9023 57.1943 85.8108C57.1343 85.7193 57.1043 85.6088 57.1043 85.4794C57.1043 85.3374 57.1359 85.2222 57.199 85.1338C57.2653 85.0423 57.3521 84.976 57.4594 84.935C57.5667 84.8908 57.6819 84.8687 57.805 84.8687ZM59.8277 84.8829V87.7896C59.8277 87.9254 59.8671 88.0153 59.946 88.0595C60.0281 88.1068 60.1401 88.1305 60.2821 88.1305V88.2299C60.2127 88.2268 60.1164 88.222 59.9934 88.2157C59.8703 88.2126 59.7393 88.211 59.6004 88.211C59.5026 88.211 59.4048 88.2126 59.3069 88.2157C59.2122 88.222 59.1397 88.2268 59.0892 88.2299V88.1305C59.2028 88.1305 59.2833 88.11 59.3306 88.069C59.3779 88.0279 59.4016 87.9506 59.4016 87.837V85.451C59.4016 85.309 59.3764 85.2049 59.3259 85.1386C59.2754 85.0691 59.1807 85.0344 59.0418 85.0344V84.935C59.1428 84.9445 59.2406 84.9492 59.3353 84.9492C59.4269 84.9492 59.5136 84.9445 59.5957 84.935C59.6809 84.9224 59.7582 84.905 59.8277 84.8829ZM60.5851 84.8687C60.7524 84.8687 60.9023 84.9145 61.0348 85.006C61.1674 85.0944 61.2716 85.2254 61.3473 85.399C61.4262 85.5725 61.4656 85.7871 61.4656 86.0428C61.4656 86.2132 61.4451 86.3821 61.4041 86.5493C61.3631 86.7134 61.2984 86.8633 61.21 86.9991C61.1248 87.1316 61.0128 87.2389 60.8739 87.321C60.7382 87.3999 60.5741 87.4393 60.3816 87.4393C60.2332 87.4393 60.1038 87.4046 59.9934 87.3352C59.8861 87.2657 59.8135 87.1821 59.7756 87.0843L59.8229 87.018C59.8671 87.1064 59.9302 87.1805 60.0123 87.2405C60.0975 87.3005 60.2032 87.3304 60.3295 87.3304C60.5062 87.3304 60.6435 87.2752 60.7413 87.1647C60.8392 87.0543 60.907 86.9075 60.9449 86.7245C60.9859 86.5383 61.0064 86.3331 61.0064 86.1091C61.0064 85.8566 60.9859 85.6499 60.9449 85.4889C60.9039 85.3279 60.8423 85.208 60.7603 85.1291C60.6782 85.0502 60.5772 85.0108 60.4573 85.0108C60.3027 85.0108 60.1622 85.0755 60.036 85.2049C59.9097 85.3311 59.8292 85.5236 59.7945 85.7824L59.7377 85.7161C59.7724 85.4479 59.8671 85.2396 60.0218 85.0912C60.1796 84.9429 60.3673 84.8687 60.5851 84.8687ZM62.3654 83.7515C62.4474 83.7515 62.5184 83.7815 62.5784 83.8415C62.6384 83.9014 62.6684 83.9724 62.6684 84.0545C62.6684 84.1365 62.6384 84.2076 62.5784 84.2675C62.5184 84.3275 62.4474 84.3575 62.3654 84.3575C62.2833 84.3575 62.2123 84.3275 62.1523 84.2675C62.0924 84.2076 62.0624 84.1365 62.0624 84.0545C62.0624 83.9724 62.0924 83.9014 62.1523 83.8415C62.2123 83.7815 62.2833 83.7515 62.3654 83.7515ZM62.6115 84.8829V86.9328C62.6115 87.0653 62.6384 87.1553 62.692 87.2026C62.7488 87.25 62.8419 87.2736 62.9713 87.2736V87.373C62.9177 87.3699 62.8356 87.3667 62.7252 87.3636C62.6179 87.3573 62.509 87.3541 62.3985 87.3541C62.2912 87.3541 62.1823 87.3573 62.0719 87.3636C61.9614 87.3667 61.8793 87.3699 61.8257 87.373V87.2736C61.9551 87.2736 62.0466 87.25 62.1003 87.2026C62.1571 87.1553 62.1855 87.0653 62.1855 86.9328V85.451C62.1855 85.309 62.1602 85.2049 62.1097 85.1386C62.0592 85.0691 61.9646 85.0344 61.8257 85.0344V84.935C61.9267 84.9445 62.0245 84.9492 62.1192 84.9492C62.2107 84.9492 62.2975 84.9445 62.3796 84.935C62.4648 84.9224 62.5421 84.905 62.6115 84.8829ZM64.6849 84.8687C64.7701 84.8687 64.8443 84.8861 64.9074 84.9208C64.9737 84.9555 65.0242 85.0013 65.0589 85.0581C65.0968 85.1118 65.1157 85.1733 65.1157 85.2427C65.1157 85.3216 65.0905 85.3911 65.04 85.451C64.9926 85.511 64.9279 85.541 64.8459 85.541C64.7796 85.541 64.7212 85.5205 64.6707 85.4794C64.6202 85.4352 64.595 85.3737 64.595 85.2948C64.595 85.2348 64.6107 85.1843 64.6423 85.1433C64.677 85.0991 64.7149 85.0644 64.7559 85.0392C64.7338 85.0076 64.7007 84.9918 64.6565 84.9918C64.5587 84.9918 64.4687 85.0218 64.3867 85.0818C64.3046 85.1386 64.2352 85.2127 64.1784 85.3043C64.1216 85.3958 64.0774 85.4936 64.0458 85.5978C64.0143 85.6988 63.9985 85.7935 63.9985 85.8818V86.8854C63.9985 87.0401 64.0427 87.1442 64.131 87.1979C64.2225 87.2484 64.3456 87.2736 64.5003 87.2736V87.373C64.4277 87.3699 64.3251 87.3667 64.1926 87.3636C64.06 87.3573 63.9196 87.3541 63.7712 87.3541C63.6639 87.3541 63.5566 87.3573 63.4493 87.3636C63.3452 87.3667 63.2663 87.3699 63.2126 87.373V87.2736C63.342 87.2736 63.4335 87.25 63.4872 87.2026C63.544 87.1553 63.5724 87.0653 63.5724 86.9328V85.451C63.5724 85.309 63.5472 85.2049 63.4967 85.1386C63.4462 85.0691 63.3515 85.0344 63.2126 85.0344V84.935C63.3136 84.9445 63.4114 84.9492 63.5061 84.9492C63.5977 84.9492 63.6844 84.9445 63.7665 84.935C63.8517 84.9224 63.929 84.905 63.9985 84.8829V85.4747C64.0332 85.3832 64.0821 85.2916 64.1452 85.2001C64.2115 85.1054 64.2904 85.0265 64.3819 84.9634C64.4735 84.9003 64.5744 84.8687 64.6849 84.8687ZM66.3787 84.8687C66.6564 84.8687 66.8726 84.954 67.0272 85.1244C67.185 85.2916 67.2639 85.5536 67.2639 85.9102H65.5928L65.5881 85.8203H66.8095C66.8158 85.6656 66.8031 85.5236 66.7716 85.3942C66.74 85.2617 66.6895 85.1559 66.6201 85.077C66.5538 84.9981 66.467 84.9587 66.3597 84.9587C66.2145 84.9587 66.0851 85.0313 65.9715 85.1765C65.8611 85.3216 65.7948 85.552 65.7727 85.8676L65.7869 85.8866C65.7806 85.9339 65.7759 85.986 65.7727 86.0428C65.7695 86.0996 65.768 86.1564 65.768 86.2132C65.768 86.4278 65.8027 86.6124 65.8721 86.7671C65.9415 86.9217 66.0315 87.0401 66.142 87.1221C66.2556 87.201 66.3723 87.2405 66.4923 87.2405C66.587 87.2405 66.6769 87.2263 66.7621 87.1979C66.8473 87.1663 66.9262 87.1158 66.9988 87.0464C67.0714 86.977 67.1345 86.8839 67.1882 86.7671L67.2829 86.805C67.2481 86.9091 67.1913 87.0101 67.1124 87.1079C67.0335 87.2058 66.9341 87.2863 66.8142 87.3494C66.6943 87.4093 66.5554 87.4393 66.3976 87.4393C66.1704 87.4393 65.9747 87.3872 65.8106 87.2831C65.6496 87.179 65.5249 87.0354 65.4366 86.8523C65.3514 86.6661 65.3088 86.4531 65.3088 86.2132C65.3088 85.9355 65.3529 85.6972 65.4413 85.4984C65.5297 85.2964 65.6543 85.1417 65.8153 85.0344C65.9763 84.924 66.164 84.8687 66.3787 84.8687Z" fill="white"/>
<defs>
<linearGradient id="paint0_linear_102_49473" x1="36.454" y1="3.78711" x2="36.454" y2="58.702" gradientUnits="userSpaceOnUse">
<stop stop-color="#E0C772"/>
<stop offset="0.4" stop-color="#F9F7C4"/>
<stop offset="0.55" stop-color="#D5B676"/>
<stop offset="0.8" stop-color="#B78636"/>
</linearGradient>
<linearGradient id="paint1_linear_102_49473" x1="19.5742" y1="76.4643" x2="12.5742" y2="76.4643" gradientUnits="userSpaceOnUse">
<stop stop-color="white"/>
<stop offset="1" stop-color="#BA8B3A"/>
</linearGradient>
</defs>
</svg>
