<svg width="100" height="100" viewBox="0 0 100 100" fill="none" xmlns="http://www.w3.org/2000/svg">
<rect width="100" height="100" fill="white"/>
<path d="M49.8178 3.12629C49.723 3.22108 49.6914 3.96886 49.6914 5.86462V8.47656H50.0074H50.3233V5.86462C50.3233 3.358 50.2812 2.99991 50.0074 2.99991C49.9758 2.99991 49.8915 3.05257 49.8178 3.12629Z" fill="black"/>
<path d="M49.4837 8.74046C49.2731 8.99323 49.3047 9.58302 49.5364 9.84632C49.7681 10.1096 49.726 10.3203 48.9571 12.69C48.2726 14.7858 47.609 16.4499 46.6822 18.3562C45.3341 21.1577 43.9228 23.2957 42.501 24.6859L41.8059 25.36L41.7532 25.0019C41.7216 24.8018 41.6479 23.538 41.5742 22.1899C41.4794 20.2204 41.4794 19.6832 41.5847 19.4831C41.7427 19.1882 41.6585 18.9039 41.4267 18.9039C41.2056 18.9039 41.1003 19.2093 41.2477 19.441C41.3636 19.62 41.2266 23.0008 40.9949 26.034C40.9633 26.5185 40.9739 26.9082 41.016 26.9082C41.0687 26.9082 43.1119 26.2447 45.5553 25.4232L50.0103 23.9382L54.3495 25.3916C56.7298 26.1815 58.7519 26.8345 58.8362 26.845C59.0258 26.8555 59.0258 26.2236 58.8046 22.3584C58.6782 20.273 58.6677 19.599 58.7625 19.441C58.9204 19.2093 58.8151 18.9039 58.5939 18.9039C58.3622 18.9039 58.278 19.1882 58.436 19.4831C58.5413 19.6832 58.5413 20.2309 58.436 22.2425C58.3622 23.6222 58.278 24.8861 58.2359 25.0546C58.1621 25.3495 58.1621 25.3495 57.2143 24.3595C55.0236 22.0635 52.8013 17.8823 51.1689 13.0059C50.2947 10.3729 50.2421 10.1202 50.4843 9.84632C50.7371 9.57249 50.7476 8.9511 50.5054 8.71939C50.3368 8.55088 50.3263 8.55088 50.3263 8.76152C50.3263 9.35131 49.8629 9.57249 49.7365 9.02482C49.7049 8.86684 49.6628 8.69833 49.6523 8.64567C49.6417 8.60354 49.568 8.63514 49.4837 8.74046ZM49.9366 23.4432C49.7997 23.5801 41.3741 26.3711 41.3741 26.2868C41.3741 26.2342 41.5637 26.0656 41.7954 25.9077C42.5853 25.36 43.9966 23.7486 44.9339 22.3478C46.777 19.5463 48.6096 15.4599 49.6523 11.7737L49.9577 10.6994L49.9893 17.0292C49.9998 20.5153 49.9787 23.401 49.9366 23.4432ZM52.022 17.7243C52.2115 18.1666 52.2115 18.1666 52.0114 18.0613C51.9061 18.0086 51.6955 17.956 51.548 17.956C51.2742 17.956 51.2742 17.956 51.2847 17.0292L51.2953 16.1129L51.5586 16.6921C51.706 17.0081 51.9166 17.4715 52.022 17.7243ZM52.1062 20.7364C52.1168 20.7891 52.0325 20.7575 51.9272 20.6627C51.8219 20.5574 51.5796 20.4837 51.4006 20.4837H51.0635L51.0741 19.5568V18.6406L51.5901 19.6411C51.8745 20.1888 52.1062 20.6838 52.1062 20.7364ZM53.7913 21.3473C53.8019 21.3894 53.6755 21.3473 53.5175 21.2736C53.349 21.1893 53.1489 21.1472 53.0541 21.1682C52.9172 21.2104 52.8751 21.1156 52.8224 20.6732C52.7803 20.3678 52.7487 19.9255 52.7592 19.6938C52.7592 19.283 52.7697 19.283 53.2753 20.273C53.5596 20.8207 53.7913 21.3052 53.7913 21.3473ZM51.6112 22.2846C52.0325 23.1693 52.0746 23.3062 51.885 23.1693C51.7481 23.0851 51.5164 23.0114 51.369 23.0114C51.0741 23.0114 51.0741 23.0114 51.0425 22.1161C51.0214 21.6211 51.032 21.2209 51.0635 21.2314C51.0951 21.2314 51.3374 21.7054 51.6112 22.2846ZM53.2226 22.8007C53.4859 23.3168 53.6966 23.7697 53.6966 23.8013C53.6966 23.8329 53.6018 23.8118 53.4964 23.7486C53.3806 23.6959 53.17 23.6433 53.0225 23.6433C52.7592 23.6433 52.7487 23.6222 52.7487 22.9798C52.7487 22.6217 52.7171 22.2215 52.6855 22.0845C52.5486 21.6106 52.7592 21.8739 53.2226 22.8007ZM55.4765 24.212C55.7187 24.6017 55.7187 24.6122 55.5081 24.4964C55.3922 24.4332 55.171 24.3805 55.0236 24.3805C54.834 24.3805 54.7392 24.3173 54.6971 24.1383C54.2758 22.2952 54.3074 22.2952 55.4765 24.212Z" fill="black"/>
<path d="M48.6119 19.7072C48.1274 20.6656 48.0326 21.0026 48.3275 20.6445C48.4013 20.5603 48.6224 20.4866 48.812 20.4866H49.1701V19.5913C49.1701 19.0963 49.1596 18.6961 49.1385 18.6961C49.128 18.6961 48.8857 19.149 48.6119 19.7072Z" fill="black"/>
<path d="M46.8497 20.4554C46.5021 21.1611 46.3652 21.5192 46.4916 21.4033C46.6074 21.3085 46.8391 21.2243 47.0182 21.2243C47.3447 21.2243 47.3447 21.2138 47.4184 20.5608C47.5658 19.2232 47.471 19.2021 46.8497 20.4554Z" fill="black"/>
<path d="M48.8942 21.6826C48.7467 22.0196 48.5045 22.5252 48.3571 22.8201L48.0938 23.3467L48.336 23.1782C48.4624 23.0834 48.6941 23.0097 48.8521 23.0097C49.1364 23.0097 49.1364 23.0097 49.1785 22.0828C49.1996 21.5773 49.2101 21.1455 49.1891 21.1244C49.1785 21.1034 49.0416 21.3561 48.8942 21.6826Z" fill="black"/>
<path d="M47.3876 21.9923C47.3349 22.1292 47.0927 22.6452 46.8504 23.1192C46.4713 23.867 46.4502 23.9617 46.6609 23.8143C46.7873 23.7195 47.019 23.6458 47.1769 23.6458C47.4508 23.6458 47.4508 23.6353 47.514 22.719C47.5772 21.729 47.5456 21.571 47.3876 21.9923Z" fill="black"/>
<path d="M45.3032 23.3083C45.061 23.698 44.745 24.1825 44.6187 24.3826C44.4396 24.6669 44.4291 24.7196 44.566 24.6037C44.6713 24.5195 44.9346 24.4247 45.1453 24.3931C45.5349 24.3299 45.5349 24.3299 45.6719 23.5927C45.7456 23.1819 45.7877 22.7922 45.7772 22.729C45.7561 22.6553 45.5455 22.9186 45.3032 23.3083Z" fill="black"/>
<path d="M45.4004 25.9733L40.9453 27.4478L40.9664 29.4489C40.9769 30.5442 41.0296 31.4395 41.0717 31.4395C41.1138 31.4395 43.1465 30.8391 45.5794 30.1124L50.0134 28.7854L54.4368 30.1124C56.8803 30.8391 58.9024 31.4395 58.9445 31.4395C59.0499 31.4395 58.9972 27.5321 58.8919 27.4373C58.7971 27.3425 50.0871 24.4883 49.9502 24.4988C49.8975 24.4988 47.8543 25.1729 45.4004 25.9733ZM49.571 28.4484C49.55 28.4589 47.7911 28.996 45.6426 29.6385C43.5046 30.2915 41.6615 30.8391 41.5667 30.8707C41.3877 30.9234 41.3771 30.8075 41.3771 29.3436V27.7638L45.4636 26.4157L49.5394 25.0676L49.571 26.7422C49.5816 27.6585 49.5816 28.4273 49.571 28.4484ZM51.9513 26.4999C52.1935 26.7843 52.2251 26.9107 52.2251 27.6585C52.2251 28.2167 52.183 28.4905 52.0987 28.4905C52.0355 28.4905 51.7301 28.4062 51.4141 28.3114L50.8559 28.1324V27.3846C50.8559 26.5421 51.035 26.1734 51.4352 26.1734C51.5827 26.1734 51.7933 26.2998 51.9513 26.4999ZM54.7949 27.3425C55.0372 27.6269 55.0688 27.7532 55.0688 28.5431V29.4173L54.4684 29.2277L53.8576 29.0382L53.826 28.1745C53.8049 27.6269 53.8365 27.2582 53.9208 27.1635C54.1209 26.9212 54.5 26.9949 54.7949 27.3425ZM57.6386 28.1324C57.8913 28.3957 57.9124 28.48 57.9124 29.333V30.2599L57.3121 30.0808L56.7012 29.9018L56.6696 29.0487C56.6486 28.3746 56.6802 28.164 56.8065 28.0271C57.0488 27.7848 57.3121 27.8164 57.6386 28.1324Z" fill="black"/>
<path d="M47.8966 26.4439C47.6754 26.6756 47.6438 26.8336 47.6017 27.6024C47.5596 28.603 47.5385 28.5819 48.4127 28.3291L48.9603 28.1606V27.3707C48.9603 26.9389 48.9077 26.486 48.855 26.3702C48.697 26.0753 48.2126 26.1069 47.8966 26.4439ZM48.7497 26.8968C48.8971 27.1812 48.8866 27.9079 48.7286 28.0448C48.6549 28.0974 48.4337 28.1817 48.2547 28.2238L47.9071 28.2975V27.7288C47.9071 27.1074 48.1178 26.6967 48.4337 26.6967C48.5496 26.6967 48.6865 26.7915 48.7497 26.8968Z" fill="black"/>
<path d="M45.0199 27.3421C44.7672 27.637 44.7461 27.7529 44.7461 28.5533C44.7461 29.0483 44.7777 29.4275 44.8303 29.4064C44.8725 29.3748 45.1779 29.28 45.5149 29.1852L46.1153 29.0062V28.2479C46.1153 27.3842 45.9467 27.0156 45.536 27.0156C45.3885 27.0156 45.1779 27.142 45.0199 27.3421ZM45.8836 28.2163C45.9151 28.9114 45.8941 28.964 45.4096 29.0694L45.0621 29.1431V28.5322C45.0621 27.8582 45.2727 27.5106 45.6308 27.5633C45.8204 27.5949 45.852 27.6791 45.8836 28.2163Z" fill="black"/>
<path d="M42.1762 28.1822C41.9339 28.4771 41.9023 28.593 41.9023 29.3829V30.2676L42.4605 30.0991C42.7554 30.0148 43.0398 29.92 43.0925 29.8884C43.2188 29.8147 43.1767 28.119 43.0398 27.9821C42.8186 27.761 42.4605 27.8452 42.1762 28.1822ZM42.945 28.5298C43.0187 28.6141 43.0609 28.9195 43.0398 29.2354C43.0082 29.762 42.9977 29.7936 42.6185 29.92L42.2183 30.0569V29.4145C42.2183 28.5614 42.5975 28.1085 42.945 28.5298Z" fill="black"/>
<path d="M51.1286 26.7697C51.0233 26.8645 51.0338 28.0441 51.1391 28.0968C51.1813 28.1284 51.3708 28.181 51.5604 28.2232L51.8974 28.2969V27.665C51.8974 27.2015 51.8553 27.0014 51.7079 26.8751C51.5078 26.6855 51.2445 26.6433 51.1286 26.7697Z" fill="black"/>
<path d="M53.9722 27.6131C53.93 27.6447 53.8984 27.9606 53.8984 28.2976C53.8984 28.8664 53.9195 28.919 54.1723 29.0138C54.3197 29.077 54.5409 29.1191 54.6567 29.1191C54.8569 29.1191 54.8674 29.0665 54.8253 28.5399C54.7937 28.1818 54.6989 27.8869 54.583 27.75C54.3934 27.5393 54.1091 27.4761 53.9722 27.6131Z" fill="black"/>
<path d="M56.8686 28.5069C56.7948 28.5806 56.7422 28.886 56.7422 29.1915C56.7422 29.7918 56.7422 29.7813 57.4584 30.0024C57.6795 30.0762 57.6901 30.0551 57.6901 29.5074C57.6901 28.6965 57.2372 28.1383 56.8686 28.5069Z" fill="black"/>
<path d="M45.4342 30.5024C43.0645 31.187 40.9475 31.8084 40.7369 31.861L40.3577 31.9663L40.2946 33.1565C40.0523 37.3587 38.5357 40.7395 35.5973 43.5937C35.0917 44.0887 35.0707 44.0992 35.018 43.857C34.9969 43.7201 34.8916 42.1192 34.7968 40.3077C34.6389 37.285 34.6389 37.0006 34.7968 36.8532C34.9969 36.6426 34.9653 36.4003 34.7126 36.2423C34.5546 36.1476 34.4914 36.1686 34.365 36.3266C34.1754 36.5899 34.1754 36.6531 34.3861 36.8637C34.5441 37.0112 34.5335 37.3482 34.3334 40.9396C34.207 43.0882 34.1228 44.8681 34.1439 44.8891C34.1649 44.9102 37.7458 44.2783 42.0955 43.4778L50.0156 42.0455L57.9252 43.4884C62.2854 44.2783 65.8663 44.9102 65.8874 44.8891C65.8979 44.8681 65.8136 43.0882 65.6978 40.9396C65.4871 37.3271 65.4871 37.0217 65.6451 36.8637C65.8558 36.6531 65.8558 36.5899 65.6662 36.3266C65.5398 36.1686 65.4766 36.1476 65.3186 36.2423C65.0659 36.4003 65.0343 36.6426 65.2344 36.8532C65.3924 37.0006 65.3924 37.285 65.2344 40.2024C65.1396 41.9612 65.0448 43.5621 65.0027 43.7622L64.95 44.1308L63.9811 43.1092C61.3165 40.3288 59.9684 37.1586 59.7367 33.1565L59.6735 31.9663L59.347 31.8716C59.1679 31.8189 57.0299 31.208 54.5865 30.5024C52.1536 29.8073 50.0683 29.228 49.9524 29.2385C49.8471 29.2385 47.8144 29.8073 45.4342 30.5024ZM49.6786 35.7263L49.647 41.6979L42.9065 42.9196C39.1992 43.5937 36.008 44.173 35.8184 44.2151C35.4814 44.2888 35.5025 44.2467 36.4188 43.2672C38.9886 40.5605 40.4104 37.2324 40.6105 33.5145C40.6737 32.4824 40.6948 32.356 40.8949 32.2718C41.1687 32.1454 49.3837 29.7757 49.5733 29.7651C49.6786 29.7546 49.6996 30.9763 49.6786 35.7263ZM52.7961 32.514C53.0067 33.0195 53.1752 33.4619 53.1752 33.4935C53.1752 33.5251 53.0699 33.483 52.9435 33.3987C52.8171 33.3039 52.617 33.2618 52.5012 33.2934C52.2905 33.346 52.28 33.3144 52.3116 32.4403C52.3327 31.9347 52.3642 31.5451 52.3853 31.5661C52.4064 31.5767 52.5854 32.0085 52.7961 32.514ZM55.7029 34.1465C55.7029 34.1675 55.6081 34.1359 55.5028 34.0727C55.3869 34.0201 55.1658 33.9674 55.0078 33.9674C54.7761 33.9674 54.7445 33.9358 54.7971 33.7252C54.8287 33.5988 54.8603 33.1881 54.8603 32.8089L54.8709 32.1243L55.2816 33.1143C55.5133 33.662 55.7029 34.1254 55.7029 34.1465ZM57.9041 34.0201C58.0726 34.4203 58.199 34.7679 58.1779 34.7889C58.1569 34.81 58.041 34.7784 57.9146 34.7047C57.7988 34.6415 57.5987 34.6204 57.4933 34.652C57.3038 34.7152 57.2827 34.6731 57.2827 34.3044C57.2827 34.0727 57.3143 33.662 57.3564 33.3776C57.4091 32.9774 57.4407 32.9142 57.5144 33.0722C57.5565 33.1881 57.7356 33.6093 57.9041 34.0201ZM52.5012 36.5267C52.5538 36.7163 52.5433 36.7373 52.4274 36.6215C52.3537 36.5583 52.1536 36.4951 51.9956 36.4951H51.7007V35.5683L51.7113 34.652L52.0694 35.4735C52.2695 35.9264 52.459 36.4003 52.5012 36.5267ZM54.3232 36.2739C54.5654 36.8216 54.755 37.285 54.755 37.3061C54.755 37.3271 54.6392 37.2639 54.4917 37.1692C54.3443 37.0744 54.1336 37.0217 54.0178 37.0533C53.8177 37.106 53.8071 37.0533 53.8071 36.1476C53.8071 35.621 53.8282 35.2207 53.8493 35.2418C53.8703 35.2629 54.0915 35.7263 54.3232 36.2739ZM56.7034 36.6004C56.8614 36.9796 57.0615 37.443 57.1458 37.6326L57.2932 37.9801L57.0299 37.8116C56.872 37.7063 56.6824 37.6642 56.5455 37.7063C56.3454 37.7695 56.3348 37.7379 56.3348 36.8005C56.3348 36.2634 56.3559 35.8527 56.3769 35.8737C56.398 35.8948 56.5455 36.2213 56.7034 36.6004ZM59.4102 37.6642C59.6419 38.2224 59.7367 38.5699 59.6419 38.4962C59.5576 38.4225 59.347 38.3593 59.1785 38.3698L58.8625 38.3803V37.4746C58.8625 36.9691 58.8941 36.6004 58.9362 36.632C58.9678 36.6742 59.189 37.1376 59.4102 37.6642ZM51.7218 39.402C51.943 39.9075 52.122 40.3288 52.122 40.3604C52.122 40.3814 52.0167 40.3498 51.9008 40.2761C51.7745 40.2129 51.5638 40.1813 51.4269 40.2129C51.1741 40.255 51.1741 40.255 51.1741 39.3072C51.1741 38.7806 51.2057 38.3909 51.2479 38.4225C51.2794 38.4646 51.4901 38.9069 51.7218 39.402ZM53.7545 39.7495C53.9546 40.2234 54.0704 40.6026 54.0178 40.6026C53.9651 40.6026 53.8914 40.5499 53.8493 40.4867C53.8177 40.4236 53.6492 40.392 53.4806 40.413L53.1752 40.4657V39.5073C53.1857 38.433 53.1857 38.433 53.7545 39.7495ZM56.1874 40.9502C56.24 41.1397 56.2295 41.1608 56.1136 41.0449C56.0399 40.9818 55.8398 40.9186 55.6818 40.9186H55.3869V39.9917L55.3975 39.0755L55.7556 39.897C55.9557 40.3498 56.1452 40.8238 56.1874 40.9502ZM58.378 40.6974C58.5887 41.1924 58.7572 41.6031 58.7572 41.6242C58.7572 41.6347 58.6308 41.6031 58.4834 41.54C58.3254 41.4873 58.1253 41.4662 58.0305 41.4978C57.883 41.54 57.862 41.4346 57.8936 40.6447C57.9146 40.1497 57.9462 39.76 57.9568 39.7811C57.9778 39.7916 58.1674 40.2129 58.378 40.6974ZM60.9057 41.3293C61.3165 42.2772 61.3481 42.393 61.1585 42.2035C61.0848 42.1297 60.8741 42.0771 60.674 42.0771H60.3054L60.3791 41.5926C60.4107 41.3188 60.4423 40.9291 60.4423 40.729C60.4423 40.5289 60.4634 40.3814 60.4844 40.4025C60.516 40.4341 60.7056 40.8448 60.9057 41.3293Z" fill="black"/>
<path d="M47.3141 32.4927C47.0719 33.072 46.9139 33.5459 46.956 33.5459C47.0087 33.5459 47.0824 33.4932 47.114 33.4406C47.1456 33.3774 47.3141 33.3353 47.4931 33.3353H47.7986V32.3874C47.7986 31.8608 47.788 31.4395 47.7775 31.4395C47.7564 31.4395 47.5458 31.9134 47.3141 32.4927Z" fill="black"/>
<path d="M44.9417 32.8273C44.7837 33.1959 44.5836 33.6698 44.4888 33.891L44.3203 34.3018L44.5625 34.1332C44.6889 34.0385 44.9101 33.9647 45.0365 33.9647C45.2682 33.9647 45.2787 33.9331 45.2787 33.0695C45.2787 32.5745 45.2682 32.1743 45.2471 32.1743C45.2261 32.1743 45.0892 32.4692 44.9417 32.8273Z" fill="black"/>
<path d="M42.2521 33.8731L41.8203 34.9053L42.1257 34.7473C42.2943 34.663 42.5154 34.6104 42.6102 34.642C42.7682 34.6946 42.7893 34.6209 42.7577 34.0416C42.705 32.7673 42.7155 32.7673 42.2521 33.8731Z" fill="black"/>
<path d="M47.961 35.6183C47.3922 36.9453 47.4028 36.8926 47.6661 36.6609C47.8135 36.5345 47.9926 36.4819 48.1611 36.5135L48.4244 36.5661V35.6393C48.4244 35.1233 48.4033 34.702 48.3823 34.702C48.3717 34.702 48.1716 35.1127 47.961 35.6183Z" fill="black"/>
<path d="M46.0804 35.5665C45.9962 35.7561 45.8066 36.2089 45.6486 36.567C45.3116 37.3675 45.3116 37.378 45.6381 37.1674C45.7855 37.0726 45.9751 37.0304 46.112 37.0726C46.3121 37.1358 46.3227 37.1042 46.3227 36.1879C46.3227 35.6613 46.3016 35.2295 46.27 35.2295C46.2384 35.2295 46.1542 35.3874 46.0804 35.5665Z" fill="black"/>
<path d="M43.5849 36.1254C43.5322 36.2623 43.3427 36.7152 43.1636 37.1364C42.9951 37.5472 42.8477 37.9053 42.8477 37.9264C42.8477 37.9579 42.9635 37.8948 43.111 37.8C43.2584 37.7052 43.448 37.6631 43.5849 37.7052C43.785 37.7684 43.7955 37.7368 43.7955 36.8205C43.7955 36.2939 43.7745 35.8621 43.7429 35.8621C43.7113 35.8621 43.6376 35.9779 43.5849 36.1254Z" fill="black"/>
<path d="M40.7955 37.4071C40.2478 38.6814 40.2478 38.6814 40.4269 38.5129C40.5006 38.4497 40.7218 38.3865 40.9114 38.3865H41.2589V37.4387C41.2589 36.9121 41.2378 36.4908 41.2168 36.4908C41.2063 36.4908 41.0061 36.9015 40.7955 37.4071Z" fill="black"/>
<path d="M48.6146 38.8387C48.5198 39.0809 48.3197 39.5548 48.1723 39.8919L47.8984 40.4922L48.1617 40.3237C48.3303 40.2184 48.5198 40.1762 48.6989 40.2184L48.9727 40.2921L48.899 39.3653C48.8569 38.8597 48.8147 38.4279 48.8042 38.4174C48.7937 38.4068 48.7094 38.5964 48.6146 38.8387Z" fill="black"/>
<path d="M46.6767 38.9698C46.5924 39.1805 46.4029 39.6123 46.266 39.9388C45.95 40.6444 45.95 40.6339 46.2238 40.497C46.3397 40.4233 46.5609 40.4022 46.6978 40.4338L46.9505 40.497V39.5491C46.9505 39.033 46.9295 38.6012 46.8873 38.6012C46.8558 38.6012 46.761 38.7697 46.6767 38.9698Z" fill="black"/>
<path d="M44.2414 40.1245C43.9992 40.6721 43.8517 41.125 43.8939 41.125C43.9465 41.125 44.0203 41.0723 44.0624 41.0091C44.094 40.946 44.2625 40.9144 44.431 40.9354L44.7364 40.9881V40.0507C44.7364 39.5452 44.7259 39.1239 44.7048 39.1239C44.6838 39.1239 44.4731 39.5768 44.2414 40.1245Z" fill="black"/>
<path d="M42.0712 39.83C42.0501 39.9354 41.85 40.4093 41.6499 40.8727L41.2812 41.7363L41.5551 41.5889C41.7131 41.5046 41.9237 41.473 42.029 41.5046C42.187 41.5573 42.2081 41.4625 42.2081 40.6094C42.2081 39.6615 42.1765 39.4825 42.0712 39.83Z" fill="black"/>
<path d="M39.2206 41.2518C38.9888 41.789 38.7782 42.2735 38.7571 42.3366C38.7361 42.3893 38.8203 42.3577 38.9362 42.2419C39.0836 42.1155 39.2627 42.0628 39.4312 42.0944L39.6945 42.1471V41.2202C39.6945 40.7042 39.684 40.2829 39.6629 40.2829C39.6524 40.2829 39.4417 40.7147 39.2206 41.2518Z" fill="black"/>
<path d="M42.9446 43.7584C39.2057 44.4325 35.688 45.0749 35.1298 45.1802L34.0977 45.3593V48.9296V52.5L34.3399 52.4473C34.4663 52.4263 37.7733 51.9207 41.6807 51.3415C45.5881 50.7622 49.0531 50.2461 49.3691 50.1935C49.8641 50.1198 51.0121 50.2567 57.6367 51.2467C61.8601 51.8786 65.4515 52.4157 65.62 52.4368L65.9044 52.4895V48.9191C65.9044 46.9496 65.8728 45.3382 65.8307 45.3382C65.778 45.3382 62.1971 44.6958 57.8474 43.9164C53.5082 43.137 49.9062 42.4946 49.843 42.5051C49.7904 42.5051 46.6834 43.0738 42.9446 43.7584ZM49.348 46.3598L49.3691 49.3404L49.1374 49.3931C49.0005 49.4141 47.4312 49.6564 45.6302 49.9197C36.8992 51.2151 35.2878 51.4573 35.0245 51.51L34.7296 51.5732V48.7717V45.9807L35.1298 45.907C37.8787 45.3698 49.0426 43.3687 49.1585 43.3793C49.2954 43.3898 49.3164 43.8111 49.348 46.3598ZM52.7077 45.1276C53.2975 45.4857 53.4134 45.8438 53.4555 47.4868L53.4976 48.9402L52.9816 48.8665C52.7077 48.8349 52.1917 48.7401 51.8441 48.6769L51.2122 48.5505L51.1806 47.234C51.149 45.7806 51.2859 45.3066 51.7915 45.0539C52.1495 44.8748 52.3181 44.8853 52.7077 45.1276ZM55.7936 45.8227L56.1623 46.1808L56.1938 47.7606C56.2254 49.056 56.2044 49.3404 56.0885 49.3404C56.0043 49.3404 55.6567 49.2877 55.3092 49.2351C54.9721 49.1719 54.5298 49.0982 54.3402 49.0666L53.9927 49.0139L54.0242 47.4973C54.0558 46.1703 54.0769 45.9596 54.2665 45.7595C54.7299 45.2434 55.2249 45.254 55.7936 45.8227ZM58.5846 46.2229C59.0059 46.6653 59.0586 46.9391 59.0586 48.5084C59.0586 49.9302 59.1533 49.8354 58.0159 49.6458C56.6994 49.4457 56.8468 49.6458 56.8468 48.0134C56.8468 46.9602 56.889 46.5178 57.0048 46.2861C57.1839 45.9385 57.2892 45.8859 57.8368 45.8754C58.1739 45.8648 58.3003 45.928 58.5846 46.2229ZM61.3861 46.6969L61.7969 47.1076V48.6453C61.7969 50.4252 61.9443 50.2567 60.4804 50.046L59.6378 49.9197L59.6062 48.7085C59.5641 47.2445 59.6273 46.8654 59.9538 46.5389C60.3645 46.1387 60.8806 46.1913 61.3861 46.6969ZM64.0718 46.9707C64.5563 47.3393 64.6616 47.7922 64.6195 49.3404L64.5879 50.6674L63.5347 50.4989L62.4815 50.3409V48.7822V47.2129L62.7764 46.9602C63.166 46.6337 63.6295 46.6337 64.0718 46.9707Z" fill="black"/>
<path d="M47.1222 45.1522C46.6483 45.5209 46.543 45.9316 46.543 47.4482V48.8174L46.8379 48.8069C46.9958 48.8069 47.4803 48.7437 47.9121 48.6699L48.702 48.5436L48.7336 47.0585C48.7652 45.5946 48.7547 45.5735 48.4809 45.247C48.1438 44.8363 47.5751 44.7941 47.1222 45.1522ZM48.3755 45.8895C48.5019 46.0685 48.5441 46.395 48.5441 47.1849V48.2487L47.8068 48.354C47.3961 48.4066 47.038 48.4382 47.0169 48.4066C46.9011 48.2908 46.9748 46.5741 47.1117 46.2476C47.3645 45.6367 48.0701 45.4471 48.3755 45.8895Z" fill="black"/>
<path d="M44.4037 45.5001C44.2562 45.5844 44.0351 45.8582 43.9087 46.111C43.7191 46.5007 43.6875 46.764 43.6875 47.8804C43.6875 48.6071 43.7086 49.2285 43.7402 49.2495C43.7612 49.2811 44.2668 49.2285 44.8566 49.1442L45.9203 48.9757V47.7118C45.9203 45.8898 45.9203 45.9214 45.6254 45.616C45.3094 45.3 44.8566 45.2579 44.4037 45.5001ZM45.5411 46.3006C45.7096 46.4901 45.7412 46.6902 45.7412 47.5855V48.6492L45.3726 48.7229C45.1725 48.765 44.825 48.8177 44.6143 48.8493L44.2141 48.9125V47.8172C44.2141 46.7956 44.2352 46.7113 44.4879 46.4059C44.8144 46.0162 45.2462 45.9741 45.5411 46.3006Z" fill="black"/>
<path d="M41.539 45.9843C41.0229 46.395 40.9492 46.6794 40.9492 48.3013C40.9492 49.4598 40.9808 49.7758 41.0861 49.7337C41.1599 49.7126 41.6549 49.6284 42.192 49.5546L43.1609 49.4177V48.0064C43.1609 46.5109 43.0556 46.1001 42.6449 45.8684C42.3184 45.6999 41.8444 45.742 41.539 45.9843ZM42.7291 46.7742C42.9187 47.0164 42.9503 47.206 42.9503 48.0802V49.1018L42.508 49.1755C42.2552 49.2176 41.8971 49.2703 41.7181 49.3019L41.3705 49.3651V48.354C41.3705 47.6483 41.4232 47.2376 41.5285 47.027C41.8234 46.4477 42.3816 46.3318 42.7291 46.7742Z" fill="black"/>
<path d="M38.8256 46.3504C38.2568 46.6558 38.1094 47.1613 38.1094 48.7622V50.2051L38.4043 50.1419C38.5623 50.1103 39.0573 50.0366 39.5101 49.9628L40.3211 49.8365V48.3198V46.7927L40.0157 46.4873C39.6681 46.1397 39.2784 46.0976 38.8256 46.3504ZM39.8998 47.1297C40.0789 47.3088 40.1105 47.4773 40.1105 48.4357V49.531L39.4469 49.6469C39.0783 49.7101 38.7202 49.7627 38.6465 49.7627C38.5412 49.7627 38.5201 49.51 38.5517 48.6463C38.5938 47.5405 38.5938 47.5299 38.9309 47.2245C39.3311 46.8664 39.6049 46.8348 39.8998 47.1297Z" fill="black"/>
<path d="M36.0278 46.813C35.438 47.1711 35.2695 47.7082 35.2695 49.2564C35.2695 50.2675 35.3011 50.6045 35.4064 50.6045C35.4696 50.6045 35.9646 50.5308 36.4807 50.4465C37.0073 50.3623 37.4602 50.2885 37.5129 50.2885C37.555 50.2885 37.5866 49.6987 37.5866 48.972C37.5866 47.5397 37.4707 47.0763 37.0494 46.7708C36.723 46.5497 36.4491 46.5602 36.0278 46.813ZM37.0705 47.5397C37.3022 47.7292 37.3233 47.8346 37.3549 48.8456L37.397 49.9515L37.0916 50.0147C36.9336 50.0463 36.5755 50.099 36.3017 50.1411L35.7961 50.2043V49.1089C35.7961 47.9399 35.9015 47.6239 36.3649 47.4449C36.7019 47.308 36.8072 47.3185 37.0705 47.5397Z" fill="black"/>
<path d="M51.6915 45.8446C51.4598 46.0447 51.4388 46.1395 51.4072 47.1611C51.3651 48.4144 51.2808 48.3091 52.4183 48.4565L52.9659 48.5303V47.4139C52.9659 46.4028 52.9449 46.2764 52.7342 46.0342C52.3972 45.6656 52.018 45.5918 51.6915 45.8446Z" fill="black"/>
<path d="M54.3953 46.4159C54.269 46.5949 54.2268 46.9214 54.2268 47.6692C54.2268 48.8277 54.1847 48.7645 55.1642 48.8804L55.8066 48.9541V47.8904C55.8066 46.9109 55.7856 46.8056 55.5328 46.5107C55.1852 46.0999 54.6481 46.0578 54.3953 46.4159Z" fill="black"/>
<path d="M57.2001 46.8261C57.0316 47.0157 57 47.2158 57 48.111V49.1748L57.7688 49.2906C58.1901 49.3538 58.5587 49.3854 58.5798 49.3538C58.6957 49.238 58.6219 47.5212 58.485 47.1842C58.2322 46.5944 57.5793 46.4048 57.2001 46.8261Z" fill="black"/>
<path d="M60.0822 47.1918C59.84 47.4235 59.7979 47.7079 59.8295 48.7085L59.8611 49.5931L60.2297 49.6669C60.4298 49.709 60.7774 49.7617 60.9985 49.7933L61.3882 49.8564V48.7611C61.3882 47.7395 61.3672 47.6553 61.1144 47.3498C60.809 46.9812 60.3561 46.918 60.0822 47.1918Z" fill="black"/>
<path d="M62.863 47.6584C62.6839 47.8375 62.6523 48.006 62.6523 48.9644V50.0597L63.1579 50.1229C63.4317 50.1651 63.7793 50.2177 63.9478 50.2493L64.2321 50.3125V49.2909C64.2321 48.5958 64.1795 48.185 64.0742 47.9744C63.7898 47.4267 63.2316 47.2898 62.863 47.6584Z" fill="black"/>
<path d="M41.3178 51.9322C36.5679 52.6484 32.671 53.2382 32.6605 53.2382C32.5868 53.2487 32.6394 76.8194 32.7132 76.8615C32.7553 76.8826 36.6627 76.4718 41.3916 75.9452L49.9962 74.9868L58.6114 75.9452C63.3508 76.4718 67.2582 76.8826 67.3109 76.8615C67.353 76.8405 67.3846 71.5113 67.3846 65.0341V53.2593L67.1002 53.1961C66.9317 53.1645 64.6989 52.8275 62.1186 52.4483C52.9347 51.0897 50.3754 50.7105 50.1647 50.6684C50.0489 50.6473 46.0678 51.2161 41.3178 51.9322ZM49.4591 62.8961L49.4275 74.4497L41.3389 75.3555C36.8944 75.8505 33.2292 76.2401 33.2082 76.2085C33.1555 76.1664 33.1344 53.7648 33.1871 53.7543C33.4715 53.6911 48.9851 51.3635 49.1958 51.353L49.4802 51.3424L49.4591 62.8961ZM58.9063 53.7016L66.0681 54.7759L66.0997 64.9077C66.1208 74.871 66.1208 75.0395 65.9206 75.0395C65.8048 75.0395 62.5293 74.6814 58.6325 74.2496C54.7462 73.8178 51.4918 73.4597 51.418 73.4597C51.2917 73.4597 51.2706 71.7746 51.2706 63.033V52.6063L51.5128 52.6168C51.6392 52.6168 54.9673 53.1013 58.9063 53.7016Z" fill="black"/>
<path d="M42.3767 53.4508C39.017 53.9668 35.731 54.4619 35.0886 54.5566L33.8984 54.7357V64.8991V75.0625L34.3513 74.9993C34.5936 74.9677 37.8479 74.6096 41.5868 74.1989C45.3257 73.7881 48.4853 73.43 48.6222 73.3984L48.8539 73.3563L48.8328 62.9507C48.8013 53.8089 48.7802 52.5556 48.6433 52.545C48.559 52.5345 45.7364 52.9452 42.3767 53.4508ZM48.4326 62.9717V73.0193L48.0429 73.0825C47.6006 73.1457 34.4882 74.6202 34.3197 74.6202C34.246 74.6202 34.2144 71.1762 34.2144 64.878C34.2144 57.1054 34.246 55.1148 34.3513 55.0832C34.4461 55.0411 47.4005 53.0611 48.3589 52.9347C48.401 52.9242 48.4326 57.4424 48.4326 62.9717Z" fill="black"/>
<path d="M47.6675 53.417C47.6253 53.4486 47.5938 57.8299 47.5938 63.138V72.7959L47.8571 72.7432L48.1204 72.7011V63.0222C48.1204 53.7119 48.1098 53.3433 47.9308 53.3433C47.8255 53.3433 47.6991 53.3748 47.6675 53.417Z" fill="black"/>
<path d="M46.4956 53.6301C46.4535 53.6617 46.4219 54.9993 46.4219 56.5791C46.4219 59.2647 46.4324 59.4964 46.6325 59.8756C46.7484 60.1073 46.8748 60.2969 46.8958 60.2969C46.9274 60.2969 46.9485 58.7803 46.9485 56.9266C46.9485 53.7249 46.9379 53.5564 46.7589 53.5564C46.6536 53.5564 46.5272 53.588 46.4956 53.6301Z" fill="black"/>
<path d="M45.5041 53.733C45.3988 53.7646 45.3672 54.3439 45.3672 56.0711V58.3671L45.6305 58.6093L45.8938 58.8516V56.2607C45.8938 53.5961 45.8938 53.575 45.5041 53.733Z" fill="black"/>
<path d="M44.3281 55.7436C44.3281 57.5973 44.3808 57.8711 44.6862 57.8711C44.7599 57.8711 44.8021 57.197 44.8021 55.87V53.8689H44.5704C44.3281 53.8689 44.3281 53.8689 44.3281 55.7436Z" fill="black"/>
<path d="M43.4064 54.0487C43.3011 54.0803 43.2695 54.5226 43.2695 55.7127C43.2695 57.2294 43.2801 57.3241 43.4802 57.3768C43.6803 57.4295 43.6908 57.3768 43.6908 55.7022C43.6908 54.7543 43.6592 53.975 43.6171 53.9855C43.5644 53.9855 43.4696 54.0171 43.4064 54.0487Z" fill="black"/>
<path d="M42.2031 55.6519C42.2031 56.8841 42.2242 57.1263 42.3716 57.179C42.4664 57.2106 42.5612 57.2422 42.5823 57.2422C42.6033 57.2422 42.6244 56.5576 42.6244 55.715C42.6244 54.2616 42.6139 54.1879 42.4138 54.1879C42.2137 54.1879 42.2031 54.2616 42.2031 55.6519Z" fill="black"/>
<path d="M41.2482 54.3669C41.0797 54.4091 41.0586 54.5671 41.0586 55.8309V57.2422H41.3219H41.5852V55.7677C41.5852 54.9567 41.5536 54.3038 41.5115 54.3038C41.4588 54.3143 41.343 54.3353 41.2482 54.3669Z" fill="black"/>
<path d="M40.0804 54.5741C39.9962 54.6584 39.9856 57.5547 40.0699 57.5547C40.1015 57.5547 40.2173 57.502 40.3332 57.4494C40.5122 57.344 40.5333 57.2177 40.5333 55.9222C40.5333 54.6163 40.5228 54.5004 40.3437 54.5004C40.2384 54.5004 40.112 54.532 40.0804 54.5741Z" fill="black"/>
<path d="M39.1271 54.682C38.9586 54.7241 38.9375 54.8926 38.9375 56.3566C38.9375 57.2518 38.9691 57.9785 39.0007 57.9785C39.0323 57.9785 39.1481 57.9259 39.264 57.8732C39.443 57.7679 39.4641 57.631 39.4641 56.2407C39.4641 55.4087 39.4325 54.7031 39.3904 54.682C39.3377 54.6609 39.2219 54.6609 39.1271 54.682Z" fill="black"/>
<path d="M37.8867 56.8438C37.8867 58.8449 37.8867 58.8555 38.0974 58.6659C38.2975 58.4868 38.308 58.3394 38.308 56.6437C38.308 54.8954 38.2975 54.8217 38.0974 54.8217C37.8973 54.8217 37.8867 54.8954 37.8867 56.8438Z" fill="black"/>
<path d="M37.0411 55.011C36.8621 55.0426 36.8516 55.2427 36.8516 57.486V59.9189L37.0622 59.7083C37.2623 59.5082 37.2728 59.3818 37.2518 57.2333C37.2202 55.1479 37.2097 54.9794 37.0411 55.011Z" fill="black"/>
<path d="M35.7309 55.2733C35.6993 55.347 35.6887 56.8426 35.6993 58.612L35.7309 61.8242L35.9731 61.3819C36.1943 60.9501 36.2048 60.8447 36.2048 58.0327C36.2048 55.189 36.2048 55.1364 35.9942 55.1364C35.8783 55.1364 35.7519 55.1996 35.7309 55.2733Z" fill="black"/>
<path d="M34.6211 64.7701V74.1963H34.8844H35.1372V64.7701V55.344H34.8844H34.6211V64.7701Z" fill="black"/>
<path d="M40.5178 57.7581C37.5162 58.727 35.4519 61.7286 35.4414 65.141C35.4414 66.9525 35.9364 68.4059 36.9686 69.5223C38.9486 71.7025 41.9818 71.7867 44.4042 69.7435C47.6375 67.0052 48.2062 61.834 45.5732 59.0956C44.8781 58.3689 44.1619 57.9266 43.3194 57.7054C42.5716 57.5053 41.2235 57.5264 40.5178 57.7581ZM43.0982 58.3584C43.9197 58.569 44.4884 58.9061 45.1519 59.5801C45.9313 60.37 46.6264 61.9182 46.6264 62.8977C46.6264 63.2242 46.6159 63.2347 46.0472 63.2979C45.4152 63.3822 45.2257 63.5296 45.2783 63.8982C45.3099 64.1299 45.352 64.1405 45.9734 64.1089C46.6264 64.0773 46.6264 64.0773 46.6264 64.3722C46.6264 64.8988 46.321 65.9836 45.9524 66.7524C45.2467 68.2901 44.1935 69.3749 42.7822 70.0489C41.729 70.565 41.6974 70.5545 41.6553 69.6909C41.6237 69.0379 41.6026 68.9852 41.3709 68.9536C41.0234 68.901 40.9391 69.08 40.9391 69.8699V70.5439L40.2019 70.4913C38.1481 70.3438 36.3893 68.4691 36.0523 66.0678C35.9785 65.6044 35.9996 65.5623 36.2208 65.5202C37.3266 65.3095 37.3056 65.3201 37.3056 64.9304C37.3056 64.5618 37.3056 64.5618 36.8843 64.5934C36.6526 64.6039 36.3472 64.646 36.2208 64.6776C35.968 64.7303 35.968 64.7197 36.0417 64.1721C36.1576 63.3084 36.5789 62.1078 37.0107 61.3495C37.611 60.3279 38.7274 59.2536 39.6753 58.7902C40.9602 58.1688 40.9391 58.1688 40.9391 58.9166C40.9391 59.6644 41.0023 59.875 41.2446 59.875C41.571 59.875 41.6764 59.6433 41.6764 58.9061V58.1899H42.0766C42.2978 58.1899 42.7612 58.2636 43.0982 58.3584Z" fill="black"/>
<path d="M41.1134 62.3178L41.0396 64.2452L40.7237 64.5296C40.5552 64.6876 40.4182 64.8561 40.4182 64.9193C40.4182 64.9719 40.3866 65.0983 40.3445 65.2036C40.2919 65.3616 40.3235 65.3721 40.6605 65.3195C40.9659 65.2773 41.0502 65.2984 41.0502 65.4143C41.0502 65.4985 41.1344 65.6881 41.2292 65.8355L41.4083 66.1094L41.5768 65.7618C41.6926 65.5406 41.7453 65.2668 41.7137 64.993L41.661 64.5612L42.9354 63.4132C43.7569 62.6654 44.1782 62.2231 44.115 62.1599C44.0202 62.0651 43.7885 62.2125 42.0296 63.529L41.6926 63.7818L41.64 63.4342C41.6084 63.2447 41.5557 62.4864 41.5136 61.7386C41.4714 60.7802 41.4083 60.401 41.324 60.401C41.2187 60.401 41.166 60.896 41.1134 62.3178Z" fill="black"/>
<path d="M46.6641 67.3918C46.4324 67.8552 46.4219 68.0027 46.4219 70.404C46.4219 72.879 46.4219 72.9316 46.6325 72.9316C46.7484 72.9316 46.8748 72.8684 46.8958 72.7947C46.9274 72.721 46.9379 71.3729 46.9274 69.7826L46.8958 66.9073L46.6641 67.3918Z" fill="black"/>
<path d="M35.6912 71.2482L35.7122 74.0918H35.9545H36.1967V71.6273C36.1967 69.2997 36.1862 69.1312 35.9755 68.7837C35.8491 68.573 35.7333 68.4045 35.7017 68.4045C35.6806 68.4045 35.6701 69.6789 35.6912 71.2482Z" fill="black"/>
<path d="M45.6094 69.057C45.3777 69.2992 45.3672 69.394 45.3672 71.1739C45.3672 72.9749 45.3777 73.0381 45.5778 73.0381C45.6937 73.0381 45.8201 72.9749 45.8517 72.9012C45.8727 72.8274 45.8833 71.8796 45.8727 70.7842L45.8411 68.8042L45.6094 69.057Z" fill="black"/>
<path d="M36.8516 71.9612C36.8516 73.9097 36.8621 73.9834 37.0622 73.9834C37.2623 73.9834 37.2728 73.9097 37.2728 72.1614C37.2728 70.4657 37.2623 70.3183 37.0622 70.1392C36.8516 69.9496 36.8516 69.9602 36.8516 71.9612Z" fill="black"/>
<path d="M44.5177 70.1331C44.3492 70.249 44.3281 70.4596 44.3281 71.7129C44.3281 73.1558 44.3281 73.1558 44.5704 73.1242C44.8021 73.0926 44.8021 73.061 44.8337 71.5339C44.8442 70.6808 44.8231 69.9857 44.781 69.9857C44.7283 69.9857 44.6125 70.0594 44.5177 70.1331Z" fill="black"/>
<path d="M43.4591 70.8362C43.3011 70.931 43.2695 71.11 43.2695 72.0895C43.2695 73.1743 43.2801 73.248 43.4802 73.248C43.6803 73.248 43.6908 73.1743 43.6908 71.9842C43.6908 71.2891 43.6803 70.7204 43.6697 70.7204C43.6487 70.7204 43.5539 70.773 43.4591 70.8362Z" fill="black"/>
<path d="M37.8867 72.3547C37.8867 73.8081 37.8973 73.8818 38.0974 73.8818C38.2975 73.8818 38.308 73.8081 38.308 72.46C38.308 71.154 38.2869 71.0382 38.0974 70.9329C37.8867 70.8275 37.8867 70.8486 37.8867 72.3547Z" fill="black"/>
<path d="M42.2768 71.3208C42.2347 71.3524 42.2031 71.8264 42.2031 72.374C42.2031 73.2798 42.2137 73.3535 42.4138 73.3535C42.6139 73.3535 42.6244 73.2798 42.6244 72.3003C42.6244 71.4893 42.5928 71.2471 42.4875 71.2471C42.4032 71.2471 42.3084 71.2787 42.2768 71.3208Z" fill="black"/>
<path d="M38.9375 72.5525C38.9375 73.7952 38.9796 73.9111 39.3377 73.6899C39.4325 73.6267 39.4641 73.3108 39.443 72.4998C39.4114 71.4571 39.4009 71.4045 39.1797 71.3729C38.9375 71.3413 38.9375 71.3518 38.9375 72.5525Z" fill="black"/>
<path d="M41.2482 71.5355C41.0797 71.5777 41.0586 71.7146 41.0586 72.5255C41.0586 73.4524 41.0586 73.4629 41.3219 73.4629C41.5852 73.4629 41.5852 73.4629 41.5852 72.4623C41.5852 71.9147 41.5536 71.4723 41.5115 71.4723C41.4588 71.4829 41.343 71.5039 41.2482 71.5355Z" fill="black"/>
<path d="M40.0039 72.629C40.0039 73.5558 40.025 73.6822 40.1724 73.6295C40.2672 73.5979 40.3831 73.5663 40.4357 73.5663C40.4884 73.5663 40.5305 73.1134 40.5305 72.5658C40.5305 71.5652 40.5305 71.5652 40.2672 71.5652H40.0039V72.629Z" fill="black"/>
<path d="M51.5781 63.0668V73.1038L58.5082 73.8727C62.3103 74.2939 65.512 74.6626 65.6173 74.6942C65.7858 74.7363 65.7964 74.2413 65.7753 64.9204L65.7437 55.0941L58.8979 54.0725C55.1379 53.5037 51.9467 53.0403 51.8204 53.0403L51.5781 53.0298V63.0668ZM52.3575 53.4089C52.5049 53.4616 52.5155 54.5043 52.5155 63.0668C52.5155 68.3434 52.4944 72.6931 52.4733 72.7352C52.4418 72.7773 52.3259 72.7879 52.21 72.7563C51.9994 72.7036 51.9994 72.6088 51.9994 63.0247C51.9994 57.2215 52.0415 53.3458 52.0942 53.3458C52.1469 53.3458 52.2627 53.3773 52.3575 53.4089ZM53.5792 56.5791C53.5792 59.4333 53.5687 59.6334 53.3686 59.9283L53.1579 60.2442V56.895C53.1579 53.6301 53.1579 53.5564 53.3686 53.5564C53.5792 53.5564 53.5792 53.6301 53.5792 56.5791ZM54.4639 53.7249C54.6113 53.7776 54.6324 54.0935 54.6324 56.0841C54.6324 58.2326 54.6219 58.3801 54.4218 58.5591C54.2111 58.7487 54.2111 58.7381 54.2111 56.2105C54.2111 54.8097 54.2322 53.6617 54.2533 53.6617C54.2743 53.6617 54.3691 53.6933 54.4639 53.7249ZM55.6856 55.8208C55.6856 56.895 55.6646 57.7692 55.6435 57.7692C55.6224 57.7692 55.5276 57.8008 55.4328 57.8324C55.2854 57.8851 55.2643 57.6744 55.2643 55.884C55.2643 53.9461 55.2749 53.8724 55.475 53.8724C55.6751 53.8724 55.6856 53.9461 55.6856 55.8208ZM56.7493 54.083C56.8125 54.083 56.8336 54.7254 56.8231 55.6733C56.7915 57.2215 56.7809 57.2742 56.5598 57.3585L56.3175 57.4427V55.7049C56.3175 54.1567 56.3386 53.9671 56.486 54.0198C56.5808 54.0514 56.6967 54.083 56.7493 54.083ZM57.8763 55.6733C57.8973 57.032 57.8868 57.1162 57.6972 57.1689C57.5814 57.2005 57.4655 57.1899 57.4339 57.1583C57.4023 57.1267 57.3707 56.4422 57.3707 55.6417C57.3707 54.1778 57.3707 54.1778 57.613 54.2094C57.8341 54.241 57.8447 54.2831 57.8763 55.6733ZM58.9505 55.8313C58.9505 57.1689 58.94 57.2426 58.7399 57.2426C58.5398 57.2426 58.5293 57.1689 58.5293 55.7787C58.5293 54.3674 58.5398 54.3147 58.7399 54.3674C58.94 54.42 58.9505 54.5148 58.9505 55.8313ZM60.0037 56.0209C60.0037 57.4848 59.9932 57.5375 59.7931 57.4848C59.593 57.4322 59.5825 57.3374 59.5825 55.9682C59.5825 54.578 59.593 54.5043 59.7931 54.5043C59.9932 54.5043 60.0037 54.578 60.0037 56.0209ZM61.0569 56.3579C61.0569 57.2531 61.0359 57.9798 61.0148 57.9798C60.9938 57.9798 60.899 57.9482 60.8042 57.9167C60.6567 57.864 60.6357 57.6112 60.6357 56.2421C60.6357 54.6833 60.6462 54.6307 60.8463 54.6833C61.0464 54.736 61.0569 54.8308 61.0569 56.3579ZM62.1944 56.7897C62.2049 57.8535 62.1944 58.7171 62.1628 58.7171C62.1207 58.7171 62.0048 58.6644 61.889 58.6118C61.6994 58.5064 61.6889 58.3695 61.6889 56.6528V54.8097L61.9311 54.8413C62.1628 54.8729 62.1628 54.894 62.1944 56.7897ZM63.2687 57.4532C63.2687 58.7803 63.2371 59.8756 63.2055 59.8756C63.1739 59.8756 63.058 59.7703 62.9422 59.6334C62.7631 59.4227 62.7526 59.2016 62.7421 57.211V55.0309H63.0054H63.2687V57.4532ZM64.2903 58.5064L64.3113 61.824L64.1112 61.4554C63.9217 61.1184 63.9111 60.8446 63.9006 58.1062C63.9006 55.3152 63.9111 55.1257 64.0902 55.1573C64.2587 55.1889 64.2692 55.4416 64.2903 58.5064ZM65.4804 64.773V74.1992H65.2171H64.9538V64.773V55.3468H65.2171H65.4804V64.773ZM58.3186 58.7487C58.3186 59.4754 58.4766 59.8124 58.8031 59.7492C58.9716 59.7176 59.0032 59.6123 59.0348 58.9383L59.0664 58.1694L59.4561 58.2431C60.7726 58.4854 62.5525 59.9915 63.3529 61.5291C63.8058 62.3928 64.2166 63.7409 64.2166 64.3307V64.6361L63.5636 64.594L62.9001 64.5624L62.8685 64.8783C62.8263 65.2469 63.058 65.4576 63.5425 65.4576C64.2692 65.4576 64.364 65.6998 64.0691 66.8057C63.4688 69.0385 61.731 70.6604 59.7931 70.8078L59.0559 70.8605V70.0495C59.0559 69.3966 59.0243 69.228 58.8874 69.1754C58.5293 69.0385 58.3713 69.2912 58.3397 70.039L58.3081 70.7447L57.9816 70.6815C57.455 70.5761 56.6335 70.1654 56.0016 69.6809C54.5482 68.5856 53.516 66.7214 53.2211 64.6782L53.1685 64.2675L53.7793 64.3307C54.4428 64.4044 54.6324 64.3096 54.6324 63.9199C54.6324 63.6039 54.5166 63.5408 53.8004 63.467L53.2106 63.4038L53.2422 62.9299C53.2948 62.2558 53.7372 61.0025 54.1479 60.3706C55.001 59.033 56.4966 58.1062 57.8236 58.0957L58.3186 58.0852V58.7487ZM53.5792 70.3866C53.5792 72.6931 53.5581 72.9564 53.4107 72.8932C53.3159 72.8616 53.2211 72.83 53.2001 72.83C53.179 72.83 53.1579 71.5135 53.1579 69.9126V66.9953L53.3686 67.406C53.5581 67.7852 53.5792 68.0274 53.5792 70.3866ZM64.3219 71.3029C64.3219 74.0201 64.3113 74.0938 64.1112 74.0938C63.9111 74.0938 63.9006 74.0201 63.9006 71.6188C63.9006 69.5967 63.9322 69.0701 64.0586 68.8278C64.1534 68.6488 64.2482 68.5119 64.2692 68.5119C64.3008 68.5119 64.3219 69.7652 64.3219 71.3029ZM54.6324 71.1659C54.6324 72.9669 54.6219 73.0406 54.4218 73.0406C54.2217 73.0406 54.2111 72.9669 54.2111 70.9026V68.7752L54.4218 69.0385C54.6113 69.2807 54.6324 69.4808 54.6324 71.1659ZM55.5592 70.1127C55.6435 70.197 55.6856 70.7025 55.6856 71.6925C55.6856 73.0722 55.6751 73.146 55.475 73.146C55.2749 73.146 55.2643 73.0722 55.2643 71.5662C55.2643 70.692 55.3065 69.9864 55.3486 69.9864C55.3907 69.9864 55.4855 70.039 55.5592 70.1127ZM63.2687 71.998V73.9991L63.037 73.9675C62.7947 73.9359 62.7947 73.9148 62.7631 72.2086C62.7421 70.5551 62.7421 70.4708 62.9632 70.2286C63.1002 70.1022 63.216 69.9864 63.2371 69.9864C63.2581 69.9864 63.2687 70.8921 63.2687 71.998ZM56.6651 70.871C56.8125 70.9869 56.8441 71.187 56.8441 72.1349V73.2513H56.5808H56.3175V71.9874C56.3175 71.2923 56.3491 70.7236 56.4018 70.7236C56.4439 70.7236 56.5598 70.7973 56.6651 70.871ZM62.1944 72.3245C62.1628 73.7463 62.1523 73.8305 61.9522 73.8305C61.7521 73.8305 61.7415 73.7463 61.7099 72.4614C61.6889 71.2713 61.7099 71.0817 61.8679 70.9658C61.9627 70.8921 62.0891 70.8289 62.1312 70.8289C62.1839 70.8289 62.2049 71.503 62.1944 72.3245ZM57.7288 71.3134C57.8657 71.366 57.8973 71.5662 57.8973 72.3666C57.8973 73.3566 57.8973 73.3566 57.634 73.3566H57.3707V72.3034C57.3707 71.2713 57.4023 71.187 57.7288 71.3134ZM61.0569 72.5772C61.0569 73.6515 61.0359 73.7884 60.8884 73.7358C60.7936 73.7042 60.6989 73.6726 60.6778 73.6726C60.6041 73.6726 60.6357 71.503 60.7094 71.4292C60.741 71.3871 60.8358 71.3555 60.92 71.3555C61.0254 71.3555 61.0569 71.6293 61.0569 72.5772ZM58.9505 72.5246C58.9505 73.3882 58.9295 73.4619 58.7399 73.4619C58.5398 73.4619 58.5293 73.3882 58.5293 72.4719C58.5293 71.5346 58.5398 71.4819 58.7399 71.5346C58.9295 71.5872 58.9505 71.682 58.9505 72.5246ZM60.0037 72.6088C60.0037 73.5988 59.9932 73.6515 59.7931 73.5988C59.6035 73.5462 59.5825 73.4514 59.5825 72.5562C59.5825 71.6399 59.593 71.5662 59.7931 71.5662C59.9932 71.5662 60.0037 71.6399 60.0037 72.6088Z" fill="black"/>
<path d="M58.5972 60.6624C58.5656 60.7572 58.534 61.5997 58.534 62.516V64.2011L58.2285 64.4855C57.9547 64.7488 57.6914 65.1385 57.6914 65.2859C57.6914 65.3175 57.8599 65.3491 58.06 65.3491C58.3444 65.3491 58.4286 65.3912 58.4286 65.5282C58.4286 65.6335 58.5234 65.8336 58.6393 65.981C58.8499 66.2338 58.8605 66.2443 59.0079 66.0442C59.1027 65.9284 59.1659 65.6124 59.1659 65.3281V64.8225L60.3033 64.0747C61.6409 63.1795 61.6304 63.1901 61.5461 63.0426C61.4935 62.9689 61.0511 63.1374 60.3033 63.5165C59.6714 63.8325 59.1343 64.0853 59.1132 64.0642C59.0922 64.0431 59.029 63.2743 58.9658 62.358C58.8605 60.7782 58.7551 60.2622 58.5972 60.6624Z" fill="black"/>
<path d="M41.7123 76.4939L34.0977 77.4102V79.8537C34.0977 81.7915 34.1293 82.3076 34.2346 82.3076C34.3083 82.3076 37.8892 81.9811 42.1863 81.5704L50.001 80.8437L57.8158 81.5704C62.1128 81.9811 65.6937 82.3076 65.7675 82.3076C65.8728 82.3076 65.9044 81.7915 65.9044 79.8537V77.4102L58.037 76.4834C53.6978 75.9779 49.9694 75.5671 49.7377 75.5777C49.506 75.5882 45.8935 75.9989 41.7123 76.4939ZM49.5797 78.2423V80.4013L49.1374 80.454C48.4528 80.5488 35.0982 81.781 34.7822 81.781H34.5189V79.801V77.821L41.607 76.9679C45.4933 76.5045 48.8846 76.1148 49.1374 76.1043L49.5797 76.0937V78.2423ZM51.0542 78.3054C51.0542 79.9168 51.0332 80.2012 50.8962 80.2012C50.7593 80.2012 50.7383 79.9168 50.7383 78.3054C50.7383 76.694 50.7593 76.4097 50.8962 76.4097C51.0332 76.4097 51.0542 76.694 51.0542 78.3054ZM52.1074 78.4108C52.1074 80.0222 52.0864 80.3065 51.9494 80.3065C51.8125 80.3065 51.7915 80.0222 51.7915 78.4108C51.7915 76.7994 51.8125 76.515 51.9494 76.515C52.0864 76.515 52.1074 76.7994 52.1074 78.4108ZM53.1606 78.5161C53.1606 80.1275 53.1396 80.4119 53.0026 80.4119C52.8657 80.4119 52.8447 80.1275 52.8447 78.5161C52.8447 76.9047 52.8657 76.6203 53.0026 76.6203C53.1396 76.6203 53.1606 76.9047 53.1606 78.5161ZM54.1928 78.653C54.2138 80.2644 54.1928 80.5172 54.0558 80.5172C53.9189 80.5172 53.8979 80.2433 53.8979 78.6109C53.8979 77.1364 53.9295 76.7151 54.0348 76.7467C54.1296 76.7888 54.1717 77.2838 54.1928 78.653ZM55.267 78.7899C55.267 80.3487 55.246 80.6225 55.109 80.6225C54.9721 80.6225 54.9511 80.3381 54.9511 78.7267C54.9511 77.0943 54.9721 76.8415 55.109 76.8942C55.246 76.9468 55.267 77.2628 55.267 78.7899ZM56.3202 78.9479C56.3202 80.3381 56.2886 80.7383 56.1938 80.7067C56.0885 80.6646 56.0464 80.1907 56.0253 78.9058C56.0043 77.3892 56.0253 77.1469 56.1623 77.1469C56.2992 77.1469 56.3202 77.3997 56.3202 78.9479ZM57.3734 79.0427C57.3734 80.5804 57.3524 80.8226 57.2155 80.7699C57.0891 80.7173 57.0575 80.4119 57.0575 78.9795C57.0575 77.5155 57.0785 77.2522 57.2155 77.2522C57.3524 77.2522 57.3734 77.5261 57.3734 79.0427ZM58.4266 79.148C58.4266 80.6857 58.4056 80.9279 58.2687 80.8753C58.1423 80.8226 58.1107 80.5172 58.1107 79.0848C58.1107 77.6209 58.1317 77.3576 58.2687 77.3576C58.4056 77.3576 58.4266 77.6314 58.4266 79.148ZM59.4798 79.2007C59.4798 80.6752 59.4588 80.9385 59.3219 80.9385C59.1849 80.9385 59.1639 80.6752 59.1639 79.2007C59.1639 77.7262 59.1849 77.4629 59.3219 77.4629C59.4588 77.4629 59.4798 77.7262 59.4798 79.2007ZM60.533 79.306C60.533 80.7805 60.512 81.0438 60.3751 81.0438C60.2381 81.0438 60.2171 80.7805 60.2171 79.306C60.2171 77.8315 60.2381 77.5682 60.3751 77.5682C60.512 77.5682 60.533 77.8315 60.533 79.306ZM61.5862 79.4113C61.5862 80.8858 61.5652 81.1491 61.4283 81.1491C61.2913 81.1491 61.2703 80.8858 61.2703 79.4113C61.2703 77.9368 61.2913 77.6735 61.4283 77.6735C61.5652 77.6735 61.5862 77.9368 61.5862 79.4113ZM62.6394 79.5166C62.6394 80.9911 62.6184 81.2544 62.4815 81.2544C62.3446 81.2544 62.3235 80.9911 62.3235 79.5166C62.3235 78.0421 62.3446 77.7788 62.4815 77.7788C62.6184 77.7788 62.6394 78.0421 62.6394 79.5166ZM63.6926 79.5166C63.7137 81.3913 63.7242 81.3597 63.5347 81.3597C63.3978 81.3597 63.3767 81.107 63.3767 79.6957C63.3767 78.7794 63.4083 77.9895 63.4504 77.9474C63.6189 77.7788 63.6821 78.1369 63.6926 79.5166ZM64.8406 79.7799C64.8406 81.3703 64.8301 81.4651 64.63 81.4651C64.4404 81.4651 64.4299 81.3703 64.4299 79.7799C64.4299 78.158 64.4404 78.0948 64.6405 78.0948C64.8512 78.0948 64.8512 78.158 64.8406 79.7799Z" fill="black"/>
<path d="M48.7383 78.3025C48.7383 79.9139 48.7593 80.1982 48.8963 80.1982C49.0332 80.1982 49.0542 79.9139 49.0542 78.3025C49.0542 76.6911 49.0332 76.4067 48.8963 76.4067C48.7593 76.4067 48.7383 76.6911 48.7383 78.3025Z" fill="black"/>
<path d="M47.6657 78.2203C47.6341 80.1266 47.6446 80.3057 47.8553 80.3057C47.9711 80.3057 48.0027 79.9581 48.0027 78.4099C48.0027 76.8196 47.9816 76.5141 47.8447 76.5141C47.7183 76.5141 47.6867 76.809 47.6657 78.2203Z" fill="black"/>
<path d="M46.575 76.769C46.5434 76.8427 46.5329 77.6853 46.5539 78.6331C46.5855 80.1814 46.6066 80.3604 46.7751 80.392C46.9436 80.4236 46.9541 80.2761 46.9541 78.5278C46.9541 76.8848 46.9331 76.6215 46.7962 76.6215C46.7014 76.6215 46.6066 76.6847 46.575 76.769Z" fill="black"/>
<path d="M45.5135 76.8639C45.4924 76.9376 45.4819 77.7802 45.4924 78.7281C45.524 80.2868 45.5451 80.4659 45.7136 80.4975C45.8821 80.5291 45.8926 80.3816 45.8926 78.6333C45.8926 76.9903 45.8716 76.727 45.7346 76.727C45.6399 76.727 45.5451 76.7902 45.5135 76.8639Z" fill="black"/>
<path d="M44.4425 78.7473C44.4741 80.285 44.4952 80.5693 44.6321 80.5693C44.769 80.5693 44.7901 80.285 44.8217 78.7473C44.8427 76.9779 44.8427 76.9358 44.6321 76.9358C44.4214 76.9358 44.4214 76.9779 44.4425 78.7473Z" fill="black"/>
<path d="M43.5022 77.1341C43.4074 77.1973 43.3758 77.6396 43.3969 78.9456C43.4285 80.399 43.4495 80.6729 43.5864 80.6729C43.7234 80.6729 43.7444 80.399 43.776 78.9456C43.7865 77.9872 43.7655 77.1762 43.7234 77.1341C43.6707 77.0814 43.5759 77.0814 43.5022 77.1341Z" fill="black"/>
<path d="M42.3409 79.0099C42.3725 80.5055 42.3936 80.7793 42.5305 80.7793C42.6674 80.7793 42.6885 80.5055 42.7201 79.0099C42.7412 77.2932 42.7412 77.2511 42.5305 77.2511C42.3199 77.2511 42.3199 77.2932 42.3409 79.0099Z" fill="black"/>
<path d="M41.2617 79.0726C41.2617 80.0205 41.2933 80.8209 41.3249 80.863C41.3565 80.8946 41.4513 80.8946 41.5356 80.863C41.6514 80.8209 41.683 80.4628 41.683 79.0831C41.683 77.4296 41.6725 77.3559 41.4724 77.3559C41.2723 77.3559 41.2617 77.4296 41.2617 79.0726Z" fill="black"/>
<path d="M40.207 79.179C40.207 80.1269 40.2386 80.9273 40.2702 80.9695C40.3018 81.0011 40.3966 81.0011 40.4809 80.9695C40.5967 80.9273 40.6283 80.5693 40.6283 79.1896C40.6283 77.536 40.6178 77.4623 40.4177 77.4623C40.2176 77.4623 40.207 77.536 40.207 79.179Z" fill="black"/>
<path d="M39.1641 79.3071C39.1641 80.9712 39.1746 81.0449 39.3747 81.0449C39.5748 81.0449 39.5853 80.9712 39.5853 79.3071C39.5853 77.6431 39.5748 77.5694 39.3747 77.5694C39.1746 77.5694 39.1641 77.6431 39.1641 79.3071Z" fill="black"/>
<path d="M38.1094 79.4087C38.1094 81.0728 38.1199 81.1465 38.32 81.1465C38.5201 81.1465 38.5307 81.0728 38.5307 79.4087C38.5307 77.7446 38.5201 77.6709 38.32 77.6709C38.1199 77.6709 38.1094 77.7446 38.1094 79.4087Z" fill="black"/>
<path d="M37.1167 77.8406C37.0746 77.8827 37.043 78.6726 37.043 79.5889C37.043 81.1897 37.0535 81.2529 37.2536 81.2529C37.4642 81.2529 37.4642 81.2003 37.4432 79.5467C37.4116 77.9564 37.3484 77.6088 37.1167 77.8406Z" fill="black"/>
<path d="M36.062 77.946C36.0199 77.9882 35.9883 78.7781 35.9883 79.6943C35.9883 81.2952 35.9988 81.3584 36.1989 81.3584C36.4096 81.3584 36.4096 81.3057 36.3885 79.6522C36.3569 78.0619 36.2937 77.7143 36.062 77.946Z" fill="black"/>
<path d="M35.0861 78.061C34.9808 78.1032 34.9492 78.5455 34.9492 79.7883C34.9492 81.2101 34.9703 81.4629 35.1072 81.4629C35.2441 81.4629 35.2652 81.2312 35.2757 80.0621C35.2757 79.3038 35.2968 78.535 35.3073 78.377C35.3284 78.0505 35.2862 77.9873 35.0861 78.061Z" fill="black"/>
<path d="M42.102 82.202C38.0156 82.6022 34.5505 82.9287 34.3926 82.9287L34.0977 82.9392V90.4696V97.9895L35.3404 97.9368C36.0145 97.9052 39.5954 97.7894 43.2816 97.684C49.8536 97.4945 50.1379 97.4945 56.6573 97.684C60.3224 97.7894 63.9033 97.9052 64.6195 97.9368L65.9044 98V90.4696C65.9044 84.2768 65.8833 82.9392 65.7675 82.9392C65.6832 82.9392 62.1128 82.6022 57.8052 82.202C53.5082 81.7912 49.8852 81.4753 49.7588 81.4753C49.6324 81.4858 46.1884 81.8123 42.102 82.202ZM49.5797 89.5112V97.0311L47.9789 97.0942C47.0942 97.1258 44.4717 97.2101 42.1547 97.2628C39.8376 97.3154 37.173 97.3997 36.2357 97.4313L34.5189 97.4945V90.4275V83.3605L34.7612 83.35C34.8876 83.35 38.1209 83.0445 41.944 82.6864C45.7671 82.3178 49.0531 82.0124 49.2427 82.0019L49.5797 81.9913V89.5112ZM51.0542 89.5217C51.0542 95.862 51.0332 96.7362 50.8962 96.7362C50.7593 96.7362 50.7383 95.862 50.7383 89.5217C50.7383 83.1814 50.7593 82.3073 50.8962 82.3073C51.0332 82.3073 51.0542 83.1814 51.0542 89.5217ZM52.1074 89.5744C52.1074 95.8725 52.0864 96.7362 51.9494 96.7362C51.8125 96.7362 51.7915 95.8725 51.7915 89.5744C51.7915 83.2762 51.8125 82.4126 51.9494 82.4126C52.0864 82.4126 52.1074 83.2762 52.1074 89.5744ZM53.1606 89.6797C53.1606 95.9779 53.1396 96.8415 53.0026 96.8415C52.8657 96.8415 52.8447 95.9779 52.8447 89.6797C52.8447 83.3816 52.8657 82.5179 53.0026 82.5179C53.1396 82.5179 53.1606 83.3816 53.1606 89.6797ZM54.2138 89.7324C54.2138 95.9779 54.1928 96.8415 54.0558 96.8415C53.9189 96.8415 53.8979 95.9779 53.8979 89.7324C53.8979 83.4869 53.9189 82.6232 54.0558 82.6232C54.1928 82.6232 54.2138 83.4869 54.2138 89.7324ZM55.267 89.785C55.267 95.9884 55.246 96.8415 55.109 96.8415C54.9721 96.8415 54.9511 95.9884 54.9511 89.785C54.9511 83.5817 54.9721 82.7286 55.109 82.7286C55.246 82.7286 55.267 83.5817 55.267 89.785ZM56.3202 89.8903C56.3202 96.0937 56.2992 96.9468 56.1623 96.9468C56.0253 96.9468 56.0043 96.0937 56.0043 89.8903C56.0043 83.687 56.0253 82.8339 56.1623 82.8339C56.2992 82.8339 56.3202 83.687 56.3202 89.8903ZM57.3734 89.943C57.3734 96.0937 57.3524 96.9468 57.2155 96.9468C57.0785 96.9468 57.0575 96.0937 57.0575 89.943C57.0575 83.7923 57.0785 82.9392 57.2155 82.9392C57.3524 82.9392 57.3734 83.7923 57.3734 89.943ZM58.4266 89.9957C58.4266 96.1042 58.4056 96.9468 58.2687 96.9468C58.1317 96.9468 58.1107 96.1042 58.1107 89.9957C58.1107 83.8871 58.1317 83.0445 58.2687 83.0445C58.4056 83.0445 58.4266 83.8871 58.4266 89.9957ZM59.4798 90.1115C59.4798 95.6303 59.4482 97.0626 59.3535 97.0311C59.2481 96.9889 59.206 95.4828 59.1849 90.0694C59.1639 83.9608 59.1849 83.1498 59.3219 83.1498C59.4588 83.1498 59.4798 83.9819 59.4798 90.1115ZM60.533 90.1536C60.533 96.2201 60.512 97.0521 60.3751 97.0521C60.2381 97.0521 60.2171 96.2201 60.2171 90.1536C60.2171 84.0872 60.2381 83.2552 60.3751 83.2552C60.512 83.2552 60.533 84.0872 60.533 90.1536ZM61.5862 90.2063C61.5862 96.2201 61.5652 97.0521 61.4283 97.0521C61.2913 97.0521 61.2703 96.2201 61.2703 90.2063C61.2703 84.1925 61.2913 83.3605 61.4283 83.3605C61.5652 83.3605 61.5862 84.1925 61.5862 90.2063ZM62.6394 90.3116C62.6394 96.3465 62.6184 97.1469 62.4815 97.0942C62.3446 97.0416 62.3235 96.178 62.3235 90.2484C62.3235 84.2873 62.3446 83.4658 62.4815 83.4658C62.6184 83.4658 62.6394 84.2978 62.6394 90.3116ZM63.6926 90.3643C63.6926 96.3359 63.6716 97.1574 63.5347 97.1574C63.3978 97.1574 63.3767 96.3359 63.3767 90.3643C63.3767 84.3926 63.3978 83.5711 63.5347 83.5711C63.6716 83.5711 63.6926 84.3926 63.6926 90.3643ZM64.7669 90.4169C64.7353 96.041 64.7037 97.1153 64.5773 97.1364C64.451 97.168 64.4299 96.1569 64.4299 90.4169C64.4299 84.0345 64.4404 83.6659 64.6195 83.6975C64.788 83.7291 64.7985 84.1188 64.7669 90.4169Z" fill="black"/>
<path d="M48.7383 89.5199C48.7383 95.8602 48.7593 96.7344 48.8963 96.7344C49.0332 96.7344 49.0542 95.8602 49.0542 89.5199C49.0542 83.1797 49.0332 82.3055 48.8963 82.3055C48.7593 82.3055 48.7383 83.1797 48.7383 89.5199Z" fill="black"/>
<path d="M47.6836 89.6288C47.6836 95.9901 47.7047 96.8327 47.8416 96.78C47.9785 96.7273 47.9996 95.8216 47.9996 89.5656C47.9996 83.278 47.9785 82.4143 47.8416 82.4143C47.7047 82.4143 47.6836 83.2885 47.6836 89.6288Z" fill="black"/>
<path d="M46.6445 89.6771C46.6445 95.9752 46.6656 96.8389 46.8025 96.8389C46.9394 96.8389 46.9605 95.9752 46.9605 89.6771C46.9605 83.3789 46.9394 82.5153 46.8025 82.5153C46.6656 82.5153 46.6445 83.3789 46.6445 89.6771Z" fill="black"/>
<path d="M45.5938 89.7298C45.5938 95.9752 45.6148 96.8389 45.7517 96.8389C45.8886 96.8389 45.9097 95.9752 45.9097 89.7298C45.9097 83.4843 45.8886 82.6206 45.7517 82.6206C45.6148 82.6206 45.5938 83.4843 45.5938 89.7298Z" fill="black"/>
<path d="M44.5355 83.0103C44.5355 83.1788 44.525 86.349 44.504 90.0773C44.4829 96.4597 44.4934 96.8389 44.6725 96.8389C44.841 96.8389 44.8515 96.4281 44.8515 89.7824C44.8515 83.579 44.8304 82.726 44.6935 82.726C44.5882 82.726 44.5355 82.8313 44.5355 83.0103Z" fill="black"/>
<path d="M43.4418 83.1733C43.4102 83.3629 43.3997 86.533 43.4102 90.2087C43.4313 96.4858 43.4418 96.8965 43.6208 96.9281C43.7894 96.9597 43.7999 96.57 43.7999 89.9033C43.7999 83.7842 43.7788 82.8363 43.6419 82.8363C43.5576 82.8363 43.4734 82.9732 43.4418 83.1733Z" fill="black"/>
<path d="M42.3242 89.9415C42.3242 96.8716 42.3242 96.9453 42.5349 96.9453C42.7455 96.9453 42.7455 96.8716 42.7455 89.9415C42.7455 83.0114 42.7455 82.9377 42.5349 82.9377C42.3242 82.9377 42.3242 83.0114 42.3242 89.9415Z" fill="black"/>
<path d="M41.2617 89.9942C41.2617 96.8716 41.2617 96.9453 41.4724 96.9453C41.683 96.9453 41.683 96.8716 41.683 89.9942C41.683 83.1168 41.683 83.043 41.4724 83.043C41.2617 83.043 41.2617 83.1168 41.2617 89.9942Z" fill="black"/>
<path d="M40.2277 90.069C40.2593 96.1459 40.2803 96.999 40.4172 96.999C40.5541 96.999 40.5752 96.1459 40.6068 90.069C40.6279 83.1915 40.6279 83.1494 40.4172 83.1494C40.2066 83.1494 40.2066 83.1915 40.2277 90.069Z" fill="black"/>
<path d="M39.1641 90.1552C39.1641 96.98 39.1641 97.0537 39.3747 97.0537C39.5853 97.0537 39.5853 96.98 39.5853 90.1552C39.5853 83.3305 39.5853 83.2568 39.3747 83.2568C39.1641 83.2568 39.1641 83.3305 39.1641 90.1552Z" fill="black"/>
<path d="M38.1094 90.2079C38.1094 96.98 38.1094 97.0537 38.32 97.0537C38.5307 97.0537 38.5307 96.98 38.5307 90.2079C38.5307 83.4358 38.5307 83.3621 38.32 83.3621C38.1094 83.3621 38.1094 83.4358 38.1094 90.2079Z" fill="black"/>
<path d="M37.043 90.3199C37.043 96.7866 37.0535 97.1658 37.2325 97.1342C37.4011 97.1026 37.4116 96.6813 37.4432 90.2778C37.4642 83.5163 37.4642 83.4636 37.2536 83.4636C37.043 83.4636 37.043 83.5268 37.043 90.3199Z" fill="black"/>
<path d="M35.9883 90.367C35.9883 97.0864 35.9883 97.1602 36.1989 97.1602C36.4096 97.1602 36.4096 97.0864 36.4096 90.367C36.4096 83.6476 36.4096 83.5738 36.1989 83.5738C35.9883 83.5738 35.9883 83.6476 35.9883 90.367Z" fill="black"/>
<path d="M34.9492 90.4197C34.9492 97.0864 34.9492 97.1602 35.1599 97.1602C35.3705 97.1602 35.3705 97.0864 35.3705 90.4197C35.3705 83.7529 35.3705 83.6792 35.1599 83.6792C34.9492 83.6792 34.9492 83.7529 34.9492 90.4197Z" fill="black"/>
</svg>
