<svg width="100" height="100" viewBox="0 0 100 100" fill="none" xmlns="http://www.w3.org/2000/svg">
<rect width="100" height="100" fill="white"/>
<path d="M36.7366 5.18363C36.6316 5.26233 36.5529 13.7093 36.5529 23.9401V42.513H34.7166H32.8803V43.3V44.087H34.7166H36.5529V68.2212V92.3554H28.2633H20L20.0787 93.1949L20.1574 94.0605H49.6694H79.1813L79.26 93.1949L79.3387 92.3554H69.2391C61.3167 92.3554 59.1132 92.2767 59.1132 92.0144C59.1132 91.857 59.3493 90.5716 59.6116 89.2075C62.3398 75.6713 61.3167 61.0858 56.7522 48.5465C55.4668 44.9789 52.3451 38.5256 50.5088 35.5613L49.1972 33.4627L51.2696 33.384L53.342 33.3053V32.5445V31.7837L50.6662 31.705L47.9905 31.6264L46.0755 29.1342C45.0261 27.7701 42.8488 25.2518 41.2748 23.5729L38.3892 20.5299V12.7649V5H37.6547C37.235 5 36.8153 5.0787 36.7366 5.18363ZM43.6883 29.3441C46.1542 32.3609 48.9348 36.6893 50.9548 40.6767C51.9779 42.6704 52.8173 44.3755 52.8173 44.4542C52.8173 44.5329 49.9842 44.6116 46.5214 44.6116H40.2255V34.9579L40.2518 25.3305L41.1699 26.3798C41.6946 26.9569 42.8226 28.2948 43.6883 29.3441ZM54.1289 50.5665C57.5917 61.4006 58.4836 74.0449 56.6211 86.453C56.385 87.8958 56.1489 89.3911 56.0702 89.7846L55.9128 90.5191H48.0692H40.2255V69.2705V48.0219H46.7837H53.3157L54.1289 50.5665Z" fill="black"/>
<path d="M41.7969 36.1641V43.0371H46.1253C48.5125 43.0371 50.4537 42.9584 50.4537 42.8272C50.4537 42.4862 47.332 37.0036 46.0466 35.0361C44.9448 33.3834 42.6101 30.183 42.033 29.5272C41.9018 29.396 41.7969 32.3341 41.7969 36.1641Z" fill="black"/>
<path d="M41.7969 51.1695V52.7434H47.4369C53.7066 52.7434 53.3656 52.8746 52.6573 50.8284L52.2376 49.5955H47.0172H41.7969V51.1695Z" fill="black"/>
<path d="M41.7969 56.023V57.9905H48.0928C55.2281 57.9905 54.6247 58.2266 54.0214 55.6295L53.6804 54.1867L47.7517 54.108L41.7969 54.0556V56.023Z" fill="black"/>
<path d="M41.7969 61.2689V63.2363H48.6437H55.4642L55.2806 62.0034C55.1756 61.3213 55.0182 60.4556 54.9133 60.0884L54.7559 59.4326L48.2764 59.3539L41.7969 59.3014V61.2689Z" fill="black"/>
<path d="M41.7969 66.6471V68.4834H48.906H56.0413L55.8577 67.2767C55.779 66.5946 55.7003 65.7814 55.7003 65.4404V64.8108H48.7486H41.7969V66.6471Z" fill="black"/>
<path d="M41.7969 71.8942V73.7305H49.0109H56.2249V73.1009C56.2249 72.7599 56.1462 71.9466 56.0675 71.2646L55.8839 70.0579H48.8535H41.7969V71.8942Z" fill="black"/>
<path d="M41.7969 77.1403V78.9766H48.8535H55.9102L56.0151 77.3239C56.0675 76.432 56.0675 75.6188 56.0151 75.4876C55.9626 75.3827 52.7622 75.304 48.8535 75.304H41.7969V77.1403Z" fill="black"/>
<path d="M41.7969 82.5179V84.4854H48.5912H55.3593L55.5429 83.4885C55.6216 82.9638 55.7003 82.0719 55.7003 81.521V80.5504H48.7486H41.7969V82.5179Z" fill="black"/>
<path d="M41.7969 87.3713V88.9453H48.2239C53.1557 88.9453 54.7034 88.8666 54.7821 88.6043C54.8346 88.4469 54.9395 87.7386 55.0445 87.0303L55.2019 85.7974H48.5125H41.7969V87.3713Z" fill="black"/>
</svg>
