<svg width="48" height="48" viewBox="0 0 48 48" fill="none" xmlns="http://www.w3.org/2000/svg">
<g clip-path="url(#clip0_274_28853)">
<path d="M25.2901 27.3264H31.3441C33.0661 27.3264 34.1561 26.3784 34.1561 24.8564C34.1561 23.4224 33.0661 22.3884 31.3441 22.3884H25.2901C25.0901 22.3884 24.9161 22.5604 24.9161 22.7324V26.9824C24.9461 27.1824 25.0881 27.3264 25.2901 27.3264ZM25.2901 37.1184H31.5461C33.4681 37.1184 34.6161 36.1424 34.6161 34.4184C34.6161 32.9264 33.5261 31.7184 31.5461 31.7184H25.2901C25.0901 31.7184 24.9161 31.8924 24.9161 32.0644V36.7444C24.9461 36.9744 25.0881 37.1184 25.2901 37.1184ZM47.4401 0.106396L29.5341 17.9664H32.4621C37.0241 17.9664 39.7221 20.8364 39.7221 23.9664C39.7221 26.4364 38.0581 28.2464 36.2781 29.0484C35.9921 29.1644 35.9921 29.5664 36.3061 29.6804C38.3721 30.4844 39.8361 32.6404 39.8361 35.1644C39.8361 38.7244 37.4561 41.5684 32.8361 41.5684H20.1521C19.9521 41.5684 19.7781 41.3964 19.7781 41.2244V27.7004L0.124094 47.2804C-0.135906 47.5404 0.0380945 47.9984 0.410094 47.9984H47.6721C47.7556 47.9974 47.8354 47.9637 47.8944 47.9047C47.9534 47.8457 47.9871 47.7659 47.9881 47.6824V0.364396C48.0741 0.0483961 47.6721 -0.123604 47.4421 0.104396L47.4401 0.106396Z" fill="white"/>
</g>
<defs>
<clipPath id="clip0_274_28853">
<rect width="48" height="48" fill="white"/>
</clipPath>
</defs>
</svg>
