<svg width="113" height="142" viewBox="0 0 113 142" fill="none" xmlns="http://www.w3.org/2000/svg">
<g filter="url(#filter0_dddd_115_27429)">
<rect x="18.5352" y="3" width="76.2673" height="77" rx="20" fill="white"/>
</g>
<path d="M61.2351 66.9496L51.8594 57.5633L71.9992 37.2188L81.5477 46.7646L61.2351 66.9496Z" fill="#8AB4F8"/>
<path d="M61.3031 26.5246L51.7568 16.9766L31.5142 37.2184C28.8773 39.853 28.8751 44.123 31.5098 46.7599C31.512 46.762 31.5142 46.7642 31.5142 46.7642L51.7568 67.006L61.1216 57.5979L45.8249 42.0044L61.3031 26.5246Z" fill="#4285F4"/>
<path d="M81.5461 37.2175L61.3035 16.9757C58.6666 14.3388 54.392 14.3388 51.755 16.9757C49.1181 19.6125 49.1181 23.8869 51.755 26.5215L72.0086 46.7633C74.6455 49.4002 78.9201 49.4002 81.5548 46.7633C84.1918 44.1265 84.1918 39.8521 81.5548 37.2175H81.5461Z" fill="#8AB4F8"/>
<path d="M56.4563 69.0019C60.1515 69.0019 63.147 66.0065 63.147 62.3115C63.147 58.6165 60.1515 55.6211 56.4563 55.6211C52.7611 55.6211 49.7656 58.6165 49.7656 62.3115C49.7656 66.0065 52.7611 69.0019 56.4563 69.0019Z" fill="#246FDB"/>
<defs>
<filter id="filter0_dddd_115_27429" x="0.535156" y="0" width="112.266" height="142" filterUnits="userSpaceOnUse" color-interpolation-filters="sRGB">
<feFlood flood-opacity="0" result="BackgroundImageFix"/>
<feColorMatrix in="SourceAlpha" type="matrix" values="0 0 0 0 0 0 0 0 0 0 0 0 0 0 0 0 0 0 127 0" result="hardAlpha"/>
<feOffset dy="3"/>
<feGaussianBlur stdDeviation="3"/>
<feColorMatrix type="matrix" values="0 0 0 0 0 0 0 0 0 0 0 0 0 0 0 0 0 0 0.1 0"/>
<feBlend mode="normal" in2="BackgroundImageFix" result="effect1_dropShadow_115_27429"/>
<feColorMatrix in="SourceAlpha" type="matrix" values="0 0 0 0 0 0 0 0 0 0 0 0 0 0 0 0 0 0 127 0" result="hardAlpha"/>
<feOffset dy="11"/>
<feGaussianBlur stdDeviation="5.5"/>
<feColorMatrix type="matrix" values="0 0 0 0 0 0 0 0 0 0 0 0 0 0 0 0 0 0 0.09 0"/>
<feBlend mode="normal" in2="effect1_dropShadow_115_27429" result="effect2_dropShadow_115_27429"/>
<feColorMatrix in="SourceAlpha" type="matrix" values="0 0 0 0 0 0 0 0 0 0 0 0 0 0 0 0 0 0 127 0" result="hardAlpha"/>
<feOffset dy="25"/>
<feGaussianBlur stdDeviation="7.5"/>
<feColorMatrix type="matrix" values="0 0 0 0 0 0 0 0 0 0 0 0 0 0 0 0 0 0 0.05 0"/>
<feBlend mode="normal" in2="effect2_dropShadow_115_27429" result="effect3_dropShadow_115_27429"/>
<feColorMatrix in="SourceAlpha" type="matrix" values="0 0 0 0 0 0 0 0 0 0 0 0 0 0 0 0 0 0 127 0" result="hardAlpha"/>
<feOffset dy="44"/>
<feGaussianBlur stdDeviation="9"/>
<feColorMatrix type="matrix" values="0 0 0 0 0 0 0 0 0 0 0 0 0 0 0 0 0 0 0.01 0"/>
<feBlend mode="normal" in2="effect3_dropShadow_115_27429" result="effect4_dropShadow_115_27429"/>
<feBlend mode="normal" in="SourceGraphic" in2="effect4_dropShadow_115_27429" result="shape"/>
</filter>
</defs>
</svg>
