<svg width="48" height="48" viewBox="0 0 48 48" fill="none" xmlns="http://www.w3.org/2000/svg">
<g clip-path="url(#clip0_274_28583)">
<path d="M42.75 0H5.25C2.35051 0 0 2.35051 0 5.25V42.75C0 45.6495 2.35051 48 5.25 48H42.75C45.6495 48 48 45.6495 48 42.75V5.25C48 2.35051 45.6495 0 42.75 0Z" fill="#092E20"/>
<path d="M34.9461 17.6629V30.0805C34.9461 34.359 34.6331 36.4111 33.694 38.1851C32.8242 39.8898 31.6762 40.9678 29.3111 42.1506L24.337 39.7853C26.7023 38.6723 27.8501 37.6986 28.5805 36.2024C29.3459 34.672 29.5896 32.8979 29.5896 28.2371V17.6629H34.9461ZM26.4245 9.39062V34.1853C23.6766 34.707 21.659 34.9157 19.4678 34.9157C12.9283 34.9157 9.51953 31.9593 9.51953 26.2893C9.51953 20.8282 13.1372 17.2806 18.7372 17.2806C19.6067 17.2806 20.2676 17.3499 21.0678 17.5586V9.39062H26.4245ZM19.2591 21.5934C16.546 21.5934 14.9806 23.2631 14.9806 26.1847C14.9806 29.0372 16.4764 30.6024 19.2244 30.6024C19.8154 30.6024 20.3026 30.5676 21.0678 30.4635V21.8714C20.4417 21.663 19.92 21.5934 19.2591 21.5934ZM34.9461 9.41912V14.915H29.5896V9.41912H34.9461Z" fill="#FFFFFD"/>
</g>
<defs>
<clipPath id="clip0_274_28583">
<rect width="48" height="48" fill="white"/>
</clipPath>
</defs>
</svg>
