<svg width="46" height="46" viewBox="0 0 46 46" fill="none" xmlns="http://www.w3.org/2000/svg">
<rect x="0.5" y="0.5" width="45" height="45" rx="7.5" fill="#1C1C1E"/>
<rect x="0.5" y="0.5" width="45" height="45" rx="7.5" stroke="white"/>
<path d="M27.6458 19.5024H18.3544C16.8955 19.4456 15.5152 18.826 14.5032 17.7737C13.4911 16.7215 12.9258 15.3182 12.9258 13.8582C12.9258 12.3981 13.4911 10.9949 14.5032 9.94256C15.5152 8.89027 16.8955 8.27073 18.3544 8.21387H27.6458C29.1047 8.27073 30.4849 8.89027 31.497 9.94256C32.509 10.9949 33.0744 12.3981 33.0744 13.8582C33.0744 15.3182 32.509 16.7215 31.497 17.7737C30.4849 18.826 29.1047 19.4456 27.6458 19.5024ZM18.3544 10.3567C17.4557 10.4012 16.6085 10.7895 15.9882 11.4413C15.3679 12.0931 15.0219 12.9584 15.0219 13.8582C15.0219 14.7579 15.3679 15.6233 15.9882 16.275C16.6085 16.9268 17.4557 17.3151 18.3544 17.3596H27.6458C28.5445 17.3151 29.3916 16.9268 30.0119 16.275C30.6322 15.6233 30.9782 14.7579 30.9782 13.8582C30.9782 12.9584 30.6322 12.0931 30.0119 11.4413C29.3916 10.7895 28.5445 10.4012 27.6458 10.3567H18.3544Z" fill="white"/>
<path d="M22.932 28.6404H18.3548C16.859 28.6404 15.4245 28.0461 14.3668 26.9884C13.3091 25.9307 12.7148 24.4962 12.7148 23.0004C12.7148 21.5045 13.3091 20.07 14.3668 19.0123C15.4245 17.9546 16.859 17.3604 18.3548 17.3604C18.639 17.3604 18.9115 17.4732 19.1125 17.6742C19.3134 17.8751 19.4263 18.1476 19.4263 18.4318C19.4263 18.7159 19.3134 18.9885 19.1125 19.1894C18.9115 19.3903 18.639 19.5032 18.3548 19.5032C17.4273 19.5032 16.5378 19.8717 15.882 20.5275C15.2261 21.1833 14.8577 22.0729 14.8577 23.0004C14.8577 23.9279 15.2261 24.8174 15.882 25.4732C16.5378 26.129 17.4273 26.4975 18.3548 26.4975H21.8606V18.4318C21.8606 18.1476 21.9734 17.8751 22.1744 17.6742C22.3753 17.4732 22.6478 17.3604 22.932 17.3604C23.2161 17.3604 23.4887 17.4732 23.6896 17.6742C23.8905 17.8751 24.0034 18.1476 24.0034 18.4318V27.5689C24.0034 27.8531 23.8905 28.1256 23.6896 28.3265C23.4887 28.5275 23.2161 28.6404 22.932 28.6404Z" fill="white"/>
<path d="M18.4233 37.786C17.6635 37.8156 16.9056 37.6916 16.195 37.4213C15.4844 37.1509 14.8357 36.74 14.2877 36.2129C13.7397 35.6859 13.3037 35.0536 13.006 34.3541C12.7082 33.6545 12.5547 32.902 12.5547 32.1417C12.5547 31.3814 12.7082 30.629 13.006 29.9294C13.3037 29.2298 13.7397 28.5976 14.2877 28.0706C14.8357 27.5435 15.4844 27.1325 16.195 26.8622C16.9056 26.5919 17.6635 26.4678 18.4233 26.4974C18.7074 26.4974 18.9799 26.6103 19.1809 26.8113C19.3818 27.0122 19.4947 27.2847 19.4947 27.5689C19.4947 27.853 19.3818 28.1256 19.1809 28.3265C18.9799 28.5274 18.7074 28.6403 18.4233 28.6403C17.7295 28.6386 17.0509 28.8428 16.4733 29.227C15.8956 29.6111 15.4449 30.1581 15.1783 30.7985C14.9116 31.4389 14.841 32.1441 14.9753 32.8247C15.1096 33.5053 15.4428 34.1307 15.9327 34.6219C16.4227 35.113 17.0473 35.4478 17.7276 35.5837C18.4079 35.7197 19.1132 35.6508 19.7543 35.3857C20.3954 35.1206 20.9434 34.6713 21.329 34.0946C21.7146 33.5179 21.9204 32.8398 21.9204 32.146V27.5689C21.9204 27.2847 22.0333 27.0122 22.2342 26.8113C22.4351 26.6103 22.7077 26.4974 22.9918 26.4974C23.276 26.4974 23.5485 26.6103 23.7494 26.8113C23.9504 27.0122 24.0633 27.2847 24.0633 27.5689V32.146C24.061 33.6411 23.466 35.0744 22.4088 36.1316C21.3516 37.1888 19.9184 37.7838 18.4233 37.786Z" fill="white"/>
<path d="M27.5687 28.7859C26.438 28.7859 25.3326 28.4505 24.3924 27.8223C23.4523 27.1941 22.7195 26.3012 22.2868 25.2566C21.854 24.2119 21.7408 23.0624 21.9614 21.9533C22.182 20.8443 22.7265 19.8256 23.5261 19.0261C24.3256 18.2265 25.3443 17.682 26.4533 17.4614C27.5624 17.2408 28.7119 17.354 29.7566 17.7868C30.8012 18.2195 31.6941 18.9523 32.3223 19.8924C32.9505 20.8326 33.2859 21.938 33.2859 23.0687C33.2859 23.8195 33.138 24.5629 32.8507 25.2566C32.5633 25.9502 32.1422 26.5805 31.6113 27.1113C31.0805 27.6422 30.4502 28.0633 29.7566 28.3507C29.0629 28.638 28.3195 28.7859 27.5687 28.7859ZM27.5687 19.503C26.8614 19.503 26.17 19.7128 25.5821 20.106C24.9941 20.4991 24.536 21.0578 24.2657 21.7114C23.9954 22.3651 23.9251 23.0842 24.0637 23.7777C24.2024 24.4713 24.5436 25.1082 25.0444 25.6077C25.5451 26.1072 26.1828 26.447 26.8767 26.5839C27.5706 26.7209 28.2895 26.6489 28.9425 26.377C29.5954 26.1052 30.1531 25.6457 30.5448 25.0568C30.9365 24.4679 31.1447 23.776 31.143 23.0687C31.1407 22.1222 30.7631 21.2153 30.0931 20.5468C29.423 19.8784 28.5152 19.503 27.5687 19.503Z" fill="white"/>
<path d="M22.9301 19.5024C22.7894 19.5013 22.6503 19.4725 22.5207 19.4176C22.3911 19.3627 22.2737 19.2829 22.175 19.1826C22.0763 19.0823 21.9983 18.9635 21.9455 18.8331C21.8927 18.7027 21.8661 18.5631 21.8672 18.4224L21.9358 9.27672C21.938 8.99553 22.0507 8.72649 22.2496 8.52765C22.4484 8.32881 22.7175 8.21611 22.9987 8.21387C23.1394 8.21499 23.2785 8.24381 23.408 8.2987C23.5376 8.35358 23.6551 8.43344 23.7538 8.53373C23.8525 8.63402 23.9304 8.75277 23.9832 8.88319C24.036 9.01362 24.0626 9.15316 24.0615 9.29387L23.9929 18.4396C23.9885 18.7201 23.8751 18.9879 23.6767 19.1862C23.4784 19.3846 23.2106 19.498 22.9301 19.5024Z" fill="white"/>
</svg>
