<svg width="48" height="48" viewBox="0 0 48 48" fill="none" xmlns="http://www.w3.org/2000/svg">
<g clip-path="url(#clip0_274_28694)">
<path d="M16.6027 47.952C15.4427 47.864 13.9227 47.578 12.6447 47.208C10.5132 46.5707 8.51721 45.5463 6.75671 44.186C6.02071 43.616 4.45071 42.046 3.81071 41.24C1.43071 38.242 0.218712 34.98 0.0987117 31.244C0.0413262 29.4856 0.262734 27.7292 0.754712 26.04C0.890712 25.582 0.896712 25.53 0.868712 24.98C0.834737 24.2304 0.90201 23.4796 1.06871 22.748C1.19071 22.26 1.52871 21.528 1.74871 21.264L1.88471 21.104L1.86471 21.972C1.84071 23.216 1.84271 23.218 2.23871 22.522C3.14052 20.9083 4.30285 19.4547 5.67871 18.22C6.06671 17.868 6.41671 17.544 6.45471 17.502C6.49271 17.46 6.63471 17.146 6.77271 16.804C7.18671 15.776 7.55671 15.212 7.95871 15.008C8.30871 14.828 8.62671 14.92 8.70071 15.216C8.71448 15.3607 8.70978 15.5065 8.68671 15.65C8.66626 15.7554 8.65754 15.8627 8.66071 15.97C8.67071 15.97 8.97471 15.812 9.33871 15.62C10.6387 14.926 11.5687 14.528 13.5267 13.836C14.1727 13.606 14.7827 13.386 14.8787 13.344C15.4307 13.112 15.7287 12.332 15.6747 11.266C15.6677 10.9198 15.5986 10.5777 15.4707 10.256C15.3981 10.0414 15.3167 9.82991 15.2267 9.622C15.1267 9.426 15.1407 9.392 15.3027 9.438C15.7687 9.572 16.3267 10.022 16.6767 10.548C16.8807 10.856 17.2227 11.592 17.2247 11.732C17.2247 11.844 17.2967 11.792 17.4507 11.564C18.0647 10.656 18.0687 9.624 17.4587 8.588C17.2367 8.208 16.6007 7.582 16.1687 7.314C15.6147 6.974 15.2807 6.874 14.6887 6.88C14.2307 6.884 14.1887 6.876 14.0547 6.766C13.8887 6.626 13.7947 6.328 13.8367 6.08C13.8867 5.796 14.3687 4.88 14.6987 4.44C15.0887 3.92 15.9707 3.072 16.5327 2.672C18.3567 1.376 20.6447 0.592 23.3047 0.352C23.9447 0.292 23.9687 0.288 24.1007 0.146C24.2247 0.014 24.2647 0 24.5407 0C24.8067 0 24.8807 0.024 25.1787 0.194C25.4927 0.376 25.5247 0.386 25.6567 0.326C25.7567 0.282 25.9207 0.272 26.2167 0.292C26.5547 0.312 26.6567 0.306 26.7447 0.244C26.8987 0.136 27.0867 0.15 27.3647 0.292C27.4987 0.358 27.8927 0.478 28.2407 0.552C29.8787 0.916 31.1947 1.424 32.4467 2.182C32.6687 2.316 32.8587 2.426 32.8687 2.426C32.8867 2.426 32.8627 2.25 32.8047 1.934L32.7787 1.8L33.0827 1.98C33.4827 2.22 33.8427 2.594 34.0407 2.972C34.1787 3.238 34.2107 3.272 34.2827 3.226C34.3407 3.192 34.4107 3.188 34.5027 3.22C34.6107 3.258 34.6887 3.37 34.9027 3.806C35.0507 4.104 35.1867 4.36 35.2027 4.378C35.2227 4.398 35.3707 4.262 35.5367 4.082C35.8887 3.698 36.2107 3.482 36.6367 3.336C37.0367 3.202 37.2767 3.23 37.4567 3.432C37.6367 3.632 37.6367 3.892 37.4487 4.286C37.0887 5.046 36.9287 5.742 36.9887 6.274L37.0227 6.548L37.2387 6.396C37.4387 6.256 37.4827 6.244 37.8487 6.244C38.2327 6.244 38.6487 6.36 38.6487 6.468C38.6487 6.492 38.5467 6.634 38.4227 6.786C38.0547 7.238 37.9627 7.492 37.9687 8.038C37.9747 8.54 37.9967 8.654 38.3227 9.774C38.4407 10.184 38.5787 10.72 38.6267 10.964C38.6469 11.1167 38.6872 11.266 38.7467 11.408C38.8267 11.408 39.3727 10.956 39.7027 10.62C39.9007 10.42 40.0767 10.256 40.0927 10.256C40.1587 10.256 40.2747 10.636 40.3267 11.008C40.3867 11.448 40.3407 11.872 40.1807 12.392C40.0847 12.704 40.0827 12.732 40.1567 12.886C40.2787 13.142 40.2967 13.418 40.2127 13.774C40.0727 14.378 39.8147 14.794 39.1467 15.49L38.8027 15.85L38.7467 16.33C38.7147 16.596 38.6467 16.994 38.5947 17.214C38.5542 17.3533 38.5307 17.497 38.5247 17.642C38.5387 17.656 38.5827 17.638 38.6227 17.604C38.7287 17.516 39.0547 17.566 39.3787 17.72C40.0447 18.036 41.3227 19.202 41.8227 19.952L42.0927 20.354L42.5227 20.462C44.2907 20.91 45.6667 22.194 46.4267 24.108C46.6667 24.708 46.8347 25.474 46.9547 26.48C46.9927 26.788 47.0747 27.06 47.3147 27.658C47.4847 28.084 47.6507 28.552 47.6807 28.696C47.7647 29.082 47.7167 29.58 47.5607 29.948C47.4867 30.12 47.3867 30.408 47.3347 30.588C47.1527 31.234 46.8567 31.654 46.3607 31.974C46.2007 32.076 45.9527 32.194 45.8067 32.234C45.5327 32.308 44.6087 32.734 44.6067 32.788C44.6047 32.804 44.6707 32.832 44.7527 32.848C45.1927 32.936 45.7707 33.352 45.9167 33.688C45.9467 33.758 46.0627 33.934 46.1747 34.082C46.6007 34.642 46.7047 35.156 46.5507 35.968L46.4707 36.394L46.5947 36.546C47.0347 37.088 47.4127 37.79 47.5507 38.33C47.7467 39.088 47.7427 39.824 47.5407 40.936L47.4527 41.406L47.6127 41.638C47.9207 42.084 47.9807 42.51 47.8247 43.112C47.4367 44.616 46.2927 45.732 44.6987 46.156L44.3867 46.238V46.654C44.3867 46.974 44.3627 47.122 44.2867 47.288C44.1551 47.5693 43.9285 47.7953 43.6467 47.926C43.1987 48.124 42.5307 47.912 42.2027 47.466C42.0387 47.246 42.0247 47.24 41.7867 47.24C41.6333 47.2367 41.4812 47.2118 41.3347 47.166C40.8387 46.992 40.6107 46.652 40.5987 46.072L40.5907 45.736L40.2787 45.548C39.859 45.3025 39.4792 44.9943 39.1527 44.634L38.8527 44.304L39.0087 44.614C39.6807 45.948 38.9187 47.394 37.3167 47.822C36.9887 47.912 36.7387 47.928 35.3327 47.962C33.1627 48.014 17.2947 48.006 16.6007 47.952H16.6027ZM43.6147 47.15C43.8167 46.974 43.9007 46.526 43.7747 46.284C43.6587 46.054 43.4947 45.984 43.0067 45.944C42.4527 45.904 42.2987 45.824 42.2987 45.588C42.2987 45.282 42.3487 45.268 43.5787 45.252C44.7727 45.236 45.1327 45.178 45.6547 44.912C46.1147 44.68 46.6987 43.956 46.7527 43.548L46.7787 43.358L46.4487 43.452C45.1987 43.802 43.5147 43.866 42.2827 43.61C40.9527 43.33 39.7227 42.57 39.2887 41.758L39.1807 41.556L39.1207 41.696C39.071 41.915 39.0509 42.1397 39.0607 42.364C39.0567 42.858 39.0667 42.914 39.2067 43.204C39.4967 43.814 40.1267 44.406 40.8907 44.79C41.2907 44.992 41.3007 45 41.2747 45.146L41.1907 45.63C41.1167 46.054 41.1587 46.282 41.3527 46.504C41.4532 46.6183 41.5778 46.709 41.7175 46.7695C41.8572 46.83 42.0086 46.8589 42.1607 46.854C42.3487 46.854 42.4647 46.882 42.5447 46.944C42.9567 47.264 43.3867 47.348 43.6147 47.15ZM33.6067 46.782C34.5347 46.648 34.8347 46.644 35.3327 46.754C36.3527 46.98 37.4047 46.8 37.8667 46.318C38.1707 46.002 38.2627 45.498 38.0747 45.188C37.8427 44.808 37.2347 44.548 36.5627 44.548C36.0947 44.548 35.8527 44.616 35.0347 44.964C34.7887 45.0734 34.537 45.1695 34.2807 45.252C33.9327 45.322 33.7507 45.128 33.7507 44.694C33.7507 44.23 33.8807 44.078 34.8707 43.374C35.7247 42.774 36.2327 42.08 36.3587 41.354C36.4147 41.016 36.3527 40.55 36.2367 40.438C36.0476 40.3473 35.85 40.2756 35.6467 40.224C33.9867 39.736 33.2227 39.102 32.5007 37.608C32.2139 37.024 31.9797 36.4156 31.8007 35.79C31.7147 35.4949 31.6132 35.2045 31.4967 34.92C30.9567 33.73 29.6427 32.654 28.1307 32.166C27.4907 31.958 27.0847 31.886 26.0647 31.798C25.688 31.7672 25.3119 31.7292 24.9367 31.684L24.6967 31.648L25.0327 31.476C25.4447 31.268 25.7447 31.17 26.1847 31.106C26.8127 31.012 27.2407 30.996 27.6987 31.046C29.5427 31.254 30.9327 32.202 31.9147 33.922C32.2787 34.562 32.5407 35.216 32.7947 36.126C33.0887 37.178 33.3547 37.71 33.8627 38.246C34.6827 39.116 35.7807 39.506 37.4007 39.506C37.7567 39.506 38.2007 39.482 38.3847 39.456C39.1407 39.35 39.9247 39.08 40.5047 38.73C41.1407 38.348 41.7327 37.646 41.9247 37.05C41.9827 36.87 42.0527 36.72 42.0807 36.72C42.1087 36.72 42.2887 36.756 42.4807 36.8C42.8087 36.878 42.8567 36.878 43.2527 36.8C43.8887 36.68 44.0587 36.692 44.2207 36.864C44.4647 37.124 44.7707 37.172 45.1207 37.004C45.2593 36.9303 45.3806 36.828 45.4767 36.704C45.5927 36.544 45.6167 36.468 45.6047 36.29C45.5907 36.076 45.5847 36.07 45.2187 35.83C45.0874 35.7527 44.963 35.6644 44.8467 35.566C44.8467 35.552 44.9367 35.48 45.0487 35.406C45.2027 35.306 45.2987 35.278 45.4327 35.29C45.6387 35.308 45.6407 35.282 45.4427 34.896C45.2752 34.5464 44.9908 34.2663 44.6387 34.104C43.9647 33.776 43.2007 33.776 42.3487 34.104C41.8367 34.304 41.7587 34.306 41.4087 34.152C40.9467 33.948 40.4767 33.876 39.8387 33.912C39.0547 33.96 38.5367 33.878 38.3387 33.676L38.1927 33.53L38.8227 33.472C39.8027 33.382 40.0867 33.296 40.9547 32.818C41.4907 32.522 41.8107 32.442 42.6147 32.396C43.7747 32.33 44.3247 32.132 44.6347 31.67C44.7447 31.506 44.8007 31.458 44.8507 31.49C45.0168 31.5319 45.1897 31.5398 45.359 31.5133C45.5283 31.4867 45.6904 31.4262 45.8358 31.3354C45.9811 31.2447 46.1066 31.1255 46.2047 30.985C46.3028 30.8445 46.3715 30.6857 46.4067 30.518C46.4387 30.35 46.4307 30.34 45.9307 29.898C45.7498 29.7493 45.5794 29.5883 45.4207 29.416C45.4207 29.396 45.4987 29.316 45.5907 29.232C45.8767 28.982 46.0807 29.024 46.6587 29.448C46.7587 29.522 46.7667 29.522 46.7667 29.438C46.7667 29.248 46.6487 28.938 46.3107 28.218C45.9127 27.378 45.8807 27.278 45.8047 26.61C45.5647 24.55 44.4547 22.826 42.7207 21.82C42.584 21.7351 42.4424 21.6583 42.2967 21.59C42.2787 21.59 42.1967 21.732 42.1107 21.906C42.0199 22.0872 41.907 22.2565 41.7747 22.41C41.6247 22.566 41.5607 22.6 41.4107 22.6C41.1987 22.6 41.0507 22.49 41.0507 22.334C41.0507 22.274 41.1147 22.088 41.1947 21.92C41.4347 21.402 41.5047 21.04 41.4347 20.63C41.2747 19.674 40.3747 18.598 39.2507 18.01C38.8107 17.782 38.7607 17.79 38.7327 18.072C38.7027 18.396 38.7727 19.052 38.8867 19.492C38.9387 19.696 39.1207 20.184 39.2907 20.574C39.7267 21.574 39.8587 22.014 39.8607 22.454C39.869 22.638 39.8426 22.8218 39.7827 22.996C39.6537 23.2548 39.4593 23.4754 39.2187 23.636C39.0527 23.722 38.8687 23.726 38.9047 23.644C39.1587 23.064 39.2427 22.782 39.2627 22.426C39.2907 21.926 39.2227 21.696 38.7947 20.818C38.3667 19.94 38.2467 19.458 38.2727 18.734L38.2927 18.226L38.1767 18.456C38.0205 18.7345 37.8544 19.0074 37.6787 19.274C37.0687 20.218 36.8727 20.726 36.8727 21.362C36.8727 21.95 37.1007 22.77 37.4287 23.362C37.4927 23.478 37.5367 23.582 37.5247 23.596C37.416 23.535 37.318 23.4567 37.2347 23.364C36.9667 23.112 36.5847 22.46 36.5847 22.256C36.5847 22.12 36.4967 22.146 36.1047 22.396C35.3747 22.866 34.8487 23.342 34.1547 24.166C33.1427 25.37 31.7627 26.266 30.0747 26.822C29.6787 26.952 28.3847 27.298 27.2007 27.594C23.9607 28.398 22.8247 28.798 21.3267 29.662C18.3587 31.37 16.8067 33.662 16.5007 36.792C16.3927 37.912 16.5467 39.61 16.8687 40.826C16.9187 41.008 16.6087 40.602 16.4147 40.226C16.0667 39.56 15.8447 38.738 15.7347 37.706C15.6347 36.784 15.7447 34.946 15.9587 33.962L15.9887 33.822L15.2747 33.852C13.5027 33.926 12.0387 34.428 10.8407 35.372C10.6605 35.51 10.4901 35.6604 10.3307 35.822L10.2107 35.966L10.2407 35.826C10.2967 35.572 10.5807 35.018 10.8107 34.716C11.2907 34.082 12.2567 33.476 13.2647 33.174C13.5287 33.094 14.3387 32.896 15.0647 32.734C15.7927 32.574 16.4207 32.43 16.4647 32.418C16.5047 32.406 16.6447 32.202 16.7727 31.966C16.9007 31.73 17.1327 31.36 17.2867 31.146C17.4407 30.928 17.5587 30.744 17.5487 30.734C17.2865 30.754 17.0255 30.7873 16.7667 30.834C16.3467 30.9 15.4187 31.03 14.7067 31.124C13.2687 31.314 12.4587 31.464 11.7067 31.68C9.38671 32.35 8.04671 33.646 7.34871 35.9L7.16871 36.484L7.26271 36.758C7.41271 37.204 7.92271 38.198 8.26271 38.702C9.58871 40.682 11.6707 42.288 14.2247 43.3C14.8047 43.528 14.8727 43.57 15.1727 43.866C15.3507 44.04 15.4887 44.19 15.4807 44.198C15.4447 44.236 13.9727 43.85 13.3367 43.638C11.8017 43.133 10.3696 42.3567 9.10871 41.346C8.83121 41.1302 8.53466 40.9401 8.22271 40.778C7.18148 40.2471 6.23427 39.5492 5.41871 38.712C5.03285 38.3117 4.70499 37.8593 4.44471 37.368L4.23871 36.984L4.53271 37.254C5.17271 37.842 6.09871 38.444 6.55671 38.572C6.66071 38.6 6.65671 38.582 6.46871 38.25C6.18582 37.7449 5.94243 37.2187 5.74071 36.676C5.61272 36.3171 5.42173 35.9839 5.17671 35.692C3.68271 33.75 2.59071 31.8 1.82871 29.712L1.59471 29.066L1.55471 29.278C1.52027 29.6363 1.50358 29.9961 1.50471 30.356L1.49671 31.22L1.77671 31.99C2.06671 32.782 3.10671 35.586 3.19671 35.82C3.22471 35.892 3.23671 35.952 3.22671 35.952C3.21671 35.952 3.04471 35.744 2.84671 35.492C2.38871 34.916 1.87871 34.152 1.78671 33.906L1.71271 33.718L1.74071 33.886C1.88871 34.782 2.28671 36.126 2.67271 37.032C3.84471 39.784 5.77271 42.198 8.11671 43.846C10.4007 45.452 13.5007 46.58 16.2427 46.802C16.5067 46.822 20.4087 46.844 24.9127 46.848C31.9487 46.852 33.1727 46.844 33.6067 46.78V46.782ZM36.9767 33.448C36.4457 33.3397 35.9335 33.1537 35.4567 32.896C34.5347 32.356 33.8807 31.412 33.8167 30.528C33.7967 30.218 33.7967 30.216 33.8627 30.382C34.2787 31.44 35.0827 32.292 36.1887 32.848C36.6967 33.104 36.9767 33.208 37.5687 33.362L38.0967 33.498L37.6647 33.494C37.4267 33.492 37.1167 33.472 36.9767 33.448ZM42.2387 28.648C41.7567 28.532 41.2187 28.102 41.0707 27.708C40.9778 27.393 40.9919 27.0561 41.1107 26.75L41.1867 26.61L41.2207 26.802C41.3087 27.282 41.6487 27.694 42.1347 27.91C42.2787 27.974 42.6467 28.07 42.9547 28.124C43.4127 28.204 43.7067 28.29 43.8847 28.396C43.8987 28.404 43.9127 28.188 43.9187 27.918C43.9287 27.444 43.9267 27.43 43.8487 27.546C43.6827 27.79 43.4487 27.978 43.3067 27.978C43.1167 27.978 42.2807 27.674 42.0507 27.522C41.7647 27.334 41.6747 27.15 41.6747 26.756C41.6747 26.476 41.6567 26.404 41.5667 26.308L41.4587 26.192L41.6867 25.984C42.0667 25.64 42.2967 25.552 42.8267 25.552C43.3407 25.552 43.5607 25.632 43.9207 25.938C44.4327 26.378 44.6047 27.452 44.3067 28.346L44.1967 28.674L43.3087 28.682C42.9517 28.6925 42.5944 28.6811 42.2387 28.648ZM42.8187 26.948C42.9887 26.862 43.0887 26.674 43.0827 26.452C43.0787 26.314 43.0387 26.242 42.9047 26.118C42.6247 25.86 42.2487 25.934 42.0847 26.278C41.8687 26.734 42.3627 27.186 42.8207 26.95L42.8187 26.948ZM38.7487 44.124C38.5164 43.7539 38.3436 43.3497 38.2367 42.926C38.0767 42.214 38.2207 41.072 38.5407 40.52L38.6607 40.308L38.2607 40.338C38.0504 40.3553 37.8397 40.3659 37.6287 40.37H37.3987V40.724C37.3987 41.432 37.0707 42.296 36.5547 42.94L36.2867 43.276L36.7767 43.31C37.0447 43.328 37.4087 43.386 37.5867 43.44C37.9467 43.55 38.3947 43.824 38.6447 44.086C38.8447 44.296 38.8827 44.31 38.7487 44.124ZM45.3327 42.444C45.6914 42.3017 45.9873 42.0357 46.1667 41.694C46.3387 41.344 46.5247 40.418 46.5587 39.742C46.5807 39.312 46.5687 39.102 46.5047 38.806C46.4247 38.432 46.1367 37.768 45.9587 37.544L45.8687 37.43L45.6327 37.598C45.1127 37.97 44.6987 38.028 44.1727 37.798C43.9167 37.688 43.7727 37.658 43.3767 37.642L42.8907 37.622L42.7307 37.902C42.2745 38.7211 41.563 39.3687 40.7047 39.746L40.3367 39.914L40.3027 40.17C40.1667 41.22 40.8687 41.944 42.4067 42.338C43.2107 42.544 43.4787 42.574 44.3167 42.56C44.9527 42.55 45.1007 42.536 45.3327 42.444ZM6.71071 35.004C7.15071 32.872 8.76671 31.446 11.5107 30.764C12.1967 30.594 13.3247 30.372 15.3767 30C18.0687 29.514 18.8987 29.256 19.8907 28.594L20.4907 28.194L17.9587 28.18C14.8547 28.162 14.4487 28.2 13.2387 28.6C12.4727 28.856 11.7207 29.192 9.64271 30.216C8.65471 30.704 7.83671 31.094 7.82671 31.084C7.80871 31.064 8.57471 30.394 8.96671 30.088C10.2507 29.076 12.3527 27.908 13.6967 27.458C15.9927 26.69 17.7567 26.542 21.4787 26.808L23.2587 26.934L23.9527 26.762C24.6327 26.592 25.3287 26.46 26.6407 26.248C26.8649 26.2161 27.0877 26.1754 27.3087 26.126C27.3187 26.116 27.2867 26.094 27.2367 26.076C26.9788 25.9889 26.7339 25.8671 26.5087 25.714C26.4021 25.6502 26.3016 25.5765 26.2087 25.494C26.2087 25.484 26.8287 25.482 27.5887 25.49C28.9687 25.506 28.9727 25.506 29.4567 25.374C32.4607 24.562 34.9247 22.35 36.2407 19.284C36.5147 18.644 36.9927 17.278 36.9567 17.24C36.9427 17.226 36.7827 17.306 36.6007 17.416C36.1407 17.7 35.1607 18.184 34.5907 18.412C33.1817 18.9765 31.6916 19.3127 30.1767 19.408L29.7487 19.44L29.4087 19.76C28.2087 20.89 26.4027 21.964 24.7527 22.532C23.8327 22.848 23.2607 22.978 20.3007 23.54C18.8347 23.818 17.1707 24.144 16.6007 24.262C12.4647 25.132 9.81871 26.22 8.38871 27.64C7.90271 28.12 7.64071 28.494 7.35671 29.1C7.21271 29.408 7.05671 29.648 6.83071 29.9C6.43222 30.3643 6.14371 30.9126 5.98671 31.504C5.80071 32.248 5.88471 33.336 6.20271 34.266C6.31471 34.598 6.60871 35.28 6.63871 35.28C6.67098 35.1904 6.69508 35.098 6.71071 35.004ZM5.07071 33.268L5.02071 32.536L4.50071 31.756C4.17888 31.271 3.86682 30.7795 3.56471 30.282C3.18471 29.644 2.30471 27.95 2.05871 27.378L1.95671 27.138L1.98271 27.33C2.03471 27.694 2.28271 28.678 2.45671 29.216C2.84271 30.416 3.48271 31.738 4.17671 32.782C4.49071 33.252 5.08271 34.038 5.10471 34.016C5.10606 33.7663 5.09339 33.5167 5.07071 33.268ZM5.05071 30.468C4.89871 29.676 4.97071 28.604 5.22271 27.97C5.32871 27.7 5.54871 27.258 5.57471 27.258C5.58471 27.258 5.66271 27.448 5.74671 27.678C5.89871 28.102 6.10671 28.508 6.16871 28.506C6.18871 28.506 6.28671 28.364 6.38871 28.19C6.48871 28.018 6.70871 27.694 6.87671 27.47L7.18471 27.064L6.99471 26.944C6.38271 26.558 5.82471 25.672 5.58471 24.71C5.35071 23.76 5.27871 22.31 5.40871 21.122C5.44471 20.798 5.46471 20.522 5.45271 20.51C5.41871 20.478 4.75271 21.308 4.33671 21.894C3.63964 22.8832 3.05913 23.9496 2.60671 25.072L2.39471 25.6L2.60271 26.188C3.21242 27.8657 4.05754 29.4482 5.11271 30.888C5.10447 30.7466 5.0824 30.6061 5.05071 30.468ZM7.98871 26.718C7.84871 26.138 7.78871 25.374 7.78871 24.016C7.78871 22.71 7.79871 22.516 7.90071 21.95C8.03471 21.214 8.28271 20.364 8.50871 19.874C8.67471 19.518 9.15471 18.69 9.18271 18.718C9.19071 18.726 9.13671 19.192 9.06271 19.752C8.84671 21.364 8.80271 21.958 8.83671 22.888C8.87471 23.954 9.06471 25.288 9.18071 25.288C9.22671 25.288 9.24071 25.062 9.23671 24.292C9.20981 23.1007 9.37182 21.9126 9.71671 20.772C10.1167 19.376 10.9607 17.536 11.7367 16.38C11.7981 16.295 11.8516 16.2046 11.8967 16.11C11.8967 16.094 11.7707 16.1 11.6187 16.122C9.77471 16.404 8.27671 17.642 7.52871 19.502L7.34271 19.962L7.36271 19.636C7.42671 18.698 7.61271 17.38 7.74271 16.946C7.75871 16.898 7.71271 16.966 7.64271 17.094C7.08871 18.118 6.56271 21.046 6.56471 23.102C6.56471 24.608 6.83271 25.696 7.37671 26.418C7.63271 26.758 8.04871 26.96 7.98871 26.718ZM10.5367 24.88C10.9607 24.672 11.5427 24.506 14.0807 23.866C15.1907 23.586 16.3567 23.274 16.6747 23.168C17.8506 22.7865 18.9234 22.1407 19.8107 21.28C20.7347 20.392 21.0447 19.92 21.3367 18.956C21.4707 18.51 21.4707 18.508 21.5567 18.62C21.9267 19.11 21.9207 20.284 21.5467 21.02C21.4947 21.12 21.4707 21.206 21.4927 21.206C21.5927 21.206 22.1227 20.814 22.3447 20.576C22.9267 19.954 23.1967 19.386 23.6647 17.796C23.7321 17.5467 23.8122 17.3011 23.9047 17.06C23.9467 17.012 24.1207 17.412 24.2247 17.806C24.2807 18.014 24.3047 18.286 24.3047 18.686C24.2987 19.344 24.1787 19.846 23.8767 20.444L23.7047 20.784L23.9607 20.646C24.5807 20.314 25.7107 18.93 26.1927 17.912C26.4801 17.3656 26.6246 16.7553 26.6127 16.138C26.6167 15.288 26.4387 14.73 25.9247 13.988C25.2527 13.018 23.7387 11.888 22.4147 11.366C22.2107 11.286 22.0787 11.184 21.8467 10.926C21.6807 10.742 21.5667 10.592 21.5947 10.592C21.6547 10.592 22.5387 10.832 23.1347 11.01C24.5447 11.43 25.6507 12.05 26.5027 12.894C27.4887 13.87 27.9567 14.896 27.9507 16.066C27.9447 17.102 27.5807 18.042 26.7787 19.104C26.6227 19.308 26.4987 19.484 26.4987 19.498C26.4987 19.538 27.2667 19.194 27.7467 18.942C28.3527 18.622 29.3307 17.962 29.7067 17.626C30.2287 17.152 30.9267 15.986 31.2267 15.082C31.5167 14.2 31.5647 13.21 31.3527 12.392C31.1667 11.67 30.6927 10.838 30.1027 10.194L29.8487 9.918H30.0927C30.2247 9.918 30.3467 9.898 30.3607 9.874C30.4207 9.778 30.2807 9.574 30.0647 9.436C29.6927 9.2 29.5387 9.18 28.8527 9.266C28.0827 9.364 26.8547 9.366 26.2607 9.268C25.7467 9.184 25.1747 9.004 24.8987 8.84L24.7107 8.728L26.4567 8.704C27.7867 8.684 28.2987 8.66 28.6067 8.6C29.0527 8.514 29.3667 8.394 29.4707 8.266C29.5307 8.194 29.5167 8.164 29.3507 7.99C28.8147 7.436 27.8167 6.75 26.8107 6.24C25.0845 5.36216 23.1733 4.91023 21.2367 4.922C20.4627 4.922 19.5167 5.002 19.1007 5.1L18.9807 5.128L19.1247 4.974C19.3127 4.774 19.9407 4.466 20.4047 4.35C21.2247 4.142 22.3627 4.07 23.4707 4.15C25.0187 4.266 26.1307 4.55 27.6247 5.214C27.9407 5.354 28.2407 5.468 28.2907 5.464C28.4107 5.454 28.5587 5.316 28.6327 5.14L28.6947 4.996L28.8447 5.318C28.9267 5.498 28.9947 5.664 28.9947 5.694C28.9947 5.812 29.0827 5.68 29.1387 5.474C29.1576 5.38743 29.1929 5.30529 29.2427 5.232C29.2907 5.2 29.4167 5.482 29.5747 5.972L29.6867 6.318L29.9347 6.072C30.2287 5.782 30.2367 5.792 30.2787 6.42L30.3047 6.836L30.5247 6.698C30.6487 6.622 30.7607 6.578 30.7767 6.594C30.7927 6.614 30.8527 6.78 30.9127 6.964C31.0867 7.504 31.3227 7.952 31.5967 8.268C31.7367 8.43 31.9287 8.706 32.0207 8.88C32.1127 9.054 32.2087 9.19 32.2307 9.184C32.3067 9.16 32.6387 8.57 32.7987 8.18C32.8432 8.04698 32.9065 7.92103 32.9867 7.806C33.0527 7.806 33.0907 8.34 33.0667 8.94C33.052 9.13773 33.052 9.33627 33.0667 9.534C33.1543 9.48456 33.2379 9.42839 33.3167 9.366C33.3987 9.30007 33.4879 9.24371 33.5827 9.198C33.6847 9.198 33.4607 10.698 33.2927 11.132C33.2287 11.292 33.3627 11.212 33.6747 10.9C33.8487 10.728 33.9907 10.614 33.9907 10.648C33.9907 10.77 33.7087 11.82 33.6067 12.08C33.5133 12.3009 33.4092 12.5172 33.2947 12.728C33.1005 13.0759 32.9417 13.4424 32.8207 13.822L32.7867 13.956L33.0207 13.796C33.2767 13.62 33.4007 13.566 34.8067 13.014C36.0487 12.526 36.7487 12.188 37.0307 11.936C37.3307 11.668 37.4967 11.342 37.4967 11.016V10.768L37.3587 10.956C37.0947 11.318 36.4667 11.836 35.8867 12.176L35.6947 12.288L35.8447 12.124C36.4807 11.424 36.9167 10.452 36.9187 9.72C36.9187 9.456 36.8507 9.072 36.7667 8.866C36.7047 8.716 36.7027 8.72 36.3467 9.592C35.9367 10.6 35.5467 11.408 35.2847 11.796C34.8967 12.368 34.3187 12.884 33.9687 12.972C33.8487 13.002 33.8407 12.996 33.8847 12.912C33.9667 12.76 34.0787 12.27 34.1287 11.84C34.1567 11.616 34.1887 10.502 34.2047 9.366C34.2307 7.342 34.2647 6.804 34.3907 6.264C34.4527 5.998 34.4527 5.992 34.2467 5.448C34.1447 5.17595 34.0326 4.90777 33.9107 4.644C33.7767 4.376 33.4807 3.964 33.4227 3.964C33.4027 3.964 33.2827 4.204 33.1487 4.498L32.9087 5.032L32.8847 4.582C32.8647 4.222 32.8407 4.102 32.7567 3.986C32.5119 3.68089 32.2162 3.42038 31.8827 3.216C31.422 2.93797 30.9398 2.6972 30.4407 2.496C30.3267 2.462 30.3267 2.464 30.3607 2.72C30.3787 2.86 30.4067 3.03 30.4207 3.092C30.4487 3.202 30.4407 3.206 30.2667 3.172C29.9511 3.11017 29.6649 2.94561 29.4527 2.704C29.3307 2.572 29.2187 2.474 29.2047 2.488C29.226 2.64172 29.2664 2.7922 29.3247 2.936C29.4007 3.17 29.4567 3.372 29.4447 3.384C29.4127 3.416 29.0807 3.288 28.9367 3.184C28.7904 3.03692 28.6646 2.87076 28.5627 2.69C28.4402 2.48132 28.2924 2.28854 28.1227 2.116C27.8107 1.85 27.6667 1.816 26.1827 1.662C25.8732 1.63923 25.5697 1.56487 25.2847 1.442C25.2127 1.412 25.2167 1.442 25.3167 1.67C25.3807 1.814 25.4487 2.01 25.4647 2.102L25.4967 2.27L25.2887 2.23C24.9687 2.17 24.5787 2.014 24.2207 1.798C23.9047 1.606 23.8827 1.602 23.3187 1.566C22.6625 1.52022 22.0031 1.56395 21.3587 1.696L20.9987 1.784L21.3587 1.824C21.8387 1.874 22.2587 2.008 22.5127 2.194C22.7187 2.342 22.8907 2.514 22.8927 2.576C22.8927 2.592 22.5127 2.616 22.0427 2.63C20.6907 2.666 19.8387 2.88 18.6407 3.48C18.0407 3.78 16.3927 4.844 15.9847 5.192C15.7447 5.398 15.3067 5.976 15.3047 6.086C15.3047 6.146 15.3967 6.194 15.6547 6.266C17.5947 6.824 18.8087 8.234 19.0487 10.206C19.2227 11.624 19.1967 12.502 18.9587 13.446C18.5927 14.896 17.6467 16.294 16.5867 16.952C16.1967 17.194 15.3867 17.506 15.1447 17.508H15.0087L15.2567 17.236C15.8367 16.602 16.2567 15.796 16.5407 14.77C16.6987 14.2 16.7147 13.598 16.5807 13.146C16.4847 12.82 16.4547 12.816 16.3607 13.112C16.2324 13.4877 16.0612 13.8474 15.8507 14.184C15.7507 14.338 15.0767 15.048 14.3187 15.804C12.5947 17.516 11.8727 18.406 11.1987 19.642C10.6588 20.6641 10.2938 21.7694 10.1187 22.912C10.0187 23.704 10.0447 25.048 10.1607 25.048C10.1807 25.048 10.3487 24.974 10.5367 24.88ZM33.3907 17.68C34.6327 17.262 35.5967 16.812 36.4107 16.274C36.9987 15.886 37.7727 15.124 38.2107 14.506C38.6387 13.898 39.2607 12.58 39.1647 12.482C39.1107 12.43 38.2647 12.75 37.9807 12.93C37.6747 13.126 37.4907 13.274 36.5847 14.052C35.6927 14.818 35.5147 14.948 35.0587 15.166C34.5827 15.396 34.2987 15.418 33.9947 15.246C33.9217 15.2129 33.8552 15.1669 33.7987 15.11C33.7987 15.096 33.8867 15.03 33.9907 14.966C34.1987 14.836 34.5987 14.45 34.5607 14.412C34.3453 14.4992 34.1378 14.6049 33.9407 14.728C32.3167 15.654 31.4647 16.428 31.3247 17.112C31.2847 17.308 31.3347 17.312 31.8507 17.144C33.1067 16.734 34.5947 15.952 36.4667 14.718C37.0107 14.36 37.2787 14.214 37.5227 14.144C37.635 14.1045 37.752 14.0803 37.8707 14.072C37.9307 14.132 37.3307 14.822 36.8447 15.256C35.6287 16.34 34.5247 17.072 33.2487 17.634C32.9287 17.774 32.6907 17.89 32.7187 17.89C32.7467 17.89 33.0487 17.796 33.3907 17.68ZM35.1707 10.104C35.6827 9.334 35.8427 8.756 35.9107 7.444C35.9747 6.206 36.1067 5.468 36.4407 4.504C36.5207 4.276 36.5747 4.084 36.5647 4.072C36.5147 4.022 36.0327 4.654 35.8647 4.992C35.3847 5.966 35.0087 7.68 34.8307 9.712C34.7907 10.156 34.7587 10.538 34.7587 10.562C34.7587 10.646 34.9587 10.424 35.1707 10.104Z" fill="white"/>
</g>
<defs>
<clipPath id="clip0_274_28694">
<rect width="48" height="48" fill="white"/>
</clipPath>
</defs>
</svg>
