<svg width="48" height="48" viewBox="0 0 48 48" fill="none" xmlns="http://www.w3.org/2000/svg">
<path d="M17.6893 13.9466L14.4981 14.4653L11.5855 15.7418L9.11234 17.298L6.75884 20.1698L5.42909 21.5783L4.14322 22.0519L3.80347 21.2209L4.39784 20.3629L4.53134 19.1524L4.92959 19.1685L5.36459 19.5653L5.24759 18.3326L4.76534 18.009L4.77997 17.5391L3.63734 18.1856L2.60234 19.4063L2.38672 20.4975L2.82922 21.3713L3.24172 22.8555L4.08134 23.253L4.96409 23.2095L5.80147 22.7231L5.24272 25.5551L5.80147 28.7066L5.18647 30.1616L3.17309 32.3314L3.53122 33.6274L4.48484 35.1293L6.28334 36.3949L7.23734 36.5254L8.29784 36.5614L7.63634 39.2779L10.0701 40.2754L13.1016 40.6744L14.1385 39.996L14.2183 38.1611L15.3756 36.2464L15.4555 34.7303L18.2481 34.9298L20.8408 34.6905L18.2481 36.2464L18.6868 38.1214L20.3222 40.6744L21.9178 41.3524L23.1943 40.8338L23.713 39.7965L26.386 37.7621L26.9046 38.2009L31.0933 38.3606L31.9307 37.6823L32.0106 36.4856L31.7312 35.967L31.5317 32.736L30.1356 29.9434L30.3748 28.7066L31.2126 29.1454L33.5665 31.3395L34.7233 31.4194L35.9998 30.9008L37.2763 29.9434L37.9146 27.8689L41.6646 28.1081L43.9382 27.2306L45.7731 25.5154L47.0893 23.0419L47.4088 20.13L47.1295 16.7393L46.4113 13.7074L45.6928 12.7504L44.6957 12.4313L42.9407 14.346L41.3447 14.9048L39.9486 12.591L38.5525 11.3145L37.7946 10.8356L34.7627 8.32239L32.329 7.00614L29.896 6.80664L27.0636 7.28514L24.5905 8.20277L22.8748 9.59889L21.5188 11.2346L20.1223 11.6333L17.6893 13.9466Z" fill="#FFFF00"/>
<path d="M30.6856 6.83594L29.0896 6.89969L25.6415 7.66544L22.9602 9.32519L21.428 11.4964C24.998 10.9021 25.4547 10.6066 27.302 12.5179C26.5538 11.2054 26.3352 10.5822 26.4601 9.34169C26.6356 7.59419 29.1638 7.40669 30.6856 6.83594ZM21.3005 11.4323L19.832 11.8156L16.8537 14.7518L17.4698 14.0502L14.0217 14.4968L11.0843 15.7099L8.40309 17.9446L6.67959 20.4983L5.53059 23.2441L5.40234 26.1166L5.85009 28.9264L7.06284 31.9909C6.30534 28.2023 5.69784 24.3349 8.43159 21.1467C10.2027 19.0804 11.714 18.5209 14.2771 17.6892L14.8546 17.0311L13.0643 20.2433L12.4257 22.1588L13.7667 23.7548C13.9043 22.8608 13.9475 22.2109 14.4076 21.4358C15.317 19.9047 16.2875 18.4092 17.1526 16.8559C18.362 14.6851 19.4003 13.2867 21.3005 11.4323Z" fill="#FFFFCC"/>
<path d="M32.3735 6.9707C33.4749 7.99333 34.8267 8.88245 35.7072 10.1323C36.0485 10.6161 36.4272 10.8636 35.7016 11.5468C36.4681 11.3278 36.7527 11.3518 37.3666 11.4261C38.4826 11.5611 39.5292 13.1481 39.596 14.2855C39.5829 14.3916 39.2855 14.6331 38.4222 14.8712C38.4053 14.9046 37.9355 14.8067 37.9471 14.8382C38.0371 15.0838 38.1571 15.1221 38.3397 15.2368C38.3795 15.5098 38.405 15.9302 38.591 16.2283C39.134 16.219 39.6646 16.2786 40.1964 16.3836C40.3756 16.6806 40.3482 16.9772 40.3336 17.2742L40.9501 17.1718L40.7787 15.7671L41.3274 14.842L40.5391 13.0607L39.0312 11.6215L38.8861 11.614L37.1911 10.5741L34.4259 8.3117C33.7415 7.8647 33.0579 7.41733 32.3735 6.9707ZM45.3249 12.517C45.791 14.614 46.3921 16.5486 46.3362 18.6958C46.268 21.3302 45.7546 24.6583 43.3137 26.2472C40.58 28.0262 37.3715 27.1847 34.3722 26.4223L38.0382 27.9298L41.4642 28.1012L43.7941 27.4161L45.6098 25.9082L46.9801 23.0305L47.4942 19.7076L47.0829 16.4526L46.3291 13.2321L45.3249 12.517ZM31.2586 12.7472L30.8641 12.8608L30.2435 13.162C29.0184 14.1445 28.877 15.4885 29.276 16.9112C29.1672 15.2683 30.0335 13.5827 31.2586 12.7472ZM25.7041 12.7862L23.4087 13.0607C22.6891 13.2208 21.9698 13.3798 21.2502 13.5396L20.1882 15.0816L19.6051 16.5553C18.9698 18.2931 18.4156 19.7826 17.4533 21.3561C18.6863 20.0278 19.4337 18.8983 20.1398 17.3968C20.414 16.8133 20.4657 16.1293 21.2296 16.3836C21.2641 16.9663 21.3871 17.5487 21.4216 18.1311C21.8341 15.1723 22.9981 13.9345 25.7041 12.7862ZM45.3196 12.973C45.0327 13.1053 44.7533 13.1687 44.5741 13.4312C44.1878 13.9963 43.8571 14.4718 43.2185 14.8682C42.8967 15.0681 42.5641 15.1982 42.2232 15.3043C41.9401 15.3921 41.7702 15.3133 41.5295 15.4866L41.9581 15.5612H42.9031L44.0682 14.842L44.753 14.1227L45.3196 12.973ZM34.229 15.4127C34.1056 15.4633 33.8982 15.586 33.7752 15.6366L32.8066 15.9523L31.3265 17.0721L30.4895 17.9432C30.3189 18.0482 30.2138 18.091 30.0432 18.0895C30.3121 18.1881 30.6207 18.1052 30.9462 18.0193C31.2185 18.5961 31.3625 18.8376 31.9029 19.1368C31.6915 19.5345 31.5827 19.9787 31.5864 20.4291C32.4301 18.7416 34.0104 17.8483 35.6604 16.9603C35.3041 17.0316 34.943 17.1291 34.5864 17.2427L34.8196 17.1272C34.6557 16.5133 34.4296 16.2231 33.9706 15.7888C34.0831 15.6763 34.1705 15.5143 34.229 15.4127ZM24.8476 16.4863C24.8018 16.8175 24.7565 17.149 24.7104 17.4801L24.7793 19.5362L25.3617 23.8866L24.5735 27.1761L22.1412 27.6557L19.0231 29.4715L17.2572 29.8187L14.7803 28.651C17.3667 32.3788 19.5691 30.529 23.4076 29.2708C24.3717 28.9547 24.9901 28.8422 25.9872 28.9067C26.8992 27.343 26.873 26.4715 26.636 24.6587C26.2711 21.8687 25.4315 19.2325 24.8476 16.4863ZM4.7176 18.0396L4.53235 18.7663C3.2911 19.5741 2.80397 19.9288 2.9401 21.4258L3.3106 22.7706L3.83635 23.1265L4.4851 23.3425L5.6611 23.0642L6.26372 21.1937L4.59385 22.0131H4.2076L3.7741 21.3482L4.30022 20.5757L4.57847 19.1068L4.93472 19.2145L5.3671 19.555L5.30485 18.7817C5.20735 18.6167 5.1091 18.4521 5.01122 18.2875L4.7176 18.04V18.0396ZM12.6166 22.8936C12.569 23.758 12.5131 24.1183 12.8941 24.8822C13.379 25.8527 13.9745 26.7647 14.5013 27.724L14.672 25.8055L12.6166 22.8936ZM34.5864 24.9576C32.9724 25.4233 32.9847 25.5516 32.5077 27.1532C33.1374 26.1437 33.6035 25.6341 34.5864 24.9576ZM27.7171 26.9938C27.8979 28.0067 28.2125 28.2475 28.6891 29.2281C28.3719 30.8282 27.8622 32.7306 27.2491 34.1421C26.9904 34.7372 26.7815 35.0657 26.3255 35.5258C25.5556 36.3028 24.7771 36.9805 23.9041 37.654C23.276 38.1385 22.8376 37.8955 22.0621 37.786C21.7321 38.3837 21.6413 38.7152 21.0346 39.0186C20.1008 39.4851 19.2657 38.4797 18.5333 37.8883L20.1196 40.3663L21.2161 41.3946L22.1412 41.5315L23.3746 40.7777L24.0256 39.5443L25.3962 38.5161C25.9557 38.0361 26.5152 37.5572 27.0747 37.0776L28.1367 35.5701L28.3025 35.2633L27.863 36.2207L26.4924 37.8313L27.383 38.2086H29.6105C29.6768 38.0338 30.6042 38.3871 31.2792 38.089C31.4679 38.0057 31.6366 37.702 31.7615 37.5272C32.2025 36.9111 31.1382 35.7111 31.4604 33.4798L30.5011 30.3621H30.2382C30.2682 30.2706 30.2994 30.1795 30.3297 30.0883L30.4321 28.6832C29.9184 28.4545 29.4046 28.2268 28.8905 27.9985C28.5136 27.6445 28.094 27.3478 27.7171 26.9938ZM37.1135 27.6557L33.893 28.0667C33.8131 28.2835 33.7325 28.501 33.653 28.7177L33.7216 29.6428L34.0299 30.1903L34.5099 30.4307L34.886 30.4652C35.393 30.778 35.3825 31.0045 35.2977 31.219L36.4966 30.739L37.2729 29.6965L37.8503 28.2096L37.1135 27.6557ZM5.58347 29.4253L5.13872 30.3722C5.5471 31.7473 5.90972 32.6177 6.6871 33.8192C6.55172 34.3056 6.4501 34.519 6.13847 34.9153C5.45447 34.8103 4.84735 34.7803 4.15472 34.7822L6.44972 36.5635L7.57997 36.3576L8.7106 35.2273L7.10072 32.7261L5.58347 29.4253ZM22.0043 31.4927C21.4557 32.0871 21.0132 32.6365 20.5651 33.3085C18.9811 34.0348 17.1556 34.1312 15.4265 34.1312L15.392 34.6108L15.5288 34.7477L16.7967 34.8846L20.702 34.7822L21.2161 34.0285C21.3485 32.9687 21.5048 32.4355 22.0043 31.4927ZM15.0518 31.7155C14.7567 33.4937 14.8276 34.6855 14.0093 36.2785C13.3981 36.9872 12.6455 37.6315 11.7833 37.9761C11.8561 38.413 11.8775 38.686 11.8355 39.0062C11.6836 40.1578 9.37922 39.649 8.4316 39.6028C9.95222 39.9943 11.4728 40.3866 12.9931 40.7777L14.0217 40.3663L14.3637 38.3788L15.323 36.5976L15.4943 35.5015L15.1861 32.932C15.1411 32.527 15.0965 32.1212 15.0518 31.7155Z" fill="#CCCC00"/>
<path d="M24.1968 6.01758C21.9314 6.57258 21.2646 6.96783 20.512 9.59395C21.469 7.6702 22.1939 6.9622 24.1968 6.01758ZM30.0228 6.15745C28.5385 6.1867 26.9616 6.63333 25.141 7.39945C24.1368 7.82208 23.3905 8.32233 22.741 8.92308C22.1204 9.49683 21.5928 10.1621 21.0138 10.9335C20.6781 10.9575 20.3781 11.0047 20.074 11.1262C19.7384 11.2605 19.4001 11.4776 18.9951 11.835C18.7127 12.0839 18.436 12.3394 18.1653 12.6011V12.6018C17.9183 12.842 17.6756 13.0865 17.4374 13.3353C15.5436 13.6391 13.999 13.9747 12.6171 14.5098C11.2038 15.0573 9.95764 15.8111 8.67777 16.9458C8.17371 17.3909 7.71417 17.884 7.30564 18.4181C6.92244 18.9231 6.58427 19.4608 6.29502 20.025C6.03777 20.31 5.78014 20.5976 5.50114 20.8492C5.23039 21.0926 4.94164 21.2981 4.61839 21.4226C4.43089 21.495 4.35289 21.537 4.34464 21.534C4.33864 21.531 4.32139 21.4646 4.31614 21.4432C4.77664 21.0003 4.85201 20.3535 4.89476 19.7096C4.95515 19.7839 5.01088 19.862 5.06164 19.9432C5.12276 20.0381 5.18614 20.1352 5.26151 20.2301L5.57651 20.6276L5.68714 20.1318C5.78014 19.7163 5.84951 19.1625 5.74151 18.6825C5.67139 18.3723 5.52401 18.0982 5.27389 17.9017C5.29714 17.8417 5.32264 17.7735 5.34439 17.7187C5.42351 17.5162 5.50451 17.3085 5.57351 17.1123L5.71076 16.7242L5.30426 16.7943C4.76314 16.8881 3.60026 17.5275 2.78164 18.3768C2.47789 18.6926 2.21651 19.0406 2.04476 19.407C1.86626 19.7876 1.78601 20.1866 1.85501 20.5852C1.91501 20.9328 2.09239 21.273 2.40739 21.5947C2.46476 21.8265 2.51801 22.0342 2.57501 22.2157C2.64026 22.4235 2.71076 22.6083 2.79851 22.7906C3.03664 23.2863 3.41651 23.5893 3.85601 23.7303C4.21226 23.8447 4.60714 23.8492 4.99339 23.7633C4.91187 24.2201 4.86176 24.6819 4.84339 25.1456C4.81939 25.7925 4.84264 26.5068 4.91389 27.336C4.94802 27.7213 5.00184 28.1047 5.07514 28.4846L4.85951 29.0711L4.52464 29.9808L3.78889 30.7102L3.10151 31.3908C3.08276 31.4096 3.00551 31.4838 2.93539 31.5513C2.47151 31.9976 2.37964 32.0868 2.51164 32.8725C2.5961 33.3752 2.76016 33.8613 2.99764 34.3125C3.24174 34.7731 3.55387 35.1943 3.92351 35.562C4.41326 36.0528 5.21501 36.6622 6.05464 36.9813C6.53351 37.1632 7.02664 37.2513 7.48976 37.1786C7.46576 37.2506 7.44701 37.3203 7.42076 37.3931C7.34735 37.5966 7.26578 37.7972 7.17626 37.9942C6.60626 39.2433 7.19164 39.8958 8.10176 40.311C8.55626 40.518 9.09664 40.6593 9.59914 40.7898C9.70151 40.8165 9.80426 40.8427 9.93364 40.878C10.5288 41.0388 11.5563 41.334 12.4949 41.3936C13.5198 41.4585 14.4445 41.2473 14.6924 40.3271C14.7903 39.9626 14.8473 39.6832 14.8701 39.4102C14.8915 39.1586 14.8814 38.901 14.8525 38.5875C15.1413 37.95 15.271 37.7512 15.4833 37.4407L15.5909 37.2817C15.8196 36.942 15.9269 36.7012 15.9659 36.4297C16.0034 36.168 15.9723 35.9073 15.9246 35.5083C15.9209 35.4727 15.9111 35.4041 15.9021 35.3362C16.5021 35.4135 17.0946 35.46 17.6826 35.4637C17.9797 35.4641 18.2767 35.4559 18.5733 35.439C18.4908 35.4817 18.4341 35.5155 18.3445 35.5612L18.2335 35.6182C17.4423 36.0251 17.4093 36.7961 17.6571 37.5892C17.8806 38.3043 18.34 39.0341 18.6284 39.4781C19.2344 40.4126 19.8134 41.2031 20.5146 41.6328C21.2496 42.0836 22.0896 42.1368 23.1734 41.5503C23.7254 41.2518 23.899 40.9466 24.1334 40.5367C24.2073 40.407 24.2898 40.2656 24.3816 40.1265C24.598 39.9877 25.1534 39.5325 25.7234 39.0615C25.909 38.9081 26.1085 38.7457 26.3174 38.5758C26.4644 38.6835 26.6418 38.7585 26.8555 38.8095C27.1345 38.8762 27.4668 38.907 27.865 38.9355C28.1628 38.9572 29.1351 38.9561 29.7625 38.9561C29.9564 38.9561 30.1169 38.9561 30.2136 38.9568C30.8616 38.9606 31.3851 38.9268 31.7804 38.7026C32.2019 38.4637 32.4513 38.0407 32.5056 37.2825C32.5296 36.9453 32.5338 36.7376 32.4869 36.525C32.4438 36.3285 32.3556 36.1455 32.2116 35.8856L32.1854 34.8993L32.1576 33.8553C32.1464 33.4455 32.1014 33.1128 32.0185 32.7855C31.936 32.4596 31.8179 32.1461 31.6604 31.7711C31.5535 31.5168 31.4669 31.2836 31.3821 31.0548V31.0533C31.2468 30.6881 31.111 30.3318 30.9243 29.9516C30.9366 29.8781 30.9498 29.799 30.9618 29.7142L31.3233 30.063L31.8558 30.5756C32.2623 30.9671 32.6339 31.323 33.0704 31.5806C33.5211 31.8468 34.0285 32.0013 34.6851 31.9702C35.3733 31.9376 36.1086 31.6481 36.7146 31.2015C37.3008 30.7687 37.7714 30.1852 37.9679 29.5391L38.1378 28.9788C38.1835 28.8288 38.23 28.6781 38.2754 28.5277C39.2399 28.6916 40.2734 28.7475 41.2735 28.6428C42.2384 28.5416 43.1706 28.296 43.9746 27.867C45.1559 27.2366 46.0424 26.307 46.6795 25.2041C47.3909 23.9715 47.7895 22.5198 47.9406 21.0255C48.0621 19.827 47.9958 18.1968 47.7464 16.6252C47.5244 15.2242 47.1558 13.8652 46.645 12.8868C46.5725 12.7547 46.4801 12.6344 46.3713 12.5302C46.117 12.2797 45.7413 12.0435 45.3528 11.91C44.9414 11.7682 44.5071 11.7393 44.1629 11.9193C44.0717 11.9668 43.9886 12.0283 43.9165 12.1016C43.6934 12.3281 43.5051 12.6022 43.3165 12.8775C43.1069 13.1838 42.8965 13.4917 42.6445 13.7073C42.3501 13.9586 41.9811 14.1101 41.6343 14.2492C41.491 13.8967 41.3186 13.5567 41.1186 13.233C40.8831 12.8565 40.6146 12.5036 40.3191 12.1515C40.103 11.8923 39.8579 11.6586 39.5886 11.4551C39.3336 11.2608 39.073 11.0966 38.7693 10.9065C37.9544 10.3965 37.261 9.7882 36.5538 9.16758C36.232 8.88558 35.9073 8.60058 35.59 8.33883C33.9051 6.94945 32.3339 6.27633 30.6531 6.17058C30.4433 6.15752 30.233 6.15314 30.0228 6.15745ZM22.3953 6.1807C21.2526 6.45595 21.0351 6.66745 20.6924 7.7872C21.2391 6.96708 21.5541 6.70045 22.3953 6.1807ZM30.0006 7.11333C31.7759 7.03533 33.3723 7.63308 35.1614 9.13683C35.9856 9.82983 36.7053 10.5026 37.5408 11.1007C37.2283 11.125 36.9214 11.1979 36.6314 11.3167C37.0514 11.2365 37.5378 11.316 37.9739 11.3955C38.0961 11.475 38.2218 11.5526 38.3511 11.6287C38.9406 11.9763 39.2755 12.1676 39.6745 12.7237C40.0892 13.2973 40.4516 13.9068 40.7575 14.5451C40.555 14.4727 40.3844 14.4116 40.2325 14.3662C40.0633 14.2888 39.8775 14.2543 39.6917 14.2658C39.506 14.2773 39.3259 14.3345 39.1675 14.4322L39.1435 14.4442C38.8173 14.6028 38.311 14.784 37.9731 14.8387C38.1456 14.8987 38.527 14.9212 38.707 14.85C38.731 14.8402 38.7558 14.8323 38.7809 14.8263C38.6975 14.9685 38.6463 15.1272 38.6309 15.2913C38.6094 15.5078 38.651 15.7258 38.7509 15.9191C38.7509 15.9198 38.7516 15.9198 38.7524 15.9206C38.7828 15.9926 38.8251 16.059 38.8716 16.1066C38.7171 16.1636 38.5596 16.2292 38.3973 16.3001C39.1514 16.185 39.8316 16.1651 40.5681 16.2618C40.6169 16.4943 40.6656 16.7396 40.7106 16.9901C40.6195 16.9972 40.528 17.0051 40.4369 17.0118L40.4148 17.0133C40.0664 16.7351 39.679 16.7816 39.1484 16.9027C37.5359 17.2702 37.9146 18.1755 37.1725 19.539C37.9428 18.597 37.8861 17.6126 39.1413 17.3152C39.4338 17.2458 39.6325 17.1588 39.8305 17.1885C39.4743 17.3677 39.166 17.6651 39.0438 18.0101C38.6991 18.9832 38.9133 19.8026 38.5349 20.7112C39.0036 19.899 39.0318 19.1066 39.451 18.252C39.6018 17.9448 40.1605 17.4532 40.5036 17.4457L40.7864 17.4397C40.8689 17.9805 40.9188 18.5178 40.8865 18.963C40.828 19.776 40.6176 20.9816 40.4913 21.4432C40.9158 20.8972 41.1089 19.7411 41.2953 18.927C41.4895 18.0795 41.4415 17.0625 41.2713 16.152C41.0376 14.9028 42.3243 15.1057 43.0713 14.517C43.6206 14.0842 43.9983 13.3927 44.5019 12.903C45.0014 12.4173 45.787 13.1317 45.9835 13.6061C46.8351 15.6667 47.2236 18.9086 46.9986 20.9853C46.7463 23.316 45.6201 25.8596 43.5644 27.0071C40.9439 28.4696 37.8543 27.5771 35.2506 26.6996C34.6949 26.5125 34.3079 26.2391 33.8196 25.9312C33.9524 26.5301 34.0131 27.1642 33.8361 27.7623C33.5553 28.7111 33.1015 30.2643 34.39 30.5508C34.8805 30.6596 35.1033 30.6435 35.7955 30.2865C35.2353 30.4128 34.9525 30.3825 34.5674 30.3112C34.2183 30.2471 34.0334 30.0247 33.9359 29.7637C34.0578 29.8515 34.2569 29.8987 34.5966 29.9812C35.5518 30.2111 36.4619 29.7521 36.64 29.0895C36.7439 28.7025 36.7255 28.4992 36.9453 27.972C37.1429 28.0327 37.3476 28.0882 37.5569 28.1388L37.2025 29.2968C36.8954 30.2981 35.6995 31.1055 34.6435 31.0867C33.667 31.0695 33.0483 30.4582 32.3744 29.8586C31.9237 29.4578 31.4723 29.0578 31.0203 28.6586C29.8053 28.2757 28.8314 27.8276 27.7038 26.9925C28.5063 27.9356 29.0508 28.4576 30.1698 28.9271C30.007 30.5872 29.4299 31.7977 28.9379 33.3866C28.7155 34.1051 26.9575 36.984 26.4704 37.2648C26.1231 37.4647 23.9478 39.2973 23.5386 39.5388C23.2338 39.9438 22.966 40.503 22.5078 40.7452C21.1116 41.484 20.2139 40.0695 19.4628 38.8755C19.1204 38.3317 18.1709 36.765 18.9989 36.3258C19.7819 35.9111 20.2206 35.6148 21.0198 35.0902C21.1371 35.304 21.3381 35.511 21.4694 35.7247L21.3824 35.0235C21.3299 34.6001 21.3318 34.2558 21.3655 33.8298L21.463 32.5923C21.3426 33.0112 21.1023 33.4301 20.9823 33.8497C20.9343 34.0173 20.8945 34.1535 20.8716 34.2787C19.104 34.6448 17.2827 34.6684 15.5061 34.3485C15.4 33.7278 15.2763 33.1103 15.1353 32.4967C15.1 33.0521 15.1229 34.5873 15.1203 35.4468C15.1176 36.1132 15.0903 36.3416 14.7464 36.9082C14.425 37.4388 14.2885 37.5588 13.8381 38.4551C13.8756 39.0206 13.8764 39.3948 13.7264 39.9315C13.4763 40.824 10.9551 40.1328 10.2903 39.9506C9.47164 39.7263 7.77889 39.393 8.20451 38.3013C8.57951 37.3406 8.81689 36.3277 8.99989 34.9833C7.49989 32.8222 6.10414 29.8601 5.83639 27.2358C5.62864 25.1981 5.75314 23.9433 6.19414 22.6968C6.89276 20.7221 7.87039 19.0125 9.43864 17.6358C11.5544 15.7796 13.5321 15.0341 16.6289 14.5627C15.8841 15.3963 15.1476 16.2776 14.3444 17.223C13.5314 18.18 13.0484 19.1463 12.5324 20.193C11.8191 21.6382 11.8349 22.188 12.7799 23.4573C13.5944 24.5508 14.0343 25.0436 14.3898 26.1138C14.0961 26.7191 13.9889 27.2306 13.8903 28.0575C14.8878 29.1476 15.6288 29.8942 16.5974 30.1245C17.5473 30.3502 18.3404 30.3067 19.1901 29.8725C21.0775 28.9076 22.8239 27.6615 24.9528 27.6101C25.9379 25.1883 25.8389 23.1648 25.366 20.8218C25.0428 19.2217 24.9134 17.7063 24.8129 16.0751C24.4135 17.7551 24.3389 19.2326 24.6348 20.9062C24.9921 22.923 25.2696 25.1508 24.2759 26.9231C22.351 27.0705 20.7006 28.242 18.9651 29.1408C18.2676 29.5023 17.5424 29.5372 16.7703 29.3253C16.0536 29.1285 15.5699 28.6541 14.7978 27.7638C14.7858 26.8698 14.9871 26.4573 15.3978 25.6477C16.057 24.348 16.7856 23.1378 17.5848 21.8583C16.606 23.0392 15.679 24.0258 14.9091 25.2127C14.6148 24.3742 14.194 23.949 13.4969 23.0047C12.8159 22.0822 12.7446 21.6787 13.2539 20.6118C13.7658 19.5393 14.2004 18.5966 15.0715 17.6557C16.5771 16.0301 17.956 14.2207 19.6023 12.6195C20.4963 11.7502 20.8593 11.7806 22.045 11.6006C23.1168 11.4382 24.163 11.2335 25.2561 10.9796C24.1986 11.0782 23.1768 11.1138 22.1474 11.1393L22.1163 11.1401C23.1288 9.84708 23.7156 9.12708 25.36 8.4127C27.1311 7.6432 28.6199 7.1737 30.0006 7.11333ZM31.4091 12.6922C29.2064 13.2435 28.7931 14.1682 29.0766 15.5902C29.3178 14.5203 29.7471 13.4898 31.4091 12.6922ZM24.883 12.813C23.9916 12.9138 23.1018 13.0061 22.21 13.0905C21.4611 13.1617 21.3404 13.1493 20.8094 13.6743C20.002 14.4727 19.2175 17.2117 18.9666 18.3075C19.3615 17.3973 20.35 14.8511 21.1079 14.2031C21.3171 14.0238 21.463 13.914 21.6201 13.8341C21.0779 14.7435 21.1173 14.9703 21.3074 16.1887C21.4694 14.9501 21.8976 14.4712 22.6011 13.5468C23.3768 13.3516 24.139 13.1065 24.883 12.813ZM45.3355 12.9168C44.8248 13.9511 44.0369 14.8158 42.9666 15.3457C42.3925 15.6296 42.0258 15.531 41.3845 15.4702C42.037 15.6573 42.4495 15.8925 43.0896 15.6641C44.3939 15.1991 45.0228 14.151 45.3355 12.9168ZM40.7766 14.5856C40.8216 14.6801 40.8655 14.7757 40.9086 14.8732C40.873 14.8995 40.8385 14.9276 40.8066 14.9568C40.7483 14.82 40.664 14.6959 40.5584 14.5912C40.6296 14.5886 40.702 14.5875 40.7766 14.5856ZM34.2539 15.3851C33.5354 15.7173 32.6995 15.6363 32.0838 16.0526C31.5408 16.419 30.7915 17.5807 30.2403 18.0731C30.6396 17.9182 31.024 17.6501 31.3784 17.367C31.3802 17.6354 31.4552 17.8983 31.5952 18.1274C31.7352 18.3564 31.9349 18.543 32.173 18.6671C31.9693 18.9342 31.8071 19.2305 31.6919 19.5461C32.7419 18.3011 34.2651 17.3617 35.6969 16.9601C35.2964 16.9541 34.822 17.0291 34.3394 17.1877C34.3095 16.9131 34.2032 16.6524 34.0326 16.4352C33.8619 16.218 33.6338 16.0529 33.3741 15.9588C33.694 15.7878 34.0086 15.6078 34.2539 15.3851ZM2.64101 16.6792C0.73414 18.0232 0.258265 18.6333 0.515515 21.3528C0.704515 19.2131 1.12076 18.2898 2.64101 16.6792ZM1.02326 17.4881C0.0595146 18.1605 -0.0653605 18.438 0.0238895 19.6053C0.23389 18.6423 0.429265 18.2786 1.02326 17.4881ZM4.58351 17.8777C4.44326 18.1785 4.34426 18.4057 4.27639 18.6401C3.98239 19.6563 4.40914 20.5638 3.48701 21.3003C3.92051 22.1748 3.90026 22.5232 4.90826 22.119C5.29751 21.9633 5.61851 21.7447 5.90464 21.4863C5.74277 21.9074 5.59617 22.3342 5.46514 22.7658C4.74401 23.0718 3.79564 23.2668 3.43264 22.5086C3.25639 22.1411 3.15701 21.78 3.02839 21.315C1.84076 20.0846 3.61639 18.4601 4.58351 17.8777ZM4.82951 18.4278C5.07514 18.5707 5.14001 18.8306 5.16701 19.1805C5.02076 19.0342 4.90339 18.9341 4.71364 18.9555C4.73531 18.7763 4.77412 18.5996 4.82951 18.4278ZM34.567 24.9641C34.3068 25.008 33.8395 25.1036 33.5793 25.1478C32.8836 25.2652 32.8019 25.4325 32.6939 26.1172C32.6429 26.4397 32.5724 26.8398 32.5214 27.1627C32.6579 26.7978 32.8225 26.3737 32.9815 26.0257C33.1499 25.6582 33.244 25.6233 33.6014 25.4291C33.8545 25.2911 34.3135 25.1017 34.567 24.9641ZM5.62751 29.766C6.17426 31.6563 7.10501 33.5137 8.13664 35.0752V35.103C8.07214 35.3715 7.99789 35.6328 7.84076 35.8428C7.10314 36.8298 5.22664 35.3816 4.68326 34.827C4.08964 34.2206 3.69176 33.5021 3.59726 32.829C3.52826 32.3377 3.59501 32.3261 3.93776 31.9785L5.32339 30.576L5.62714 29.766H5.62751ZM30.4398 31.0016C30.5526 31.368 30.6415 31.7313 30.8058 32.1206C31.0803 32.7708 31.2141 33.1732 31.2336 33.8711L31.2966 36.0795C31.5321 36.492 31.5693 36.5797 31.5273 37.0507C31.4421 38.0122 31.1211 38.076 30.2763 38.0613C29.8926 38.0546 28.3649 38.0471 27.9775 38.0137C27.4296 37.9665 27.1225 37.9181 26.9549 37.7932C27.8155 37.1613 29.278 34.5532 29.563 33.6551C29.8641 32.7063 30.1941 31.8783 30.4398 31.0016Z" fill="black"/>
<path d="M39.1558 15.248C39.0419 15.2498 38.9327 15.2939 38.8495 15.3718C38.7664 15.4496 38.7151 15.5556 38.7058 15.6692C38.6919 15.8162 38.7718 16.0044 38.8723 16.1072C39.1131 16.0187 39.3463 15.9497 39.5799 15.9103C39.6128 15.8392 39.6272 15.761 39.6219 15.6828C39.6166 15.6047 39.5917 15.5291 39.5494 15.4631C39.5072 15.3971 39.4491 15.3428 39.3803 15.3053C39.3116 15.2677 39.2342 15.248 39.1558 15.248ZM32.3721 17.4504C32.2672 17.45 32.164 17.4762 32.072 17.5265C31.9801 17.5768 31.9024 17.6497 31.8463 17.7382C31.7902 17.8268 31.7574 17.9281 31.7511 18.0327C31.7448 18.1374 31.7652 18.2419 31.8103 18.3365C31.8855 18.4887 32.0152 18.6069 32.1737 18.6677C32.3994 18.3733 32.6658 18.1124 32.9649 17.8929C32.956 17.8623 32.9447 17.8325 32.9312 17.8037C32.8806 17.6983 32.8014 17.6092 32.7026 17.5468C32.6038 17.4843 32.489 17.4509 32.3721 17.4504Z" fill="#FFFFCC"/>
</svg>
