<svg width="48" height="48" viewBox="0 0 48 48" fill="none" xmlns="http://www.w3.org/2000/svg">
<g clip-path="url(#clip0_274_27883)">
<path d="M0 0H48V48H0V0Z" fill="#F7DF1E"/>
<path d="M12.6212 40.1128L16.2945 37.8898C17.0031 39.1462 17.6478 40.2093 19.194 40.2093C20.6763 40.2093 21.6107 39.6295 21.6107 37.3743V22.0371H26.1215V37.438C26.1215 42.11 23.3829 44.2366 19.3874 44.2366C15.779 44.2366 13.6843 42.3677 12.6211 40.1124" fill="black"/>
<path d="M28.5703 39.6295L32.2432 37.503C33.21 39.0819 34.4666 40.2418 36.6897 40.2418C38.5587 40.2418 39.7506 39.3073 39.7506 38.0185C39.7506 36.4719 38.5263 35.9241 36.4641 35.0222L35.3367 34.5385C32.0822 33.1533 29.9234 31.4134 29.9234 27.7402C29.9234 24.357 32.501 21.7793 36.5287 21.7793C39.3964 21.7793 41.4585 22.7782 42.9404 25.3881L39.4284 27.6434C38.655 26.2581 37.8176 25.7104 36.5288 25.7104C35.2077 25.7104 34.3699 26.5481 34.3699 27.6434C34.3699 28.9967 35.2077 29.5446 37.1408 30.3824L38.2684 30.8657C42.1027 32.509 44.2615 34.1843 44.2615 37.954C44.2615 42.014 41.0717 44.237 36.7865 44.237C32.5978 44.237 29.8912 42.2395 28.5703 39.6295Z" fill="black"/>
</g>
<defs>
<clipPath id="clip0_274_27883">
<rect width="48" height="48" fill="white"/>
</clipPath>
</defs>
</svg>
