<svg width="48" height="48" viewBox="0 0 48 48" fill="none" xmlns="http://www.w3.org/2000/svg">
<path d="M24.0751 12.6609C33.9572 4.98911 28.8854 0 28.8854 0C29.6402 7.93107 20.72 9.80375 18.3289 15.2538C16.6973 18.9727 19.4462 22.229 24.0718 26.3331C23.6629 25.4241 23.0321 24.5409 22.3937 23.6467C20.2159 20.5969 17.9473 17.4198 24.0751 12.6609Z" fill="#E76F00"/>
<path d="M25.6503 28.0155C25.6503 28.0155 28.6233 25.6168 26.2689 22.9512C18.2877 13.9078 34.998 9.80371 34.998 9.80371C24.7956 14.7187 26.3187 17.6361 28.8831 21.1803C31.6287 24.9807 25.6503 28.0155 25.6503 28.0155Z" fill="#E76F00"/>
<path d="M34.4067 35.1684C43.5647 30.4887 39.3305 25.9917 36.375 26.5976C35.6505 26.7458 35.3276 26.8743 35.3276 26.8743C35.3276 26.8743 35.5965 26.46 36.1101 26.2806C41.957 24.2594 46.4535 32.2424 34.2227 35.4042C34.2227 35.4042 34.3644 35.2797 34.4067 35.1684Z" fill="#5382A1"/>
<path d="M15.3514 29.2454C9.62154 28.493 18.4931 26.4209 18.4931 26.4209C18.4931 26.4209 15.0479 26.1924 10.8107 28.2065C5.80052 30.5898 23.204 31.6737 32.2129 29.3438C33.1495 28.7148 34.444 28.1697 34.444 28.1697C34.444 28.1697 30.7574 28.8171 27.086 29.1218C22.5937 29.4918 17.7707 29.564 15.3514 29.2454Z" fill="#5382A1"/>
<path d="M17.531 33.7141C14.3358 33.3892 16.4279 31.8662 16.4279 31.8662C8.15987 34.5647 21.0281 37.6249 32.5812 34.3027C31.3532 33.877 30.5723 33.0983 30.5723 33.0983C24.9258 34.1675 21.6629 34.1333 17.531 33.7141Z" fill="#5382A1"/>
<path d="M18.92 38.5486C15.7273 38.1877 17.5925 37.1211 17.5925 37.1211C10.0872 39.1833 22.1576 43.4437 31.7132 39.4165C30.1481 38.818 29.0275 38.1271 29.0275 38.1271C24.7649 38.9203 22.7879 38.9826 18.92 38.5486Z" fill="#5382A1"/>
<path d="M38.908 41.0085C38.908 41.0085 40.2883 42.1269 37.3878 42.9921C31.8721 44.6352 14.4314 45.1314 9.58641 43.0577C7.84476 42.3126 11.1108 41.2787 12.1382 41.0616C13.2097 40.8332 13.822 40.8758 13.822 40.8758C11.8851 39.534 1.30273 43.5104 8.44667 44.6492C27.9292 47.7561 43.9615 43.25 38.908 41.0085Z" fill="#5382A1"/>
<path d="M42.0018 43.4521C41.6822 47.5423 28.1834 48.4028 19.3929 47.8494C13.6583 47.4878 12.509 46.584 12.4922 46.5708C17.9807 47.4606 27.2342 47.6226 34.737 46.234C41.3873 45.0027 42.0018 43.4521 42.0018 43.4521Z" fill="#5382A1"/>
</svg>
