<svg width="48" height="48" viewBox="0 0 48 48" fill="none" xmlns="http://www.w3.org/2000/svg">
<g clip-path="url(#clip0_274_27604)">
<path d="M46.7963 34.1836C46.7963 34.1836 40.8381 50.251 20.3256 46.5106C20.0029 46.4505 19.6933 46.3383 19.3798 46.2435C19.3065 46.222 19.2324 46.1986 19.1591 46.1776C18.8511 46.0818 18.5463 45.9835 18.2433 45.8779C18.2086 45.8658 18.1755 45.8544 18.1403 45.842C17.8643 45.7449 17.5898 45.6419 17.3189 45.5379C17.2479 45.5102 17.1773 45.4833 17.1067 45.4544C16.8148 45.3391 16.5244 45.2185 16.237 45.0926C16.184 45.0693 16.1329 45.0459 16.0791 45.0221C15.8276 44.9103 15.5793 44.7944 15.333 44.6767C15.269 44.6442 15.2047 44.6142 15.1403 44.5839C15.1053 44.5663 15.0675 44.5488 15.0316 44.5309C14.8726 44.4514 14.7173 44.3688 14.5607 44.2868C14.4398 44.2244 14.317 44.1637 14.1969 44.0993C13.9751 43.9784 13.7564 43.8556 13.5388 43.7301C13.4581 43.684 13.3766 43.6396 13.2966 43.5932C13.0011 43.4194 12.7087 43.2388 12.4206 43.0563C12.3392 43.0041 12.2585 42.9488 12.1782 42.8949C11.9903 42.7733 11.8024 42.6516 11.6183 42.5245C11.5988 42.5112 11.5802 42.4973 11.561 42.4836C11.4897 42.4352 11.4219 42.3857 11.3509 42.3342C11.1568 42.1993 10.9646 42.0613 10.7744 41.921C10.6824 41.8516 10.5907 41.7819 10.4995 41.712C10.3272 41.5806 10.1557 41.446 9.98567 41.3104C9.9011 41.2426 9.81532 41.1756 9.73076 41.1069C9.52339 40.9361 9.31667 40.7622 9.11436 40.5868C9.07611 40.5534 9.0356 40.5205 8.9966 40.4855C8.99267 40.4839 8.98995 40.4808 8.98564 40.4772C8.75604 40.276 8.53067 40.0698 8.30726 39.8593C8.23985 39.7977 8.17273 39.7318 8.10495 39.6671C7.93807 39.5068 7.77279 39.3454 7.61023 39.1817C7.54273 39.1154 7.47607 39.0484 7.41139 38.9813C7.20129 38.7653 6.99382 38.549 6.79114 38.3278C6.78373 38.3178 6.77632 38.3119 6.76742 38.3021C6.76385 38.2983 6.75879 38.2931 6.75532 38.2888C6.54795 38.0604 6.34442 37.8268 6.1452 37.5925C6.08942 37.5266 6.03335 37.4592 5.97832 37.3926C5.82982 37.2136 5.68357 37.0351 5.54014 36.8542C5.48051 36.7789 5.42089 36.703 5.36201 36.6273C5.20104 36.4195 5.04195 36.2101 4.88792 35.9972C4.85904 35.9575 4.82829 35.9184 4.80054 35.8794C4.79464 35.8729 4.78967 35.8658 4.78573 35.8592C4.60723 35.6124 4.43492 35.3609 4.2657 35.1091C4.2131 35.0319 4.1636 34.9524 4.11289 34.8728C3.99045 34.6865 3.87035 34.5 3.7542 34.3114C3.69345 34.2147 3.6357 34.1177 3.5772 34.0205C3.47154 33.8443 3.36823 33.6681 3.26801 33.4903C3.21073 33.3897 3.1542 33.2915 3.09879 33.1882C3.06795 33.1336 3.03448 33.0774 3.00448 33.0202C2.95179 32.9249 2.90426 32.8256 2.85279 32.7285C2.77329 32.5761 2.69257 32.4229 2.61579 32.2677C-0.623926 25.7902 -1.15258 17.8589 3.08904 11.7625L6.39973 7.56348C2.66445 14.7829 4.34323 23.5739 9.0161 29.9472C9.18485 30.1793 9.35764 30.4081 9.53417 30.6369C9.58882 30.7059 9.64367 30.7753 9.69832 30.8416C9.84523 31.0287 9.99532 31.2135 10.147 31.3964C10.2017 31.4607 10.255 31.5238 10.3108 31.5901C10.5136 31.8295 10.7209 32.0673 10.9339 32.2992C10.944 32.3105 10.9537 32.3207 10.9635 32.3316C11.1647 32.5511 11.3697 32.7678 11.5783 32.9815C11.643 33.047 11.7089 33.1118 11.7748 33.1773C11.9386 33.3444 12.1058 33.5067 12.2758 33.6681C12.3401 33.732 12.4048 33.7936 12.4715 33.8572C12.7011 34.0708 12.9327 34.2833 13.1686 34.4907C13.1931 34.5122 13.2184 34.532 13.241 34.5519C13.4594 34.7417 13.6804 34.9266 13.9042 35.1106C13.9822 35.1742 14.0617 35.2376 14.1412 35.3008C14.317 35.4423 14.4949 35.58 14.6738 35.7168C14.7592 35.7823 14.8469 35.849 14.9355 35.9144C15.13 36.0587 15.3265 36.2006 15.525 36.341C15.5924 36.3865 15.6579 36.4361 15.7262 36.4821C15.9313 36.624 16.1403 36.762 16.35 36.8969C16.4287 36.9492 16.5067 37.0038 16.5862 37.0545C16.8755 37.2377 17.1679 37.4178 17.4634 37.5917C17.5395 37.6354 17.6155 37.6763 17.6903 37.7184C17.9134 37.8474 18.1368 37.9745 18.3644 38.0962C18.4876 38.1647 18.6143 38.2268 18.739 38.2927C18.9254 38.3886 19.1118 38.4861 19.3004 38.578C19.3717 38.6131 19.4411 38.6459 19.5109 38.679C19.7515 38.7948 19.9928 38.9064 20.2369 39.017C20.2946 39.042 20.3507 39.0681 20.4088 39.093C20.693 39.2174 20.9803 39.3368 21.27 39.4509C21.3444 39.4805 21.4189 39.509 21.4938 39.5387C21.7573 39.6408 22.0228 39.7399 22.2914 39.8346C22.3331 39.8494 22.3748 39.8646 22.4153 39.8794C22.7148 39.9824 23.0161 40.0806 23.3198 40.1734C23.3974 40.1976 23.475 40.221 23.5545 40.2444C23.8655 40.3363 24.1747 40.4358 24.4937 40.508C32.9099 42.4234 41.7921 40.7033 46.7963 34.1836ZM17.1037 23.8831C17.5638 24.5416 18.0729 25.3255 18.683 25.8548C18.9037 26.0983 19.1353 26.3357 19.3712 26.5692C19.4304 26.63 19.4916 26.6885 19.5529 26.7481C19.7813 26.9704 20.0152 27.1891 20.2554 27.4015C20.2655 27.4089 20.2745 27.4192 20.2843 27.4262C20.287 27.4293 20.2894 27.43 20.2913 27.4331C20.558 27.6663 20.8333 27.8913 21.1124 28.1123C21.1744 28.1599 21.2359 28.2094 21.2988 28.2578C21.5791 28.4725 21.8649 28.6839 22.1581 28.8849C22.1671 28.8911 22.174 28.8975 22.183 28.9037C22.312 28.9933 22.4438 29.0768 22.5744 29.1625C22.6376 29.2031 22.6972 29.2467 22.7603 29.285C22.97 29.4195 23.1818 29.5501 23.3974 29.6756C23.4278 29.6944 23.4574 29.7099 23.4874 29.7275C23.6726 29.8344 23.8617 29.94 24.0504 30.0421C24.1159 30.0788 24.183 30.1115 24.25 30.1465C24.3802 30.2144 24.5112 30.2842 24.6438 30.3501C24.6636 30.3595 24.6844 30.3687 24.7035 30.377C24.9737 30.5099 25.2461 30.6385 25.5249 30.7594C25.5842 30.7859 25.6458 30.8093 25.7062 30.8343C25.9289 30.9286 26.1534 31.021 26.3792 31.1076C26.475 31.1439 26.5722 31.1785 26.6673 31.2132C26.8727 31.2896 27.0782 31.3591 27.2855 31.4285C27.3796 31.4584 27.4715 31.4892 27.5655 31.5181C27.8602 31.6093 28.1518 31.7255 28.4594 31.7762C44.2969 34.4004 47.9531 22.2064 47.9531 22.2064C44.6569 26.9532 38.2741 29.218 31.4628 27.4504C31.1606 27.3708 30.8625 27.2839 30.5665 27.1907C30.4752 27.1633 30.3863 27.1338 30.2962 27.1037C30.0858 27.0354 29.8763 26.963 29.6687 26.8873C29.5739 26.8526 29.4788 26.8179 29.3855 26.782C29.1582 26.6947 28.9333 26.6043 28.7107 26.51C28.6495 26.4835 28.5883 26.46 28.5287 26.4327C28.2492 26.311 27.9739 26.1831 27.7025 26.0489C27.5626 25.9806 27.4257 25.9084 27.2877 25.8376C27.2081 25.7966 27.1282 25.7556 27.0487 25.7146C26.8725 25.6189 26.6971 25.5196 26.5243 25.4189C26.4833 25.3953 26.4405 25.3729 26.3988 25.3481C26.1847 25.2226 25.9734 25.0933 25.7641 24.9606C25.6997 24.9195 25.6373 24.8748 25.573 24.8325C25.4345 24.7431 25.297 24.6524 25.1613 24.5605C24.8697 24.3593 24.5858 24.148 24.3055 23.9344C24.2408 23.8835 24.1765 23.8338 24.1125 23.7829C21.1316 21.4287 18.7687 18.212 17.6443 14.5645C16.4673 10.7815 16.7211 6.53505 18.7612 3.08889L16.2548 6.62683C13.1878 11.041 13.3543 16.9499 15.7468 21.6184C16.1486 22.4011 16.5996 23.1601 17.1037 23.8831ZM33.7969 18.422C33.9274 18.4707 34.0577 18.514 34.1898 18.5587C34.2475 18.5764 34.3052 18.5963 34.3633 18.6134C34.5497 18.6721 34.7348 18.7402 34.9275 18.7764C43.6729 20.466 46.0444 14.2886 46.676 13.3795C44.598 16.3711 41.1067 17.0892 36.8218 16.0496C36.4838 15.967 36.1119 15.8448 35.7851 15.7294C35.3668 15.5802 34.9555 15.4103 34.5547 15.2179C33.7934 14.8524 33.069 14.4089 32.3961 13.9012C28.5626 10.9922 26.1814 5.44295 28.6827 0.923828L27.329 2.78955C25.5209 5.45073 25.3435 8.75561 26.5977 11.695C27.9209 14.8144 30.6323 17.2619 33.7969 18.422Z" fill="black"/>
</g>
<defs>
<clipPath id="clip0_274_27604">
<rect width="48" height="48" fill="white"/>
</clipPath>
</defs>
</svg>
