<svg width="48" height="48" viewBox="0 0 48 48" fill="none" xmlns="http://www.w3.org/2000/svg">
<path d="M32.5353 26.5846C30.6633 26.5846 28.9859 27.4126 27.8373 28.7146L24.8931 26.6345C25.217 25.7555 25.3836 24.8263 25.3851 23.8895C25.3851 22.9404 25.2126 22.0332 24.9089 21.1884L27.8478 19.1304C28.996 20.4267 30.6689 21.2499 32.5353 21.2499C35.9879 21.2499 38.7989 18.4449 38.7989 14.9979C38.7989 11.5497 35.9879 8.74586 32.5353 8.74586C29.0811 8.74586 26.2701 11.5497 26.2701 14.9979C26.2701 15.6147 26.3639 16.2091 26.5322 16.7735L23.5923 18.8315C22.3378 17.2783 20.5534 16.2438 18.5822 15.9267V12.3905C21.4199 11.7957 23.5585 9.28061 23.5585 6.27348C23.5585 2.82461 20.7475 0.0214844 17.2949 0.0214844C13.8411 0.0214844 11.0298 2.82498 11.0298 6.27348C11.0298 9.23973 13.1129 11.7256 15.8931 12.3627V15.9429C12.0993 16.6077 9.20312 19.9141 9.20312 23.8895C9.20312 27.884 12.127 31.202 15.9501 31.8436V35.6259C13.1406 36.2409 11.0301 38.7417 11.0301 41.7282C11.0301 45.1767 13.8408 47.9802 17.2949 47.9802C20.7475 47.9802 23.5585 45.1767 23.5585 41.7282C23.5585 38.7417 21.4476 36.2412 18.6396 35.6259V31.8436C20.5733 31.5183 22.3233 30.5023 23.5645 28.9842L26.5277 31.079C26.3575 31.6495 26.2707 32.2416 26.2701 32.837C26.2701 36.2851 29.0811 39.0886 32.5353 39.0886C35.9879 39.0886 38.7989 36.2851 38.7989 32.837C38.7989 29.3885 35.9879 26.5846 32.5353 26.5846ZM32.5353 11.9656C34.2096 11.9656 35.5716 13.3269 35.5716 14.9979C35.5716 16.6677 34.2096 18.0286 32.5353 18.0286C30.8594 18.0286 29.497 16.6677 29.497 14.9979C29.497 13.3265 30.8594 11.9656 32.5353 11.9656ZM14.257 6.27311C14.257 4.60211 15.619 3.24273 17.2949 3.24273C18.9693 3.24273 20.3316 4.60211 20.3316 6.27348C20.3316 7.94486 18.9693 9.30423 17.2949 9.30423C15.619 9.30423 14.257 7.94448 14.257 6.27311ZM20.3316 41.7282C20.3316 43.3996 18.9693 44.759 17.2949 44.759C15.619 44.759 14.257 43.3996 14.257 41.7282C14.257 40.0569 15.619 38.6975 17.2949 38.6975C18.9693 38.6975 20.3316 40.0569 20.3316 41.7282ZM17.2934 28.1172C14.9586 28.1172 13.0585 26.2201 13.0585 23.8895C13.0585 21.5574 14.9586 19.6606 17.2934 19.6606C19.6296 19.6606 21.5298 21.5574 21.5298 23.8895C21.5298 26.2201 19.63 28.1172 17.2934 28.1172ZM32.5353 35.8677C30.8594 35.8677 29.497 34.5084 29.497 32.837C29.497 31.1652 30.8594 29.8059 32.5353 29.8059C34.2096 29.8059 35.5716 31.1652 35.5716 32.8366C35.5716 34.5084 34.2096 35.8677 32.5353 35.8677Z" fill="white"/>
</svg>
