<svg width="49" height="48" viewBox="0 0 49 48" fill="none" xmlns="http://www.w3.org/2000/svg">
<g clip-path="url(#clip0_274_28606)">
<path d="M48.6758 48H0.675781V0H48.6758V48Z" fill="#D00000"/>
<path d="M13.4648 37.2371C13.4648 37.2746 13.5023 37.3121 13.5023 37.3496L14.3273 38.1746C14.3648 38.2121 14.4023 38.2121 14.4398 38.2121H17.2523C17.2898 38.2121 17.3273 38.1746 17.3648 38.1746L18.1898 37.3496C18.2273 37.3121 18.2273 37.2746 18.2273 37.2371V28.3121C18.2273 28.2746 18.2648 28.2371 18.2648 28.1996L21.8273 24.7871C21.8648 24.7496 21.9023 24.7496 21.9023 24.7871L30.9398 38.1371C30.9773 38.1746 31.0148 38.1746 31.0523 38.1746H35.0273C35.0648 38.1746 35.1023 38.1371 35.1398 38.0996L35.8523 36.7121V36.5996L25.3148 21.3371C25.2773 21.2996 25.3148 21.2621 25.3148 21.2246L35.0273 11.5496C35.0648 11.5121 35.0648 11.4746 35.0648 11.4371V11.2496C35.0648 11.2121 35.0648 11.1746 35.0273 11.1371L34.4648 9.86211C34.4648 9.82461 34.4273 9.78711 34.3898 9.78711H30.4523C30.4148 9.78711 30.3773 9.82461 30.3398 9.82461L18.3023 21.9371C18.2648 21.9746 18.2648 21.9371 18.2648 21.8996V10.8371C18.2648 10.7996 18.2273 10.7621 18.2273 10.7246L17.4023 9.86211C17.3648 9.82461 17.3273 9.82461 17.2898 9.82461H14.4398C14.4023 9.82461 14.3648 9.86211 14.3273 9.86211L13.5023 10.7621C13.4648 10.7996 13.4648 10.8371 13.4648 10.8746V37.2371Z" fill="white"/>
</g>
<defs>
<clipPath id="clip0_274_28606">
<rect width="48" height="48" fill="white" transform="translate(0.675781)"/>
</clipPath>
</defs>
</svg>
