<svg width="48" height="48" viewBox="0 0 48 48" fill="none" xmlns="http://www.w3.org/2000/svg">
<g clip-path="url(#clip0_274_28580)">
<path d="M47.2458 10.8399C47.263 10.9038 47.272 10.9697 47.272 11.0358V21.3209C47.272 21.5897 47.1283 21.8378 46.8952 21.9715L38.2627 26.9416V36.7927C38.2627 37.0608 38.1202 37.3082 37.8877 37.4432L19.8682 47.8164C19.8269 47.8399 19.7819 47.8549 19.737 47.8708C19.7201 47.8764 19.7041 47.8867 19.6863 47.8914C19.5604 47.9246 19.428 47.9246 19.302 47.8914C19.2814 47.8858 19.2626 47.8746 19.2429 47.8671C19.2017 47.8521 19.1586 47.8389 19.1192 47.8164L1.1034 37.4432C0.870448 37.3094 0.726562 37.0613 0.726562 36.7927V5.93734C0.726562 5.86985 0.735936 5.80423 0.75281 5.74049C0.758434 5.71893 0.771558 5.69925 0.779057 5.67769C0.793118 5.63832 0.806241 5.59801 0.826864 5.56145C0.840925 5.53708 0.861548 5.51739 0.878421 5.49489C0.899981 5.4649 0.919666 5.43396 0.944976 5.40772C0.966536 5.38616 0.994658 5.37022 1.01903 5.35147C1.04621 5.32897 1.07059 5.3046 1.10152 5.28679H1.10246L10.1108 0.100181C10.343 -0.0333936 10.6286 -0.0333936 10.8607 0.100181L19.8691 5.28679H19.871C19.901 5.30554 19.9263 5.32897 19.9535 5.35053C19.9779 5.36928 20.005 5.38616 20.0266 5.40678C20.0529 5.43396 20.0716 5.4649 20.0941 5.49489C20.11 5.51739 20.1316 5.53708 20.1447 5.56145C20.1663 5.59894 20.1785 5.63832 20.1935 5.67769C20.201 5.69925 20.2141 5.71893 20.2197 5.74143C20.237 5.80531 20.2458 5.87117 20.246 5.93734V25.2093L27.7526 20.8869V11.0349C27.7526 10.9693 27.762 10.9027 27.7789 10.8399C27.7854 10.8174 27.7976 10.7977 27.8051 10.7762C27.8201 10.7368 27.8332 10.6965 27.8539 10.6599C27.8679 10.6356 27.8885 10.6159 27.9045 10.5934C27.927 10.5634 27.9457 10.5325 27.972 10.5062C27.9935 10.4847 28.0207 10.4687 28.0451 10.45C28.0732 10.4275 28.0976 10.4031 28.1276 10.3853H28.1285L37.1378 5.19868C37.3699 5.06491 37.6557 5.06491 37.8877 5.19868L46.8961 10.3853C46.928 10.404 46.9524 10.4275 46.9805 10.449C47.0039 10.4678 47.0311 10.4847 47.0527 10.5053C47.0789 10.5325 47.0977 10.5634 47.1202 10.5934C47.137 10.6159 47.1577 10.6356 47.1708 10.6599C47.1923 10.6965 47.2045 10.7368 47.2195 10.7762C47.228 10.7977 47.2401 10.8174 47.2458 10.8399ZM45.7703 20.8869V12.3341L42.6178 14.1489L38.2627 16.6565V25.2093L45.7712 20.8869H45.7703ZM36.7619 36.3587V27.8002L32.478 30.2468L20.245 37.2286V45.8676L36.7619 36.3587ZM2.22827 7.23564V36.3587L18.7433 45.8667V37.2295L10.1155 32.3466L10.1127 32.3447L10.109 32.3429C10.0799 32.326 10.0555 32.3016 10.0283 32.281C10.0049 32.2622 9.97772 32.2472 9.9571 32.2266L9.95523 32.2238C9.93085 32.2004 9.91398 32.1713 9.89336 32.1451C9.87461 32.1197 9.85211 32.0982 9.83711 32.0719L9.83618 32.0691C9.8193 32.041 9.80899 32.0073 9.79681 31.9754C9.78462 31.9473 9.76868 31.921 9.76118 31.891V31.8901C9.75181 31.8545 9.74994 31.817 9.74619 31.7804C9.74244 31.7523 9.73494 31.7242 9.73494 31.696V31.6942V11.558L5.38073 9.0495L2.22827 7.23658V7.23564ZM10.4867 1.61689L2.981 5.93734L10.4849 10.2578L17.9896 5.93641L10.4849 1.61689H10.4867ZM14.39 28.5801L18.7442 26.0735V7.23564L15.5918 9.05044L11.2366 11.558V30.3959L14.39 28.5801ZM37.5128 6.71538L30.008 11.0358L37.5128 15.3563L45.0166 11.0349L37.5128 6.71538ZM36.7619 16.6565L32.4068 14.1489L29.2543 12.3341V20.8869L33.6085 23.3935L36.7619 25.2093V16.6565ZM19.4932 35.9303L30.5011 29.646L36.0036 26.5057L28.5044 22.188L19.8701 27.1591L12.0006 31.6895L19.4932 35.9303Z" fill="#FF2D20"/>
</g>
<defs>
<clipPath id="clip0_274_28580">
<rect width="48" height="48" fill="white"/>
</clipPath>
</defs>
</svg>
