<svg width="48" height="48" viewBox="0 0 48 48" fill="none" xmlns="http://www.w3.org/2000/svg">
<path d="M45.0393 22.7086C44.9163 22.6996 44.7738 22.6936 44.6298 22.6936C43.9038 22.6936 43.2093 22.8286 42.5703 23.0746L42.6093 23.0611C42.4218 23.1361 42.1218 23.1361 42.0963 23.3746C42.1998 23.4736 42.2148 23.6371 42.3018 23.7751C42.4773 24.0721 42.6933 24.3241 42.9453 24.5341L42.9498 24.5386C43.2123 24.7441 43.4748 24.9436 43.7508 25.1191C44.2383 25.4191 44.7918 25.5976 45.2688 25.8991C45.5403 26.0746 45.8178 26.2981 46.0938 26.4856C46.2303 26.5786 46.3188 26.7481 46.4943 26.8081V26.7706C46.4088 26.6581 46.3818 26.4946 46.2978 26.3701C46.1718 26.2441 46.0473 26.1316 45.9228 26.0086C45.5508 25.5211 45.1203 25.1041 44.6373 24.7561L44.6193 24.7441C44.2188 24.4711 43.3413 24.0886 43.1763 23.6281L43.1523 23.6011C43.4793 23.5546 43.7703 23.4856 44.0508 23.3926L44.0148 23.4031C44.4408 23.2906 44.8308 23.3146 45.2703 23.2051C45.4683 23.1541 45.6693 23.0926 45.8703 23.0296V22.9171C45.6453 22.6921 45.4773 22.3861 45.2448 22.1761C44.6313 21.6361 43.9548 21.1291 43.2423 20.6731L43.1748 20.6326C42.7818 20.3821 42.2823 20.2201 41.8683 20.0071C41.7183 19.9321 41.4678 19.8946 41.3808 19.7686C41.1858 19.4911 41.0133 19.1731 40.8768 18.8371L40.8648 18.8041C40.4968 18.0901 40.1548 17.3636 39.8388 16.6246C39.6228 16.0501 39.4083 15.5791 39.1668 15.1231L39.2013 15.1936C38.0223 13.2151 36.3798 11.6251 34.4193 10.5406L34.3548 10.5076C33.8913 10.2781 33.3528 10.0996 32.7873 9.99911L32.7498 9.99311C32.4363 9.97811 32.1243 9.95561 31.8123 9.94211C31.5933 9.80111 31.4043 9.65711 31.2273 9.49811L31.2318 9.50261C30.5193 9.05261 28.6758 8.07761 28.1508 9.36761C27.8133 10.1806 28.6518 10.9831 28.9413 11.3956C29.1723 11.6701 29.3823 11.9776 29.5638 12.3031L29.5788 12.3331C29.6673 12.5506 29.6913 12.7741 29.7798 13.0006C29.9973 13.6786 30.2178 14.2351 30.4683 14.7736L30.4293 14.6806C30.5778 14.9791 30.7323 15.2326 30.9048 15.4726L30.8928 15.4546C30.9933 15.5911 31.1658 15.6556 31.2063 15.8806C31.0773 16.1521 30.9768 16.4671 30.9213 16.7956L30.9183 16.8166C30.7563 17.3146 30.6618 17.8891 30.6618 18.4846C30.6618 19.4161 30.8913 20.2936 31.2963 21.0646L31.2813 21.0346C31.4823 21.3451 31.9593 22.0351 32.5983 21.7711C33.1608 21.5461 33.0363 20.8336 33.1983 20.2066C33.2358 20.0566 33.2118 19.9576 33.2883 19.8556V19.8841C33.4638 20.2366 33.6408 20.5726 33.8013 20.9251C34.2543 21.5776 34.7928 22.1326 35.4078 22.5901L35.4273 22.6036C35.7273 22.8286 35.9658 23.2186 36.3408 23.3566V23.3191H36.3123C36.2268 23.2261 36.1323 23.1436 36.0288 23.0731L36.0228 23.0701C35.7903 22.8421 35.5743 22.5961 35.3793 22.3366L35.3673 22.3201C34.8783 21.6601 34.4133 20.9131 34.0098 20.1286L33.9663 20.0371C33.7608 19.6441 33.5883 19.2196 33.4233 18.8311C33.3483 18.6811 33.3483 18.4561 33.2223 18.3811C33.0003 18.6301 32.8008 18.9076 32.6343 19.2061L32.6223 19.2301C32.4303 19.7896 32.3043 20.4361 32.2713 21.1066V21.1231C32.2203 21.1366 32.2458 21.1231 32.2203 21.1501C31.8198 21.0526 31.6818 20.6371 31.5318 20.2876C31.3278 19.7386 31.2093 19.1026 31.2093 18.4411C31.2093 17.9071 31.2858 17.3911 31.4298 16.9036L31.4208 16.9426C31.5093 16.6801 31.8843 15.8521 31.7343 15.6001C31.6563 15.3616 31.4088 15.2251 31.2708 15.0316C31.1073 14.8006 30.9573 14.5381 30.8328 14.2606L30.8208 14.2306C30.5208 13.5301 30.3708 12.7531 30.0453 12.0526C29.8488 11.6866 29.6418 11.3716 29.4093 11.0776L29.4198 11.0911C29.1723 10.8046 28.9443 10.4851 28.7463 10.1461L28.7298 10.1161C28.6683 9.97961 28.5798 9.75311 28.6788 9.60311C28.6968 9.51611 28.7658 9.44861 28.8543 9.43511C29.0193 9.30011 29.4843 9.47561 29.6463 9.55061C30.1218 9.73061 30.5313 9.94211 30.9108 10.1911L30.8868 10.1761C31.0623 10.2991 31.2528 10.5376 31.4778 10.5991H31.7403C32.1408 10.6876 32.5938 10.6261 32.9688 10.7356C33.6573 10.9681 34.2528 11.2591 34.8033 11.6161L34.7718 11.5966C36.4278 12.6661 37.7538 14.1121 38.6508 15.8206L38.6808 15.8821C38.8308 16.1701 38.8968 16.4356 39.0333 16.7356C39.2958 17.3536 39.6198 17.9791 39.8868 18.5761C40.1403 19.2181 40.4403 19.7731 40.7973 20.2846L40.7793 20.2576C40.9668 20.5201 41.7198 20.6566 42.0573 20.7931C42.4128 20.9176 42.6978 21.0361 42.9738 21.1696L42.9183 21.1456C43.3488 21.4081 43.7688 21.7081 44.1738 21.9961C44.3793 22.1386 45.0048 22.4521 45.0423 22.7041L45.0393 22.7086ZM27.4533 33.6781C27.4533 33.7006 27.4548 33.7261 27.4548 33.7516C27.4548 34.5886 27.0813 35.3371 26.4903 35.8411L26.4858 35.8441C25.8378 36.3721 25.0023 36.6931 24.0918 36.6931C24.0213 36.6931 23.9508 36.6916 23.8818 36.6871H23.8908C22.7823 36.6721 21.7623 36.3121 20.9268 35.7106L20.9418 35.7211L21.3858 34.8286C22.0293 35.1886 22.7943 35.4121 23.6073 35.4436H23.6163C23.6568 35.4466 23.7033 35.4481 23.7513 35.4481C24.2493 35.4481 24.7128 35.2921 25.0923 35.0266L25.0848 35.0311C25.4283 34.7701 25.6473 34.3621 25.6473 33.9031C25.6473 33.8941 25.6473 33.8866 25.6473 33.8776V33.8791C25.6473 33.2611 25.2168 32.7361 24.4323 32.2951C23.7048 31.8961 22.2528 31.0636 22.2528 31.0636C21.5358 30.6196 21.0663 29.8381 21.0663 28.9471C21.0663 28.9156 21.0663 28.8841 21.0678 28.8526V28.8571C21.0663 28.8286 21.0663 28.7956 21.0663 28.7626C21.0663 27.9901 21.4068 27.2971 21.9453 26.8261L21.9483 26.8231C22.5213 26.3371 23.2698 26.0416 24.0873 26.0416C24.1398 26.0416 24.1908 26.0431 24.2418 26.0446H24.2343C24.2478 26.0446 24.2643 26.0446 24.2808 26.0446C25.2393 26.0446 26.1318 26.3311 26.8758 26.8246L26.8578 26.8141L26.4588 27.7066C25.8723 27.4426 25.1883 27.2836 24.4683 27.2761H24.4653C24.4293 27.2731 24.3888 27.2716 24.3468 27.2716C23.9268 27.2716 23.5398 27.4186 23.2368 27.6646L23.2398 27.6616C22.9563 27.8971 22.7763 28.2496 22.7748 28.6441C22.7748 29.2591 23.2128 29.7871 24.0228 30.2371C24.7593 30.6406 26.2473 31.4926 26.2473 31.4926C26.9793 31.9231 27.4638 32.7061 27.4638 33.6031C27.4638 33.6301 27.4638 33.6586 27.4623 33.6856V33.6811L27.4533 33.6781ZM30.5613 34.4746C30.1518 33.6571 29.9133 32.6941 29.9133 31.6756C29.9133 31.5151 29.9193 31.3561 29.9313 31.2001L29.9298 31.2211C29.9298 28.6101 30.7233 27.3041 32.3103 27.3031C32.3493 27.3001 32.3958 27.2986 32.4438 27.2986C33.1563 27.2986 33.7818 27.6706 34.1373 28.2316L34.1418 28.2391C34.5483 29.0521 34.7868 30.0121 34.7868 31.0261C34.7868 31.1821 34.7808 31.3366 34.7703 31.4896L34.7718 31.4686C34.7718 34.1006 33.9783 35.4176 32.3913 35.4196C32.3508 35.4226 32.3043 35.4241 32.2578 35.4241C31.5453 35.4241 30.9183 35.0521 30.5628 34.4911L30.5583 34.4836L30.5613 34.4746ZM36.7323 36.8026L34.8273 35.8651C35.0013 35.7196 35.1573 35.5666 35.3013 35.4016L35.3058 35.3971C36.0753 34.3591 36.5373 33.0526 36.5373 31.6396C36.5373 31.4761 36.5313 31.3141 36.5193 31.1536L36.5208 31.1746C36.5208 27.7446 35.1743 26.0286 32.4813 26.0266C32.4213 26.0236 32.3508 26.0221 32.2803 26.0221C31.1298 26.0221 30.0963 26.5276 29.3928 27.3301L29.3898 27.3346C28.6233 28.3726 28.1628 29.6776 28.1628 31.0906C28.1628 31.2496 28.1688 31.4071 28.1808 31.5631L28.1793 31.5421C28.1658 31.6936 28.1583 31.8706 28.1583 32.0491C28.1583 33.3601 28.5693 34.5751 29.2683 35.5726L29.2548 35.5531C29.9283 36.2701 30.8838 36.7171 31.9413 36.7171C32.0403 36.7171 32.1378 36.7126 32.2338 36.7051L32.2203 36.7066C32.2338 36.7066 32.2518 36.7066 32.2683 36.7066C32.7348 36.7066 33.1863 36.6391 33.6138 36.5146L33.5808 36.5236L36.0648 37.9711L36.7398 36.8056L36.7323 36.8026ZM42.9543 36.5491H38.0238V26.1841H39.6828V35.2756H42.9543V36.5491ZM19.8528 28.9021C19.4223 32.0281 18.4368 34.8496 16.9953 37.3771L17.0553 37.2616C16.4778 38.3731 15.3858 39.1471 14.1033 39.2716L14.0883 39.2731C13.6998 39.2521 13.3383 39.1591 13.0098 39.0076L13.0278 39.0151V38.0896C13.2333 38.1211 13.4703 38.1391 13.7118 38.1391C13.7253 38.1391 13.7388 38.1391 13.7538 38.1391C13.7778 38.1406 13.8033 38.1406 13.8303 38.1406C14.2638 38.1406 14.6613 37.9831 14.9673 37.7206L14.9643 37.7221C15.2943 37.4506 15.5058 37.0456 15.5178 36.5896C15.4383 35.9326 15.2868 35.3326 15.0693 34.7671L15.0873 34.8181L13.1868 28.9021H14.8923L16.2558 33.3256C16.4988 33.9496 16.6398 34.6726 16.6398 35.4271C16.6398 35.4286 16.6398 35.4301 16.6398 35.4301C17.3628 33.5371 17.9118 31.3291 18.1908 29.0386L18.2043 28.9006L19.8528 28.9021ZM12.3228 36.5491H10.5858C10.5368 33.7881 10.3683 31.0326 10.0803 28.2826H10.0653L7.42231 36.5491H6.10081L3.47581 28.2826H3.45781C3.25281 31.0336 3.13081 33.7891 3.09181 36.5491H1.50781C1.61081 32.8641 1.86681 29.4086 2.27581 26.1826H4.43131L6.93331 33.8011H6.94831L9.47281 26.1826H11.5248C11.9788 29.9596 12.2463 33.4151 12.3273 36.5491H12.3228ZM32.2578 11.8186C32.2548 11.8186 32.2503 11.8186 32.2458 11.8186C32.0673 11.8186 31.8948 11.8411 31.7298 11.8831L31.7448 11.8801V11.9041H31.7703C31.8993 12.0961 32.0313 12.2626 32.1738 12.4186L32.1708 12.4156C32.2713 12.6166 32.3583 12.8161 32.4588 13.0156L32.4843 12.9871C32.6478 12.8581 32.7513 12.6601 32.7513 12.4381C32.7513 12.4111 32.7498 12.3856 32.7468 12.3586V12.3616C32.6718 12.2731 32.6613 12.1861 32.5968 12.0991C32.5218 11.9731 32.3613 11.9116 32.2593 11.8126L32.2578 11.8186Z" fill="black"/>
</svg>
