<svg width="49" height="48" viewBox="0 0 49 48" fill="none" xmlns="http://www.w3.org/2000/svg">
<g clip-path="url(#clip0_274_28617)">
<path d="M43.0024 24.9766C46.3789 26.9554 48.6481 30.6117 48.6552 34.7982C48.6672 41.1001 43.5488 46.2181 37.2252 46.2282C30.9015 46.2402 25.7655 41.1394 25.7539 34.8376C25.7464 30.6511 28.0024 26.9877 31.3729 24.9953L34.6632 30.5371C34.7453 30.6758 34.6984 30.8547 34.5649 30.9458C33.3199 31.7896 32.5039 33.2131 32.5069 34.8259C32.5114 37.4116 34.6193 39.5048 37.2132 39.4988C39.8078 39.4943 41.9067 37.3951 41.9022 34.8098C41.8995 33.1973 41.0791 31.7761 39.8311 30.9368C39.6979 30.8461 39.6496 30.6672 39.7313 30.5281L43.0024 24.9766Z" fill="#128DFF"/>
<path d="M17.7283 24.9091C16.0196 23.9554 14.0949 23.4561 12.1381 23.459C5.813 23.459 0.6875 28.5684 0.6875 34.8702C0.6875 41.1717 5.813 46.2815 12.1381 46.2815C18.4929 46.2815 23.7444 40.9051 23.5846 34.577H17.1391C16.9692 34.577 16.8361 34.7206 16.8346 34.889C16.8185 37.4101 14.7076 39.5517 12.1381 39.5517C9.54237 39.5517 7.4405 37.4555 7.4405 34.8699C7.4405 32.2846 9.54237 30.1884 12.1381 30.1884C12.8165 30.1884 13.4626 30.332 14.0454 30.5911C14.189 30.6541 14.3589 30.6061 14.438 30.4726L17.7283 24.9091Z" fill="#8BDA67"/>
<path d="M18.6547 23.118C15.2827 21.1331 13.0195 17.4727 13.0195 13.2863C13.0195 6.98438 18.1465 1.875 24.4702 1.875C30.7938 1.875 35.9208 6.98438 35.9208 13.2863C35.9208 17.4727 33.6577 21.1331 30.2857 23.118L27.004 17.5725C26.9219 17.4338 26.9688 17.2549 27.1038 17.1638C28.3488 16.3215 29.1674 14.8991 29.1674 13.2863C29.1674 10.701 27.064 8.60475 24.4698 8.60475C21.8755 8.60475 19.7722 10.701 19.7722 13.2866C19.7722 14.8991 20.5908 16.3215 21.8362 17.1641C21.9712 17.2549 22.0177 17.4334 21.9355 17.5729L18.6547 23.118Z" fill="#FF2A44"/>
</g>
<defs>
<clipPath id="clip0_274_28617">
<rect width="48" height="48" fill="white" transform="translate(0.675781)"/>
</clipPath>
</defs>
</svg>
