<svg width="48" height="48" viewBox="0 0 48 48" fill="none" xmlns="http://www.w3.org/2000/svg">
<path d="M4.75791 24.2201C4.75791 24.9371 4.54472 25.541 4.11684 26.0299C3.67031 26.5422 3.09009 26.7993 2.37984 26.7993C1.66772 26.7993 1.08937 26.5422 0.642844 26.0299C0.214781 25.541 0 24.9371 0 24.2201C0 23.5011 0.214781 22.8973 0.642844 22.4102C1.09434 21.9028 1.67456 21.6492 2.37984 21.6492C3.09009 21.6492 3.67031 21.9028 4.11684 22.4102C4.54472 22.8973 4.75791 23.5011 4.75791 24.2201ZM3.34378 24.2201C3.34378 23.8953 3.26606 23.6212 3.11044 23.3996C2.93634 23.1477 2.69269 23.0225 2.37984 23.0225C2.06691 23.0225 1.82334 23.1477 1.64906 23.3996C1.49184 23.6212 1.41403 23.8953 1.41403 24.2201C1.41403 24.543 1.49184 24.8204 1.64906 25.0487C1.82334 25.3006 2.06691 25.426 2.37984 25.426C2.69269 25.426 2.93634 25.3006 3.11044 25.0487C3.26606 24.8204 3.34378 24.543 3.34378 24.2201ZM9.87094 24.2201C9.87094 24.8898 9.67809 25.475 9.29072 25.9756C8.87634 26.5236 8.34188 26.7993 7.69238 26.7993C7.23394 26.7993 6.84506 26.6657 6.52706 26.4019C6.52706 26.4627 6.53381 26.6098 6.54741 26.8452C6.56091 27.0817 6.56756 27.2745 6.56756 27.4268C6.56756 28.2676 6.31725 28.687 5.81672 28.687C5.61197 28.687 5.44463 28.6142 5.31094 28.4704C5.17903 28.3251 5.11303 28.1505 5.11303 27.9445V22.4762C5.11303 22.2766 5.18072 22.104 5.316 21.9587C5.45128 21.8149 5.61881 21.7423 5.81841 21.7423C6.11934 21.7423 6.33928 21.8925 6.47803 22.1922C6.774 21.8302 7.17825 21.6492 7.69069 21.6492C8.34187 21.6492 8.87466 21.9196 9.29072 22.4627C9.67641 22.9651 9.87094 23.5503 9.87094 24.2201ZM8.45681 24.2201C8.45681 23.8953 8.3775 23.6212 8.22187 23.3996C8.0475 23.1477 7.80403 23.0225 7.49109 23.0225C7.17825 23.0225 6.93469 23.1477 6.76041 23.3996C6.60478 23.6212 6.52706 23.8953 6.52706 24.2201C6.52706 24.543 6.60478 24.8204 6.76041 25.0487C6.93469 25.3006 7.17825 25.426 7.49109 25.426C7.80403 25.426 8.0475 25.3006 8.22187 25.0487C8.3775 24.8204 8.45681 24.543 8.45681 24.2201ZM15.016 24.068C15.016 24.3045 14.9602 24.4669 14.8485 24.5584C14.7369 24.6479 14.5628 24.6936 14.3276 24.6936H11.7753C11.7753 24.9643 11.9022 25.1722 12.1559 25.3175C12.3606 25.431 12.6109 25.4887 12.9068 25.4887C13.137 25.4887 13.4126 25.4123 13.7357 25.262C14.0588 25.1097 14.2667 25.0351 14.3565 25.0351C14.5205 25.0351 14.6591 25.0944 14.7742 25.2162C14.8874 25.3363 14.9451 25.4818 14.9451 25.6493C14.9451 26.0364 14.6558 26.3378 14.0772 26.5542C13.6358 26.7164 13.1876 26.7993 12.7294 26.7993C11.9919 26.7993 11.3965 26.5542 10.9416 26.0654C10.4865 25.5765 10.2583 24.9626 10.2583 24.2201C10.2583 23.5129 10.495 22.9092 10.9686 22.4053C11.4404 21.9011 12.0275 21.6492 12.7276 21.6492C13.3788 21.6492 13.9234 21.8877 14.3599 22.3646C14.7961 22.8417 15.016 23.4099 15.016 24.068ZM13.6021 23.7126C13.5953 23.496 13.4955 23.2999 13.3027 23.1222C13.1098 22.9447 12.9052 22.8568 12.6887 22.8568C12.4655 22.8568 12.2573 22.9447 12.0646 23.1222C11.8718 23.2999 11.7753 23.496 11.7753 23.7126H13.6021ZM19.7671 25.9636C19.7671 26.1702 19.7011 26.3443 19.5693 26.4898C19.4356 26.6337 19.2682 26.7064 19.0635 26.7064C18.5696 26.7064 18.3226 26.314 18.3226 25.5309C18.3226 25.3803 18.3328 25.1436 18.3531 24.8172C18.3751 24.4923 18.3853 24.2539 18.3853 24.1033C18.3853 23.2727 18.1163 22.8568 17.5802 22.8568C17.0439 22.8568 16.7767 23.2727 16.7767 24.1033C16.7767 24.2539 16.7852 24.4923 16.8004 24.8172C16.8173 25.1436 16.8258 25.3803 16.8258 25.5309C16.8258 26.314 16.5822 26.7064 16.0952 26.7064C15.8904 26.7064 15.7231 26.6337 15.5911 26.4898C15.4575 26.3443 15.3915 26.1702 15.3915 25.9636V22.4747C15.3915 22.2697 15.4575 22.0958 15.5911 21.9553C15.7231 21.8132 15.8922 21.7423 16.0969 21.7423C16.4351 21.7423 16.6702 21.8925 16.8021 22.1922C17.0304 21.8302 17.4346 21.6492 18.0131 21.6492C18.5493 21.6492 18.9756 21.7911 19.2884 22.0736C19.6081 22.3766 19.7671 22.7924 19.7671 23.3219V25.9636ZM24.2033 25.8133C24.2033 26.1329 23.9958 26.3865 23.5794 26.5728C23.248 26.7232 22.898 26.7993 22.5292 26.7993C21.8169 26.7993 21.2386 26.5422 20.7921 26.0299C20.3642 25.541 20.1494 24.9371 20.1494 24.2201C20.1494 23.5011 20.3676 22.8941 20.8056 22.3967C21.2437 21.8979 21.8169 21.6492 22.5292 21.6492C22.9402 21.6492 23.2937 21.71 23.5881 21.8302C23.9988 21.9926 24.2033 22.2462 24.2033 22.5913C24.2033 22.7653 24.1495 22.9193 24.0411 23.053C23.933 23.1849 23.7941 23.2526 23.6251 23.2526C23.5099 23.2526 23.3442 23.2137 23.1277 23.1377C22.9114 23.0597 22.739 23.0225 22.6121 23.0225C22.2755 23.0225 22.0132 23.1426 21.8256 23.3827C21.6512 23.5993 21.5633 23.8767 21.5633 24.2201C21.5633 24.543 21.6412 24.8172 21.7986 25.0387C21.9726 25.2975 22.2179 25.426 22.5308 25.426C22.6696 25.426 22.8589 25.3854 23.1007 25.3023C23.3427 25.2214 23.517 25.1791 23.6251 25.1791C23.7826 25.1791 23.9176 25.2466 24.0328 25.3786C24.1462 25.5122 24.2033 25.6558 24.2033 25.8133ZM29.3436 25.9636C29.3436 26.1702 29.2777 26.3443 29.1457 26.4898C29.0122 26.6337 28.8431 26.7064 28.6381 26.7064C28.3303 26.7064 28.1107 26.5558 27.9787 26.2564C27.6828 26.6185 27.2784 26.7993 26.766 26.7993C26.1099 26.7993 25.572 26.5236 25.1557 25.9756C24.7768 25.475 24.586 24.8898 24.586 24.2201C24.586 23.5503 24.7768 22.9651 25.1557 22.4627C25.5787 21.9196 26.1148 21.6492 26.766 21.6492C27.2784 21.6492 27.6828 21.8302 27.9787 22.1922C28.1107 21.8925 28.3303 21.7423 28.6381 21.7423C28.8379 21.7423 29.0054 21.8149 29.1409 21.9587C29.2759 22.104 29.3436 22.2749 29.3436 22.4747V25.9636ZM27.9296 24.2201C27.9296 23.8953 27.8519 23.6212 27.6963 23.3996C27.5153 23.1477 27.2717 23.0225 26.9657 23.0225C26.6527 23.0225 26.4092 23.1477 26.2348 23.3996C26.0778 23.6212 26 23.8953 26 24.2201C26 24.543 26.0758 24.8204 26.2263 25.0487C26.4058 25.3006 26.6527 25.426 26.9657 25.426C27.2784 25.426 27.5219 25.3006 27.6963 25.0487C27.8519 24.8204 27.9296 24.543 27.9296 24.2201ZM32.9513 22.3814C32.9513 22.6842 32.8043 22.8922 32.5099 23.0054C32.2376 23.0969 31.9668 23.1901 31.6964 23.2862C31.4002 23.4555 31.2531 23.7701 31.2531 24.2268V25.9636C31.2531 26.1702 31.1854 26.3443 31.0537 26.4898C30.9199 26.6337 30.7507 26.7064 30.5462 26.7064C30.34 26.7064 30.1706 26.6337 30.0389 26.4898C29.905 26.3443 29.8392 26.1702 29.8392 25.9636V22.4747C29.8392 22.2697 29.905 22.0958 30.037 21.9553C30.1706 21.8132 30.34 21.7423 30.5447 21.7423C30.8827 21.7423 31.1177 21.8925 31.2498 22.1922C31.5527 21.8302 31.8774 21.6492 32.2275 21.6492C32.4269 21.6492 32.5978 21.7217 32.7399 21.8655C32.8802 22.011 32.9513 22.1835 32.9513 22.3814ZM36.6402 22.4458C36.6402 22.7603 36.5167 22.9582 36.2718 23.0429C36.1513 23.0851 35.8992 23.1071 35.5154 23.1071V25.9636C35.5154 26.1702 35.4477 26.3443 35.3161 26.4898C35.1821 26.6337 35.0131 26.7064 34.8084 26.7064C34.6091 26.7064 34.4396 26.6337 34.3042 26.4898C34.1692 26.3443 34.1015 26.1702 34.1015 25.9636V23.1071C33.8105 23.1071 33.5992 23.0698 33.4657 22.9973C33.2831 22.8958 33.1929 22.7113 33.1929 22.4458C33.1929 22.1803 33.2861 21.9993 33.4738 21.9028C33.6007 21.8317 33.8105 21.7947 34.1015 21.7947V21.1891C34.1015 20.4771 34.3364 20.122 34.8084 20.122C35.2787 20.122 35.5154 20.4771 35.5154 21.1891V21.7947C35.8992 21.7947 36.1513 21.8166 36.2718 21.8588C36.5167 21.9433 36.6402 22.1397 36.6402 22.4458ZM48 21.5869C47.9961 21.1527 47.1939 20.9557 45.1173 20.9557C40.2445 20.9557 39.0083 20.7476 37.6853 19.3555C38.2418 20.1913 38.5463 21.7591 43.6967 21.6811C49.0702 21.5983 45.7921 23.0667 44.8383 24.7256C46.5583 23.1903 47.9948 22.1784 48 21.5932V21.5869ZM41.1528 26.045C41.1528 26.451 40.8232 26.7807 40.417 26.7807C40.0093 26.7807 39.6797 26.451 39.6797 26.045C39.6797 25.6373 40.0093 25.3076 40.417 25.3076C40.8232 25.3076 41.1528 25.6373 41.1528 26.045ZM44.5084 26.045C44.5084 26.451 44.1788 26.7807 43.7726 26.7807C43.3653 26.7807 43.0354 26.451 43.0354 26.045C43.0354 25.6373 43.3653 25.3076 43.7726 25.3076C44.1788 25.3076 44.5084 25.6373 44.5084 26.045Z" fill="url(#paint0_linear_274_28926)"/>
<defs>
<linearGradient id="paint0_linear_274_28926" x1="2400" y1="757.518" x2="2400" y2="19.3555" gradientUnits="userSpaceOnUse">
<stop stop-color="#04B6F0"/>
<stop offset="1" stop-color="#3ECAF0"/>
</linearGradient>
</defs>
</svg>
