<svg width="46" height="46" viewBox="0 0 46 46" fill="none" xmlns="http://www.w3.org/2000/svg">
<rect x="0.5" y="0.5" width="45" height="45" rx="7.5" fill="#1C1C1E"/>
<rect x="0.5" y="0.5" width="45" height="45" rx="7.5" stroke="white"/>
<path d="M18.7087 16.25C17.4937 16.25 16.3387 16.25 15.5512 16.31C15.4537 16.31 15.2812 16.37 15.2812 16.46V29.6C15.2812 29.7125 15.3337 29.75 15.4312 29.75H17.2987C17.4112 29.75 17.4488 29.6975 17.4488 29.6V24.905H18.4012C21.1687 24.905 23.4187 23.57 23.4187 20.465C23.4187 18.11 22.0987 16.25 18.7087 16.25ZM18.4537 23C18.124 23.0188 17.7935 23.0188 17.4637 23V18.23C17.6812 18.23 18.1463 18.1925 18.6338 18.1925C20.2613 18.1925 21.2287 18.98 21.2287 20.5325C21.2287 22.475 19.8787 23 18.4537 23ZM30.7388 26.96C30.7388 28.9175 29.2388 29.96 27.2138 29.96C26.346 29.9919 25.4836 29.8117 24.7013 29.435C24.6188 29.3975 24.6037 29.3375 24.6037 29.24V27.425C24.6037 27.305 24.6637 27.2675 24.7537 27.3275C25.4848 27.8083 26.3388 28.0687 27.2138 28.0775C28.1888 28.0775 28.5938 27.6725 28.5938 27.1175C28.5938 26.5625 28.3087 26.285 27.0937 25.6175C25.3537 24.785 24.6263 23.9375 24.6263 22.5275C24.6263 20.945 25.8638 19.6325 28.0088 19.6325C28.757 19.5984 29.5044 19.7158 30.2063 19.9775C30.246 20.003 30.2781 20.0388 30.2992 20.081C30.3204 20.1232 30.3297 20.1704 30.3263 20.2175V21.8975C30.3263 22.0025 30.2662 22.0625 30.1462 22.025C29.4879 21.6556 28.7407 21.4741 27.9862 21.5C27.0187 21.5 26.6888 21.995 26.6888 22.4C26.6888 22.805 26.9137 23.15 28.1887 23.8175C30.1387 24.7325 30.7388 25.625 30.7388 26.9375V26.96Z" fill="white"/>
</svg>
