<svg width="48" height="48" viewBox="0 0 48 48" fill="none" xmlns="http://www.w3.org/2000/svg">
<path d="M24 45C35.598 45 45 35.598 45 24C45 12.402 35.598 3 24 3C12.402 3 3 12.402 3 24C3 35.598 12.402 45 24 45Z" fill="#8892BF"/>
<path d="M21.657 15H24.177L23.4648 18.7863H25.7292C26.971 18.8129 27.8961 19.0903 28.5049 19.6189C29.1258 20.1474 29.3085 21.1521 29.0529 22.6322L27.8293 29.2333H25.2727L26.4414 22.9294C26.563 22.2685 26.5266 21.7995 26.3319 21.522C26.1372 21.2445 25.7172 21.1058 25.0719 21.1058L23.0448 21.0859L21.5473 29.2333H19.0273L21.657 15Z" fill="white"/>
<path fill-rule="evenodd" clip-rule="evenodd" d="M10.1114 18.7871H15.0054C16.4418 18.8002 17.4828 19.2497 18.1281 20.135C18.7734 21.0205 18.9864 22.2296 18.7673 23.7628C18.6822 24.4634 18.4933 25.1504 18.2011 25.8245C17.9211 26.4985 17.5317 27.1063 17.0325 27.6482C16.4236 28.3354 15.7724 28.7714 15.0785 28.9567C14.3845 29.1418 13.6661 29.2342 12.9236 29.2342H10.7323L10.0383 33.0007H7.5L10.1114 18.7871ZM11.1523 26.9941L12.2443 21.0668H12.6132C12.7472 21.0668 12.8871 21.0601 13.0332 21.047C14.0073 21.0338 14.8166 21.133 15.462 21.3443C16.1193 21.5557 16.3384 22.3553 16.1193 23.743C15.8517 25.3951 15.3279 26.3597 14.5489 26.6372C13.7698 26.9017 12.7958 27.0271 11.6271 27.0139H11.3714C11.2984 27.0139 11.2253 27.0071 11.1523 26.9941Z" fill="white"/>
<path fill-rule="evenodd" clip-rule="evenodd" d="M36.6538 18.7871H31.7598L29.1484 33.0007H31.6867L32.3808 29.2342H34.5721C35.3146 29.2342 36.033 29.1418 36.7269 28.9567C37.4209 28.7714 38.0721 28.3354 38.6809 27.6482C39.1801 27.1063 39.5695 26.4985 39.8496 25.8245C40.1418 25.1504 40.3306 24.4634 40.4157 23.7628C40.6348 22.2296 40.422 21.0205 39.7765 20.135C39.1312 19.2497 38.0904 18.8002 36.6538 18.7871ZM33.8928 21.0668L32.8008 26.9941C32.8738 27.0071 32.9469 27.0139 33.0199 27.0139H33.2755C34.4443 27.0271 35.4183 26.9017 36.1974 26.6372C36.9763 26.3597 37.5001 25.3951 37.7679 23.743C37.987 22.3553 37.7679 21.5557 37.1104 21.3443C36.4651 21.133 35.6557 21.0338 34.6816 21.047C34.5355 21.0601 34.3957 21.0668 34.2616 21.0668H33.8928Z" fill="white"/>
</svg>
