<svg width="48" height="48" viewBox="0 0 48 48" fill="none" xmlns="http://www.w3.org/2000/svg">
<g clip-path="url(#clip0_274_28880)">
<path d="M15.5586 36.828C15.9418 36.6574 16.3301 36.5004 16.722 36.3533C17.1645 36.1869 17.6106 36.0306 18.0626 35.8944C18.6253 35.7249 19.1927 35.5716 19.7678 35.4495C20.5431 35.2849 21.3276 35.163 22.1179 35.0863C21.6746 36.48 21.1847 37.8658 20.6539 39.2428C20.6766 39.5094 20.6887 39.7777 20.6959 40.0468C21.765 39.8359 22.869 39.723 24 39.723C25.1308 39.723 26.235 39.8359 27.3041 40.0468C27.3112 39.7777 27.3234 39.5094 27.3461 39.2428C26.8151 37.8658 26.3254 36.48 25.8821 35.0863C26.6724 35.163 27.4569 35.2849 28.2323 35.4495C28.8071 35.5716 29.3745 35.7249 29.9372 35.8944C30.3894 36.0306 30.8355 36.1869 31.278 36.3533C31.6701 36.5006 32.0586 36.6576 32.4418 36.8282C35.1613 38.0393 37.6404 39.8355 39.6737 42.1665C44.7699 37.7657 48 31.2621 48 24C48 10.7452 37.2548 0 24 0C10.7452 0 0 10.7452 0 24C0 31.2621 3.23006 37.7655 8.32631 42.1665C10.3596 39.8355 12.8391 38.0391 15.5586 36.828Z" fill="#A5DBE8"/>
<path d="M32.4414 36.8281L33.9313 41.9512L34.3539 41.9711C34.6282 41.9711 34.8212 42.0432 34.8212 42.3176C34.8212 42.7736 34.8448 43.286 34.8885 43.7334C35.2597 44.0486 35.7118 44.4041 36.0545 44.7494C37.3421 43.9998 38.5524 43.1343 39.6733 42.1664C37.64 39.8354 35.1609 38.0392 32.4414 36.8281Z" fill="#525353"/>
<path d="M29.5293 36.7766L31.2787 36.3529C30.8362 36.1866 30.3901 36.0302 29.9379 35.8941C29.3752 35.7246 28.8078 35.5712 28.2329 35.4491C27.4576 35.2845 26.6731 35.1626 25.8828 35.0859C26.3261 36.4796 26.8158 37.8654 27.3468 39.2424C27.3241 39.5091 27.3119 39.7774 27.3048 40.0464C28.5444 40.2909 29.7631 40.7158 30.89 41.2142L29.5293 36.7766Z" fill="#525353"/>
<path d="M11.9453 44.7501C12.2239 44.9125 12.5054 45.0709 12.7915 45.2222C12.8916 44.7413 13.0517 44.0749 13.1001 43.5801C12.7289 43.8953 12.2881 44.4047 11.9453 44.7501Z" fill="black"/>
<path d="M30.861 41.17C29.7343 40.6716 28.5447 40.291 27.3051 40.0465C26.236 39.8355 25.1318 39.7227 24.001 39.7227C22.87 39.7227 21.766 39.8355 20.6968 40.0465C19.4575 40.2908 18.1643 40.6615 17.0378 41.1597L16.918 41.9061H31.0843L30.861 41.17Z" fill="black"/>
<path d="M13.0578 43.7218C13.1017 43.2744 13.1334 42.8756 13.1334 42.4194C13.1334 42.1452 13.3214 41.9696 13.5957 41.9696L14.0456 41.9538L15.5604 36.8281C12.8409 38.0392 10.3614 39.8356 8.32812 42.1666C9.449 43.1345 10.6593 44 11.9469 44.7496C12.2896 44.4043 12.6466 44.0729 13.0179 43.7577" fill="#525353"/>
<path d="M35.072 44.633C35.1692 45.1205 35.1911 45.2176 35.2087 45.2212C35.4948 45.0698 35.7761 44.9114 36.0549 44.749C35.7122 44.4037 35.3441 44.0613 34.9727 43.7461L35.072 44.633Z" fill="black"/>
<path d="M30.8588 41.1706L31.0821 41.9067H33.9797L32.4405 36.8285C32.0573 36.6578 31.6688 36.5009 31.2767 36.3535L29.5273 36.7773L30.8588 41.1706Z" fill="#AA9678"/>
<path d="M14.0703 42.9326C14.0855 42.922 14.1009 42.9113 14.1159 42.9004H14.0724C14.072 42.9111 14.0709 42.922 14.0703 42.9326Z" fill="#C4B6A1"/>
<path d="M33.9265 42.9004H33.8828C33.898 42.9113 33.9134 42.922 33.9284 42.9326C33.928 42.922 33.9269 42.9111 33.9265 42.9004Z" fill="#AA9678"/>
<path d="M33.8793 42.8262L23.9805 42.8374L24.0011 48.0004C27.6851 48.0004 31.1741 47.1681 34.2935 45.6846C34.0899 44.7899 34.0695 43.8261 34.0363 42.8882C34.0213 42.8774 33.8793 42.8262 33.8793 42.8262Z" fill="#AA9678"/>
<path d="M23.9835 42.8577C23.9835 42.8577 14.0301 42.8452 14.0149 42.8559C13.9819 43.7939 13.7884 44.9069 13.707 45.6836C16.8265 47.1671 20.3155 47.9994 23.9995 47.9994L24.0051 42.8744L23.9835 42.8577Z" fill="#C4B6A1"/>
<path d="M30.8729 38.4808C30.8005 38.3975 30.7259 38.3085 30.6484 38.207C30.7261 38.3085 30.8005 38.3975 30.8729 38.4808Z" fill="#525353"/>
<path d="M39.6959 23.8439C39.6967 23.8503 39.6986 23.8559 39.6993 23.8623C39.6999 23.8662 39.701 23.8698 39.7016 23.8735V23.875C39.713 23.9667 39.7173 24.0625 39.7194 24.1591C39.7197 24.1769 39.7227 24.1936 39.7227 24.2112C39.7227 24.2137 39.7229 24.2155 39.7229 24.2178C39.7229 24.2202 39.7227 24.2225 39.7227 24.2249C39.7226 24.244 39.7194 24.2619 39.7192 24.2808C39.7169 24.3755 39.7128 24.4694 39.7017 24.5594V24.5607C39.701 24.5654 39.6999 24.5697 39.6991 24.5744C39.6984 24.5817 39.6961 24.5883 39.6952 24.5954C39.6817 24.6937 39.6644 24.7889 39.6414 24.8795C39.6412 24.88 39.6412 24.8804 39.641 24.8808L39.6444 24.8772C39.6447 24.8757 39.6453 24.8744 39.6457 24.8729V24.8731L40.2738 24.2155L39.6406 23.5527C39.6406 23.5531 39.6406 23.5537 39.6408 23.554C39.6644 23.6465 39.6824 23.7436 39.6959 23.8439Z" fill="#676A6A"/>
<path d="M39.6965 24.5952C39.6982 24.5828 39.7013 24.5718 39.703 24.5592C39.7141 24.4692 39.7182 24.3752 39.7205 24.2806C39.7207 24.2592 39.724 24.2391 39.724 24.2176C39.724 24.1975 39.721 24.1788 39.7207 24.1589C39.7186 24.0623 39.7143 23.9665 39.7028 23.8748C39.7013 23.8639 39.6985 23.8544 39.6972 23.8437C39.6837 23.7434 39.6657 23.6463 39.6421 23.5538C39.6338 23.5216 39.6224 23.4929 39.6128 23.4618C39.556 23.2739 39.4786 23.1079 39.3867 22.9701C39.3743 22.9518 39.3618 22.9339 39.349 22.9167C39.3237 22.8827 39.2984 22.8498 39.2716 22.8201C39.2318 22.7772 39.1908 22.7376 39.1475 22.7048C39.131 22.6923 39.1135 22.6834 39.0967 22.6726C39.0592 22.6484 39.0209 22.6272 38.9813 22.6111C38.9645 22.6043 38.9474 22.5976 38.9302 22.5921C38.8743 22.5749 38.8171 22.5625 38.7582 22.5625C38.6993 22.5625 38.6423 22.5749 38.5863 22.5921C38.569 22.5976 38.552 22.6043 38.5351 22.6113C38.4955 22.6272 38.4573 22.6484 38.4196 22.6726C38.4031 22.6834 38.3855 22.6921 38.3692 22.7046C38.3258 22.7376 38.2846 22.7772 38.2448 22.8201C38.218 22.8498 38.1927 22.8828 38.1678 22.9163C38.1547 22.9339 38.1421 22.9518 38.1297 22.9703C38.0378 23.1081 37.9602 23.2741 37.9036 23.4619C37.9013 23.4694 37.8987 23.4767 37.8965 23.4844C37.8713 23.5707 37.8518 23.6614 37.8355 23.7546C37.8307 23.7831 37.8241 23.8105 37.8202 23.8398C37.8052 23.944 37.7975 24.0528 37.7956 24.1641C37.7954 24.1795 37.793 24.1941 37.793 24.2095H37.7967C37.7967 25.1237 38.2293 25.8647 38.7627 25.8647C38.8546 25.8647 38.9429 25.8407 39.0271 25.7997C39.0406 25.7929 39.0539 25.786 39.0672 25.7783C39.1021 25.7583 39.1364 25.7363 39.1692 25.7099C39.1874 25.6952 39.2045 25.6776 39.2219 25.6611C39.2645 25.6214 39.305 25.5764 39.3434 25.5263C39.37 25.4913 39.3963 25.4562 39.4207 25.417C39.4362 25.3921 39.4505 25.3651 39.4649 25.3384C39.4919 25.2886 39.5174 25.2366 39.5405 25.1815C39.5491 25.1616 39.5579 25.1423 39.5658 25.1219C39.5952 25.0452 39.6209 24.9642 39.6427 24.8793C39.6657 24.7887 39.683 24.6934 39.6965 24.5952ZM38.7929 23.9973C38.5928 23.9973 38.4307 23.7192 38.4307 23.3764C38.4307 23.0339 38.5928 22.7558 38.7929 22.7558C38.993 22.7558 39.155 23.0339 39.155 23.3764C39.155 23.7192 38.993 23.9973 38.7929 23.9973Z" fill="black"/>
<path d="M38.7919 22.7559C38.5919 22.7559 38.4297 23.0339 38.4297 23.3765C38.4297 23.7192 38.5919 23.9973 38.7919 23.9973C38.992 23.9973 39.154 23.7192 39.154 23.3765C39.154 23.0339 38.992 22.7559 38.7919 22.7559Z" fill="white"/>
<path d="M37.9025 23.4631C37.9592 23.2752 38.0368 23.1093 38.1287 22.9715C38.141 22.9527 38.1536 22.9353 38.1667 22.9175C38.1917 22.8839 38.217 22.8509 38.2438 22.8213C38.2835 22.778 38.3248 22.739 38.3681 22.7058C38.3844 22.6932 38.402 22.6846 38.4185 22.6737C38.456 22.6491 38.4945 22.6287 38.534 22.6124C38.5509 22.6055 38.568 22.5987 38.5852 22.5933C38.6411 22.5756 38.6983 22.5636 38.7572 22.5636C38.816 22.5636 38.8732 22.5756 38.9291 22.5933C38.9463 22.5987 38.9634 22.6055 38.9803 22.6122C39.0198 22.6287 39.0581 22.6491 39.0956 22.6737C39.1125 22.6846 39.1299 22.6934 39.1464 22.706C39.1895 22.739 39.2308 22.778 39.2705 22.8213C39.2973 22.8509 39.3227 22.8839 39.348 22.9178C39.3607 22.9353 39.3733 22.9527 39.3857 22.9713C39.4775 23.1091 39.555 23.275 39.6118 23.4629V23.4633L38.7572 19.5488L37.9025 23.4631Z" fill="#909393"/>
<path d="M27.4308 24.1818C27.4297 24.103 27.4246 24.0252 27.4158 23.9487C27.4156 23.9477 27.4152 23.9466 27.4152 23.9455C27.4062 23.8701 27.3937 23.7957 27.3775 23.7227C27.377 23.7209 27.3764 23.7192 27.376 23.7171C27.3599 23.6449 27.3402 23.5741 27.3173 23.5045C27.3168 23.503 27.316 23.5015 27.3155 23.4998C27.2924 23.4303 27.2662 23.3622 27.2363 23.2958C27.236 23.2945 27.235 23.2932 27.2345 23.2917C27.2047 23.2251 27.1717 23.1601 27.1357 23.0971C27.0258 22.9045 26.8887 22.7299 26.7293 22.5781C26.527 22.3855 26.2891 22.2297 26.0268 22.1217C26.0247 22.1209 26.0223 22.1202 26.0202 22.1193C25.8908 22.0666 25.7557 22.0253 25.6156 21.9972C25.612 21.9966 25.6087 21.9964 25.6051 21.9957C25.4647 21.9681 25.3199 21.9531 25.1714 21.9531C25.0253 21.9531 24.8834 21.9681 24.7452 21.9946C24.7403 21.9955 24.7355 21.9959 24.7306 21.9968C24.5932 22.0242 24.4606 22.0643 24.3333 22.1153C24.3301 22.1166 24.3265 22.1178 24.3232 22.1193C24.1942 22.1718 24.071 22.2357 23.9553 22.3101C23.9547 22.3105 23.9543 22.3107 23.954 22.3107C23.8372 22.3861 23.7275 22.4717 23.6266 22.5664L23.6242 22.5741L23.6157 22.576C23.4547 22.7292 23.3161 22.9058 23.2053 23.0999C23.2042 23.1021 23.2027 23.1044 23.2012 23.1068C23.1674 23.1662 23.1368 23.2281 23.1087 23.2911C23.1057 23.2979 23.102 23.3042 23.0992 23.311C23.0735 23.3693 23.0513 23.4297 23.0307 23.4904C23.0268 23.5024 23.0215 23.5137 23.0178 23.5255C22.9998 23.5823 22.9852 23.6406 22.9713 23.6989C22.9677 23.7158 22.9623 23.7319 22.9587 23.7486C22.9467 23.8064 22.9385 23.8654 22.9308 23.9247C22.9285 23.9429 22.9246 23.9603 22.9227 23.9785C22.9147 24.0559 22.9102 24.1345 22.9102 24.2144C22.9102 24.364 22.9255 24.5099 22.9535 24.6512C22.9538 24.6541 22.954 24.6573 22.9548 24.6603C22.9831 24.8014 23.0247 24.9376 23.0782 25.0679C23.0789 25.0697 23.0793 25.0716 23.0802 25.0733C23.189 25.3369 23.3463 25.5756 23.5407 25.7783C23.6945 25.9386 23.8715 26.0761 24.0661 26.1859C24.067 26.1865 24.068 26.1871 24.0689 26.1876C24.1297 26.2217 24.1925 26.2525 24.2564 26.281C24.2617 26.2833 24.2667 26.2862 24.2722 26.2885C24.3314 26.3144 24.3927 26.3367 24.4544 26.3575C24.4649 26.3611 24.475 26.3656 24.4855 26.3689C24.5425 26.3871 24.6014 26.4018 24.6603 26.4153C24.6762 26.419 24.6916 26.4242 24.7077 26.4276C24.7649 26.4394 24.8238 26.4475 24.883 26.4552C24.9008 26.4573 24.9185 26.4614 24.9367 26.4633C25.0137 26.4713 25.0921 26.4756 25.1714 26.4756C25.4836 26.4756 25.781 26.4123 26.0515 26.2977C26.1867 26.2407 26.3153 26.1707 26.4355 26.0894C26.6763 25.9268 26.8838 25.7191 27.0464 25.4787C27.1276 25.3583 27.1977 25.2299 27.2549 25.0945C27.3693 24.8239 27.4327 24.5266 27.4327 24.2144C27.4327 24.2089 27.4319 24.2039 27.4319 24.1988C27.4317 24.193 27.431 24.1876 27.4308 24.1818ZM25.1714 23.9168C24.7023 23.9168 24.322 23.5364 24.322 23.0673C24.322 22.5981 24.7023 22.2179 25.1714 22.2179C25.6405 22.2179 26.0208 22.5981 26.0208 23.0673C26.0208 23.5364 25.6405 23.9168 25.1714 23.9168Z" fill="black"/>
<path d="M25.1736 22.2168C24.7045 22.2168 24.3242 22.597 24.3242 23.0662C24.3242 23.5353 24.7045 23.9157 25.1736 23.9157C25.6427 23.9157 26.023 23.5353 26.023 23.0662C26.023 22.597 25.6427 22.2168 25.1736 22.2168Z" fill="white"/>
<path d="M23.6146 22.5757L23.6231 22.5738L23.6255 22.5661L25.1829 17.8033V16.6886C25.1829 16.6803 25.1827 16.676 25.1827 16.676C24.3153 16.4981 23.4236 16.4004 22.5108 16.4004C22.2061 16.4004 21.9039 16.4133 21.6035 16.4338C21.5598 16.4368 21.5159 16.4394 21.4721 16.4428C19.9089 16.5615 18.3695 16.9689 16.9441 17.6195C15.7218 18.1777 14.5861 18.9129 13.5652 19.7846C13.5648 19.7851 13.5641 19.7857 13.5635 19.7863C13.2894 20.0191 13.0267 20.265 12.7702 20.517C12.7222 20.5638 12.6734 20.6103 12.626 20.658C12.3845 20.9013 12.1511 21.1528 11.9253 21.4115C11.8764 21.468 11.8282 21.5255 11.7798 21.5825C11.5531 21.8501 11.3326 22.1227 11.1232 22.4043C11.1058 22.428 11.0894 22.4527 11.0722 22.4763C10.8725 22.748 10.6824 23.0268 10.4992 23.3103C10.4634 23.3656 10.4266 23.4202 10.3916 23.4761C10.2434 23.711 10.1056 23.9523 9.96875 24.1942H17.0632L23.6146 22.5757Z" fill="#BBBCBD"/>
<path d="M29.6047 22.0396C29.6191 21.8538 29.6309 21.6682 29.6405 21.4822C29.6534 21.2305 29.6622 20.9785 29.6671 20.7267C29.6708 20.5312 29.6703 20.3354 29.6693 20.1398C29.6693 20.0834 29.6707 20.027 29.6701 19.9703C29.6648 19.4663 29.6452 18.9618 29.6144 18.4567C29.6129 18.4557 29.6116 18.4548 29.6101 18.4538C29.6095 18.4525 29.6088 18.4514 29.6082 18.4503C29.6063 18.449 29.599 18.4448 29.5923 18.4411C29.5863 18.4375 29.581 18.4345 29.5698 18.4282C29.4772 18.3749 29.2495 18.2446 29.0452 18.1285C29.0407 18.1261 29.0363 18.1235 29.032 18.121C28.9803 18.0918 28.9304 18.0635 28.8852 18.038C28.8843 18.0374 28.8833 18.037 28.8826 18.0365C28.8436 18.0145 28.811 17.9963 28.7808 17.9795C28.7748 17.9761 28.7663 17.9714 28.7607 17.9682C28.7275 17.9498 28.7018 17.936 28.6867 17.9279C28.3606 17.7588 28.0278 17.6022 27.6893 17.4593C26.8825 17.1187 25.7958 16.82 25.1836 16.6758V17.803L26.7273 22.5736L26.729 22.5775C26.8883 22.7294 27.0254 22.904 27.1353 23.0963C27.1713 23.1593 27.2043 23.2246 27.2341 23.2912C27.2348 23.2927 27.2356 23.294 27.236 23.2953C27.2658 23.3617 27.292 23.4297 27.3151 23.4993C27.3157 23.501 27.3164 23.5025 27.317 23.504C27.3398 23.5735 27.3595 23.6444 27.3757 23.7166C27.376 23.7187 27.3766 23.7203 27.3772 23.7222C27.3933 23.7952 27.4058 23.8696 27.4148 23.945C27.4148 23.9461 27.4152 23.9472 27.4154 23.9482C27.4242 24.0247 27.4293 24.1025 27.4304 24.1812L27.4362 24.194H29.3264C29.4541 23.5023 29.5432 22.8014 29.5996 22.0975C29.6009 22.0782 29.6032 22.0589 29.6047 22.0396Z" fill="#E3DDDB"/>
<path d="M32.0776 20.3535C32.0763 20.3556 32.0753 20.358 32.0742 20.3601C32.0753 20.358 32.0765 20.3556 32.0776 20.3535Z" fill="#FCB03F"/>
<path d="M23.625 22.5656C23.7259 22.4709 23.8356 22.3852 23.9524 22.3099C23.9527 22.3099 23.9531 22.3097 23.9537 22.3093C24.0694 22.2349 24.1926 22.1709 24.3216 22.1184C24.3249 22.1169 24.3285 22.116 24.3317 22.1145C24.459 22.0635 24.5916 22.0234 24.729 21.996C24.7339 21.995 24.7386 21.9947 24.7436 21.9937C24.8818 21.9673 25.0237 21.9523 25.1698 21.9523C25.3183 21.9523 25.4631 21.9673 25.6035 21.9949C25.6071 21.9956 25.6104 21.9958 25.614 21.9964C25.7541 22.0245 25.8892 22.0657 26.0186 22.1184C26.0207 22.1194 26.0229 22.1201 26.0252 22.1209C26.2875 22.2289 26.5254 22.3847 26.7277 22.5772L26.7261 22.5733L25.1824 17.8027L23.625 22.5656Z" fill="#909393"/>
<path d="M23.0772 25.068C23.0238 24.9377 22.9822 24.8016 22.9538 24.6604C22.9531 24.6574 22.9529 24.6542 22.9525 24.6514C22.9246 24.51 22.9092 24.3642 22.9092 24.2145C22.9092 24.1347 22.9137 24.0561 22.9218 23.9787C22.9237 23.9605 22.9276 23.943 22.9298 23.9249C22.9375 23.8656 22.9458 23.8065 22.9578 23.7488C22.9613 23.7321 22.9668 23.716 22.9703 23.6991C22.9842 23.6408 22.9988 23.5825 23.0168 23.5257C23.0208 23.5139 23.0257 23.5026 23.0298 23.4906C23.0504 23.4299 23.0725 23.3695 23.0982 23.3112C23.101 23.3044 23.1048 23.298 23.1078 23.2913C23.1359 23.2283 23.1665 23.1664 23.2002 23.107C23.2017 23.1045 23.2032 23.1023 23.2043 23.1C23.3152 22.906 23.4537 22.7294 23.6148 22.5762L17.0633 24.1947H17.0508L23.5398 25.7785C23.3453 25.5758 23.188 25.3371 23.0793 25.0735C23.0783 25.0718 23.078 25.0699 23.0772 25.068Z" fill="#676A6A"/>
<path d="M37.8179 23.8401C37.822 23.8108 37.8282 23.7835 37.8333 23.755C37.8496 23.6618 37.8691 23.571 37.8942 23.4848C37.897 23.475 37.8981 23.464 37.9011 23.4544L38.7559 19.5401L38.7557 17.3083C38.0573 16.7314 37.3094 16.416 36.5307 16.416C35.5467 16.416 34.6292 16.9594 33.9432 17.6305C33.1924 18.3649 32.6123 19.2889 32.1432 20.2213C32.1216 20.2643 32.0995 20.3055 32.0781 20.3486C32.2227 20.4739 32.3658 20.6008 32.5069 20.73C32.8264 21.0223 33.139 21.3223 33.4474 21.6265C33.5911 21.7682 33.7321 21.913 33.8734 22.0571C34.0234 22.21 34.1736 22.3624 34.3214 22.5176C34.5113 22.7173 34.6996 22.9187 34.8859 23.1221C34.9645 23.2076 35.0429 23.2935 35.1205 23.3798C35.3453 23.6286 35.569 23.8785 35.7889 24.1318L35.7893 24.1322C35.8262 24.1708 35.8521 24.1986 35.8621 24.2098H37.7899C37.7899 24.1943 37.7931 24.18 37.7933 24.1645C37.7952 24.0531 37.8029 23.9443 37.8179 23.8401Z" fill="#E3DDDB"/>
<path d="M32.0797 20.3593C32.0789 20.3573 32.0782 20.3552 32.0776 20.3535C32.0765 20.3556 32.0753 20.3578 32.0742 20.3599C32.0753 20.361 32.081 20.3666 32.0827 20.3681C32.0817 20.3651 32.0808 20.3623 32.0797 20.3593Z" fill="#E3DDDB"/>
<path d="M8.80872 26.6583C8.81434 26.6439 8.82034 26.6297 8.82597 26.6152C8.95009 26.2907 9.08603 25.9704 9.22872 25.6532C9.26866 25.5648 9.30972 25.4773 9.35097 25.3895C9.46797 25.1405 9.59172 24.8949 9.71997 24.6515C9.77209 24.5525 9.82309 24.4532 9.87709 24.3551C9.90691 24.3009 9.94066 24.2492 9.97103 24.1952C10.1079 23.9533 10.2457 23.712 10.3938 23.477C10.4289 23.421 10.4657 23.3666 10.5015 23.3113C10.6847 23.0278 10.8748 22.749 11.0745 22.4773C11.0917 22.4537 11.108 22.4289 11.1255 22.4053C11.3349 22.1237 11.5554 21.851 11.7821 21.5835C11.8305 21.5265 11.8785 21.4691 11.9276 21.4125C12.1533 21.1537 12.3868 20.9023 12.6283 20.6589C12.6759 20.6113 12.7245 20.5648 12.7725 20.5179C13.029 20.2659 13.2917 20.0201 13.5658 19.7872C13.5663 19.7867 13.5671 19.7861 13.5675 19.7855C14.6458 16.1735 18.1277 13.9539 22.0316 13.9539C23.6028 13.9539 25.1655 14.4067 26.5046 15.2259C27.8782 16.0661 28.8148 16.887 29.5419 18.3219C29.5455 18.3292 29.5492 18.3363 29.5528 18.3435C29.5712 18.3798 29.5918 18.4147 29.6098 18.4515C29.6103 18.4526 29.6111 18.4537 29.6117 18.455C29.6132 18.456 29.6145 18.4569 29.616 18.4578C30.2242 18.8325 30.8045 19.2572 31.3562 19.7225C31.5401 19.8778 31.7208 20.0373 31.8984 20.2014C31.9569 20.255 32.0171 20.306 32.0748 20.3606C32.076 20.3583 32.0769 20.3561 32.0782 20.354C32.0788 20.3525 32.0795 20.3508 32.0803 20.3495C32.1002 20.3088 32.1197 20.2674 32.1397 20.2273C32.6898 16.7553 34.4377 14.8622 36.2441 14.8622C37.6057 14.8622 38.5955 15.674 39.3431 17.8595L39.3508 17.883C39.3513 17.8837 39.3521 17.8847 39.3527 17.8856C39.5638 18.1149 39.7695 18.3677 39.969 18.6446L39.9686 18.6444C39.9725 18.6497 39.9767 18.6545 39.9806 18.66C39.9913 18.6917 40.0005 18.7243 40.0108 18.756L39.9827 18.642C37.7355 11.9891 31.443 7.19922 24.0315 7.19922C14.7352 7.19922 7.19922 14.7352 7.19922 24.0315C7.19922 25.8641 7.49209 27.6285 8.03584 29.2702C8.03641 29.2672 8.03734 29.264 8.03809 29.2607C8.14497 28.7655 8.27303 28.2733 8.42209 27.7863C8.53834 27.4068 8.66753 27.0303 8.80872 26.6583Z" fill="#525353"/>
<path d="M40.2349 24.2166L39.6478 24.8735V24.8733C39.6474 24.8748 39.6469 24.8761 39.6465 24.8776C39.6242 24.964 39.5968 25.0446 39.5666 25.1225C39.5588 25.1429 39.5499 25.1622 39.5413 25.1821C39.5181 25.2372 39.4929 25.2893 39.4658 25.339C39.4513 25.3656 39.4371 25.3926 39.4215 25.4176C39.3971 25.4566 39.3709 25.492 39.3442 25.5269C39.3058 25.577 39.2653 25.622 39.2228 25.6617C39.2053 25.678 39.1884 25.6958 39.1701 25.7105C39.1372 25.7369 39.1029 25.7588 39.0681 25.7789C39.0546 25.7864 39.0414 25.7935 39.0279 25.8003C38.9438 25.8413 38.8554 25.8653 38.7636 25.8653C38.2301 25.8653 37.7976 25.1243 37.7976 24.2101H35.8594C35.8599 24.2106 35.8601 24.2112 35.8605 24.2116C36.2205 24.6271 36.5741 25.0482 36.9231 25.4735C36.9272 25.4787 36.9313 25.4838 36.9356 25.4888C37.2748 25.9028 37.6089 26.3206 37.9395 26.7411C37.9558 26.7618 37.9719 26.7822 37.9883 26.8028C38.3018 27.2026 38.6117 27.605 38.919 28.0085C38.9488 28.0473 38.9788 28.0863 39.0086 28.1255C39.3336 28.553 39.6555 28.9816 39.9752 29.4108C39.9774 29.414 39.9795 29.4168 39.9819 29.4198C40.5356 27.7814 40.8454 26.0311 40.8647 24.2101L40.3198 24.1895L40.2349 24.2166Z" fill="white"/>
<path d="M21.4733 16.4427C21.5172 16.4393 21.561 16.4367 21.6047 16.4337C21.9051 16.4132 22.2073 16.4003 22.512 16.4003C23.4248 16.4003 24.3165 16.498 25.1839 16.6759C25.7961 16.8201 26.883 17.1188 27.6898 17.4595C28.0283 17.6023 28.3611 17.7589 28.6872 17.928C28.7023 17.9361 28.728 17.9502 28.7612 17.9683C28.7668 17.9715 28.7753 17.9762 28.7813 17.9796C28.8115 17.9965 28.8445 18.0147 28.8831 18.0366C28.8838 18.0372 28.8848 18.0375 28.8857 18.0381C28.9311 18.0638 28.9806 18.0919 29.0325 18.1212C29.0368 18.1236 29.0412 18.1262 29.0457 18.1287C29.253 18.2462 29.4825 18.378 29.5703 18.4283C29.5815 18.4347 29.5868 18.4377 29.5928 18.4412C29.5973 18.4438 29.607 18.4493 29.6087 18.4504C29.5907 18.4137 29.5701 18.3788 29.5517 18.3424C29.5482 18.3353 29.5444 18.3282 29.5408 18.3208C28.8137 16.8859 27.6943 15.6552 26.3207 14.815C24.9816 13.9958 23.419 13.543 21.8475 13.543C17.9438 13.543 14.6447 16.1725 13.5664 19.7845C14.5873 18.9128 15.723 18.1776 16.9453 17.6194C18.3707 16.9688 19.9101 16.5613 21.4733 16.4427Z" fill="black"/>
<path d="M39.9801 18.6583C39.9762 18.6528 39.9721 18.648 39.9681 18.6427L39.9685 18.6429C39.769 18.366 39.5633 18.1132 39.3522 17.8839C39.3505 17.8818 39.3486 17.8794 39.3468 17.8773C39.2508 17.7735 39.1542 17.6743 39.0559 17.5801C39.019 17.5447 38.9808 17.5138 38.9434 17.4798C38.8818 17.4238 38.8204 17.3658 38.7578 17.3145V19.5474L39.6126 23.462C39.622 23.4924 39.6333 23.5207 39.6415 23.5522L40.2336 24.2158L40.2394 24.2092H40.8591C40.8599 24.1518 40.8634 24.0952 40.8634 24.0376V24.0367C40.8633 22.1904 40.5599 20.4163 40.0103 18.7541C40 18.7224 39.9908 18.69 39.9801 18.6583Z" fill="#BBBCBD"/>
<path d="M33.9464 17.6313C34.6325 16.9603 35.5499 16.4169 36.5339 16.4169C37.3126 16.4169 38.0606 16.7323 38.759 17.3092C38.759 17.3092 38.7592 17.3143 38.7592 17.316C38.8218 17.3673 38.8831 17.4253 38.9448 17.4813C38.9821 17.5153 39.0204 17.5462 39.0573 17.5817C39.1556 17.6758 39.2521 17.775 39.3481 17.8788C39.35 17.8809 39.3519 17.8833 39.3536 17.8854C39.3532 17.8847 39.3524 17.8837 39.3519 17.8832L39.3517 17.883L39.344 17.8593C38.5964 15.6738 37.3903 14.2539 36.029 14.2539C34.2224 14.2539 32.6908 16.7552 32.1406 20.2271L32.1464 20.2222C32.6156 19.2898 33.1957 18.3658 33.9464 17.6313Z" fill="black"/>
<path d="M31.5034 38.9685C31.5034 38.9685 31.2602 38.7758 30.9514 38.4205C30.879 38.3372 30.8044 38.2482 30.7268 38.1467C30.6685 38.0708 30.6094 37.9896 30.5503 37.9035C30.511 37.8462 30.472 37.7865 30.4332 37.725C30.3163 37.5403 30.2232 37.3155 30.1204 37.0933C30.0015 36.8361 30.0012 36.6649 29.9329 36.4253C29.8842 36.2539 29.8437 36.0748 29.8135 35.8885C29.7683 35.6091 29.7467 35.3132 29.7567 35.002C29.7619 34.8308 29.7795 34.6536 29.8052 34.4732C29.83 34.2998 29.8641 34.1222 29.9097 33.9409C30.0458 33.3966 30.2811 32.8168 30.6482 32.2048C30.6492 32.2032 30.7407 31.9969 30.7416 31.9952C30.8616 31.7953 30.8882 31.8042 31.0022 31.6116C32.608 28.9017 33.4742 26.8525 33.0505 23.6972C33.0201 23.472 32.9374 22.9675 32.8922 22.7305C32.8682 22.8943 32.7777 23.4165 32.775 23.4278C32.7591 23.4998 32.7154 23.578 32.6989 23.6269C32.0014 25.6913 30.9034 27.2098 29.3235 28.9245C29.1094 29.1568 28.8852 29.3925 28.6557 29.6305C28.2694 30.0308 27.8644 30.4397 27.436 30.8661C27.265 31.0362 27.0906 31.2087 26.9132 31.3845C26.7503 31.5458 26.5476 31.8906 26.3057 32.1447C26.1565 32.5626 25.9868 33.034 25.8433 33.5297C25.7787 33.5052 25.717 33.4832 25.6512 33.4577C22.5822 32.2707 20.5273 30.6846 20.5273 30.6846C20.5273 30.6846 22.1083 32.7432 24.772 34.6755C25.0298 34.8627 25.284 35.0247 25.533 35.1683C25.4232 36.9075 26.1904 38.5772 29.6537 39.0752C30.2393 39.1594 30.8389 39.1555 31.4428 39.0874C31.4368 39.0694 31.4766 39.0698 31.4734 39.0598C31.47 39.0497 31.5057 39.0231 31.5057 39.0231" fill="black"/>
<path d="M29.651 34.4929C32.7256 34.989 37.276 34.9076 41.9999 32.6959C42.1137 32.6426 42.2392 32.7829 42.353 32.727C42.353 32.727 39.1244 36.0246 35.2687 37.8889C35.156 37.9433 35.0448 38.0012 34.931 38.053C34.5584 38.2232 34.1795 38.3715 33.799 38.5084C33.053 38.7765 32.297 38.98 31.5464 39.0739C31.5119 39.0784 31.4774 39.085 31.4429 39.0887C31.4369 39.0707 31.432 39.0561 31.4289 39.0461C31.4255 39.036 31.4238 39.0306 31.4238 39.0306C31.4238 39.0306 31.1804 38.8376 30.8716 38.4823C30.7992 38.3991 30.7246 38.31 30.6472 38.2086C30.5888 38.1326 30.5298 38.0515 30.4707 37.9654C30.4314 37.908 30.3922 37.8484 30.3533 37.7869C30.2367 37.6022 30.1233 37.398 30.0205 37.176C29.918 36.954 29.8261 36.7138 29.753 36.4566C29.704 36.2852 29.6635 36.1061 29.6333 35.9198C29.5882 35.6402 29.5668 35.3445 29.5765 35.0333C29.5818 34.8619 29.5994 34.6849 29.6251 34.5045L29.651 34.4929Z" fill="#9F2254"/>
<path d="M27.4462 30.992C27.8748 30.5656 28.2798 30.1567 28.6661 29.7563C28.8954 29.5184 29.1198 29.2827 29.3339 29.0504C30.9136 27.3357 32.0733 25.7311 32.771 23.6667C32.7873 23.6178 32.8038 23.5533 32.8197 23.4807C32.8224 23.4695 32.8248 23.4588 32.8273 23.4472C32.8436 23.3701 32.8595 23.2844 32.8754 23.1878C32.8818 23.1213 33.0905 22.987 33.0963 22.9246C32.9214 22.0257 32.5182 21.0807 32.0782 20.3592C32.0793 20.3622 32.0802 20.365 32.0812 20.368C32.0795 20.3665 32.0739 20.3609 32.0728 20.3598C32.015 20.3052 31.9548 20.2542 31.8963 20.2006C31.7187 20.0365 31.538 19.877 31.3541 19.7217C30.8022 19.2563 30.2221 18.8317 29.6139 18.457C29.6446 18.9622 29.6643 19.4667 29.6696 19.9707C29.6703 20.0273 29.6688 20.0838 29.6688 20.1402C29.6698 20.3358 29.6703 20.5315 29.6666 20.7271C29.6617 20.9789 29.6529 21.2309 29.6399 21.4825C29.6304 21.6685 29.6186 21.8542 29.6041 22.04C29.6026 22.0593 29.6004 22.0786 29.5991 22.0979C29.5426 22.8018 29.4536 23.5027 29.3259 24.1943L29.1039 25.2442C28.6402 27.124 27.6984 28.8292 26.924 30.5898C26.7187 31.0567 26.5239 31.5288 26.3531 32.0097C26.3375 32.0538 26.3208 32.1001 26.3047 32.1455C26.5466 31.8914 26.7607 31.6717 26.9234 31.5104C27.101 31.3347 27.2754 31.162 27.4462 30.992Z" fill="#FCB03F"/>
<path d="M17.2878 41.1021C18.4145 40.6037 19.4572 40.2907 20.6965 40.0464C20.6894 39.7774 20.6772 39.5091 20.6545 39.2424C21.1853 37.8654 21.6753 36.4796 22.1185 35.0859C21.3282 35.1626 20.5437 35.2845 19.7684 35.4491C19.1933 35.5712 18.626 35.7246 18.0633 35.8941C17.6112 36.0302 17.1652 36.1866 16.7227 36.3529L18.4722 36.7766L17.0645 41.1953L17.2878 41.1021Z" fill="#525353"/>
<path d="M38.9171 28.0074C38.6098 27.6039 38.2999 27.2015 37.9864 26.8018C37.9702 26.7812 37.9537 26.7607 37.9376 26.7401C37.6071 26.3195 37.2729 25.9018 36.9337 25.4878C36.9294 25.4827 36.9253 25.4777 36.9212 25.4724C36.5722 25.0472 36.2186 24.626 35.8586 24.2105C35.8359 24.1841 35.8132 24.1573 35.7902 24.131C35.5702 23.8777 35.3466 23.6278 35.1217 23.379C35.0439 23.2929 34.9657 23.2068 34.8872 23.1213C34.7008 22.9179 34.5126 22.7165 34.3226 22.5168C34.1747 22.3618 34.0249 22.209 33.8747 22.0563C33.7333 21.9122 33.5923 21.7674 33.4487 21.6257C33.1401 21.3217 32.8277 21.0215 32.5082 20.7292C32.3668 20.6 32.2237 20.4729 32.0792 20.3477C32.0784 20.349 32.0777 20.3507 32.0771 20.3522C32.3812 21.2263 32.7283 22.1113 32.9021 23.0229C32.9473 23.2601 32.9846 23.4907 33.015 23.7161C33.4387 26.8712 32.4277 28.9312 30.8222 31.6412C30.7069 31.8354 30.5889 32.033 30.468 32.2344C30.1009 32.8468 29.8657 33.4263 29.7294 33.9707C29.6841 34.152 29.6497 34.3295 29.625 34.503C32.7737 35.0111 37.5084 35.1058 42.3529 32.7255C42.3529 32.7255 41.4028 31.3292 39.9733 29.4097C39.6536 28.9805 39.3317 28.5519 39.0067 28.1244C38.9771 28.0852 38.9469 28.0462 38.9171 28.0074Z" fill="#DF0067"/>
<path d="M16.8978 41.9856L18.4728 36.7773L16.7232 36.3535C16.3314 36.5007 15.9431 36.6576 15.5598 36.8283L14 41.9856L15.7413 42.0128L16.8978 41.9856Z" fill="#AA9678"/>
<path d="M18.0056 39.7311C18.1594 39.7902 18.3157 39.8434 18.4717 39.898C20.2127 40.5083 22.0828 40.8443 24.0326 40.8443C26.2558 40.8443 28.3762 40.4089 30.3191 39.6259C30.4219 39.5847 30.5226 39.5393 30.6242 39.496C30.7892 39.4257 30.9531 39.3535 31.1152 39.2783C31.2604 39.2108 31.4055 39.1439 31.5484 39.0724C31.5139 39.0769 31.4794 39.0835 31.4449 39.0872C30.8409 39.1553 30.2413 39.1592 29.6558 39.075C26.1924 38.577 25.4252 36.9074 25.5351 35.1681C25.2861 35.0245 25.0318 34.8625 24.774 34.6754C22.1104 32.743 20.5294 30.6844 20.5294 30.6844C20.5294 30.6844 22.5842 32.2705 25.6532 33.4575C25.719 33.483 25.7807 33.505 25.8454 33.5295C25.9888 33.0338 26.1585 32.5624 26.3077 32.1445C26.3239 32.0991 26.3406 32.0528 26.3561 32.0087C26.5269 31.5278 26.7217 31.0557 26.9271 30.5888C27.7014 28.8282 28.6432 27.123 29.1069 25.2432L29.3289 24.1934H27.4348L27.4346 24.1935C27.4346 24.1947 27.4348 24.196 27.4348 24.1973L27.4341 24.1977C27.4341 24.2027 27.4348 24.2078 27.4348 24.2132C27.4348 24.5254 27.3714 24.8228 27.2571 25.0934C27.1999 25.2287 27.1297 25.3572 27.0486 25.4775C26.886 25.7179 26.6784 25.9257 26.4377 26.0882C26.3175 26.1696 26.1889 26.2395 26.0537 26.2965C25.7831 26.4111 25.4857 26.4745 25.1736 26.4745C25.0942 26.4745 25.0159 26.4702 24.9388 26.4621C24.9206 26.4602 24.9032 26.4563 24.8852 26.454C24.8259 26.4464 24.7671 26.4383 24.7099 26.4265C24.6937 26.4229 24.6784 26.4179 24.6624 26.4141C24.6036 26.4006 24.5447 26.386 24.4877 26.3678C24.4772 26.3642 24.4671 26.3599 24.4566 26.3564C24.3949 26.3355 24.3336 26.3132 24.2743 26.2874C24.2689 26.2851 24.2638 26.2823 24.2586 26.2799C24.1946 26.2514 24.1318 26.2206 24.0711 26.1865L24.0682 26.1848C23.8736 26.0749 23.6966 25.9375 23.5429 25.7772L17.0539 24.1934H9.972C9.94162 24.2474 9.90787 24.2991 9.87806 24.3533C9.82406 24.4514 9.77306 24.5509 9.72094 24.6497C9.59269 24.8931 9.46894 25.1387 9.35194 25.3877C9.31069 25.4753 9.26962 25.563 9.22969 25.6514C9.087 25.9686 8.95106 26.2889 8.82694 26.6134C8.82131 26.6279 8.81531 26.6421 8.80969 26.6565C8.6685 27.0285 8.53931 27.405 8.42306 27.7845C8.274 28.2715 8.14594 28.7637 8.03906 29.2589C9.15394 32.6594 11.3231 35.5814 14.1587 37.6409C14.2412 37.7007 14.3282 37.7539 14.4118 37.8124C14.8914 38.1477 15.387 38.4614 15.9011 38.746C16.5761 39.12 17.2777 39.4517 18.0056 39.7311Z" fill="white"/>
<path d="M34.9855 43.7574C34.942 43.3101 34.915 42.8589 34.915 42.4029C34.915 42.1288 34.6928 41.9062 34.4185 41.9062H13.585C13.3107 41.9062 13.0883 42.1288 13.0883 42.4029C13.0883 42.8589 13.0615 43.3101 13.0178 43.7574C12.9694 44.2522 12.8931 44.7405 12.793 45.2214C13.095 45.3812 13.3995 45.5366 13.7093 45.684C13.9129 44.7892 14.0385 43.8699 14.0715 42.9319C14.0721 42.9212 14.0732 42.9103 14.0736 42.8996H33.9298C33.9302 42.9103 33.9313 42.9212 33.9317 42.9319C33.9649 43.8699 34.0905 44.7892 34.2942 45.684C34.6039 45.5366 34.9084 45.3812 35.2105 45.2214C35.1103 44.7405 35.034 44.2522 34.9855 43.7574Z" fill="#8B7460"/>
</g>
<defs>
<clipPath id="clip0_274_28880">
<rect width="48" height="48" fill="white"/>
</clipPath>
</defs>
</svg>
