<svg width="48" height="48" viewBox="0 0 48 48" fill="none" xmlns="http://www.w3.org/2000/svg">
<path fill-rule="evenodd" clip-rule="evenodd" d="M19.5246 3C16.2289 3 13.5574 5.5868 13.5574 8.77778V12.7778H23.8852V13.8889H8.96721C5.6716 13.8889 3 16.4757 3 19.6667V28.3334C3 31.5243 5.6716 34.1111 8.96721 34.1111H12.4098V29.2223C12.4098 26.0313 15.0814 23.4444 18.3771 23.4444H29.3934C32.182 23.4444 34.4425 21.2556 34.4425 18.5556V8.77778C34.4425 5.5868 31.771 3 28.4754 3H19.5246ZM18.1476 10.1111C19.2883 10.1111 20.2131 9.21567 20.2131 8.11112C20.2131 7.00655 19.2883 6.11111 18.1476 6.11111C17.0067 6.11111 16.0819 7.00655 16.0819 8.11112C16.0819 9.21567 17.0067 10.1111 18.1476 10.1111Z" fill="url(#paint0_linear_274_28573)"/>
<path fill-rule="evenodd" clip-rule="evenodd" d="M28.4766 44.9997C31.7722 44.9997 34.4439 42.413 34.4439 39.222V35.222H24.1159V34.111H39.034C42.3297 34.111 45.0012 31.5241 45.0012 28.3331V19.6664C45.0012 16.4755 42.3297 13.8887 39.034 13.8887H35.5914V18.7775C35.5914 21.9686 32.9197 24.5553 29.6242 24.5553H18.6078C15.8191 24.5553 13.5586 26.7442 13.5586 29.4442V39.222C13.5586 42.413 16.2303 44.9997 19.5258 44.9997H28.4766ZM29.8537 37.8887C28.7128 37.8887 27.7881 38.7841 27.7881 39.8887C27.7881 40.9933 28.7128 41.8886 29.8537 41.8886C30.9945 41.8886 31.9192 40.9933 31.9192 39.8887C31.9192 38.7841 30.9945 37.8887 29.8537 37.8887Z" fill="url(#paint1_linear_274_28573)"/>
<defs>
<linearGradient id="paint0_linear_274_28573" x1="18.7213" y1="3" x2="18.7213" y2="34.1111" gradientUnits="userSpaceOnUse">
<stop stop-color="#327EBD"/>
<stop offset="1" stop-color="#1565A7"/>
</linearGradient>
<linearGradient id="paint1_linear_274_28573" x1="29.28" y1="13.8887" x2="29.28" y2="44.9997" gradientUnits="userSpaceOnUse">
<stop stop-color="#FFDA4B"/>
<stop offset="1" stop-color="#F9C600"/>
</linearGradient>
</defs>
</svg>
