<svg width="49" height="48" viewBox="0 0 49 48" fill="none" xmlns="http://www.w3.org/2000/svg">
<path d="M38.6538 13.952C46.441 21.7391 46.441 34.231 38.6538 42.0722C31.0289 49.8593 18.483 49.8593 10.6958 42.0722C2.90868 34.2851 2.90868 21.7391 10.6958 13.952L24.6478 0V6.97598L23.3499 8.27384L14.1027 17.5211C8.26234 23.2533 8.26234 32.6627 14.1027 38.5031C19.8349 44.3434 29.2444 44.3434 35.0847 38.5031C40.9251 32.7709 40.9251 23.3614 35.0847 17.5211L38.6538 13.952ZM31.6778 13.0867C30.2443 13.0867 29.0821 11.9246 29.0821 10.491C29.0821 9.05744 30.2443 7.8953 31.6778 7.8953C33.1114 7.8953 34.2736 9.05744 34.2736 10.491C34.2736 11.9246 33.1114 13.0867 31.6778 13.0867Z" fill="#EE4C2C"/>
</svg>
