<svg width="48" height="48" viewBox="0 0 48 48" fill="none" xmlns="http://www.w3.org/2000/svg">
<path d="M32.6802 32.3345C34.3409 32.1654 35.6007 30.758 35.5434 29.0688C35.4863 27.38 34.0545 26.0288 32.3365 26.0288H32.2221C30.4467 26.085 29.0726 27.5489 29.1299 29.2941C29.1872 30.1386 29.5307 30.8705 30.0461 31.3772C28.0991 35.1494 25.1212 37.908 20.6547 40.2164C17.6196 41.7927 14.4702 42.3558 11.3207 41.9618C8.74377 41.624 6.73951 40.4981 5.47951 38.6399C3.64716 35.8812 3.47542 32.8973 5.02159 29.9135C6.10968 27.774 7.82742 26.1975 8.9155 25.4093C8.68647 24.6774 8.3428 23.4389 8.17107 22.5381C-0.132308 28.4496 0.726735 36.4443 3.24639 40.2164C5.13603 43.0314 8.9728 44.7768 13.2104 44.7768C14.3556 44.7768 15.5008 44.664 16.6462 44.3828C23.9761 42.9752 29.5308 38.6963 32.6802 32.3345ZM42.7588 25.3532C38.4067 20.3424 31.993 17.5838 24.6631 17.5838H23.7471C23.2317 16.5704 22.1436 15.8946 20.941 15.8946H20.8264C19.0513 15.951 17.6772 17.4147 17.7343 19.1601C17.7916 20.8491 19.2231 22.2003 20.941 22.2003H21.0555C22.3153 22.1441 23.4034 21.3558 23.8615 20.286H24.8922C29.2444 20.286 33.3673 21.5246 37.0897 23.9456C39.9528 25.8035 42.0144 28.2245 43.1596 31.152C44.1331 33.5166 44.0758 35.825 43.045 37.7955C41.4417 40.7793 38.7504 42.4121 35.1999 42.4121C32.9093 42.4121 30.7333 41.7365 29.5879 41.2298C28.9581 41.7927 27.8127 42.6935 27.0109 43.2567C29.4735 44.3826 31.9931 45.002 34.3982 45.002C39.8955 45.002 43.9614 42.0179 45.5076 39.0341C47.1681 35.7686 47.0535 30.1386 42.7588 25.3532ZM13.6684 33.2913C13.7258 34.9803 15.1573 36.3314 16.8753 36.3314H16.9899C18.765 36.2753 20.1393 34.8114 20.082 33.0662C20.0248 31.377 18.5931 30.026 16.8753 30.026H16.7608C16.6462 30.026 16.4743 30.026 16.36 30.0821C14.0121 26.2538 13.0386 22.0877 13.3823 17.5836C13.6111 14.2056 14.7565 11.2779 16.7608 8.85693C18.4213 6.77381 21.6282 5.76042 23.8044 5.70426C29.8743 5.59158 32.451 13.0232 32.6229 16.0071C33.3674 16.176 34.6272 16.5702 35.4862 16.8518C34.7989 7.73121 29.0725 3.00195 23.5753 3.00195C18.4213 3.00195 13.6684 6.66149 11.7786 12.0663C9.14455 19.2726 10.8625 26.1975 14.0692 31.6587C13.7831 32.0528 13.6111 32.672 13.6684 33.2913Z" fill="#764ABC"/>
</svg>
