<svg width="48" height="48" viewBox="0 0 48 48" fill="none" xmlns="http://www.w3.org/2000/svg">
<path d="M19.9782 10.8098C21.5246 9.19846 23.6777 8.19911 26.0589 8.19911C29.2243 8.19911 31.986 9.96419 33.4566 12.5845C34.7347 12.0134 36.1493 11.6958 37.6377 11.6958C43.3469 11.6958 47.9754 16.3646 47.9754 22.1236C47.9754 27.8833 43.3469 32.5522 37.6377 32.5522C36.941 32.5522 36.26 32.4825 35.6015 32.3493C34.3064 34.6595 31.8384 36.2203 29.0057 36.2203C27.8199 36.2203 26.6983 35.9464 25.6996 35.4593C24.3867 38.5475 21.3279 40.7129 17.7629 40.7129C14.0504 40.7129 10.8864 38.3638 9.6719 35.0693C9.14115 35.182 8.59127 35.2408 8.02705 35.2408C3.60686 35.2408 0.0234375 31.6205 0.0234375 27.1538C0.0234375 24.1606 1.63345 21.5471 4.02558 20.1489C3.53309 19.0156 3.25917 17.7649 3.25917 16.45C3.25917 11.3133 7.42936 7.14922 12.5729 7.14922C15.5928 7.14922 18.2766 8.58505 19.9782 10.8098Z" fill="#00A1E0"/>
<path d="M6.96787 24.5528C6.93781 24.6314 6.9788 24.6478 6.98836 24.6614C7.07853 24.727 7.17006 24.7741 7.26227 24.8267C7.75136 25.0863 8.21312 25.1621 8.69605 25.1621C9.67968 25.1621 10.2904 24.6389 10.2904 23.7966V23.7802C10.2904 23.0015 9.60113 22.7187 8.95426 22.5145L8.87024 22.4872C8.38252 22.3287 7.96175 22.1921 7.96175 21.871V21.854C7.96175 21.5794 8.20765 21.3772 8.58881 21.3772C9.01232 21.3772 9.51506 21.5179 9.83884 21.6969C9.83884 21.6969 9.93379 21.7583 9.96863 21.6661C9.98775 21.6169 10.1517 21.1757 10.1688 21.1279C10.1872 21.0759 10.1544 21.0377 10.121 21.0172C9.75141 20.7925 9.24047 20.6388 8.71176 20.6388L8.6134 20.6395C7.71311 20.6395 7.08467 21.1832 7.08467 21.9626V21.979C7.08467 22.8007 7.778 23.0671 8.4276 23.2529L8.53211 23.285C9.00549 23.4305 9.41328 23.5555 9.41328 23.8889V23.9052C9.41328 24.2099 9.14825 24.4367 8.72064 24.4367C8.55466 24.4367 8.02527 24.4333 7.45354 24.0719C7.38455 24.0316 7.34424 24.0022 7.29096 23.9701C7.26296 23.9524 7.1926 23.9216 7.16186 24.0145L6.96787 24.5528Z" fill="white"/>
<path d="M21.3702 24.5528C21.3402 24.6314 21.3811 24.6478 21.3907 24.6614C21.4809 24.727 21.5724 24.7741 21.6646 24.8267C22.1537 25.0863 22.6155 25.1621 23.0984 25.1621C24.082 25.1621 24.6927 24.6389 24.6927 23.7966V23.7802C24.6927 23.0015 24.0035 22.7187 23.3566 22.5145L23.2726 22.4872C22.7849 22.3287 22.3641 22.1921 22.3641 21.871V21.854C22.3641 21.5794 22.61 21.3772 22.9912 21.3772C23.4147 21.3772 23.9174 21.5179 24.2412 21.6969C24.2412 21.6969 24.3361 21.7583 24.371 21.6661C24.3901 21.6169 24.554 21.1757 24.5711 21.1279C24.5896 21.0759 24.5568 21.0377 24.5233 21.0172C24.1538 20.7925 23.6428 20.6388 23.1141 20.6388L23.0157 20.6395C22.1154 20.6395 21.487 21.1832 21.487 21.9626V21.979C21.487 22.8007 22.1803 23.0671 22.8299 23.2529L22.9345 23.285C23.4078 23.4305 23.8163 23.5555 23.8163 23.8889V23.9052C23.8163 24.2099 23.5506 24.4367 23.123 24.4367C22.957 24.4367 22.4276 24.4333 21.8559 24.0719C21.7869 24.0316 21.7459 24.0036 21.694 23.9701C21.6762 23.9585 21.5929 23.9264 21.5642 24.0145L21.3702 24.5528Z" fill="white"/>
<path d="M31.1973 22.9033C31.1973 23.3794 31.1085 23.7544 30.9336 24.0194C30.7608 24.2817 30.4992 24.4094 30.1344 24.4094C29.769 24.4094 29.5087 24.2824 29.3386 24.0194C29.1665 23.7551 29.0791 23.3794 29.0791 22.9033C29.0791 22.4278 29.1665 22.0535 29.3386 21.7912C29.5087 21.5316 29.769 21.4053 30.1344 21.4053C30.4992 21.4053 30.7608 21.5316 30.9343 21.7912C31.1085 22.0535 31.1973 22.4278 31.1973 22.9033ZM32.0183 22.0207C31.9377 21.7482 31.8121 21.5077 31.6447 21.3076C31.4773 21.1068 31.2656 20.9456 31.0142 20.8281C30.7635 20.7113 30.4671 20.6518 30.1344 20.6518C29.8011 20.6518 29.5046 20.7113 29.2539 20.8281C29.0026 20.9456 28.7908 21.1068 28.6228 21.3076C28.4561 21.5084 28.3304 21.7489 28.2491 22.0207C28.1692 22.2919 28.1289 22.5884 28.1289 22.9033C28.1289 23.2182 28.1692 23.5153 28.2491 23.7858C28.3304 24.0577 28.4554 24.2981 28.6235 24.4989C28.7908 24.6998 29.0032 24.8603 29.2539 24.9743C29.5053 25.0884 29.8011 25.1465 30.1344 25.1465C30.4671 25.1465 30.7628 25.0884 31.0142 24.9743C31.2649 24.8603 31.4773 24.6998 31.6447 24.4989C31.8121 24.2988 31.9377 24.0583 32.0183 23.7858C32.0989 23.5146 32.1393 23.2175 32.1393 22.9033C32.1393 22.589 32.0989 22.2919 32.0183 22.0207Z" fill="white"/>
<path d="M38.7635 24.2825C38.7362 24.2026 38.659 24.2326 38.659 24.2326C38.5395 24.2784 38.4124 24.3207 38.2772 24.3419C38.1399 24.3631 37.9889 24.374 37.827 24.374C37.4295 24.374 37.1139 24.2558 36.8878 24.0222C36.661 23.7886 36.534 23.4109 36.5353 22.8999C36.5367 22.4348 36.6487 22.085 36.8502 21.8186C37.0504 21.5536 37.355 21.4177 37.7615 21.4177C38.1003 21.4177 38.3585 21.4566 38.629 21.542C38.629 21.542 38.6939 21.57 38.7246 21.4853C38.7963 21.2858 38.8496 21.1431 38.9261 20.9238C38.948 20.8616 38.8947 20.835 38.8756 20.8275C38.769 20.7858 38.5176 20.7182 38.3277 20.6895C38.1501 20.6622 37.9425 20.6478 37.7116 20.6478C37.3666 20.6478 37.0593 20.7066 36.7963 20.8241C36.534 20.9409 36.3113 21.1021 36.135 21.3029C35.9588 21.5037 35.8249 21.7442 35.7354 22.016C35.6466 22.2872 35.6016 22.585 35.6016 22.8999C35.6016 23.581 35.7853 24.1315 36.148 24.5345C36.5114 24.9389 37.0572 25.1445 37.769 25.1445C38.1897 25.1445 38.6214 25.0591 38.9316 24.9369C38.9316 24.9369 38.991 24.9082 38.965 24.8392L38.7635 24.2825Z" fill="white"/>
<path d="M40.1979 22.4482C40.2368 22.1839 40.3099 21.9639 40.4226 21.7925C40.5927 21.5322 40.8523 21.3895 41.217 21.3895C41.5818 21.3895 41.8229 21.5329 41.9958 21.7925C42.1105 21.9639 42.1604 22.1934 42.1802 22.4482H40.1979ZM42.9623 21.8669C42.8926 21.6039 42.7198 21.3382 42.6064 21.2166C42.4275 21.024 42.2526 20.8894 42.0791 20.8143C41.8523 20.7173 41.5804 20.6531 41.2826 20.6531C40.9356 20.6531 40.6207 20.7112 40.3653 20.8314C40.1091 20.9516 39.8939 21.1155 39.7252 21.3198C39.5565 21.5233 39.4294 21.7658 39.3488 22.0411C39.2675 22.315 39.2266 22.6135 39.2266 22.9284C39.2266 23.2488 39.2689 23.5473 39.3529 23.8157C39.4376 24.0862 39.5729 24.3246 39.7559 24.5221C39.9383 24.7208 40.1733 24.8766 40.4547 24.9852C40.7341 25.0931 41.0736 25.1491 41.4636 25.1484C42.2663 25.1457 42.6891 24.9667 42.8633 24.8704C42.894 24.8533 42.9234 24.8233 42.8865 24.7372L42.7048 24.2283C42.6775 24.1525 42.6003 24.1805 42.6003 24.1805C42.4015 24.2543 42.1187 24.3868 41.4595 24.3854C41.0285 24.3848 40.7088 24.2577 40.5087 24.0589C40.3031 23.8554 40.2027 23.5562 40.1849 23.134L42.9644 23.1368C42.9644 23.1368 43.0374 23.1354 43.045 23.0644C43.0477 23.0343 43.1406 22.4933 42.9623 21.8669Z" fill="white"/>
<path d="M17.9401 22.4482C17.9797 22.1839 18.0521 21.9639 18.1648 21.7925C18.3349 21.5322 18.5945 21.3895 18.9592 21.3895C19.324 21.3895 19.5651 21.5329 19.7386 21.7925C19.8527 21.9639 19.9026 22.1934 19.9224 22.4482H17.9401ZM20.7038 21.8669C20.6341 21.6039 20.462 21.3382 20.3486 21.2166C20.1696 21.024 19.9948 20.8894 19.8213 20.8143C19.5945 20.7173 19.3226 20.6531 19.0248 20.6531C18.6785 20.6531 18.3629 20.7112 18.1074 20.8314C17.8513 20.9516 17.6361 21.1155 17.4674 21.3198C17.2987 21.5233 17.1716 21.7658 17.091 22.0411C17.0104 22.315 16.9688 22.6135 16.9688 22.9284C16.9688 23.2488 17.0111 23.5473 17.0951 23.8157C17.1798 24.0862 17.3151 24.3246 17.4981 24.5221C17.6805 24.7208 17.9155 24.8766 18.1969 24.9852C18.4763 25.0931 18.8158 25.1491 19.2058 25.1484C20.0084 25.1457 20.4313 24.9667 20.6055 24.8704C20.6362 24.8533 20.6656 24.8233 20.6287 24.7372L20.4477 24.2283C20.4197 24.1525 20.3425 24.1805 20.3425 24.1805C20.1437 24.2543 19.8616 24.3868 19.201 24.3854C18.7707 24.3848 18.451 24.2577 18.2509 24.0589C18.0453 23.8554 17.9449 23.5562 17.9271 23.134L20.7065 23.1368C20.7065 23.1368 20.7796 23.1354 20.7871 23.0644C20.7899 23.0343 20.8828 22.4933 20.7038 21.8669Z" fill="white"/>
<path d="M11.9332 24.2686C11.8246 24.1819 11.8096 24.16 11.7727 24.104C11.718 24.0186 11.69 23.897 11.69 23.7427C11.69 23.4981 11.7706 23.3226 11.938 23.2044C11.9359 23.2051 12.1771 22.9961 12.744 23.0036C13.1423 23.009 13.4981 23.0678 13.4981 23.0678V24.3315H13.4988C13.4988 24.3315 13.1457 24.4073 12.7481 24.4312C12.1825 24.4654 11.9312 24.268 11.9332 24.2686ZM13.0391 22.3157C12.9264 22.3075 12.7802 22.3027 12.6054 22.3027C12.367 22.3027 12.1368 22.3328 11.9209 22.3909C11.7037 22.4489 11.5083 22.5398 11.3403 22.66C11.1716 22.7809 11.0357 22.9353 10.9373 23.1183C10.8389 23.3014 10.7891 23.5172 10.7891 23.7591C10.7891 24.005 10.8314 24.2188 10.9161 24.3936C11.0008 24.5692 11.1231 24.7154 11.2788 24.8281C11.4332 24.9408 11.6238 25.0234 11.8451 25.0733C12.063 25.1232 12.3103 25.1484 12.5808 25.1484C12.8656 25.1484 13.1498 25.1252 13.4251 25.0781C13.6976 25.0316 14.0323 24.964 14.1252 24.9428C14.2174 24.921 14.3199 24.893 14.3199 24.893C14.3889 24.8759 14.3834 24.8021 14.3834 24.8021L14.382 22.2604C14.382 21.703 14.2331 21.2897 13.9401 21.0336C13.6484 20.7781 13.2188 20.649 12.6634 20.649C12.4551 20.649 12.1197 20.6777 11.9189 20.718C11.9189 20.718 11.3116 20.8355 11.0616 21.0308C11.0616 21.0308 11.007 21.065 11.037 21.1415L11.2337 21.6702C11.2583 21.7385 11.3246 21.7153 11.3246 21.7153C11.3246 21.7153 11.3458 21.7071 11.3704 21.6928C11.9052 21.4018 12.5815 21.4106 12.5815 21.4106C12.882 21.4106 13.1129 21.4708 13.2686 21.5903C13.4203 21.7064 13.4975 21.882 13.4975 22.2522V22.3697C13.2584 22.3355 13.0391 22.3157 13.0391 22.3157Z" fill="white"/>
<path d="M35.4569 20.8824C35.4781 20.8195 35.4337 20.7895 35.4153 20.7826C35.3681 20.7642 35.1318 20.7143 34.9494 20.7027C34.6004 20.6815 34.4064 20.7403 34.2329 20.8181C34.0607 20.896 33.8695 21.0217 33.7629 21.1645V20.8263C33.7629 20.7792 33.7294 20.7416 33.683 20.7416H32.9705C32.9241 20.7416 32.8906 20.7792 32.8906 20.8263V24.9719C32.8906 25.0184 32.9289 25.0566 32.9753 25.0566H33.7055C33.752 25.0566 33.7896 25.0184 33.7896 24.9719V22.9008C33.7896 22.6228 33.8203 22.3455 33.8818 22.1713C33.9419 21.9992 34.0238 21.8612 34.1249 21.7622C34.2267 21.6638 34.3422 21.5948 34.4685 21.5559C34.5976 21.5163 34.7404 21.5033 34.8415 21.5033C34.987 21.5033 35.1468 21.5408 35.1468 21.5408C35.2001 21.547 35.2302 21.5142 35.2479 21.4657C35.2957 21.3387 35.431 20.9582 35.4569 20.8824Z" fill="white"/>
<path d="M28.6007 18.9612C28.5119 18.9339 28.4313 18.9154 28.3261 18.8956C28.2196 18.8765 28.0925 18.8669 27.9484 18.8669C27.4456 18.8669 27.0495 19.009 26.7714 19.2891C26.4948 19.5678 26.307 19.992 26.2127 20.55L26.1785 20.7379H25.5474C25.5474 20.7379 25.4709 20.7351 25.4545 20.8185L25.3513 21.397C25.3438 21.4517 25.3677 21.4865 25.4415 21.4865H26.0556L25.4326 24.9648C25.3841 25.2448 25.3281 25.475 25.2659 25.6499C25.2051 25.822 25.1457 25.9511 25.0719 26.0454C25.0009 26.1356 24.934 26.2025 24.8178 26.2414C24.7222 26.2735 24.6116 26.2886 24.4906 26.2886C24.4237 26.2886 24.3342 26.2776 24.268 26.264C24.2024 26.251 24.1676 26.2366 24.1177 26.2155C24.1177 26.2155 24.046 26.1882 24.0173 26.2599C23.9947 26.3193 23.8308 26.7695 23.811 26.8248C23.7919 26.8801 23.8192 26.9231 23.854 26.9361C23.936 26.9648 23.9968 26.9839 24.1081 27.0106C24.2625 27.0468 24.393 27.0488 24.5152 27.0488C24.7707 27.0488 25.0043 27.0126 25.1976 26.943C25.3916 26.8726 25.561 26.7503 25.7113 26.585C25.8732 26.4061 25.975 26.2189 26.072 25.9627C26.1683 25.71 26.2509 25.3958 26.3165 25.0297L26.9429 21.4865H27.8582C27.8582 21.4865 27.9354 21.4893 27.9511 21.4052L28.0549 20.8274C28.0618 20.772 28.0386 20.7379 27.9641 20.7379H27.0754C27.0802 20.7181 27.1205 20.4052 27.2223 20.1108C27.266 19.9858 27.348 19.884 27.417 19.8144C27.4853 19.7461 27.5638 19.6976 27.6499 19.6695C27.738 19.6409 27.8384 19.6272 27.9484 19.6272C28.0317 19.6272 28.1144 19.6368 28.1765 19.6497C28.2626 19.6682 28.2961 19.6777 28.3186 19.6846C28.4095 19.7119 28.4218 19.6853 28.4395 19.6415L28.652 19.0582C28.6738 18.9954 28.6198 18.9687 28.6007 18.9612Z" fill="white"/>
<path d="M16.1853 24.9726C16.1853 25.0191 16.1518 25.0566 16.1053 25.0566H15.3683C15.3219 25.0566 15.2891 25.0191 15.2891 24.9726V19.0408C15.2891 18.9943 15.3219 18.9568 15.3683 18.9568H16.1053C16.1518 18.9568 16.1853 18.9943 16.1853 19.0408V24.9726Z" fill="white"/>
</svg>
