<svg width="49" height="48" viewBox="0 0 49 48" fill="none" xmlns="http://www.w3.org/2000/svg">
<g clip-path="url(#clip0_274_28601)">
<path d="M37.492 33.0488C43.3532 27.1913 44.3282 18.6638 39.667 14.0063C35.0057 9.34878 26.4782 10.3238 20.617 16.1813C14.7557 22.0388 16.4507 33.2363 18.442 35.2238C20.0507 36.8325 31.6307 38.9063 37.492 33.0488Z" fill="#F89939"/>
<path d="M13.4395 24.585C10.0383 21.1875 5.08828 20.6212 2.38453 23.3212C-0.319224 26.025 0.247026 30.9712 3.64828 34.3687C7.04953 37.77 13.5483 36.7837 14.7033 35.6325C15.637 34.6987 16.8445 27.9825 13.4395 24.585Z" fill="#3499CD"/>
<path d="M47.1075 32.1302C46.89 32.1302 46.7812 31.9989 46.7812 31.7327C46.7812 31.5339 46.9125 31.0989 47.1712 30.4352C47.55 29.4639 47.7412 28.7664 47.7412 28.3427C47.7412 28.0877 47.6663 27.8739 47.5163 27.7052C47.3663 27.5364 47.1788 27.4502 46.9538 27.4502C46.6238 27.4502 46.245 27.6039 45.8175 27.9152C45.39 28.2264 44.8162 28.7852 44.0925 29.5952C44.1975 29.0702 44.4225 28.3502 44.76 27.4352L43.1437 27.7464C42.7762 28.5414 42.51 29.2577 42.345 29.8952C42.2625 30.2064 42.2025 30.5289 42.1612 30.8552C41.655 31.3464 41.325 31.6427 41.1825 31.7514C41.0362 31.8602 40.8825 31.9127 40.725 31.9127C40.5788 31.9127 40.4625 31.8564 40.3763 31.7477C40.29 31.6389 40.2487 31.4889 40.2487 31.3052C40.2487 31.1064 40.2863 30.8777 40.3613 30.6189C40.4363 30.3602 40.6013 29.8727 40.86 29.1564L41.475 27.4614L40.8713 27.4877C40.3238 28.5302 39.6825 29.0927 38.9475 29.1714C39.1462 28.6539 39.2475 28.2564 39.2475 27.9789C39.2475 27.6264 39.075 27.4502 38.73 27.4502C38.3213 27.4502 38.0025 27.6414 37.7737 28.0277C37.5412 28.4139 37.425 28.7777 37.425 29.1189C37.425 29.4602 37.6162 29.7002 37.995 29.8689C37.7475 30.2327 37.47 30.5739 37.17 30.8964C36.8137 31.2489 36.5362 31.5189 36.3337 31.6952C36.1275 31.8789 35.9362 31.9689 35.7637 31.9689C35.4937 31.9689 35.3587 31.7777 35.3587 31.3989C35.3587 31.0202 35.5088 30.3677 35.8088 29.3927L36.3937 27.4502H36.0225L34.6688 28.2002C34.4475 27.6939 34.0612 27.4389 33.51 27.4389C33.0712 27.4389 32.5687 27.6264 31.9987 27.9977C31.4287 28.3689 30.96 28.8527 30.5963 29.4564C30.315 29.9214 30.1425 30.4089 30.0788 30.9114C29.5688 31.4214 29.1862 31.7514 28.9312 31.9052C28.665 32.0627 28.3875 32.1414 28.095 32.1414C27.3488 32.1414 26.8875 31.7102 26.7112 30.8477C28.6575 30.2777 29.6287 29.5352 29.6287 28.6202C29.6287 28.2752 29.505 27.9977 29.2575 27.7839C29.01 27.5702 28.68 27.4652 28.2712 27.4652C27.48 27.4652 26.76 27.8439 26.1113 28.6014C25.5225 29.2877 25.2038 30.0489 25.1475 30.8852C24.6113 31.4139 24.2062 31.7627 23.9437 31.9314C23.6737 32.1039 23.4187 32.1902 23.1825 32.1902C22.9462 32.1902 22.7587 32.0777 22.62 31.8527C22.4775 31.6277 22.4062 31.3239 22.4062 30.9377C22.4062 30.7652 22.425 30.4502 22.4587 29.9889C23.3437 29.0289 23.9925 28.1289 24.4088 27.2852C24.825 26.4414 25.0312 25.5677 25.0312 24.6677C25.0312 24.3489 24.99 24.0977 24.9075 23.9102C24.825 23.7227 24.72 23.6289 24.5925 23.6289C24.5662 23.6289 24.525 23.6364 24.4725 23.6552L22.7888 24.2777C22.215 25.3727 21.7238 26.5689 21.3225 27.8702C20.9213 29.1677 20.7188 30.2814 20.7188 31.2077C20.7188 31.8264 20.8612 32.3177 21.1537 32.6852C21.4425 33.0527 21.825 33.2364 22.2975 33.2364C22.71 33.2364 23.1412 33.1052 23.595 32.8427C24.0487 32.5802 24.5737 32.1714 25.1775 31.6202C25.7812 31.0689 25.1775 31.6127 25.1775 31.6127C25.2487 32.0289 25.4212 32.3777 25.6912 32.6627C26.0625 33.0452 26.5462 33.2402 27.1462 33.2402C27.6862 33.2402 28.1775 33.1089 28.6237 32.8464C29.055 32.5952 29.5388 32.2014 30.0788 31.6802C30.1238 32.0702 30.2513 32.4077 30.465 32.6964C30.7388 33.0602 31.0688 33.2439 31.455 33.2439C31.8413 33.2439 32.2387 33.0939 32.6137 32.7939C32.9887 32.4939 33.3937 32.0252 33.8362 31.3952C33.795 32.6289 34.125 33.2439 34.8225 33.2439C35.1 33.2439 35.3925 33.1427 35.6962 32.9402C36 32.7377 36.5063 32.2989 37.215 31.6277C37.83 31.0202 38.28 30.4502 38.5688 29.9177C38.9588 29.8502 39.315 29.7339 39.6413 29.5652C38.9738 30.6114 38.64 31.4477 38.64 32.0702C38.64 32.4077 38.7338 32.6889 38.9175 32.9139C39.1013 33.1389 39.33 33.2552 39.6 33.2552C40.1888 33.2552 41.025 32.7264 42.105 31.6802C42.105 31.7627 42.0975 31.8414 42.0975 31.9239C42.0975 32.2164 42.1238 32.6589 42.1688 33.2552L43.635 32.9102C43.635 32.5127 43.6425 32.1977 43.6537 31.9614C43.6762 31.6464 43.7212 31.3014 43.785 30.9264C43.8262 30.7052 43.9275 30.4952 44.0887 30.2964L44.46 29.8652C44.595 29.7077 44.7263 29.5652 44.8425 29.4414C44.9813 29.2952 45.105 29.1714 45.2137 29.0702C45.3375 28.9614 45.4463 28.8714 45.54 28.8114C45.6413 28.7514 45.7237 28.7177 45.7837 28.7177C45.8925 28.7177 45.9487 28.7889 45.9487 28.9314C45.9487 29.0739 45.8437 29.4039 45.6375 29.9252C45.2475 30.8964 45.0525 31.6202 45.0525 32.0927C45.0525 32.4414 45.1425 32.7189 45.3262 32.9289C45.5062 33.1352 45.7462 33.2402 46.0425 33.2402C46.77 33.2402 47.6475 32.7002 48.6675 31.6239V30.8627C47.9437 31.7139 47.4225 32.1414 47.1 32.1414L47.1075 32.1302ZM22.635 29.0214C22.935 27.5552 23.2425 26.4189 23.5537 25.6052C23.865 24.7914 24.105 24.3827 24.2662 24.3827C24.3412 24.3827 24.405 24.4314 24.4537 24.5327C24.5025 24.6302 24.525 24.7652 24.525 24.9264C24.525 25.4852 24.3525 26.1489 24 26.9252C23.6512 27.6977 23.1938 28.3989 22.635 29.0214ZM27.0562 28.6539C27.3225 28.2077 27.6 27.9864 27.8925 27.9864C28.2 27.9864 28.3575 28.2002 28.3575 28.6239C28.3575 29.4827 27.7913 30.0677 26.6588 30.3864C26.6588 29.6739 26.79 29.0964 27.0562 28.6539ZM33.6113 30.8477C33.2213 31.6014 32.8012 31.9764 32.3625 31.9764C32.1825 31.9764 32.0325 31.9014 31.9162 31.7552C31.8 31.6089 31.74 31.4139 31.74 31.1739C31.74 30.5439 31.9387 29.8502 32.3325 29.1002C32.7262 28.3502 33.1462 27.9752 33.5887 27.9752C33.7725 27.9752 33.9225 28.0427 34.0312 28.1852C34.14 28.3239 34.1962 28.5189 34.1962 28.7664C34.1962 29.4039 34.0013 30.0977 33.6113 30.8514V30.8477Z" fill="#010101"/>
<path d="M28.9748 24.3307C29.0311 24.4095 29.0573 24.5107 29.0573 24.6307C29.0573 24.7507 29.0236 24.8595 28.9561 24.9607C28.8886 25.062 28.7911 25.1445 28.6598 25.2007C28.5323 25.257 28.3861 25.287 28.2248 25.287C27.9548 25.287 27.7523 25.2307 27.6098 25.1182C27.4673 25.0057 27.3773 24.8407 27.3398 24.6195L27.6886 24.5632C27.7073 24.702 27.7636 24.8107 27.8498 24.882C27.9398 24.957 28.0636 24.9945 28.2248 24.9945C28.3861 24.9945 28.5061 24.9607 28.5848 24.897C28.6636 24.8332 28.7011 24.7545 28.7011 24.6645C28.7011 24.5857 28.6673 24.522 28.5961 24.477C28.5473 24.447 28.4273 24.4057 28.2361 24.357C27.9773 24.2932 27.8011 24.237 27.6998 24.1882C27.5986 24.1395 27.5236 24.0757 27.4748 23.9895C27.4261 23.9032 27.3961 23.8132 27.3961 23.712C27.3961 23.6182 27.4186 23.5357 27.4598 23.457C27.5011 23.3782 27.5611 23.3145 27.6323 23.262C27.6886 23.2207 27.7598 23.187 27.8536 23.1607C27.9473 23.1345 28.0486 23.1195 28.1573 23.1195C28.3186 23.1195 28.4611 23.142 28.5848 23.1907C28.7086 23.2357 28.7986 23.2995 28.8586 23.382C28.9186 23.4607 28.9561 23.5695 28.9786 23.7045L28.6336 23.7495C28.6186 23.6445 28.5736 23.5582 28.4986 23.4982C28.4236 23.4382 28.3186 23.4082 28.1798 23.4082C28.0186 23.4082 27.9023 23.4345 27.8348 23.487C27.7673 23.5395 27.7298 23.6032 27.7298 23.6745C27.7298 23.7195 27.7448 23.7607 27.7711 23.7982C27.8011 23.8357 27.8461 23.8657 27.9061 23.892C27.9398 23.9032 28.0448 23.9332 28.2173 23.982C28.4648 24.0495 28.6373 24.102 28.7386 24.1432C28.8361 24.1845 28.9148 24.2482 28.9711 24.327L28.9748 24.3307ZM30.6511 24.8707C30.5573 24.957 30.4448 24.9982 30.3061 24.9982C30.1336 24.9982 29.9948 24.9345 29.8898 24.8107C29.7848 24.687 29.7286 24.4807 29.7286 24.2032C29.7286 23.9257 29.7848 23.727 29.8936 23.6032C30.0023 23.4795 30.1486 23.412 30.3248 23.412C30.4411 23.412 30.5423 23.4457 30.6248 23.517C30.7073 23.5882 30.7636 23.6932 30.7973 23.832L31.1386 23.7795C31.0973 23.5695 31.0073 23.4082 30.8648 23.2957C30.7223 23.1832 30.5386 23.127 30.3136 23.127C30.1336 23.127 29.9723 23.1682 29.8186 23.2545C29.6686 23.337 29.5523 23.4645 29.4811 23.6332C29.4061 23.802 29.3686 23.997 29.3686 24.222C29.3686 24.567 29.4548 24.8332 29.6273 25.017C29.7998 25.2007 30.0286 25.2945 30.3098 25.2945C30.5348 25.2945 30.7261 25.227 30.8836 25.092C31.0373 24.957 31.1348 24.7695 31.1723 24.5332L30.8273 24.4882C30.8011 24.6645 30.7448 24.792 30.6511 24.8782V24.8707ZM31.4723 25.2382H31.8248V23.1682H31.4723V25.2382ZM31.4723 22.782H31.8248V22.377H31.4723V22.782ZM33.9961 23.1645H33.5423L32.7098 24.0082V22.377H32.3573V25.2345H32.7098V24.4132L32.9573 24.177L33.6436 25.2345H34.0786L33.2048 23.9332L33.9961 23.1645ZM34.3561 22.782H34.7086V22.377H34.3561V22.782ZM34.3561 25.2382H34.7086V23.1682H34.3561V25.2382ZM36.0098 24.9232C35.9461 24.9307 35.8936 24.9382 35.8561 24.9382C35.8036 24.9382 35.7623 24.9307 35.7361 24.912C35.7098 24.8932 35.6873 24.8707 35.6761 24.8445C35.6648 24.8145 35.6573 24.7507 35.6573 24.6532V23.442H36.0098V23.1682H35.6573V22.4445L35.3086 22.6545V23.1682H35.0498V23.442H35.3086V24.6345C35.3086 24.8445 35.3236 24.9832 35.3498 25.047C35.3798 25.1145 35.4286 25.167 35.4961 25.2045C35.5673 25.2457 35.6648 25.2645 35.7923 25.2645C35.8711 25.2645 35.9573 25.2532 36.0586 25.2345L36.0061 24.9232H36.0098Z" fill="white"/>
</g>
<defs>
<clipPath id="clip0_274_28601">
<rect width="48" height="48" fill="white" transform="translate(0.675781)"/>
</clipPath>
</defs>
</svg>
