<svg width="48" height="48" viewBox="0 0 48 48" fill="none" xmlns="http://www.w3.org/2000/svg">
<g clip-path="url(#clip0_274_28933)">
<path fill-rule="evenodd" clip-rule="evenodd" d="M33.8471 6.99463C34.6337 7.77952 35.525 8.66852 35.525 8.66852C35.525 8.66852 39.1953 8.94148 39.3685 8.95648C39.5431 8.97148 39.7535 9.105 39.7864 9.3465C39.8192 9.588 45 44.7915 45 44.7915L32.2871 47.555L33.8471 6.99463ZM31.8969 5.66119C31.7995 5.67381 31.715 5.69304 31.6562 5.71051C31.6249 5.71951 31.0995 5.88302 30.2293 6.15302C29.3771 3.69002 27.874 1.42651 25.2306 1.42651C25.1575 1.42651 25.0814 1.42952 25.0067 1.43402C24.2545 0.435021 23.3231 0 22.5186 0C16.3587 0 13.4153 7.74001 12.4929 11.6715C10.0988 12.417 8.39871 12.9465 8.18228 13.0155C6.84492 13.437 6.80313 13.479 6.62849 14.7435C6.49565 15.702 3 42.8715 3 42.8715L30.2398 48L30.2687 47.9937L31.8969 5.66119ZM24.8053 7.57202C24.8053 7.66652 24.8038 7.75352 24.8038 7.84052C23.3037 8.30702 21.6753 8.81401 20.0424 9.32251C20.9589 5.76751 22.6768 4.04998 24.1799 3.40198C24.5575 4.35598 24.8053 5.72552 24.8053 7.57202ZM22.3484 1.66052C22.6156 1.66052 22.8828 1.75202 23.1395 1.92902C21.1648 2.86202 19.0498 5.214 18.1558 9.909C16.8497 10.3155 15.5736 10.713 14.3929 11.0805C15.4393 7.49851 17.9244 1.66052 22.3484 1.66052ZM23.4097 22.593C23.4097 22.593 21.8156 21.738 19.8618 21.738C16.996 21.738 16.8512 23.5455 16.8512 24C16.8512 26.4855 23.2962 27.438 23.2962 33.258C23.2962 37.836 20.4066 40.785 16.5094 40.785C11.8331 40.785 9.44202 37.86 9.44202 37.86L10.6943 33.7035C10.6943 33.7035 13.1526 35.8245 15.2273 35.8245C16.5811 35.8245 17.1333 34.752 17.1333 33.969C17.1333 30.7275 11.8451 30.582 11.8451 25.2555C11.8451 20.7735 15.0467 16.4355 21.5096 16.4355C23.9993 16.4355 25.2306 17.1525 25.2306 17.1525L23.4097 22.593ZM26.4187 7.33801C26.4187 7.17451 26.4202 7.014 26.4202 6.8385C26.4202 5.3085 26.2083 4.0755 25.8695 3.099C27.2322 3.27 28.1397 4.82847 28.7233 6.62097C28.0397 6.83397 27.2621 7.07551 26.4187 7.33801Z" fill="#81BF37"/>
</g>
<defs>
<clipPath id="clip0_274_28933">
<rect width="48" height="48" fill="white"/>
</clipPath>
</defs>
</svg>
