<svg width="48" height="48" viewBox="0 0 48 48" fill="none" xmlns="http://www.w3.org/2000/svg">
<g clip-path="url(#clip0_274_28692)">
<path d="M21.6158 0.00110284C20.765 0.0251028 19.9246 0.429728 19.2218 1.20973C18.8356 1.63948 18.5075 2.15098 18.2356 2.65535C17.5268 3.98285 17.3873 5.48548 17.1248 6.9416L15.6803 15.1204C15.6248 15.4414 15.4808 15.5741 15.1928 15.666L4.59234 19.0335C3.81984 19.2859 3.04546 19.6121 2.36221 20.046C0.277961 21.3697 -0.0302893 23.5477 1.53459 25.4602C2.22534 26.3062 3.11559 26.9014 4.10334 27.3337L10.7045 30.2749C10.7596 30.3049 10.8185 30.3244 10.8781 30.3356L12.272 31.3414C12.272 31.3414 10.8845 46.6969 13.4892 47.7592C13.4663 47.7555 13.3355 47.7285 13.3355 47.7285C13.3355 47.7285 13.5995 48.0139 14.3116 47.9299C14.8568 48.0311 14.7848 48.0146 14.3393 47.9261C15.308 47.8009 17.0907 46.9897 20.1811 43.8821C20.4084 43.6784 20.6305 43.4688 20.8471 43.2536L27.5221 36.0472L29.0832 36.5966C29.1395 36.6742 29.2208 36.7241 29.351 36.7627L36.7846 39.0244C37.8005 39.3379 38.8055 39.5674 39.8885 39.4091C41.822 39.126 43.2451 37.5341 43.226 35.5871C43.2185 34.7321 42.9185 33.96 42.5247 33.2156L37.6017 23.8789C37.445 23.5837 37.4498 23.3929 37.6752 23.1289L45.9455 13.4081C46.481 12.7695 46.9643 12.0847 47.2448 11.2912C47.861 9.53998 47.0641 8.14798 45.2461 7.80785C44.4102 7.6586 43.586 7.73735 42.7711 7.95223L30.9222 11.1004C30.5735 11.1941 30.401 11.1285 30.2116 10.8109L25.3741 2.7731C25.0085 2.16748 24.5716 1.57535 24.0702 1.07548C23.3281 0.333353 22.4667 -0.0225222 21.6158 0.00110284ZM21.9698 7.4021C22.1611 7.53635 22.2578 7.67473 22.3486 7.82398L27.5536 16.4977C27.6968 16.7332 27.8255 16.8165 28.1105 16.7407L37.2766 14.3044L39.4835 13.7269C39.4508 13.9117 39.3702 14.0231 39.2821 14.1274L31.7221 23.0044C31.5083 23.2624 31.4885 23.4431 31.6493 23.7454L36.428 32.8054L36.6473 33.2692L36.6417 33.2767L28.1191 30.9277L28.1168 30.921L26.5051 30.4691L16.9452 41.0651L18.6938 27.1339L17.1248 26.4514L17.1278 26.4487L8.25009 22.9237C8.42034 22.7689 8.57259 22.7044 8.73196 22.6549L19.5233 19.2439C19.7768 19.1651 19.9212 19.0676 19.9452 18.7781L20.0963 17.895L21.5495 9.71735L21.9698 7.4021Z" fill="#E15919"/>
</g>
<defs>
<clipPath id="clip0_274_28692">
<rect width="48" height="48" fill="white"/>
</clipPath>
</defs>
</svg>
