<svg width="48" height="48" viewBox="0 0 48 48" fill="none" xmlns="http://www.w3.org/2000/svg">
<g clip-path="url(#clip0_274_28686)">
<path fill-rule="evenodd" clip-rule="evenodd" d="M29.6939 25.7324L17.9082 34.7675H31.6591L16.4336 46.8496H20.6573L39.4174 32.3125H25.5687L34.0147 25.7324H29.6939Z" fill="#EEA852"/>
<path fill-rule="evenodd" clip-rule="evenodd" d="M16.4977 17.4156H12.2556L0 26.9236L15.7122 27.0023C23.0189 27.0023 30.5603 24.2914 30.5603 17.4554C30.5603 10.6193 22.9395 6.18008 10.1338 10.8944C9.27038 11.8372 5.57766 15.2954 4.94884 15.9234C17.1257 9.79563 27.8493 10.1165 27.8493 17.4164C27.8493 24.3312 16.8117 24.3312 15.7122 24.3312H7.6987L16.4977 17.4156Z" fill="#3DA0CA"/>
<path fill-rule="evenodd" clip-rule="evenodd" d="M10.1342 10.8936C9.27076 11.8365 5.57804 15.2946 4.94922 15.9227C7.66776 14.5474 10.3145 13.5083 12.7847 12.7878C14.6238 10.3618 19.5619 3.7443 26.5531 3.7443C34.0165 3.7443 36.5303 8.1453 36.5303 10.7378C36.5303 13.5663 34.4092 15.6889 34.4092 15.6889C34.4092 15.6889 37.6297 15.8463 39.2014 15.8463C40.7731 15.8463 45.2505 16.3177 45.2505 20.6393C45.2505 24.9608 40.1443 25.5904 38.416 25.5904H29.86L26.4828 28.2623L38.0309 28.3403C43.2158 28.3403 48.008 25.747 48.008 20.64C48.008 15.533 43.6085 13.2538 39.0532 13.2538C39.5246 12.4684 39.682 11.6821 39.682 10.7324C39.682 9.78269 38.1111 1.14648 26.4049 1.14648C18.8636 1.14648 14.2181 7.10618 10.1433 10.8898L10.1342 10.8936Z" fill="#2C6BA3"/>
<path fill-rule="evenodd" clip-rule="evenodd" d="M29.8435 25.5938H34.2025L30.7138 28.3047L26.3945 28.2626L29.8435 25.5938Z" fill="#928680"/>
<path fill-rule="evenodd" clip-rule="evenodd" d="M12.7847 12.7879L12.7045 12.8123C10.9364 13.3854 7.15354 14.9517 4.94922 15.9221C5.57804 15.294 9.27 11.8359 10.1342 10.893C12.0902 10.1725 13.9262 9.6667 15.6324 9.34961C14.364 10.6944 13.3998 11.9749 12.7847 12.7864V12.7879Z" fill="#3288BA"/>
</g>
<defs>
<clipPath id="clip0_274_28686">
<rect width="48" height="48" fill="white"/>
</clipPath>
</defs>
</svg>
