<svg width="48" height="48" viewBox="0 0 48 48" fill="none" xmlns="http://www.w3.org/2000/svg">
<path fill-rule="evenodd" clip-rule="evenodd" d="M29.5728 2.40039C50.6712 16.8592 43.848 32.8023 43.848 32.8023C43.848 32.8023 49.848 39.6297 47.4216 45.6004C47.4216 45.6004 44.9472 41.4191 40.7976 41.4191C36.7968 41.4191 34.4472 45.6004 26.3976 45.6004C8.47438 45.6004 0 30.5102 0 30.5102C16.1472 41.2159 27.1728 33.6344 27.1728 33.6344C19.8984 29.3782 4.42317 9.02383 4.42317 9.02383C17.8992 20.5856 23.724 23.6348 23.724 23.6348C20.2488 20.7377 10.4976 6.58164 10.4976 6.58164C18.2976 14.5426 33.7968 25.6492 33.7968 25.6492C38.1984 13.3571 29.5728 2.40039 29.5728 2.40039Z" fill="#DD574A"/>
</svg>
