<svg width="45" height="48" viewBox="0 0 45 48" fill="none" xmlns="http://www.w3.org/2000/svg">
<path d="M25.5287 7.41797V14.7878L38.2926 22.1577V14.7878L25.5287 7.41797ZM0 14.7878V22.1577L6.38197 25.8418V18.4727L0 14.7878ZM19.1459 18.4727L12.7639 22.1577V44.2657L19.1459 47.9506V33.2117L25.5287 36.8966V29.5268L19.1459 25.8418V18.4727Z" fill="#E55B2D"/>
<path d="M25.5295 7.41797L6.38281 18.4727V25.8418L19.1468 18.4727V25.8418L25.5295 22.1577V7.41797ZM44.6762 11.1029L38.2934 14.7878V22.1577L44.6762 18.4727V11.1029ZM31.9115 25.8418L25.5295 29.5268V36.8966L31.9115 33.2117V25.8418ZM25.5295 36.8966L19.1468 33.2117V47.9506L25.5295 44.2657V36.8966Z" fill="#ED8E24"/>
<path d="M25.5287 0.0488281L0 14.7878L6.38197 18.4727L25.5287 7.41792L38.2926 14.7878L44.6753 11.1028L25.5287 0.0488281ZM25.5287 22.1576L19.1459 25.8418L25.5287 29.5267L31.9106 25.8418L25.5287 22.1576Z" fill="#F8BF3C"/>
</svg>
