<svg width="48" height="48" viewBox="0 0 48 48" fill="none" xmlns="http://www.w3.org/2000/svg">
<path d="M43.032 3H4.968C3.8811 3 3 3.8811 3 4.968V43.032C3 44.1189 3.8811 45 4.968 45H43.032C44.1189 45 45 44.1189 45 43.032V4.968C45 3.8811 44.1189 3 43.032 3Z" fill="#3178C6"/>
<path fill-rule="evenodd" clip-rule="evenodd" d="M27.3668 35.6394V40.2414C28.2029 40.6541 29.094 40.9445 30.0128 41.1039C31.0744 41.2999 32.1521 41.3963 33.2318 41.3919C34.284 41.3969 35.3338 41.2908 36.3638 41.0754C37.2885 40.8885 38.1708 40.5326 38.9663 40.0254C39.7047 39.5487 40.3134 38.8962 40.7378 38.1264C41.4977 36.5324 41.5979 34.7029 41.0167 33.0354C40.7715 32.4118 40.4061 31.8425 39.9413 31.3599C39.4423 30.8467 38.8756 30.4041 38.2567 30.0444C37.5443 29.6271 36.8041 29.2593 36.0413 28.9434C35.4413 28.6944 34.9013 28.4524 34.4213 28.2174C33.9949 28.0133 33.5869 27.7729 33.2018 27.4989C32.9001 27.2874 32.6381 27.0244 32.4277 26.7219C32.246 26.4472 32.1514 26.1242 32.1562 25.7949C32.1522 25.4918 32.2367 25.1942 32.3993 24.9384C32.5758 24.6707 32.8113 24.4469 33.0878 24.2844C33.4257 24.0854 33.7933 23.9421 34.1768 23.8599C34.6475 23.7553 35.1286 23.705 35.6107 23.7099C36.0163 23.7113 36.4212 23.7403 36.8228 23.7969C37.2564 23.8555 37.6854 23.9442 38.1068 24.0624C38.5353 24.1812 38.9545 24.3316 39.3607 24.5124C39.755 24.6881 40.1321 24.9 40.4873 25.1454V20.8509C39.7479 20.5712 38.9812 20.3701 38.1997 20.2509C37.2561 20.1136 36.3033 20.0489 35.3497 20.0574C34.3074 20.0518 33.2681 20.1701 32.2538 20.4099C31.3369 20.6194 30.465 20.9918 29.6798 21.5094C28.9503 21.9953 28.3479 22.6491 27.9232 23.4159C27.4732 24.2674 27.2505 25.2206 27.2767 26.1834C27.2435 27.4566 27.6629 28.7003 28.4603 29.6934C29.4385 30.7945 30.6721 31.6387 32.0527 32.1519C32.6827 32.4119 33.2703 32.6664 33.8153 32.9154C34.307 33.1342 34.7796 33.3936 35.2283 33.6909C35.5901 33.9263 35.9079 34.2233 36.1672 34.5684C36.3953 34.8814 36.5163 35.2596 36.5122 35.6469C36.5143 35.9371 36.4398 36.2227 36.2963 36.4749C36.1367 36.7459 35.9126 36.9732 35.6438 37.1364C35.3074 37.3414 34.9394 37.4894 34.5548 37.5744C34.0537 37.6864 33.5412 37.7393 33.0277 37.7319C32.0202 37.73 31.0207 37.5524 30.0742 37.2069C29.0855 36.8501 28.1685 36.3192 27.3668 35.6394ZM19.6357 24.1824H25.6357V20.3919H8.90625V24.1824H14.8792V41.0634H19.6357V24.1824Z" fill="white"/>
</svg>
