<svg width="93" height="82" viewBox="0 0 93 82" fill="none" xmlns="http://www.w3.org/2000/svg">
<path d="M26.95 7.6875H47.65C48.2825 7.6875 48.8 8.26406 48.8 8.96875V15.375H25.8V8.96875C25.8 8.26406 26.3175 7.6875 26.95 7.6875ZM18.9 8.96875V15.375H9.7C4.62563 15.375 0.5 19.9715 0.5 25.625V41H28.1H51.1H52.2788C56.9219 34.7379 63.9369 30.75 71.8 30.75C72.5762 30.75 73.3381 30.782 74.1 30.8621V25.625C74.1 19.9715 69.9744 15.375 64.9 15.375H55.7V8.96875C55.7 4.01992 52.0919 0 47.65 0H26.95C22.5081 0 18.9 4.01992 18.9 8.96875ZM46.5 56.375H32.7C30.1556 56.375 28.1 54.0848 28.1 51.25V46.125H0.5V66.625C0.5 72.2785 4.62563 76.875 9.7 76.875H52.2788C48.6706 72.0062 46.5 65.7441 46.5 58.9375C46.5 58.0727 46.5288 57.2238 46.6006 56.375H46.5ZM92.5 58.9375C92.5 52.8209 90.3191 46.9549 86.4371 42.6299C82.5551 38.3048 77.29 35.875 71.8 35.875C66.31 35.875 61.0449 38.3048 57.1629 42.6299C53.2809 46.9549 51.1 52.8209 51.1 58.9375C51.1 65.0541 53.2809 70.9201 57.1629 75.2451C61.0449 79.5702 66.31 82 71.8 82C77.29 82 82.5551 79.5702 86.4371 75.2451C90.3191 70.9201 92.5 65.0541 92.5 58.9375ZM71.8 46.125C73.065 46.125 74.1 47.2781 74.1 48.6875V56.375H78.7C79.965 56.375 81 57.5281 81 58.9375C81 60.3469 79.965 61.5 78.7 61.5H71.8C70.535 61.5 69.5 60.3469 69.5 58.9375V48.6875C69.5 47.2781 70.535 46.125 71.8 46.125Z" fill="white"/>
</svg>
