<svg width="93" height="82" viewBox="0 0 93 82" fill="none" xmlns="http://www.w3.org/2000/svg">
<path d="M23.5 10.25C23.5 4.59648 27.6256 0 32.7 0H83.3C88.3744 0 92.5 4.59648 92.5 10.25V56.375C92.5 62.0285 88.3744 66.625 83.3 66.625H48.915C47.2187 62.541 44.6169 59.0176 41.3825 56.375H55.7V51.25C55.7 48.4152 57.7556 46.125 60.3 46.125H69.5C72.0444 46.125 74.1 48.4152 74.1 51.25V56.375H83.3V10.25H32.7V18.1137C29.9975 16.368 26.8494 15.375 23.5 15.375V10.25ZM23.5 20.5C25.3122 20.5 27.1067 20.8977 28.781 21.6704C30.4553 22.443 31.9766 23.5755 33.2581 25.0032C34.5395 26.4309 35.556 28.1259 36.2495 29.9912C36.9431 31.8566 37.3 33.8559 37.3 35.875C37.3 37.8941 36.9431 39.8934 36.2495 41.7588C35.556 43.6241 34.5395 45.3191 33.2581 46.7468C31.9766 48.1745 30.4553 49.307 28.781 50.0797C27.1067 50.8523 25.3122 51.25 23.5 51.25C21.6878 51.25 19.8933 50.8523 18.219 50.0797C16.5447 49.307 15.0234 48.1745 13.7419 46.7468C12.4605 45.3191 11.444 43.6241 10.7505 41.7588C10.0569 39.8934 9.7 37.8941 9.7 35.875C9.7 33.8559 10.0569 31.8566 10.7505 29.9912C11.444 28.1259 12.4605 26.4309 13.7419 25.0032C15.0234 23.5755 16.5447 22.443 18.219 21.6704C19.8933 20.8977 21.6878 20.5 23.5 20.5ZM19.6619 56.375H27.3237C37.9181 56.375 46.5 65.9363 46.5 77.7238C46.5 80.0781 44.7894 82 42.6619 82H4.33812C2.21063 82 0.5 80.0941 0.5 77.7238C0.5 65.9363 9.08188 56.375 19.6619 56.375Z" fill="white"/>
</svg>
