<svg width="92" height="82" viewBox="0 0 92 82" fill="none" xmlns="http://www.w3.org/2000/svg">
<path d="M27.3368 1.19251C29.1155 2.88153 29.2593 5.74718 27.6602 7.62598L14.724 22.8082C13.9334 23.7381 12.8195 24.2885 11.6336 24.3075C10.4478 24.3265 9.31589 23.852 8.47144 22.979L1.26667 15.3879C-0.404257 13.604 -0.404257 10.7194 1.26667 8.93545C2.9376 7.15154 5.68655 7.15154 7.35749 8.93545L11.3282 13.1295L21.228 1.51513C22.8271 -0.363674 25.5401 -0.515497 27.3188 1.17353L27.3368 1.19251ZM27.3368 31.557C29.1155 33.246 29.2593 36.1117 27.6602 37.9905L14.724 53.1727C13.9334 54.1026 12.8195 54.653 11.6336 54.672C10.4478 54.6909 9.31589 54.2165 8.47144 53.3435L1.26667 45.7524C-0.422224 43.9685 -0.422224 41.0839 1.26667 39.3189C2.95557 37.554 5.68655 37.535 7.35749 39.3189L11.3282 43.513L21.228 31.8986C22.8271 30.0198 25.5401 29.868 27.3188 31.557H27.3368ZM40.2551 12.1617C40.2551 8.80261 42.8243 6.08878 46.0045 6.08878H86.2506C89.4307 6.08878 92 8.80261 92 12.1617C92 15.5207 89.4307 18.2346 86.2506 18.2346H46.0045C42.8243 18.2346 40.2551 15.5207 40.2551 12.1617ZM40.2551 42.5262C40.2551 39.1671 42.8243 36.4533 46.0045 36.4533H86.2506C89.4307 36.4533 92 39.1671 92 42.5262C92 45.8852 89.4307 48.5991 86.2506 48.5991H46.0045C42.8243 48.5991 40.2551 45.8852 40.2551 42.5262ZM28.7562 72.8907C28.7562 69.5316 31.3255 66.8178 34.5056 66.8178H86.2506C89.4307 66.8178 92 69.5316 92 72.8907C92 76.2497 89.4307 78.9635 86.2506 78.9635H34.5056C31.3255 78.9635 28.7562 76.2497 28.7562 72.8907ZM8.63314 63.7813C10.9204 63.7813 13.114 64.741 14.7313 66.4494C16.3487 68.1577 17.2573 70.4747 17.2573 72.8907C17.2573 75.3066 16.3487 77.6236 14.7313 79.3319C13.114 81.0403 10.9204 82 8.63314 82C6.34587 82 4.15228 81.0403 2.53494 79.3319C0.917597 77.6236 0.00898345 75.3066 0.00898345 72.8907C0.00898345 70.4747 0.917597 68.1577 2.53494 66.4494C4.15228 64.741 6.34587 63.7813 8.63314 63.7813Z" fill="white"/>
</svg>
