<svg width="92" height="82" viewBox="0 0 92 82" fill="none" xmlns="http://www.w3.org/2000/svg">
<path d="M23 0H28.75C31.9305 0 34.5 2.61741 34.5 5.85714V11.7143H17.25V5.85714C17.25 2.61741 19.8195 0 23 0ZM34.5 17.5714V76.1429C34.5 79.3826 31.9305 82 28.75 82H5.75C2.56953 82 0 79.3826 0 76.1429V65.3254C0 58.9924 1.68906 52.7692 4.8875 47.333C7.34922 43.1598 8.93047 38.5107 9.52344 33.6786L10.8711 22.6964C11.2305 19.7679 13.6742 17.5714 16.5852 17.5714H34.5ZM75.4328 17.5714C78.3258 17.5714 80.7875 19.7679 81.1469 22.6964L82.4766 33.6786C83.0695 38.5107 84.6508 43.1598 87.1125 47.333C90.3109 52.7692 92 58.9924 92 65.3254V76.1429C92 79.3826 89.4305 82 86.25 82H63.25C60.0695 82 57.5 79.3826 57.5 76.1429V17.5714H75.4328ZM57.5 5.85714C57.5 2.61741 60.0695 0 63.25 0H69C72.1805 0 74.75 2.61741 74.75 5.85714V11.7143H57.5V5.85714ZM51.75 17.5714V46.8571H40.25V17.5714H51.75Z" fill="white"/>
</svg>
