<svg width="92" height="82" viewBox="0 0 92 82" fill="none" xmlns="http://www.w3.org/2000/svg">
<path d="M40.8889 0H51.1111C53.9382 0 56.2222 2.29023 56.2222 5.125V15.375C56.2222 18.2098 53.9382 20.5 51.1111 20.5H40.8889C38.0618 20.5 35.7778 18.2098 35.7778 15.375V5.125C35.7778 2.29023 38.0618 0 40.8889 0ZM10.2222 10.25H30.6667V17.9375C30.6667 22.1816 34.1007 25.625 38.3333 25.625H53.6667C57.8993 25.625 61.3333 22.1816 61.3333 17.9375V10.25H81.7778C87.416 10.25 92 14.8465 92 20.5V71.75C92 77.4035 87.416 82 81.7778 82H10.2222C4.58403 82 0 77.4035 0 71.75V20.5C0 14.8465 4.58403 10.25 10.2222 10.25ZM28.1111 70.0363C28.1111 70.9812 28.8778 71.75 29.8201 71.75H62.1799C63.1222 71.75 63.8889 70.9812 63.8889 70.0363C63.8889 65.3117 60.0715 61.5 55.3757 61.5H36.6243C31.9125 61.5 28.1111 65.3277 28.1111 70.0363ZM46 56.375C48.7111 56.375 51.3112 55.2951 53.2282 53.3728C55.1452 51.4506 56.2222 48.8435 56.2222 46.125C56.2222 43.4065 55.1452 40.7994 53.2282 38.8772C51.3112 36.9549 48.7111 35.875 46 35.875C43.2889 35.875 40.6888 36.9549 38.7718 38.8772C36.8548 40.7994 35.7778 43.4065 35.7778 46.125C35.7778 48.8435 36.8548 51.4506 38.7718 53.3728C40.6888 55.2951 43.2889 56.375 46 56.375Z" fill="white"/>
</svg>
