<svg width="48" height="48" viewBox="0 0 48 48" fill="none" xmlns="http://www.w3.org/2000/svg">
<path d="M38.0886 15.4551H11.1523V34.3637H38.0886V15.4551Z" fill="white" stroke="#6DD0C7" stroke-width="0.294"/>
<path d="M45.7491 42.648V44.223C45.4416 44.733 44.9766 44.838 44.4066 44.838C30.7229 44.8268 17.0354 44.8305 3.35162 44.8268C3.25037 44.8268 3.14912 44.8305 3.04787 44.8268C2.37287 44.7968 2.00537 44.4255 2.02412 43.7505C2.03912 43.2668 2.09912 42.7868 2.13662 42.303C2.47787 38.0355 2.81162 33.7755 3.14912 29.5118C3.49787 25.128 3.85037 20.7443 4.20287 16.3605C4.47662 12.9405 4.75037 9.5243 5.03162 6.1043C5.08787 5.40305 5.42537 5.1143 6.13412 5.10305C6.53912 5.09555 6.94037 5.0993 7.34537 5.09555C18.2954 5.09555 29.2454 5.0918 40.1954 5.0918C40.6379 5.09555 41.0841 5.0918 41.5266 5.0993C42.1791 5.11055 42.5354 5.41805 42.6104 6.0668C42.6441 6.36305 42.5841 6.67055 42.6104 6.9668C42.7266 8.1518 42.8729 9.33305 42.9816 10.518C43.1204 12.0443 43.2366 13.5705 43.3641 15.0968L44.0841 23.8343C44.5229 29.1593 44.9579 34.4805 45.4079 39.8055C45.4866 40.758 45.6329 41.703 45.7491 42.648ZM23.0579 32.8418C24.5504 32.8305 25.9979 32.4818 27.2916 31.6755C31.2141 29.2343 32.7929 25.518 32.9616 21.0668C32.9766 20.6543 32.7741 20.3805 32.3091 20.3618C31.7916 20.3393 31.7429 20.6805 31.7091 21.0743C31.6379 21.8843 31.6116 22.7093 31.4429 23.5005C30.8991 26.0393 29.7779 28.2668 27.6741 29.8905C25.8516 31.2968 23.8454 31.9868 21.5166 31.4355C18.5804 30.7418 16.7841 28.7693 15.5391 26.178C14.7891 24.6105 14.4629 22.9343 14.4291 21.198C14.4179 20.583 14.1029 20.2605 13.6604 20.3768C13.2216 20.493 13.1504 20.8418 13.1654 21.2318C13.2479 23.8268 13.9079 26.253 15.3704 28.4168C17.2079 31.1205 19.6679 32.7593 23.0579 32.8418ZM32.2491 17.7518C33.2654 18.7718 34.1316 19.638 34.9904 20.508C35.2941 20.8155 35.6279 20.8905 35.9391 20.5718C36.2241 20.2793 36.1641 19.938 35.8829 19.6568C34.8741 18.6405 33.8654 17.628 32.8454 16.6268C32.5379 16.323 32.1516 16.248 31.8254 16.563C30.7716 17.5868 29.7291 18.6255 28.7091 19.683C28.4316 19.9718 28.3341 20.3693 28.7016 20.6693C29.0391 20.9468 29.3654 20.838 29.6541 20.5268C30.5016 19.6155 31.3529 18.708 32.2491 17.7518Z" fill="#5ECD77"/>
<path d="M39.6952 3.28516C40.2239 3.78766 40.1377 4.46266 40.1977 5.09641C29.2477 5.09641 18.2977 5.10016 7.34766 5.10016C7.49016 4.47391 7.23141 3.71641 7.95516 3.28516H39.6952Z" fill="#53C074"/>
</svg>
