<svg width="48" height="48" viewBox="0 0 48 48" fill="none" xmlns="http://www.w3.org/2000/svg">
<path fill-rule="evenodd" clip-rule="evenodd" d="M43.5258 9.65625H4.45488C1.98228 9.65625 -0.0193397 11.6775 0.000141 14.1305V29.0445C0.000141 31.5171 2.00191 33.5187 4.47451 33.5187H22.9797L31.4376 38.2284L29.5145 33.5187H43.5258C45.9985 33.5187 48 31.5171 48 29.0445V14.1305C48 11.6579 45.9985 9.65625 43.5258 9.65625ZM3.63077 13.11C3.0813 13.1493 2.66919 13.3455 2.39447 13.7184C2.11974 14.0716 2.02162 14.5229 2.08049 15.0332C3.23829 22.3921 4.3176 27.3569 5.31841 29.9276C5.71089 30.8695 6.16224 31.321 6.69208 31.2817C7.51627 31.2228 8.49746 30.0846 9.65526 27.8672C10.2636 26.6111 11.2056 24.7274 12.4811 22.2154C13.5407 25.9243 14.9929 28.711 16.818 30.5752C17.3282 31.105 17.858 31.3405 18.3682 31.3013C18.8196 31.262 19.1727 31.0265 19.4083 30.5948C19.6045 30.2219 19.683 29.7902 19.6438 29.2996C19.526 27.5139 19.7027 25.0217 20.1933 21.823C20.7034 18.5262 21.3314 16.1517 22.0967 14.7388C22.2537 14.4444 22.3125 14.1501 22.293 13.7969C22.2537 13.3455 22.0575 12.9727 21.6847 12.6783C21.3118 12.384 20.8996 12.2466 20.4483 12.2858C19.8793 12.3251 19.4475 12.5998 19.1532 13.1493C17.9365 15.3668 17.073 18.9579 16.5629 23.9423C15.8171 22.0585 15.1891 19.841 14.6986 17.231C14.4827 16.0732 13.9529 15.5238 13.0894 15.5826C12.5007 15.6219 12.0101 16.0143 11.6176 16.76L7.32004 24.9432C6.61358 22.0977 5.94637 18.6243 5.33804 14.5229C5.20067 13.5025 4.63158 13.0315 3.63077 13.11ZM41.4458 14.523C42.8391 14.8174 43.8792 15.5631 44.5856 16.7994C45.2136 17.8591 45.5275 19.1346 45.5275 20.6652C45.5275 22.6864 45.0173 24.5311 43.9968 26.2188C42.8194 28.1812 41.2888 29.1623 39.3853 29.1623C39.0517 29.1623 38.6985 29.123 38.3255 29.0445C36.9323 28.7502 35.8923 28.0046 35.1857 26.7683C34.5579 25.6889 34.2439 24.3938 34.2439 22.8827C34.2439 20.8615 34.7541 19.0168 35.7745 17.3488C36.9716 15.3865 38.5022 14.4053 40.3861 14.4053C40.7197 14.4053 41.073 14.4445 41.4458 14.523ZM40.6216 25.1394C41.3477 24.4919 41.8383 23.5303 42.113 22.2351C42.1915 21.7838 42.2503 21.2932 42.2503 20.783C42.2503 20.2139 42.1326 19.6056 41.8971 18.9972C41.6028 18.2319 41.2103 17.8198 40.7393 17.7217C40.0329 17.5843 39.3461 17.9768 38.6985 18.9384C38.1687 19.6841 37.835 20.469 37.6584 21.2736C37.5602 21.7249 37.521 22.2156 37.521 22.7061C37.521 23.2752 37.6387 23.8835 37.8742 24.4919C38.1687 25.2572 38.561 25.6692 39.032 25.7674C39.5226 25.8655 40.0524 25.6497 40.6216 25.1394ZM32.2814 16.7994C31.5749 15.5631 30.5153 14.8174 29.1416 14.523C28.7687 14.4445 28.4156 14.4053 28.0819 14.4053C26.1981 14.4053 24.6675 15.3865 23.4704 17.3488C22.4499 19.0168 21.9397 20.8615 21.9397 22.8827C21.9397 24.3938 22.2537 25.6889 22.8816 26.7683C23.5881 28.0046 24.6282 28.7502 26.0214 29.0445C26.3942 29.123 26.7475 29.1623 27.0812 29.1623C28.9846 29.1623 30.5153 28.1812 31.6927 26.2188C32.7132 24.5311 33.2233 22.6864 33.2233 20.6652C33.2233 19.1346 32.9093 17.8591 32.2814 16.7994ZM29.8088 22.2351C29.5342 23.5303 29.0435 24.4919 28.3174 25.1394C27.7483 25.6497 27.2185 25.8655 26.7279 25.7674C26.2569 25.6692 25.8644 25.2572 25.5701 24.4919C25.3346 23.8835 25.2168 23.2752 25.2168 22.7061C25.2168 22.2156 25.2561 21.7249 25.3543 21.2736C25.5308 20.469 25.8644 19.6841 26.3942 18.9384C27.0419 17.9768 27.7288 17.5843 28.4351 17.7217C28.9061 17.8198 29.2987 18.2319 29.593 18.9972C29.8285 19.6056 29.9462 20.2139 29.9462 20.783C29.9462 21.2932 29.907 21.7838 29.8088 22.2351Z" fill="#7F54B3"/>
</svg>
