<svg width="48" height="48" viewBox="0 0 48 48" fill="none" xmlns="http://www.w3.org/2000/svg">
<g clip-path="url(#clip0_274_28858)">
<path fill-rule="evenodd" clip-rule="evenodd" d="M45.06 12.4852C45.1632 13.2508 45.2208 14.0688 45.2208 14.952C45.2208 19.1712 44.8296 19.4089 36.0648 44.7457C43.2 40.5841 48 32.8536 48 24C48 19.8264 46.9344 15.9028 45.06 12.4852ZM24.4224 26.1L17.22 47.0227C22.08 48.4531 27.2304 48.3074 31.9704 46.6418C31.9056 46.5386 31.848 46.4278 31.8 46.3102L24.4224 26.1ZM40.2024 22.7883C40.2024 19.8219 39.1368 17.7668 38.2224 16.1684C37.008 14.1908 35.8656 12.5186 35.8656 10.541C35.8656 8.33542 37.5408 6.28125 39.8976 6.28125C40.0032 6.28125 40.104 6.2952 40.2072 6.3C35.9376 2.388 30.2496 0 24 0C15.6168 0 8.23921 4.30041 3.94801 10.8164C5.47681 10.8644 7.52879 10.8842 11.8896 10.5434C13.1832 10.4666 13.3344 12.3668 12.0432 12.518C12.0432 12.518 10.7424 12.672 9.2952 12.7488L18.036 38.7457L23.2872 22.9922L19.548 12.7465C18.2568 12.6721 17.0328 12.518 17.0328 12.518C15.7392 12.4412 15.8904 10.4642 17.184 10.541C22.1448 10.9226 24.684 10.9514 29.9016 10.541C31.1952 10.4642 31.3488 12.3644 30.0552 12.518C30.0552 12.518 28.752 12.6721 27.3072 12.7465L35.9808 38.5465C39.4056 27.1033 40.2024 25.1883 40.2024 22.7883ZM0 24C0 33.4992 5.52 41.7096 13.5264 45.6L2.07839 14.2324C0.746394 17.218 0 20.52 0 24Z" fill="white"/>
</g>
<defs>
<clipPath id="clip0_274_28858">
<rect width="48" height="48" fill="white"/>
</clipPath>
</defs>
</svg>
