<svg width="48" height="48" viewBox="0 0 48 48" fill="none" xmlns="http://www.w3.org/2000/svg">
<path d="M33.9349 20.6186C34.0189 20.3531 34.0849 20.1221 34.1524 19.8926C34.8358 17.2664 35.6595 14.6787 36.6199 12.1406C36.7845 11.6195 37.1007 11.1592 37.5282 10.8188C37.9558 10.4784 38.4752 10.2732 39.0199 10.2296C39.8059 10.1456 40.6399 10.0796 41.1724 10.8296C41.3226 11.0533 41.5172 11.2439 41.744 11.3894C41.9707 11.5349 42.225 11.6323 42.4909 11.6756C42.7599 11.7141 43.0236 11.7831 43.2769 11.8811C43.6279 12.0146 43.7614 11.8691 43.8574 11.5421C44.1574 10.4771 44.4739 9.42564 44.7889 8.37414C45.1399 7.17414 45.1399 7.18914 43.9789 6.77814C43.755 6.67857 43.5132 6.62513 43.2681 6.62101C43.023 6.61689 42.7796 6.66216 42.5524 6.75414C42.18 6.9301 41.7605 6.98048 41.3569 6.89772C40.9534 6.81495 40.5876 6.60351 40.3144 6.29514C39.6265 5.58797 38.7868 5.04634 37.8589 4.71114C35.1615 3.6991 32.2531 3.38036 29.4004 3.78414C28.0007 3.94589 26.6585 4.43454 25.4824 5.21064C25.3209 5.3378 25.1676 5.47507 25.0234 5.62164C26.5766 5.46798 28.1418 5.48408 29.6914 5.66964C30.2049 5.70325 30.706 5.84186 31.1637 6.07691C31.6214 6.31196 32.026 6.63843 32.3524 7.03614C32.9887 7.96426 33.3339 9.06093 33.3439 10.1861C33.4299 11.7263 33.2264 13.269 32.7439 14.7341C32.2849 16.3061 31.8439 17.9021 31.4014 19.4756C31.3414 19.6811 31.2919 19.8626 31.5709 19.9346C32.3509 20.1581 33.1129 20.3771 33.9349 20.6186Z" fill="#235EE1"/>
<path d="M26.4961 44.3999C26.8535 44.4346 27.2131 44.3608 27.528 44.1883C27.8429 44.0157 28.0985 43.7523 28.2616 43.4324C28.4947 43.0273 28.6699 42.5916 28.7821 42.1379C29.9431 37.3379 31.0961 32.5324 32.2411 27.7214C32.7121 25.7264 33.1606 23.7299 33.6436 21.7349C33.7411 21.3479 33.6436 21.1904 33.2686 21.1064C32.7601 20.9849 32.2531 20.8409 31.7446 20.6834C30.8131 20.4059 30.9946 20.4419 30.7171 21.2159C28.4311 27.7319 26.1416 34.2449 23.8486 40.7549C23.743 41.0218 23.6778 41.3028 23.6551 41.5889C23.6281 41.9676 23.6833 42.3476 23.817 42.703C23.9506 43.0583 24.1595 43.3805 24.4294 43.6475C24.6993 43.9146 25.0237 44.12 25.3804 44.2499C25.7371 44.3798 26.1177 44.4309 26.4961 44.3999Z" fill="#235EE1"/>
<path d="M3.03482 15.3829C3.08282 15.7819 3.13232 16.1209 3.18482 16.4479C3.53582 18.7699 3.89882 21.0979 4.23482 23.4139C4.57082 25.7299 4.92482 28.0939 5.26232 30.4279C5.61332 32.7859 5.96432 35.1319 6.32732 37.4914C6.54482 38.9794 6.77732 40.4659 6.99182 41.9659C7.03982 42.2809 7.14182 42.4249 7.52432 42.3649C9.72432 42.0019 11.9243 41.6519 14.1243 41.3149C17.2743 40.8184 20.4018 40.3474 23.5458 39.8509C23.6673 39.8269 23.7633 39.6814 23.8728 39.5854C23.7393 39.5134 23.5818 39.3799 23.4618 39.3919C21.7443 39.6334 20.0388 39.9004 18.3213 40.1659C14.8503 40.7104 11.3793 41.2429 7.92032 41.7979C7.55732 41.8579 7.43582 41.7739 7.38782 41.4229C7.18232 39.9109 6.96482 38.4109 6.73532 36.9124C6.23882 33.5749 5.71982 30.2359 5.22332 26.9104C4.67882 23.2819 4.14632 19.6414 3.59132 16.0009C3.53132 15.6019 3.66332 15.4204 4.06232 15.3724C4.76432 15.2749 5.46482 15.1549 6.15482 15.0454C9.00482 14.5864 11.8638 14.1139 14.7168 13.6549L22.2003 12.4189C24.5223 12.0439 26.8323 11.6689 29.1543 11.2819C30.2433 11.1004 31.3188 10.9309 32.4078 10.7254C32.5413 10.7014 32.6373 10.5079 32.7468 10.3984C32.5968 10.3384 32.4558 10.2769 32.3118 10.2289C32.2758 10.2169 32.2278 10.2409 32.1783 10.2529C30.8283 10.4824 29.4693 10.7119 28.1283 10.9309C25.2783 11.4019 22.4193 11.8624 19.5663 12.3334C16.9053 12.7684 14.2443 13.2169 11.5848 13.6519C8.85182 14.1019 6.11882 14.5519 3.38432 14.9944C3.08282 15.0439 2.92532 15.1279 3.03482 15.3829Z" fill="#235EE1"/>
<path d="M37.4993 11.3675C37.4265 11.3695 37.3538 11.3655 37.2817 11.3555C37.2096 11.6567 37.1728 11.9652 37.1722 12.275C37.3057 13.2545 37.4992 14.234 37.6567 15.2135C38.0917 17.8385 38.5282 20.474 38.9633 23.099C39.3983 25.724 39.8348 28.3595 40.2817 30.9845C40.5592 32.666 40.8503 34.346 41.1278 36.0155C41.1758 36.269 41.1277 36.4505 40.8127 36.5L33.8468 37.589C32.7468 37.758 31.6468 37.9395 30.5468 38.1335C30.4493 38.1455 30.3653 38.303 30.2812 38.399C30.4028 38.459 30.5107 38.5685 30.6202 38.5685C30.9712 38.5445 31.3103 38.4845 31.6478 38.435L39.3638 37.202C40.1378 37.0805 40.8998 36.9485 41.7338 36.815C40.3317 28.312 38.9202 19.8295 37.4993 11.3675Z" fill="#235EE1"/>
<path d="M28.3223 26.6056C28.3793 26.5664 28.4264 26.5146 28.4602 26.4542C28.4939 26.3939 28.5132 26.3265 28.5167 26.2575C28.5202 26.1884 28.5077 26.1195 28.4802 26.056C28.4528 25.9926 28.411 25.9363 28.3583 25.8916C27.5963 24.9916 26.8583 24.0781 26.0963 23.1706C23.9798 20.6206 21.8513 18.0541 19.7348 15.4906C19.5547 15.2738 19.4301 15.0163 19.3718 14.7406C19.3446 14.4823 19.4065 14.2224 19.5473 14.0041C19.6881 13.7859 19.8992 13.6223 20.1458 13.5406C20.4098 13.4375 20.7015 13.4294 20.9708 13.5178C21.2401 13.6062 21.4702 13.7856 21.6218 14.0251C23.7023 16.5166 25.7948 19.0081 27.8738 21.4996C28.3703 22.0996 28.8773 22.6846 29.3978 23.2996C29.4548 23.2604 29.5019 23.2086 29.5357 23.1482C29.5694 23.0879 29.5887 23.0205 29.5922 22.9515C29.5957 22.8824 29.5832 22.8135 29.5557 22.75C29.5283 22.6866 29.4865 22.6303 29.4338 22.5856C28.5998 21.5941 27.7643 20.5906 26.9303 19.5991C25.2488 17.5921 23.5808 15.5836 21.8873 13.5991C21.7436 13.4176 21.5639 13.268 21.3594 13.1596C21.1549 13.0512 20.9302 12.9865 20.6994 12.9694C20.4686 12.9523 20.2368 12.9834 20.0186 13.0605C19.8004 13.1376 19.6006 13.2592 19.4318 13.4176C19.2578 13.5595 19.1161 13.7369 19.0162 13.938C18.9163 14.139 18.8605 14.3591 18.8526 14.5835C18.8446 14.8079 18.8847 15.0314 18.9701 15.2391C19.0555 15.4467 19.1843 15.6337 19.3478 15.7876C21.9598 18.9446 24.5723 22.0971 27.1853 25.2451C27.5603 25.7101 27.9353 26.1451 28.3223 26.6056Z" fill="#235EE1"/>
<path d="M19.9782 21.5129C19.888 21.4388 19.7905 21.3739 19.6872 21.3194C18.8532 21.0044 18.0177 20.7194 17.1837 20.3999C16.9182 20.3024 16.7967 20.3999 16.6992 20.6294C15.1762 24.3764 13.6527 28.1219 12.1287 31.8659C12.0072 32.1434 12.0927 32.2769 12.3462 32.3744C13.1322 32.6894 13.9182 32.9909 14.6922 33.3419C15.1152 33.5354 15.2922 33.4394 15.4422 33.0149C16.8942 29.3024 18.3687 25.6019 19.8327 21.8999C19.8687 21.8159 19.9047 21.6944 19.9782 21.5129Z" fill="#235EE1"/>
<path d="M27.9465 26.6996C27.3465 25.9376 26.7855 25.3092 26.3265 24.6312C25.9155 24.0027 25.455 23.6757 24.6945 23.9907C24.5059 24.0475 24.3109 24.0803 24.114 24.0882L19.2645 24.9222C19.1377 24.9246 19.0146 24.9651 18.9111 25.0384C18.8076 25.1117 18.7285 25.2144 18.684 25.3332C18.369 26.2332 18.0315 27.1107 17.7045 28.0062C17.6729 28.1331 17.6528 28.2626 17.6445 28.3932C21.09 27.8382 24.4485 27.2816 27.9465 26.6996Z" fill="#235EE1"/>
<path d="M14.3561 25.626C12.3731 25.953 10.4861 26.2545 8.53906 26.5695C8.67256 27.4695 8.81656 28.335 8.91406 29.2065C8.96206 29.5815 9.11956 29.6295 9.45856 29.5815C10.4501 29.4315 11.4536 29.2905 12.4586 29.1705C12.5926 29.1662 12.7225 29.1227 12.832 29.0454C12.9416 28.9681 13.0261 28.8603 13.0751 28.7355C13.4381 27.864 13.8251 26.994 14.2001 26.1225C14.2586 25.977 14.2826 25.8555 14.3561 25.626Z" fill="#235EE1"/>
<path d="M35.6171 33.1728C34.4321 32.4468 33.2591 31.7343 31.9766 30.9603C32.0246 31.1898 32.0006 31.4568 32.1266 31.5889C32.3574 31.8444 32.6317 32.0572 32.9366 32.2174C33.3476 32.4469 33.7826 32.6044 34.2071 32.8174C34.5149 32.9275 34.7818 33.129 34.9721 33.3949C35.1624 33.6608 35.2671 33.9784 35.2721 34.3054C35.2876 34.4355 35.3246 34.5623 35.3816 34.6804L35.5031 34.6203C35.5333 34.5833 35.5595 34.543 35.5811 34.5003C35.9095 33.9917 36.121 33.4166 36.2004 32.8164C36.2798 32.2162 36.225 31.6058 36.0401 31.0294C35.9179 30.3584 35.6485 29.7228 35.2511 29.1685C34.8537 28.6142 34.3383 28.1549 33.7421 27.8238C33.3791 27.6423 33.1421 27.7999 32.8841 27.9739C32.7405 28.0539 32.6273 28.1789 32.5617 28.3295C32.4961 28.4802 32.4818 28.6483 32.5211 28.8078C32.6915 28.7196 32.8523 28.6141 33.0011 28.4929C33.3011 28.1779 33.5816 28.2514 33.9206 28.4689C34.6066 29.0227 35.1275 29.7542 35.4266 30.5836C35.7258 31.413 35.7916 32.3086 35.6171 33.1728Z" fill="#235EE1"/>
<path d="M11.2969 38.2393C11.3445 38.2647 11.3948 38.2848 11.4469 38.2993C12.6469 36.7993 13.8469 35.2993 15.0754 33.7633C14.8939 33.6658 14.7844 33.5938 14.6644 33.5458C13.8904 33.2308 13.1164 32.9458 12.3544 32.6143C11.9914 32.4643 11.8834 32.5663 11.8579 32.9413C11.7604 33.9568 11.6404 34.9738 11.5309 36.0013C11.4424 36.7498 11.3689 37.4998 11.2969 38.2393Z" fill="#235EE1"/>
<path d="M19.095 17.3896C18.7873 17.3947 18.4879 17.4903 18.2342 17.6645C17.9805 17.8387 17.7838 18.0838 17.6685 18.3691C17.487 18.8191 17.3175 19.2691 17.112 19.6996C16.9905 19.9531 17.028 20.1106 17.3175 20.2081C18.1275 20.4856 18.9375 20.7886 19.737 21.1081C20.028 21.2176 20.148 21.1201 20.2575 20.8666C20.439 20.4076 20.6445 19.9471 20.838 19.4881C20.9801 19.2342 21.0166 18.9346 20.9397 18.654C20.8629 18.3733 20.6787 18.1342 20.427 17.9881C19.9991 17.7546 19.5538 17.5545 19.095 17.3896Z" fill="#235EE1"/>
<path d="M33.2831 25.734C34.2986 25.6005 35.3021 25.4685 36.2951 25.311C36.3791 25.299 36.4886 25.0815 36.4766 24.984C36.3551 24.186 36.2111 23.376 36.0416 22.584C36.0121 22.5099 35.9645 22.4445 35.9032 22.3937C35.8419 22.3428 35.7688 22.3082 35.6906 22.293C35.1821 22.329 34.6751 22.4025 34.1666 22.4865C33.9131 22.5225 33.7316 22.6365 33.8756 23.007C34.3346 22.947 34.8071 22.8735 35.2781 22.8375C35.3876 22.8255 35.5931 22.9215 35.6051 22.9875C35.7386 23.5875 35.8346 24.2205 35.9561 24.8625C35.1701 24.972 34.4321 25.068 33.7061 25.1625C33.4406 25.215 33.1976 25.275 33.2831 25.734Z" fill="#235EE1"/>
<path d="M33.9337 20.6187C33.1237 20.3772 32.3498 20.1597 31.5877 19.9407C31.3102 19.8567 31.3582 19.6872 31.4182 19.4817C31.8682 17.8977 32.3017 16.3137 32.7607 14.7402C33.2425 13.2748 33.446 11.7323 33.3607 10.1922C33.3546 9.06634 33.0091 7.96854 32.3692 7.04217C32.0412 6.6445 31.6349 6.31852 31.1756 6.08448C30.7163 5.85043 30.2138 5.71333 29.6992 5.68167C28.1496 5.49605 26.5844 5.47995 25.0312 5.63367C25.1812 5.50017 25.3222 5.34267 25.4902 5.22267C26.6663 4.44657 28.0085 3.95792 29.4083 3.79617C32.2589 3.39614 35.1643 3.71215 37.8623 4.71567C38.793 5.04608 39.6341 5.58835 40.3192 6.29967C40.5924 6.60804 40.9582 6.81948 41.3617 6.90225C41.7653 6.98501 42.1848 6.93463 42.5572 6.75867C42.7845 6.66669 43.0279 6.62142 43.2729 6.62554C43.518 6.62966 43.7598 6.6831 43.9837 6.78267C45.1447 7.19367 45.1448 7.18167 44.7938 8.37867C44.4788 9.42867 44.1652 10.4787 43.8622 11.5467C43.7647 11.8737 43.6327 12.0057 43.2817 11.8857C43.0284 11.7876 42.7647 11.7187 42.4957 11.6802C42.2278 11.6432 41.971 11.5485 41.7433 11.4024C41.5157 11.2563 41.3225 11.0624 41.1772 10.8342C40.9113 10.5417 40.5682 10.3302 40.1874 10.2241C39.8066 10.118 39.4036 10.1215 39.0247 10.2342C38.48 10.2778 37.9606 10.4829 37.5331 10.8233C37.1055 11.1638 36.7893 11.624 36.6247 12.1452C35.6643 14.6832 34.8406 17.2709 34.1572 19.8972C34.0912 20.1222 34.0192 20.3397 33.9337 20.6187Z" fill="#235EE1"/>
<path d="M26.4973 44.4002C26.1192 44.4314 25.7389 44.3805 25.3823 44.2509C25.0257 44.1214 24.7013 43.9164 24.4314 43.6499C24.1614 43.3833 23.9523 43.0616 23.8182 42.7067C23.6842 42.3518 23.6284 41.9721 23.6548 41.5937C23.6775 41.3076 23.7427 41.0265 23.8483 40.7597C26.1343 34.2407 28.4283 27.7302 30.7303 21.2282C30.9958 20.4542 30.8278 20.4302 31.7578 20.6957C32.2663 20.8457 32.7733 20.9957 33.2818 21.1187C33.6568 21.2027 33.7528 21.3602 33.6568 21.7472C33.1723 23.7422 32.7253 25.7387 32.2543 27.7337C31.1053 32.5337 29.9523 37.3392 28.7953 42.1502C28.6831 42.6039 28.5079 43.0396 28.2748 43.4447C28.1051 43.7609 27.8461 44.0202 27.5299 44.1901C27.2138 44.36 26.8547 44.4331 26.4973 44.4002Z" fill="#235EE1"/>
<path d="M3.03469 15.3823C2.92519 15.1288 3.08269 15.0433 3.39769 14.9953C6.13069 14.5603 8.86369 14.0953 11.5982 13.6528C14.2592 13.2178 16.9202 12.7693 19.5797 12.3343C22.4297 11.8633 25.2887 11.4028 28.1417 10.9318C29.4917 10.7143 30.8507 10.4818 32.1917 10.2538C32.2397 10.2418 32.2892 10.2178 32.3252 10.2298C32.4752 10.2778 32.6162 10.3393 32.7602 10.3993C32.6507 10.5088 32.5547 10.6993 32.4212 10.7263C31.3442 10.9318 30.2567 11.1013 29.1677 11.2828C26.8457 11.6578 24.5357 12.0328 22.2137 12.4198L14.7302 13.6498C11.8762 14.1218 9.02219 14.5853 6.16819 15.0403C5.46619 15.1498 4.77769 15.2818 4.07569 15.3673C3.67669 15.4153 3.54319 15.5968 3.60469 15.9958C4.16119 19.6243 4.69369 23.2648 5.23669 26.9053C5.73319 30.2428 6.25219 33.5818 6.74869 36.9073C6.97819 38.4073 7.19869 39.9193 7.40119 41.4178C7.44919 41.7688 7.55119 41.8528 7.93369 41.7928C11.3927 41.2363 14.8637 40.7038 18.3347 40.1608C20.0522 39.8953 21.7577 39.6283 23.4752 39.3868C23.5967 39.3748 23.7527 39.5083 23.8862 39.5803C23.7767 39.6778 23.6807 39.8218 23.5592 39.8458C20.4272 40.3458 17.2867 40.8338 14.1377 41.3098C11.9377 41.6488 9.73769 41.9988 7.53769 42.3598C7.16269 42.4198 7.05319 42.2758 7.00519 41.9608C6.78769 40.4728 6.57019 38.9863 6.34069 37.4863C5.98969 35.1283 5.62669 32.7823 5.27569 30.4228C4.92469 28.0888 4.58569 25.7428 4.24819 23.4088L3.19819 16.4428C3.13219 16.1188 3.08269 15.7933 3.03469 15.3823Z" fill="#235EE1"/>
<path d="M37.5002 11.3666L41.7572 36.8366C40.9232 36.9701 40.1612 37.1021 39.3872 37.2236L31.6712 38.4566C31.3322 38.5046 30.9812 38.5661 30.6437 38.5901C30.5342 38.6021 30.4142 38.4806 30.3047 38.4206C30.3887 38.3231 30.4742 38.1791 30.5702 38.1551C31.6702 37.9611 32.7702 37.7796 33.8702 37.6106C36.1922 37.2476 38.5202 36.8726 40.8362 36.5216C41.1512 36.4736 41.1872 36.2921 41.1512 36.0371C40.8737 34.3556 40.5827 32.6876 40.3052 31.0061C39.8702 28.3811 39.4337 25.7456 38.9867 23.1206C38.5397 20.4956 38.1152 17.8601 37.6802 15.2351C37.5152 14.2496 37.3337 13.2776 37.2002 12.2996C37.2021 11.9899 37.2389 11.6815 37.3097 11.3801C37.3726 11.3694 37.4364 11.3648 37.5002 11.3666Z" fill="#235EE1"/>
<path d="M28.3223 26.605C27.9353 26.146 27.5603 25.705 27.1853 25.255C24.5733 22.098 21.9608 18.9455 19.3478 15.7975C19.1843 15.6437 19.0555 15.4567 18.9701 15.249C18.8847 15.0414 18.8446 14.8179 18.8526 14.5935C18.8605 14.3691 18.9163 14.149 19.0162 13.9479C19.1161 13.7468 19.2578 13.5694 19.4318 13.4275C19.5989 13.2659 19.7983 13.1415 20.0169 13.0624C20.2355 12.9833 20.4684 12.9512 20.7002 12.9684C20.932 12.9855 21.1576 13.0514 21.3622 13.1618C21.5668 13.2722 21.7457 13.4246 21.8873 13.609C23.5808 15.592 25.2488 17.6125 26.9303 19.609C27.7643 20.6005 28.5803 21.604 29.4338 22.5955C29.4865 22.6402 29.5283 22.6965 29.5557 22.76C29.5832 22.8234 29.5957 22.8924 29.5922 22.9614C29.5887 23.0305 29.5694 23.0978 29.5357 23.1582C29.5019 23.2185 29.4548 23.2703 29.3978 23.3095C28.8773 22.693 28.3703 22.1005 27.8738 21.5095C25.7993 19.009 23.6993 16.519 21.6218 14.0275C21.4732 13.7849 21.2431 13.6029 20.9728 13.5142C20.7024 13.4254 20.4093 13.4357 20.1458 13.543C19.8978 13.6226 19.6851 13.7856 19.544 14.0045C19.4028 14.2233 19.342 14.4843 19.3718 14.743C19.4195 15.0223 19.5454 15.2823 19.7348 15.493C21.8513 18.0565 23.9678 20.6095 26.0963 23.173C26.8463 24.073 27.5963 24.9865 28.3583 25.894C28.4105 25.9388 28.4517 25.9949 28.4788 26.058C28.5059 26.1212 28.5182 26.1897 28.5148 26.2584C28.5113 26.327 28.4921 26.3939 28.4588 26.454C28.4254 26.5141 28.3787 26.5658 28.3223 26.605Z" fill="#235EE1"/>
<path d="M19.9773 21.513C19.9173 21.6945 19.8798 21.804 19.8273 21.924C18.3633 25.6245 16.8888 29.325 15.4368 33.039C15.2673 33.462 15.1098 33.5595 14.6868 33.366C13.9248 33.015 13.1268 32.7135 12.3408 32.3985C12.0753 32.289 12.0018 32.169 12.1233 31.89C13.6593 28.153 15.1833 24.408 16.6953 20.655C16.7928 20.4135 16.9128 20.316 17.1798 20.4255C18.0138 20.7405 18.8493 21.0255 19.6833 21.345C19.79 21.3841 19.8894 21.4409 19.9773 21.513ZM17.1273 20.913C16.9218 21.4335 16.7283 21.8925 16.5468 22.3515C15.3008 25.4115 14.0508 28.4715 12.7968 31.5315C12.6468 31.8945 12.7248 32.04 13.0623 32.16C13.5476 32.3285 14.0238 32.5222 14.4888 32.7405C14.8518 32.922 14.9973 32.85 15.1413 32.475C16.0848 30.0555 17.0403 27.6495 18.0078 25.23C18.4668 24.081 18.9078 22.932 19.3863 21.735C18.6228 21.465 17.9088 21.1995 17.1228 20.9085L17.1273 20.913Z" fill="#235EE1"/>
<path d="M27.9478 26.7C24.4528 27.2805 21.0898 27.825 17.6562 28.3935C17.6656 28.2631 17.6856 28.1336 17.7162 28.0065C18.0432 27.1065 18.3942 26.229 18.6957 25.3335C18.7382 25.2134 18.8168 25.1094 18.9208 25.0358C19.0247 24.9623 19.1489 24.9227 19.2762 24.9225L24.1257 24.0885C24.3216 24.0777 24.516 24.048 24.7063 24C25.4683 23.7 25.9152 24.024 26.3383 24.6405C26.7867 25.323 27.3433 25.9395 27.9478 26.7ZM18.3207 27.801C21.2712 27.3165 24.1377 26.8335 27.0642 26.349C26.5437 25.6965 26.0967 25.116 25.6257 24.549C25.5681 24.4991 25.5008 24.4615 25.428 24.4385C25.3553 24.4156 25.2786 24.4077 25.2028 24.4155C24.7798 24.4635 24.3688 24.537 23.9578 24.609C22.5193 24.8505 21.0793 25.0935 19.6528 25.359C19.4713 25.395 19.2027 25.509 19.1442 25.65C18.8412 26.3265 18.5997 27.027 18.3207 27.801Z" fill="#235EE1"/>
<path d="M14.354 25.626C14.282 25.8555 14.2445 25.977 14.204 26.097C13.829 26.9685 13.442 27.8385 13.079 28.71C13.0335 28.8372 12.9499 28.9472 12.8396 29.0251C12.7292 29.1029 12.5975 29.1448 12.4625 29.145C11.459 29.2665 10.4675 29.3985 9.46247 29.556C9.12347 29.604 8.96597 29.556 8.91797 29.181C8.80847 28.323 8.67647 27.4635 8.54297 26.544C10.484 26.25 12.3695 25.95 14.354 25.626ZM13.604 26.2425C12.152 26.472 10.811 26.6775 9.49247 26.907C9.35897 26.931 9.14147 27.1485 9.14147 27.258C9.18645 27.7829 9.26714 28.3041 9.38297 28.818C9.41542 28.8783 9.46223 28.9297 9.51926 28.9676C9.57629 29.0056 9.64179 29.0289 9.70997 29.0355C10.532 28.938 11.36 28.83 12.1655 28.6965C12.3397 28.6817 12.5012 28.5993 12.6155 28.467C12.962 27.7665 13.253 27.0405 13.604 26.2425Z" fill="#235EE1"/>
<path d="M35.6152 33.172C35.792 32.3116 35.7273 31.4191 35.4285 30.5932C35.1296 29.7673 34.6081 29.0401 33.9218 28.492C33.862 28.4292 33.7897 28.3796 33.7096 28.3465C33.6295 28.3133 33.5433 28.2974 33.4567 28.2996C33.37 28.3019 33.2848 28.3223 33.2065 28.3596C33.1282 28.3969 33.0586 28.4502 33.0023 28.516C32.8496 28.6377 32.6876 28.747 32.5178 28.843C32.4785 28.6834 32.4928 28.5154 32.5584 28.3647C32.624 28.214 32.7372 28.0891 32.8807 28.009C32.9887 27.8952 33.1304 27.8192 33.2849 27.7922C33.4395 27.7652 33.5986 27.7886 33.7388 27.859C34.3336 28.1884 34.8482 28.6452 35.2457 29.1968C35.6433 29.7484 35.9139 30.3811 36.0382 31.0495C36.2232 31.626 36.2779 32.2364 36.1986 32.8366C36.1192 33.4368 35.9077 34.0119 35.5792 34.5205C35.5551 34.5598 35.527 34.5965 35.4952 34.63C35.4712 34.654 35.4473 34.654 35.3738 34.69C35.3222 34.5699 35.2855 34.444 35.2643 34.315C35.2593 33.9881 35.1546 33.6705 34.9643 33.4046C34.774 33.1387 34.5071 32.9372 34.1992 32.827C33.7762 32.6215 33.3277 32.464 32.9287 32.227C32.6244 32.066 32.3503 31.8533 32.1188 31.5985C31.9973 31.465 32.0213 31.1995 31.9688 30.97C33.2573 31.732 34.4302 32.446 35.6152 33.172Z" fill="#235EE1"/>
<path d="M11.2969 38.2396C11.3689 37.4896 11.4304 36.7516 11.5144 36.0016C11.6239 34.9861 11.7559 33.9691 11.8414 32.9416C11.8774 32.5666 11.9749 32.4571 12.3379 32.6146C13.0999 32.9416 13.8739 33.2311 14.6479 33.5461C14.7694 33.5941 14.8774 33.6676 15.0589 33.7636C13.8259 35.2996 12.6274 36.7996 11.4304 38.2996C11.3847 38.2824 11.3401 38.2624 11.2969 38.2396ZM11.9134 36.8371C11.9494 36.8491 11.9854 36.8491 12.0109 36.8611C12.7729 35.8936 13.5229 34.9381 14.3089 33.9346C13.5949 33.6571 12.9784 33.4141 12.3139 33.1486C12.1789 34.4296 12.0469 35.6401 11.9134 36.8371Z" fill="#235EE1"/>
<path d="M19.0955 17.3896C19.5558 17.5501 20.001 17.7509 20.426 17.9896C20.6776 18.1357 20.8618 18.3748 20.9387 18.6555C21.0156 18.9361 20.979 19.2357 20.837 19.4896C20.6435 19.9486 20.438 20.3896 20.2565 20.8681C20.159 21.1216 20.027 21.2191 19.736 21.1096C18.938 20.7946 18.128 20.5096 17.3165 20.2096C17.0255 20.1121 17.0015 19.9561 17.111 19.7011C17.3045 19.2661 17.474 18.8011 17.6675 18.3706C17.7804 18.0833 17.9767 17.8362 18.2312 17.6614C18.4857 17.4866 18.7867 17.3919 19.0955 17.3896ZM17.6195 19.7896C18.3215 20.0551 18.986 20.3101 19.6385 20.5276C19.7105 20.5516 19.88 20.4436 19.9295 20.3461C20.099 19.9951 20.2295 19.6321 20.4005 19.2691C20.4427 19.2012 20.471 19.1254 20.4835 19.0464C20.496 18.9673 20.4926 18.8866 20.4735 18.8088C20.4543 18.7311 20.4198 18.658 20.372 18.5938C20.3242 18.5297 20.264 18.4757 20.195 18.4351C19.8526 18.2308 19.4815 18.0791 19.094 17.9851C18.9015 17.9333 18.6965 17.9571 18.5211 18.0517C18.3456 18.1462 18.213 18.3044 18.1505 18.4936C17.9705 18.9136 17.8145 19.3126 17.621 19.8001L17.6195 19.7896Z" fill="#235EE1"/>
<path d="M33.2834 25.7336C33.1859 25.2746 33.4334 25.2131 33.7064 25.1771C34.4324 25.0796 35.1584 24.9836 35.9564 24.8771C35.8349 24.2366 35.7389 23.6186 35.6054 23.0021C35.5934 22.9301 35.3879 22.8326 35.2784 22.8521C34.8074 22.8881 34.3349 22.9616 33.8759 23.0216C33.7424 22.6466 33.9239 22.5371 34.1669 22.5011C34.6754 22.4291 35.1824 22.3511 35.6909 22.3076C35.77 22.3205 35.8443 22.3542 35.906 22.4054C35.9677 22.4565 36.0146 22.5232 36.0419 22.5986C36.2109 23.3986 36.3559 24.1986 36.4769 24.9986C36.4889 25.0961 36.3674 25.3136 36.2954 25.3256C35.3024 25.4681 34.3109 25.5896 33.2834 25.7336Z" fill="#235EE1"/>
<path d="M17.1253 20.9082C17.9113 21.1992 18.6253 21.4527 19.3873 21.7302C18.9163 22.9302 18.4558 24.0762 18.0088 25.2252C17.0533 27.6447 16.0858 30.0507 15.1423 32.4702C14.9923 32.8452 14.8423 32.9202 14.4898 32.7357C14.0271 32.5123 13.5506 32.3184 13.0633 32.1552C12.7243 32.0337 12.6523 31.8897 12.7978 31.5267C14.0558 28.4667 15.3058 25.4067 16.5478 22.3467C16.7263 21.8877 16.9078 21.4287 17.1253 20.9082Z" fill="#235EE1"/>
<path d="M18.3203 27.8021C18.6113 27.0281 18.8408 26.3381 19.1303 25.6616C19.1903 25.5116 19.4573 25.4081 19.6388 25.3706C21.0773 25.1051 22.5173 24.8621 23.9438 24.6206C24.3548 24.5486 24.7778 24.4706 25.1888 24.4271C25.2646 24.4203 25.3411 24.4286 25.4137 24.4515C25.4863 24.4744 25.5536 24.5115 25.6118 24.5606C26.0828 25.1291 26.5433 25.7096 27.0503 26.3606C24.1373 26.8346 21.2723 27.2996 18.3203 27.8021Z" fill="#235EE1"/>
<path d="M13.6066 26.2422C13.2556 27.0402 12.9661 27.7662 12.6151 28.4547C12.5009 28.5871 12.3393 28.6694 12.1651 28.6842C11.3551 28.8177 10.5331 28.9257 9.7096 29.0232C9.6001 29.0352 9.3946 28.9017 9.3826 28.8057C9.26495 28.2921 9.18424 27.7708 9.1411 27.2457C9.1291 27.1362 9.3466 26.9187 9.4921 26.8947C10.8121 26.6772 12.1516 26.4717 13.6066 26.2422Z" fill="#235EE1"/>
<path d="M11.9102 36.8369C12.0437 35.6279 12.1757 34.4369 12.3212 33.1484C12.9737 33.4019 13.6037 33.6569 14.3162 33.9344C13.5302 34.9379 12.7682 35.8934 12.0182 36.8609C11.9811 36.8587 11.9447 36.8506 11.9102 36.8369Z" fill="#235EE1"/>
<path d="M17.6211 19.8001C17.8146 19.3156 17.9721 18.9166 18.1536 18.5176C18.2156 18.3279 18.3474 18.1688 18.5223 18.0727C18.6973 17.9766 18.9022 17.9506 19.0956 18.0001C19.4848 18.0887 19.8568 18.2407 20.1966 18.4501C20.3341 18.5338 20.4329 18.6684 20.4714 18.8247C20.5099 18.981 20.485 19.1462 20.4021 19.2841C20.2521 19.6351 20.1021 20.0101 19.9311 20.3611C19.8831 20.4451 19.7136 20.5666 19.6401 20.5426C18.9756 20.3161 18.3216 20.0626 17.6211 19.8001Z" fill="#235EE1"/>
</svg>
