<svg width="117" height="32" viewBox="0 0 117 32" fill="none" xmlns="http://www.w3.org/2000/svg">
<path d="M13.6476 2.94501C15.9102 3.37598 17.8855 4.633 19.2503 6.39282C20.5432 8.04489 21.3333 10.1639 21.3333 12.4265C21.3333 13.899 20.5073 16.1616 18.9989 18.927C19.4658 19.7172 19.9686 20.5791 20.5432 21.5129C22.4467 18.2088 23.8833 14.8687 23.8833 12.4265C23.8833 9.66105 23.0213 7.11111 21.5488 5.06397C20.1482 3.12458 18.2447 1.58025 15.982 0.754209C14.7609 0.251403 13.3962 0 11.9596 0C5.35129 0 0 5.56678 0 12.4265C0 17.4186 5.99776 26.0741 9.55331 30.7789C10.1279 31.569 11.0258 32 11.9596 32C12.8934 32 13.7912 31.569 14.3659 30.7789C15.1201 29.8092 15.9461 28.6599 16.844 27.4029C16.3053 26.6128 15.8025 25.8227 15.2997 25.0325C14.4018 26.3255 13.4321 27.6543 12.3906 29.055C12.211 29.3064 11.78 29.3064 11.5645 29.055C5.92593 21.6207 2.58586 15.4074 2.58586 12.4265C2.58586 7.11111 6.78788 2.76543 11.9596 2.76543C12.5342 2.76543 13.073 2.83726 13.6476 2.94501Z" fill="#ED7819"/>
<path d="M19.108 27.4029C19.9699 28.6599 20.8319 29.8092 21.5861 30.7789C22.1607 31.569 23.0586 32 23.9924 32C24.9261 32 25.824 31.569 26.3986 30.7789C29.9183 26.0741 35.916 17.3827 35.916 12.4265C35.916 5.56678 30.5648 0 23.9564 0C22.5199 0 21.1551 0.251403 19.8981 0.754209C20.76 1.40067 21.5861 2.11897 22.2685 2.94501C22.8072 2.83726 23.3818 2.76543 23.9564 2.76543C29.1282 2.76543 33.3302 7.0752 33.3302 12.4265C33.3302 15.4074 29.9901 21.6207 24.3515 29.055C24.1719 29.3064 23.741 29.3064 23.5255 29.055C22.4839 27.6543 21.5142 26.3255 20.6164 25.0325C19.108 22.8058 17.815 20.7587 16.8453 18.927C15.3369 16.1257 14.5468 13.8631 14.5468 12.4265C14.5468 10.1279 15.3369 8.04489 16.6298 6.39282C15.9475 5.81818 15.1573 5.38721 14.2954 5.06397C12.8229 7.11111 11.9609 9.66105 11.9609 12.4265C11.9609 14.8687 13.3975 18.2088 15.301 21.5129C16.4862 23.56 17.815 25.5713 19.108 27.4029Z" fill="#ED7819"/>
<path d="M55.2018 9.94826V20.0762C55.2018 24.7451 52.7237 27.1873 47.947 27.1873C43.1345 27.1873 40.8359 24.781 40.8359 20.0403V9.8046C40.8359 9.15813 41.3387 8.5835 42.093 8.5835C42.8831 8.5835 43.4218 9.15813 43.4218 9.8046V19.9685C43.4218 23.4522 44.8584 24.8888 47.947 24.8888C50.9998 24.8888 52.616 23.524 52.616 20.0403V9.94826C52.616 9.19405 53.1547 8.5835 53.873 8.5835C54.6631 8.5835 55.2018 9.19405 55.2018 9.94826Z" fill="white"/>
<path d="M69.9621 20.6151C69.9621 24.8889 67.6276 27.1875 63.4615 27.1875C62.3841 27.1875 61.4862 27.0079 60.7679 26.7565V30.5275C60.7679 31.174 60.301 31.7127 59.5109 31.7127C58.7567 31.7127 58.2539 31.174 58.2539 30.5275V15.5152C58.2539 14.8687 58.7208 14.4377 59.3313 14.4377C60.0137 14.4377 60.337 14.8687 60.4088 15.5152L60.4806 16.4849C61.2348 15.2997 62.5278 14.4377 64.4672 14.4377C67.879 14.4377 69.9621 16.4131 69.9621 20.6151ZM67.4481 20.7587C67.4481 17.8496 66.1551 16.5926 64.0362 16.5926C62.1327 16.5926 60.7679 17.9215 60.7679 19.6454H60.732V24.5298C61.4144 24.8171 62.2404 25.1044 63.3179 25.1044C65.8678 25.0685 67.4481 23.8115 67.4481 20.7587Z" fill="white"/>
<path d="M87.7413 13.432C87.7413 14.1144 87.2385 14.4735 86.6639 14.4735C86.0174 14.4735 85.7301 14.258 85.5505 13.6834C85.1554 12.7855 84.3653 10.8461 81.2407 10.8461C77.7211 10.8461 75.4226 13.0728 75.4226 17.6699C75.4226 22.4825 77.9007 24.8529 81.9231 24.8529C83.9703 24.8529 85.2632 24.2423 85.8737 24.0268C86.1251 23.955 86.3406 23.8832 86.6279 23.8832C87.2385 23.8832 87.6336 24.3501 87.6336 24.9247C87.6336 25.5352 87.3822 25.8226 86.9153 26.1099C85.766 26.7563 83.6111 27.1873 81.6358 27.1873C76.1768 27.1873 72.8008 23.955 72.8008 17.8495C72.8008 11.8517 76.1049 8.5835 81.1689 8.5835C85.7301 8.5835 87.7413 11.2771 87.7413 13.432Z" fill="white"/>
<path d="M90.4336 10.6311C90.4336 9.66141 91.116 8.94312 92.0497 8.94312C93.0194 8.94312 93.6659 9.66141 93.6659 10.6311C93.6659 11.6008 93.0194 12.3191 92.0497 12.3191C91.116 12.3191 90.4336 11.6008 90.4336 10.6311ZM93.2349 15.5514V25.9667C93.2349 26.6132 92.7681 27.1519 91.9779 27.1519C91.2237 27.1519 90.7209 26.6132 90.7209 25.9667V15.5514C90.7209 14.905 91.2237 14.3662 91.9779 14.3662C92.7321 14.4022 93.2349 14.905 93.2349 15.5514Z" fill="white"/>
<path d="M100.275 16.7002V23.3803C100.275 24.6373 100.85 24.9605 101.712 24.9605C101.927 24.9605 102.143 24.9246 102.574 24.8887C103.292 24.781 103.651 25.3197 103.651 25.8584C103.651 26.3612 103.364 26.864 102.753 26.9718C102.25 27.0436 101.676 27.1154 101.101 27.1154C98.9104 27.1154 97.8329 26.3253 97.8329 23.5599V16.7002H96.5759C96.0372 16.7002 95.5703 16.2692 95.5703 15.6586C95.5703 15.0122 96.0372 14.6171 96.5759 14.6171H97.8329V12.2108C97.8329 11.5644 98.3357 11.0256 99.0899 11.0256C99.8442 11.0256 100.311 11.5644 100.311 12.2108V14.6171H102.681C103.256 14.6171 103.687 15.0122 103.687 15.6586C103.687 16.2692 103.256 16.7002 102.681 16.7002H100.275Z" fill="white"/>
<path d="M116.763 15.4434C116.763 15.6589 116.691 15.9103 116.583 16.1258L111.268 28.8037C110.37 30.9226 109.041 31.6409 107.102 31.6409C106.671 31.6409 106.455 31.605 106.276 31.605C105.629 31.5332 105.234 31.1381 105.234 30.5276C105.234 29.9529 105.593 29.4501 106.24 29.4861C106.419 29.4861 106.599 29.522 106.994 29.522C108.215 29.522 108.933 29.1269 109.293 28.1572L109.831 26.7925L105.234 16.1617C105.127 15.9462 105.055 15.6948 105.055 15.4793C105.055 14.761 105.629 14.366 106.24 14.366C106.707 14.366 107.21 14.6533 107.425 15.192L111.017 23.8474L114.464 15.1561C114.68 14.6174 115.111 14.4019 115.65 14.4019C116.152 14.366 116.763 14.7251 116.763 15.4434Z" fill="white"/>
</svg>
