<svg width="136" height="32" viewBox="0 0 136 32" fill="none" xmlns="http://www.w3.org/2000/svg">
<g clip-path="url(#clip0_2546_36)">
<path fill-rule="evenodd" clip-rule="evenodd" d="M24.7299 0H2.2669C1.03041 0 0 0.98969 0 2.2268V29.7732C0 31.0103 1.03041 32 2.2669 32H24.7299C25.9663 32 26.9968 31.0103 26.9968 29.7732V2.2268C27.0654 0.98969 26.035 0 24.7299 0Z" fill="#002C5F"/>
<path fill-rule="evenodd" clip-rule="evenodd" d="M21.6256 9.67907C21.6256 9.67907 19.7799 7.33488 16.0044 7H3V11.186H6.35597L6.27207 25H11.0543V11.1023H16.0044C16.0044 11.1023 18.018 11.3535 18.7731 12.8605C18.7731 12.8605 20.3672 15.707 18.7731 19.0558C18.7731 19.0558 18.018 20.4791 16.4239 20.6465L12.4806 20.7302V24.9163H15.9205C15.9205 24.9163 17.5985 24.9163 19.1926 24.2465C20.1155 23.8279 21.2062 23.1581 21.7934 22.2372C21.7095 22.2372 26.9113 16.3767 21.6256 9.67907Z" fill="white"/>
<path d="M136 21.3398C136 22.0716 135.905 22.6841 135.716 23.1773C135.54 23.6545 135.281 24.0443 134.94 24.3466C134.612 24.633 134.215 24.8398 133.748 24.967C133.281 25.0943 132.764 25.158 132.197 25.158C131.957 25.158 131.711 25.142 131.459 25.1102C131.206 25.0943 130.96 25.0625 130.721 25.0148C130.494 24.983 130.279 24.9511 130.077 24.9193C129.888 24.8716 129.73 24.8239 129.604 24.7761V22.0557C129.857 22.1352 130.185 22.2307 130.588 22.342C130.992 22.4375 131.415 22.4852 131.856 22.4852C132.298 22.4852 132.663 22.4216 132.954 22.2943C133.256 22.167 133.408 21.8966 133.408 21.483C133.408 21.117 133.326 20.8386 133.162 20.6477C133.01 20.4568 132.695 20.3057 132.216 20.1943C131.244 19.9716 130.557 19.558 130.153 18.9534C129.762 18.3489 129.566 17.5375 129.566 16.5193C129.566 15.183 129.888 14.2284 130.531 13.6557C131.175 13.083 132.165 12.7966 133.502 12.7966C133.691 12.7966 133.893 12.8125 134.108 12.8443C134.322 12.8761 134.53 12.9159 134.732 12.9636C134.934 12.9955 135.117 13.0352 135.281 13.083C135.458 13.1307 135.59 13.1705 135.678 13.2023V15.9227C135.388 15.8114 135.066 15.708 134.713 15.6125C134.373 15.5171 133.944 15.4693 133.427 15.4693C132.96 15.4693 132.626 15.5409 132.424 15.6841C132.222 15.8273 132.121 16.0818 132.121 16.4477C132.121 16.7341 132.222 16.9568 132.424 17.1159C132.626 17.2591 132.935 17.3705 133.351 17.45C134.335 17.6568 135.022 18.0864 135.413 18.7386C135.804 19.375 136 20.242 136 21.3398Z" fill="white"/>
<path d="M123.934 24.9432V13.0114H125.977L126.167 14.0852C126.419 13.7034 126.709 13.3932 127.037 13.1546C127.365 12.9159 127.731 12.7966 128.134 12.7966C128.425 12.7966 128.715 12.8364 129.005 12.9159V16.0659C128.841 16.0182 128.683 15.9864 128.532 15.9705C128.393 15.9386 128.235 15.9227 128.059 15.9227C127.743 15.9227 127.485 16.0261 127.283 16.233C127.081 16.4239 126.917 16.6864 126.791 17.0205C126.665 17.3386 126.577 17.7045 126.526 18.1182C126.476 18.5318 126.45 18.9534 126.45 19.383V24.9432H123.934Z" fill="white"/>
<path d="M117.515 20.1466C117.552 21.0216 117.679 21.6261 117.893 21.9602C118.12 22.2784 118.517 22.4375 119.085 22.4375C119.615 22.4375 120.113 22.3977 120.58 22.3182C121.059 22.2386 121.438 22.1591 121.715 22.0795V24.7523C121.564 24.8 121.375 24.8557 121.148 24.9193C120.921 24.967 120.681 25.0068 120.429 25.0386C120.176 25.0705 119.93 25.0943 119.691 25.1102C119.464 25.142 119.262 25.158 119.085 25.158C118.404 25.158 117.805 25.0864 117.287 24.9432C116.77 24.8 116.335 24.5057 115.982 24.0602C115.641 23.6148 115.383 22.9943 115.206 22.1989C115.042 21.3875 114.96 20.3136 114.96 18.9773C114.96 17.8796 115.042 16.9409 115.206 16.1614C115.383 15.3659 115.635 14.7216 115.963 14.2284C116.304 13.7352 116.714 13.3773 117.193 13.1546C117.672 12.9159 118.221 12.7966 118.839 12.7966C119.558 12.7966 120.145 12.9159 120.599 13.1546C121.066 13.3932 121.431 13.7432 121.696 14.2046C121.961 14.65 122.144 15.2068 122.245 15.875C122.359 16.5432 122.415 17.2989 122.415 18.1421V20.1466H117.515ZM118.801 15.4216C118.41 15.4216 118.114 15.5966 117.912 15.9466C117.723 16.2966 117.597 16.9171 117.533 17.808H119.993V17.1875C119.993 16.5989 119.899 16.1614 119.71 15.875C119.52 15.5727 119.218 15.4216 118.801 15.4216Z" fill="white"/>
<path d="M105.999 29V13.0114H108.043L108.232 13.9898C108.522 13.6239 108.857 13.3375 109.235 13.1307C109.614 12.908 110.055 12.7966 110.56 12.7966C111.077 12.7966 111.531 12.8921 111.922 13.083C112.313 13.258 112.635 13.5523 112.887 13.9659C113.139 14.3796 113.329 14.9364 113.455 15.6364C113.581 16.3205 113.644 17.1796 113.644 18.2136C113.644 19.5182 113.562 20.6159 113.398 21.5068C113.247 22.3977 112.994 23.1136 112.641 23.6545C112.3 24.1955 111.846 24.5852 111.279 24.8239C110.711 25.0466 110.017 25.158 109.197 25.158C109.084 25.158 108.97 25.158 108.857 25.158C108.743 25.158 108.63 25.15 108.516 25.1341V29H105.999ZM109.897 15.5171C109.481 15.5171 109.147 15.708 108.895 16.0898C108.642 16.4716 108.516 16.8773 108.516 17.3068V22.3898C108.655 22.4057 108.794 22.4216 108.932 22.4375C109.071 22.4375 109.204 22.4375 109.33 22.4375C109.683 22.4375 109.973 22.3898 110.2 22.2943C110.427 22.183 110.604 21.9841 110.73 21.6977C110.869 21.3955 110.963 20.9898 111.014 20.4807C111.064 19.9557 111.089 19.2795 111.089 18.4523C111.089 17.8477 111.071 17.3546 111.033 16.9727C110.995 16.5909 110.925 16.2966 110.825 16.0898C110.736 15.8671 110.616 15.7159 110.465 15.6364C110.314 15.5568 110.124 15.5171 109.897 15.5171Z" fill="white"/>
<path d="M104.386 18.7385C104.386 19.9953 104.298 21.0373 104.121 21.8646C103.944 22.676 103.686 23.3282 103.345 23.8214C103.004 24.2987 102.576 24.6328 102.058 24.8237C101.554 25.0146 100.967 25.11 100.299 25.11C99.6301 25.11 99.0435 25.0146 98.5389 24.8237C98.0343 24.6328 97.6117 24.2987 97.2711 23.8214C96.9305 23.3282 96.6719 22.676 96.4953 21.8646C96.3313 21.0373 96.2493 19.9953 96.2493 18.7385C96.2493 16.7021 96.5647 15.2146 97.1954 14.276C97.8388 13.3214 98.8732 12.8441 100.299 12.8441C101.724 12.8441 102.759 13.3214 103.402 14.276C104.058 15.2146 104.386 16.7021 104.386 18.7385ZM101.812 19.0964C101.812 18.3964 101.787 17.8157 101.737 17.3544C101.686 16.8771 101.598 16.4953 101.472 16.2089C101.358 15.9226 101.207 15.7237 101.018 15.6123C100.828 15.4851 100.589 15.4214 100.299 15.4214C100.021 15.4214 99.7877 15.4851 99.5985 15.6123C99.4093 15.7237 99.2579 15.9226 99.1444 16.2089C99.0309 16.4953 98.9489 16.8771 98.8984 17.3544C98.848 17.8157 98.8227 18.3964 98.8227 19.0964C98.8227 19.7646 98.8417 20.3214 98.8795 20.7669C98.93 21.1964 99.0119 21.5464 99.1255 21.8169C99.239 22.0714 99.3904 22.2544 99.5796 22.3657C99.7688 22.4771 100.009 22.5328 100.299 22.5328C100.589 22.5328 100.828 22.4771 101.018 22.3657C101.22 22.2544 101.377 22.0714 101.491 21.8169C101.604 21.5464 101.686 21.1964 101.737 20.7669C101.787 20.3214 101.812 19.7646 101.812 19.0964Z" fill="white"/>
<path d="M95.3969 24.8714C95.2581 24.9032 95.0248 24.943 94.6968 24.9907C94.3814 25.0385 94.0408 25.0623 93.675 25.0623C92.8929 25.0623 92.3504 24.768 92.0477 24.1794C91.7576 23.5748 91.6125 22.6521 91.6125 21.4112V8.23846H94.1291V21.2919C94.1291 21.6737 94.167 21.9441 94.2427 22.1032C94.3183 22.2464 94.476 22.318 94.7157 22.318C94.8545 22.318 94.9869 22.31 95.1131 22.2941C95.2518 22.2623 95.3464 22.2385 95.3969 22.2225V24.8714Z" fill="white"/>
<path d="M85.1931 20.1466C85.2309 21.0216 85.3571 21.6261 85.5715 21.9602C85.7986 22.2784 86.196 22.4375 86.7636 22.4375C87.2934 22.4375 87.7917 22.3977 88.2585 22.3182C88.7378 22.2386 89.1163 22.1591 89.3938 22.0795V24.7523C89.2424 24.8 89.0532 24.8557 88.8261 24.9193C88.5991 24.967 88.3594 25.0068 88.1071 25.0386C87.8548 25.0705 87.6088 25.0943 87.3691 25.1102C87.1421 25.142 86.9402 25.158 86.7636 25.158C86.0824 25.158 85.4832 25.0864 84.966 24.9432C84.4488 24.8 84.0136 24.5057 83.6604 24.0602C83.3198 23.6148 83.0612 22.9943 82.8846 22.1989C82.7206 21.3875 82.6386 20.3136 82.6386 18.9773C82.6386 17.8796 82.7206 16.9409 82.8846 16.1614C83.0612 15.3659 83.3135 14.7216 83.6415 14.2284C83.9821 13.7352 84.3921 13.3773 84.8714 13.1546C85.3508 12.9159 85.8995 12.7966 86.5176 12.7966C87.2367 12.7966 87.8232 12.9159 88.2774 13.1546C88.7441 13.3932 89.11 13.7432 89.3749 14.2046C89.6398 14.65 89.8227 15.2068 89.9236 15.875C90.0371 16.5432 90.0939 17.2989 90.0939 18.1421V20.1466H85.1931ZM86.4798 15.4216C86.0887 15.4216 85.7923 15.5966 85.5905 15.9466C85.4012 16.2966 85.2751 16.9171 85.212 17.808H87.6719V17.1875C87.6719 16.5989 87.5773 16.1614 87.388 15.875C87.1988 15.5727 86.8961 15.4216 86.4798 15.4216Z" fill="white"/>
<path d="M79.7148 24.9669H76.0629L73.603 13.0351H76.2332L77.9173 22.676L79.6202 13.0351H82.1558L79.7148 24.9669Z" fill="white"/>
<path d="M68.3121 20.1466C68.3499 21.0216 68.4761 21.6261 68.6905 21.9602C68.9176 22.2784 69.315 22.4375 69.8826 22.4375C70.4124 22.4375 70.9107 22.3977 71.3775 22.3182C71.8568 22.2386 72.2353 22.1591 72.5128 22.0795V24.7523C72.3614 24.8 72.1722 24.8557 71.9451 24.9193C71.7181 24.967 71.4784 25.0068 71.2261 25.0386C70.9738 25.0705 70.7278 25.0943 70.4881 25.1102C70.2611 25.142 70.0592 25.158 69.8826 25.158C69.2014 25.158 68.6022 25.0864 68.085 24.9432C67.5678 24.8 67.1326 24.5057 66.7794 24.0602C66.4388 23.6148 66.1802 22.9943 66.0036 22.1989C65.8396 21.3875 65.7576 20.3136 65.7576 18.9773C65.7576 17.8796 65.8396 16.9409 66.0036 16.1614C66.1802 15.3659 66.4325 14.7216 66.7605 14.2284C67.1011 13.7352 67.5111 13.3773 67.9904 13.1546C68.4698 12.9159 69.0185 12.7966 69.6366 12.7966C70.3557 12.7966 70.9423 12.9159 71.3964 13.1546C71.8631 13.3932 72.229 13.7432 72.4939 14.2046C72.7588 14.65 72.9417 15.2068 73.0426 15.875C73.1561 16.5432 73.2129 17.2989 73.2129 18.1421V20.1466H68.3121ZM69.5988 15.4216C69.2077 15.4216 68.9113 15.5966 68.7095 15.9466C68.5202 16.2966 68.3941 16.9171 68.331 17.808H70.7909V17.1875C70.7909 16.5989 70.6963 16.1614 70.5071 15.875C70.3178 15.5727 70.0151 15.4216 69.5988 15.4216Z" fill="white"/>
<path d="M61.8051 16.4955C61.8051 15.2068 61.7672 14.1966 61.6915 13.4648C61.6285 12.717 61.5276 12.1523 61.3888 11.7705C61.2626 11.3886 61.0923 11.15 60.8779 11.0545C60.6761 10.9432 60.4301 10.8875 60.1399 10.8875C59.9633 10.8875 59.7993 10.8955 59.648 10.9114C59.5092 10.9114 59.3894 10.9193 59.2884 10.9352C59.1623 10.9511 59.0551 10.967 58.9668 10.983V22.1989C59.0425 22.2148 59.1371 22.2307 59.2506 22.2466C59.3515 22.2625 59.4714 22.2784 59.6101 22.2943C59.7489 22.2943 59.9192 22.2943 60.121 22.2943C60.4112 22.2943 60.6634 22.2068 60.8779 22.0318C61.0923 21.8568 61.269 21.5545 61.4077 21.125C61.5465 20.6795 61.6474 20.083 61.7105 19.3352C61.7735 18.5875 61.8051 17.6409 61.8051 16.4955ZM64.4352 16.3284C64.4352 18.1102 64.3406 19.5739 64.1514 20.7193C63.9622 21.8648 63.6784 22.7716 63.2999 23.4398C62.9215 24.092 62.4484 24.5455 61.8808 24.8C61.3257 25.0545 60.6824 25.1818 59.9507 25.1818C59.6227 25.1818 59.2506 25.1659 58.8343 25.1341C58.418 25.1182 58.027 25.0943 57.6611 25.0625C57.2449 25.0148 56.816 24.975 56.3745 24.9432V8.23864C56.816 8.20682 57.2449 8.16705 57.6611 8.11932C58.0144 8.0875 58.3802 8.06364 58.7586 8.04773C59.1371 8.01591 59.4587 8 59.7237 8C60.4805 8 61.1491 8.10341 61.7294 8.31023C62.3223 8.51705 62.8143 8.92273 63.2053 9.52727C63.609 10.1318 63.9117 10.975 64.1136 12.0568C64.328 13.1386 64.4352 14.5625 64.4352 16.3284Z" fill="white"/>
<path d="M47.035 29V13.0114H49.0786L49.2678 13.9898C49.5579 13.6239 49.8922 13.3375 50.2706 13.1307C50.6491 12.908 51.0906 12.7966 51.5952 12.7966C52.1124 12.7966 52.5665 12.8921 52.9576 13.083C53.3486 13.258 53.6703 13.5523 53.9226 13.9659C54.1749 14.3796 54.3641 14.9364 54.4903 15.6364C54.6164 16.3205 54.6795 17.1796 54.6795 18.2136C54.6795 19.5182 54.5975 20.6159 54.4335 21.5068C54.2821 22.3977 54.0298 23.1136 53.6766 23.6545C53.336 24.1955 52.8819 24.5852 52.3142 24.8239C51.7466 25.0466 51.0528 25.158 50.2328 25.158C50.1193 25.158 50.0057 25.158 49.8922 25.158C49.7787 25.158 49.6651 25.15 49.5516 25.1341V29H47.035ZM50.9329 15.5171C50.5166 15.5171 50.1823 15.708 49.93 16.0898C49.6778 16.4716 49.5516 16.8773 49.5516 17.3068V22.3898C49.6904 22.4057 49.8291 22.4216 49.9679 22.4375C50.1067 22.4375 50.2391 22.4375 50.3653 22.4375C50.7185 22.4375 51.0086 22.3898 51.2357 22.2943C51.4627 22.183 51.6393 21.9841 51.7655 21.6977C51.9042 21.3955 51.9989 20.9898 52.0493 20.4807C52.0998 19.9557 52.125 19.2795 52.125 18.4523C52.125 17.8477 52.1061 17.3546 52.0682 16.9727C52.0304 16.5909 51.961 16.2966 51.8601 16.0898C51.7718 15.8671 51.652 15.7159 51.5006 15.6364C51.3492 15.5568 51.16 15.5171 50.9329 15.5171Z" fill="white"/>
<path d="M45.4214 18.7385C45.4214 19.9953 45.3331 21.0373 45.1565 21.8646C44.9799 22.676 44.7213 23.3282 44.3807 23.8214C44.0401 24.2987 43.6112 24.6328 43.094 24.8237C42.5894 25.0146 42.0029 25.11 41.3343 25.11C40.6657 25.11 40.0791 25.0146 39.5745 24.8237C39.07 24.6328 38.6474 24.2987 38.3068 23.8214C37.9662 23.3282 37.7076 22.676 37.531 21.8646C37.367 21.0373 37.285 19.9953 37.285 18.7385C37.285 16.7021 37.6003 15.2146 38.2311 14.276C38.8744 13.3214 39.9088 12.8441 41.3343 12.8441C42.7597 12.8441 43.7942 13.3214 44.4375 14.276C45.0935 15.2146 45.4214 16.7021 45.4214 18.7385ZM42.8481 19.0964C42.8481 18.3964 42.8228 17.8157 42.7724 17.3544C42.7219 16.8771 42.6336 16.4953 42.5075 16.2089C42.3939 15.9226 42.2425 15.7237 42.0533 15.6123C41.8641 15.4851 41.6244 15.4214 41.3343 15.4214C41.0568 15.4214 40.8234 15.4851 40.6342 15.6123C40.445 15.7237 40.2936 15.9226 40.18 16.2089C40.0665 16.4953 39.9845 16.8771 39.9341 17.3544C39.8836 17.8157 39.8584 18.3964 39.8584 19.0964C39.8584 19.7646 39.8773 20.3214 39.9151 20.7669C39.9656 21.1964 40.0476 21.5464 40.1611 21.8169C40.2747 22.0714 40.426 22.2544 40.6153 22.3657C40.8045 22.4771 41.0442 22.5328 41.3343 22.5328C41.6244 22.5328 41.8641 22.4771 42.0533 22.3657C42.2552 22.2544 42.4128 22.0714 42.5264 21.8169C42.6399 21.5464 42.7219 21.1964 42.7724 20.7669C42.8228 20.3214 42.8481 19.7646 42.8481 19.0964Z" fill="white"/>
<path d="M35.3171 11.126V24.943H32.7248V11.126H30V8.23846H38.0419V11.126H35.3171Z" fill="white"/>
</g>
<defs>
<clipPath id="clip0_2546_36">
<rect width="136" height="32" fill="white"/>
</clipPath>
</defs>
</svg>
