<svg width="16" height="16" viewBox="0 0 16 16" fill="none" xmlns="http://www.w3.org/2000/svg">
<path d="M10.3173 5.42032L10.204 5.17863L8.01115 0.500787C8.00773 0.500302 8.00389 0.5 7.99975 0.5C7.99562 0.5 7.99177 0.500302 7.98836 0.500787L5.79618 5.17858L5.68291 5.42029L5.41904 5.46065L0.50072 6.21303C0.500685 6.21304 0.500651 6.21304 0.500618 6.21305C0.500593 6.21305 0.50057 6.21306 0.500546 6.21306C0.500448 6.21336 0.500368 6.21365 0.500303 6.21391C0.500417 6.21403 0.500539 6.21415 0.500667 6.21428L0.500917 6.21454L4.07424 9.88266L4.2501 10.0632L4.20959 10.3119L3.36492 15.4977L3.36491 15.4978C3.36506 15.4979 3.36523 15.498 3.36541 15.4981L7.75795 13.067L8.00011 12.9329L8.24226 13.067L12.6348 15.4988C12.6349 15.4987 12.6351 15.4986 12.6353 15.4985L12.6352 15.4983L11.7906 10.3126L11.7501 10.0639L11.9259 9.88335L15.4991 6.21536C15.4991 6.21532 15.4992 6.21528 15.4992 6.21524C15.4994 6.21503 15.4996 6.21483 15.4998 6.21465C15.4997 6.21421 15.4995 6.21371 15.4994 6.21314C15.4986 6.21074 15.4978 6.21015 15.4984 6.21081C15.4985 6.21096 15.4987 6.21117 15.499 6.21143C15.4992 6.21157 15.4993 6.2117 15.4995 6.21183C15.5 6.21225 15.5006 6.21264 15.5012 6.21298C15.5014 6.21267 15.5014 6.21267 15.5012 6.21299C15.5015 6.2132 15.5019 6.21338 15.5022 6.21354C15.5032 6.21398 15.503 6.21371 15.501 6.21331C15.5007 6.21393 15.5004 6.21464 15.5002 6.21532C15.5002 6.21552 15.5001 6.21572 15.5001 6.21592C15.5001 6.21595 15.5001 6.21598 15.5001 6.21601L15.8569 6.56358L15.5 6.21627C15.5 6.21643 15.5 6.21651 15.5 6.21651C15.5 6.21651 15.5 6.21641 15.5 6.21623L10.3173 5.42032ZM10.3173 5.42032L10.5812 5.46066L10.6567 4.9664L10.5812 5.46067L10.5814 5.46069L10.582 5.46079L10.5844 5.46116L10.5941 5.46264L10.632 5.46843L10.776 5.49044L11.293 5.56949L12.8892 5.81359C14.0687 5.99397 15.298 6.18202 15.4993 6.21301C15.5 6.21311 15.5005 6.21321 15.5009 6.2133L10.3173 5.42032Z" stroke="#FFC107"/>
<path d="M4.57031 9.71415L0.570312 6.28557L5.71317 5.14272L7.99888 0.571289L8.57031 2.857L8.5 13L7.99888 13.1427L3.42746 15.4284L4.57031 9.71415Z" fill="#FFC107"/>
</svg>
